<?xml version="1.0" encoding="UTF-8"?>
<!DOCTYPE svg PUBLIC "-//W3C//DTD SVG 1.1//EN" "http://www.w3.org/Graphics/SVG/1.1/DTD/svg11.dtd">
<!-- Creator: CorelDRAW -->
<svg xmlns="http://www.w3.org/2000/svg" xml:space="preserve" width="2.16188in" height="2.20173in" version="1.1" style="shape-rendering:geometricPrecision; text-rendering:geometricPrecision; image-rendering:optimizeQuality; fill-rule:evenodd; clip-rule:evenodd"
viewBox="0 0 2161.88 2201.74"
 xmlns:xlink="http://www.w3.org/1999/xlink"
 xmlns:xodm="http://www.corel.com/coreldraw/odm/2003">
 <defs>
  <style type="text/css">
   <![CDATA[
    .str0 {stroke:#856443;stroke-width:20.83;stroke-miterlimit:2.61313}
    .fil1 {fill:none}
    .fil0 {fill:#856443}
   ]]>
  </style>
 </defs>
 <g id="Layer_x0020_1">
  <metadata id="CorelCorpID_0Corel-Layer"/>
  <path class="fil0" d="M466.43 547.87c-0.01,39.02 1.01,40.53 7.95,77.04 1.38,7.24 2.76,4.34 4.8,11.75 5.65,20.49 9.78,31.41 20.08,48.72l15.35 27.27c6.37,10.94 15.43,18.34 23.22,27.51l11.35 10.49c0.19,0.22 0.44,0.54 0.63,0.76l14.57 13c3.69,2.59 6.09,4.07 9.48,6.94l10.33 7.49c7.92,7.06 17.57,11.29 26.31,16.01 3.67,1.98 3.88,3.1 4.61,3.5 3.2,1.74 8.69,0.96 14.09,3.92 10,5.49 41.3,13.55 52.9,13.86 22.43,0.59 43.76,1.34 67.23,1.34l727.93 0c12.16,-0.01 24.98,-0.01 37.1,-0.47 7.9,-0.3 6.61,-1.82 13,-4.11 6.35,-2.28 10.09,-1.23 16.68,-2.83 3.53,-0.86 6.42,-4.35 10.91,-6.3l69.29 -43.13c5.83,-5.07 -1.34,1.2 1.54,-1.25l15.2 -14.86c0.19,-0.22 0.45,-0.55 0.64,-0.77l8.73 -11.67c3.67,-5.27 7.31,-13.48 12.35,-16.94 0.27,-0.19 0.62,-0.4 0.91,-0.57l4.27 -2.13c0.17,-7.48 0.88,-6.35 2.2,-8.57 6.51,-10.88 -2.76,9.21 1.96,-3.24 5.4,-14.27 5.2,-8.63 6.52,-12.43 0.81,-2.34 0.6,-9.7 0.7,-12.58 7.89,-3.91 2.87,-12.47 7.7,-19.59 1.21,-1.78 1.16,-0.5 2.24,-2.72 1.07,-2.19 0.89,-6.04 0.93,-9.43 0.3,-27.24 5.54,-17.14 5.43,-45.31 -0.11,-29.32 0.33,-12.53 -3.35,-29.11 -0.99,-4.47 -2.11,-21.65 -2.2,-27.1 -0.13,-0.78 -3.11,-2.87 -4.31,-7.63 -0.72,-2.89 -0.98,-6.56 -1.81,-10.52 -2.37,-11.39 0.19,0.53 -3.62,-8.33 -1.68,-3.91 -1.3,-7.79 -1.42,-13.27 -14.19,-8.59 -6.52,-11.51 -19.18,-26.13 -4.2,-4.84 -7.37,-12.46 -11.39,-17.48l-31.87 -33.93c-7.16,-7.66 -14.82,-8.43 -22.39,-14.63l-18 -10.89c-6.69,-2.61 -10.5,-6.89 -24.77,-12.01 -3.06,-1.09 -3.91,-1.2 -6.91,-2.65 -9.44,-4.56 -19.63,-7.12 -29.29,-8.57 -15.81,-2.39 -9.57,-15.72 -15.5,-30.48l-7.95 -20.86c-1.47,-3.59 -0.63,-6.91 -2.3,-10.19 -2.32,-4.53 0.12,1.15 -3.06,-3.54l-1.86 -4.02c-0.44,-1.2 -1.07,-3.5 -1.83,-4.77l-14.68 -20.98c-4.35,-7.66 -15.15,-21.2 -22.2,-26.8l-4.52 -3.85c-8.6,-8.33 -19.92,-14.87 -29.3,-22.76 -1.39,-1.17 -5.08,-3.92 -6.23,-4.6l-28.07 -14.36c-3.76,-1.7 -1.28,-0.74 -3.56,-1.96 -3.56,-1.89 -5.1,-1.96 -9.26,-2.83 -8.52,-1.76 -10.11,-4.26 -19,-5.66 -25.58,-4.04 -23.39,-5.26 -52.17,-5.29 -10.94,-0.01 -20.4,0.31 -30.17,3.73 -5.25,1.84 -4.93,1.09 -10.8,1.84 -14.15,1.8 -36.99,15.43 -42.77,16.26 -5.97,0.85 -6.63,-0.66 -9.67,-3.01 -0.28,-0.22 -2.7,-2.22 -3,-2.48l-46.93 -31.15c-3.86,-2.53 -4.29,-1.84 -8.57,-3.71l-17.22 -7.63c-8.26,-5.53 -25.78,-10.06 -35.79,-12.44 -6.78,-1.61 -10.98,-3.22 -17.95,-5.13 -12.59,-3.44 -10.72,-0.42 -27.74,-6.23 -9.42,-3.22 -57.87,-1.28 -69.01,-0.13l-37.86 5.04c-5.69,1.22 -2.34,3.07 -10.18,4.55l-33.48 10.33c-8.44,3.81 -17.93,5.36 -25.39,11.49l-1.52 1.23c-0.23,0.18 -0.56,0.42 -0.8,0.59 -8,5.66 -17.85,9 -25.08,14.71 -5.22,4.12 -9.3,4.79 -14.33,8.98 -10.7,8.91 -22.59,16.44 -32.89,26.06 -10.13,9.46 -18.75,20.9 -28.72,30.25l-25.54 33.45c-8.07,5.96 -30.41,0.29 -41.69,2.42 -6.63,1.26 -4.63,2.53 -11.54,3.14 -9.52,0.85 -17.35,0.65 -25.58,3.45 -4.3,1.46 -6.17,1.78 -11.06,2.69l-32.37 11.5c-7.44,3.28 -0.85,2.9 -8.82,5.9 -10.32,3.89 -38.99,21.33 -45.87,28.36 -3.21,3.29 -3.12,3.64 -7.15,6.52l-7.73 7.39c-5.14,6.2 -17.45,10.66 -28.32,30.43l-6.84 9.85c-5.58,6.83 -23.02,40.72 -25.57,47.04 -5.47,13.55 -12.71,31.19 -13.35,45.76 -0.2,4.5 -0.57,9.2 -1.68,12.09 -1.89,4.96 -0.79,0.26 -2.02,4.71 -3.13,11.29 -2.15,24.04 -2.16,36.63zm327.21 -31.53c3.19,5.96 14.6,12.13 19.83,15.46l44.01 25.9c6.81,3.47 0.23,-1.55 11.71,6.04 15.24,10.08 9.65,6.05 22.09,0.28 5.78,-2.68 7.55,-4.37 9.27,-7.93 -1.21,-1.26 -0.61,-0.86 -2.37,-2.15l-65.72 -39.75c-6.01,-3.59 -17.54,-8.72 -25.52,-6.57l-12.35 7.88c-0.25,0.19 -0.66,0.52 -0.94,0.84zm165.59 148.05c6.72,7.61 18.23,15.02 28.26,10.68l68.04 -38.97c4.23,-2.15 11.97,-4.96 12.27,-10.18 0.24,-4.11 -1.23,-4.13 -3.7,-6.2 -18.25,-15.36 -30.18,2.25 -49.95,13.2 -1.12,0.62 -1.54,0.84 -2.66,1.58 -1.16,0.76 -1.63,1.35 -3.11,2.21 -3.26,1.89 -3.76,1.2 -7.34,3.8 -0.24,0.17 -0.54,0.45 -0.77,0.63l-2.15 1.82c-2.24,1.56 -0.14,0.21 -3.44,1.83l-35.46 19.6zm440.79 -74.91l-68.23 -45.59c-5.53,-3.48 -3.59,-4.27 -12.15,-3.74l-25.43 37.02c-3.04,4.83 -15.71,10.38 9.67,23.33 10.71,5.46 13.11,8.74 21.57,15.52l21.46 14.15c2.85,1.8 2.19,1.58 5.44,2.96 8.78,3.74 11.99,11.27 19.83,1.47l7.85 -9.91c6.77,-10.2 4.2,-8.7 15.57,-21.43 4.53,-5.07 4.65,-5.52 4.42,-13.79zm-604.55 573.91l0 2.74c0.02,8.98 2.03,40.16 4.87,47.5 5.64,14.62 2.72,21.39 5.39,28.9 1.28,3.61 1.64,2.04 2.8,5.29 3.47,9.75 2.26,14.44 8.93,26.9l11.21 23.02c0.84,1.66 2.75,4.3 3.73,5.86l10.13 16.12c3.72,4.14 6.42,10.65 9.97,15.95 1.01,1.5 2.57,3.67 3.59,4.81l38.63 40.81c23.44,20.91 27.76,18.53 36.19,24.3 0.36,0.24 1.2,1.15 2.2,1.85 1.89,1.36 2.04,1.27 3.54,2.07 8.83,4.71 13.8,8.21 23.91,11.93l35.98 15.73c3.89,1.31 11.47,1.25 15.81,2.36l28.84 5.52c12.05,1.07 18.13,3.88 31.69,3.86 21.02,-0.04 44.26,-2.68 64.29,-5.86l28.21 -7.57c13.89,-4.14 25.66,-7.6 37.66,-15.78 6.89,-4.7 16.1,-7.98 22.94,-12.68 11.03,-7.57 22.22,-12.72 32.22,-21.3l18.5 -17.11c5.93,-4.76 18.52,-20.36 25.08,-27.06l4.08 -4.03c1.67,-2.3 1.73,-3.67 3.26,-6.32 2.63,-4.54 5.6,-5.68 7.51,-10.37 5.09,-12.51 14.38,-21.62 17.79,-36.24 2.13,-9.14 7.78,-15.93 11.09,-24.14 2.17,-5.38 1,-8.44 3.89,-13.94 3.36,-6.38 2.59,-6.27 3.55,-14.52 1.56,-13.36 3.96,-6.86 4.61,-31.63 0.89,-34.11 5.2,-82.5 -8.32,-114.25 -4.5,-10.56 -4.22,-21.07 -10.91,-31.79 -1.78,-2.85 -1.8,-2.59 -3.12,-6.25 -4.83,-13.39 -29.45,-53.65 -39.16,-62.76 -0.23,-0.22 -0.53,-0.48 -0.77,-0.69 -0.24,-0.2 -0.58,-0.44 -0.83,-0.62l-7.39 -6.05c-5.04,-4.81 -10.02,-13.83 -14.61,-17.09l-12.6 -9.11c-5.06,-4.99 -9.95,-10.14 -16.38,-11.84 -2.19,-0.58 -1.89,-0.07 -4.73,-1.15 -0.06,-0.45 -0.06,-2.83 -0.17,-3.31 -2.11,-8.48 -8.27,-7.07 -16.06,-12.27 -0.23,-0.15 -0.53,-0.42 -0.76,-0.58l-11.37 -6.6c-0.29,-0.15 -0.63,-0.34 -0.93,-0.48 -0.3,-0.15 -0.65,-0.33 -0.94,-0.48l-1.96 -0.87c-1.36,-0.58 -2.83,-1.04 -4.81,-1.94 -0.34,-0.15 -4.66,-2.25 -4.67,-2.26 -3.7,-1.34 -2.63,-0.6 -6.03,-1.36 -7.2,-1.63 -2.26,-2.06 -8.54,-4.64l-20.24 -6.3c-22.53,-3.94 -11.35,-1.59 -32.06,-8.61 -19.91,-6.76 -64.48,-5.72 -87.6,-3.38l-6.82 1.76c-0.31,0.09 -0.65,0.24 -0.96,0.33 -9.43,2.8 -21.91,0.91 -29.53,5.07 -4.69,2.56 -14.32,3.95 -18.35,6.26 -11.65,6.68 -9.63,0.09 -19.8,6.36 -7.24,4.45 -16.79,5.8 -23.83,10.52l-7.88 4.36c-3.29,1.34 -1.4,0.22 -3.74,1.83l-17.97 16.41c-3.2,3.18 0.15,1.49 -4.13,3.46l-5.96 2.65c-10.06,6.87 -3.23,7.74 -17.99,16.12l-28.62 27.83c-5.14,5.35 -8.56,11.87 -12.36,17.99 -1.2,1.93 -1.65,2 -3.48,4.77l-15.5 26.97c-7.19,11.37 -0.02,7.01 -7.74,18.16 -4.95,7.15 -7.41,22.56 -11.66,30.94 -2.42,4.78 -1.97,8.8 -3.77,14.04 -5.76,16.72 -7.11,40.78 -7.06,61.92zm282.89 362.76c-19.52,0.01 -39.81,-0.46 -58.97,-2.89 -7.63,-0.97 -7.11,-1.9 -14.41,-3.3l-33.67 -8.51c-5,-2.18 -2.13,-1.64 -6.93,-2.81 -9.19,-2.24 -23.08,-10.22 -30.93,-11.87 -2.57,-0.54 -5.3,-0.91 -7.06,-2.03l-55.18 -32.57 -17.41 -16.7c-3.35,-3.85 -5.35,-5.14 -9.65,-8.04 -4.97,-3.35 -4.67,-5.5 -8.85,-8.97l-13.78 -12.37c-4.91,-5.07 -8.76,-7.15 -12.6,-13.56 -2.61,-4.35 -17.44,-19.62 -27.17,-33.03l-7.57 -9.97c-1.71,-3.3 -1.81,-3.05 -3.76,-6.04l-9.7 -16.37c-4,-5.15 -6.01,-10.44 -8.56,-17.3 -1.87,-5.07 -0.75,-1.75 -3.05,-5.32 -3.35,-5.2 -3.32,-11.26 -7.94,-15.54l-1.82 -1.47c-0.23,-0.19 -0.63,-0.52 -0.98,-0.74 -7.3,-1.96 -3.62,1.75 -16.59,5.76 -10.61,3.28 -20.93,9.67 -29.56,16.22 -13.26,10.07 -25.81,18.78 -36.89,31.7l-48.13 64.27c-3.69,6.45 -2.17,10.11 -7.03,16.28 -7.6,9.69 -10.72,19.44 -14.18,31.02l-6.6 15.33c-2.51,4.69 -1.71,0 -2.78,8.12 -1.2,9.15 -2.56,10.87 -5.07,18.42 -0.9,2.69 -1.21,6.42 -1.8,9.09 -1.39,6.31 -3.74,11.37 -5.32,17.76 -1.48,6 -2.29,11.57 -4.15,17.73 -2.24,7.41 -1.54,12.67 -2.71,20.63 -2.41,16.41 -4.62,15.38 -5.13,39.81 -0.71,33.76 -1.24,18.16 -4.1,41.5l-8.8 81.35c-3.28,24.09 -3.05,5.76 -3.92,41.66 -0.2,8.19 -0.76,13.22 -1.43,20.61 -0.88,9.75 -2.95,11.14 -2.62,20.34 11.24,5.97 36.33,2.64 51.9,2.64 55.46,0 111.43,1.36 166.82,-0.16 5.23,-9.67 2.6,-95.43 2.61,-109.24 0.02,-18.19 3.44,-13.18 21.12,-13.22 29.15,-0.06 23.19,-4.19 28.18,30.72 2.19,15.35 1.19,18.3 2.48,30.28 0.89,8.33 3.37,19.15 3.79,28.94 1.67,39.39 -6.15,32.68 35.47,32.68l501.14 -0.28c4.6,-7.87 2.28,-19.47 3.09,-30.99 0.76,-10.64 3.81,-20.17 4.01,-31.5 0.37,-21.32 2.37,-42.53 8.2,-62.01 6.98,-0.07 13.95,-0.13 20.93,-0.18l16.43 0.21c9.54,1.72 -6.3,-2.07 2.38,0.65l2.17 0.99c4.8,5.46 1.54,100.34 1.5,120.13 7.5,4.67 22.48,2.97 33.74,2.97 43.66,0 150.82,2.16 187.5,-1.2 1.26,-13.3 -3.4,-22.16 -3.75,-35.51 -0.69,-26.49 -6.22,-47.61 -6.98,-74.08 -0.3,-10.31 -1.53,-9.45 -2.93,-17.55l-2.66 -37.29c-0.24,-10.38 -1.59,-10.89 -2.69,-17.91 -1.87,-11.94 -1.89,-26.42 -2.03,-39.68 -0.11,-12.06 -10.16,-57.09 -11.03,-71.29 -0.59,-9.64 -3.54,-7.18 -4.98,-13.73 -2.17,-9.85 1.65,-7.49 -3.65,-16.63 -2.56,-4.4 -1.81,-12.08 -4.37,-16.26 -2.89,-4.72 -3.46,-9.7 -6.09,-14.46 -2.97,-5.37 -2.93,-10.17 -5.27,-15.51l-9.59 -20.72c-1.71,-5.26 -3.54,-5.01 -5.44,-9.54l-5.36 -11.16c-3.17,-8.11 -7.19,-6.25 -13.14,-15.2 -1.55,-2.32 -2.91,-3.6 -5.06,-5.85 -5.54,-5.81 -8.29,-12.88 -18.17,-22.94l-20.41 -20.56c-1.71,-1.19 -4,-2.86 -5.48,-4.39 -6.99,-7.23 -14.25,-12.45 -23.24,-17.63 -3.67,-2.11 -2.77,-2.06 -5.7,-3.91 -2.36,-1.5 -4.14,-1.98 -6.31,-3.31l-11.5 -8.87c-6.61,-3.49 -15.8,-9.19 -22.75,-7.08 -10.17,3.09 -9.18,20.33 -14.29,26.76 -4.86,6.12 -1.3,-0.93 -7.41,11.33 -3.93,7.87 0.02,4.86 -6.85,15.32l-6.62 11.23c-2.05,3.28 -1.56,2.52 -4.25,5.35l-4.08 4.19c-2.98,3.09 -11.02,18.14 -17.77,26.08l-9.4 11.16c-8.34,8.87 -15.52,18.09 -25.53,25.22l-64.01 48.2 -20.33 9.94c-3.82,1.58 -4.02,1.62 -7.53,3.48 -9.69,5.12 -10.42,6.51 -20.89,9.04 -4.69,1.13 -3.31,1.41 -6.49,3.22 -4.22,2.41 -10.61,2.36 -15.91,4.66 -5.13,2.22 -10.37,3.09 -15.4,5.07 -6.09,2.4 -8.5,3.39 -16.12,4.1 -9.96,0.92 -10.58,2.49 -16.83,3.83l-37.77 3.09c-6.87,0.06 -13.74,0.13 -20.61,0.15zm-64.43 -790.46c15.77,0.02 26.52,0.17 40.93,-5.51 3.82,-1.5 5.39,-0.67 9.26,-1.88l15.54 -6.41c15.37,-9.84 11.74,-4.6 28.94,-24.53 10.08,-11.68 9.22,-40.88 6.09,-55.55 -2.22,-10.46 -1.06,-8.36 -6.27,-15.68 -6.84,-9.6 1.96,-5.32 -21.98,-21.93 -20.98,-14.54 -16.09,-8.7 -31.26,-12.39 -5.46,-1.33 -1.72,-1.85 -7.53,-3.26 -7.56,-1.85 -54.95,-2.56 -64.07,-0.57l-24.29 8.35c-5.11,2.09 -18.26,5.7 -23.99,11.28l-9.06 8.81c-8.34,9.78 -9.01,21.36 -11.6,33.45 -0.7,3.3 -0.46,6.94 -0.43,10.37 0.2,30.69 2.39,39.39 22.46,53.94 2.87,2.08 2.89,2.84 6.16,4.61l22.24 10.63c3.22,1.5 4.37,1.39 9.06,1.7 8.5,0.56 11.72,1.72 18.93,3.42 6.04,1.42 13.31,1.11 20.86,1.14zm-266.62 -182.34c0.03,16.15 -2.29,24.04 5.94,35.85 0.17,0.25 0.39,0.59 0.58,0.82l2.75 2.76c7.62,7.31 6.63,8.15 19.31,15.18 17.62,9.76 43.5,17.08 63.91,18.54 32.43,2.31 23.42,-2.63 37.06,-3.91 5.47,-0.51 7.02,-0.44 10.96,-2.91l13.06 -21.8c0.19,-0.22 0.44,-0.53 0.63,-0.75l38.34 -27.01c8.63,-3.73 5.77,-7.85 6.02,-23.63 0.28,-16.87 0.2,-10.45 -3.43,-20.19 -2.91,-7.81 -2.97,-11.64 -13.94,-20.54l-14.3 -9.28c-11.82,-4.96 -1.5,-3.31 -14.94,-6.88 -5.65,-1.5 -4.61,-2.27 -8.28,-3.83 -4.89,-2.09 -38.45,-5.64 -47.02,-5.66 -7.83,-0.01 -12.57,0.11 -19.16,1.71 -16.96,4.1 -25.24,1.9 -40.17,12.06 -8.24,5.61 -8.71,-0.16 -19.63,12.07 -5.42,6.07 -7.86,6.14 -10.73,11.42 -7.75,14.23 -6.97,15.69 -6.94,35.98zm221.07 -202.89c-1.06,6.38 0.2,0.74 -2.44,5.54 -1.28,2.31 -2.13,4.17 -3.22,6.43 -5.47,11.41 -11.81,26.99 -15.05,39.76 -7.06,27.86 -10.95,34.28 14.01,48.49 20.29,11.54 37.65,29.49 58.49,40.18 2.6,1.33 0.11,0 2.61,1.56 0.26,0.16 0.57,0.41 0.83,0.57l18.08 13.37c2.79,1.87 3.31,1.44 6.06,3.58 1.3,1.01 2.82,2.8 4.09,4.18 0.19,0.21 0.46,0.52 0.65,0.73l7.14 4.96c14.36,7.99 26.2,20.86 40.62,27.85 0.3,0.15 0.68,0.28 0.98,0.43 0.3,0.15 0.67,0.3 0.96,0.46l27.46 19.31c1.87,1.65 1.06,1.08 2.96,2.28 1.16,0.73 1.3,0.62 2.66,1.46l29.38 20.2c6.55,5.73 15.84,9.04 22.75,14.28l22.63 14.41c6.71,4.75 4.54,4.69 9.42,9.62l-13.32 22.27c-2,2.88 -1.77,2.49 -3.16,5.18 -1.52,2.95 -2.57,4.51 -2.98,7 -0.91,5.57 2.4,9.53 4.39,13.59l20.4 -1.79c0.15,-0.26 0.85,-1.45 1.06,-1.78 5.92,-9.4 14.4,-17.72 21.52,-26.2 2.91,-3.46 2.35,-5.06 4.51,-9.24 2.29,-4.44 3.8,-4.45 6.14,-7.57 5.37,-7.17 3.63,-10.22 12.25,-15.21 14.26,5.96 18.65,10.57 30.67,18.76 3.35,2.29 6.27,4.28 9.65,6.79l1.58 1.18c7.63,5.31 15.13,12.14 23.48,16.39l5.07 1.98c18.37,8.47 -1.39,19.01 -5.68,30.91 -2.92,8.1 -5.58,10.26 -0.08,16.96 4.85,5.91 16.29,8.8 21.5,1.26l16.21 -22.07c7.07,-10.36 16.18,-19.8 22.73,-30.63l31.51 -46.65c4.84,-7.68 8.43,-16.74 15.04,-23.2l17.3 -24.07c8.89,-15.55 -3.09,-31.55 -15.72,-22.48l-15.46 16.22c-2.13,3.04 -2.62,4.43 -4.85,7.26 -4.83,0.2 -9.02,-0.78 -12.09,-3.08 -0.23,-0.17 -0.52,-0.45 -0.74,-0.62l-59.85 -41.58c-6.56,-5.04 -9.02,-4.54 -9.67,-9.2 -0.72,-5.2 3.09,-6.08 5.49,-10.17 3.43,-5.84 8.17,-8.89 11.16,-14.89 2.88,-5.78 -0.53,-2.15 3.76,-6.95l2.03 -2.08c0.19,-0.21 0.46,-0.52 0.66,-0.73l16.81 -21.49c6.35,-10.59 5.61,-25.15 -6.33,-26.94 -15.59,-2.33 -20.17,7.03 -30.67,24.24 -1.72,2.83 -1.78,4.17 -3.6,6.81 -7.75,0.39 -10.57,-3.4 -15.14,-6.35l-27.32 -19.26c-5.44,-3.8 -10.06,-5.97 -17.86,-5.47 -4.03,4.99 -5.59,8.77 -9.39,13.9l-12.13 17.9c-3.06,4.31 -0.2,-0.28 -2.36,2.64 -4.92,6.65 -9.16,15.11 -14.5,21.24 -6.42,-1.8 -15.93,-7.83 -20.07,-11.82 -3.33,-6.91 6.44,-18.22 9.69,-22.76l14.59 -21.01c2.82,-4.01 2.33,-7.06 5.43,-11 2.6,-3.32 7.16,-4.63 1.28,-12.25 -3.78,-4.9 -17.23,-11.63 -22.91,-16.9 -22.95,-21.3 -23.83,-4.22 -31.02,5.34l-21.3 32.29c-2.39,3.98 0.45,0.87 -2.64,4.04 -5.35,5.5 -8.15,3.46 -13.32,0.36 -18.89,-11.37 -15.01,-13.68 -1.1,-32.66l16.82 -24.34c12.52,-17.21 13.3,-14.89 -8.71,-28.13l-16.37 -12.31c-18.74,-15.41 -17.86,3.96 -33.25,21.96 -2.31,2.7 -2.92,3.29 -4.75,6.17 -0.64,1.01 -1.41,2.46 -2.15,3.39 -9.66,12.2 -10.69,23.94 -24.82,12.94 -13.7,-10.66 -11.2,-9.11 -1.09,-23.79 2.88,-4.18 2.84,-7.91 6,-11.9 0.95,-1.2 -1.19,1.17 1.31,-1.35 6.63,-6.7 11.58,-13.02 15.98,-21.02 1.58,-2.87 0.25,-0.28 1.58,-2.58 6.72,-11.62 -3.19,-14.22 -12.06,-21.02l-31.41 -20.81c-7.1,-3.63 -12.96,-4.4 -20.71,-0.47 -17.52,8.87 -34.8,26.3 -49.65,39.49 -1.74,1.54 -6.58,4.95 -8.46,5.67 -9.62,3.65 -22.26,-11.85 -32.37,-16.87l-64.87 -43.59c-0.24,-0.17 -0.58,-0.39 -0.83,-0.56l-8.52 -5.32c-3.14,-1.81 -1.72,-0.65 -4.24,-2.52 -7.56,-5.59 -12.82,-4.38 -22.91,-3.51 -13.31,22.28 5.52,29.26 23.52,38.86l14.64 8.63c6.57,4.12 11.91,10.11 18.78,14.13 17.94,10.53 8.73,1.47 15.08,11.76 2.76,4.47 28.39,15.02 41.71,30.98z"/>
  <g>
   <path class="fil1 str0" d="M332.1 10.42l1497.68 0c176.93,0 321.68,144.76 321.68,321.68l0 1537.54c0,176.93 -144.76,321.68 -321.68,321.68l-1497.68 0c-176.93,0 -321.68,-144.76 -321.68,-321.68l0 -1537.54c0,-176.93 144.76,-321.68 321.68,-321.68z"/>
  </g>
 </g>
</svg>
