<?xml version="1.0" encoding="UTF-8"?>
<!DOCTYPE svg PUBLIC "-//W3C//DTD SVG 1.1//EN" "http://www.w3.org/Graphics/SVG/1.1/DTD/svg11.dtd">
<!-- Creator: CorelDRAW -->
<svg xmlns="http://www.w3.org/2000/svg" xml:space="preserve" width="2.16188in" height="2.20173in" version="1.1" style="shape-rendering:geometricPrecision; text-rendering:geometricPrecision; image-rendering:optimizeQuality; fill-rule:evenodd; clip-rule:evenodd"
viewBox="0 0 2161.88 2201.74"
 xmlns:xlink="http://www.w3.org/1999/xlink"
 xmlns:xodm="http://www.corel.com/coreldraw/odm/2003">
 <defs>
  <style type="text/css">
   <![CDATA[
    .str0 {stroke:#856443;stroke-width:20.83;stroke-miterlimit:2.61313}
    .fil1 {fill:none}
    .fil0 {fill:#856443}
   ]]>
  </style>
 </defs>
 <g id="Layer_x0020_1">
  <metadata id="CorelCorpID_0Corel-Layer"/>
  <path class="fil0" d="M824.43 959.72c8.02,-38.76 -22.27,-155.17 -34.13,-192.74 -9.44,-29.9 -19,-55.35 -29.92,-82.35 -6.26,-15.5 -9.44,-26.4 -30.59,-23.51 -41.76,5.7 -72.56,25.15 -151.19,15.39 -34.54,-4.29 -72.37,-26.94 -86.38,2.91 -21.42,45.64 -43.94,124.17 -52.82,177.91 -16.88,102.22 -19.87,208.95 1.3,312.28 11.09,54.13 12.77,45.67 69.63,45.32 75.89,-0.46 151.85,-1 227.74,-1.22 51.41,-0.15 65,10.34 74.37,-39.34 5.6,-29.7 15.9,-73.27 11.71,-103.82 8.21,-12.2 4.46,-56.11 4.34,-74.22l-0.5 -14.89c-0.04,-11.17 1.55,-14.63 -3.57,-21.7zm231.85 33.96c9.23,-4.52 4.72,-2.3 9.7,-14.96 11.51,-29.24 27.06,-41.47 26.64,-52.36l-44.59 0.06c-5.39,17.27 0.61,53.92 8.25,67.26zm505.39 0.37c9.07,-11.29 12.61,-36.15 12.27,-53.5 -0.29,-14.52 -0.04,-18.87 -47.87,-13.43 -1.08,11.05 15.06,20.32 25.83,48.5 0.42,1.1 2.84,8.03 3.33,9.07l6.44 9.35zm-832.41 399.63c-12.05,11.28 1.45,19.2 19.67,54.3 6.03,11.61 15.15,57.69 34.53,37.54 10.48,-10.9 -9.14,-46.19 -14.65,-57.41 -6.52,-13.31 -23.03,-49.89 -39.56,-34.43zm-58.7 -457.38c-1.48,-0.65 -2.37,-0.53 -2.89,0.22 -26.77,2.53 -39.84,18.24 -79.06,1.07 -45.93,-20.11 -71.36,-72.54 -53.02,-121.29 27.21,-72.34 123.02,-88.51 172.24,-16.79 45.71,66.61 -25.13,126.63 -25.93,128.82 -11.31,3.9 -5.86,-1.27 -11.35,7.97zm-134.59 752.34c60.45,6.71 -7.11,-124.44 -16.27,-139.45 -56.98,-93.44 6.93,-129.2 -2.01,-156.75l-17.29 -2.63c-33.79,35.46 -40.52,99.75 -14.44,152.56 13.25,26.83 41.57,71.74 46.03,103.93 3.5,25.18 -7.89,25.52 3.98,42.34zm-200.18 -455.1c14.53,-2.53 43.83,-59.1 60.15,-82.66 16.41,-23.68 11,-25.88 7.87,-56.89 -1.95,-19.3 -1.69,-54.07 -5.02,-69.08 -13.81,1.97 -14.69,9.83 -32.98,36.6 -8.69,12.72 -21.11,28.22 -27.96,40.8 -7.21,13.24 -6.94,116.25 -2.07,131.24zm586.11 -0.07c5.65,-15.66 4.69,-119.7 -3.12,-133.23 -8.05,-13.95 -50.94,-76.74 -61.72,-80.69 -6.31,15.92 -4.52,47.58 -6.2,67.94 -3.85,46.76 -9.07,36.32 37.95,105.17 5.9,8.65 9.94,14.53 14.89,22.46 6.52,10.44 6.9,16.62 18.2,18.35zm-385.51 56.41c9.15,7.54 161.72,7.61 173.62,0.63 0,-0 19.41,-49.35 -15.28,-50.77l-147.24 0.59c-16.5,1.17 -20.93,9.92 -17.22,37.24 1.69,12.46 5,11.25 6.13,12.31zm77.48 -508.98c-36.5,7.13 -66.36,39.22 -56.12,84.46 20.11,88.84 154.59,57.74 136.99,-30.61 -6.51,-32.7 -40.97,-61.65 -80.87,-53.85zm795.15 -117.66l0.03 143.5c-0,13.95 5.16,15.03 18.48,15.03l134.15 -0.05c22.04,-0.01 18.08,-8.38 12.06,-26.93 -11.55,-35.59 -31.4,-68.32 -55.52,-94.38 -19.32,-20.87 -58.56,-47.49 -87.79,-59.18 -24.31,-9.72 -21.41,0.76 -21.41,22.01zm-330.89 158.56l131.03 -0.02c13.41,0.02 16.35,-0.87 16.35,-15.03l0 -149.74c-0,-29.3 -10.77,-26.7 -56.8,0.2 -55.03,32.17 -92.82,78.93 -112.15,140.67 -7.6,24.28 -1.69,23.96 21.57,23.93zm177.21 -222.15l-2.57 4.68c-3,12.84 -2.24,192.96 0.72,216.75l121 0.68c9.09,-0.01 8.52,-6.01 8.52,-15.01l0.02 -193.42c-0.01,-19.89 -26.9,-29.04 -26.83,9.15 0.03,20.12 2.78,64.23 -3.48,78.37 -28.86,8.73 -22.17,-16.9 -22.13,-56.32 0.04,-34.94 5.57,-46.2 -12.33,-46.69 -31.99,-0.87 -2.31,69.31 -18.02,103.33 -36.53,9.35 -18.8,-39.76 -21.75,-88.31 -1.06,-17.49 -5.54,-16.84 -23.15,-13.22zm-645.16 52.41c23.71,-0.06 42.23,-1.25 64.92,-5.11 76.54,-13.01 70.48,-10.48 1.01,-124.47 -51.16,-83.94 -50.64,-71.2 -78.07,-33.56 -23.48,32.21 -44.25,65.91 -64.62,103.89 -11.65,21.72 -27.95,38.57 2.14,48.37 20.13,6.56 51.59,10.94 74.63,10.88zm407.33 196.32c-3.07,42.57 -7.41,51.97 19.78,52.16 89.77,0.62 557.36,2.29 563.97,-3.75 0.55,-0.6 1.17,-2.48 1.31,-2.05l2.66 -46.96c-190.81,0.29 -399.36,-2.4 -587.72,0.6zm250.92 891.14c106.73,0.01 83.01,21.28 103.7,-120.84 3.3,-22.7 19.98,-121.02 17.2,-137.02 -12.13,0.77 -81.2,60.93 -161.02,10.96 -27.31,-17.09 -24.69,-14.5 -17.96,20.79l32.57 180.01c4.53,24.86 0.53,46.09 25.5,46.09zm-82.19 -452.34l-0.04 81.11c-0.02,154.23 222.99,158.28 223.02,0 0.02,-145.78 7.76,-60.24 -114.41,-70.21 -37.89,-3.09 -57.73,-8.72 -89.69,-22.88 -14.43,-6.39 -18.86,-5.84 -18.87,11.98zm-569.18 432.87c32.54,4.66 165.63,-71.64 87.21,-255.5 -18.41,-43.15 -26.27,-46.31 -71.93,-62.22 -39.59,-13.79 -63.57,-37.95 -79.78,14.43 -12.02,38.85 -3.72,78.32 12.49,109.02 15.94,30.19 35.34,48.44 48.16,82.82 24.8,66.46 0.69,86.19 3.86,111.45zm743.91 -1384.59c-9.42,9.83 -39.35,30.23 -34.34,47.74 5.81,20.3 27.62,41.32 22.65,63.94 -1.56,7.1 -9.55,22.14 -12.69,31.5 -5.12,15.24 -5.63,20.02 -18.27,25.46 -56.88,24.46 -57.25,3.45 -57.25,53.07 0,21.67 11.24,15.17 57.28,15.19l53.3 0.26c37.58,-2.28 0.3,-24.12 37.65,-96.12 45.2,-87.13 172.24,-108.34 236.73,-44.14 48.97,48.75 72.93,101.65 48.09,173.02 -31.67,90.97 -117.21,96.3 -133.59,104.66 2.03,4.34 29.22,52.74 32.35,56.22 14.3,1.24 32.95,-10.55 46.46,-16.06 21.02,-8.57 32.83,2.28 49.83,10.07 16.05,7.35 30.56,19.65 43.45,8.75 45.6,-38.53 32.93,-36.12 10.84,-84.77 -12.08,-26.61 -3.23,-26.91 6.33,-51.19 14.51,-36.85 13.95,-22.32 66,-43.3 18.78,-7.57 13.12,-16.83 12.81,-62.04 -10.21,-9.66 -31.93,-14.89 -46.19,-19.74 -26.32,-8.95 -21.82,-9.73 -30.98,-34.49 -7.19,-19.43 -17.31,-26.64 -7.57,-49.08 6.02,-13.85 18.01,-34.54 21.12,-48.17l-40.23 -42.2c-20.1,4.63 -34.78,16.67 -51.46,22.88 -20.44,7.61 -33.95,-6.56 -53.86,-13.49 -27.84,-9.7 -23.69,-14.53 -33.1,-41.75 -11.66,-33.73 -5.88,-30.88 -43.41,-31 -36.17,-0.11 -28.04,-1.31 -39.48,31.79 -9.04,26.17 -7.15,31.79 -33.59,41.2 -18.41,6.56 -35.21,20.33 -53.65,12.96 -17.69,-7.07 -35.97,-21.28 -55.24,-21.16zm-158.06 1403.82c-4.94,-13.31 -22.93,-22.03 -32.82,-29.32 -16.16,-11.91 -106.63,-80.59 -108.07,-85.87 0.83,-23.85 52.42,-67.94 62.29,-93.59 -12.61,-24.29 -100.92,-95.34 -87.99,-113.38 11.88,-16.58 27.98,9.52 33.8,15.38 14.45,14.56 84.82,87.68 86.16,94.88 2.81,15.13 -52.92,67.37 -61.47,90.33 6.49,8.97 46.78,37.28 60.35,47.87 11.18,8.72 52.82,42.41 61.59,44.08 2.38,-12.15 -46.03,-281.82 -53.56,-307.75 -6.51,-22.44 -27.69,-19.3 -70.53,-15.87 -74.58,5.96 -142.78,38.07 -189.66,87.91 -47.07,50.03 -79.58,111.98 -83.59,187.48 -5.31,100.04 -4.7,78.11 105.86,78.11l277.64 -0.26zm185.4 -32.21c12.07,0.86 21.3,-9.8 30.48,-16.88 10.41,-8.03 19.31,-15.17 29.72,-23.24 14.71,-11.39 50.87,-35.98 59,-46.54 1.53,-24.85 -55.52,-67.48 -58.11,-93.03 5.74,-13.07 44.25,-48.71 56.26,-62.2 10.18,-11.43 16.81,-20.62 28.17,-31.2 10.3,-9.59 17.9,-27.19 34.09,-18.87 15.4,13.63 -29,50.23 -51.67,76.25 -35.44,40.68 -51.85,25.61 12.44,103.35 7.76,9.38 16.26,15.63 14.6,33.7l-111.52 84.14c-8.97,6.93 -41.46,26.94 -4.24,26.94l333.8 0.04c36.41,0.01 28.22,-23.65 28.02,-56.2 -0.44,-75.35 -20.57,-131.28 -64.7,-187.91 -42.2,-54.15 -125.1,-110.32 -228.49,-110.32 -72.19,0 -60.93,-0.79 -70.76,62.33 -6.65,42.74 -39.96,245.51 -37.1,259.61zm-531.67 -1465.1c-52.99,22.32 -7.02,55.91 -10.03,77.3 -0.94,6.7 -13.76,39.51 -18.76,43.81 -5.53,4.76 -38.4,14.8 -46.3,18.18l-2.04 36.94c12.34,11.78 21.35,10.91 39.1,17.92 18.68,7.37 15.92,15.42 25.13,34.27 18.25,37.37 -33.57,49.05 -4.81,79.52 30.53,32.33 46.07,-16.61 77.43,-5.83 48.16,16.55 33.79,24.85 52.91,65.63 21.68,3.57 15.83,2.22 40.17,0.73 21.11,-47.77 7.72,-48.49 35.35,-58.61 7.99,-2.93 18.1,-8.91 24.41,-9.38 10.73,-0.79 33.19,13.4 44.14,17.39 8.63,3.14 11.52,3.06 19.2,-4.17 4.31,-4.06 14.22,-13.64 16.61,-16.7 -0.4,-37.81 -30.72,-30.01 -10.05,-76.8 7.94,-17.99 4.35,-19.8 23.08,-26.85 16.55,-6.22 24.24,-5.86 36.58,-16.27 2.47,-63.33 -15.23,-32.7 -46.06,-54.96 -8.46,-6.11 -9.06,-17.4 -14.18,-29.59 -6.75,-16.07 -10.32,-17.16 -1.91,-33.81 3.9,-7.73 12.78,-22.09 12.26,-30.39 -0.47,-7.56 -15.18,-23.06 -20.53,-25.74 -20.56,-10.31 -36.54,23.82 -63.28,10.98 -33.02,-15.85 -34.43,-4.02 -46.97,-40.77 -6.15,-18.02 -3.42,-21.51 -20.8,-22.83 -21.5,-1.64 -27.42,-1.61 -33.5,13.91 -17.72,45.19 -2.42,26.56 -43.82,46.63 -32.98,15.99 -31.34,-4.75 -63.34,-10.48zm113.1 39.91c-157.95,32.76 -107.04,265.19 45.54,234.32 56.41,-11.41 110.18,-69.46 94.32,-140.4 -12.9,-57.69 -66.82,-109.07 -139.85,-93.92zm187.4 645.93c-60.02,10.56 -81.65,79.41 -77.13,120.89 5.86,53.76 32.71,111.17 59.05,143.28 58.91,71.82 188.47,118.17 290.15,43.83 62.99,-46.06 145.41,-179.63 88.99,-270.17 -12.1,-19.42 -29.81,-36.53 -60.32,-38.94l-300.74 1.11z"/>
  <g>
   <path class="fil1 str0" d="M332.1 10.42l1497.68 0c176.93,0 321.68,144.76 321.68,321.68l0 1537.54c0,176.93 -144.76,321.68 -321.68,321.68l-1497.68 0c-176.93,0 -321.68,-144.76 -321.68,-321.68l0 -1537.54c0,-176.93 144.76,-321.68 321.68,-321.68z"/>
  </g>
 </g>
</svg>
