<?xml version="1.0" encoding="UTF-8"?>
<!DOCTYPE svg PUBLIC "-//W3C//DTD SVG 1.1//EN" "http://www.w3.org/Graphics/SVG/1.1/DTD/svg11.dtd">
<!-- Creator: CorelDRAW -->
<svg xmlns="http://www.w3.org/2000/svg" xml:space="preserve" width="2.16188in" height="2.20173in" version="1.1" style="shape-rendering:geometricPrecision; text-rendering:geometricPrecision; image-rendering:optimizeQuality; fill-rule:evenodd; clip-rule:evenodd"
viewBox="0 0 2161.88 2201.74"
 xmlns:xlink="http://www.w3.org/1999/xlink"
 xmlns:xodm="http://www.corel.com/coreldraw/odm/2003">
 <defs>
  <style type="text/css">
   <![CDATA[
    .str0 {stroke:#856443;stroke-width:20.83;stroke-miterlimit:2.61313}
    .fil1 {fill:none}
    .fil0 {fill:#856443}
   ]]>
  </style>
 </defs>
 <g id="Layer_x0020_1">
  <metadata id="CorelCorpID_0Corel-Layer"/>
  <path class="fil0" d="M771.81 605.85c-23.55,40.4 -22.46,41.35 -7.74,100.2 21.52,85.97 103.85,106.85 113.75,272.57 -91.8,63.53 -68.11,3.23 -169.97,126.7 -72.81,88.28 -172.19,52.42 -349.36,162.63 -157.12,97.74 -154.35,242.66 -182.9,416.58 -9.91,60.3 -40.43,132.48 10.65,152.52 73.38,-32.22 30.3,-305.86 112.43,-438.67 63.91,-103.35 223.16,-149.98 356.03,-197.32l15.59 96.89 69.09 27.19c-119.91,92.24 -46.11,110.56 93.87,265.39 63.69,70.45 176.23,191.57 245.99,248.11 144.43,-135.18 262.18,-277.86 405.23,-414.2 90.9,160.82 -79.06,53.23 -25.73,246.89 121.31,66.13 236.6,-27.84 126.03,-129.45 -47.69,-43.82 -16.11,13.52 -39.45,-50.09 -10.24,-27.91 -1.14,-39.12 -22.41,-78.05 -20.82,-38.11 -68.13,-61.72 -102.25,-86.59 31.15,-13.65 40.93,-15.54 63.03,-32.16l8.83 -95.21c131.31,34.13 292.88,94.63 361.79,189.74 66.85,92.25 69.2,333.2 87.01,395.32 17.95,62.62 -9.1,21.89 30.92,52.12 36.13,-21.65 45.02,49.91 10.14,-152.25 -74.07,-429.42 -86.84,-378.32 -466.16,-527.88 -54.1,-21.33 -76.97,-68.03 -106.94,-98.2 -43.52,-43.81 -78.84,-44.58 -128.65,-79.99 -7.79,-171.62 170.58,-240.85 105.65,-377.34 -56.66,27.32 -49.94,109.03 -92.29,167.91 -58.42,81.24 -105.27,24.09 -200.56,18.91 -103.24,-5.61 -152.85,60.38 -217.02,-1.6 -68.57,-66.22 -39.17,-140.43 -104.57,-180.65zm307.43 18.26c68.84,52.97 7.29,117.74 193.65,91 13.04,-30.06 47.55,-123.31 15.03,-152.23 -64.7,-28.7 -340.28,-23.86 -422.43,-2.76 -56.55,146.35 76.74,243.47 185.21,96.59 1.91,-2.59 4.39,-6.28 6.3,-8.72l22.24 -23.87zm-292.78 -52c56.89,-39.44 70.04,-90.67 70.96,-168.42 182.63,21.17 346.24,-119.57 425.65,-52.52 55.27,59.8 -27.42,165.41 95.32,225.3 9.56,-56.07 31.55,-127.73 30.74,-184.17 -1.43,-97.7 -36.7,-81.27 -76.76,-135.76 -40.66,-55.31 -57.96,-155.96 -281.87,-141.7 -226.98,14.45 -418.25,233.88 -264.03,457.27zm177.3 281.6c34.95,83.4 -3.33,43.64 191.75,64.13l42.78 -56.04 -234.53 -8.09zm-243.61 413.56l101.09 23.22c-24.75,76.42 -38.68,46.87 -87.21,112.67 25.66,40.39 122.84,136.59 165.1,180.51 33.26,34.58 51.63,56.28 83.41,91.82 36.03,40.3 61.38,51.72 96.69,86.13 22.57,-25.69 59.93,-51.13 87.38,-80.51l167.45 -184.4c40.58,-39.19 66.06,-51.57 87.51,-93.55 -42.79,-54.85 -66.02,-34.85 -85.17,-102.48 45.69,-31.6 41.93,-20.25 105.86,-28.36 -0.62,-121.84 -60.63,-187.54 -148.36,-226.88 -20.59,87.34 -108.95,173.03 -187.56,210.54 45.17,59.64 25.61,-7.11 45.92,59.35 -80.88,141.29 17.52,92.34 2.41,217.84 -8.14,67.7 -43.26,166.82 -75.44,210.73 -34.09,-47.3 -68.62,-150.11 -78.01,-216.81 -14.64,-104.03 85.96,-73.75 3.86,-211.76 11.03,-39.56 4.07,-11.02 43.82,-57.18 -153.84,-86.98 -168.34,-176.81 -189.26,-212.67 -86.45,45.66 -145.51,96.91 -139.5,221.79z"/>
  <rect class="fil0" x="1582.39" y="640.06" width="133.81" height="449.21"/>
  <rect class="fil0" transform="matrix(4.68343E-14 -2.0516 1.76836 5.43358E-14 1455.7 887.245)" width="65.22" height="218.95"/>
  <g>
   <path class="fil1 str0" d="M332.1 10.42l1497.68 0c176.93,0 321.68,144.76 321.68,321.68l0 1537.54c0,176.93 -144.76,321.68 -321.68,321.68l-1497.68 0c-176.93,0 -321.68,-144.76 -321.68,-321.68l0 -1537.54c0,-176.93 144.76,-321.68 321.68,-321.68z"/>
  </g>
 </g>
</svg>
