<?xml version="1.0" encoding="UTF-8"?>
<!DOCTYPE svg PUBLIC "-//W3C//DTD SVG 1.1//EN" "http://www.w3.org/Graphics/SVG/1.1/DTD/svg11.dtd">
<!-- Creator: CorelDRAW -->
<svg xmlns="http://www.w3.org/2000/svg" xml:space="preserve" width="2.16188in" height="2.20173in" version="1.1" style="shape-rendering:geometricPrecision; text-rendering:geometricPrecision; image-rendering:optimizeQuality; fill-rule:evenodd; clip-rule:evenodd"
viewBox="0 0 2161.88 2201.74"
 xmlns:xlink="http://www.w3.org/1999/xlink"
 xmlns:xodm="http://www.corel.com/coreldraw/odm/2003">
 <defs>
  <style type="text/css">
   <![CDATA[
    .str0 {stroke:#856443;stroke-width:20.83;stroke-miterlimit:2.61313}
    .fil1 {fill:none}
    .fil0 {fill:#856443}
   ]]>
  </style>
 </defs>
 <g id="Layer_x0020_1">
  <metadata id="CorelCorpID_0Corel-Layer"/>
  <path class="fil0" d="M877.42 968.14c0.62,2.84 -1.67,5.47 -2.61,7.71 -1.31,3.07 -1.19,5.6 -1.19,9.78 -0,3.53 0.06,13.08 0.79,15.98 0.58,2.29 2.9,3.48 3.76,7.05 0.78,3.26 2.25,5.24 3.57,8.06 1.37,2.94 4.35,5.09 6.7,7.1 1.78,1.52 0.28,0.25 1.34,1.52 1.71,2.04 1.46,1.03 3.35,2.44 1.84,1.37 0.69,1.54 2.82,2.92 1.87,1.22 1.22,0.28 3.11,2.09 2.92,2.8 2.31,4.33 3.85,7.66 2.38,5.14 2.31,8.08 3.96,12.7l2.74 8.83c1.22,4.91 2.87,8.08 4,12.77 0.48,2.03 0.75,2.14 2,3.68 2.78,3.41 1.22,4.62 2.88,8.08 0.7,1.46 1.7,1.79 2.45,3.26 1.24,2.44 1.45,5.5 3.11,7.85 1.74,2.45 1.8,5.7 3.48,8.04 2.65,3.71 1.96,5.17 3.53,7.41 1.23,1.77 1.3,0.93 2.3,3.42 0.71,1.76 0.74,2.42 1.87,3.91 2.44,3.23 2,4.07 3.49,7.41 0.73,1.62 1.67,2.48 2.22,3.55 0.94,1.84 0.34,2.26 1.63,4.16 2.17,3.18 5,6.67 6.06,10.77 1.28,5 2.99,3.35 4.54,6.94 1.66,3.84 4.39,6.42 6.96,9.69 1.28,1.63 0.93,2.13 2.24,3.5 1.57,1.64 1.22,0.37 2.67,2.55l3.12 3.82c0.32,0.43 0.14,0.34 0.67,1.06 1.87,2.55 3.03,1.16 4.35,4.32 2.2,5.24 8.26,7.91 11.22,11.19l8.72 8c1.76,2.13 7.88,4.63 10.4,6.29l6.48 5.04c3.45,3.82 3.57,0.92 7.68,3.27 1.46,0.84 1.78,1.36 3.52,2.24 1.53,0.78 2.67,1.15 4.06,1.66 3.65,1.34 2.8,2.8 7.38,3.51 4.25,0.66 5.12,1.86 8.84,2.79 3.28,0.82 6.06,0.75 9.22,1.75 4.4,1.38 2.18,2.43 8.97,2.56 4.32,0.08 5.74,1.07 9.76,1.12l38.38 -0.93c3.78,-1.09 2.28,-1.95 13.1,-4.09 3.85,-0.76 4.39,-2.26 7.77,-3.14 1.56,-0.41 2.88,-0.5 4.59,-1.2l3.6 -2.17c2.82,-2 5.85,-0.97 8.18,-2.79 2.18,-1.7 0.04,-0.84 3.29,-2.42 2.28,-1.1 4.11,-3.29 6.57,-4.33l7.57 -4.04c2.17,-1.23 1.54,-1.37 2.96,-2.81 1.89,-1.91 4.47,-3.04 6.72,-4.26 1.44,-0.78 1.7,-1.9 2.72,-3l19.38 -19.8c1.4,-2.11 2.96,-2 4.54,-4.07l11.67 -15.94c0.88,-1.75 2.64,-3.04 3.93,-4.76 5.4,-7.19 2.26,-4.69 6.19,-10.52 1.72,-2.56 1.84,-4.72 4.22,-7.33 1.59,-1.74 1,-1.48 1.92,-3.46 0.04,-4.4 1.12,-3.23 2.2,-6.03 1.06,-2.74 0.39,-3.06 2.21,-5.45 1.3,-1.7 2.07,-2.43 2.73,-5.07 0.88,-3.59 1.24,-2.45 2.69,-4.98 1.16,-2.04 0.94,-4.23 1.92,-6.18 0.93,-1.84 1.79,-1.88 2.7,-4.71 1.73,-5.4 2.87,-6.51 3.76,-12.06 1.31,-8.15 2.89,-1.59 4.01,-11.67 0.6,-5.38 3.53,-4.19 4.37,-11.04 0.53,-4.33 3.34,-5.54 3.91,-11.57 0.59,-6.2 2.02,-5.83 3.5,-11.65 0.99,-3.89 5.18,-5.24 7.62,-7.78 1.24,-1.3 0.1,-0.72 2.11,-1.85 2.15,-1.2 2.37,-2.46 4.41,-3.68 3.17,-1.91 1.42,-1.74 3.44,-4.09l1.93 -2.14c3.19,-5.59 3.75,-4.11 5,-10.57 0.74,-3.83 1.41,-2.52 2.54,-4.9 1.33,-2.8 0.91,-11.09 0.88,-14.94 -0.08,-11.72 -0.98,-5.97 -2.98,-12.76 -0.63,-2.14 -0.67,-4.82 -1.5,-6.76 -0.82,-1.91 -1.83,-2.02 -3.02,-4.43 -1.52,-3.06 -6.94,-7.38 -7.34,-8.96 -0.05,-0.19 -0.74,-2.75 0.37,-6.46 0.78,-2.62 1.48,-2.51 2.06,-5.57 0.56,-2.98 1.85,-10.56 2.82,-12.76 2.15,-4.9 1.87,-8.05 1.95,-13.78 0.05,-3.79 0.94,-3.51 1.37,-6.44 0.91,-6.13 0.16,-16.49 0.16,-22.9 0,-8 -1.06,-9.57 -1.13,-14.38 -0.2,-12.88 -2.06,-15.22 -4.52,-26.05 -1.12,-4.93 -2.69,-7.36 -3.48,-12.18 -0.7,-4.26 -0.13,-2.85 -2.11,-5.79 -1.28,-1.89 -1.23,-3.09 -2.01,-5.59 -0.7,-2.24 -1.26,-3.67 -2.34,-5.65 -1.08,-1.99 -1.22,-3.13 -2.13,-5.37 -1.31,-3.19 -1.65,-2.1 -2.8,-4.72 -0.87,-2 -0.74,-3.75 -2.05,-5.37 -1.95,-2.43 -1.82,-1.34 -3,-5.11 -1.3,-4.17 -1.3,-1.66 -2.97,-4.52 -1.7,-2.91 -0.48,-2.45 -3.11,-4.88 -3.34,-3.09 -1.04,-1.58 -2.67,-4.85 -0.76,-1.53 -1.04,-1.03 -1.94,-2.06 -1.3,-1.48 -5.4,-9.35 -7.63,-11.39l-10.19 -12.88c-2.24,-3.94 -5.61,-4.2 -7.62,-7.99 -1.74,-3.29 -0.96,-1.88 -4.15,-3.78l-16.35 -14.81c-1.36,-1.01 -1.06,-0.2 -2.46,-1.57 -1,-0.98 -0.82,-1.34 -1.47,-1.98 -1.67,-1.64 -1.02,-0.46 -2.65,-1.44 -0.47,-0.28 -7.83,-6.78 -11,-8.45 -2.46,-1.3 -2.46,-1.91 -4.81,-2.79 -2.68,-1 -2.14,-1.8 -4.22,-3.23l-4.66 -2.82c-2.28,-1.85 -2.2,-1.63 -5.21,-2.72l-4.75 -2.85c-1.84,-1 -3.65,-1 -5.81,-2.27 -2.11,-1.24 -2.27,-1.76 -5,-2.44 -7.5,-1.87 -3.24,-2.56 -11.09,-4.37 -2.76,-0.64 -2.98,-1.25 -5.4,-2.15 -3.9,-1.45 -9.09,-1.46 -12.75,-2.93 -7.08,-2.84 -12.91,-1.74 -19.93,-3.2 -2.26,-0.47 -3.58,-1.53 -6.14,-1.87 -6.19,-0.82 -15.07,-1.59 -20.81,-0.85 -2.02,0.26 -6.37,0.05 -7.8,0.41 -1.61,0.41 -1.24,0.94 -5.57,1.86 -4.29,0.91 -9.7,0.85 -13.03,2.49 -1.66,0.82 -3.42,2.2 -5.27,2.7 -6.61,1.75 -5.99,2.95 -11.09,4.44 -4.27,1.25 -2.15,0.83 -4.85,2.75 -2.37,1.68 -2.95,0.5 -5.28,2.82 -2.13,2.11 -3.21,1.76 -6.72,4.8l-3.93 4.12c-1.19,1.2 -0.78,0.33 -1.94,1.55l-2.97 3.27c-0.7,0.5 -0.32,0.12 -1.02,0.78l-7.37 7.56c-1.86,1.57 -1.65,2.84 -3.33,4.19 -1.73,1.39 -0.79,0.04 -1.88,2.19 -0.58,1.15 -0.61,1.65 -1.35,2.69 -0.71,0.98 -1.09,1.09 -1.83,2.2l-4.6 6.89c-4.38,10.93 -5.48,9.83 -13.12,9.75 -30.26,-0.35 -19.97,1.56 -27.1,3.54 -1.98,0.55 -4.91,0.49 -6.81,1.31 -2.21,0.94 -1.5,1.81 -4.47,3.02 -3.78,1.53 -6.47,3.13 -9.78,5.81 -2.81,2.28 -5.23,4.61 -7.31,7.7 -2.37,3.52 -5.31,3.35 -8.78,10.59 -0.85,1.77 -0.6,1.07 -1.61,2.54l-5.03 10.39c-0.63,1.9 -0.78,4.15 -1.35,6.13 -1.15,3.98 -2.77,7.2 -3.34,11.63 -0.65,5.04 -2.03,8.23 -2.85,12.74 -1.44,7.95 -2.21,20.35 -2.58,28.54l-0.72 3.37c-1.98,6.29 -1.22,34.86 -0.94,40.98 0.23,5.21 1.61,-0.36 1.61,13.81 0,3.47 0.34,3.54 0.9,6.54l1.46 21.68c0.36,7.19 5.11,12.78 -2.78,17.7 -2.41,1.5 -1.29,1.96 -3.24,4.13 -4.35,4.83 0.09,3.4 -7.12,8.48zm840.13 214.2l2.59 0.02c1.8,-2.63 6.72,-5.53 9.55,-7.1 1.41,-0.79 1.76,-1.43 3.22,-2.58 1.47,-1.16 2.63,-1.39 3.61,-2.18l5.58 -5.94c1.57,-1.71 1.44,-0.63 3.03,-2.8 2.81,-3.85 5.57,-4.7 8.15,-8.49 2.5,-3.68 2,-0.48 5.52,-5.95 1.37,-2.13 1.48,-1.6 2.68,-3.1 1.17,-1.46 0.83,-2.37 1.96,-3.8 1.01,-1.27 1.81,-1.15 2.81,-2.94 3.29,-5.93 2.04,-1.14 4.3,-6.68 1.03,-2.5 0.95,-1.55 2.46,-3.3 1.38,-1.61 1,-2.11 2.06,-3.69 1.1,-1.65 1.45,-1.04 2.5,-3.27 0.44,-0.94 1.04,-3.39 1.56,-4.22 0.77,-1.25 1.43,-1.14 2.47,-3.29 1.98,-4.1 -1.07,-0.13 3.45,-7.48l5.43 -11.91c0.87,-2.04 0.96,-1.87 2.04,-3.71l5.2 -12.13c0.39,-1.28 0.74,-2.76 1.32,-3.81 0.85,-1.54 1.39,-1.45 2.19,-3.59 1.6,-4.28 0.71,-4.23 3.29,-8.15 2.55,-3.88 1.02,-4.91 2.7,-8.87 0.89,-2.11 1.11,-1.89 1.91,-3.82 0.84,-2.04 0.62,-2.58 0.9,-5.06 0.17,-1.44 0.42,-2.74 0.89,-4.24l1.06 -2.28c3.93,-6.91 -0.96,-4.81 6.45,-13.08 1.21,-1.35 1.85,-1.38 3.15,-2.61l8.33 -8.41c1.28,-1.55 1.83,-1.67 2.87,-2.84 1.48,-1.67 0.87,-2.1 1.96,-3.87 3.74,-6.04 0.94,-2.55 3.36,-8.12 0.53,-1.22 0.96,-2.84 1.53,-4.26 3.04,-7.54 0.26,-22.56 -3.32,-28.2 -3,-4.73 -1.46,-4.31 -4.64,-6.91l-5.11 -5.83c-2.31,-0.67 -0.65,0.32 -2.64,-1.41 -0.29,-0.26 -1.08,-1.2 -1.29,-1.52 -2.06,-3.2 -0.9,-10.25 -2.61,-14.94 -3.31,-9.08 -1.74,-8.52 -3.45,-19.25 -0.51,-3.21 -1.34,-6.58 -1.93,-9.6 -1.44,-7.5 -0.96,-14.82 -1.65,-21.6 -0.18,-1.74 -0.7,-2.95 -1.13,-4.5 -1.94,-6.91 -1.97,-20.82 -3.07,-26.34 -1.24,-6.27 -2.73,-13.17 -3.03,-19.92 -0.48,-10.74 -2.37,-13.13 -3.15,-19.63 -0.67,-5.61 -0.7,-16.08 -2.13,-21.15l-3.12 -8.89c-1.48,-5.1 -1.33,-0.46 -4.04,-7.48 -0.82,-2.13 -2.33,-3.2 -5.01,-6.63 -4.22,-5.39 -3.33,-3.33 -5.74,-5.92 -1.92,-2.07 -0.27,-0.9 -3.24,-2.4 -2.65,-1.33 -1.33,-1.14 -3.31,-2.48 -2.4,-1.64 -5.08,-1.28 -8.15,-3.4 -3.83,-2.64 -14.55,-2.62 -20.37,-2.62l-185.49 0c-5.87,0 -17.02,0.16 -21.63,1.85 -2.14,0.78 -2.02,1.21 -3.9,1.91 -1.64,0.61 -2.88,0.7 -4.52,1.35l-13.3 9.66c-1.09,1.22 -1.33,1.69 -2.74,3.04 -1.91,1.83 -5.89,8.67 -6.55,10.88 -1.03,3.42 -2.39,4.85 -3.23,8.46l-3.44 20.12c-1.04,6.48 -1.31,14.47 -1.7,21.59 -0.31,5.87 -2.3,10.27 -3.22,19.61 -0.36,3.7 -0.39,6.96 -0.84,10.66 -1.28,10.46 -1.44,4.83 -2.09,9.44 -0.83,5.89 -1.94,26.8 -3.41,31.08 -2.53,7.39 -1.47,19.2 -3.04,23.95l-1.54 6.09c-0.5,3.88 -0.99,5.74 -1.37,10.2 -0.8,9.56 -1.96,3.92 -2.75,9.15 -0.4,1.66 -1.26,1.78 -2.93,2.67 -0.77,0.41 -1.39,0.75 -2.13,1.36 -2.23,1.87 -5.72,6.48 -6.72,8.22l-3.47 9.26c-2,4.73 -1.35,19.38 -0.11,22.63 0.55,1.43 1.46,2.05 2.2,4.1 0.54,1.51 0.6,3.01 1.26,4.52l4.9 7.8c2.14,2.81 6.92,7.22 9.91,8.48 3.61,1.53 7.12,6.72 7.81,10.61 1.61,9.09 0.61,5.46 2.95,9.72 1.57,2.86 1.3,6.18 2.48,9.64 1.28,3.75 2.48,4.94 3.24,9.52 0.78,4.7 2.58,4.02 3.55,8.53 1.64,7.62 2.51,2.64 3.91,8.74 2.06,8.95 2.07,5.27 3.5,8.6 0.79,1.83 0.53,2.98 1.54,4.81 0.69,1.27 1.79,2.46 2.41,3.98 0.75,1.85 0.82,3.19 1.71,4.57 4.99,7.7 1.62,3.07 3.99,8.18l4.87 7.64c3.55,3.61 -0.04,2.58 4.64,7.48 1.59,1.66 1.3,2.06 2.23,4.15l5.2 6.87c2.46,2.9 1.33,3 5.26,7.39l5.33 6.79c1.01,1.34 2.11,1.76 3.24,3.07 0.67,0.78 0.86,1.17 1.59,1.86l16.96 16.95c1.73,1.11 1.86,1.51 3.23,2.59l7.62 5.02c2.71,1.45 1.78,1.65 3.46,2.89 1.29,0.94 2.34,0.86 3.85,1.94 7.22,5.11 4.08,2.1 8.06,4.57 1.53,0.95 2.28,1.6 4.15,2.08 4.89,1.25 3.41,0.7 4.22,2.25 2.5,-0.02 0.37,1 5.81,2.23 2.93,0.66 4.7,0.58 7.2,1.47 11.59,4.11 8.74,1.54 14.43,3.38 2.31,0.75 4.98,0.68 7.39,1.26 2.48,0.6 20.44,1.13 23.17,0.19l1.57 -0.71c1.5,-0.54 5.72,-0.98 7.54,-1.14 9,-0.78 10.63,-2.59 13.97,-3.34 15.9,-3.57 7.04,-2.85 12.96,-4.82 4.03,-1.33 2.7,0.3 5.96,-2.68 2.57,-2.35 3.8,-1.02 6.03,-2.61 2.15,-1.53 1.13,-2.35 4.82,-3.55zm-843.94 219.77c0,3.89 -0.13,11.82 1.9,14.89l5.42 6.04c1.48,1.37 1.19,1.96 2.67,3.04 1.04,0.76 2.3,1.02 3.76,1.99 4.54,3 7.96,2.27 14.49,2.27 6.09,0 6.2,-0.19 9.96,-2.74 1.57,-1.07 3.03,-1.29 4.18,-2.16 1.77,-1.35 0.57,-1.25 3.44,-3 2.85,-1.74 0.53,-0.28 2.44,-3.63 3.54,-6.22 2.91,-5.64 2.78,-16.68 -0.09,-6.86 0.61,-8.39 -2.21,-10.79 -2.03,-1.73 -1.17,-1.6 -2.49,-3.81 -1.08,-1.81 -1.72,-2.13 -3.15,-3.25 -3.91,-3.04 -1.89,-3.29 -7.81,-4.79 -7.07,-1.79 -8.04,-4.56 -16.1,-1.22 -2.03,0.83 -2.7,0.66 -5.06,1.34 -1.5,0.44 -2.45,1.11 -3.46,2.13 -6.61,6.66 -10.75,8.58 -10.75,20.38zm-544.96 -365.7l9.96 7.26c4.76,4.79 2.62,4 4.23,7.89 1.26,3.03 3.75,6.15 3.94,13.25 4.81,1.44 3.11,5.06 4.39,10.28 0.84,3.46 1.73,1.28 2.98,3.67 0.43,0.81 0.87,4.79 0.96,5.94l0.79 0.52c0.61,0.4 0.67,0.37 1.07,0.69 2.21,1.78 1.71,5.28 2.42,7.75 0.54,1.89 2.85,-0.8 3.87,10.81 1.05,0.83 2.14,1.14 2.91,2.6 1.09,2.07 0.25,2.63 1.76,4.63 3.1,4.12 2.67,1.27 3.22,8.72 0.65,1.62 2.41,1.02 3.65,5.09 0.71,2.35 1.87,3.5 4.08,4.7 0.28,8.17 2.1,0.14 4.17,11.41 2.65,0.79 2.51,0.43 3.42,2.69 1.12,2.8 0.78,2.43 2.52,4.53 1.24,1.51 1.72,3.33 2.44,4.03 1.39,1.36 0.73,0.07 2.16,1.21 2.32,1.83 -0.08,2.38 2.56,3.89 1.72,0.98 0.83,-0.84 2.11,1.07 0.67,1 -0.07,1.03 0.9,2.55 1.3,2.03 0.29,0.15 1.99,1.61 1.74,1.51 2.78,4.66 6.52,7.35 2.46,1.77 3.89,5.01 6.23,6.94l5.87 4.56c1.36,0.93 0.84,-0.11 2.22,1.68 0.07,0.09 0.14,0.26 0.21,0.35 1.1,1.46 2.99,2.11 3.16,2.22 1.98,1.27 0.44,0.44 1.45,1.82 1.55,2.13 4.39,2.11 6.37,4.06 1.05,1.02 -0.95,0.51 2.17,1.49 1.07,0.33 2.26,0.3 3.39,0.38l0.36 3.19 7.69 0.9 0.34 3.11c2.76,0.13 7.32,0.02 9.72,1.85l1.39 1.52c0.09,0.1 0.24,0.27 0.31,0.35 1.35,1.53 7.76,-1.51 12.69,3.94 1.73,1.92 41.06,0.92 46.43,0.73 6.58,-0.23 2.86,-2.21 7.93,-3.42 2.72,-0.65 8.48,0.03 10.48,-1.78 1.64,-1.48 0.45,-1.65 3.46,-2.27 3.13,-0.64 4.03,-0.48 5.96,-2.69 2.33,-2.67 4.51,-0.99 6.71,-2.25 2.39,-1.36 -1.02,-1.89 7.8,-4.01 0.94,-3.13 0.59,-2.43 3.2,-3.53 2.73,-1.15 1.87,-1.56 3.99,-3.02 1.69,-1.17 2.95,-1.01 4.35,-2.57 1.86,-2.06 0.47,-2.23 4.27,-2.7l0.49 -3.5c5.8,-0.85 2.21,-3.91 7.61,-4.47 0.19,-1.48 0.1,-2.26 0.95,-3.08 0.86,-0.83 1.74,-0.6 2.61,-1.41l1.52 -2.52c0.67,-0.72 1.76,-0.95 2.64,-1.39 0.12,-0.12 0.81,-2.85 3.95,-6.42 1.44,-1.64 0.55,-0.82 1.37,-2.19 1.48,-2.47 2.17,-0.87 3.3,-3.71 1.17,-2.93 -0.07,-2.88 3.78,-3.43 0.44,-4.59 2.67,-4.63 4.11,-7.59 0.66,-1.35 0.19,-1.51 1.2,-2.75l1.86 -1.64c0.79,-1.07 0.91,-2.71 1.1,-3.72 0.53,-2.87 0.93,-3.27 3.82,-3.85 0.83,-7.69 2.72,-4.92 3.97,-8.3 0.69,-1.85 0.4,-3.27 0.97,-4.93 0.72,-2.11 1.92,-1.09 2.95,-3.28 0.72,-2.23 0.04,-4.27 1.53,-5.9 2.57,-2.81 1.87,1.07 3.21,-4.77 1.14,-4.95 2.02,-2.14 3.17,-4.87 0.98,-2.33 0.07,-4.93 1.33,-6.89 1.71,-2.67 2.17,-0.49 2.96,-5.19 0.4,-2.34 0.05,-5.09 1.46,-6.46 2.49,-2.43 2.13,0.63 2.98,-4.8 0.96,-6.06 3.04,-3.65 3.95,-12.16 0.75,-6.92 2.59,-2.88 3.82,-12.59 0.41,-3.26 2.31,-5.73 4.74,-7.33 1.59,-1.05 1.28,-0.11 2.61,-1.5 2.13,-2.2 -0.2,-0.8 3.58,-3.2 0.11,-0.07 0.26,-0.15 0.37,-0.23 1.2,-0.93 0.74,-1.46 2.04,-2.62l2.27 -1.93c2.28,-3.81 -1.07,-1.43 4.01,-3.74 0.55,-9.65 4.02,-7.16 4.36,-12.89l0.02 -16.72c-0.27,-8.16 -2.26,-6.99 -4.79,-13.13 -1.37,-3.34 -0.46,-0.72 -2.64,-2.88 -2.05,-2.03 0.07,-0.89 -2.76,-2.97 -4.51,-3.31 -1.72,-12.49 -0.28,-15.18 2.54,-4.76 2.24,-3.16 2.32,-10.23 0.23,-19.05 3.85,-7.03 3.89,-19.56 0.02,-7.89 0.03,-15.76 0.02,-23.64 -0,-7.37 -2.29,-4.27 -2.92,-8.65 -0.65,-4.53 -0.01,-12.13 -1.42,-16.54 -0.86,-2.7 -1.57,-1.83 -2.59,-3.72 -1,-1.86 -0.85,-7.93 -1.37,-10.81 -2.26,-1.98 -2.99,-1.11 -3.36,-5.15 -0.35,-3.91 0.06,-5.15 -1.97,-7.34 -2.62,-2.82 -1.25,-2.78 -2.52,-6.34 -0.99,-2.81 -2.3,-0.36 -3.5,-5.64 -1.26,-5.57 -1.14,-2.27 -3.11,-5.45 -0.81,-1.31 -0.71,-2.05 -1.11,-3.55 -0.89,-3.36 -0.2,-1.31 -1.87,-2.7 -2.43,-2.02 -1.41,-3 -3.37,-5.25 -1.93,-2.2 -2.08,-3.39 -3.37,-5.84l-0.92 2.63c-1.21,6.16 -3.02,3.39 -3.81,7.44 -0.46,2.34 -0.3,4.88 -1.12,6.61 -1.49,3.13 -2.18,0.88 -2.94,5.11 -1.83,10.09 -3.37,5.84 -4.07,10.55 -0.63,4.26 -0.79,6.81 -3.41,10.09 -1.13,1.41 -0.1,0.52 -1.57,1.51 -0.31,2.13 -1.46,3.42 -3.05,5.44 -6.33,8.07 -8.42,3.61 -10.43,8.5 -1.58,3.85 -0.56,4.69 0.46,7.64 1.25,3.64 0.57,13.8 0.54,18.63 -0.06,10.52 -4.81,6.77 -0.66,15.46 1.48,3.09 0.14,3.76 2.48,6.72 2.51,3.19 1.77,2.38 3.58,6.21 1.48,3.13 2.4,2.04 3.74,5.41 1.86,4.67 0.75,0.55 3.61,6.23 1.48,2.94 2.77,2.16 4,5.19 2.81,6.96 1.6,1.47 3.86,5.99 1.48,2.96 0.66,1.41 2.99,3.89 0.48,0.52 0.8,0.92 1.31,1.59 3.44,4.48 7.97,8 11.91,11.68 1.54,1.43 1.7,0.84 3.16,2.03 1.44,1.17 0.8,1.4 2.28,2.31 2.72,1.68 1.52,-0.48 5.53,3.72 2.31,2.42 2.83,0.97 7.34,7.06 2.1,2.83 1.15,4.38 2.25,7.58 1.12,3.26 2.61,2.02 2.35,7.42 -0.26,5.33 -1.75,1.03 -2.37,7.44 -0.83,8.54 -2.26,6.38 -4.07,9.79 -1.17,2.22 -0.03,1.33 -1.94,3.19l-10.53 9.1c-3.15,4.27 -2.93,2.04 -3.98,5.3 -2.11,6.59 -1.98,2.4 -3.41,6.3 -1.28,3.5 -0.49,9.11 -3.58,13.08l-1.81 1.75c0.26,5.57 -2.66,5.87 -3.37,9.19 -2.22,10.26 0.39,2.22 -3.59,9.71 -1.24,2.33 -1.02,4.13 -2.5,6.7 -1.46,2.52 -1.82,2.76 -2.71,5.9 -1.48,5.24 -2.35,1.69 -4.17,9.04 -1.52,6.1 -3.35,1.67 -3.87,10.08 -4.65,1.19 -2.62,4.32 -6.15,9.35 -0.86,1.22 -0.61,0.67 -1.28,2.16 -1.48,3.31 -3.9,6.46 -6.06,9.46 -1.8,2.49 -1.44,1.04 -2.48,3.8 -0.23,0.62 -0.08,0.49 -0.45,1.32 -0.54,1.22 -0.27,0.63 -0.63,1.15 -1.71,2.44 -1.53,0.71 -2.88,3.41 -0.93,1.85 0.37,0.11 -1.02,1.92 -1.46,1.91 -0.54,-0.24 -2.7,3.6l-2.97 3.42c-0.88,0.83 -1,0.78 -1.67,1.74 -0.56,0.8 -0.5,0.98 -1.01,1.85 -3.05,5.17 -5.69,5.25 -7.67,8.47 -1.83,2.97 -3.07,4.04 -5.25,5.73 -0.1,0.07 -0.24,0.17 -0.33,0.25l-2.35 2.26c-1.35,0.93 -1.05,0.28 -2.29,1.19 -1.68,1.22 -0.87,1.79 -2.88,3.43l-7.85 4.82c-3,1.57 -1.19,1.5 -3.44,2.91 -1.45,0.91 -2.85,0.84 -4.44,1.92 -4.74,3.22 -2.31,1.3 -8.94,4.28 -7.31,3.3 -1.83,1.35 -9.7,3.06 -3.19,0.69 -6.51,2.64 -9.52,3.16 -4.52,0.78 -6.84,0.15 -10.51,2.11 -2,1.07 -1.8,0.81 -5.48,0.77 -5.65,-0.06 -14.34,0.24 -19.11,-0.47 -4.74,-0.7 -5.12,-1.91 -10.26,-2.31 -9.29,-0.72 -4.97,-1.96 -9.39,-3.26 -2.01,-0.59 -3.45,-0.47 -5.57,-0.82 -2.37,-0.39 -2.11,-0.83 -4.29,-2.06 -4.6,-2.58 -0.78,0.49 -8.12,-4.51 -1.75,-1.19 -2.71,-0.94 -4.33,-2.02 -1.72,-1.14 -1.35,-1.74 -3.47,-2.81 -4.2,-2.11 -4.91,-2.31 -8.84,-6.83 -1.47,-1.69 -10.53,-5.39 -13.14,-9.88 -2.13,-3.67 -6.52,-9.56 -9.89,-11.93l-3.13 -3.26c-3.02,-3.26 -0.96,-2.1 -3.72,-4.92l-5.61 -8.96c-2.33,-7 -0.28,1.89 -4.69,-7.91 -1.05,-2.32 -1.84,-2.16 -2.8,-3.45 -1.07,-1.44 -0.91,-2.81 -1.92,-4.45l-3.58 -6.28c-0.23,-0.46 -0.97,-1.5 -1.02,-1.59 -2.1,-0.3 -1.94,1.1 -3.36,-4.62 -0.78,-3.18 -2.09,-2.31 -3.67,-6.57 -2.6,-7.05 -1.69,-3.6 -3.28,-7.04 -0.8,-1.72 -1.04,-3.84 -1.79,-5.05 -0.86,-1.4 -1.77,-1.5 -2.7,-4.24 -0.68,-2.02 -0.63,-3.69 -1.29,-5.73 -0.68,-2.13 -1.87,-2.46 -2.72,-3.9 -1.78,-2.99 0.75,-3.37 -3.26,-10.7 -1.02,-1.87 -1.02,-3.14 -1.59,-5.31 -1.01,-3.79 -0.79,-2.14 -2.37,-4.45 -2.04,-2.99 -0.69,-8.05 -2.41,-11.47l-5.68 -7.53c-2,-1.65 -3.25,-1.23 -4.47,-2.46 -2.13,-2.14 1.22,-0.74 -3.8,-3.23 -2.48,-1.23 -0.25,-1.31 -3.24,-3.62 -2.46,-1.89 -1.23,-1.25 -2.31,-4.65 -0.75,-2.35 -1.87,-2.51 -2.64,-4.23 -0.69,-1.55 -0.85,-3.92 -1.06,-5.92 -0.42,-4.13 -0.46,-8.83 0.08,-12.83 0.34,-2.53 0.46,-3.68 1.72,-5.3 4.69,-6.05 0.02,-4.17 7.45,-9.82 1.99,-1.52 1.92,-1.98 3.99,-2.88 4.55,-1.98 1.88,-1.53 3.92,-3.04 0.26,-0.2 2.13,-0.89 2.43,-0.99 7.02,-2.42 1.13,-1.47 6.31,-4.09 1.54,-0.78 0.69,0.03 1.7,-1.26 3.98,-5.09 1.07,-1.33 3.48,-3.37 1.8,-1.53 0.35,-1.38 3.37,-3.52 1.86,-1.32 0.49,0.27 1.59,-1.87 2.19,-4.28 2.49,-3.12 3.96,-6.36l2 -4.89c4.87,-9.45 -0.33,-25.06 3.91,-33.59 2.99,-6.01 0.91,-2.39 2.32,-8.09 0.84,-3.39 0.93,-2.38 2.53,-4.35 1.47,-1.81 0.9,-3.02 1.74,-5.17 1.1,-2.8 1.67,-1.81 3.09,-3.8 0.97,-1.35 0.39,-1.51 2.28,-4.1 1.61,-2.22 2.52,-8.16 1.18,-11.19 -1.41,-3.2 -6.05,-2.35 -8.72,-4.96l-5.35 -8.48c-1.04,-1.87 -0.56,-3.68 -1.26,-5.77 -0.5,-1.51 -1.52,-2.6 -2.23,-4.02 -2.48,-4.93 0.31,-4.76 -3.67,-10.11 -2.45,-3.3 -1,-7.41 -3.48,-10.37 -3.7,-4.43 -1.44,-7.14 -3.33,-10.55 -1.01,-1.81 -1.5,-0.65 -2.5,-4.47 -0.46,-1.76 -0.89,-3.3 -1.49,-4.75 -4.49,-0.14 -4.17,-0.8 -6.54,2.13 -2.38,2.93 -1.58,1.39 -3.39,5.25 -1.41,3.01 -1.98,0.72 -3.32,5.28 -1.18,4.03 -0.51,2.54 -2.7,5.4 -2.22,2.91 -0.76,6.42 -4.06,13.2 -1.81,3.72 -1.13,10.77 -1.85,15.01l-2 6.51c-2.46,7.2 -1.98,64.99 -1.37,75.11 0.5,8.24 6.04,23.71 2.36,29.57 -1.72,2.73 -9.07,7.82 -11.19,13.98 -1.62,4.72 -2.16,2.94 -2.87,5.77 -0.86,3.4 -0.52,12.51 -0.4,16.39 0.32,11.03 2.22,5.33 4.13,13.09 1.06,4.31 4.1,5.82 5.72,9.19 0.94,1.94 0.2,-2.43 0.35,1.43zm63.97 -170.94c1.97,-8.24 2.5,-4.27 3.92,-7.91 0.68,-1.74 0.41,-3.04 1.15,-4.63 0.93,-2 1.62,-1.19 2.38,-2.76 0.09,-2.09 0.16,-3.73 1.07,-5.28 0.9,-1.52 1.87,-1.54 2.64,-3.06 1.34,-2.68 -0.43,-2.33 1.75,-3.98 0.67,-0.5 1.09,-0.42 1.76,-1.17 1.29,-1.44 1.6,-3.59 3.06,-5 1.61,-1.54 1.47,-1.46 2.75,-3.06 3.06,-3.81 1.92,-0.17 4.17,-6.69 8.11,-0.57 4.72,-4.33 10.01,-4.52 1.04,-3.33 0.39,-2.8 2.83,-3.93 3.58,-1.65 0.63,0.17 2.6,-3.2 6.42,-0.89 3.64,-3.38 10.04,-4.76 4.07,-0.87 1.56,-1.28 4.66,-3.01 2.14,-1.2 3.91,-0.47 6.02,-1.52 2.09,-1.04 1.43,-2.16 4.47,-2.97 2.22,-0.59 4.61,-0.36 6.86,-0.83 1.8,-0.38 1.39,-0.38 2.73,-1.17 9.03,-5.31 16.67,-0.17 22.36,-3.56 1.93,-1.15 -1.09,-0.78 2.94,-1.2 6.04,-0.64 6.26,0.57 9.43,1.59 3.02,0.96 11.25,0.61 14.84,0.69 1.92,0.04 4.85,0.2 6.57,0.67 2.15,0.59 2.47,1.6 3.77,2.92 2.12,0.27 4.28,0.33 6.24,0.73 3.78,0.79 2.13,0.22 4.12,2.28 3.24,3.35 3.84,-0.91 8.58,4.09 1.51,1.59 2.51,0.94 4.76,2.02 2.26,1.08 1.8,1.96 3.59,2.82 2.19,1.05 2.93,0.44 4.64,1.78 2.43,1.91 0.02,1.32 3.48,2.87 3.55,1.59 1.62,0.3 3.74,3.08 1.05,1.37 2.19,1.35 3.39,2.96 2.47,3.3 1.33,0.91 3.62,2.74 2.23,1.79 -0.37,1.28 2.76,3.56 1.85,1.34 0.41,-0.3 1.83,1.68 2.56,3.55 2.56,0.97 4.52,5.14 1.13,2.4 2.02,1.55 3.55,3.95 0.06,0.1 0.16,0.23 0.21,0.33 0.67,1.23 -0.03,-0.75 0.49,1.16 0.25,0.94 0.26,1.94 0.34,2.89 4.15,0.4 2.61,1.9 4,5.04 1,2.28 2.86,2.79 3.6,5.45 0.57,2.03 -0.12,1.86 1.25,3.57 0.91,1.14 1.24,0.41 2.11,2.39 0.87,1.99 0.84,5.08 1.16,7.39 2.33,0.52 2.35,0.64 4.61,0.03 0.37,-3.83 0.57,-4.42 2.24,-7.24 2.14,-3.63 1.37,-6.44 2.7,-9.94 1.03,-2.72 1.85,-2.25 2.63,-4.81 0.68,-2.24 0.41,-4.67 0.99,-6.87 0.61,-2.3 2.22,-2.62 2.95,-4.43 0.71,-1.74 0.69,-4.75 1.15,-6.43 0.65,-2.41 1.88,-2.59 3.32,-3.87 0.15,-1.76 0.02,-3.86 0.57,-5.5 0.64,-1.93 1.45,-1.75 2.27,-2.79 1.57,-1.98 1.38,-5.44 2.75,-7.59 2.44,-3.85 1.89,-3.15 3.2,-7.54 1.43,-4.81 2.45,-1.45 3.53,-7.07 1.14,-5.99 2.99,-3 3.87,-7.07 1.37,-6.38 2.16,-3.82 3.61,-6.66 1.05,-2.06 0.45,-4.88 2.24,-8.11 2.46,-4.44 2.59,-12.68 -0.09,-16.86 -2.22,-3.46 -0.91,-6.03 -2.83,-9.3l-1.53 -1.8c-1.45,-1.59 -0.98,-1.59 -2.1,-3.08 -1.63,-2.16 -1.13,-0.3 -2.86,-2.37 -2.15,-2.57 -0.32,-2.11 -3.88,-3.95 -0.94,-0.49 -0.52,-0.23 -1.18,-0.72 -0.11,-0.07 -0.23,-0.19 -0.33,-0.27 -3.02,-2.47 -3.8,-1.95 -7.41,-3.31 -2.57,-0.96 -1.6,-1.21 -3.11,-2.13 -4.96,-3 -11.04,1.23 -15.58,-4.05 -1.5,-1.75 -11.35,-0.86 -13.23,-1.41 -4.7,-1.38 -0.05,-3.21 -9.22,-3.49 -5.16,-0.15 -13.06,0.62 -17.53,-1.91 -1.69,-0.95 -2.13,-1.57 -4.35,-1.89 -6.88,-0.99 -18.49,-0.26 -25.93,-0.42 -8.48,-0.19 -16.97,0.07 -25.42,-0.16 -0.55,-0.82 -0.67,-1.89 -0.93,-3.41 -3.5,-0.31 -9.94,-0.41 -13.43,-0.15 -5.76,0.43 -0.94,3.19 -9.16,3.24 -8.38,0.04 -16.99,0.52 -24.79,0.51 -5.18,-0 -21.39,-1.09 -24.28,1.46 -2.45,2.17 -0.17,1.22 -4.45,1.7 -1.68,0.19 -3.54,0.69 -5.38,0.82 -3.89,0.29 -10.82,-1.18 -13.2,1.53 -3.28,3.73 -11.16,1.81 -17.24,2.88 -3.22,0.57 -3.45,3.08 -7.04,3.59 -3.53,0.5 -6.16,0.07 -10.22,0.9 -1.23,2.02 -0.46,1.99 -3.22,2.72 -1.22,0.32 -3.6,0.19 -4.81,0.96 -1.79,1.14 0.11,1.16 -3.09,3.16 -2.82,1.76 -0.97,0.89 -2.83,2.92 -1.37,1.49 -1.69,0.98 -2.81,2.42 -1.48,1.9 -2.59,2.03 -3.38,3.41 -2.06,3.63 0.43,4.46 -4.04,7.34 -0.56,6.59 -0.87,19.2 0.07,25.57 1.64,3.31 1.97,-3.17 4.05,8.72 3.59,2.33 3.11,2.31 3.81,7.74 1.99,0.99 2.47,1.1 3.22,3.33 0.7,2.08 0.35,3.83 1.38,5.68 0.81,1.46 1.98,1.9 2.71,4.18 0.52,1.61 0.79,4.44 0.95,6.2 1.5,0.14 2.18,0.31 2.96,0.84l1.04 7.67c2.02,2.24 2.72,1.12 3.3,5.23 0.17,1.18 0.18,2.56 0.4,3.72 0.73,3.8 -0.28,1.11 1.45,2.64 3.73,3.3 1.06,7.31 4.43,11.05 2.2,2.44 1.51,4.61 2.09,7.85 0.69,3.88 1.37,0.56 3.01,4.8 1.15,2.98 0.54,3.45 1.05,6.81 0.74,4.87 1.74,0.32 3.05,5.27l2.49 0.11zm95.73 -119.97c-4.2,-0.25 -8.98,-0.4 -13.27,-0.02 -10.98,0.98 -6.15,13.81 -0.61,14.8 4.11,0.73 9.87,-0.74 13.24,0.63 1.48,1.87 0.49,7.24 0.51,9.85 0.07,9.7 9.99,10.94 13.24,6.82 2.61,-3.31 0.17,-3.7 4.37,-6.83l0.18 -9.83c3.57,-0.73 12.13,0.31 15.1,-1.2 1.96,-1 3.04,-11.61 1.23,-13.25 -1.78,-2.12 -9.8,-0.88 -12.87,-0.95 -6.31,-0.15 -1.52,-3.37 -3.36,-10.68 -0.63,-2.5 -1.9,-3.07 -2.6,-4.07 -1.55,-2.21 0.05,-5.88 -8.95,-5.13 -8.31,0.69 -7.49,8.97 -6.21,19.86zm-72.93 107.24c-1.85,10.45 -3.35,3.77 -4.48,9.19 -2.12,10.13 -3.17,2.55 -3.96,10.83 -1.03,10.73 -1.61,7.37 -3.27,10.48 -1.37,2.56 -1.03,35.6 -0.51,37.72 0.72,2.94 -0.32,0.39 1.64,2.34 3.11,3.08 1.34,6.7 2.45,11.3 1.63,6.74 2.41,-3.18 4.06,10.56l2.8 0.62c1.29,3.73 -0.26,3.28 2.42,6.11 2.8,2.95 1.12,2.37 2.77,5.2 0.8,1.37 0.7,0.54 2.14,1.97l5.33 6.8c2.14,4.02 0.54,1.67 3.98,4.05 2.07,1.43 2.18,2.46 4.28,3.8 1.17,0.75 1.49,0.65 2.4,1.61 1.64,1.74 -0.5,0.76 2,2.11 3.19,1.71 2.05,-0.53 4.18,3.31 0.06,0.1 0.14,0.3 0.24,0.43 6.48,0.7 4.54,2.38 7.3,4.01 1.18,0.7 3.17,0.64 4.66,1.26 2.71,1.13 1.06,1.18 3.05,2.98 2.08,0.25 4.99,0.38 6.66,1.07 2.13,0.88 1.94,2.28 5.09,2.9 3.68,0.73 11.28,0.92 15.28,1.24 2.94,3.37 1.5,2.83 8.06,2.81 3.73,-0 7.5,0.17 11.2,-0.25 2.37,-4.06 1.9,-2.99 7.83,-3.26 3.13,-0.14 7.7,-0.28 10.93,-0.68 0.96,-0.98 -0.03,0.14 0.8,-1.11 1.21,-1.84 0.93,-2.08 4.38,-2.34 7.7,-0.57 2.88,-2.93 9.36,-4.26 4.16,-0.85 1.27,0.32 3.44,-1.53 2.08,-1.78 2.54,-2.35 6.52,-2.72 0.31,-4.71 1.68,-2.2 4.72,-4.44 2.74,-2.02 1.85,-2.85 6.34,-3.56 1.69,-6.11 1.16,-1.85 3.87,-4.66 1.28,-1.33 0.23,-1.57 1.83,-2.76 1.29,-0.95 1.55,-0.02 2.65,-2.07 0.18,-0.33 1.12,-3.1 1.28,-3.37 1.1,-2.02 0.74,-0.62 2.35,-2.07 1.44,-1.3 0.88,-1.58 1.78,-2.91 1.14,-1.69 1.04,-0.87 2.63,-2.08 0.43,-2.57 0.07,-2.5 1.32,-4.33 0.54,-0.79 0.67,-0.91 1.24,-1.61 1.33,-1.6 0.56,-0.13 1.28,-1.72 2.33,-5.17 -1.5,-4.67 3.95,-8 1.05,-3.15 0.01,-5.35 2.04,-8.39 2.36,-3.53 2.14,-2.03 2.47,-7.61 0.93,-15.54 1.59,-24.17 -0.09,-40.21 -0.38,-3.68 -2.45,-3.57 -3.44,-6.55 -0.57,-1.7 -0.69,-6.89 -1.18,-9.72 -1.47,-2.35 -1.87,2.95 -4.02,-8.06 -1.06,-0.69 -1.78,-0.65 -2.83,-1.38 -1.07,-7.71 -1.74,-0.5 -4.52,-8.64 -2.14,-6.26 -1.14,0.11 -3.74,-5.04 -1.3,-2.57 -0.15,-0.88 -2.15,-2.45 -2.12,-1.66 -0.86,-1.3 -2.09,-2.57 -1.24,-1.29 -3.02,-1.24 -3.31,-1.54 -2.22,-5.32 0.85,-1.37 -3.74,-4.08 -1.81,-1.07 -0.8,-0.82 -1.89,-1.98l-2.5 -1.67c-3.31,-1.62 -2.01,-1.04 -3.37,-2.31 -0.74,-0.7 0.66,0.04 -1.39,-1.03 -2.29,-1.2 -1.41,0.61 -4.04,-3.4 -0.73,-1.11 -2.5,-0.38 -4.78,-1.52 -2.28,-1.13 -1.72,-2.12 -3.41,-2.87 -4.44,-1.96 -5.39,1.29 -8.28,-3.86 -10.32,-0.16 -11.15,-3.4 -15.86,-3.96 -6.34,-0.75 -22.52,-0.7 -29.63,-0.14 -4.81,0.38 -3.94,1.64 -7.33,2.73 -2.78,0.89 -5.41,0.61 -8.46,1.33 -4.06,0.97 -1.52,2.36 -6.99,3.42 -7.93,1.54 -2.91,0.61 -7.84,3.06 -0.14,0.07 -0.29,0.13 -0.43,0.2 -0.14,0.06 -0.3,0.12 -0.44,0.18 -4.46,1.78 -1.38,0.83 -4.35,3.38 -1.59,1.37 -1.52,0.61 -2.97,1.82 -1.35,1.13 -0.5,1.27 -2.52,2.53l-8.35 6.67c-2.24,2.35 -0.19,1.19 -2.83,2.27 -5.75,2.36 1.37,-0.89 -4.82,5.6 -2.65,2.78 -1.25,3.62 -4.04,5.67 -1.04,0.76 -0.61,0.1 -1.3,1.17 -1.57,2.46 0.65,2.77 -3.83,4.01zm52.44 41.01c-2.5,3.6 -2.91,-0.5 -2.91,10.07 0,6.5 1.91,3.81 3.62,10.29 1.02,3.85 1.05,2.1 2.65,4.37 1.49,2.12 1.03,2.93 3.06,4.55 0.81,0.65 1.22,0.75 1.88,1.49 4.63,5.22 1.93,1.61 6.94,4.1 2.41,1.19 1.96,2.3 4.62,2.96 3.22,0.8 15.39,0.63 18.17,-0.76 2.78,-1.39 0.63,-1.39 2.79,-2.28 1.06,-0.44 2.98,-0.46 4.2,-1.11l5.49 -5.02c3.55,-4.82 2.31,-1.85 4.55,-6.35l2.11 -3.05c0.89,-1.19 1.29,-1.71 1.5,-3.46 0.29,-2.53 0.44,-12.24 -0.46,-14.85 -0.96,-2.78 -0.81,-0.7 -2.26,-2.82 -1.62,-2.37 -1.19,-6.36 -2.81,-8.17l-5.19 -5.03c-2.93,-1.61 -3.1,-0.49 -4.92,-2.78 -0.6,-0.75 -0.07,-0.7 -1.26,-1.47 -1.62,-1.06 -26.8,-2.37 -28.61,0.71 -0.31,0.52 -0.65,1.39 -0.81,1.56 -1.33,1.46 -0,0.29 -2.09,1.09 -3.78,1.45 0.22,1.26 -3.69,3.66 -1.67,1.03 -0.53,-0.67 -1.65,1.05 -0.62,0.95 -0.14,0.72 -0.52,1.71 -1.29,3.45 1.14,-1.59 -0.35,0.9 -1.29,2.15 -2.39,0.42 -3.28,3.55 -0.52,1.85 -0.22,3.33 -0.77,5.08zm201.46 564.23l1.4 -1.87c1.15,-1.06 -0.07,-0.22 1.36,-0.83 6.47,-2.75 3.45,-0.66 4.56,-12.24 0.59,-6.13 1.74,-4.61 2.98,-8.41 2.16,-6.62 -1.27,-15.52 2.98,-20.15 2.23,-2.43 1.51,-6.44 1.64,-10.09 0.23,-6.46 -0.08,-5.29 2.55,-8.82 1.76,-2.37 1.42,-6.54 1.55,-10.19 0.36,-9.82 1.68,-5.03 3.46,-7.93 0.54,-2.18 0.31,-5.05 0.63,-7.52 0.48,-3.76 0.85,-2.94 3.2,-4.7 1.44,-11.31 -0.81,-9 3.96,-12.67l0.97 -8.65c0.69,-0.54 1.04,-0.62 1.81,-1.24 1.76,-1.4 0.69,0.5 1.6,-2.13 1.8,-5.19 -1.33,-2.66 3.15,-6.34 2.35,-1.94 -0.15,-1.91 4.65,-5.26 0.43,-2.78 0.93,-3.62 1.07,-6.4 5.92,-1.71 1.87,-0.78 4.67,-3.39 2.27,-2.13 1.42,0.22 4.12,-3.41 1.59,-2.15 2.37,-1.46 4.54,-3.48l4.56 -2.94c1.31,-0.8 0.37,0.05 1.19,-1.19 1.56,-2.37 0.61,-1.43 3.04,-2.52 3.17,-1.42 0.48,0.2 2.15,-2.04 1.4,-1.88 2.82,-1.32 5.08,-2.39 3.61,-1.7 1.24,-3.04 7.81,-3.9 -0.93,-1.48 -4.25,-4.35 -6.26,-4.81 -5.81,-1.33 -3.94,0.24 -7.22,-3.66 -4.52,-1.09 -5.78,0.69 -8.15,-2.36 -1.27,-1.63 0.25,-1.33 -3.04,-1.95 -6.7,-1.26 -3.9,-2.62 -10.71,-4.31 -3.92,-0.98 -2.61,-2.45 -6.3,-3.48 -4.62,-1.29 -4.12,0.02 -7.63,-2.89 -2.43,-2.01 -4.83,-0.94 -7.8,-2.1 -3.74,-1.44 -1.61,-2.49 -6.96,-3.48 -2.35,-0.44 -3.5,-0.74 -4.95,-2.36 -2.57,-2.89 -7.69,-0.62 -10.9,-3.53 -2.13,-1.93 0.89,-0.65 -2.21,-1.82 -2.94,-1.11 -3.54,0.32 -5.9,-2.19 -2.75,-2.92 -1.47,-1.29 -5.39,-2.49 -3.33,-1.02 -2.36,-2.38 -4.91,-3.16 -2.6,-0.79 -4.28,-0.07 -6.93,-1.33 -2.78,-1.33 -1.78,-2.29 -5.17,-2.87 -2.63,-0.45 -4.17,0.03 -6.3,-1.2 -2.49,-1.45 -1.37,-2.21 -5.16,-2.86 -4.81,-0.82 -2.64,-0.06 -5.54,-2.54 -2.56,-2.2 -3,-0.88 -6.07,-2.05 -2.66,-1.01 -1.83,-2.46 -4.99,-3.19 -2.44,-0.56 -5,-0.31 -6.97,-1.02 -3.65,-1.33 -1.14,-2.22 -4.79,-3.14 -3.98,-1.01 -3.25,0.3 -5.8,-2.34 -2.22,-2.31 -2.57,-1.64 -6.06,-0.96 -1.17,2.65 -0.24,2.02 -2.48,3.48 -3.26,2.11 -0.22,-0.2 -2.65,2.97 -1.71,2.24 -1.49,0.42 -3.27,3.04 -1.51,2.23 -1.01,1.27 -2.78,3.08 -4.09,4.19 -7.26,8.7 -11.44,12.77 -1.76,1.72 -1.56,0.69 -3.2,3.13 -1.8,2.67 -1.5,1.22 -2.94,2.82 -2,2.22 0.49,1.11 -2.94,3.35 -3.02,1.96 -0.8,1.43 -2.54,3.26 -1.7,1.79 -0.96,-0.54 -3.44,2.89 -1.7,2.35 -1.68,1.07 -3.03,2.73 -1.02,1.25 -0.44,1.28 -1.22,2.23 -1.54,1.9 0.25,-0.16 -1.71,1.15 -2.39,1.59 -0.97,1.14 -2.21,3.92 -5.98,1.66 -1.33,0.65 -4.36,3.35 -2.34,2.09 -2.48,-0.22 -3.18,4.32 -6.44,2.08 -1.76,1.82 -5.54,4.24 -2.22,1.42 -0.93,-0.24 -2.31,2.29 -1.96,3.61 0.26,0.17 -2.41,2.3 -2.34,1.87 -0.21,0.87 -1.68,2.9 -1.35,1.87 -1.24,0.32 -2.82,1.56 -1.72,1.34 -0.05,1.08 -2.03,2.79 -1.79,1.54 -0.96,-0.42 -2.54,1.95 -1.72,2.57 0.38,0.85 -2.54,2.81 -2.47,1.67 -0.47,0.3 -1.98,2.42 -1.77,2.48 -1.26,0.73 -2.7,2.09 -1.41,1.34 0.07,1.08 -1.88,2.76 -2.01,1.72 -1.29,-0.14 -2.59,1.9 -0.95,1.5 -0.13,1.8 -1.82,2.83 -2.2,1.34 -5.99,0.55 -8.54,0.13 -0.78,-1.13 -1.2,-3.01 -2.45,-3.85l-3.79 -2.6c-1,-0.96 -2.14,-2.24 -2.86,-3.37 -2.09,-3.25 -0.49,-0.81 -3.08,-2.78l-5.89 -6.15c-1.75,-2.02 -1.64,-0.93 -2.99,-3.33 -2.16,-3.82 -0.22,-0.2 -2.88,-2.94 -2.22,-2.29 0.32,-1.52 -2.72,-3.41 -1.82,-1.13 -0.5,0.4 -2.03,-1.72l-4.33 -4.81c-1.63,-1.9 -1.8,-0.56 -3.29,-2.5 -1.75,-2.28 0.26,-1.45 -2.56,-3.6l-6.77 -7.19c-0.12,-0.12 -0.46,-0.47 -0.57,-0.6 -1.13,-1.36 -0.52,-0.35 -1.27,-1.99 -0.98,-1.65 -0.97,-1.33 -2.32,-2.43 -2.14,-1.74 -0.87,-0.89 -2.38,-2.85 -1.84,-2.39 -6.19,-5.24 -8.05,-7.47 -1.57,-1.88 -2.2,-1.17 -4.06,-3.95 -1,-1.5 -2.66,-2.3 -3.81,-3.71 -1.64,-2.01 -2.71,-1.43 -4.08,-3.34 -1.76,-2.46 -2.27,-1.46 -4.06,-4 -1.93,-2.72 -2.8,-1.13 -4.35,-4.18 -1.32,-2.59 -2.45,-1.06 -3.74,-3.2 -1.24,-2.06 -0.62,-1.57 -2.77,-2.77l-2.13 -3.05c-0.07,-0.15 -0.17,-0.37 -0.29,-0.52l-3.79 0.17c-1.42,2 -0.68,1.86 -3.41,2.68 -0.63,0.19 -5.63,0.5 -5.77,1.27 -0.69,3.58 -6.05,3.59 -9.57,3.9 -5.46,0.48 -2.65,0.51 -5.38,2.46 -1.49,1.06 -3.76,0.91 -5.85,1.52 -2.48,0.73 -2.58,2.05 -4.67,2.84 -1.93,0.73 -5.04,0.48 -6.65,0.98 -2.29,0.7 -2.55,1.63 -4.89,2.59 -2.02,0.83 -4.15,0.74 -6.03,1.49 -1.76,0.7 -2.15,1.81 -4.2,2.67 -2.09,0.87 -3.85,0.68 -5.84,1.68 -2.15,1.08 -2.02,1.95 -4.66,2.76 -2.8,0.87 -3.29,0.22 -5.69,1.85 -4.31,2.93 -6.97,1.86 -10.66,4.33 -3.2,2.14 -7.33,1.92 -10.83,4.17 -4.9,3.17 -10.59,3.96 -15.89,6.17 -3.17,1.32 -0.38,1.67 -4.54,2.94 -6.84,2.09 -2.72,0.42 -7.37,3.41 -0.96,0.62 -1.94,0.89 -2.88,1.16 -1.17,0.33 -1.67,0.39 -2.75,0.7 -0.42,0.12 -0.96,0.26 -1.31,0.41 -2.98,1.31 -0.6,1.97 -6.76,3.1 -3.54,0.65 -2.47,1.29 -5.06,2.41 -1.74,0.76 -3.91,0.93 -5.7,1.8 -1.57,0.76 -2.94,1.77 -4.84,2.65l-7.61 3.33c-2.6,1.31 -5.87,1.63 -8.18,3.28 -2.27,1.62 -3.89,1.42 -9.62,5.36l-16.24 13.11c-1.42,1.21 -1.78,2.6 -3.35,4.15 -1.51,1.48 -4.83,7.12 -5.43,9.4 -0.57,2.16 -0.66,4.09 -1.43,6.17 -1.13,3.06 -1.65,1.24 -2.21,4.66 -0.4,2.47 -0.43,4.15 -0.91,6.68 -0.98,5.27 -2.85,5.52 -3.6,11.29 -0.82,6.37 -1.64,6.69 -3.21,11.75 -1.2,3.91 -0.28,9.73 -1.65,13.43 -0.59,1.59 -1.65,3.49 -1.96,4.85 -0.92,4.02 -0.96,13.24 -2.51,20.05 -0.49,2.15 -1.17,3.65 -1.72,5.75 -0.58,2.26 -0.54,3.97 -0.83,6.63 -1.81,16.57 0.44,12.76 7.02,14.67 7.81,2.27 9.63,2.91 18.52,3.96 4.15,0.49 6.03,2.65 11.59,3.3 4.33,0.51 9.88,0.36 13.66,1.39 2.17,0.59 2.67,1.22 5.06,1.78 2.09,0.49 4.41,0.78 6.55,0.91l39.43 5.59c7.79,2.48 18.01,2.22 26.8,2.78 1.92,0.12 4.5,0.46 6.65,0.81 7.96,1.3 5.7,2.9 19.29,3.05 9.29,0.1 17.02,1.53 26.15,3.18 8.72,1.57 19.92,-0 28.81,1.22 18.24,2.51 37.19,3.8 55.63,4 27.83,0.31 58.2,2.6 86.46,0.22 17.36,-1.46 39.13,0.42 58.02,-1.39 4.68,-0.44 8.37,-1.17 13.17,-1.77 4.43,-0.56 8.72,-0.65 13.91,-1.12 8.56,-0.78 19.5,-0.53 27.96,-2.03 4.43,-0.79 8.46,-1.76 13.03,-1.89 4.07,-0.12 10.58,0.75 13.47,-1.01zm1311.02 -69.33c-1.07,-0.47 -1.37,-0.13 -2.45,-3.22 -0.48,-1.38 -0.87,-3.68 -1.06,-5.31 -0.42,-3.64 -0.76,-7.35 -1.04,-10.86 -3,-2.51 -3.19,-0.64 -3.41,-10.37 -0.28,-12.94 -3.15,-3.91 -4.06,-16.71l-0.7 -4.59c-0.47,-1.11 -0.24,-0.57 -0.72,-1.13 -2.48,-2.9 -2.5,-1.65 -3.11,-10.99l-0.9 -0.54c-2.74,-1.68 -2.84,-4.24 -3.12,-7.52 -1.05,-0.81 -2.33,-0.89 -3.01,-2.33 -1.21,-2.56 0.44,-1.46 -1.89,-4 -2.93,-3.19 -4.01,-2.34 -5.8,-5.07 -0.88,-1.34 -1.86,-1.6 -3.12,-2.26 -1.08,-0.56 -1.02,-0.97 -1.76,-2.02 -0.79,-1.12 0.16,-0.25 -0.85,-1 -2.07,-1.54 -4.21,-0.83 -5.83,-2.76 -2.4,-2.86 -3.12,-1.26 -6.67,-2.26 -1.06,-0.3 -0.96,-0.2 -1.59,-0.96l-1.45 -2.35c-1.9,-0.16 -3.55,-0.15 -5,-0.69 -0.59,-0.22 -1.15,-0.51 -1.61,-1.02l-1.46 -2.3c-5.5,-0.45 -5.63,-0.11 -7.76,-3.95 -10.03,-0.47 -5.17,-2.85 -10.13,-3.95 -6.96,-1.55 -6.18,2.23 -9.41,-4.17 -8.2,-0.34 -6.33,-0.43 -8.37,-3.74 -4.62,-0.4 -6.44,-0.12 -9.26,-2.42 -3.65,-2.98 -4.87,-1.34 -7.99,-3.48 -2.09,-1.43 -0.72,-1.52 -3.3,-2.36 -1.85,-0.61 -2.99,-0.3 -4.54,-1.35 -3.37,-2.3 0.66,-1.35 -3.11,-2.35 -1.9,-0.5 -3.58,-0.49 -5.39,-1.02 -2.79,-0.82 -4.93,-2.97 -7.73,-3.69 -5.51,-1.4 -3.29,-2.61 -8.7,-3.58 -4.66,-0.83 -5.17,-2.53 -7.97,-3.58 -1.7,-0.63 -3.23,-0.54 -4.87,-0.94 -1.58,-0.39 -2.76,-1.57 -3.94,-2.38 -2.29,-1.59 -6.26,-1.08 -8.78,-2.85 -1.74,-1.22 -0.77,-1.43 -3.28,-2.09 -1.78,-0.46 -3.42,-0.38 -5.11,-0.89 -4.33,-1.32 -1.38,-2.78 -7.63,-3.59 -5.51,-0.72 -3.44,-2.83 -8.36,-3.78 -5.7,-1.11 -4.83,-2.42 -8.14,-3.48 -1.53,-0.49 -3.43,-0.53 -4.94,-0.9l-4.25 -2.2c-2.86,-2.02 -6.02,-1.22 -8.64,-2.84 -2,-1.24 -0.89,-1.59 -3.67,-2.18 -7.36,-1.56 -6.02,1.33 -8.7,3.43 -3.11,2.43 -0.48,-0.52 -2.83,2.89 -1.87,2.71 -1.58,0.93 -3.12,2.67l-42.26 44.72c-3.69,3.97 -8.09,7.48 -11.19,11.92 -0.89,1.28 -2.55,1.89 -4.44,4.15 -1.22,1.46 -0.75,0.67 -1.91,1.59l-5.52 5.86c-1.98,3.07 -1.29,0.82 -3.05,2.85 -1.4,1.62 -0.31,1.69 -2.53,3.21 -3.16,2.17 -0.76,0.5 -2.81,2.95 -1.59,1.91 -1.61,0.63 -3.04,2.7 -0.65,0.94 -0.02,0.65 -1.11,1.78 -1.59,1.64 -0.19,0.11 -1.79,1.17 -1.11,0.73 -4.44,6.47 -9.76,2.41l-11.32 -11.19c-2.02,-1.14 -0.48,0.49 -1.96,-1.46 -0.18,-0.24 -0.43,-0.83 -0.64,-1.09l-0.9 -0.92c-0.11,-0.08 -0.26,-0.15 -0.38,-0.23 -2.37,-1.48 -1.76,-0.85 -2.63,-2.34 -0.93,-1.6 -3.28,-2.77 -3.84,-3.67l-0.6 -1.15c-2.39,-3.18 -2.51,0.81 -3.67,-4.48l-3.74 -0.31 -0.3 -3.72c-2.52,-1 -2.02,-0.08 -3.39,-2.3 -2.24,-3.65 -0.41,-0.78 -3.06,-2.81 -1.68,-1.28 -0.82,-1.64 -2.3,-3.36 -0.73,-0.85 -1.87,-1.88 -2.86,-2.95 -1.39,-1.51 -1.9,-1.28 -3.11,-2.64 -0.86,-0.97 -0.24,-0.67 -1.29,-1.62 -1.59,-1.45 -0.6,-0.28 -1.79,-1.11 -2.16,-1.53 -0.61,-1.61 -2.57,-3.19 -2.17,-1.74 -1.3,0.44 -3.13,-2.49 -0.93,-1.5 0.24,-0.44 -1.25,-1.73 -1.17,-1.01 -0.49,0.01 -1.74,-1.15 -1.79,-1.67 -0.24,-1.52 -2.67,-3.13 -1.97,-1.3 -3.3,-3.28 -3.47,-3.44 -1.25,-1.12 -1.38,-0.65 -2.42,-2.09l-3.05 -2.84c-2.33,-1.65 -0.92,-1.85 -2.74,-3.5 -5.21,-4.75 -1.63,-3.01 -6.22,-4.33 -1.26,-2.96 0.36,-2.23 -2.33,-3.93 -3.36,-2.12 -1.44,-2.09 -4.76,-4.43 -1.08,-0.76 -0.53,-0.25 -1.33,-1.39 -1.3,-1.86 -1.4,-1.62 -3.69,-2.35 -0.33,-0.81 -0.37,-1.81 -1.04,-2.74 -0.67,-0.91 -0.06,-0.17 -0.98,-0.9 -2.44,-1.93 -1.7,-4.29 -6.47,-3.65 -4.61,0.63 -0.74,1.44 -4.58,3.17 -1.69,0.76 -3.94,0.43 -6.2,1.28 -2.05,0.76 -2.56,1.92 -4.85,2.72 -1.98,0.7 -5,0.51 -6.4,1.24 -3.74,1.96 0.22,3.42 -11.7,3.84 -0.67,6.03 -6.37,1.84 -8.92,4.74 -1.86,2.11 -3.06,2.45 -6.19,2.89 -6.62,0.92 -3.12,3 -7.11,3.76 -4.53,0.86 -4.73,-1 -8.22,2.39 -1.85,1.8 -5.54,1.86 -8.96,2.29 -1.52,1.44 -1.08,2.15 -3.09,2.89 -2,0.74 -3.94,0.42 -5.79,1.16 -2.47,1 -1.38,1.67 -4.29,2.72 -1.68,0.61 -3.78,0.72 -5.44,1.44 -2.41,1.05 -1.36,1.63 -3.68,2.62 -1.79,0.76 -3.87,0.54 -5.72,1.22 -2.6,0.96 -1.31,1.72 -4.19,2.75 -1.72,0.62 -3.72,0.63 -5.57,1.28 -2.97,1.04 -1.73,1.28 -3.88,2.46 -1.83,1 -3.52,0.82 -5.63,1.25 -4.67,0.94 0.57,1.1 -10.03,3.98 -3.78,1.03 -1.9,0.93 -4.37,2.43 -2.39,1.45 -5.43,1.07 -7.13,3.28 -2.51,3.26 -3.62,2.01 -8.11,2.31 -2.74,4.92 -3.69,2.38 -7.76,4.15 -1.09,0.47 -0.63,0.21 -1.32,0.78 4.7,2.63 2.25,1.15 4.56,3.4 0.44,0.43 0.11,0.33 1.03,0.75 1.72,0.78 3.92,0.48 5.33,1.63 2.59,2.12 0.57,2.17 5.48,2.81 1.52,0.2 2.09,-0.01 3.14,0.72l1.65 2.39c0.57,0.93 5.04,0.79 6.23,1.78 3.07,2.57 -1.12,2.68 5.57,2.99l1.65 2.43c1.7,1.56 3.41,2.34 5.95,2.69 0.39,4.39 1.17,2.43 3.29,4.23 1.59,1.35 0.71,1.88 2.44,2.86 0.95,0.54 0.7,-0.02 1.62,0.63 1.86,1.32 0.09,0.27 1.14,2.07 1.79,3.04 0.19,0.45 2.4,1.89 2.41,1.56 0.49,2.1 2.92,4.5 2.42,2.4 1.65,0.76 3.06,4.27 1.1,2.75 2.38,1.2 3.44,4.04 0.7,1.87 -0.5,0.88 1.12,2.54 2.86,2.93 2.87,-0.3 3.54,7.98l3.24 0.2c0.75,2.13 0.37,5.37 0.86,8.15 0.71,3.96 1.96,2.67 2.9,5.99 0.69,2.44 0.52,5.06 1.11,7.56 0.9,3.84 1.88,2.12 2.83,5.78 0.76,2.91 0.51,7.76 2.13,10.55 3.19,5.5 1.73,11.52 4.76,17.7 2.05,4.19 1.31,9.83 2.42,14.98 1.16,5.37 2.7,5.06 3.3,14 0.17,2.49 -0.1,5.35 1.05,7.37 1.65,2.9 1.85,1.97 2.53,6 0.72,4.18 0.9,12.37 1.04,16.98 6.57,0.26 18.39,0.27 24.41,3.27 6.78,3.39 24.59,0.76 33.41,1.36l22.05 0.93c4.06,0.03 3.87,0.59 6.4,1.47 8.57,2.99 104.8,1.7 123.76,1.59 8.83,-0.06 26.13,1.58 33.54,-1.3 0.85,-0.33 2.26,-0.84 2.94,-0.94 7.39,-1.16 14.83,-1 21.93,-1.67 7.51,-0.7 30.88,1.32 35.52,-1.53 1.72,-1.06 5.13,-1.86 8,-2.14 4.56,-0.44 9.8,-0.45 15,-0.5 4.43,-0.04 15.58,0.7 19.49,-0.47 3.49,-1.04 0.65,-2.38 8.79,-3.09 3.89,-0.35 15.33,0.21 18.21,-0.93 4.02,-1.58 -0.67,-2.22 8.73,-3.2 4.58,-0.47 10.13,-0.1 15.12,-0.47 5.82,-0.43 2,-3.32 12.07,-3.83 4.96,-0.25 10.73,0.26 15.57,-0.23 4.43,-0.45 2.75,-1.48 4.74,-2.84 2.52,-1.73 11.03,-0.7 14.29,-1.11 4.04,-0.49 2.23,-1.85 5.11,-3.04 2.56,-1.06 11.34,-0.93 14.99,-1.09l1.09 -3.14c5.14,-0.33 11.36,-0.56 17.17,-0.88 2.43,-4.55 8.49,-3.08 14.63,-4.13 -0.02,-3.67 0.02,-7.43 -0.08,-11.09 -0.2,-7.26 -1.4,-4.92 -2.71,-8.07 -1.03,-2.48 -1.91,-17.85 -1.18,-21.49zm-126.45 5.59c-6.79,-1.39 -39.91,-0.66 -49.37,-0.66 -22.09,0 -28.72,-2.96 -28.41,9.12 0.16,6.24 1.63,4.66 5.43,7.41 2.83,2.04 19.04,1.15 23.56,1.15 3.56,0 42.99,0.79 45.9,-0.73 2.62,-1.37 6.98,-4.98 7.38,-8.63 0.4,-3.7 -1.83,-1.94 -3.52,-5.21 -0.44,-0.85 -0.44,-1.52 -0.97,-2.45zm-225.07 -294.58c8.25,0 70.68,0.84 75.91,-1.86 2.07,-1.07 1.02,-1.02 4.14,-1.09 2.51,-0.06 4.02,-0.1 6.21,-0.7 3.84,-1.05 1.48,-1.26 4.61,-5.15 2.65,-3.3 0.39,-2.76 -0.76,-4.74 -1.01,-1.75 -0.41,-1.57 -1.69,-3.42 -5.88,-0.21 -20.96,-1.04 -24.43,0.94 -2.56,1.47 1.89,0.65 -2.9,1.23 -17.8,2.16 -41.82,1.16 -60.52,1.16l-11.65 -1.16c-2.53,-0.59 -1.55,-0.72 -3.46,-1.11 -2.59,-0.52 -5.83,0.09 -8.44,-0.33 -2.02,-0.32 -1.09,-0.51 -3.06,-0.82 -2.7,-0.42 -11,-0.55 -12.37,1.11 -2.75,3.33 -5.8,12.61 7.3,12.99 5.62,0.16 3.3,1.06 6.41,1.65l24.69 1.29zm-42.15 32.85c0.19,0.75 2.14,5.73 2.8,6.54 2.25,2.74 9.26,0.04 16.7,2.36 2.2,0.69 1.9,0.33 4.21,0.51 3.18,0.25 1.37,0.49 3.72,1.27 5.48,1.81 65.9,0.65 75.81,0.39 5.18,-0.14 2.98,-1.41 7.45,-1.67 4.27,-0.24 4.01,-1.24 8.26,-1.49 10.57,-0.63 11,1.56 14.5,-5.53 0.57,-1.17 0.49,-0.01 0.66,-1.8 0.17,-1.85 -1.07,-3.74 -2,-5.18 -1.69,-2.64 -3.49,-2.51 -7.59,-2.46l-32.26 0.8c-3.14,0.49 -0.69,0.83 -3.58,1.45l-38.48 0.11c-1.2,0 -3.5,0.12 -4.59,-0.03 -5.61,-0.78 4.3,-1.24 -13.27,-1.61 -4.25,-0.09 -25.46,-1.26 -28.71,-0.02 -2.06,0.8 -2.04,2.45 -3.65,6.37zm-91.82 -118.95l3.47 4.56c1.59,1.88 2.52,2.18 3.36,4.57 0.74,2.11 1.03,3.91 2.07,6.11 3.21,6.81 1.57,8.28 3.91,12.8 1.38,2.67 1.5,2.59 2,5.89 0.53,3.51 0.18,4.07 2.01,6.32 2.17,2.67 1.28,3 2.19,6.32 0.77,2.81 1.49,3.16 2.63,5.48 1.25,2.57 0.63,4.18 1.7,6.42 1.1,2.3 1.98,2.11 2.82,5.17 0.33,1.2 0.39,2 0.99,3.12 0.94,1.73 0.87,0.74 1.83,2.7 0.81,1.65 1.33,4.24 2.16,5.94 1.11,2.31 2.42,2.5 3.2,5.35 1.07,3.9 0.23,3.06 2.62,5.59 1.97,2.09 1.76,3.68 3.69,5.1 1.59,-1.6 1.71,-1.74 1.85,-4.14 0.51,-8.41 -0.19,-31.2 0.05,-41.52 0.19,-8.16 -0.83,-6.11 -2.68,-8.98 -1,-1.56 -0.75,-2.21 -1.85,-3.92 -1.08,-1.67 -1.69,-1.65 -2.62,-3.62 -0.68,-1.43 -0.87,-2.63 -1.74,-4.07 -1,-1.65 -1.52,-1.48 -2.32,-3.39 -0.77,-1.81 -0.5,-2.69 -1.66,-4.2 -1.19,-1.54 -1.83,-0.91 -2.57,-3.64 -2.23,-8.31 -1.89,-2.24 -3.87,-7.74 -2.28,-6.35 -2.8,-2.68 -4.37,-7.64 -1.2,-3.81 -1.18,-0.93 -4,-7.61 -0.69,-1.63 -1.17,-2.15 -2.45,-3.4 -2.67,-2.63 0.04,-1.11 -4.11,-7.88 -1.07,-1.75 -0.91,-2.41 -1.55,-4.26 -0.95,-2.8 -1.09,-1.32 -2.33,-3.43 -1.4,-2.37 -0.21,-2.66 -2.97,-6.25 -2.46,-3.2 -1.39,-3.93 -2.74,-6.54 -0.79,-1.52 -1.59,-0.96 -5.14,-6.9 -7,0.41 -6.91,5.13 -9.63,9.72 -2.24,3.79 -1.97,12.03 -0.99,16.94 1.48,7.46 5.31,9.35 7.81,13.47l3.33 3.8c2.38,1.55 2.17,0.34 4.28,2.41 0.9,0.88 0.11,0.82 1.64,1.34zm291.98 59.26c1.48,-0.28 0.49,0.13 1.68,-0.56 0.66,-0.38 1.05,-0.66 1.51,-1.56 0.68,-1.33 0.83,-3.91 1.06,-5.02 0.45,-2.14 0.46,-1.74 1.69,-3.06 3.06,-3.26 1.65,-4.17 2.69,-8.57 0.67,-2.81 0.91,-1.46 2.14,-3.35 1.85,-2.82 0.92,-6.78 2.01,-9.77 0.83,-2.28 2.68,-1.54 3.39,-7.49 0.86,-7.24 0.33,-3.4 2.93,-7.84 0.96,-1.66 0.64,-2.4 1.35,-3.96 1.2,-2.6 0.99,-0.2 2.98,-2.63 0.85,-1.04 0.35,-0.99 1.17,-1.74 0.09,-0.08 0.22,-0.19 0.32,-0.26 2.18,-1.57 3.07,0.25 3.93,-4.01 3.87,-0.79 2.87,-1.28 4.92,-3.25 2.52,-2.43 2.34,-0.47 2.89,-5.15 5.02,-0.57 2.41,-2.34 4.48,-5.85 1.4,-2.37 2.72,-2.37 2.81,-7.33 0.06,-3.46 0.05,-6.96 0,-10.42 -0.06,-4.94 0.31,-5.8 -3.54,-7.1 -0.26,-4.07 -0.38,-5.66 -2.96,-7.39 -3.76,-2.53 -1.36,-4.56 -6.23,-4.17 -1.26,1.72 -0.94,2.32 -2.66,3.65 -2.06,1.58 -2.23,0.66 -2.88,4.07 -0.15,0.76 -0.28,2.26 -0.57,2.85 -1.74,3.54 -1.94,-1.35 -3.85,6.53 -0.99,4.09 -1.15,1.19 -2.89,4.02 -1.06,1.71 -0.74,3.98 -1.6,5.44 -0.46,0.79 -0.82,0.46 -3.61,4.91 -0.64,1.02 -0.04,0.13 -0.75,0.98 -2.03,2.42 -2.53,2.49 -3.11,6.4 -0.89,6.01 -1.75,1.12 -3.74,6.9 -1.61,4.66 -2.73,1.59 -3.81,6.46 -1.73,7.78 -2.15,0.72 -4.37,9.35 -1.3,5.05 -1.2,0.7 -3.09,3.97 -0.69,1.19 -0.8,4.02 -1.24,5.57l-0.84 0.47c-1.53,0.86 -1.78,0.75 -2.33,2.1 -0.32,0.8 -0.82,3.8 -0.98,4.91 -1.45,1.07 -1.7,0.58 -3.07,1.51l-0.95 6.78c-6.06,0.82 -2.01,8.7 -4.21,17.39 -0.03,0.11 -2.65,1.97 -3.28,5.13 -0.38,1.9 -0.28,6.57 -0.47,8.94 -3.23,2.71 -3.21,-0.01 -4.06,12.9 -2.91,1.4 -2.43,1.15 -2.93,5.5 -0.69,6 -1.1,19.63 1.42,23.9 6.57,0.53 6.91,-0.56 8.76,-5.48 1.43,-3.82 0.17,-0.43 2.55,-2.74 2,-1.94 0.56,-5.04 2.61,-7.15 1.15,-1.18 1.47,-0.11 2.42,-2.69 1.26,-3.42 -0.39,-3.76 1.81,-4.75 0.71,-0.33 0.65,-0.2 1.17,-0.55 1.88,-1.27 1.44,-4.56 1.56,-7.17 2.13,-0.99 2.99,-0.22 3.6,-2.86 1.15,-5.01 -0.86,-4.78 2.3,-8.31 2.14,-2.4 2.61,-6.14 1.88,-8.45zm-285.29 -152.27c-0.23,6.06 -1.9,6.33 -2.4,11.43 -0.55,5.54 -3.37,22.21 -0.46,26.5 0.9,1.32 1.13,0.95 2.26,2.33 1.4,1.73 1.46,4.65 2.86,6.38 0.93,1.15 1.17,1.05 1.85,2.65 0.89,2.06 0.63,3.58 1.96,5.1l2.51 4.84c1.46,4.25 2.57,1.89 3.74,5.42 0.66,1.99 0.9,3.3 2.22,4.86 1.54,1.83 2.31,5.33 4.06,7.45 1.28,1.54 0.83,0.77 1.69,2.83l1.9 3.37c3.11,3.89 1.24,1.94 2.62,6.55 0.53,1.77 2.74,3.5 3.61,5.59 1.09,2.63 2.19,3.26 3,6.3 1.29,4.86 1.71,4.27 3.8,7.76l2.1 3.02c5.98,7.85 1.8,14.09 17.94,9.19 2.62,-0.8 3.68,-1.72 6.69,-2.52 2.69,-0.71 5.2,-0.81 7.54,-1.69l10.74 -3.09c2.83,-0.59 1.66,-0.11 3.89,-1.29 6.31,-3.34 9.51,-1.69 15.13,-3.35 3.81,-1.12 6.81,-2.68 10.78,-3.05 3.65,-0.34 1.72,-0.16 4.03,-1.09l27.89 -4.97c4.06,-1.09 11.01,-0.28 15.28,-0.28l13.24 1.76c10.29,0.61 16.93,3 26.63,4.54 4.6,0.73 7.35,2.71 11.91,3.59 2,0.39 4.36,0.34 6.5,1 4.16,1.28 7.29,2.54 11.88,3.18 4.51,0.62 2.63,1 5.4,2.51 2.88,1.57 8.51,1.61 12.08,3.47 2.73,1.43 1.25,1.62 5.25,2.17 3.03,0.41 6.94,1.23 9.15,0.37l0.8 -0.37c3.54,-1.7 2.51,-4.36 4.63,-6.95 2.26,-2.76 1.43,1.01 2.93,-4.57l1.72 -4.01c1.57,-2.15 1.6,-4.8 2.87,-6.98 1.26,-2.18 2.37,-0.64 3.61,-4.41 1.67,-5.06 2.63,-5.78 3.37,-8.3 1.41,-4.8 3.41,-3.98 4.26,-7.24 1.04,-3.93 1.09,-2.98 2.98,-6.14 1.52,-2.53 0.65,-4.23 3.03,-6.7l15.15 -27.5c3.43,-4.78 3.74,-2.51 2.68,-11.63 -0.38,-3.26 -0.13,-4.06 -1.88,-6.28 -1.72,-2.2 -1.68,-9.65 -1.73,-13.69 -0.15,-11.37 -2.62,-7.51 -8.12,-11.06l-2.28 -1.76c-2.4,-1.22 -2.9,-0.33 -4.91,-2.53 -2.66,-2.9 -1.31,-1.35 -5.11,-2.47 -3.36,-0.98 -1.84,-2.03 -5.06,-3.02 -2.66,-0.81 -3.69,-0.06 -5.43,-1.96 -1.94,-2.12 -1.7,-2.2 -4.89,-3.18 -5.16,-1.59 -5.74,-2.57 -11.74,-3.89 -3.23,-0.71 -3.41,-2.58 -10.78,-4.17 -5.02,-1.08 -0.66,-1.46 -12.02,-3.58 -3.33,-0.62 -4.69,-2.35 -11.82,-3.69 -2.28,-0.43 -4.34,-0.49 -6.52,-0.99 -2.97,-0.68 -2.54,-2.03 -5.43,-2.54 -4.76,-0.83 -8.94,-0.94 -13.64,-1.87 -4.28,-0.84 -8.25,-2 -12.97,-2.55 -7.26,-0.86 -15.51,-0.24 -22.89,-0.28 -5.92,-0.02 -7.74,-0.95 -13.47,0.22 -5.43,1.11 -24.11,-0.79 -29.39,1.25 -4.32,1.67 -4.39,1.86 -9.58,2.35 -3.37,0.32 -8.11,0.55 -11.15,0.99 -4.63,0.68 -5.68,1.73 -9.62,2.54 -3.11,0.63 -7.33,0.69 -10.01,2.11 -4.7,2.52 -11.09,2.6 -15.83,4.91 -0.74,0.36 -1.28,0.81 -2.24,1.17 -3.6,1.32 -6.12,0.83 -9.39,2.76 -5.16,3.05 -5.79,1.3 -9.32,2.8 -2.07,0.88 -0.85,1.03 -3.69,2.09 -1.36,0.51 -3.16,0.87 -4.67,1.66 -2.5,1.31 -0.66,1.35 -3.49,2.26 -1.66,0.53 -3.22,0.59 -5,1.37 -1.97,0.86 -1.85,1.37 -3.8,2.05 -6.44,2.23 -3.04,1.6 -7.51,4.49 -1.48,0.96 -2.72,1.07 -4.31,2.01 -1.62,0.95 -1.63,1.46 -3.36,2.39 -1.25,0.67 -3.24,1.7 -4.26,2.09zm-638.17 459.97c0.41,-2.04 1.31,-5.24 2.49,-6.26l2.3 -1.96c0.7,-1.09 -0.07,-1.09 1.2,-2.02 1.35,-0.99 1.25,0.04 2.75,-1.32 2.63,-2.37 -0.73,-2.71 7.88,-3.67l1.12 -3.54 7.15 -0.28c-0.04,-3.29 0.66,-7.97 -0.98,-10.43 -2.56,-3.84 -1.31,-0.96 -1.47,-8.87 -0.08,-4.23 -1.13,-4.77 -1.13,-9.76l0 -31.7c0,-7.37 1.63,-15.47 -0.59,-19.65 -2.04,1.25 -1.05,1.77 -4.46,2.63 -2.39,0.6 -3.76,0.13 -5.52,1.41 -2.14,1.55 -0.71,1.62 -4.48,2.57 -2.04,0.51 -3.43,0.8 -5.8,1.1 -1.44,1.87 -0.67,2.47 -3.54,3.15 -2.01,0.48 -3.69,0.16 -5.16,1.24 -2.43,1.8 0.09,1.78 -4.13,2.66 -9.45,1.97 -3.41,3.17 -9.12,4.06 -1.24,0.19 -1.95,0.09 -3.15,0.44 -2.48,0.74 -3.61,2.76 -5.7,3.41 -1.6,0.5 -3.92,0.28 -5.57,0.76 -2.71,1.47 -0.09,-0.04 -1.81,1.87 -1.73,1.91 -4.11,1.18 -6.33,2.11 -1.31,0.55 -1.07,1.26 -2.06,2.12 -1.33,1.17 0.15,0.42 -2.32,0.95 -7.78,1.67 -4.68,2 -9.75,4.13 -2.43,1.02 -5.05,-0.05 -6.61,2.21 -0.9,1.29 -0.7,1.35 -2.43,1.98 -1.6,0.58 -3.62,0.56 -5.74,0.8 -0.89,3.82 -3.04,3.37 -7.45,3.56 -1.59,2.46 -1.4,3.08 -5.11,3.76 -7.52,1.37 -4.37,3.1 -9.27,4.44 -3.17,0.87 -1.33,-0.13 -3.26,1.74 -4.8,4.66 -1.46,-2.16 -11.64,6.76 -0.98,0.86 -1.33,1.48 -2.27,2.3 -1.39,1.21 -1.76,0.96 -2.88,1.76 -1.98,1.39 -1.44,3.61 -3.61,5.62 -3.3,3.07 -1.71,3.59 -3.76,5.44 -1.86,1.69 -0.98,-0.91 -2.08,2.38 -0.43,1.28 -0.54,2.42 -0.98,3.63 -1.2,3.28 -2.13,2.44 -3.07,6.13 -0.84,3.29 -0.07,4.84 -2.02,7.34 -3.37,4.32 -1.28,10.32 -3.68,14.76 -1.21,2.24 -1.13,0.53 -1.85,2.7 -2.23,6.72 1.8,14.57 -4.3,18.04 -0.52,5.83 0.79,13.02 -2.56,17.79 -3.11,4.43 -1.09,12.9 -2.16,18.21 -0.96,4.78 -0.37,3.85 -2.65,7.54 -2.15,3.48 -0.47,17.98 -2.01,23.49 -0.79,2.83 -0.74,0.63 -1.27,3.9 1.36,0.87 1.32,1.58 2.56,2.57l0.77 0.5c2.83,1.29 14.37,0.54 17.8,0.58 0.54,0.77 0.22,0.69 0.69,1.83l1.01 1.99c4.61,0.2 8.18,-0.2 12.23,0.83 3.59,0.92 3.78,2.61 7.02,3.21 4.73,0.87 11.04,-0.18 15.5,0.79 5.15,1.12 0.71,3.31 9,3.47 4.59,0.09 8.31,-0.09 12.27,1.08l4.15 2.07c1.74,0.74 4.13,0.64 6.07,0.67 4.61,0.07 8.26,0.41 12.69,0.48 3.74,0.06 7.56,0.04 9.2,3.44l26.5 0.29c0.56,1.45 0.94,2.07 2.24,2.94 4.48,2.99 25.41,-1.12 32.17,2.04 2.22,1.04 0.9,0.53 1.98,2.79 5.15,0.12 14.44,-0.41 18.94,0.4 5.62,1.01 11.12,1.04 16.68,1.64 3.38,0.36 2.16,2 7.48,2.08 7.6,0.11 32.3,-0.12 37.36,0.48 2.97,0.35 3.74,1.05 8.15,1.02 3.06,-0.02 6.05,-0.2 8.19,0.93 3.29,1.72 3.37,1.54 7.94,1.52l111.18 0.06c19.2,0 57.77,0.73 74.63,-0.18 2.5,-4.65 4.88,-3.21 12.35,-3.21 5.4,0 9.44,-0.52 14.98,-0.52 3.94,0 30.59,1.08 32,-0.61 0.07,-0.09 0.22,-0.26 0.31,-0.37 0.75,-0.9 1.43,-1.94 2.63,-2.31l16.91 -0.74c5.76,-0.04 18.91,0.73 23.4,-0.63 1.95,-1.59 0.5,-1.99 3.42,-2.68 3.61,-0.86 13.89,-0.74 18.11,-0.77 18.14,-0.11 8.27,-2.56 16.12,-3.06l23.8 -1.27c2.18,-0.55 2.4,-1.48 4.19,-2.07 5.82,-1.96 23.24,-0.81 26.77,-3.22 5.42,-3.71 14.02,-1.12 20.54,-3.77l6.91 -1.83c3.37,-0.54 7.46,-0.57 11.08,-1.06 4.19,-0.56 5.91,-2.12 9.94,-2.8 4.35,-0.73 11.82,-0.48 15.3,-2.81 3.18,-2.13 12.11,-2.28 15.71,-2.68 0.75,-5.28 1.36,-6.93 -0.55,-11.64 -2.43,-5.98 -1.74,-13.72 -2.39,-19.86 -0.46,-4.43 -3.68,-15.76 -3.86,-17.41 -0.61,-5.25 0.37,-8.53 -1.63,-12.55 -1.88,-3.76 -2.4,-7.98 -2.5,-12.29 -0.15,-6 -2.1,-6.6 -3.12,-11.06 -0.24,-1.06 -0.65,-5.07 -0.95,-6.58 -0.59,-2.99 -1.83,-3.88 -2.73,-6.34 -0.07,-0.18 -0.34,-1.16 -0.39,-1.34l-4.17 -20.67c-0.69,-2.37 -1.73,-2.73 -2.72,-4.64 -1.06,-2.04 -0.5,-3.35 -1.99,-4.72 -7.19,-6.61 -2.68,-4.71 -6.29,-8.05l-1.18 -1.33c-1.06,-1.68 0.67,1.1 -0.57,-1.23 -1.55,-2.93 -5.85,-5.31 -8.34,-7.56l-3.08 -1.78c-0.6,-0.18 -0.79,-0.13 -1.43,-0.34 -3.14,-1.02 -1.96,-2.48 -5.71,-3.48l-3.8 -1.55c-0.69,-0.44 -0.82,-0.57 -1.08,-0.77 -2,-1.55 -4.13,-2.06 -6.17,-3.64l-1.16 -1.12c-1.24,-1.54 -0.13,0.64 -0.31,-0.53 -0.02,-0.12 -0.07,-0.17 -0.11,-0.25 -0.7,0 -1.73,0.06 -2.4,-0.01 -0.87,-0.08 -4,-1.03 -5.59,-2.34l-1.16 -1.11c-0.08,-0.06 -0.22,-0.16 -0.3,-0.22 -3.35,-2.12 -5.93,-0.08 -9.34,-2.86 -2.05,-1.67 -4.55,-1.91 -7.07,-3.14l-7.07 -3.22c-1.26,-0.46 -1.98,-0.86 -2.79,-1.43l-8.13 -3.84c-3.44,-1.53 -6.52,-1.4 -9.81,-2.93 -1.94,-0.9 -2.44,-2.54 -4.78,-3.12l-5.04 -1.39c-4.17,-2.1 0.23,-1.37 -6.76,-2.9 -4.44,-0.98 -3.37,-1.96 -5.96,-2.98 -2.43,-0.96 -4.99,-0.39 -7.18,-1.09 -4.67,-1.48 -1.33,-3.37 -11.84,-4.15 -0.8,-1.2 -0.68,-1.84 -1.28,-3.16 -2.87,-0.24 -6.8,-0.9 -9.44,0.19 -1.66,5.13 -0.22,26.48 -0.43,33.93 -0.04,1.2 -0.67,16.07 -0.77,16.36 -1.56,4.65 -3.28,-0.31 -2.77,14.16l1.28 0.94c4.6,3.6 -1.24,3.27 9.14,4.1 0.39,0.62 0.64,1.57 1.12,2.18 1.47,1.88 4.78,1.23 6.51,2.85 0.91,0.85 0.37,0.89 1.38,1.97 1.11,1.17 2.26,1.1 3.33,2.48l1.22 1.7c0.1,0.09 0.24,0.19 0.35,0.26 0.11,0.08 0.27,0.15 0.39,0.22 2.27,1.37 1.25,-0.01 2.63,2.39 2.01,3.5 -1.92,-2.33 0.43,0.77 0.08,0.11 0.18,0.24 0.27,0.34 0.9,0.97 1.13,0.39 2.39,1.66 1.3,1.31 0.48,0.96 1.31,2.13 1.02,1.43 0.21,0.4 1.53,1.42 2.77,2.13 0.49,0.28 2.4,3.29l1.7 1.81c1.09,1.11 0.25,-0.19 1.18,1.57 1.65,3.12 0.46,3.91 3,6.35 1.91,1.85 1.37,3.82 2.33,6.25 0.9,2.27 -0.28,0.01 1.52,1.98 4.27,4.66 1.07,12.69 2.7,17.83 1.69,5.31 2.33,-2.58 2.32,10.38 -0,7.42 0.94,7.14 -1.59,10.29 -1.59,1.98 -1.51,28.13 -1.79,34.67 -0.17,4.03 -0.77,6.59 -2.46,9.56 -1.69,2.97 -0.24,7.59 -1.57,10.59 -0.83,1.89 -4.9,4.2 -6.83,4.91 -4.1,-2.54 -12.93,-1.72 -19.01,-1.81 -2.89,-0.04 -6.43,0.19 -9.04,-1.09 -2.21,-1.08 -0.52,-1.04 -2.55,-2.51 -4.33,-3.15 -4.72,1.57 -4.35,-15.07 0.1,-4.49 0.41,-5.62 2.7,-8.61l0.47 -0.69c0.07,-0.11 0.15,-0.26 0.22,-0.37 2.38,-3.74 8.67,-3.64 12.48,-1.77 4.81,2.35 0.5,8.33 3.28,11.11 0.83,0.8 -1.04,0.37 1.99,0.69 0.72,0.08 2.02,0 2.73,-0.13 1.31,-0.23 2.17,-0.7 3.07,-1.36 1.49,-14.13 0.36,-28.7 1.79,-42.09 0.75,-7.02 -0.44,-14.19 -0.65,-20.7 -0.14,-4.43 0.05,-6.27 -2.31,-8.69 -1.98,-2.03 -2.06,-4.2 -2.46,-8.01 -3.64,-0.49 -3.29,-1.45 -3.7,-4.91 -4.34,-0.2 -2.33,-1.85 -4.41,-3.65 -1.59,-1.39 -0.7,0.77 -2.28,-1.59 -0.41,-0.6 -0.09,-0.66 -0.76,-1.56 -1.08,-1.47 -2.22,-1.07 -3.27,-2.5 -3.5,-4.74 -2.22,-1.3 -4.48,-3.62 -0.41,-0.43 -0.55,-0.85 -0.89,-1.37 -1.78,-2.67 -6.23,-0.15 -9.6,-3.67 -1.51,-1.58 -0.22,-1.63 -3.87,-1.91 -8.94,-0.68 -18.4,-0.42 -27.1,0.56l-0.65 1.17c-0.06,0.1 -0.14,0.27 -0.2,0.37 -0.06,0.1 -0.14,0.26 -0.2,0.35 -1.56,2.15 -5.67,0.72 -6.95,2.83l-0.46 0.78c-1.3,2 -3.6,1.6 -5.2,3.35 -1.59,1.74 0.35,0.12 -1.35,1.42l-3.8 3.69c-0.85,0.69 -1,0.59 -1.66,1.28l-3.23 3.56c-1.45,1.24 -1.21,2.63 -2.56,3.84 -3.6,3.24 -1.69,3.23 -4.35,6.67 -2.36,3.05 -1.58,4.2 -2.58,7.91 -0.7,2.6 -1.72,1.91 -2.67,4.14 -1.13,2.63 -0.69,6 -0.76,8.8 -0.04,1.76 -0.07,3.02 -0.8,4.07l-2.1 1.71c-1.9,1.31 -0.14,12.43 -1.93,18 -1.52,4.71 -3.33,-2.19 -3.17,15.1l4.89 -0.02 0.78 -2c0.06,-0.16 0.08,-0.31 0.14,-0.47 1.77,-5.19 6.36,-6.35 12.09,-5.54 7.37,1.03 6.16,7.09 5.94,14.63 -0.11,3.86 -0.31,4.97 -2.39,7.87 -2.49,3.46 0.27,2.79 -4.24,6.16 -3,2.24 -4.72,1.44 -8.43,0.99 -1.43,-0.18 -3.44,0.03 -4.59,-0.56l-2.59 -2.95c-6.31,-0.49 -18.97,1.24 -20.23,-7.54 -0.59,-4.12 1.77,-22.32 2.88,-25.19 2.11,-5.46 1.57,-5.39 2.35,-11.36 0.8,-6.06 2.47,-7.39 3.13,-11.26l4.16 -17.25c0.69,-2.2 0.3,-4.76 0.91,-6.69 0.55,-1.77 1.82,-1.81 2.72,-4.15 1.49,-3.87 0.35,-3.76 3.24,-7.07l1.25 -2.3c0.96,-2.27 2.1,-3.09 3.24,-4.15l3.06 -4.46c1.95,-1.75 1.77,-2.84 4.13,-4.45 0.78,-0.53 0.28,-0.11 1.02,-0.77 0.52,-0.46 1.01,-1.16 1.74,-1.73 0.77,-0.6 1.43,-0.8 2.1,-1.39 1.64,-1.43 0.38,-0.86 1.78,-2.22l8.56 -5.24c8.28,-3.48 2.73,-2.55 9.94,-4.44 2.85,-0.75 2.86,-0.64 4.99,-1.96 2.45,-1.53 2.7,-1.13 6.07,-1.44 2.03,-0.18 12.18,-0.23 13.18,-1.19l1.35 -9.12c0.18,-6.21 1.61,-4.73 2.14,-8.11 0.45,-2.91 -0.27,-7.14 0.17,-10.26 0.54,-3.81 0.92,-4.61 0.91,-9.27 -0.02,-10.13 0.69,-20.98 -0.06,-31.07 -0.24,-3.24 -0.87,-4.97 -1.02,-9.16 -1.24,-0.58 -1.77,-0.56 -3.2,-1.39 -1.19,-0.69 -0.5,-0.3 -1.39,-0.92 -2.76,-1.92 -5.5,-2.24 -8.73,-3.31 -3.26,-1.07 -2.35,-2.02 -6.95,-2.97 -6.99,-1.45 -5.41,-2.6 -10.29,-4.1 -1.17,-0.36 -2.98,-0.72 -3.99,-1.16 -2.45,-1.07 -3.05,-2.41 -6.44,-3.26 -3.41,-0.85 -4.07,-1.5 -6.87,-2.97 -2.22,-1.17 -5.47,-0.99 -7.71,-2.14l-6.72 -2.58c-4.22,-1.07 -6.39,-3.83 -10.44,-0.86 -2.11,1.55 -0.35,1.92 -3.94,4.63 -2.81,2.11 -4.56,5.54 -7.55,7.44 -3.15,2 -10.75,11.33 -11.94,12.28l-7.15 7.28c-1.41,1.2 -1.64,0.61 -2.81,1.76l-4.67 5.09c-1.2,1.34 -1.89,1.63 -2.61,2.6 -1.07,1.44 -0.24,1.19 -1.82,2.81l-7.31 7.67c-1.13,1.11 -1.53,0.98 -2.55,2.05l-7.37 7.62c-1.7,1.42 -0.54,1.02 -2.06,2.54 -1.83,1.84 -1.21,0.13 -2.79,2.38 -2.24,3.2 -17.04,18.64 -20.74,22.48 -1.29,1.33 -1.61,0.94 -2.82,2.35 -0.8,0.93 -1,1.5 -1.99,2.63 -3.61,4.14 -9.06,9.87 -14.43,11.38 -1.08,-1.3 -2.28,-1.35 -3.74,-2.53 -1.13,-0.92 -2.36,-2.36 -3.49,-3.46l-13.09 -13.52c-2.33,-3.06 -5.08,-4.53 -7.58,-7.34 -1.8,-2.02 -3.48,-4.56 -5.69,-6.24 -0.26,-0.2 -1.1,-0.64 -1.7,-1.29l-1.39 -2.2c-1.37,-1.76 -5.73,-3.96 -7.22,-6.02 -4.06,-5.59 -10.69,-9.32 -14.98,-15.54l-0.94 -1.35c-0.07,-0.09 -0.18,-0.22 -0.25,-0.31l-17.2 -16.71c-5.44,-5.11 -14.01,-15.37 -19.59,-20.13l-4.54 -4.73c-0.12,-0.12 -0.44,-0.48 -0.56,-0.6 -1.94,-2.02 -3.8,-2.69 -5.33,-4.99 -2.57,-0.06 -3.05,-0.44 -5.02,0.54 -2.8,1.39 -6.5,1.64 -9.42,2.78 -1.35,0.53 -2.24,1.55 -3.96,2.32 -3.88,1.76 -4.51,0.87 -8.54,3.51 -2.87,1.87 -5.59,1.15 -8.88,3.23 -3.35,2.12 -5.43,1.58 -9.04,3.13 -1.83,0.78 -1.95,1.34 -3.69,2.06 -1.58,0.65 -3.32,0.7 -4.95,1.4 -1.87,0.8 -1.75,1.42 -3.44,2.26 -1.5,0.74 -3.04,0.97 -4.6,1.69 -0.33,0.15 -1.57,0.79 -1.86,0.97l-1.7 1.19c-1.64,0.94 -2.95,0.81 -4.15,2.22 -1.17,1.37 -1.72,7.24 -2.32,9.85 -0.47,2.06 -0.3,2.83 -0.43,5.38 -0.16,3.09 -0.7,2.04 -0.97,5.16 -1.01,11.71 -0.11,24.47 -0.15,36.32l0.69 17.32c0.15,3.98 0.58,2.11 1.41,4.83 1.19,3.93 -0.12,6.2 2,10.67 4.68,1.39 5.64,0.1 9.54,3.13 1.84,1.43 4.05,1.47 5.74,2.92 2.22,1.92 8.17,4.67 11.91,10.57 0.67,1.06 0.63,1.62 1.37,2.67 1.08,1.53 0.95,0.52 2.2,2.37 1.3,1.93 1.2,4.31 2.1,6.55 1.02,2.52 2.16,3.69 2.59,6.58 0.77,5.15 0.07,11.57 -0.29,16.48 -0.26,3.59 -1.44,3.45 -2.66,5.96 -2.01,4.11 0.66,2.07 -3.68,8.44 -0.93,1.35 -0.93,2.64 -2.06,3.69 -1.29,1.19 -1.03,0.39 -2.48,1.54l-12.59 9.92c-3.15,1.65 -9.36,3.65 -13.04,4.27 -4.51,0.76 -12.71,0.78 -16.36,-1.13 -2.68,-1.4 -2.87,-1.63 -6.39,-2.27 -4.32,-0.78 -4.82,-2.56 -8.04,-4.61 -1.83,-1.17 -1.19,-1.05 -2.42,-2.21 -3.27,-3.09 -7.93,-7.61 -10.23,-11.67 -0.66,-1.17 -0.8,-1.93 -1.46,-3.12 -1.5,-2.69 -2.37,-1.84 -3.19,-5.31 -0.52,-2.2 -0.44,-5.81 -0.44,-8.7 -0.01,-4.45 -0.39,-13.33 0.51,-16.69 1.01,-3.79 2.15,-2.79 3.32,-5.19 1.89,-3.87 -0.15,-1.06 2.96,-5.47zm296.38 -194c0.55,-3.39 3.67,-4.2 5.83,-6.3 0.08,-0.08 0.2,-0.21 0.28,-0.29l9.18 -9.81c1.41,-1.05 0.26,0.36 1.48,-1.48 0.92,-1.39 -0.43,-0.61 1.36,-2 1.27,-0.99 4.92,-3.07 6.43,-6.17 2.2,-4.5 1.07,-1.03 3.2,-3.26 1.22,-1.28 1.14,-2.72 2.4,-3.93 2.18,-2.08 3.51,-5.08 5.54,-7.1 1.67,-1.66 1.09,-2.43 2.48,-3.88 2.09,-2.18 1.2,0.31 2.57,-3.69 0.94,-2.73 0.93,-2.16 2.54,-3.87 2,-2.13 0.92,-2.04 2.16,-4.16 1.53,-2.62 1.43,-0.26 2.7,-3.59 3.74,-9.8 2.85,-2.3 4.46,-8.15 1.12,-4.1 3.12,-4.37 4.22,-8.31 0.78,-2.81 0.57,-2.33 2.2,-4.35 1.55,-1.91 1.09,-1.44 1.87,-4.29 0.82,-2.96 0.45,-2.45 1.96,-4.56 1.49,-2.07 1.86,-5.45 3.14,-7.75 2.23,-4.01 3.13,-8.02 6.11,-11.3 2.14,-2.35 1.14,-4.51 2.59,-7.04 0.75,-1.31 0.35,-0.48 1.05,-1.79 1.25,-2.35 1.41,-5.93 2.52,-7.91 4.18,-7.43 1.54,-10.91 4.05,-15.02 0.75,-1.23 2.12,-2.21 2.41,-3.6 1.26,-5.98 -0.48,-5.31 2.85,-10.09 1.42,-2.04 0.46,-2.36 1.34,-4.99 0.57,-1.71 2.8,-3.86 4.24,-5.16 1.17,-1.06 1.12,-0.61 2.15,-1.35 2.06,-1.47 0.33,-1.36 3.24,-3.13l9.62 -9.16c1.32,-1.94 0.56,-1.93 2.35,-4.05 2.35,-2.76 2.59,-5.67 2.87,-10.16 0.19,-3.02 0.89,-3.61 1.02,-5.28 0.13,-1.61 -0.74,-2.88 -0.95,-5.08 -1.13,-12 -2.5,-10.03 -9.84,-18.2 -1.04,-1.16 -0.76,-0.92 -1.93,-1.58 -3.74,-2.14 -8,-6.54 -10.65,-8.22 -0.98,-0.62 -0.78,-0.23 -1.79,-1.19 -0.89,-0.85 -1.06,-1.47 -1.55,-1.9 -3.03,-2.67 -2.44,-0.43 -7.64,-6.21 -0,-0 -0.83,-0.88 -0.84,-0.89l-3.18 -3.19c-1.17,-0.94 -2.47,-2.03 -3.16,-3.59 -0.39,-0.88 -0.5,-1.65 -0.63,-2.96l-3.59 -0.38c-0.46,-7.26 -1.65,-2.54 -3.57,-6.15 -0.43,-0.8 -0.7,-3 -1.26,-4.01 -1.21,-2.19 -1.28,-0.55 -2.51,-2.69 -0.67,-1.16 -0.54,-2.22 -1.25,-3.5 -0.92,-1.67 -1.05,-0.59 -2.42,-2.7 -0.95,-1.46 -0.78,-2.35 -1.5,-3.74 -1.39,-2.7 -2.15,-1.46 -3.54,-6.3 -0.81,-2.84 -0.29,-1.46 -1.89,-3.12 -2.54,-2.65 -1.53,-4.48 -3.11,-7.28 -0.73,-1.3 -1.03,-0.84 -2.02,-2.67 -0.81,-1.49 -0.58,-2.02 -1.86,-3.28 -4.27,-4.17 -2.24,-4.86 -3.56,-6.47 -0.14,-0.11 -0.39,-0.4 -0.46,-0.26 -0.09,0.14 -0.49,-0.25 -0.86,-0.5 -1.45,-0.95 -1.58,-2.37 -2.33,-4.41 -0.07,-0.18 -0.51,-1.24 -0.52,-1.25 -0.61,-1.07 -0.2,-0.51 -1.08,-1.28 -1.86,-1.64 -2.35,-3.06 -4.19,-4.49 -2.75,-2.16 -1.12,-2.51 -4.67,-4.59 -1.53,-0.9 -1.29,-0.97 -1.44,-3.04l-3.81 -0.3 -0.87 -3.64c-11.34,-0.86 -1.83,-3.96 -11.21,-4.43l-0.4 -3.51c-11.81,-0.97 -5.64,-2.81 -10.53,-4.11 -4.88,-1.3 -7.16,0.56 -10.06,-3.57 -0.63,-0.91 -12.67,-1.61 -14.07,-1.69 -2.36,-0.13 -5.32,0.15 -6.9,-0.54 -2.78,-1.21 -0.37,-2.04 -5.19,-2.3 -8.07,-0.42 -2.26,2.14 -12.11,2.84 -5.91,0.42 -6.48,0.99 -14.21,1.11 -4.31,7.07 -4.77,1.59 -10.76,4.51 -2.7,1.32 -2.17,3.2 -6.11,3.37 -9.67,0.44 -7.05,3.91 -21.92,3.67 -5.57,-0.09 -6.81,0.27 -10.22,-2.31 -3.78,-2.85 -6.34,0.33 -9.78,-2.87 -3.71,-3.46 -5.67,-1.22 -8.39,-4.25 -2.54,-2.83 -7.01,-2.34 -10.79,-2.46 -0.29,-1.9 -0.48,-1.96 -0.83,-3.65 -12.8,-0.27 -25.09,-1.48 -37.83,0.22 -3.28,5.02 -5.67,1.77 -7.81,5.41 -0.3,0.5 -0.2,0.53 -0.67,0.98 -1.41,1.39 -3.19,1.16 -6.27,4.66 -2.67,3.03 0.9,1.58 -3.24,4.18l-1.78 1.82c-2.61,4.32 -2.52,0.43 -4.37,7.2 -0.59,2.15 -0.59,1.81 -2.03,2.9 -2.24,1.69 -1.26,4.27 -3.3,6.61 -2.01,2.3 -2.01,0.59 -2.28,5.35 -0.52,9.26 -4.27,-1.96 -4.46,25.33 -0.12,17.57 -2.27,12.58 -3.24,19.1 -0.33,2.24 -0.39,4.81 -0.58,7.1 -2.85,2.12 -2.81,0.18 -3.62,4.44 -0.57,3.07 -0.78,3.89 -3.64,4.31l-0.44 4.26 -3.58 0.4c-0.23,2.55 -0.89,3.24 -2.27,4.66l-1.67 1.79c-1.28,1.25 0.24,0.37 -2.07,1.24l-6.94 5.41c-1.83,2.66 -5.22,1.71 -7.05,3.85 -1.07,1.25 -0.96,1.87 -2.52,2.42 -6.43,2.23 -4.63,4.5 -7.55,6.98 -2.87,2.44 -1.01,1.1 -3.12,3.9 -2.39,3.17 -1.99,-1.02 -2.9,4.15 -0.6,3.4 -1.13,16.94 0.12,20.74 0.78,2.41 2.32,1.91 3.13,4.24 1.01,2.94 0.13,3.05 2.3,4.86 2.07,1.74 2.49,1 2.73,4.64 3.75,0.24 2.8,0.87 4.82,2.77 2.16,2.03 3.22,1.62 5.83,2.67 1.34,5.8 1.58,2.1 3.81,4.9 0.81,1.01 0.76,1.99 1.16,3.32 1,3.31 0.15,1.39 1.98,2.88 4.76,3.87 -1.36,9.52 5.77,12.63l0.43 12.13 3.17 1.05c0.27,3.11 0.23,6.8 1.17,9.58 0.34,1 1.14,0.62 1.89,1.2 2.44,1.91 1.2,5.53 1.81,8.28 0.77,3.41 1.68,1.83 2.93,4.05 0.78,1.39 0.98,4.66 1.08,6.62 1.65,0.23 2.16,0.61 3.16,1.29 0.13,1.96 0.31,3.19 0.57,4.89 0.52,3.48 0.34,2.32 1.85,4.29 2.12,2.76 1.52,6.07 3.2,8.3 1.35,1.8 1.52,0.15 2.39,3.5 1.37,5.25 0.68,3.87 3.33,8.06l2 4.42c1.04,1.67 1.25,0.67 2.46,3.32l6.22 10.95c2.52,2.79 1.77,4.3 5.57,8.76 0.89,1.05 0.53,0.76 1.24,1.67 2.3,2.96 5.93,6.89 7.76,10.19l5.04 6.4c3,2.51 5.22,6.34 8.59,8.72 1.78,1.25 1.8,2.47 4.54,4.62l10.33 9.82c1.83,1.66 2.05,0.87 3.5,2.3 2.67,2.63 -1.12,0.83 2.93,2.63 1.3,0.58 0.66,0.14 2,0.99 1.76,1.12 2.67,2.49 4.65,3.34 0.14,0.06 0.3,0.11 0.44,0.17 4.29,1.9 2.15,2.64 7.65,4.27 4.02,1.19 0.67,1.72 8.05,3.57 3.88,0.98 3.24,2.86 7.71,3.67 11.06,2.02 4.8,3.28 19.4,4.41 4.93,0.38 6.37,2.06 8.8,2.46 7.34,1.22 15.36,0.12 22.31,0.16 6.65,0.04 4.25,-0.67 9.23,-2.05 3.41,-0.94 7,-0.49 10.77,-1 3.46,-0.47 5.33,-2.46 8.22,-3.14 1.91,-0.45 3.17,-0.37 4.81,-0.89 2.94,-0.93 1.48,-1.13 3.71,-2.48 2.81,-1.71 5.41,-0.74 8.2,-3.25 2,-1.79 1.11,-1.34 4.58,-1.71 2.64,-0.28 2.13,-0.3 3.41,-1.78l6.63 -4.99c3.27,-2.74 3.58,-1.17 6.77,-5.22l2.63 0.29z"/>
  <g>
   <path class="fil1 str0" d="M332.1 10.42l1497.68 0c176.93,0 321.68,144.76 321.68,321.68l0 1537.54c0,176.93 -144.76,321.68 -321.68,321.68l-1497.68 0c-176.93,0 -321.68,-144.76 -321.68,-321.68l0 -1537.54c0,-176.93 144.76,-321.68 321.68,-321.68z"/>
  </g>
 </g>
</svg>
