<?xml version="1.0" encoding="UTF-8"?>
<!DOCTYPE svg PUBLIC "-//W3C//DTD SVG 1.1//EN" "http://www.w3.org/Graphics/SVG/1.1/DTD/svg11.dtd">
<!-- Creator: CorelDRAW -->
<svg xmlns="http://www.w3.org/2000/svg" xml:space="preserve" width="2.16188in" height="2.20173in" version="1.1" style="shape-rendering:geometricPrecision; text-rendering:geometricPrecision; image-rendering:optimizeQuality; fill-rule:evenodd; clip-rule:evenodd"
viewBox="0 0 2161.88 2201.74"
 xmlns:xlink="http://www.w3.org/1999/xlink"
 xmlns:xodm="http://www.corel.com/coreldraw/odm/2003">
 <defs>
  <style type="text/css">
   <![CDATA[
    .str0 {stroke:#856443;stroke-width:20.83;stroke-miterlimit:2.61313}
    .fil1 {fill:none}
    .fil0 {fill:#856443}
   ]]>
  </style>
 </defs>
 <g id="Layer_x0020_1">
  <metadata id="CorelCorpID_0Corel-Layer"/>
  <g id="_1338832289184">
   <path class="fil0" d="M894.93 2044.76l609.99 0c5.96,-9.27 0.62,-11.94 -6.09,-31.96 -12.7,-37.84 -15.23,-74.67 -8.86,-114.54 7.41,-46.36 25.8,-94.39 43.45,-133.64 38.55,-85.7 78.81,-147.36 136.56,-216.87 13.67,-16.45 29.41,-30.41 42.46,-46.8 6.59,-8.28 12.93,-14.96 20.14,-23.63 73.12,-87.99 123.83,-227.04 142.86,-342.01 2.59,-15.67 5.73,-69.45 9.74,-78.37l0 -83.87c-2.2,-6.43 -4.97,-54.28 -6.5,-66.34 -17.1,-134.29 -67.31,-256.42 -142.95,-363.06 -75.52,-106.47 -170.04,-179.32 -300.68,-205.02 -11.53,-2.27 -57.91,-7.16 -62.76,-9.17l-228.23 0c-22.37,7.85 -59.46,-0.94 -148.37,45.18 -36.12,18.73 -82.58,53.72 -110.04,84.2 -48.66,54.02 -82.05,113.24 -101.69,188.66 -6.83,26.24 -13.07,74.96 -15.04,81.43 -3.55,11.65 -14.5,19.69 -22.7,26.3l-78.6 66.69c-35.87,28.59 -68.38,59.54 -104.3,88.22 -33.83,27.01 -90.09,68.92 -67.11,118.7 8.17,17.68 34.02,36.79 47.99,48.24l51.37 45.24c1.79,21.6 -13.35,58.24 -3.87,77.07 10.36,20.57 37.76,19.38 40.84,47.15 1.63,14.68 -5.01,26.09 -12.3,32.07 -23.69,19.42 -41.07,-13.42 -48.43,83.15 -8.87,116.44 46.67,192.11 114.84,232.73 18.96,11.3 38.4,18.7 59.19,28.3 134.79,62.22 183.07,211.98 154.61,354.51 -8.6,43.05 -21.24,53.87 -5.52,67.41zm32.66 -629.23c-53.79,9.18 -38.83,88.7 13.4,78.96 19.46,-3.63 35.98,-21.91 32,-46.24 -3.07,-18.79 -22.31,-36.66 -45.4,-32.72zm382.26 -400.17c-53.12,19.11 -23.36,90.64 24.5,75.95 17.47,-5.37 33.8,-26.29 26.32,-50.02 -5.53,-17.52 -26.7,-34.6 -50.81,-25.92zm-143.58 -336.2c-53.86,12.48 -33.01,89.62 17.61,77.96 51.44,-11.85 33.47,-89.79 -17.61,-77.96zm-237.45 590.38c-63.92,19.63 -32.5,106.18 24.29,89.88 59.54,-17.08 32.3,-107.26 -24.29,-89.88zm30.65 -282.53c-62.49,11.89 -45.48,100.91 14.86,92.22 22.22,-3.2 44.96,-26.31 38.96,-54.54 -4.75,-22.31 -26.72,-42.83 -53.82,-37.68zm414.74 161.05c-62.69,12.69 -43.23,104.86 18.89,91.3 20.84,-4.55 41.89,-26.84 35.56,-54.27 -5.2,-22.52 -25.95,-42.8 -54.45,-37.03zm-340.92 -400.37c-61.62,21.71 -28.54,104.59 27.16,89.15 21.55,-5.98 40.69,-29.1 32.04,-57.73 -6.57,-21.74 -30.01,-41.7 -59.19,-31.41zm35.84 615.3c-66.42,16.43 -49.61,116.72 24.8,104.16 26.57,-4.48 46.13,-31.7 39.22,-63.7 -5.46,-25.27 -31.85,-48.42 -64.02,-40.46zm132.34 -548.86c-71.42,20.83 -38.63,120.52 27,103.16 25.07,-6.63 47.26,-31.13 38.59,-64.22 -6.58,-25.14 -32.44,-48.61 -65.59,-38.94zm18.61 293.5c-67.13,11.9 -57.72,117.31 17.17,105.46 65.33,-10.34 57.72,-118.74 -17.17,-105.46z"/>
   <path class="fil0" d="M439.45 1055.59c-5.35,3.07 -25.76,32.82 -31.64,40.42 -34.37,44.34 -63.4,129.65 4.12,143.03 50.9,10.09 75.04,-26.91 62.09,-74.25 -5.13,-18.76 -11.75,-38.12 -15.67,-57.59 -3.52,-17.5 3.95,-64.73 -18.89,-51.61z"/>
   <path class="fil0" d="M276.69 1341.72l0 24.62c5.47,11.14 8.33,32.3 38.42,34.9 23.82,2.06 37.4,-12.11 41.09,-32.88 4.89,-27.58 -13.18,-63.11 -15.19,-93.67 -1.02,-15.45 2.73,-22.36 -4.42,-33.32 -13.41,-0.65 -14.04,9.19 -20.15,18.72 -11.54,18.03 -20.91,29.59 -29.67,50.93 -3.83,9.33 -5.5,22.55 -10.09,30.69z"/>
   <path class="fil0" d="M417.2 1324.16c-8.72,7.54 -29.21,69.64 -31.77,87.18 -5.46,37.38 4.01,76.83 46.85,69.75 16.53,-2.73 27.11,-13.26 30.69,-28.76 4.5,-19.5 -1.9,-34.22 -8.52,-49.2 -5.98,-13.51 -13.15,-27.35 -17.91,-41.62 -3.87,-11.59 -4.92,-49.83 -19.34,-37.35z"/>
  </g>
  <g>
   <path class="fil1 str0" d="M332.1 10.42l1497.68 0c176.93,0 321.68,144.76 321.68,321.68l0 1537.54c0,176.93 -144.76,321.68 -321.68,321.68l-1497.68 0c-176.93,0 -321.68,-144.76 -321.68,-321.68l0 -1537.54c0,-176.93 144.76,-321.68 321.68,-321.68z"/>
  </g>
 </g>
</svg>
