<?xml version="1.0" encoding="UTF-8"?>
<!DOCTYPE svg PUBLIC "-//W3C//DTD SVG 1.1//EN" "http://www.w3.org/Graphics/SVG/1.1/DTD/svg11.dtd">
<!-- Creator: CorelDRAW -->
<svg xmlns="http://www.w3.org/2000/svg" xml:space="preserve" width="2.16188in" height="2.20173in" version="1.1" style="shape-rendering:geometricPrecision; text-rendering:geometricPrecision; image-rendering:optimizeQuality; fill-rule:evenodd; clip-rule:evenodd"
viewBox="0 0 2161.88 2201.74"
 xmlns:xlink="http://www.w3.org/1999/xlink"
 xmlns:xodm="http://www.corel.com/coreldraw/odm/2003">
 <defs>
  <style type="text/css">
   <![CDATA[
    .str0 {stroke:#856443;stroke-width:20.83;stroke-miterlimit:2.61313}
    .fil1 {fill:none}
    .fil0 {fill:#856443}
   ]]>
  </style>
 </defs>
 <g id="Layer_x0020_1">
  <metadata id="CorelCorpID_0Corel-Layer"/>
  <path class="fil0" d="M979.34 1379.99l0.12 430.1 79.83 0.11c1.55,-15.68 0.54,-161.28 0.54,-182.02l320.43 -0.05 -0.02 182.26 52.69 -0.06c2.87,-9.71 0.36,-232.79 1.22,-288.76l52.54 -0.31 0.6 288.82 135.11 0.23c0.29,-11.53 -9.6,-102.92 -11.65,-121.46 -4.62,-41.75 -8.39,-82.26 -12.5,-123.75 -2,-20.16 -3.94,-40.56 -6.13,-60.68 -7.54,-69.2 1.17,-87.88 -65.87,-138.61 -36.97,-27.98 -99.65,-50.26 -150.2,-53.19 -22.8,-1.32 -36.11,-5.57 -56.39,-11.35l-160.63 -43.76c-13.79,-3.61 -41.77,-13.05 -54.3,-13.9 -9.84,18.82 -60.75,70.9 -77.16,85.95 -6.37,5.83 -10.47,8.67 -16.94,15.62l-16.89 15.7c-6.48,6.22 -14.41,7.12 -14.41,19.13zm-560.88 352.54l0.12 -102.2 0.11 -109.13 52.78 0.13c1.65,17.09 0.32,118.5 0.33,144.55 0,22.7 -2.78,131.42 0.95,144.5l51.98 -0.08 0.8 -182.09 320.32 -0.07 0.01 182.01 79.99 0.16c2.35,-13.11 0.53,-323.49 0.53,-345.87 0,-27.15 1.61,-59.52 0.09,-85.98 -0.62,-10.75 -23.34,-25.44 -31.57,-33.13 -23.16,-21.63 -55.76,-53.15 -75.87,-76.73 -7.12,-8.35 -12.07,-17.21 -19.5,-25.29l-214.22 57.25c-17.39,4.94 -35.44,11.1 -54.56,12.02 -20.46,0.98 -39.82,4.99 -58.35,9.85 -46.03,12.08 -87.59,35.23 -119.26,65.92 -13.96,13.52 -28.2,30.69 -32.76,53.06 -3.23,15.87 -22.46,220.9 -25.11,245.66 -1.63,15.22 -12.73,116.26 -11.78,123.07l134.47 0.18 0.5 -77.76zm1306.96 -1335.88l46.47 -45.64c10,-11.61 21.56,-20.37 27.5,-29.3 4.72,-2.25 25.83,-24.47 30.48,-29.7 23.2,-26.1 16.46,-65.45 -14.18,-82.23 -14.25,-7.8 -35.55,-8.07 -50.55,-0.31 -14.57,7.54 -50.29,45.96 -63.55,59.47 -10.6,10.81 -20.33,20.42 -31.15,31.09l-31.3 30.74c4.05,7.2 30.19,31.75 37.5,38.82l37.97 38.11 10.8 -11.03zm-771.23 928.6c5.82,-6.78 8.47,-8.11 14.2,-13.45l57.86 -56.14c8.33,-9.06 35.37,-38.42 39.64,-47.29 -77.96,27.22 -67.74,16.25 -144.91,18.7 -39.7,1.26 -58.25,-11.8 -82.06,-19.09 4.37,7.86 8,9.92 12.83,16.08 2.81,3.59 3.09,5.27 6.17,8.66l79.32 79.14c3.98,3.47 13.07,12.11 16.94,13.39zm484.91 -792.23l120.35 0.03c19.51,-0.19 27.32,3.11 35.92,-5.95 13.52,-14.26 26.76,-26.76 40.64,-40.81l40.17 -41c-12.65,-12.44 -24.66,-25.33 -37.69,-37.57 -12.03,-11.31 -25.55,-26.85 -37.56,-37.26l-40.08 39.2c-13.63,14.12 -26.87,26.74 -40.7,40.76l-60.8 60.68c-5.69,5.54 -17.07,15.33 -20.24,21.93zm-113.5 118.16l0.03 46.56c-39.82,9.89 -41.33,35.82 -26.54,49.47 9.03,8.33 21.15,10.34 33.94,3.35 10.36,-5.66 11.22,-18.26 16.47,-29.3l45.52 -0.06c9.19,0 10.44,-4.37 20.24,-14.24l119.95 -120.67c-45.39,-1.11 -91.68,0.36 -137.24,-0.07 -20.41,-0.19 -17.21,3.81 -40.66,27.25l-26.13 25.72c-4.11,3.91 -5.59,4.04 -5.59,11.99zm-212.76 1036.92l0.04 121.85 213.34 0.34c2.45,-15.02 1.07,-104.13 0.37,-128.67l-210.04 -0.04c-4.19,0.01 -3.71,2.35 -3.7,6.53zm-533.97 66.66l0.34 55.54 213.26 -0.07c1.48,-30.92 0.21,-93.95 0.29,-127.4 -15.46,-3.44 -133.54,-1.31 -172.45,-1.26 -13.78,0.02 -27.72,-0.24 -41.47,0.11l0.04 73.07zm160.24 -878.08c15.12,0.19 36.13,-3.7 51.52,-5.06 77.37,-6.8 196.32,-8.56 272.56,-3.1 17.7,1.27 35.61,1.83 53.06,3.63 14.63,1.5 36.01,4.72 49.91,4.87 3.04,-27.65 -8.48,-76.83 -16.24,-100.69 -25.78,-79.24 -96.45,-163.34 -196.24,-163.69 -63.52,-0.22 -110.36,31.38 -148.25,74.06 -39.9,44.94 -63.78,116.03 -66.31,189.98zm0.45 53.77c-7.98,81.26 38.72,186.5 115.02,225.62 17.8,9.13 42.96,17.39 66.4,17.91 23.33,0.52 62.41,1.96 83.83,-2.19 103.25,-19.97 159.31,-125.88 161.81,-222.83 0.62,-24.25 1.79,-18.15 -21.82,-20.78 -25.7,-2.87 -53.76,-5.19 -80.17,-6.45 -107.07,-5.12 -219.85,-5.56 -325.09,8.72zm538.45 -313.74c4.73,-2.34 136.25,-134.96 142.53,-141.47l106.59 -106.72c11.89,-12.02 24.31,-23.23 35.59,-35.81 -4.83,-7.44 -12.23,-11.11 -17.19,-19.26 1.31,-2.03 0.64,-1.05 2.06,-2.87 6.61,-8.48 26.38,-24.96 33.63,-34.43 6.58,2.96 14.76,12.24 19.71,17.69l103.67 -103.34c-12.49,-11.47 -70.7,-25.43 -92.74,-28.81 -37.49,-5.74 -78.4,-2.99 -113.65,4.51 -93.54,19.91 -166.9,80.43 -210.26,155.69 -33.16,57.57 -48.47,133.08 -38.43,200.5 3.33,22.35 15.72,77.66 28.5,94.31zm474.84 -171.42l18.01 18.75c-3.46,5.22 -32.95,35.3 -38.68,37.74 -3.09,-3.76 -14.34,-15.78 -19.03,-18.29 -4.11,5.5 -12.23,12.48 -17.6,17.91 -39.71,40.13 -87,85.33 -124.37,124.46 -23.3,24.39 -47.69,46.6 -71.1,71.1l-53.34 53.34c-4.8,4.68 -13.85,12.92 -17.23,17.67 7.06,7.57 46.95,19.09 60.2,22.53 189.9,49.3 379.97,-88.83 396.87,-281.55 4.21,-47.98 -2.64,-106.65 -22.33,-150.67 -2.63,-5.87 -4.21,-12.97 -8.75,-16.64 -9.98,10.42 -97.76,95.56 -102.63,103.65z"/>
  <g>
   <path class="fil1 str0" d="M332.1 10.42l1497.68 0c176.93,0 321.68,144.76 321.68,321.68l0 1537.54c0,176.93 -144.76,321.68 -321.68,321.68l-1497.68 0c-176.93,0 -321.68,-144.76 -321.68,-321.68l0 -1537.54c0,-176.93 144.76,-321.68 321.68,-321.68z"/>
  </g>
 </g>
</svg>
