<?xml version="1.0" encoding="UTF-8"?>
<!DOCTYPE svg PUBLIC "-//W3C//DTD SVG 1.1//EN" "http://www.w3.org/Graphics/SVG/1.1/DTD/svg11.dtd">
<!-- Creator: CorelDRAW -->
<svg xmlns="http://www.w3.org/2000/svg" xml:space="preserve" width="2.16188in" height="2.20683in" version="1.1" style="shape-rendering:geometricPrecision; text-rendering:geometricPrecision; image-rendering:optimizeQuality; fill-rule:evenodd; clip-rule:evenodd"
viewBox="0 0 2161.88 2206.83"
 xmlns:xlink="http://www.w3.org/1999/xlink"
 xmlns:xodm="http://www.corel.com/coreldraw/odm/2003">
 <defs>
  <style type="text/css">
   <![CDATA[
    .str0 {stroke:#856443;stroke-width:20.83;stroke-miterlimit:2.61313}
    .fil1 {fill:none}
    .fil0 {fill:#856443}
   ]]>
  </style>
 </defs>
 <g id="Layer_x0020_1">
  <metadata id="CorelCorpID_0Corel-Layer"/>
  <g id="_1338946794944">
   <path class="fil0" d="M806.53 2206.83l1002.15 0c-11.05,-96.94 -46.13,-176.06 -91.1,-240.05 -141.05,-200.72 -115.54,39.76 -116.71,-451.38 -0.22,-91.48 27.47,-47.31 98.12,-149.33 138,-199.31 154.56,-432.02 28.75,-626.71 -152.64,-236.22 -327.6,-223.5 -404.36,-259.37l-116.62 0c-33.87,14.81 -84.85,17.89 -121.59,30.63 -171.7,59.57 -326.97,209.62 -358.96,392.3 -35.06,200.23 10.49,39.06 -56.91,240.45 61.97,32.16 68.35,38.74 89.57,115.8 14.28,51.86 28.39,103.07 43.47,154.8 86.86,297.9 49.86,203 -8.95,310.29 102.91,43.31 87.78,41.11 219.28,40.92l-0.09 90.96c-92.4,48.69 -191.89,199.49 -206.04,350.7zm153.94 -1158.31l-43.85 -8.36 -77.95 1.44 -45.8 4.25c-10.51,61.69 22.76,52.19 80.22,52.13 55.39,-0.05 98.45,9.01 87.37,-49.47zm358.66 -31.06c0,90.79 0.04,35.34 67.79,71.15 77.27,40.83 74.42,165.1 -18.43,197.34 -45.12,15.67 -51.07,-10.58 -47.28,63.75 233.48,-7.15 240.23,-324.32 -2.08,-332.24z"/>
   <path class="fil0" d="M396.31 2206.83l122.73 0c44.87,-124.12 35.04,-227.34 -20.93,-341.25 -63.12,-128.45 -57.83,-223.09 40.73,-294.11 11.16,12.6 41.59,40.62 55.77,50.44 58.68,40.59 225.75,94.7 180.82,-59.6 -23.8,-81.75 -71.33,-295.56 -107.81,-347.95 -75,-10.81 -77.41,29.34 -104.77,77.69 -74.77,132.1 -59.6,166.06 -78.33,188.54 -9.11,10.93 -87.06,53.75 -120.17,156.95 -79.5,247.76 180.67,311.86 31.98,569.29z"/>
  </g>
  <g>
   <path class="fil1 str0" d="M332.1 10.42l1497.68 0c176.93,0 321.68,144.76 321.68,321.68l0 1537.54c0,176.93 -144.76,321.68 -321.68,321.68l-1497.68 0c-176.93,0 -321.68,-144.76 -321.68,-321.68l0 -1537.54c0,-176.93 144.76,-321.68 321.68,-321.68z"/>
  </g>
 </g>
</svg>
