<?xml version="1.0" encoding="UTF-8"?>
<!DOCTYPE svg PUBLIC "-//W3C//DTD SVG 1.1//EN" "http://www.w3.org/Graphics/SVG/1.1/DTD/svg11.dtd">
<!-- Creator: CorelDRAW -->
<svg xmlns="http://www.w3.org/2000/svg" xml:space="preserve" width="2.22748in" height="2.22748in" version="1.1" style="shape-rendering:geometricPrecision; text-rendering:geometricPrecision; image-rendering:optimizeQuality; fill-rule:evenodd; clip-rule:evenodd"
viewBox="0 0 2227.48 2227.48"
 xmlns:xlink="http://www.w3.org/1999/xlink"
 xmlns:xodm="http://www.corel.com/coreldraw/odm/2003">
 <defs>
  <style type="text/css">
   <![CDATA[
    .str0 {stroke:#856443;stroke-width:20.83;stroke-miterlimit:2.61313}
    .fil0 {fill:none}
    .fil1 {fill:#856443}
   ]]>
  </style>
 </defs>
 <g id="Layer_x0020_1">
  <metadata id="CorelCorpID_0Corel-Layer"/>
  <g>
   <path class="fil0 str0" d="M1113.74 10.42c609.35,0 1103.32,493.97 1103.32,1103.32 0,609.35 -493.97,1103.32 -1103.32,1103.32 -609.35,0 -1103.32,-493.97 -1103.32,-1103.32 0,-609.35 493.97,-1103.32 1103.32,-1103.32z"/>
  </g>
  <path class="fil1" d="M655.07 1316.78c9.21,54.66 -10.2,108.85 25.07,146.2 35.04,37.12 89.91,22.02 145.09,27.4 4.42,72.3 -2.26,149.51 0.6,222.22 3.49,88.51 70.83,79.49 149.44,79.37 38.56,-0.06 312.24,4.74 336.73,-5.31 37.48,-15.37 12.96,-40.01 66.79,-48.28l23.41 50.87 113.62 1.71 20.31 -56.82c29.7,7.41 34.75,17.71 67.82,15.9 17.41,-20.77 34.07,-34.93 52.28,-55.54 33.07,-37.45 0.37,-34.81 -1.92,-78.37 42.66,-21.21 64.57,7.9 49.38,-133.76 -16.59,-13.02 -33.71,-17 -55.69,-24.57l21.84 -60.51c-31.56,-24.53 -52.92,-53.53 -80.48,-73.61l-58.89 21.58 -19.76 -55.16c65.37,-90.09 101.58,-138.44 120.18,-268.18 45.98,-320.7 -215.92,-614.31 -572.6,-585.56 -283.37,22.84 -449.79,251.56 -456.45,513.75 -1.16,45.75 -25.07,105.04 -38.59,151.81 -52.37,181.1 -93.42,209.68 91.84,214.85zm-89.37 -46.94c37.19,10.26 99.33,-7.01 121.87,19.59 22.71,26.8 2.49,98.31 14.85,132.41 13.93,38.46 75.16,24.87 112.72,24.93 43.77,0.07 100.59,3.25 142.77,-1.54 16.93,-21.33 12.43,-46.08 47.72,-38.03 41.13,97.79 -121.81,81.79 -137.11,83.22l-0.63 109.28 340.14 0.72 -4.46 -112.37 57.55 -27.33c-13.16,-28.02 -33.87,-44.2 -8.33,-72.28 18.54,-20.39 43.33,-45.68 61.96,-60.04l58.53 19.29c8,-25.31 10,-37.88 24.96,-56.5 59.96,-5.16 53.72,14.44 109.45,-64.99 192.94,-274.94 53.7,-686.18 -327.66,-743.67 -228.54,-34.45 -398.34,83.93 -475.19,222.67 -78.45,141.63 -47.46,220.65 -66.4,292.04 -14.53,54.76 -84.9,236.39 -72.74,272.59zm761.85 105.69l-38.68 35.1c10.97,81.62 61.68,57.79 -43.1,104.6l0.85 55.02 48.44 20.25c35.33,23.94 2.73,44.16 -4.17,82.49l39.99 35.89c19.81,-8.12 39.25,-22.19 67.12,-21.94 20.22,21.99 19.76,34.54 31.67,62.6l57.39 -0.67 24.06 -64.04c42.39,-1.2 40.25,10.37 72.63,19.58l39.15 -36.8c-6.15,-34.28 -22.44,-34.86 -20.28,-70.71 18.15,-18.91 36.46,-17.76 61.41,-32.02l0.58 -55.13c-95.46,-40.4 -65.76,-22.52 -45.58,-98.59 -16.94,-21.66 -20.46,-14.6 -32.31,-39.77 -37.76,8.54 -40.85,24.48 -80.46,20.91l-24.03 -58.82 -58.65 -1.28c-36.26,76.34 -8.02,77.11 -96.04,43.33z"/>
  <path class="fil1" d="M1061.31 590.17c-200.35,30.68 -334.73,196.28 -307.09,403.46 23.5,176.2 193.93,329.71 402.33,299.65 176.14,-25.41 337.79,-194.69 302.3,-403.05 -29.89,-175.47 -188.81,-332.02 -397.53,-300.06zm-116.02 154.85c6.79,15.85 29.4,28.89 12.22,46.51 -19.74,20.25 -32.46,-3.66 -46.29,-11.97 -29.74,29.22 -56.12,85.09 -56.59,138.39 16.15,5.67 42.49,1.57 41.44,25.04 -0.78,17.48 -0.77,10.63 -32.83,22.37l-9.32 3.83c4.29,50.61 28.65,109.08 57.3,133.84 10.52,-6.27 18.89,-17.73 32.47,-17.1 18.25,0.85 15.98,8.09 23.45,27.72 0.48,1.27 0.91,3.66 1.72,5.34l275.42 0.52c0.78,-2.18 1.63,-6.59 1.96,-5.63 4.09,11.83 -0.08,-8.22 11.07,-27.91 33,-1.04 22.74,5.15 44.61,16.9 28.91,-26.37 52.55,-85.07 57.61,-133.68l-29.5 -9.56c-14.7,-7.46 -13.41,-1.01 -12.37,-27.17 22.13,-18.72 15.58,-5.66 40.88,-14.51 -0.74,-51.34 -28.09,-110.56 -56.62,-138.35 -14.07,8.41 -27.31,31.24 -46.09,11.78 -17.35,-17.98 4.48,-28.24 11.38,-46.36 -26.07,-27.42 -91.39,-56.39 -138.22,-55.7l-9.84 40.61c-23.71,0.02 -17.72,6.71 -29.41,-9.4 -9.22,-12.72 -0.94,-2.38 -4.99,-13.7 -0.69,-1.91 -2.54,-8.21 -3.14,-9.91l-3.87 -9.46c-51.86,9.76 -100.75,25.58 -132.46,57.58z"/>
  <path class="fil1" d="M1418.48 1454.52c-114.41,52.19 -43.05,218.2 73.68,172.58 113.12,-44.21 41.91,-225.3 -73.68,-172.58z"/>
  <path class="fil1" d="M1039.99 757.92c-29.06,26.64 34.19,112.87 21.7,149.1 -9.88,28.63 -23.24,47.35 3.65,74.55 42.27,42.74 120.45,-4.83 91.61,-65.23 -14.26,-29.85 -38.36,-18.97 -51.99,-44.74 -13.06,-24.7 -27.83,-147.72 -64.96,-113.68z"/>
 </g>
</svg>
