<?xml version="1.0" encoding="UTF-8"?>
<!DOCTYPE svg PUBLIC "-//W3C//DTD SVG 1.1//EN" "http://www.w3.org/Graphics/SVG/1.1/DTD/svg11.dtd">
<!-- Creator: CorelDRAW -->
<svg xmlns="http://www.w3.org/2000/svg" xml:space="preserve" width="2.16188in" height="2.20173in" version="1.1" style="shape-rendering:geometricPrecision; text-rendering:geometricPrecision; image-rendering:optimizeQuality; fill-rule:evenodd; clip-rule:evenodd"
viewBox="0 0 2161.88 2201.74"
 xmlns:xlink="http://www.w3.org/1999/xlink"
 xmlns:xodm="http://www.corel.com/coreldraw/odm/2003">
 <defs>
  <style type="text/css">
   <![CDATA[
    .str0 {stroke:#856443;stroke-width:20.83;stroke-miterlimit:2.61313}
    .fil1 {fill:none}
    .fil0 {fill:#856443}
   ]]>
  </style>
 </defs>
 <g id="Layer_x0020_1">
  <metadata id="CorelCorpID_0Corel-Layer"/>
  <path class="fil0" d="M786.18 1951.88c-21.98,44.25 -49.82,96.83 -40.38,157.82l665.47 1.17c9.26,-62.25 -18.21,-113.87 -40.33,-158.83 77.36,-55.35 120.7,-59.26 212.26,-165.35 81.3,-94.2 208.79,-341.99 169.43,-476.31 -53.66,-21.38 -1194.56,-8.94 -1286.97,-8.94 -85.32,0 -84.22,37.88 -45.1,188.26 29.72,114.22 70.74,187.14 137.74,276.12 72.96,96.88 124.51,116.43 227.88,186.06zm977.33 -1194.02c57.37,-84.69 9.32,-90.25 -89.54,-134.61 -40.22,-18.06 -87.96,-46.46 -109.95,9.69 -22.3,56.94 29.23,65.91 70.93,83.76 45,19.26 77.69,47.78 128.56,41.17zm-769.98 392.85c9.93,-88.45 65.82,-171.63 112.72,-209.71 -35.8,53.11 -92.79,145 -97.55,230.12 206.43,-10.46 209.6,-214.06 232.02,-295.47 16.55,-60.11 37.52,-87.85 53.6,-129.58 -195.53,17.57 -365.91,177.93 -300.78,404.64zm-619.82 -150.27c221.19,-0.42 198.5,214.91 407.09,221.74 80.32,2.63 118.5,-27.95 178.48,-36.09 16.08,23.26 22.37,56.39 38.11,85.08l51.23 0.96c-35.59,-83.43 -162.49,-187.56 -262.95,-229.41 -41,-17.09 -97.78,-22.71 -131.59,-41.47 93.68,-9.91 177.3,18.17 246.77,70.78l65.33 48.6c-38.01,-266.72 -475.17,-308.04 -592.47,-120.18zm866.03 269.98c51.93,3.65 40.4,19.35 86.74,-74.09l176.38 -321.19 -176.23 396.8 233.32 1.46c25.21,-92.26 170.22,-431.62 166.91,-496.72 -43.35,-19.11 -124.63,-63.48 -172.42,-70.55l-314.7 564.29zm-203.21 328.17l-89.48 0.44c-14.63,101.74 0.94,84.15 90.79,81.7 -1.73,62.28 -20.04,95.24 40.67,95.22 60.83,-0.01 42.32,-32.93 40.57,-95.26 90.2,2.76 105.47,20.2 90.96,-79.49l-89.16 -3.75 -1.52 -86.14c-31.84,-9.47 -49.89,-9.65 -81.03,0.01l-1.79 87.26zm-231.79 285.32c-120.56,-139.1 -192.31,-251.21 -234.23,-499.12l-58.17 -0.85c-5.21,95.24 50.57,229.16 92.95,299.09 49.05,80.94 119.27,158.21 199.44,200.88z"/>
  <g>
   <path class="fil1 str0" d="M332.1 10.42l1497.68 0c176.93,0 321.68,144.76 321.68,321.68l0 1537.54c0,176.93 -144.76,321.68 -321.68,321.68l-1497.68 0c-176.93,0 -321.68,-144.76 -321.68,-321.68l0 -1537.54c0,-176.93 144.76,-321.68 321.68,-321.68z"/>
  </g>
 </g>
</svg>
