<?xml version="1.0" encoding="UTF-8"?>
<!DOCTYPE svg PUBLIC "-//W3C//DTD SVG 1.1//EN" "http://www.w3.org/Graphics/SVG/1.1/DTD/svg11.dtd">
<!-- Creator: CorelDRAW -->
<svg xmlns="http://www.w3.org/2000/svg" xml:space="preserve" width="2.1383in" height="2.17772in" version="1.1" style="shape-rendering:geometricPrecision; text-rendering:geometricPrecision; image-rendering:optimizeQuality; fill-rule:evenodd; clip-rule:evenodd"
viewBox="0 0 2138.31 2177.72"
 xmlns:xlink="http://www.w3.org/1999/xlink"
 xmlns:xodm="http://www.corel.com/coreldraw/odm/2003">
 <defs>
  <style type="text/css">
   <![CDATA[
    .str0 {stroke:#856443;stroke-width:20.83;stroke-miterlimit:2.61313}
    .fil0 {fill:none}
    .fil1 {fill:#856443}
   ]]>
  </style>
 </defs>
 <g id="Layer_x0020_1">
  <metadata id="CorelCorpID_0Corel-Layer"/>
  <g>
   <path class="fil0 str0" d="M328.56 10.41l1481.2 0c174.98,0 318.14,143.16 318.14,318.14l0 1520.62c0,174.98 -143.16,318.14 -318.14,318.14l-1481.2 0c-174.98,0 -318.14,-143.16 -318.14,-318.14l0 -1520.62c0,-174.98 143.17,-318.14 318.14,-318.14z"/>
  </g>
  <path class="fil1" d="M698.29 953.79l-0.28 -18.14c34.36,-18.58 68.06,8.38 115.36,-40.03 20.1,-20.57 46.65,-65.49 54.61,-103.89 -89.26,-23.35 -151.72,-111.23 -155.54,-200.82 -2.73,-64.2 27.56,-84.65 -15.53,-88.67l-76.88 88.56c-3.71,29.98 87.95,35.58 68.05,191.85 -22.87,179.61 -142.44,219.9 -33.66,531.33 13.46,38.56 25.07,44.87 97.45,37.6 24.03,-33.1 49.5,-146.22 73.39,-145.66 18.17,0.42 29.5,81.95 35.78,110.29 8.87,40.06 17.07,82.63 27.62,122.83 8.88,-20.93 12.24,-71.67 31.63,-82.22 12.18,-10.18 132.4,-5.17 154.08,-2.47 13.33,34.82 -18.86,27.49 -48.25,27.38 -30.21,-0.12 -60.43,0 -90.64,-0.03 -4.7,24.11 -30.63,117.93 -39.37,132.53l-17.63 0.17c-10.95,-19.28 -49.92,-205.55 -57.08,-243.8 -11.02,13.06 -18.21,37.23 -25.84,55.24 -4.05,9.55 -7.59,17.38 -11.45,27.15 -8.4,21.24 -6.19,22.38 -16.87,26.9 -11.09,4.69 -106.48,-15.21 -45.28,71.24 40.37,57.03 104.58,117.54 157.48,163.03l92.08 70.2c86.59,57.94 268.54,119.96 379.24,88.44 34.52,-9.83 91.71,-40.28 100.45,-61.63 -195.04,3.68 -176.43,13.94 -176.43,-108.43 0,-42.15 -12.5,-102.39 33.65,-107.03 36.68,-3.69 114.78,5.94 144.63,-2.85 10.63,-91.34 -23.28,-171.63 36.48,-176.69 67.46,-5.7 66.17,-20.46 56.17,-157.45 -12.48,-171.09 -66.91,-350.09 -210.61,-436.58 -22.66,-13.64 -46.95,-24.51 -75.37,-32.65 -39.61,-11.35 -54.16,-1.1 -71.74,24.54 -61.69,89.93 -62.21,207.78 -43.11,314.71 3.98,22.3 5.54,32.97 -18.63,32.61 -29.65,-36 -49.58,-309.19 77.77,-408.46 30.1,-23.46 43.64,-29.43 85.58,-45.79 75.22,-29.35 59.21,-63.77 12.23,-168.42 -18.39,-40.97 -53.5,-32.35 -90.41,-17.93 -324.13,126.66 -268.5,307.87 -342.55,445.37 -15.3,28.41 -37.52,55.81 -60.85,70.51 -24.89,15.68 -80.35,32.74 -109.72,17.16zm446.21 145.65c-15.89,16.54 53.04,94.61 72.16,75.68 15,-14.85 -19.46,-36.61 -27.13,-44.85 -7.18,-7.71 -11.18,-12.86 -17.29,-21.25 -7.19,-9.87 -15.98,-21.81 -27.74,-9.58z"/>
  <path class="fil1" d="M1502.07 1347.03c-28.23,11.48 -19.26,54.26 -19.04,108.95 0.24,60.16 -1.98,68.57 -62.92,68.28 -29.4,-0.14 -102.06,-11.67 -113.69,15.07 -4.93,11.33 -5.24,114.45 -0.24,127.06 10.39,26.2 77.89,15.95 110.04,15.76 55.24,-0.33 67.23,12.61 66.85,67.35 -0.22,30.85 -10.98,99.7 16.2,109.98 12.33,4.66 115.13,4.39 126.5,-0.89 27.14,-12.62 15.61,-83.1 15.46,-112.97 -0.3,-61.88 6.94,-63.63 68.51,-63.38 29.78,0.12 98.06,11.89 108.62,-16.87 4.03,-10.96 3.64,-115.1 0.05,-125.09 -9.57,-26.63 -80.68,-16.19 -112.56,-16.06 -56.69,0.24 -64.87,-7.54 -64.59,-64.36 0.16,-31.47 10.31,-102.96 -15.56,-112.78 -10.61,-4.03 -113.89,-4 -123.61,-0.06z"/>
  <path class="fil1" d="M858.6 337.49c-10.14,-0.88 -8.53,-1.47 -18.89,1.29 -33.13,8.81 -9.94,31.49 -7.08,59.68 2.58,25.5 -11.58,27.25 -26.56,41.82 -43.95,42.75 -53.58,-13.71 -94.27,-15.52l-17.29 26.56c12.56,31 58.45,29.37 56.65,65.61 -2.23,45.02 -34.05,107.33 38.63,194.41 10.64,12.75 52.44,49.27 81.82,44.79 18.22,-8.32 22.52,-71.82 43.98,-121.32 26.55,-61.22 78.58,-121.14 130.67,-159.05 45.86,-33.37 -10.25,-47.31 -27.07,-63.44 -16.74,-16.05 -3.38,-46.93 -5.03,-72.85 -63.87,-35.26 -26.3,45.39 -70.32,52.37 -89.66,14.21 -58.09,-13.65 -85.24,-54.35z"/>
  <path class="fil1" d="M446.22 1347.16c-38.46,2.14 -116.81,-8.56 -141.81,8.26l-1.43 23.51c24.49,14.46 99.45,7.92 143.77,7.92 46.41,0 29.87,-33.71 50.21,-61.02 21.37,42.52 31.28,189.59 57.12,222.45 31.63,3.53 29.07,-15.78 48.3,-67.95 11.16,-30.27 21.44,-57.83 31.98,-87.87 20,-56.99 -20.89,-54.82 -32.6,-24.87 -10.26,26.24 -23.84,62.13 -31.72,88.06 -19.88,-27.24 -34.22,-190.02 -56.94,-223.53 -34.48,-5.7 -32.93,18.63 -42.72,46.61 -8.04,22.98 -15.72,45.58 -24.17,68.42z"/>
 </g>
</svg>
