<?xml version="1.0" encoding="UTF-8"?>
<!DOCTYPE svg PUBLIC "-//W3C//DTD SVG 1.1//EN" "http://www.w3.org/Graphics/SVG/1.1/DTD/svg11.dtd">
<!-- Creator: CorelDRAW -->
<svg xmlns="http://www.w3.org/2000/svg" xml:space="preserve" width="2.16188in" height="2.20173in" version="1.1" style="shape-rendering:geometricPrecision; text-rendering:geometricPrecision; image-rendering:optimizeQuality; fill-rule:evenodd; clip-rule:evenodd"
viewBox="0 0 2161.88 2201.74"
 xmlns:xlink="http://www.w3.org/1999/xlink"
 xmlns:xodm="http://www.corel.com/coreldraw/odm/2003">
 <defs>
  <style type="text/css">
   <![CDATA[
    .str0 {stroke:#856443;stroke-width:20.83;stroke-miterlimit:2.61313}
    .fil1 {fill:none}
    .fil0 {fill:#856443}
   ]]>
  </style>
 </defs>
 <g id="Layer_x0020_1">
  <metadata id="CorelCorpID_0Corel-Layer"/>
  <g id="_1338715061856">
   <path class="fil0" d="M788.64 534.62c-21.83,-36.57 -65.89,-57.09 -107.09,-16.59 -57.22,56.26 14.96,71.23 -9.51,119.07 -42.26,41.66 -88.65,-20.34 -152.74,68.11 -59.23,81.75 24.32,152.93 32.32,169.67 -22.23,33.07 -43.08,48.77 -67.45,80.93 -139.76,184.46 -318.71,645.07 -100.57,776.43 171.3,103.15 772.15,-19.35 878.9,-306.09 -196.24,83.12 -90.69,119.46 -331.55,215.69 -93.45,37.33 -357.19,90.62 -465.41,62.98 -59.41,-15.17 -117.42,-72.83 -130.14,-135.59 -12.64,-62.33 16.82,-176.13 31.16,-234 20.27,-81.83 51.65,-129.72 101.33,-165.89 84.61,-61.61 143.22,-29.92 215.95,-59.88 1.27,-1.03 102.33,-176.18 -82.17,-276.78 -85.56,-46.65 -42.63,-102.38 -18.02,-118.09 56.69,-36.19 259.1,16.28 326.74,260.31 25.91,93.5 65.71,128.56 130.45,173.78 25.47,17.79 35.85,35.59 62.69,50.52 6.24,-15.22 12.8,-25.23 20.05,-38.94 -20.72,-42.63 -30.46,-30.58 -65.28,-64.44 14.06,-28.24 31.38,-37.24 51.11,-76.39l39.47 -99.75c44.38,25.67 47.64,52.19 82.85,92.74 32.53,-30.43 38.95,-29.59 37.59,-91.25 -0.93,-41.77 -6.67,-85.95 -15.5,-123.2 -25.88,-109.28 -36.98,-141.92 -153.78,-121.07 21.83,-62.18 57.8,-76.41 2.24,-132.76 -59.5,-60.35 -79.32,-16.95 -128.3,7.18l-21.88 -74.71c-31.28,-6.29 -69.48,-12.93 -103.56,-3.76 -33.37,8.97 -35.76,24.72 -47.98,44.29l-11.91 17.51zm-337.52 577.76c28.43,-9.57 52.67,-22.17 84.68,-31.37 34.43,-9.89 80.17,-9.56 108.66,-19.24 31.51,-52.35 12.15,-130.39 -29.49,-159.16 -54.93,17.15 -136.35,140.54 -163.85,209.77zm386.44 -486.18c-86.62,2.84 -51.37,-72.43 -118.8,-70.97 -0.8,44.75 12.19,27.3 20.3,57.76 9.7,36.45 -8.7,27.9 -15.42,67.54 271.78,107.4 200.15,316.61 287.17,369.18 50.2,-20.51 84.04,-99.63 80.45,-173.59 -4.68,-96.34 -60.65,-132.07 -70.44,-194.55 20.82,-42.96 67.8,-49.11 46.87,-103.09 -80.7,-26.99 -73.21,92.65 -141.58,40.32 -19.96,-32.57 -6.79,-63.07 -17.62,-101.87 -88.26,-24.52 -40.37,49.85 -70.93,109.27zm267.6 108.4c25.21,78.82 47.35,128.19 108.22,160.1 -2.56,-67.08 -18.62,-126.79 -44.33,-175.48l-63.89 15.38z"/>
   <path class="fil0" d="M1542.16 817.12c-25.81,-12.24 -9.93,-10.65 -43.5,-16.44 -50.1,43.46 -453.36,611.77 -483.37,641.06 135.23,9.55 290.38,-167.13 340.56,-231.15 56.26,-71.76 127.88,-186.64 190.24,-242.15 27.66,-24.63 51.84,-33.99 73.91,-75.15 -15.82,-30.59 -17.18,-13.84 -28.61,-47.25 32.24,-34.84 15.06,-24.12 45.53,-35.96 74.32,-28.87 49.36,-22.34 136.01,-139.73 74.36,-100.73 148.72,-155.61 80.2,-214.33 -51.97,-44.54 -79.77,-16.04 -106.9,22.27 -58.15,82.09 -165.7,179.58 -176.61,276.05 -3.62,32.06 -13.62,38.63 -27.46,62.78z"/>
   <path class="fil0" d="M800.41 1117.71c-40.38,11.78 -100.85,31.09 -117.32,68.7 26.02,38.23 19.88,-0.34 49.28,22.13 -27.21,69.31 7.32,140.85 -9.38,206.63 -7.74,30.52 -20.87,48.89 -28.24,83.13 -20.48,95.11 12.67,76.85 21.49,79.77 41.52,-30.82 0.44,-58.02 36.82,-100.57 54.07,95.61 14.87,138.54 86.52,144.52 10.89,-52.2 -50.02,-161.18 -57.61,-230.92 50.75,22.7 101.54,107.39 176.77,95.77 -3.04,-67.13 -0.92,-17.44 -99.19,-92.77 -96.47,-73.94 -130.7,-148.41 -42.18,-234.18 33.72,-32.67 47.74,-115.59 18.52,-155.72 -48.96,8.74 -32.37,57.88 -35.48,113.52z"/>
  </g>
  <g>
   <path class="fil1 str0" d="M332.1 10.42l1497.68 0c176.93,0 321.68,144.76 321.68,321.68l0 1537.54c0,176.93 -144.76,321.68 -321.68,321.68l-1497.68 0c-176.93,0 -321.68,-144.76 -321.68,-321.68l0 -1537.54c0,-176.93 144.76,-321.68 321.68,-321.68z"/>
  </g>
 </g>
</svg>
