<?xml version="1.0" encoding="UTF-8"?>
<!DOCTYPE svg PUBLIC "-//W3C//DTD SVG 1.1//EN" "http://www.w3.org/Graphics/SVG/1.1/DTD/svg11.dtd">
<!-- Creator: CorelDRAW -->
<svg xmlns="http://www.w3.org/2000/svg" xml:space="preserve" width="2.16188in" height="2.20173in" version="1.1" style="shape-rendering:geometricPrecision; text-rendering:geometricPrecision; image-rendering:optimizeQuality; fill-rule:evenodd; clip-rule:evenodd"
viewBox="0 0 2161.88 2201.74"
 xmlns:xlink="http://www.w3.org/1999/xlink"
 xmlns:xodm="http://www.corel.com/coreldraw/odm/2003">
 <defs>
  <style type="text/css">
   <![CDATA[
    .str0 {stroke:#856443;stroke-width:20.83;stroke-miterlimit:2.61313}
    .fil1 {fill:none}
    .fil0 {fill:#856443}
   ]]>
  </style>
 </defs>
 <g id="Layer_x0020_1">
  <metadata id="CorelCorpID_0Corel-Layer"/>
  <g id="_1338882328816">
   <path class="fil0" d="M713.93 1104l-0.28 -18.3c34.66,-18.74 68.66,8.45 116.37,-40.39 20.28,-20.75 47.07,-66.06 55.09,-104.8 -90.04,-23.56 -153.06,-112.21 -156.91,-202.59 -2.76,-64.77 27.8,-85.4 -15.67,-89.45l-77.56 89.34c-3.74,30.25 88.72,35.89 68.65,193.55 -23.07,181.19 -143.69,221.84 -33.96,536 13.58,38.9 25.29,45.27 98.31,37.93 24.24,-33.39 49.94,-147.5 74.03,-146.94 18.33,0.43 29.76,82.67 36.09,111.26 8.95,40.42 17.23,83.36 27.86,123.91 8.96,-21.12 12.34,-72.3 31.91,-82.94 12.28,-10.27 133.56,-5.22 155.43,-2.49 13.45,35.12 -19.03,27.73 -48.68,27.62 -30.47,-0.11 -60.96,0 -91.44,-0.02 -4.74,24.32 -30.9,118.96 -39.71,133.69l-17.78 0.17c-11.04,-19.45 -50.36,-207.35 -57.58,-245.94 -11.12,13.17 -18.37,37.56 -26.07,55.73 -4.08,9.63 -7.66,17.53 -11.56,27.38 -8.47,21.43 -6.24,22.58 -17.02,27.14 -11.19,4.73 -107.42,-15.35 -45.68,71.87 40.72,57.53 105.5,118.57 158.87,164.46l92.89 70.82c87.35,58.44 270.91,121.01 382.58,89.22 34.82,-9.91 92.52,-40.64 101.33,-62.18 -196.75,3.71 -177.98,14.07 -177.98,-109.39 0,-42.52 -12.6,-103.3 33.94,-107.97 37,-3.72 115.79,6 145.9,-2.87 10.73,-92.14 -23.48,-173.14 36.81,-178.24 68.06,-5.75 66.76,-20.64 56.67,-158.84 -12.59,-172.59 -67.5,-353.17 -212.46,-440.42 -22.86,-13.76 -47.36,-24.72 -76.03,-32.94 -39.96,-11.45 -54.64,-1.11 -72.38,24.75 -62.23,90.72 -62.76,209.61 -43.48,317.48 4.02,22.5 5.59,33.26 -18.79,32.9 -29.91,-36.32 -50.01,-311.91 78.45,-412.05 30.36,-23.67 44.03,-29.69 86.33,-46.2 75.89,-29.61 59.74,-64.33 12.34,-169.9 -18.56,-41.33 -53.97,-32.64 -91.2,-18.09 -326.98,127.78 -270.87,310.58 -345.57,449.29 -15.44,28.66 -37.85,56.3 -61.39,71.13 -25.11,15.82 -81.06,33.03 -110.69,17.31zm450.13 146.94c-16.03,16.68 53.51,95.44 72.8,76.35 15.13,-14.98 -19.63,-36.93 -27.37,-45.25 -7.24,-7.78 -11.28,-12.97 -17.44,-21.44 -7.26,-9.96 -16.13,-22 -27.98,-9.66z"/>
   <path class="fil0" d="M1524.78 1500.7c-28.48,11.57 -19.43,54.74 -19.21,109.91 0.24,60.69 -2,69.18 -63.48,68.88 -29.66,-0.14 -102.95,-11.77 -114.69,15.2 -4.98,11.44 -5.29,115.46 -0.24,128.19 10.48,26.43 78.57,16.09 111,15.9 55.73,-0.33 67.82,12.72 67.44,67.95 -0.22,31.12 -11.07,100.58 16.34,110.95 12.44,4.7 116.15,4.43 127.61,-0.9 27.38,-12.73 15.74,-83.83 15.6,-113.96 -0.3,-62.43 7,-64.19 69.11,-63.93 30.04,0.12 98.93,12 109.58,-17.02 4.06,-11.06 3.67,-116.12 0.04,-126.19 -9.66,-26.86 -81.39,-16.34 -113.55,-16.2 -57.18,0.24 -65.45,-7.6 -65.16,-64.93 0.16,-31.75 10.4,-103.87 -15.7,-113.78 -10.71,-4.06 -114.9,-4.04 -124.7,-0.06z"/>
   <path class="fil0" d="M875.65 482.27c-10.23,-0.89 -8.6,-1.48 -19.06,1.3 -33.42,8.89 -10.03,31.77 -7.15,60.2 2.61,25.73 -11.68,27.49 -26.79,42.19 -44.34,43.13 -54.05,-13.83 -95.09,-15.65l-17.44 26.79c12.67,31.28 58.96,29.64 57.15,66.2 -2.25,45.41 -34.35,108.28 38.97,196.11 10.74,12.86 52.91,49.71 82.54,45.18 18.38,-8.4 22.72,-72.45 44.37,-122.39 26.78,-61.76 79.27,-122.21 131.82,-160.45 46.26,-33.66 -10.33,-47.72 -27.31,-64 -16.89,-16.19 -3.4,-47.34 -5.07,-73.49 -64.43,-35.56 -26.53,45.79 -70.93,52.83 -90.45,14.33 -58.6,-13.76 -86,-54.82z"/>
   <path class="fil0" d="M459.63 1500.83c-38.8,2.16 -117.84,-8.63 -143.06,8.34l-1.44 23.72c24.71,14.58 100.33,7.98 145.03,7.98 46.82,0 30.13,-34 50.65,-61.55 21.56,42.89 31.55,191.25 57.62,224.41 31.91,3.56 29.33,-15.92 48.73,-68.54 11.26,-30.53 21.63,-58.33 32.26,-88.65 20.18,-57.5 -21.07,-55.31 -32.89,-25.09 -10.35,26.47 -24.04,62.68 -32,88.84 -20.05,-27.48 -34.52,-191.69 -57.44,-225.5 -34.78,-5.75 -33.22,18.8 -43.09,47.02 -8.11,23.18 -15.85,45.98 -24.38,69.02z"/>
  </g>
  <g>
   <path class="fil1 str0" d="M332.1 10.42l1497.68 0c176.93,0 321.68,144.76 321.68,321.68l0 1537.54c0,176.93 -144.76,321.68 -321.68,321.68l-1497.68 0c-176.93,0 -321.68,-144.76 -321.68,-321.68l0 -1537.54c0,-176.93 144.76,-321.68 321.68,-321.68z"/>
  </g>
 </g>
</svg>
