<?xml version="1.0" encoding="UTF-8"?>
<!DOCTYPE svg PUBLIC "-//W3C//DTD SVG 1.1//EN" "http://www.w3.org/Graphics/SVG/1.1/DTD/svg11.dtd">
<!-- Creator: CorelDRAW -->
<svg xmlns="http://www.w3.org/2000/svg" xml:space="preserve" width="2.16188in" height="2.20173in" version="1.1" style="shape-rendering:geometricPrecision; text-rendering:geometricPrecision; image-rendering:optimizeQuality; fill-rule:evenodd; clip-rule:evenodd"
viewBox="0 0 2161.88 2201.74"
 xmlns:xlink="http://www.w3.org/1999/xlink"
 xmlns:xodm="http://www.corel.com/coreldraw/odm/2003">
 <defs>
  <style type="text/css">
   <![CDATA[
    .str0 {stroke:#856443;stroke-width:20.83;stroke-miterlimit:2.61313}
    .fil1 {fill:none}
    .fil0 {fill:#856443}
   ]]>
  </style>
 </defs>
 <g id="Layer_x0020_1">
  <metadata id="CorelCorpID_0Corel-Layer"/>
  <path class="fil0" d="M591.75 1510.33c-82.19,21.94 -54.75,183.6 -54.75,328.51 0,51.51 25.7,-11.25 27.38,63.88l82.13 0c-1.05,-47.19 -30.94,-123.34 -41.77,-177.24 -15.02,-74.76 -12.98,-129.28 -12.98,-215.15zm474.41 529.26l-25.86 0c-43.78,-5.61 -83.54,-39.3 -83.54,-91.25 0,-39.94 35.53,-114.19 49.39,-169.62 13.48,-53.93 90.34,-295.77 -31.13,-295.77 -129.65,0 -251.95,-54.74 -147.11,302.24 8.47,28.86 14.45,55.82 25.77,83.73 35.74,88.09 26.47,170.67 -79.41,170.67 -48.83,0 -72.04,-29.7 -87.74,-67.39 -35.74,-85.85 -85.65,-264.96 -85.65,-361.5 0,-218.41 31.26,-149.3 54.75,-237.26 68.33,18.24 51.73,73 155.13,73 28.56,0 90.9,-69.48 0.07,-136.95 -110.35,-81.96 -91.32,-107.46 -91.32,-200.69 -7.55,10.87 -1.27,-8.29 -12.41,24.1 -19.61,57.03 22.07,121.14 55.59,151.72 17.69,16.13 31.85,22.89 52.49,38.76 62.85,48.33 23.44,113.94 -13.56,113.94 -60,0 -93.11,-38.2 -153.1,-102.41 -90.6,-96.97 -82.28,-239.05 -3.61,-337.19 96.11,-119.91 115.11,-98.8 266.21,-98.8 43.85,0 47.41,27.37 91.25,27.37 108.99,0 94.09,-39.6 179.82,66.56 200.62,248.41 -105.39,444.46 -125.07,444.46 -30.09,0 -73,-3.61 -73,-45.63 0,-73.31 41.38,-63.49 84.82,-106.82 54.44,-54.3 82.29,-119.43 42.94,-176.07 0,101.56 13.02,102.52 -43.17,157.59 -47.66,46.7 -93.7,70.91 -93.7,97.93 0,106.37 72.2,101.02 144.69,44.31 19.42,-15.2 31.28,-28.57 56.06,-35.19 7.54,28.23 25.22,46.23 36.62,72.89 56.78,132.85 -19.99,411.63 -69.95,532.55 -15.53,37.57 -45.16,56.65 -76.28,60.71zm-63.77 -1122.41c115.02,0 194.35,-54.36 197.55,-165.28 4.63,-160.85 -224.12,-255.01 -324.37,-80.16 -0.95,1.66 -2.48,4.29 -3.34,5.79 -0.86,1.49 -2.67,4.56 -3.37,5.76 -0.7,1.2 -2.09,3.94 -3.36,5.76 15.73,-189.06 66.03,-150.37 228.13,-136.88 5.31,63.74 107.01,52.26 114.69,185.48 2.93,50.77 -4.67,-0.14 -4.5,44.63 0.21,54.26 -6.52,24.8 17.56,34.52 -1.96,1.24 -5.47,-0.1 -6.42,2.7l-75.71 79.42c29.5,55.74 37.2,45.63 118.63,45.63l-100.63 3.04c31.69,38.82 32.89,28.05 64.32,88.02 72.57,138.46 17.01,158.32 17.93,292.08 0.4,57.81 0.13,115.69 0.13,173.5 92.59,24.72 63.87,188.34 63.87,337.63 65.69,0 118.63,-19.79 118.63,-109.5l0 -793.9 -54.75 -9.13c194.21,0 398.88,-138.88 139.78,-349.65 -111.91,-91.04 -71.25,-24.48 -167.15,-24.48 -99.83,0 -137.41,-77.01 -154.15,-92.24 -17.14,-15.59 -439,-169.22 -439,210.87 0,119.9 17.68,146 82.13,146 21.94,0 26.82,-14.79 45.62,-27.38l9.13 -91.25c0,32.8 2.53,57.17 -4.91,87.5 -9.11,37.19 -19.13,19.06 5.5,56.94 21.11,32.48 69.37,74.56 118.04,74.56zm337.63 -374.13c200.35,0 235.56,-328.51 -9.12,-328.51 -209.67,0 -204.19,328.51 9.12,328.51zm-100.37 967.28c0,82.09 1.87,136.08 -11.53,207.48 -11.72,62.52 -34.1,105.09 -34.1,184.91l73 0c1.67,-75.13 27.37,-12.37 27.37,-63.88 0,-144.91 27.44,-306.56 -54.75,-328.51zm-118.63 -602.27c0,23.34 14.45,1.46 5.43,0 -0.11,-0.02 -5.43,-25.47 -5.43,0zm9.13 18.25l2.72 -2.72c-0.18,0.18 -3.63,1.81 -2.72,2.72zm-100.38 675.27c0,-119.93 18.3,-100.38 -191.63,-100.38 -86.24,0 -4.41,273.45 7.54,311.85 18.79,60.38 3.61,53.16 101.97,53.16 35.71,0 42.39,-61.37 56.72,-116.67 10.94,-42.25 25.41,-91.77 25.41,-147.96zm237.26 -666.15l91.25 0 0 9.13 -91.25 0 0 -9.13zm-36.5 -127.76c273.52,0 207.06,-37.44 237.26,-100.37 28.33,18.97 35.48,18.19 36.5,63.87 -41.77,9.73 -67.67,27.61 -119.92,35.21 -57.43,8.36 -87.68,10.42 -153.84,10.42l0 -9.13z"/>
  <g>
   <path class="fil1 str0" d="M332.1 10.42l1497.68 0c176.93,0 321.68,144.76 321.68,321.68l0 1537.54c0,176.93 -144.76,321.68 -321.68,321.68l-1497.68 0c-176.93,0 -321.68,-144.76 -321.68,-321.68l0 -1537.54c0,-176.93 144.76,-321.68 321.68,-321.68z"/>
  </g>
 </g>
</svg>
