<?xml version="1.0" encoding="UTF-8"?>
<!DOCTYPE svg PUBLIC "-//W3C//DTD SVG 1.1//EN" "http://www.w3.org/Graphics/SVG/1.1/DTD/svg11.dtd">
<!-- Creator: CorelDRAW -->
<svg xmlns="http://www.w3.org/2000/svg" xml:space="preserve" width="2.16188in" height="2.20173in" version="1.1" style="shape-rendering:geometricPrecision; text-rendering:geometricPrecision; image-rendering:optimizeQuality; fill-rule:evenodd; clip-rule:evenodd"
viewBox="0 0 2161.88 2201.74"
 xmlns:xlink="http://www.w3.org/1999/xlink"
 xmlns:xodm="http://www.corel.com/coreldraw/odm/2003">
 <defs>
  <style type="text/css">
   <![CDATA[
    .str0 {stroke:#856443;stroke-width:20.83;stroke-miterlimit:2.61313}
    .fil1 {fill:none}
    .fil0 {fill:#856443}
   ]]>
  </style>
 </defs>
 <g id="Layer_x0020_1">
  <metadata id="CorelCorpID_0Corel-Layer"/>
  <path class="fil0" d="M1410.38 393.16c-30.26,-49.99 -76.31,8.77 -164.42,21.44 -143.95,20.69 -43.2,-102.65 -89.78,-123.81 -17.28,-3.33 -79.74,6.5 -102.57,8.04 -188.17,12.71 -270.72,-48.17 -307.17,-45.03 -14.24,23.69 -7.14,75.57 -6.9,104.61 0.28,33.18 -7.99,66.83 -12.55,98.67 -12.43,86.81 10.63,121.4 82.8,141.5 66.5,18.52 233.53,34.84 306.07,17.6 48.66,-11.57 24.4,-35.85 35.87,-79.34 18.16,-68.88 111.41,-64.56 131.91,-14.69 15.73,38.28 -12.5,65.87 52.41,60.31 92.8,-7.94 138.83,39.65 140.45,2.5 0.61,-14.12 -16.74,-21.7 -28.15,-28.42 -46.01,-27.13 -145.14,-47.17 -96.61,-105.9 14.29,-17.31 52.23,-33.99 58.65,-57.48zm-136.03 991.71c22.66,-1.44 35.2,-9.23 61.77,-7.82 20.69,1.1 45.83,7.52 62.2,-0.32 7.85,-16.55 3.05,-19.71 -6.57,-31.87l-12.73 -3.96c-49.83,-17.41 -98.64,-23.45 -96.09,-64.9 2.69,-43.69 75.67,-52.85 42.82,-97.04 -32.09,-5.72 -102.13,44.15 -153.04,52.38 -113.69,18.37 -42.99,-84.21 -80.7,-112.8 -14.32,-7.46 -77.7,8.72 -99.75,12.52 -183.29,31.64 -246.01,-22.56 -302.67,-16.8 -11.76,39.2 4.88,95.46 3.59,137.15 -1.38,44.64 -12.59,88.19 2.81,130.65 27.25,75.07 137.65,67 221.38,66.87 242.21,-0.37 174.76,-40.28 187.17,-97.48 7.96,-36.67 45.2,-63.66 89.71,-52.5 60.34,15.12 33.39,71.96 58.59,83.11l21.48 2.82zm-274.12 -317.68c-15.41,-7.36 -36.08,2.87 -58.27,4.47 -73.67,5.3 -136.71,-27.92 -153.76,-24.07 -13.65,3.09 -15.58,16.1 -5.7,24.3 8.63,7.16 96.62,25.15 112.03,26.8 24.71,2.64 117.27,9.98 105.71,-31.5zm-165.11 841.53c-8.37,30.47 15.96,23.85 40.61,25.61 23.87,1.7 45.72,3 69.69,1.07 139.02,-11.18 132.43,-71.21 76.38,-45.78 -16.36,7.42 -34.22,12.51 -54.37,15.52 -31.18,4.66 -114.29,-5.01 -132.32,3.58zm-43.89 -417.16l-0.05 18.58c37.81,17.43 217.47,17.37 224.04,-22.2 5.96,-35.88 -31.21,1.67 -94.2,4.81 -36.73,1.83 -102.9,-10.78 -129.79,-1.19zm248.19 -837.4c-27.13,-12.38 -40.62,13.1 -121.68,0.09 -17.26,-2.77 -120.69,-40.65 -102.72,-1.99 6.56,14.11 91.54,29.27 111.94,31.8 22.05,2.74 46.22,2.55 68.52,0.55 25.76,-2.31 45.13,-2.77 43.93,-30.44zm-330.25 884.33c-6.04,29.86 1.17,61.07 5.91,89.64 16.49,99.58 -21.92,198.61 76.96,227 66.03,18.95 310.52,6.08 347.26,-38.46 9.09,-18.91 -26.41,-90.22 39.57,-118.77 22.02,-9.53 47.2,-8.41 67.26,2.72 23.59,13.09 20.19,26.23 28.56,55.41 8.28,28.88 33.17,16.14 56.75,10.74 28.66,-6.57 48.8,-4.49 78.07,-3.71 37.69,0.99 40.57,-24.1 12.28,-35.57 -50.06,-20.29 -103.15,-18.07 -109.69,-54.66 -8.35,-46.74 80.84,-83.87 37.32,-106.86 -31.98,-16.89 -100.72,65.79 -180.98,63.72 -26.32,-0.68 -41.96,-17.03 -43.04,-43.07 -1.99,-48.41 7.91,-28.26 -12.32,-69.87 -22.77,-1.13 -72.03,13.47 -96.13,19.08 -196,45.63 -202,-4.61 -307.78,2.67zm693.61 -544.63c13.58,-44.49 -73.79,-48.06 -104.28,-74.65 -23.99,-20.93 -11.27,-49.65 5.56,-66.07 14.63,-14.28 43.71,-25.37 37.17,-52.61 -15.69,-25.24 -50.89,-4.8 -74.27,5.03 -34.75,14.61 -140.56,55.91 -155.1,-6.4 -8.06,-34.57 21.21,-47.82 -6.02,-88.15 -30.56,-3.51 -70.5,6.58 -101.28,9.46 -182.15,17.08 -242.95,-37.88 -301.09,-39.44 -10.44,53.72 0.41,102.87 -6.44,158.19 -6.18,49.91 -22.22,97.52 8.58,138.96 45.15,60.72 276.38,64.21 355.42,50.57 34.02,-5.87 37.54,-10.43 37.92,-45.96 1.19,-112.59 111.42,-98.61 133.61,-49.95 11.93,26.16 -8.31,56.65 23.54,59.74 21.82,2.12 42.82,-7.39 74.93,-3.83 22.91,2.54 51.36,11.7 71.74,5.11z"/>
  <g>
   <path class="fil1 str0" d="M332.1 10.42l1497.68 0c176.93,0 321.68,144.76 321.68,321.68l0 1537.54c0,176.93 -144.76,321.68 -321.68,321.68l-1497.68 0c-176.93,0 -321.68,-144.76 -321.68,-321.68l0 -1537.54c0,-176.93 144.76,-321.68 321.68,-321.68z"/>
  </g>
 </g>
</svg>
