<?xml version="1.0" encoding="UTF-8"?>
<!DOCTYPE svg PUBLIC "-//W3C//DTD SVG 1.1//EN" "http://www.w3.org/Graphics/SVG/1.1/DTD/svg11.dtd">
<!-- Creator: CorelDRAW -->
<svg xmlns="http://www.w3.org/2000/svg" xml:space="preserve" width="2.16188in" height="2.20173in" version="1.1" style="shape-rendering:geometricPrecision; text-rendering:geometricPrecision; image-rendering:optimizeQuality; fill-rule:evenodd; clip-rule:evenodd"
viewBox="0 0 2161.88 2201.74"
 xmlns:xlink="http://www.w3.org/1999/xlink"
 xmlns:xodm="http://www.corel.com/coreldraw/odm/2003">
 <defs>
  <style type="text/css">
   <![CDATA[
    .str0 {stroke:#856443;stroke-width:20.83;stroke-miterlimit:2.61313}
    .fil1 {fill:none}
    .fil0 {fill:#856443}
   ]]>
  </style>
 </defs>
 <g id="Layer_x0020_1">
  <metadata id="CorelCorpID_0Corel-Layer"/>
  <path class="fil0" d="M1464.55 1172.86c34.85,-169.73 -141.87,-111.94 -245.71,-85.05 -601.67,155.82 -546.03,-118.25 -381.54,-91.82 47.46,7.62 102.33,32.69 153.97,43.8 144,30.99 414.15,13.75 487.87,-78.73 81.91,-102.76 -27.5,-196.62 -171.98,-141 -103.53,39.86 -197.01,66.87 -325.45,68.12 -108.43,1.05 -250.17,-9.67 -276.93,-115.68 75.13,13.42 50.38,-21.09 123.4,2.42 62.43,20.1 74.7,3.79 116.39,-15.9 50.62,-23.9 121.83,51.54 210.96,-32.83 120.42,53.15 127.05,-28.38 175.11,-38.51 91.08,-19.19 113.95,14.71 187.85,-47.88 -30.09,103.63 -35.08,92.22 31,163.97 -17.53,62.25 -52.28,27.19 -13.5,173.88 -55.05,60.76 -64.59,84.94 -56.28,189.65 9.77,20.38 21.93,41.73 30.7,57.11 -73.67,35.65 -51.22,85.66 -72.89,161.21 -32.62,-16.43 -57.96,-52.59 -100.27,-75.9 -127.83,-70.41 -295.2,-103.65 -386.21,24.61 -39.96,56.32 -22.12,81.46 0.05,133.11 29.14,67.91 -82.71,71.72 7.44,292.1 11.45,28 27.52,38.73 20.28,68.15 -9.98,40.57 -35.06,25.44 -22.96,60.64 53.9,28.46 181.94,13.19 242.67,1.84 -13.72,-54.2 -49.78,-29.12 -33.02,-86.8 6.96,-23.93 30.25,-49.06 40.27,-79.8 25.87,-79.37 -0.57,-135.64 -23.69,-198.92 63.31,61.68 223.98,187.97 336.24,132.06 58.67,-29.22 36.41,-56.62 72.77,-102.1 32.67,-22.82 76.61,31.24 148.29,-111.57 63.54,-126.59 34.34,-149.08 -2,-204.58 12.3,-39.31 36.4,-63.39 45.42,-107.26 11.88,-57.76 -15.49,-76.46 -22.42,-118.52 -6.68,-40.52 38.96,-41.49 38.07,-106.16 -0.71,-51.56 -33.2,-66.59 -52.95,-102.75 10.34,-41.65 29.32,-45.92 31.44,-103.59 2.04,-55.46 -21.46,-70.52 -18.57,-106.82 9.07,-113.56 -111.89,-280 -281.17,-139.07 -42.92,35.74 -124.41,-34.96 -184.99,61.15 -97.67,-19.07 -119.2,-26.35 -184.11,33.85 -45.24,-11.28 -74.36,-17.13 -119.97,8.8 -34.94,19.86 -10.28,20.97 -48.68,4.63 -90.13,-38.36 -107.77,4.59 -137.17,-0.57 -18.59,-3.26 -20.28,-17.52 -49.78,-26.72 -65.37,-20.38 -104.19,12.46 -135.04,12.02 -30.43,-0.43 -59.15,-42.75 -121.97,-24.39 -67.1,19.61 -94.1,85.59 -80.64,160.53 11.38,63.33 5.07,11.96 -9.12,59.05 -19.98,66.25 17.16,96.06 37.05,123.91 -73.54,42.19 -72.3,113.31 -20.13,174.32 -35.64,24.1 -81.63,58.62 -46.99,131.12l34.63 49.14c-33.48,7.59 -40.81,12.54 -42.09,57.4 -0.84,29.76 7.24,65.87 15.02,92.25 47.03,159.34 160.19,74.19 195.13,75.55 22.59,0.88 54.59,28.99 61.52,48.51 24.45,68.8 -65.22,90.13 -37.71,161.63 26.37,-10.01 72.14,-60.52 81.99,-90.92 18.82,-58.09 -16.75,-105.45 -36.82,-137.41 41.37,-35.18 24.48,-32.7 41.87,-84.71 177.99,21.3 283,-164.59 591.91,-127.04 34.57,4.2 72.7,12.48 109.37,4.86 41.7,-8.67 51.44,-32.2 74.03,-48.41zm-774.99 -147c-8.89,17.92 0.3,98.7 -0.71,133.57l-6.56 111.22c-6.11,18.67 -2.46,13.16 -15.65,21.97 107.08,2.7 93.28,19.54 190.98,-28.53 134.32,-66.08 223.84,-99.35 385.11,-90.64 83.6,4.52 158.49,37.61 186.84,-37.73 -32.09,-74.11 -118.34,-29.11 -183.84,-11.51 -64.74,17.4 -138.91,30.42 -212.86,39.79 -156.76,19.86 -347.54,46.64 -343.32,-138.14 68.63,-140.56 232.23,-32.04 369.71,-14.99 116.33,14.43 365.6,-6.44 398.77,-94.79 21.13,-56.26 -33.55,-93.82 -145.35,-50.35 -178.23,69.3 -498.54,111.66 -614.54,-14.41l-8.59 174.54z"/>
  <g>
   <path class="fil1 str0" d="M332.1 10.42l1497.68 0c176.93,0 321.68,144.76 321.68,321.68l0 1537.54c0,176.93 -144.76,321.68 -321.68,321.68l-1497.68 0c-176.93,0 -321.68,-144.76 -321.68,-321.68l0 -1537.54c0,-176.93 144.76,-321.68 321.68,-321.68z"/>
  </g>
 </g>
</svg>
