<?xml version="1.0" encoding="UTF-8"?>
<!DOCTYPE svg PUBLIC "-//W3C//DTD SVG 1.1//EN" "http://www.w3.org/Graphics/SVG/1.1/DTD/svg11.dtd">
<!-- Creator: CorelDRAW -->
<svg xmlns="http://www.w3.org/2000/svg" xml:space="preserve" width="2.16188in" height="2.20173in" version="1.1" style="shape-rendering:geometricPrecision; text-rendering:geometricPrecision; image-rendering:optimizeQuality; fill-rule:evenodd; clip-rule:evenodd"
viewBox="0 0 2161.88 2201.74"
 xmlns:xlink="http://www.w3.org/1999/xlink"
 xmlns:xodm="http://www.corel.com/coreldraw/odm/2003">
 <defs>
  <style type="text/css">
   <![CDATA[
    .str0 {stroke:#856443;stroke-width:20.83;stroke-miterlimit:2.61313}
    .fil1 {fill:none}
    .fil0 {fill:#856443}
   ]]>
  </style>
 </defs>
 <g id="Layer_x0020_1">
  <metadata id="CorelCorpID_0Corel-Layer"/>
  <g id="_1338224294528">
   <path class="fil0" d="M475.76 1192.21l0 47.93c20.18,46.79 12.11,129.66 114.96,174.11 63.16,27.3 36.24,82.67 154.5,231.36 41.35,52 111.66,115.27 199.66,142 93.27,28.33 210.88,3.78 268.39,-48.93l-35.89 -35.78c-179.68,136.44 -365.36,-30.44 -436.92,-142.29 -19.4,-30.32 -43.05,-70.77 -59.26,-108.06 -41.46,-95.32 -15.8,-41.5 -84.94,-88.96 -93.57,-64.23 -88.08,-213.29 -36.8,-241.31 32.07,48.3 42.22,95.52 81.79,141.2l2.3 -190.28c163.61,-68.09 356.57,-56.96 481.89,-207.73 46.11,-55.47 45.91,-87.54 69.31,-160.04 27.5,76.73 36.26,131.84 78.25,200.27 34.57,56.35 83.15,105.95 147.74,135.43l0.13 239.36c1.37,-1.15 3.39,-4.74 4.02,-3.56l21.78 -26c19.27,-29.94 50.23,-96.3 65.63,-109.18 102.25,110.32 -70.18,219.68 -82.12,234.38 -9.66,11.88 -38.4,73.51 -41.51,89.91l26.76 24.06c29.93,-22.41 34.4,-68.51 62.29,-92.14 62.9,-53.3 125.03,-113.11 112.34,-209.9 -6.99,-53.37 -33.09,-70.59 -63.35,-96.87 4.28,-82.77 31.22,-94.74 -11.04,-235.01 -21.23,-70.46 -48.67,-136.78 -85.75,-191.19 -161.4,-236.81 -605.24,-228.49 -778.88,-29.3 -43.31,49.69 -76.19,100.46 -94.59,182.42 -21.25,94.67 -9.27,159.29 -10.77,253.77 -71.21,46.33 -54.4,82.73 -69.89,120.31z"/>
   <path class="fil0" d="M1520.91 1986.09l26.89 0c55.12,-46 93.26,-81.6 138.31,-140.28l0 -27.26c-29.1,-43.52 -39.24,-44.04 -88.09,-27.63l-60.74 -62.35c14.04,-28.39 33.01,-26.43 34.07,-58.3 -19.12,4.3 -21.05,9.89 -31.64,18.69 -31.51,-20.22 -101.88,-98.61 -133.96,-130.7 -69.4,-69.41 -83.23,-91.02 -165.8,-43.08 -42.84,-38.47 -57.2,-80.89 -81.43,-57.36 -20.06,19.47 14.67,43.36 56.11,84.04 -16.11,24.78 -42.61,56.08 -15.31,100.34 21.91,35.52 163.77,152.49 190.02,198.05 -17,18.22 -21.35,9.79 -14.83,32.54 30.91,4.09 7.79,-13.96 54.35,-35.25l62.59 64.85c-21.09,45.85 1.39,64.96 29.47,83.69zm-69.85 -167.91l59.02 62.9 70.06 -66.74 -61.28 -64.86 -67.8 68.7zm-38.92 1.87l106.7 -109.15 -31.11 -37.8c-28.33,19.04 -45.81,56.38 -78.45,56.09 3.74,-24.11 39.33,-52.8 59.37,-68.58l-20.23 -27.61c-28.32,14.69 -38.13,54.4 -78.02,57.19 0.39,-38.73 38.06,-54.26 55.93,-77.51l-21.22 -21.93c-27.03,24.91 -57.76,67.94 -72.29,52.83 -12.26,-19.47 36.41,-53.54 51.76,-69.54l-19.8 -23.87c-22.48,19.59 -39.46,56.49 -77.83,56.42 3.73,-35.63 41.33,-46.97 56.5,-77.61 -40.06,-43.86 -74.78,-5.85 -100.94,19.93 -14.63,14.42 -32.41,23.28 -33.51,51 -1.15,28.77 14.73,42.17 28.44,55.87 27.21,27.2 137.95,147.57 174.7,164.27z"/>
   <path class="fil0" d="M1065.68 267.14l-66.35 0c-23.87,11.39 -58.31,16.6 -82.45,29.26 -95.91,50.27 -179.74,194.84 -119.64,193.75l41.59 -14.35c103.87,-44.06 233.62,-54.41 342.41,-19.4 41.8,13.45 70.59,47.56 109.49,20.54 22.34,-33.47 -43.81,-112.83 -74.68,-138.65 -69.41,-58.07 -109.84,-51.25 -150.37,-71.14z"/>
   <path class="fil0" d="M1547.8 1986.09l138.31 0 0 -140.28c-45.05,58.68 -83.19,94.28 -138.31,140.28z"/>
   <path class="fil0" d="M1171.07 1194.07c-12.87,21.11 -31.11,91.39 15.65,55.59 21.85,-16.73 -5.02,-17.93 35.85,-13.35 15.26,28.31 -10.09,24.6 19.31,39.38 28.89,-11.39 8.01,-9.54 19.31,-39.38 39.02,-4.58 12.41,-4.16 32.28,10.13 35.9,25.81 26.6,14.84 33.53,5.25 6.02,-19.57 -2.62,-14.65 -6.85,-28.82 -7.57,-25.37 12.47,-9.33 -10.14,-32.04 -21.54,2.62 -34.15,13.81 -62.16,15.41 -39.5,2.24 -44.74,-12.15 -76.78,-12.16z"/>
   <path class="fil0" d="M802.14 1236.39c19.37,23.92 -8,17.03 21.28,37.33 24.42,-12.65 7.76,-19.74 25.75,-38.72 39.69,-0.35 35,44.41 58.55,19.06 16.96,-18.25 1.28,-10.83 -3.52,-29.5 -3.99,-15.5 0.57,-13.47 -2.4,-31.28 -36.49,-0.69 -35.56,11.94 -72.1,13.54 -31.64,1.38 -49.93,-11.81 -77.11,-13.85l-3.78 10.3c-9,29.46 -17.61,44.67 -4.8,51.74 35.72,19.71 5.17,-24.55 58.11,-18.63z"/>
   <path class="fil0" d="M1229.58 1089.12c-74.97,16.73 -88.12,52.42 -53.77,52.99 24.59,0.41 47.59,-39.64 113.78,-21.46 19.82,5.44 35.82,22.22 50.36,22.28 59.88,0.24 -20.94,-73.78 -110.37,-53.82z"/>
   <path class="fil0" d="M714.97 1141.63c40.22,2.91 44.4,-25.73 95.52,-25.33 48.63,0.38 62.17,28.27 95.19,24.98 3.55,-27.04 -5.57,-31.43 -31.79,-42.49 -43.37,-18.3 -83.39,-18.46 -127,-0.26 -26.18,10.93 -35.5,16.25 -31.91,43.1z"/>
   <path class="fil0" d="M837.52 1516.77c-0.08,0.08 -25.67,1.16 7.34,35.63 37.04,38.65 60.94,12.11 30.48,-24.03 -10.67,-12.67 -20.95,-28.2 -37.82,-11.59z"/>
   <path class="fil0" d="M968.01 1641.4c1.01,-2.11 10.87,3.72 3.5,-20.73 -3.62,-12.01 -38.35,-41.56 -52.98,-28.12 -25.46,23.42 24.2,55.67 49.47,48.85z"/>
   <path class="fil0" d="M812.95 1479.9c14.27,-29.58 -8.19,-59.98 -41.67,-60.45 -9.45,28.86 10.78,70.35 41.67,60.45z"/>
  </g>
  <g>
   <path class="fil1 str0" d="M332.1 10.42l1497.68 0c176.93,0 321.68,144.76 321.68,321.68l0 1537.54c0,176.93 -144.76,321.68 -321.68,321.68l-1497.68 0c-176.93,0 -321.68,-144.76 -321.68,-321.68l0 -1537.54c0,-176.93 144.76,-321.68 321.68,-321.68z"/>
  </g>
 </g>
</svg>
