<?xml version="1.0" encoding="UTF-8"?>
<!DOCTYPE svg PUBLIC "-//W3C//DTD SVG 1.1//EN" "http://www.w3.org/Graphics/SVG/1.1/DTD/svg11.dtd">
<!-- Creator: CorelDRAW -->
<svg xmlns="http://www.w3.org/2000/svg" xml:space="preserve" width="2.16188in" height="2.20173in" version="1.1" style="shape-rendering:geometricPrecision; text-rendering:geometricPrecision; image-rendering:optimizeQuality; fill-rule:evenodd; clip-rule:evenodd"
viewBox="0 0 2161.88 2201.74"
 xmlns:xlink="http://www.w3.org/1999/xlink"
 xmlns:xodm="http://www.corel.com/coreldraw/odm/2003">
 <defs>
  <style type="text/css">
   <![CDATA[
    .str0 {stroke:#856443;stroke-width:20.83;stroke-miterlimit:2.61313}
    .fil1 {fill:none}
    .fil0 {fill:#856443}
   ]]>
  </style>
 </defs>
 <g id="Layer_x0020_1">
  <metadata id="CorelCorpID_0Corel-Layer"/>
  <path class="fil0" d="M1297.75 605.62c-36.29,15.72 -81.79,-18.6 -83.35,41.21 -0.41,15.8 0.66,33.09 4.33,45.5 30.72,16.95 87.85,-0.9 120.7,11.07 9.79,35.78 -27.49,23.94 -88.14,24.18 -29.38,0.11 -26.36,3.51 -31.99,12.37 -15.8,24.63 3.66,69.13 16.93,86.4 23.64,30.74 32.95,27.03 65.8,45.15 -0.56,92.32 -14.46,162.52 42.85,137.26 9.64,-30.36 3.02,-99.31 5.13,-137.67 32.31,-20.66 38.76,-11.41 63.34,-42.14 20.6,-25.76 22.65,-47.12 22.57,-85.85 -0.07,-28.65 3.14,-82.35 -0.38,-107.98 -5.78,-42 -53.99,-15.54 -83.98,-28.8 -10.51,-23.44 -4.95,-71.19 3.24,-87.66 18.89,-6.23 154.37,-9.52 167.8,0.83 15.55,12.22 8.38,133.78 8.38,159.58l0 512.02c0,111.67 41.24,91.97 -247.43,91.97 -113.07,0 -226.92,-1.31 -339.89,0.16l-0.3 -148.4c233.32,-10.86 188.67,68 190.14,-283.74 0.39,-92.29 -7.3,-68.19 -221.97,-68.19 -244.8,0 -212.59,-40.32 -212.59,168.19 0,230.69 -27.46,178.42 197,183.49l-0.22 148.65c-59.09,-0.84 -54.93,-10.77 -99.51,-32.83l-260.86 -139.36c-38.03,-20.05 -67.31,6.02 -73.35,42.19 -8.07,48.35 15.36,67.18 46.96,84.46 58.72,32.1 116.85,61.83 174.79,93.22 28.93,15.67 55.45,30.24 85.8,46.21 51.15,26.91 42.65,22.85 109.98,22.84 113.24,-0.01 783.01,5.93 799.48,-4.63 15.76,-10.11 11.16,-19.02 11.08,-52.2 -0.05,-20.79 5.52,-45.32 -9.94,-56.69 -25.73,-11.67 -70.26,3.22 -96.89,-10.67 -9.69,-27.98 -9.37,-734.12 -0.36,-757.06 26.49,-9.98 83.46,3.76 94.69,-14.22 27.34,-43.79 -42.13,-37.78 -66.35,-37.79 -50.85,-0.04 -27.67,-33.26 -32.82,-75.31 -4.07,-33.24 -46.52,-33.19 -47.63,11.38 -1.29,51.32 13.88,64.44 -43.11,63.8 -36.03,-0.4 -72.08,-0.07 -108.12,-0.13 -35.47,-0.06 -70.97,-4.69 -78.23,30.11 -6.33,30.35 4.08,77.05 -3.57,109.08zm9.15 542.65c36.82,17.78 42.52,-3.68 42.52,-41.17l0 -12c0,-71.2 -74.56,-38.33 -42.52,53.17zm293.61 505.71c-50.13,7.35 -89.59,49.7 -82.56,107.49 15.25,125.34 212.31,102.83 190.38,-30.22 -7.73,-46.9 -54.02,-85.16 -107.82,-77.27zm-1052.98 3.75c-124,37.48 -67.09,221.58 54.81,184.39 42.64,-13.01 80.21,-59.24 64.56,-118.19 -11.82,-44.54 -61.07,-83.82 -119.37,-66.2zm-236.35 -562.62c0,111.84 -4.88,369.26 3.09,465.19 44.64,21.59 202.55,-6.46 230.52,13.27 12.28,17.15 0.02,28.08 9.56,50.73 69.64,11.1 29.04,-24.86 49.04,-49.17 11.74,-14.27 124.74,-7.29 152.13,-7.33l796.03 -0.92c54.07,0 32.48,14.43 39.69,56.32l43.87 0.67c11.44,-69.29 -29.42,-56.98 144.45,-56.98 82.16,0 96.63,10.57 96.63,-43.75 0,-88.85 5.01,-390.43 -3.78,-456.37 -18.54,-7.39 -51.27,-7.14 -68.39,0.76 -20.27,47.76 10.98,307.53 -8.9,359.2 -44.65,7.7 -121.03,3.35 -167.63,3.37l-1103.98 0.88c-44.04,0.03 -88.38,2.44 -132.12,-3 -11.09,-37.25 2.15,-330.75 -4.97,-351.79 -6.09,-17.99 -30.91,-14.33 -47.21,-13.41 -24.69,1.41 -28.03,7.98 -28.03,32.35zm525.99 -139.69c-29.19,1.71 -66.87,-3.06 -89.48,3.67 -7.87,28.85 9.89,25.46 35.73,25.21 24.26,-0.23 48.64,0.76 72.79,-1.49l30.38 -78.92c18.46,29.85 24.7,146.16 44.94,166.63 24.07,1.87 22.59,-14.1 30.7,-36.9 5.33,-14.98 11.13,-35.24 18.24,-49.05 29.74,-1.24 126.08,10.93 104.38,-22.04 -7.38,-11.21 -71.12,-6.81 -93.32,-6.81 -53.85,0 -26.97,12.04 -50.76,47.36 -10.01,-44.17 -25.95,-136.2 -40.13,-168.29l-18.33 -0.16 -45.15 120.79z"/>
  <g>
   <path class="fil1 str0" d="M332.1 10.42l1497.68 0c176.93,0 321.68,144.76 321.68,321.68l0 1537.54c0,176.93 -144.76,321.68 -321.68,321.68l-1497.68 0c-176.93,0 -321.68,-144.76 -321.68,-321.68l0 -1537.54c0,-176.93 144.76,-321.68 321.68,-321.68z"/>
  </g>
 </g>
</svg>
