<?xml version="1.0" encoding="UTF-8"?>
<!DOCTYPE svg PUBLIC "-//W3C//DTD SVG 1.1//EN" "http://www.w3.org/Graphics/SVG/1.1/DTD/svg11.dtd">
<!-- Creator: CorelDRAW -->
<svg xmlns="http://www.w3.org/2000/svg" xml:space="preserve" width="1.27738in" height="1.10495in" version="1.1" style="shape-rendering:geometricPrecision; text-rendering:geometricPrecision; image-rendering:optimizeQuality; fill-rule:evenodd; clip-rule:evenodd"
viewBox="0 0 1132.45 979.59"
 xmlns:xlink="http://www.w3.org/1999/xlink"
 xmlns:xodm="http://www.corel.com/coreldraw/odm/2003">
 <defs>
  <style type="text/css">
   <![CDATA[
    .fil2 {fill:#00ABD6}
    .fil1 {fill:#49CDEB}
    .fil0 {fill:#95E6FE}
   ]]>
  </style>
 </defs>
 <g id="Layer_x0020_1">
  <metadata id="CorelCorpID_0Corel-Layer"/>
  <g id="_1338810360048">
   <path class="fil0" d="M394.69 284.69l-0.27 6.11 168.14 688.79 9.35 -0.57c42.04,-177.88 86.8,-353.16 129.97,-530.04 10.99,-45.02 21.67,-88.4 32.75,-132.7 9.27,-37.1 5.31,-32.99 -11.68,-60.26l-148.46 -243.57c-6.22,-6.94 -1.26,-5.17 -10.02,-4.91 -29.73,46.5 -56.34,92.42 -85.68,139.19 -14.92,23.79 -27.27,44.73 -42.36,69.06 -12.05,19.44 -32.14,48.87 -41.75,68.9z"/>
   <path class="fil1" d="M571.91 979.02c12.22,-1.65 6.59,0.82 8.22,-5.13l368.09 -684.4 184.17 -0.74c-14.16,-8.21 -173.5,-3.04 -191.12,-2.22 -58.83,2.75 -138.28,2.64 -197.12,-0.15 6.78,-15.87 79.92,-117.58 96.2,-141.21l96.68 -140.35c-15.26,-7.77 -327.84,-3.71 -372.26,-3.02l-0.29 5.74c8.76,-0.26 3.79,-2.03 10.02,4.91l148.46 243.57c16.99,27.27 20.95,23.16 11.68,60.26 -11.07,44.31 -21.76,87.68 -32.75,132.7 -43.17,176.87 -87.92,352.15 -129.97,530.04z"/>
   <path class="fil2" d="M554.69 974.38l7.87 5.21 -168.14 -688.79c-20.38,-5.81 -179.53,-4.65 -207.86,-1.38l368.13 684.96z"/>
   <path class="fil1" d="M554.69 974.38l-368.13 -684.96c28.33,-3.27 187.49,-4.43 207.86,1.38l0.27 -6.11 -3.33 -0.52c-65.23,2.22 -133.01,-2.4 -197.77,0.7l-151 1.33c-39.42,0.27 -35.88,3.47 -37.77,-6.07 -0.09,0.1 -12.08,0.03 2.13,22.98l534.38 662.77c9.28,9.53 0.48,4.84 13.36,8.5z"/>
   <path class="fil0" d="M580.13 973.89c10.29,-2.28 2.5,1.87 11.63,-6.15l507.22 -628.56c10.48,-12.88 29.08,-30.38 32.69,-48.11l0.71 -2.31 -184.17 0.74 -368.09 684.4z"/>
   <path class="fil2" d="M1132.38 288.75l-0.71 2.31c9.79,-17.27 -75.7,-126.75 -89.24,-146.22 -16.73,-24.06 -33.74,-47.92 -50.4,-71.8 -11.7,-16.77 -38.22,-60.08 -55.01,-68.22l-96.68 140.35c-16.28,23.63 -89.42,125.34 -96.2,141.21 58.84,2.8 138.29,2.9 197.12,0.15 17.62,-0.82 176.96,-5.99 191.12,2.22z"/>
   <path class="fil0" d="M4.81 280.12c1.89,9.54 -1.65,6.33 37.77,6.07l151 -1.33c64.77,-3.1 132.54,1.53 197.77,-0.7 -32.57,-44.51 -65.37,-93.3 -96.74,-139.1 -16.16,-23.59 -33.19,-47.05 -48.66,-69.99 -14.68,-21.78 -37.82,-49.23 -48.12,-69.95 -21.19,10.9 -124.59,169.91 -147.83,201.66 -8.57,11.7 -15.29,22.39 -23.69,33.85 -9.45,12.9 -20.92,23.04 -21.51,39.49z"/>
   <path class="fil2" d="M391.35 284.16l3.33 0.52c9.61,-20.03 29.7,-49.46 41.75,-68.9 15.09,-24.33 27.44,-45.27 42.36,-69.06 29.33,-46.77 55.95,-92.69 85.68,-139.19l0.29 -5.74c-44.01,-0.72 -352.4,-5.17 -366.92,3.32 10.29,20.72 33.43,48.17 48.12,69.95 15.47,22.94 32.49,46.4 48.66,69.99 31.37,45.8 64.17,94.59 96.74,139.1z"/>
  </g>
 </g>
</svg>
