<?xml version="1.0" encoding="UTF-8"?>
<!DOCTYPE svg PUBLIC "-//W3C//DTD SVG 1.1//EN" "http://www.w3.org/Graphics/SVG/1.1/DTD/svg11.dtd">
<!-- Creator: CorelDRAW -->
<svg xmlns="http://www.w3.org/2000/svg" xml:space="preserve" width="2.16188in" height="2.20173in" version="1.1" style="shape-rendering:geometricPrecision; text-rendering:geometricPrecision; image-rendering:optimizeQuality; fill-rule:evenodd; clip-rule:evenodd"
viewBox="0 0 2161.88 2201.74"
 xmlns:xlink="http://www.w3.org/1999/xlink"
 xmlns:xodm="http://www.corel.com/coreldraw/odm/2003">
 <defs>
  <style type="text/css">
   <![CDATA[
    .str0 {stroke:#856443;stroke-width:20.83;stroke-miterlimit:2.61313}
    .fil1 {fill:none}
    .fil0 {fill:#856443}
   ]]>
  </style>
 </defs>
 <g id="Layer_x0020_1">
  <metadata id="CorelCorpID_0Corel-Layer"/>
  <g id="_1338985669584">
   <path class="fil0" d="M1208.37 1570.88c-15.05,0 -24.4,-3.35 -34.85,-13.74 -3.85,-3.83 -6.68,-7.51 -8.87,-12.64 -7.54,-17.68 -4.55,-37.32 9.24,-51.11 36.89,-36.89 99.46,8.65 69.98,57.24 -1.49,2.45 -2.93,4.19 -4.77,6.38 -3.13,3.7 -8.57,7.11 -12.93,9.37 -4.33,2.24 -11.59,4.49 -17.81,4.49zm68.78 -1209.83l37.68 0c34.94,1.09 69.61,5.19 102.02,12.14 24.65,5.28 49.43,11.93 73.17,20.01l40.67 15.88c9.91,4.2 30.15,12.98 38.73,17.82 19.89,11.21 40.59,21.52 59.01,34.97l22.13 15.31c3.79,2.58 6.88,4.97 10.44,7.87l20.8 16.63c2.47,1.94 2.9,2.61 5.04,4.52l10.36 8.75c1.61,1.6 2.7,2.87 4.35,4.41 2.04,1.89 3.13,2.3 5.2,4.35 21.1,20.88 30.9,31.23 50.19,53.36 8.79,10.09 16.79,21.04 24.75,31.8 2.69,3.63 5.02,6.81 7.6,10.71l14.97 22.46c13.88,21.77 29.31,49.13 39.21,73.09 7.63,18.46 15.1,34.93 21.47,54.19 6.2,18.74 12.28,38.03 16.48,58.39 9.54,46.19 15.07,85.45 15.08,134.53l0 0.14 -0.78 34.26c0.06,13.99 -5.06,54.43 -8.04,69.21 -4.76,23.59 -9.39,47.83 -16.76,70.85 -8.61,26.9 -13.65,38.84 -23.57,64.04 -1.24,3.16 -2.08,5.04 -3.42,7.73 -1.16,2.34 -2.01,4.85 -3.17,7.19 -8.38,17.02 -17.1,34.07 -26.75,50.5l-12.32 20.33c-11.31,18.95 -41.67,59.7 -56.7,74.72 -2.41,2.41 -3.07,3.54 -5.2,5.96l-38.21 38.25c-2.27,2.19 -3.68,2.81 -6,5.15 -7.18,7.24 -15.54,13.81 -23.57,20.23 -1.57,1.25 -4.89,3.03 -4.89,5.46l0 508.94 -642.75 0 0 -165.66c0,-2.73 20.46,-21.66 23.69,-24.89 17.64,-17.64 39.02,-35.01 49.03,-58.5 8.34,-19.56 7.57,-44.52 -0.35,-63.86 -2.9,-7.09 -8.93,-17.35 -14.02,-22.62 -2.81,-2.91 -6.2,-6.58 -9.21,-9.11 -9.32,-7.84 -24.17,-16.67 -37.2,-17.76 1.06,-3.96 20.3,-21.53 24.49,-25.68l14.28 -19.18c21.51,-40.03 6.67,-88.06 -30.64,-111.41 -4.91,-3.07 -19.66,-9.62 -26.45,-10.19 0.99,-3.71 9.78,-13.55 12.34,-18.72 5.74,-11.61 9.96,-24.13 9.96,-39.42 0,-28.36 -13.92,-53.28 -36.31,-68.82 -13.62,-9.46 -28.75,-14.81 -47.32,-14.81 -31.02,0 -48.32,13.68 -66.7,32.06 -3.37,3.38 -13.07,14.7 -16.92,15.73 -0.72,-8.69 -6.72,-20.95 -10.39,-27.04 -14.69,-24.41 -40.98,-39.86 -70.05,-39.86 -29.11,0 -47.13,10.9 -65.11,28.87l-58.94 58.94c-3.54,3.54 -10.98,13.34 -16.13,13.34 -22.93,0 -55,3.22 -71.49,-12.14 -12.22,-11.38 -16.91,-23.06 -16.91,-39.63 0,-8.53 3.03,-14.89 5.47,-20.81 15.44,-37.42 29.77,-75.35 44.72,-112.98l7.17 -18.31c10.93,-24.88 23.39,-62.04 33.71,-84.97 5.57,-12.4 9.94,-25.05 14.98,-37.59l18.32 -46.19c3.07,-7.69 4.51,-12.28 5.46,-20.82 3.55,-31.74 15.65,-141.98 24.05,-172.68l8.5 -30.52c9.59,-31.32 23.84,-61.62 39.67,-90.15 3.11,-5.62 6.44,-11.39 9.81,-16.47 5.21,-7.89 9.98,-16.5 15.7,-24.12 2,-2.67 3.22,-4.85 5.22,-7.52 1.22,-1.63 1.89,-2.73 2.96,-4.21l50.41 -60.29c5.83,-6.97 12.93,-13.28 19.46,-19.57l7.19 -6.35c8.82,-8.9 18.19,-16.75 27.89,-24.68 21.69,-17.72 44.53,-33.8 67.88,-49.2 13.3,-8.77 27.85,-16.57 41.95,-24.16 3.06,-1.65 5.14,-2.98 8.22,-4.52l54.28 -24.57c6.19,-2.51 12.57,-5.12 18.89,-7.39 6.19,-2.22 12.28,-4.55 19.06,-6.43 3.51,-0.97 5.86,-2.17 10.17,-3.37l51.8 -13.51c31.69,-7.25 65.71,-11.34 100.16,-12.43zm3.7 1093.55c0,-18.56 12.81,-31.06 31.86,-31.06 30.49,0 40.26,44.44 11.16,57.36 -14.75,6.55 -32.15,1.37 -39.86,-14.33 -1.58,-3.22 -3.16,-7.11 -3.16,-11.97zm-173.63 -43.01c0,-11.03 1.38,-16.06 9.35,-24.1 3.15,-3.19 3.83,-4 8.49,-5.85 23.18,-9.22 41.89,8.92 41.89,25.17 0,9.64 -1.52,18.49 -9.42,24.83 -24.46,19.6 -50.32,-0.96 -50.32,-20.05zm137.79 -114.69c18.38,0 33.65,10.13 41.17,24.14 20.12,37.52 -19.28,82.09 -60.3,61.9 -9.43,-4.64 -18.07,-13.18 -21.72,-22.89 -8.89,-23.62 0.67,-48 22.93,-58.78 3.48,-1.68 13.28,-4.37 17.93,-4.37zm-89.2 12.74c-4.35,0 -8.07,-0.82 -11.41,-2.13 -9.85,-3.86 -18.85,-14.36 -18.85,-24.16 0,-10.26 0.69,-18.94 9.07,-25.97 2.22,-1.86 5.45,-4.17 8.19,-5.35 31.47,-13.57 59.81,26.24 30.73,51.43 -1.72,1.49 -2.94,2.09 -4.98,2.99 -3.11,1.37 -8.31,3.18 -12.75,3.18zm-381.5 -284.34c0,-9.41 2.8,-19.12 5.8,-26.06 5.82,-13.51 17.81,-27.35 31.17,-33.34 27.5,-12.32 57.03,-8.21 78.33,13.39 2.41,2.44 5.05,5.89 7.05,8.88 2.4,3.61 3.63,6.34 5.63,10.3 10.19,20.18 6.2,46.5 -5.8,64.58 -2.52,3.8 -4.17,5.5 -7.02,8.91l-8.59 7.35c-1.79,1.21 -3.12,2.36 -4.66,3.31 -1.61,1 -3.32,1.7 -5.28,2.69 -4.64,2.32 -6.35,2.95 -11.5,4.43 -15.41,4.41 -33.08,2.95 -46.92,-3.89l-14.52 -9.37c-8.06,-7.19 -12.52,-13.87 -17.59,-23.82 -3.19,-6.25 -6.1,-18.33 -6.1,-27.35zm594.96 -74.87c28.54,0 51.25,2.5 76.36,12.85 25.68,10.58 36.15,18.64 54.87,35.13 2.37,2.09 3.61,2.78 5.98,5.17 2.31,2.32 2.98,3.77 5.15,6 20.3,20.85 30.89,45.67 39.73,72.57 10.05,30.56 6.92,78.31 -4.93,107.57l-6.7 15.6c-4.44,10.08 -10.01,18.84 -16.28,27.53 -7.17,9.94 -21.75,25.4 -32.2,33.91 -7.92,6.45 -25.09,17.8 -34.26,21.49 -2.68,1.08 -4.65,2.31 -7.61,3.54 -27.1,11.29 -49.4,14.67 -80.11,14.67l0 -54.16c17.58,0 26.86,-0.38 42.38,-4.61 9.15,-2.49 16.97,-5.32 25.21,-9.83l12.5 -7.41c1.61,-1.07 3,-2.24 4.57,-3.4l8.74 -7.18c13.36,-12.86 21.01,-23.35 29.65,-40.44 5.76,-11.39 10.7,-31.52 10.74,-45.03 0.07,-25.09 0.02,-27.8 -8.84,-52.44 -3.33,-9.27 -10.89,-22.03 -17.24,-29.75l-7.35 -8.58c-5.97,-7.83 -26.61,-22.43 -36.09,-26.83 -23.56,-10.92 -37.37,-12.2 -64.26,-12.2l0 -54.16z"/>
   <path class="fil0" d="M801.04 1945.22c7.85,-0.15 5.63,-1.7 18.46,-14.54 4.44,-4.44 8.29,-8.32 12.75,-12.74l219.82 -220.62c34.7,-34.39 -0.5,-91.29 -46.11,-77.17 -13.51,4.18 -21.07,12.93 -29.95,21.82l-193.94 193.94c-3.48,3.48 -9.83,10.59 -13.34,12.94 -4.17,-6.22 -10.78,-10.62 -15.6,-16.26 -2.15,-2.52 -1.15,-1.14 -3.27,-3.1l-6.62 -6.92c2.46,-4.64 2.04,-2.39 4.88,-5.48 6.44,-7.02 14.28,-13.51 20.63,-20.79 1.58,-1.81 3.08,-2.98 5.14,-5.22 1.6,-1.72 0.88,-0.66 2.56,-2.22l13.46 -13.62c1.51,-1.29 1.1,-0.88 2.39,-2.39 2.04,-2.39 0.8,-0.96 2.83,-2.74l15.91 -15.94c1.3,-1.42 0.42,-0.97 2.19,-2.58l13.54 -13.54c1.68,-1.85 0.98,-0.81 2.61,-2.17 1.71,-1.43 1.33,-1.5 2.65,-2.93l31.69 -31.24c2.07,-1.99 3.53,-3.54 5.57,-5.58 18.56,-18.56 162.02,-160.44 168.55,-169.15 13.08,-17.47 13.2,-44.59 -3.65,-61.45 -15.55,-15.55 -41.74,-18.71 -61.11,-4.12 -6.67,5.02 -15.15,14.68 -21.34,20.87l-93.31 93.06c-0.53,0.54 -0.9,1.02 -1.51,1.68l-23.52 23.47c-1.21,1.32 -1.44,1.49 -2.81,2.76 -0.12,0.11 -0.3,0.27 -0.42,0.38 -0.12,0.11 -0.29,0.28 -0.41,0.39 -17.98,17.88 -146.32,148.24 -152.6,152.45 -4.64,-3.4 -17.2,-18.12 -22.64,-22.76 -1.65,-1.41 -2.41,-2.11 -3.65,-3.52 3.8,-5.67 310.65,-311.07 336.71,-337.1 8.49,-8.48 15.2,-19.02 15.37,-32.43 0.17,-14.09 -3.98,-25.72 -13.66,-35 -4,-3.83 -8.37,-7.68 -14.15,-9.74 -20,-7.15 -37.95,-3.95 -52.87,11.06l-313.01 313.01c-5.98,5.98 -18.37,20 -24.49,24.09l-26.47 -26.89c5.78,-3.94 249.03,-248.63 262.82,-262.43 4.3,-4.3 6.57,-6.22 9.93,-11.58 3.04,-4.85 5.04,-10.02 5.98,-16.31 3.78,-25.23 -9.81,-45.27 -32.93,-52.65 -12.6,-4.03 -26.47,-0.93 -35.41,4.23 -11.88,6.85 -33.92,31.25 -44.74,42.07l-251.69 251.68c-2.05,2.06 -3.53,3.52 -5.57,5.58 -1.11,1.12 -1.68,1.75 -2.87,2.7l-35.63 35.26c-4.18,3.57 -7.06,7.85 -11.48,10.81 0,-18.58 0,-37.17 0,-55.75 0,-19.4 -0.8,-36.21 -0.8,-55.75 0,-37.11 4.14,-64.46 -24.45,-88.65 -7.99,-6.76 -16.3,-11.82 -25.71,-16.5 -9.6,-4.77 -35.42,-12.42 -45.96,-10.09 -4.59,1.01 -4.28,5.09 -4.82,9.52l-8.31 76.11c-0.91,8.11 -1.37,17.39 -2.59,26.09 -2.46,17.65 -3.7,33.87 -5.17,51.38 -1.45,17.35 -3.7,34.17 -4.88,51.67 -1.43,21.28 -4.47,42.26 -6.27,63.82 -1.79,21.4 -2.98,42.96 -6.11,64.78 -1.69,11.73 -3.04,37.34 -4.9,51.66 -2.13,16.48 -2.11,34.13 -4.66,51.89 -2.25,15.67 -2.3,34.47 -4.78,51.77l-1.93 26.74 535.67 0z"/>
  </g>
  <g>
   <path class="fil1 str0" d="M332.1 10.42l1497.68 0c176.93,0 321.68,144.76 321.68,321.68l0 1537.54c0,176.93 -144.76,321.68 -321.68,321.68l-1497.68 0c-176.93,0 -321.68,-144.76 -321.68,-321.68l0 -1537.54c0,-176.93 144.76,-321.68 321.68,-321.68z"/>
  </g>
 </g>
</svg>
