<?xml version="1.0" encoding="UTF-8"?>
<!DOCTYPE svg PUBLIC "-//W3C//DTD SVG 1.1//EN" "http://www.w3.org/Graphics/SVG/1.1/DTD/svg11.dtd">
<!-- Creator: CorelDRAW -->
<svg xmlns="http://www.w3.org/2000/svg" xml:space="preserve" width="2.16188in" height="2.20173in" version="1.1" style="shape-rendering:geometricPrecision; text-rendering:geometricPrecision; image-rendering:optimizeQuality; fill-rule:evenodd; clip-rule:evenodd"
viewBox="0 0 2161.88 2201.74"
 xmlns:xlink="http://www.w3.org/1999/xlink"
 xmlns:xodm="http://www.corel.com/coreldraw/odm/2003">
 <defs>
  <style type="text/css">
   <![CDATA[
    .str0 {stroke:#856443;stroke-width:20.83;stroke-miterlimit:2.61313}
    .fil1 {fill:none}
    .fil0 {fill:#856443}
   ]]>
  </style>
 </defs>
 <g id="Layer_x0020_1">
  <metadata id="CorelCorpID_0Corel-Layer"/>
  <g id="_1338830801280">
   <path class="fil0" d="M704.72 474.31c-43.08,0 -14.21,-39.65 -46.57,-76.74 -49.6,-56.85 -131.49,-23.74 -142.33,36.44 -13.1,72.72 5.69,551.86 -7.68,570.88 -3.92,5.57 -12.28,10.04 -21.58,10.04 -34.32,0 -25.29,-44.2 -25.29,-79.04l0 -322.48c-20.34,1.69 -36.07,9.94 -51.69,17.86 -44.05,22.33 -84.26,77.7 -84.26,133.89l0 309.83c0,39.25 15.51,80.31 30.96,104.99 9.72,15.53 18.95,25.77 29.55,40 10.3,13.83 20.44,24.98 30.74,38.81 42.22,56.67 151.37,183.96 176.47,234.53 41.63,83.83 30.32,212 29.42,315.19 -0.22,25.55 0.21,44.22 25.34,44.22l546.95 0c29.66,0 22.13,-64.26 22.13,-82.2 -145.12,0 -247.37,-26.74 -357.28,-104.31 -30.98,-21.87 -49.85,-38.85 -76.64,-65.63 -87.5,-87.47 -162.69,-226.98 -162.69,-399.15 0,-177.41 79.62,-319.83 202.23,-429.15 121.92,-108.71 301.13,-152.33 466.23,-123.25 10.56,1.86 21.64,5.46 35.64,5.46l0 -126.46c0,-21.11 -13.06,-43.39 -24.36,-54.68 -43.93,-43.91 -126.39,-30.58 -139.48,55.24 -2.61,17.11 -6.87,27.9 -25.85,27.9 -42.48,0 -16.91,-66.56 -29.8,-102.99 -31.21,-88.3 -151.46,-71.99 -159.8,20.89 -1.36,15.11 -7.9,28.35 -25.39,28.35 -25.19,0 -25.64,-16.59 -25.35,-41.05 0.28,-23.31 0.1,-42.13 -5.03,-61.36 -17.41,-65.23 -116.08,-86.58 -152.06,-10.47 -17.67,37.39 7.65,84.42 -32.55,84.42z"/>
   <path class="fil0" d="M1109.39 1479.68c0,-35.98 -5.54,-56.91 31.62,-56.91 26.69,0 30.11,79.04 -6.32,79.04 -10.57,0 -25.3,-11.68 -25.3,-22.13zm-107.49 -85.36c0,-18 -4.6,-53.74 22.13,-53.74 34.22,0 28.46,27.95 28.46,53.74 0,33.94 -50.59,33.94 -50.59,0zm-107.49 -25.29c0,-44.76 -4.6,-53.74 31.62,-53.74 22.37,0 18.97,37.7 18.97,50.58 0,34.24 -50.59,35.91 -50.59,3.16zm214.98 -28.45c0,-21.39 -5.61,-53.75 25.3,-53.75 30.9,0 25.29,32.36 25.29,53.75 0,33.94 -50.59,33.94 -50.59,0zm-75.87 -56.91c-37.48,0 -31.62,-16.38 -31.62,-56.91 0,-11.84 15.22,-20.98 25.33,-20.9 31.04,0.23 25.26,35.28 25.26,52.51 0,11.56 -8.72,25.3 -18.97,25.3zm-113.82 -25.3c-31.3,0 -25.3,-32.62 -25.3,-60.07 0,-21.58 50.59,-30.52 50.59,6.32 0,18.06 4.18,53.74 -25.29,53.74zm189.69 -53.74l0 -31.62c0,-22.5 50.59,-32.6 50.59,3.17 0,37.65 5.43,53.74 -31.61,53.74 -10.25,0 -18.97,-13.74 -18.97,-25.29zm107.49 -28.45c0,-20.79 -4.78,-50.59 25.3,-50.59 39.19,0 25.98,64.92 18.22,71.97 -15.08,13.72 -43.52,6.78 -43.52,-21.39zm-214.98 -50.59c0,-23.7 -6.41,-53.75 25.3,-53.75 31.12,0 25.29,32.56 25.29,56.91 0,25.47 -50.59,32.54 -50.59,-3.16zm-82.2 -3.16c-40,0 -25.41,-65.43 -18.23,-71.97 16.84,-15.32 43.52,-2.41 43.52,21.39 0,20.79 4.78,50.59 -25.29,50.59zm189.69 -47.42c0,-35.98 -5.54,-56.91 31.62,-56.91 26.69,0 30.11,79.04 -6.32,79.04 -10.57,0 -25.3,-11.68 -25.3,-22.13zm107.49 -31.62c0,-23.02 -3.52,-39.5 13.55,-49.68 17.57,-10.48 37.04,1.43 37.04,21.23 0,23.7 6.41,53.75 -25.29,53.75 -15.3,0 -25.3,-10 -25.3,-25.3zm-214.98 -53.74c0,-18 -4.6,-53.75 22.13,-53.75 34.22,0 28.46,27.95 28.46,53.75 0,33.93 -50.59,33.93 -50.59,0zm107.49 -53.75c0,-21.38 -5.61,-53.74 25.3,-53.74 30.9,0 25.29,32.36 25.29,53.74 0,33.94 -50.59,33.94 -50.59,0zm107.49 -28.45c0,-30.51 -3.56,-50.59 28.46,-50.59 27.53,0 22.13,24.28 22.13,53.75 0,31.72 -50.59,30.19 -50.59,-3.16zm-433.13 284.54c0,115.14 35.72,218.2 114.58,296.42 32.28,32.02 68.91,59.39 111.96,80.89 74.48,37.19 125.59,40.01 206.59,40.01 0,-75.52 -7.7,-162.21 14.56,-225.72 15.52,-44.28 75.98,-163.5 85.38,-195.99 14.01,-48.43 7.55,-120.13 7.55,-178.98 0,-62.18 0,-124.35 0,-186.53 -20.74,-4.83 -53.74,-9.96 -53.74,-34.78 0,-65.4 147.43,20.33 162.56,30.3 37.52,24.72 79.96,58.98 106.2,92.97 69.92,90.54 107.46,174.85 107.46,300.37 0,244.94 -207.21,452.1 -452.1,452.1 -109.91,0 -238.39,-44.47 -309.1,-114.54 -10.78,-10.68 -19.17,-19.35 -29.98,-30.09 -87.38,-86.88 -142.86,-237.1 -117.54,-391.02 8.89,-54.04 20.84,-84.87 44.57,-132.48 21.93,-44 64.33,-102.25 101.75,-132.2 95.22,-76.22 166.08,-107.21 295.06,-116.15 20.79,-1.44 34.21,7.16 34.21,28.09 0,56.14 -140.01,-15.89 -294.79,128.85 -79.82,74.65 -135.18,170.96 -135.18,288.47zm-107.49 -9.48c0,76.95 3.65,132.49 31.58,202.37 19.71,49.33 37.98,82.95 66.43,123.26 25.89,36.69 58.09,67.66 92.64,97.06 29.22,24.86 81.51,55.57 118.25,71.44 90.07,38.91 209.44,56.31 320.89,28.18 73.76,-18.62 135.69,-47.01 193.59,-90.94 272.59,-206.83 267.97,-624.6 -5.88,-822.06 -75.82,-54.67 -182.02,-99.33 -283.21,-99.33 -116.92,0 -182.86,15.09 -279.21,68.56l-72.46 50.84c-50.51,45.14 -107.66,109.08 -133.88,172.79 -23.29,56.59 -48.75,119.96 -48.75,197.85z"/>
   <path class="fil0" d="M1267.47 1486c0,129.41 -8.58,121.21 28.1,110.35 12.24,-3.62 20.77,-6.15 33.32,-10.99 74.68,-28.79 129.91,-68.79 179.29,-130.54 6.87,-8.59 12.68,-16.74 18.58,-25.69 11.33,-17.19 22.74,-37.37 31.54,-56.99 43.65,-97.33 46.12,-202.03 12.31,-303.1 -13.44,-40.18 -35.8,-78.13 -60.12,-110.6 -35.11,-46.89 -80.39,-83.57 -132.37,-111.08 0,83.44 7.52,293.71 -13.35,359.71 -28.28,89.43 -97.3,175.73 -97.3,278.92z"/>
   <path class="fil0" d="M1630.28 1706.54c5.13,7.28 139.16,146.2 149.36,146.2 21.55,0 56.91,-35.36 56.91,-56.91 0,-10.41 -139.38,-144.54 -145.43,-148.59l-60.84 59.3z"/>
   <polygon class="fil0" points="1557.56,1633.82 1592.35,1670.13 1653.95,1610.07 1619.16,1573.77 "/>
  </g>
  <g>
   <path class="fil1 str0" d="M332.1 10.42l1497.68 0c176.93,0 321.68,144.76 321.68,321.68l0 1537.54c0,176.93 -144.76,321.68 -321.68,321.68l-1497.68 0c-176.93,0 -321.68,-144.76 -321.68,-321.68l0 -1537.54c0,-176.93 144.76,-321.68 321.68,-321.68z"/>
  </g>
 </g>
</svg>
