<?xml version="1.0" encoding="UTF-8"?>
<!DOCTYPE svg PUBLIC "-//W3C//DTD SVG 1.1//EN" "http://www.w3.org/Graphics/SVG/1.1/DTD/svg11.dtd">
<!-- Creator: CorelDRAW -->
<svg xmlns="http://www.w3.org/2000/svg" xml:space="preserve" width="2.16188in" height="2.20173in" version="1.1" style="shape-rendering:geometricPrecision; text-rendering:geometricPrecision; image-rendering:optimizeQuality; fill-rule:evenodd; clip-rule:evenodd"
viewBox="0 0 2161.88 2201.74"
 xmlns:xlink="http://www.w3.org/1999/xlink"
 xmlns:xodm="http://www.corel.com/coreldraw/odm/2003">
 <defs>
  <style type="text/css">
   <![CDATA[
    .str0 {stroke:#856443;stroke-width:20.83;stroke-miterlimit:2.61313}
    .fil1 {fill:none}
    .fil0 {fill:#856443}
   ]]>
  </style>
 </defs>
 <g id="Layer_x0020_1">
  <metadata id="CorelCorpID_0Corel-Layer"/>
  <path class="fil0" d="M557.58 1243.12c-75.91,27.26 -72.44,88.32 -77.98,132.13 -62.11,6.31 -74.11,64.95 -49.98,98.23 13.69,18.89 20.9,14.46 34.43,26.49 16.16,17.99 29.79,224.23 56.29,261.95 27.07,38.52 73.53,27.76 130.74,27.76l318.19 0c145.91,0 135.05,7.09 163.52,-153.96 8.02,-45.37 17.81,-91.16 23.82,-136.07 86.48,-43.33 46.26,-118.38 -12.66,-124.46 -5.91,-40.42 -1.13,-96.78 -66.05,-126.93 -30.04,-13.95 -4.44,-16.35 -33.66,-61.13 -10.69,-16.37 -31.6,-34.83 -56.15,-41.95 -16.2,-47.01 -24.2,-75.94 -64.91,-94.13 -55.27,-24.7 -89.27,13.3 -112.18,37.5 -45.11,-60.43 -116.67,-60.82 -156.49,4.41 -24.03,39.35 -1.26,43.54 -33.61,57.78 -43.69,19.24 -48.29,52.62 -63.34,92.38zm656.88 148.41c-24.21,18.94 5.3,45.38 23.94,31.65 19.13,-14.09 1.53,-51.57 -23.94,-31.65zm23.03 161.88c-39.85,-6.32 -39.3,30.44 -18.37,38.01 10.8,3.91 21.47,-2.24 25.29,-10.24 5.61,-11.77 -1.01,-19.51 -6.92,-27.77zm-20.26 -81.61c-6.88,3.64 -7.31,-0.54 -10.79,11.33 -1.99,6.8 -1.23,11.24 1.81,16.94 5.39,10.11 18.89,12.44 29.08,6.53 19.62,-11.38 4.09,-47.59 -20.1,-34.81zm-663.87 -714.11c-24.85,15.02 -3.17,47.2 20.34,34.56 21.38,-11.49 5.41,-50.13 -20.34,-34.56zm655.25 912.25c8.55,3.35 20.32,8.95 30.72,1.03 8,-6.09 10.13,-19.2 3.14,-28.7 -11.65,-15.81 -43.8,-11.05 -33.86,27.67zm-361.19 -108.11c-40.23,-0.01 -112.98,-9.73 -95.6,29.41 7.57,17.04 36.07,12 54.98,11.98 17.79,-0.02 50.39,5 61.17,-5.82 13.09,-13.13 6.11,-35.56 -20.54,-35.56zm636.48 -103.63c-26.75,-0.33 -55.93,-2.45 -49.11,28.25 10.59,18.19 25.04,13.29 49.28,13.16 1.74,22.02 -4.75,49.75 20.17,51.17 27.65,1.57 21.02,-28.92 22.96,-51.17 22.86,0.14 50.65,3.98 50.53,-20.8 -0.12,-24.64 -27.91,-20.86 -50.62,-20.66 -1.73,-22.46 4.37,-49.18 -19.81,-51.06 -28.06,-2.18 -21.28,29.23 -23.41,51.11zm-809.12 227.91l253.87 0c15.48,0 40.63,5.17 46.82,-12.17 8.59,-24.07 -10.18,-29.28 -29.69,-29.45l-243.93 0.16c-17.6,-0.04 -45.15,-3.98 -52.52,8.87 -12.31,21.5 4.54,32.59 25.44,32.59zm83.32 -929.85l9.95 55.33c32.83,-39.33 65.95,-67.11 123.78,-75.15 11.87,125.65 -44.94,153.41 -127.24,195.81l-8.95 45.05c118.01,-24.81 199.49,-124.91 175.42,-255.96 -6.59,-35.87 -19.73,-33.19 -56.56,-24.5 -78.13,18.43 -99.08,51.39 -116.39,59.43zm607 578.98c-21.26,7.37 -15,37.51 -14.98,62.33l-0.18 155.91c0.59,33.31 12.43,29.71 38.83,40.68 148.07,61.51 99,65.02 218.81,8.31 66.18,-31.33 53.36,-15.02 53.36,-99.97 0,-186.35 16.2,-168.61 -65.46,-168.59l-230.39 1.33zm26.6 214.65c9.65,5.39 104.28,46.11 114.66,48.71 14.52,3.63 105.56,-43.47 112.27,-48.71l0.7 -174.59 -225.81 0.08 -1.82 174.51zm-973.62 -880.09c0,138.15 55.54,230.93 169.13,283.91 21.53,10.04 94.15,36.02 117.77,24.85 10.17,-6.04 4.5,1.4 10,-11.36l11.07 -59.82c9.34,-81.48 -4.3,-158.8 -49.43,-222.46 -47.59,-67.14 -165.03,-142.39 -236.61,-137.05 -19.48,24.99 -21.93,84.97 -21.93,121.94zm227.1 259.99c-7.24,-22.52 -73.54,-82.61 -40.93,-100.42 21.51,-11.74 34.39,15.51 44.12,29.25 11.44,16.15 25.05,33.5 33.13,48.22 25.02,-45.85 -6.11,-154.86 -46.25,-207.72 -26.72,-35.19 -101.26,-95.8 -166.96,-104.66 -22.41,47.09 -7.34,164.66 24.85,223.14 25.5,46.33 84.93,97.47 152.03,112.19zm260.82 71.74c5.41,3.77 42.52,16.78 49.33,16.34 9.77,-0.63 33.9,-16.44 48.91,-20.57 -2.42,12.87 -14.11,45.48 -12.35,53.86 0.59,2.81 19.43,34.82 24.77,42.01l44.18 -8.51 -17.03 41.97c18.69,22.01 28.5,23.95 43.96,54.39 34.2,67.3 3.05,14.1 45.6,55.87 24.61,24.16 20.95,27.87 39.63,58.58 5.89,9.69 42.44,42.11 53.53,48.44l191.82 -171.08c11.77,-16.29 -20.67,-66.23 -27.06,-87.88l82.66 17.68 -26.66 -104.44c37.38,8.48 111.96,58.41 140.33,85.74 46.62,44.92 90.74,107.03 107.56,187.13 16.11,76.72 -3.79,485.54 11.69,508.49 13.19,19.56 37,9.73 37,-16.39l-0.2 -419.74c-0.57,-177.45 -118.84,-317.82 -268.66,-380.46 -69.68,-29.13 -30.28,-10.28 -52.15,-42.09 -17.55,1.18 -135.54,95.21 -135.96,100.98 -1.31,18.25 42.19,41 31.71,71.25l-91.36 243.9c-4.71,-5.66 -1.31,-0.2 -5.64,-8.84l-87.75 -234.31c-6.29,-17.78 1.52,-24.06 9.74,-36.43 29.2,-43.94 37.52,-29.26 -43.33,-88.73 -13.96,-10.27 -56.42,-45.35 -70.06,-48.32 -13.16,15.58 -0.12,20.86 -20.79,29.87 -32.94,14.37 -71.62,26.14 -103.41,51.29zm417.29 197.79c22.5,-12.39 33.13,-30.11 51.84,-41.84l-12.19 -31.54c-2.98,-5.2 0.57,-0.03 -2.94,-4.72 -6.32,-8.45 0.76,-0.64 -6.62,-6.87l-30.09 84.98zm18.46 -170.71c2.62,10.78 7.93,16.42 14.62,26.07 31.69,-12.79 16.31,-15.12 60.46,-7.83l-16.03 -60.19c-15.13,6.72 -45.98,29.69 -59.05,41.95zm-265.99 129.18c20.04,12.81 33.93,32.12 52.56,43.03 -3.26,-14.59 -9.52,-28.17 -14.74,-42.32 -3.07,-8.31 -5.42,-15.03 -7.94,-22.27 -3.63,-10.38 -4.78,-14.88 -12.9,-21.89l-16.97 43.44zm-41.26 -111.28c35.5,-5.49 36.24,-4.96 60.62,8.58l17.46 -26.67c-20.33,-10.87 -41.05,-33.33 -60.65,-42.41l-17.43 60.5zm162.61 -580.74c-129.48,16.3 -236.03,129.22 -217.72,278.49 15.39,125.46 132.93,234.19 279.16,214.76 126.46,-16.8 232.26,-132.42 214.04,-278.47 -15.57,-124.86 -130.66,-233 -275.48,-214.77zm-6.26 42.65c-102.09,19.31 -191.58,114.39 -168.73,240.68 18.19,100.51 116.02,188.43 238.37,167.52 100.97,-17.26 190.46,-112.87 169.92,-237.3 -16.67,-100.95 -115.22,-194.41 -239.56,-170.9zm-433.61 733.45c8.91,8.01 19.93,9.59 30.77,18.84 8.52,7.26 16.98,17.5 25.02,24.91 6.31,-10.85 14.09,-18.31 22.49,-25.22 10.19,-8.38 22.72,-11.81 30.72,-18.54 -12.52,-74.22 -96.84,-75.93 -109,0zm-77.65 -98.17c13.52,10.74 28.59,8.74 53.17,42.91 10.4,-8.69 14.97,-16.27 24.89,-24.4 10.63,-8.7 22.37,-11.41 30.75,-18.51 -10.27,-75.54 -98.35,-75.19 -108.8,0zm155.36 0c15.68,12.79 28.41,7.59 53.42,43.47 45.62,-45 10.88,-13.31 55.17,-43.47 -10.45,-76.04 -98.46,-74.69 -108.59,0zm-233.34 98.17c9.27,7.81 19.73,9.29 30.8,18.67 8.28,7.02 17.33,16.92 25.11,24.9 15.48,-27.14 44.03,-35.56 53.28,-43.57 -12.37,-75.58 -94.49,-77.78 -109.18,0zm310.99 0c9.42,8.09 20.39,9.9 30.85,19.14 7.98,7.05 16.8,17.42 25.17,24.38 17.39,-25.64 26.88,-27.78 48.2,-40.53l4.54 -2.99c-13.86,-80.51 -97.64,-73.44 -108.77,0zm-390.07 132.73l112.05 0.77c8.13,-122.02 -118.92,-124.69 -112.05,-0.77zm466.26 0.43l112.17 0.21c5.3,-126.2 -120.43,-120.82 -112.17,-0.21zm-155.47 0.2l112.22 0.08c5.3,-126.34 -119.17,-121.99 -112.22,-0.08zm-155.42 -0.32l112.02 0.43c8.77,-121.27 -118.86,-126.61 -112.02,-0.43zm-189.3 83.31l632.99 0.07c20.37,-0 41.18,1.93 41.61,-20.11 0.5,-25.58 -25.43,-21.39 -45,-21.39l-629.6 0c-37.66,0 -40.93,41.37 0,41.43zm625.28 41.87l-604.23 -0.41c1.36,22.31 34.97,216.98 41.36,231.46 9.16,20.78 24.55,17.25 49.26,17.14l416.39 -0.01c25.06,0.04 44.39,4.99 54.67,-15.14 5.48,-10.73 41.24,-212.44 42.54,-233.05z"/>
  <g>
   <path class="fil1 str0" d="M332.1 10.42l1497.68 0c176.93,0 321.68,144.76 321.68,321.68l0 1537.54c0,176.93 -144.76,321.68 -321.68,321.68l-1497.68 0c-176.93,0 -321.68,-144.76 -321.68,-321.68l0 -1537.54c0,-176.93 144.76,-321.68 321.68,-321.68z"/>
  </g>
 </g>
</svg>
