<?xml version="1.0" encoding="UTF-8"?>
<!DOCTYPE svg PUBLIC "-//W3C//DTD SVG 1.1//EN" "http://www.w3.org/Graphics/SVG/1.1/DTD/svg11.dtd">
<!-- Creator: CorelDRAW -->
<svg xmlns="http://www.w3.org/2000/svg" xml:space="preserve" width="2.16188in" height="2.20173in" version="1.1" style="shape-rendering:geometricPrecision; text-rendering:geometricPrecision; image-rendering:optimizeQuality; fill-rule:evenodd; clip-rule:evenodd"
viewBox="0 0 2161.88 2201.74"
 xmlns:xlink="http://www.w3.org/1999/xlink"
 xmlns:xodm="http://www.corel.com/coreldraw/odm/2003">
 <defs>
  <style type="text/css">
   <![CDATA[
    .str0 {stroke:#856443;stroke-width:20.83;stroke-miterlimit:2.61313}
    .fil1 {fill:none}
    .fil0 {fill:#856443}
   ]]>
  </style>
 </defs>
 <g id="Layer_x0020_1">
  <metadata id="CorelCorpID_0Corel-Layer"/>
  <path class="fil0" d="M300.78 2182.21l1540.87 0c79.38,-51 59.4,-49.7 42,-207.12 -9.07,-82.06 -17.63,-179.37 -63.9,-227.52 -60.39,-62.85 -91.77,-67.45 -194.24,-86.24 -85.76,-15.75 -148.99,-29.83 -226.63,-53.85 13.16,87.21 19.11,130.54 16.81,225.04 148.93,60.22 100.28,256.52 -29.51,256.73 -110.09,0.17 -151.45,-136.99 -96.28,-210.16 24.72,-32.79 50.91,-39.37 69.71,-55.95 4.62,-116.96 -7.74,-256.93 -97.27,-327.09l24.85 60.55 -183.49 162.81c-11.08,8.82 0.66,1.63 -14.2,10.38 -48.11,-32.33 -177.48,-135.73 -209.09,-150.47l29.91 -72.85c106.56,51.23 198.3,74.5 310.16,3.09 85.67,-54.7 147.7,-134.51 163.11,-244.99 54.88,-29.32 68.84,-30.17 90.03,-105.87 28.96,-103.47 -9.98,-121.39 -33.96,-151.72 118.1,-127.65 65.77,-409.5 -91.11,-492.08 -41.59,-21.89 -69.76,-13.63 -103.52,-40.05 -108.3,-84.81 -130.15,-58.77 -191.41,-88.01l-69.8 0c-28.32,12.55 -83.25,19.88 -120.67,35.99 -70.07,30.18 -134.84,89.99 -187.34,141.26 -15.5,15.14 -66.39,74.44 -76.07,94.04 70.74,60.77 83.02,78.88 91.19,207.34 16.39,257.98 -32.98,153.74 -20.16,268.26 4.61,41.06 20.37,82.1 43.92,103.18 16.41,14.67 4.19,3.19 18.04,12.39l20.66 17.89c3.78,6.56 12.33,50.3 16.19,62.06 29.48,89.77 85.42,106.99 132.86,167.66 -93.39,50.39 -118.02,200.52 -106.33,227.48 17.1,19.96 27.74,19.1 44.53,39.23 47.65,57.08 130.25,265.11 93.05,314.51 -10.65,14.16 -104.17,51.39 -131.29,21.67 -29.77,-30.09 -0.31,-62.3 26.38,-59.22 47.39,5.47 -1.13,34.87 73.33,11.84 16.39,-95.27 -91.07,-248.89 -138.98,-277.43 -76.06,32.95 -157.3,184.91 -150,280.11 72.56,9.67 44.71,-17.45 82.76,-14.61 39.02,2.91 50.2,88.94 -19.68,68.98 -48.57,-13.86 -108.21,-0.78 -104.87,-78.13 2.06,-47.81 53.84,-205.87 94.85,-256.64 11.39,-14.11 18.07,-19.6 32.64,-29.01 47.32,-30.57 32.19,-2.91 57.61,-138.47 -129.69,26.11 -349.38,45.37 -428.37,130.88 -57.97,62.75 -83.76,269.79 -86.16,356.61 -1.78,64.87 23.48,65.79 58.9,87.5zm425.23 -1125.73c-20.09,30.51 -17.53,64.76 -5.58,102.22 18.55,58.18 25.92,38.84 74.29,54.52 13.85,131.75 30.29,137.46 98.11,206.9 46.78,47.9 116.17,95.13 216.22,80.46 102.19,-14.97 124.17,-69.51 176.85,-120.38 26.59,-25.69 45.37,-58.44 49.93,-107.76 10.19,-110.14 0.12,-55.91 68.8,-69.21 15.33,-29.3 46.91,-88.38 26.1,-138.15 -31.74,-12.58 -93.85,72.45 -81.1,-37.37 15.62,-134.61 12.61,-240.24 -111.78,-312.04 -46.15,20.94 -67.47,55.54 -152.64,73.91 -70.79,15.27 -115.48,9.11 -179.11,46.35 -50.86,29.76 -88.03,60.09 -100.19,131.22 -5.7,33.3 6.64,88.43 -1.43,102.8 -18.41,32.78 -36.96,-11.99 -78.46,-13.49z"/>
  <path class="fil0" d="M1361.34 1902.94c-14.43,21.68 -36.22,37.51 -23.94,75.43 9.47,29.25 40.47,47.67 74.13,32.94 40.68,-17.79 59.59,-118.32 -50.2,-108.37z"/>
  <ellipse class="fil0" cx="940.91" cy="997.59" rx="90.03" ry="96.84"/>
  <ellipse class="fil0" cx="1238.7" cy="997.59" rx="90.03" ry="96.84"/>
  <rect class="fil0" x="1011.23" y="987.57" width="155.42" height="35.96"/>
  <g>
   <path class="fil1 str0" d="M332.1 10.42l1497.68 0c176.93,0 321.68,144.76 321.68,321.68l0 1537.54c0,176.93 -144.76,321.68 -321.68,321.68l-1497.68 0c-176.93,0 -321.68,-144.76 -321.68,-321.68l0 -1537.54c0,-176.93 144.76,-321.68 321.68,-321.68z"/>
  </g>
 </g>
</svg>
