<?xml version="1.0" encoding="UTF-8"?>
<!DOCTYPE svg PUBLIC "-//W3C//DTD SVG 1.1//EN" "http://www.w3.org/Graphics/SVG/1.1/DTD/svg11.dtd">
<!-- Creator: CorelDRAW -->
<svg xmlns="http://www.w3.org/2000/svg" xml:space="preserve" width="2.16188in" height="2.20173in" version="1.1" style="shape-rendering:geometricPrecision; text-rendering:geometricPrecision; image-rendering:optimizeQuality; fill-rule:evenodd; clip-rule:evenodd"
viewBox="0 0 2161.88 2201.74"
 xmlns:xlink="http://www.w3.org/1999/xlink"
 xmlns:xodm="http://www.corel.com/coreldraw/odm/2003">
 <defs>
  <style type="text/css">
   <![CDATA[
    .str0 {stroke:#856443;stroke-width:20.83;stroke-miterlimit:2.61313}
    .fil1 {fill:none}
    .fil0 {fill:#856443}
   ]]>
  </style>
 </defs>
 <g id="Layer_x0020_1">
  <metadata id="CorelCorpID_0Corel-Layer"/>
  <g id="_1338956293952">
   <path class="fil0" d="M926.22 791.54c-124.96,-1.17 -250.31,-0.26 -375.31,-0.26 -262.19,0 -220.7,-85.02 -220.7,550.69 0,209.56 -30.22,299.36 86.24,300.57 11.66,-20.04 30.4,-214.69 221.75,-220 123,-3.42 225.27,90.67 225.61,221.48l382.01 -1.22c7.25,-259.47 337.28,-286.52 420.47,-91.29 6.47,15.18 8.69,28.07 12.61,44.06l11.74 39.17c0.69,1.87 1.85,5.18 3.22,7.54 119.7,0.17 86.06,-106.37 86.24,-213.87 0.44,-244.15 -47.94,-93.57 -93.35,-213.23 -114.04,-300.5 -85.8,-262.43 -347.85,-267.05 0.28,-79.64 18.86,-147.12 -67.13,-156.47 -66.51,-7.24 -147.59,6.52 -215.34,-3.23 -3.8,-64.62 12.71,-153.24 -63.9,-153.96 -80.99,-0.77 -57.56,91.5 -66.31,157.08zm-161.93 106.37c-318.62,89.79 -179.09,574.15 142.03,481.76 109.06,-31.38 209.74,-156.24 171.75,-306.04 -30.5,-120.27 -157.34,-219.8 -313.78,-175.72zm574.94 365.34l296.85 0.54c-15.35,-54.88 -50.72,-136.8 -74.66,-193.05 -36.11,-84.83 -122.12,-58.93 -222.93,-58.93l0.74 251.43z"/>
   <polygon class="fil0" points="771.49,1075.27 647.63,1075.07 644.17,1202.62 768.7,1201.47 771.51,1327.37 898.6,1327.71 898.64,1201.94 1024.92,1202.01 1022.88,1074.72 897.71,1074.98 897.87,948.22 771.77,948.64 "/>
   <path class="fil0" d="M1423.58 1491.01c-199.59,56.76 -121.29,349.3 80.04,304.07 74.55,-16.75 136.94,-94.69 114.16,-192.67 -17.95,-77.23 -103.74,-137.12 -194.21,-111.39zm70.14 93.09c-124.39,-16.59 -104.41,102.61 -45.1,118.13 38.82,10.17 66.87,-10.65 75.5,-40.17 11.04,-37.77 -12.37,-56.82 -30.4,-77.96z"/>
   <path class="fil0" d="M601.42 1492.31c-192.9,57.46 -117.75,364.04 92.09,299.94 186.92,-57.1 114.3,-361.41 -92.09,-299.94zm95.27 105.96c-14.73,0 -17.55,-22.57 -80.68,-14.12 -112.7,136.83 129.63,179.95 80.68,14.12z"/>
   <path class="fil0" d="M786.71 491.97c-7.83,55.12 59.67,133.35 116.56,117.02 16.3,-48.98 -11.07,-60.92 -34.57,-84.31 -20.07,-19.98 -40.65,-49.67 -81.98,-32.71z"/>
   <path class="fil0" d="M1088.77 613.15c46.07,1.46 116.96,-63.33 108.77,-120.14 -51.67,-11.09 -58.05,7.08 -86.51,35.59 -29.89,29.94 -54.95,40.7 -22.26,84.55z"/>
   <path class="fil0" d="M960.27 467.94c0,41.72 -9.76,105.89 32.56,101.41 40.58,-4.3 12.2,-2.02 24.61,-10.51 4.61,-6.21 29.13,-176.37 -37.03,-141.3 -17.39,9.22 -20.14,25 -20.14,50.39z"/>
   <path class="fil0" d="M1121.68 711.48c36.56,31.65 103.89,15.15 150.61,10.83l-0.59 -48.48c-29.85,-10.35 -61.75,-11.13 -97.27,-9.38 -43.49,2.15 -58.56,6.83 -52.75,47.02z"/>
   <path class="fil0" d="M714.5 679.24l-4.37 41.57c41.7,11.9 110.39,10.99 152.44,2.04 11.02,-102.58 -140.53,-48.7 -148.07,-43.61z"/>
  </g>
  <g>
   <path class="fil1 str0" d="M332.1 10.42l1497.68 0c176.93,0 321.68,144.76 321.68,321.68l0 1537.54c0,176.93 -144.76,321.68 -321.68,321.68l-1497.68 0c-176.93,0 -321.68,-144.76 -321.68,-321.68l0 -1537.54c0,-176.93 144.76,-321.68 321.68,-321.68z"/>
  </g>
 </g>
</svg>
