<?xml version="1.0" encoding="UTF-8"?>
<!DOCTYPE svg PUBLIC "-//W3C//DTD SVG 1.1//EN" "http://www.w3.org/Graphics/SVG/1.1/DTD/svg11.dtd">
<!-- Creator: CorelDRAW -->
<svg xmlns="http://www.w3.org/2000/svg" xml:space="preserve" width="2.16188in" height="2.20173in" version="1.1" style="shape-rendering:geometricPrecision; text-rendering:geometricPrecision; image-rendering:optimizeQuality; fill-rule:evenodd; clip-rule:evenodd"
viewBox="0 0 2161.88 2201.74"
 xmlns:xlink="http://www.w3.org/1999/xlink"
 xmlns:xodm="http://www.corel.com/coreldraw/odm/2003">
 <defs>
  <style type="text/css">
   <![CDATA[
    .str0 {stroke:#856443;stroke-width:6.94;stroke-miterlimit:2.61313}
    .str1 {stroke:#856443;stroke-width:20.83;stroke-miterlimit:2.61313}
    .fil1 {fill:none}
    .fil0 {fill:#856443}
   ]]>
  </style>
 </defs>
 <g id="Layer_x0020_1">
  <metadata id="CorelCorpID_0Corel-Layer"/>
  <g id="_1338891584400">
   <path class="fil0 str0" d="M499.47 866.57c-45.74,128.7 -71.37,195.64 -59.21,351.64 10.34,132.67 71.11,365.02 191.8,425.93 161.11,81.32 356.13,-36.2 323.43,-243.23 -0.03,-47.46 -55.76,-131.77 -77.59,-168.8 -103.91,-176.25 -157.99,-375.85 -164.41,-589.95 -52.21,23.96 -206.34,178.09 -214.02,224.4z"/>
   <path class="fil0 str0" d="M1203.01 1405.1c-15.93,42.31 1.34,96.17 10.76,134.11l2.98 11.25c8.94,7.85 4.89,4.16 11.9,14.57 55.23,82.06 141.99,122.67 243.91,98.97 103.27,-24.01 146.41,-102.96 184.58,-197.86 59.52,-147.98 82.68,-327.34 39.78,-488.84 -22.77,-85.69 -43.11,-104.38 -54.32,-139.96 -6.56,-37.8 -150.8,-173.32 -195.43,-196.72 -3.91,153.39 -32.43,291.5 -81.51,422.16 -48.9,130.19 -153.35,265.38 -162.65,342.33z"/>
   <path class="fil0 str0" d="M1153.44 729c10.55,-148.29 31.33,-289.63 51.41,-433.61l-9.33 -2.2c-36.31,-2.64 -78.13,16.41 -173.32,6.71 -75.4,-7.68 -152.15,-29.96 -221.06,-56.99 -101.97,-39.99 -73.77,14.07 -48.74,156.99 20.23,115.55 26.93,214.06 99.46,271.24 67.05,52.85 197.11,78.34 301.6,57.86z"/>
   <path class="fil0 str0" d="M1213.77 1539.21c-9.42,-37.94 -26.69,-91.8 -10.76,-134.11 -53.61,26.27 -61.31,-5.63 -51.28,-58.99 -23.74,4.23 -45.13,9.67 -70.74,10.08 -28.13,0.45 -47.4,-6.74 -71.68,-8.77 10.54,33.11 8.53,71.35 -28,67.02 -15.07,-1.79 -13.82,-7.01 -25.84,-13.53 32.7,207.03 -162.32,324.54 -323.43,243.23 -120.69,-60.92 -181.45,-293.27 -191.8,-425.93 -12.16,-156 13.47,-222.94 59.21,-351.64 -11.5,8.28 -5.97,3.44 -13.13,16.05 -3.52,6.2 -6.89,12.7 -10.7,19.97 -7.2,13.77 -13.26,26.72 -19.67,42.12 -89.04,213.82 -56.58,491.69 50.65,685.75 68.69,124.32 202.26,162.57 315.99,86.49 104.55,-69.94 120.2,-196.37 152.58,-206.91 17.35,-5.64 32.11,4.99 37.09,16.61 7.37,17.22 -2.95,31.57 -7.54,45.98 65.14,-7.31 81.5,-11.89 150.45,-0.69 -5.33,-24.24 -18.52,-46.99 7.22,-60.02 11.09,-5.61 23.03,-4.99 32.47,1.76l13.31 17.97c0.52,0.78 1.27,1.82 1.76,2.53 0.5,0.72 1.46,1.93 1.88,2.51 0.43,0.59 1.22,1.74 1.95,2.51z"/>
   <path class="fil0 str0" d="M1195.51 293.19l9.33 2.2c-20.08,143.98 -40.86,285.32 -51.41,433.61 87.93,-13.66 138.26,-37.27 180.45,-88.14 49.26,-59.39 64.95,-215.96 82.47,-315.7 5.84,-33.28 26.09,-91.62 -15.08,-96.69l-205.76 64.72z"/>
   <path class="fil0 str0" d="M1216.76 1550.46c12.82,45.67 61.45,113.62 85.8,137.56 90.27,88.78 217.41,89.51 308.95,2.87 33.47,-31.67 59.61,-88.46 81.13,-142.85 69.99,-176.85 89.49,-375.26 27.53,-563.4 -11.95,-36.3 -53.63,-133.41 -77.57,-147.31 11.21,35.59 31.56,54.27 54.32,139.96 42.9,161.49 19.74,340.85 -39.78,488.84 -38.17,94.9 -81.3,173.85 -184.58,197.86 -101.92,23.7 -188.69,-16.91 -243.91,-98.97 -7.01,-10.41 -2.96,-6.72 -11.9,-14.57z"/>
   <path class="fil0 str0" d="M1131.2 947.29c10.09,-18.31 14.64,-121.96 16.52,-154.85 -76.79,8.76 -144.85,3.98 -216.02,-15.92 -34.54,-9.66 -56.52,-17.83 -85.26,-34.29l-68.82 -54.17c1.84,47.03 8.7,95.76 16.43,141.49 4.68,27.68 13.51,28.52 34.8,42.2 79.61,51.17 200.02,98.22 302.35,75.53z"/>
   <path class="fil0 str0" d="M1113.52 1283.99l7.98 -111.79 -12.6 -2.78c-40.68,-7.64 -196.13,5.99 -178.43,-58.28 4.37,-15.85 19.09,-22.74 37.85,-20.4 43.45,5.42 77.12,25.05 157.35,11.96l5.95 -89.63 -16.64 1.54c-45.09,-10.8 -94.16,14.67 -233.9,-44.53 -19.22,-8.15 -45.55,-25.16 -61.13,-29.39 30.12,115.35 70.64,186.21 122.73,280.65 28.91,52.41 112.14,77.37 170.83,62.64z"/>
   <path class="fil0 str0" d="M644.4 772.43c-81.69,66.61 -129.43,476.72 42.66,474.3 123.55,-1.73 46.2,-151.67 21.08,-211.74 -34.06,-81.46 -78.9,-159.47 -63.74,-262.56z"/>
   <path class="fil0 str0" d="M1509.27 773.09c11.98,105.02 -26.5,175.38 -62.51,258.82 -26.48,61.35 -104.32,214.15 20.44,214.85 153.71,0.87 136.29,-345.63 54.03,-460.91 -6.61,-9.26 -5.45,-7.52 -11.96,-12.76z"/>
   <path class="fil0 str0" d="M1082.69 1971.29l2.57 -61.89c-39.1,0.43 -130.17,9.07 -131,-34.74 -0.54,-28.44 22.47,-33.05 49.52,-30.67 26.87,2.37 51.29,3.67 78.74,3.63 8.91,-13.48 7.09,-39.89 7.89,-61.98 -27.76,0.69 -55.62,-0.39 -82.95,-2.62 -27.61,-2.25 -52.09,-4.08 -52.83,-32.04 -1.24,-46.68 63.23,-26.43 135.09,-26.98 7.27,-19.41 10.54,-73.44 2.86,-91.63 -51.65,-2.35 -99.27,12.19 -134.32,34.86l-85.98 91.76c0.47,55.61 1.84,145.2 31.89,180.6 36.43,42.91 110.51,33.14 178.53,31.7z"/>
   <path class="fil0 str0" d="M1147.72 792.44c-1.88,32.89 -6.43,136.55 -16.52,154.85 78.62,-10.03 168.93,-53.18 223.77,-96.19 22.65,-17.76 28.92,-140.35 28.54,-169.66l-22.9 20.9c-59.39,60.11 -124.98,76.34 -212.88,90.09z"/>
   <path class="fil0 str0" d="M1114.98 1014.62l16.64 -1.54 -5.95 89.63c55.91,-6.26 104.06,-25.13 147.87,-47.04 33.13,-16.57 34.51,-11.67 47.2,-49.47 6.65,-19.81 19.28,-51.74 21.33,-72.11 -98.83,54.05 -111.83,57.36 -211.01,75.52l-16.07 5.01z"/>
   <path class="fil0 str0" d="M1108.9 1169.42l12.6 2.78 -7.98 111.79c39.93,-6.69 82.41,-20.85 101.19,-55.51 16.87,-31.13 41.37,-67.94 53.84,-101.21 -22.32,8.44 -46.07,17.92 -72.45,24.68 -18.87,4.83 -76.19,10.48 -87.2,17.46z"/>
   <path class="fil0 str0" d="M1090.4 1785.64c-0.8,22.09 1.02,48.49 -7.89,61.98 48.38,-1.09 158.78,-6.64 191.89,-30.71l6.86 -57.61c-67.86,10.85 -114.09,26.44 -190.87,26.34z"/>
   <path class="fil0 str0" d="M1085.26 1909.4l-2.57 61.89c33.35,0.41 102.88,4.23 130.31,-6.76 31.49,-12.61 53.19,-39 58,-78.89 -67.23,12.7 -112.81,22.64 -185.75,23.75z"/>
   <path class="fil0 str0" d="M1089.71 1724c33.01,-0.94 120.93,-4.41 144.22,-19.08 -15.81,-23.34 -21.67,-35.64 -51.98,-50.88 -28.39,-14.28 -55.32,-19.65 -89.38,-21.67 7.68,18.19 4.41,72.21 -2.86,91.63z"/>
  </g>
  <g>
   <path class="fil1 str1" d="M332.1 10.42l1497.68 0c176.93,0 321.68,144.76 321.68,321.68l0 1537.54c0,176.93 -144.76,321.68 -321.68,321.68l-1497.68 0c-176.93,0 -321.68,-144.76 -321.68,-321.68l0 -1537.54c0,-176.93 144.76,-321.68 321.68,-321.68z"/>
  </g>
 </g>
</svg>
