<?xml version="1.0" encoding="UTF-8"?>
<!DOCTYPE svg PUBLIC "-//W3C//DTD SVG 1.1//EN" "http://www.w3.org/Graphics/SVG/1.1/DTD/svg11.dtd">
<!-- Creator: CorelDRAW -->
<svg xmlns="http://www.w3.org/2000/svg" xml:space="preserve" width="2.16188in" height="2.20173in" version="1.1" style="shape-rendering:geometricPrecision; text-rendering:geometricPrecision; image-rendering:optimizeQuality; fill-rule:evenodd; clip-rule:evenodd"
viewBox="0 0 2161.88 2201.74"
 xmlns:xlink="http://www.w3.org/1999/xlink"
 xmlns:xodm="http://www.corel.com/coreldraw/odm/2003">
 <defs>
  <style type="text/css">
   <![CDATA[
    .str0 {stroke:#856443;stroke-width:20.83;stroke-miterlimit:2.61313}
    .fil1 {fill:none}
    .fil0 {fill:#856443}
   ]]>
  </style>
 </defs>
 <g id="Layer_x0020_1">
  <metadata id="CorelCorpID_0Corel-Layer"/>
  <path class="fil0" d="M1459.72 704.3c-197.54,44.11 -89.41,449.39 -315.3,514.84 -55.61,16.11 -130.6,9.13 -177.73,-16.16 -150,-80.48 -126.36,-300.17 -193.16,-431.52 -49.85,-98.03 -174.15,-76.91 -254.04,45.81 -54.31,83.41 -88.43,195.28 -105.09,311.79 -37.77,264.12 23.3,507.25 168.32,643.82 89.24,84.04 190.02,54.78 247.92,-68.32 37.46,-79.66 54.46,-182.98 191.64,-224.76 58.4,-17.78 120.97,-11.87 174.88,9.48 53.21,21.07 88.33,56.31 114.08,93.98 45.91,67.17 56.66,244.5 188.88,225.66 92.72,-13.22 161.38,-130.82 196.99,-219.2 42.64,-105.83 65.09,-228.56 60.81,-356.06 -4.24,-126.05 -31.22,-238.54 -76,-340.75 -32.42,-73.98 -116.64,-212.17 -222.19,-188.6zm83.26 132.57c-11.77,11.21 9.81,26 32.85,65.54 24.44,41.95 45.42,109.66 57.5,158.18 3.95,15.87 11.82,93.77 31.9,73.86 14.98,-14.85 -29.89,-150.57 -37.97,-172 -10.1,-26.8 -61.86,-146.95 -84.29,-125.58zm-1058.56 400.55c0.03,18.65 -0.98,41.69 5.76,55.09l14.28 0.54c6.57,-15 3.54,-100.92 5.96,-127.52 7.06,-77.4 22.4,-148.49 55.64,-216.19 8.28,-16.87 14.7,-27.77 24.45,-42.41 4.15,-6.23 30.63,-39.8 30.96,-40.59 4.19,-10.31 0.76,-17.67 -11.46,-15.69 -8.54,1.39 -12.96,9.79 -18.27,16.55 -32.67,41.53 -53.89,79.71 -71.32,133.13 -24.35,74.62 -36.12,152.06 -35.99,237.08z"/>
  <path class="fil0" d="M1029.83 401.78c4.67,33.09 14.25,61.17 17.06,100.11 2.68,37.03 1.57,77.47 -3.91,113.67 -11.26,74.34 -46.8,112.2 -120.9,121.1 4.85,32.1 15.25,68.33 21.48,102.49 24.63,135.02 24.05,213.95 36.35,346.28 46.3,12.79 130.67,38.93 186.56,-0.06 4.55,-32.1 1.41,-82.69 2.5,-117.49 4.36,-139.23 13.45,-191.25 32.65,-328.6l-9.13 -3.56c-0.93,-0.28 -2.05,-0.6 -3.08,-0.89 -2.37,-0.65 -9.04,-1.87 -12.24,-2.63 -104.52,-24.8 -102.03,-142.05 -90.93,-232.9 4.89,-39.99 16.15,-68.31 21.78,-102.41 -32.07,-2.29 -47.07,-3.32 -78.2,4.88z"/>
  <path class="fil0" d="M982.07 1521.23c-8.85,71.58 -7.41,166.1 -12.33,240.34 -8.63,130.25 -27.07,110.45 137.19,110.45 142.11,0 110.51,32.97 84.2,-246.19 -3.36,-35.71 -4.27,-86.96 -10.98,-119.28 -80.31,-24.51 -128.28,-18.83 -198.09,14.68z"/>
  <path class="fil0" d="M913.63 712.6c47.06,5.44 83.93,-26.84 95.82,-55.83 34.11,-83.17 24.21,-349.63 -99.02,-326.17 -37.89,7.21 -84.46,28.85 -101.57,51.16 -38.33,49.95 35.08,175.19 57.96,225.97 12.47,27.67 32.39,81.57 46.81,104.87z"/>
  <path class="fil0" d="M1210.57 713.09c26.11,-70.68 67.93,-138.2 97.64,-207.43 14.69,-34.24 38.32,-85.11 10.39,-119.2 -17.78,-21.7 -61.95,-48.2 -99.33,-56.77 -77.85,-17.84 -106.3,117.82 -112.29,186.54 -3.52,40.35 -4.85,100.48 7.74,137.37 10.71,31.37 49.94,61.53 95.84,59.5z"/>
  <g>
   <path class="fil1 str0" d="M332.1 10.42l1497.68 0c176.93,0 321.68,144.76 321.68,321.68l0 1537.54c0,176.93 -144.76,321.68 -321.68,321.68l-1497.68 0c-176.93,0 -321.68,-144.76 -321.68,-321.68l0 -1537.54c0,-176.93 144.76,-321.68 321.68,-321.68z"/>
  </g>
 </g>
</svg>
