<?xml version="1.0" encoding="UTF-8"?>
<!DOCTYPE svg PUBLIC "-//W3C//DTD SVG 1.1//EN" "http://www.w3.org/Graphics/SVG/1.1/DTD/svg11.dtd">
<!-- Creator: CorelDRAW -->
<svg xmlns="http://www.w3.org/2000/svg" xml:space="preserve" width="2.16188in" height="2.20173in" version="1.1" style="shape-rendering:geometricPrecision; text-rendering:geometricPrecision; image-rendering:optimizeQuality; fill-rule:evenodd; clip-rule:evenodd"
viewBox="0 0 2161.88 2201.74"
 xmlns:xlink="http://www.w3.org/1999/xlink"
 xmlns:xodm="http://www.corel.com/coreldraw/odm/2003">
 <defs>
  <style type="text/css">
   <![CDATA[
    .str0 {stroke:#856443;stroke-width:20.83;stroke-miterlimit:2.61313}
    .fil1 {fill:none}
    .fil0 {fill:#856443}
   ]]>
  </style>
 </defs>
 <g id="Layer_x0020_1">
  <metadata id="CorelCorpID_0Corel-Layer"/>
  <path class="fil0" d="M626.96 2002.46l350.91 -0.05c3.78,-43.27 -2.85,-348.8 -3.54,-394.82 -1.62,-108.85 -7.2,-363.84 34.09,-444.26 65.08,-126.78 271.93,-183.92 413.47,-223.76 129.78,-36.54 133.23,-41.21 207.12,71.49 72.24,110.17 65.97,150.75 -83.62,115.72 -118.01,-27.63 -300.37,-29.32 -411.16,33.05 -27.24,15.33 -74.55,53.5 -69.34,91.45 47.93,-4.27 38.07,-51.44 140.8,-75.02 64.09,-14.7 135.01,-15.61 198.97,-0.8 212.22,49.17 110.72,230.63 -6.76,173.86 -5.8,-49.85 45.35,-37.98 78.42,-58.72 0.89,-42.57 -50.09,-40.13 -97.52,-38.76 -65.28,1.87 -168.22,13.71 -224.22,43.5 -46.57,24.78 -40.24,31.3 -26.5,81.17 -17.7,-9.38 -4.26,-9.94 -25.44,-14.91 7.22,36.27 28.58,48.71 32.12,80.87 -41.2,0.82 -52.18,-25.36 -63.81,-58 -1.47,-4.11 -3.16,-9.95 -5.02,-13.57l-10.42 -12.71c-20.36,29.63 13.91,92.93 13.85,189.35 -0.04,64.09 -6.23,394.08 -0.58,454.95l153 -0.16c18.96,-27.92 44.5,-368.41 58.56,-405.34 27.17,-71.41 95.67,-35.15 173.55,-27.93 78.28,7.26 124.21,-16.44 124.32,-95.29 0.05,-35.6 -10.72,-66.58 4.85,-95.87 27.09,-50.95 31.7,-10.31 14.96,-80.82 20.58,-6.66 41.42,-20.62 43.13,-45.47 1.83,-26.42 -15.47,-41.72 -12.85,-78.86 54.6,-13.4 129.32,-12.91 60.25,-133.52 -23.17,-40.46 -75.06,-117.81 -81.82,-172.21 -3.14,-25.25 37.82,-57.85 -3.43,-218.5 -17.91,-69.78 -41.72,-124.09 -81.48,-172.28 -215.19,-260.83 -773.8,-307.75 -1010.69,102.23 -67.75,117.24 -87.74,268.03 -37.72,410.31 62.57,177.98 211.09,343.58 194.26,558.97 -5.45,69.76 -39.16,421.65 -40.72,454.73zm226.01 -1185.69c-74.94,25.22 -83.18,107.84 -41.44,175.78 23.88,38.87 33.72,36.94 43.74,90.06 7.36,39.03 18.33,72.75 57.74,76.65 77,7.61 57.51,-97.51 58.94,-202.9 0.59,-44.03 6.2,-78.94 -20.83,-112.7 -17.96,-22.43 -57.52,-40.57 -98.15,-26.89z"/>
  <g>
   <path class="fil1 str0" d="M332.1 10.42l1497.68 0c176.93,0 321.68,144.76 321.68,321.68l0 1537.54c0,176.93 -144.76,321.68 -321.68,321.68l-1497.68 0c-176.93,0 -321.68,-144.76 -321.68,-321.68l0 -1537.54c0,-176.93 144.76,-321.68 321.68,-321.68z"/>
  </g>
 </g>
</svg>
