<?xml version="1.0" encoding="UTF-8"?>
<!DOCTYPE svg PUBLIC "-//W3C//DTD SVG 1.1//EN" "http://www.w3.org/Graphics/SVG/1.1/DTD/svg11.dtd">
<!-- Creator: CorelDRAW -->
<svg xmlns="http://www.w3.org/2000/svg" xml:space="preserve" width="2.16188in" height="2.20173in" version="1.1" style="shape-rendering:geometricPrecision; text-rendering:geometricPrecision; image-rendering:optimizeQuality; fill-rule:evenodd; clip-rule:evenodd"
viewBox="0 0 2161.88 2201.74"
 xmlns:xlink="http://www.w3.org/1999/xlink"
 xmlns:xodm="http://www.corel.com/coreldraw/odm/2003">
 <defs>
  <style type="text/css">
   <![CDATA[
    .str0 {stroke:#856443;stroke-width:20.83;stroke-miterlimit:2.61313}
    .fil1 {fill:none}
    .fil0 {fill:#856443}
   ]]>
  </style>
 </defs>
 <g id="Layer_x0020_1">
  <metadata id="CorelCorpID_0Corel-Layer"/>
  <g id="_1338815732304">
   <path class="fil0" d="M645.78 443.31c87.08,0 46.54,80.19 138.6,101.64 34.42,-29.91 33.62,-30.61 36.77,-92.59 1.74,-34.09 -3.76,-27.95 15.39,-49.54 11.78,-13.28 30.19,-22.35 48.34,-21.91 115.5,2.8 18.33,176.19 112.02,164.05 44.29,-5.74 46.22,-101.64 110.88,-101.64 128.79,0 27.72,147.81 27.72,147.84 0,29.76 9.13,40.28 26.63,56.53l10.33 8.15c56.35,-4.69 53.25,-29.8 99.04,-39.53 56.34,-11.97 76.52,24.21 76.52,76.49 0,54.37 -92.41,46.03 -92.41,110.88 0,53.23 74.9,46.2 129.36,46.2 24.89,37.16 27.72,11.23 27.72,73.92 0,30.38 -37.68,51.35 -65.54,54.58 -44.35,5.15 -91.54,-10.11 -91.54,37.82 0,98.23 92.41,17.53 92.41,147.84 0,26.22 -31.9,46.2 -55.44,46.2 -46.54,0 -147.85,-94.17 -147.85,18.48 0,40.96 36.96,19.02 36.96,101.64 0,36.82 -54.7,68.77 -97.46,42.8 -39.59,-24.04 -29.28,-89 -87.34,-89 -52.47,0 18.39,27.72 -110.88,27.72 -134.15,0 -49.22,-27.72 -120.12,-27.72 -51.47,0 -55.33,101.64 -120.13,101.64 -134.8,0 -27.72,-150.92 -27.72,-166.32 0,-28.8 -32.98,-48.01 -60.59,-42.51 -0.04,0.01 -151.94,87.8 -151.94,-22.17 0,-48.7 27.53,-58.31 59.49,-79.13 66.46,-43.3 32.91,-64.1 32.91,-87.19 -9.83,-2.29 -232.12,-10.19 -137.17,-118.69 16.94,-19.36 20.49,-18.43 53.82,-20.1 69.49,-3.49 66.26,3.76 92.59,-46.01 8.12,-62.66 -92.41,-35.72 -92.41,-138.6 0,-19.81 29.6,-69.53 95,-40.41 15.18,6.76 44.36,25.04 57.05,27.6 105.7,21.3 17.17,-132.57 16.75,-145.68 -1.01,-31.53 29.56,-63.27 62.2,-63.27zm-397.33 443.53c0,167.4 20.83,263.35 116.21,401.24 32.78,47.39 101.18,115.42 147.85,147.83 439.79,305.51 1001.85,-18.63 1001.85,-521.36 0,-344.02 -295.43,-637.57 -600.62,-637.57 -213.59,0 -334.21,43.95 -482.8,191.72 -93.28,92.76 -182.49,235.96 -182.49,418.13z"/>
   <path class="fil0" d="M1274.11 1432.01c10.26,38.4 18.09,25.72 39.34,53.81 50.43,66.65 -66.41,25.43 87.72,179.5l203.28 203.29c118.82,118.83 105.99,120.42 217.14,9.24 115.97,-116 127.12,-108.52 4.62,-231l-203.28 -203.29c-73.08,-73.09 -89.7,-110.56 -154.77,-66.99 -17.33,-25.88 -39.84,-55.58 -73.93,-64.68 -8.27,30.96 -89.16,111.85 -120.12,120.12z"/>
   <path class="fil0" d="M830.58 1117.84c-60.13,0 -66.16,-34.5 -101.64,18.48 26.29,98.43 255.24,21.74 304.37,-19.65 24.72,-20.83 14.46,7.3 18.51,-27.88 10.89,-94.42 -104.17,29.05 -221.24,29.05z"/>
   <path class="fil0" d="M599.58 886.84c0,70.96 -7.85,89.05 46.2,101.64 45.73,-68.29 -5.58,-67.13 35.32,-177.21 28.28,-76.1 89.48,-70.69 29.36,-127.72 -62.7,16.74 -110.88,119.82 -110.88,203.28z"/>
   <path class="fil0" d="M932.23 683.55c0,35.78 52.61,34.5 80.98,66.86 24.96,28.47 32.02,65.38 48.37,99.46l46.2 0c20.47,-87.85 -72.57,-172.17 -113.83,-192.47 -27.74,-13.65 -61.73,-13.5 -61.73,26.15z"/>
   <path class="fil0" d="M784.38 766.71l0 36.96c62.78,33.22 65.91,22.34 92.41,-27.72 -10.9,-20.6 -15.42,-27.82 -27.72,-46.2 -24.2,0 -64.69,-4.8 -64.69,36.96z"/>
   <path class="fil0" d="M1080.06 914.56l-9.24 64.68c121.1,64.08 121.13,-108.11 9.24,-64.68z"/>
   <path class="fil0" d="M691.98 1025.44c0,45.94 9.24,-8.98 9.24,36.96 139.04,32.39 70.23,-83.16 46.2,-83.16 -11.81,0 -24.32,5.79 -33.45,12.75 -8.55,6.51 -21.99,26.81 -21.99,33.45z"/>
  </g>
  <g>
   <path class="fil1 str0" d="M332.1 10.42l1497.68 0c176.93,0 321.68,144.76 321.68,321.68l0 1537.54c0,176.93 -144.76,321.68 -321.68,321.68l-1497.68 0c-176.93,0 -321.68,-144.76 -321.68,-321.68l0 -1537.54c0,-176.93 144.76,-321.68 321.68,-321.68z"/>
  </g>
 </g>
</svg>
