<?xml version="1.0" encoding="UTF-8"?>
<!DOCTYPE svg PUBLIC "-//W3C//DTD SVG 1.1//EN" "http://www.w3.org/Graphics/SVG/1.1/DTD/svg11.dtd">
<!-- Creator: CorelDRAW -->
<svg xmlns="http://www.w3.org/2000/svg" xml:space="preserve" width="2.16188in" height="2.20173in" version="1.1" style="shape-rendering:geometricPrecision; text-rendering:geometricPrecision; image-rendering:optimizeQuality; fill-rule:evenodd; clip-rule:evenodd"
viewBox="0 0 2161.88 2201.74"
 xmlns:xlink="http://www.w3.org/1999/xlink"
 xmlns:xodm="http://www.corel.com/coreldraw/odm/2003">
 <defs>
  <style type="text/css">
   <![CDATA[
    .str0 {stroke:#856443;stroke-width:20.83;stroke-miterlimit:2.61313}
    .fil1 {fill:none}
    .fil0 {fill:#856443}
   ]]>
  </style>
 </defs>
 <g id="Layer_x0020_1">
  <metadata id="CorelCorpID_0Corel-Layer"/>
  <g id="_1338731069168">
   <path class="fil0" d="M1255.82 945.3c-0.45,189.8 -139.02,304.39 -325.13,312.13 -101.19,4.21 -172.63,-38.91 -237.5,-81.09 -235.11,-152.91 -500.05,119.73 -410.74,420.33 33.46,112.62 109.52,204.36 202.15,273.46 18.01,13.44 77.99,55.8 100.48,62.18l78.07 -143.26c-20.16,-21.56 -146.12,-67.78 -207.86,-203.62 -53.87,-118.52 -5.11,-267.58 82.69,-284.64 93.6,-18.19 165.98,138.94 206.34,201.66 52.27,81.23 118.56,149.99 221.22,191.03 433.21,173.18 929.38,-176.11 931.62,-615.02 1.03,-200.21 -109.52,-419.24 -312.28,-439 -84.67,-8.26 -225.91,56.29 -302.02,-49.5 -48.51,-67.43 -65.56,-135.22 -54.25,-221.87 3.59,-27.46 12.87,-55.07 15.83,-79.06 -11.89,-7.96 -135.87,-42.62 -158.19,-47.06 -45.28,120.88 -25.94,275.3 26.74,381.52 55.96,112.83 143.11,203.24 142.83,321.83zm241.74 -201.35c-68.25,7.14 -128.4,34.22 -145.7,86.68 -16.24,49.24 19.32,99.44 0.25,206.26 -34.03,190.61 -209.13,294.89 -383.52,314.49 -73.56,8.27 -161.65,-12.78 -124.06,92.19 33.64,93.93 154.68,168.54 279.29,186.62 137.98,20.02 272.34,-20.68 370.58,-79.93 53.43,-32.22 90.92,-61.53 130.9,-100.67 286.58,-280.49 175.61,-737.34 -127.73,-705.64z"/>
   <path class="fil0" d="M1706.97 1275.02c-59.14,-49.95 -65.4,19.05 -108.2,-8.5 -21.65,-13.94 -37.39,-12.35 -57.83,0.62 -29,18.4 -31.78,-2.51 -54.87,-8.47 -30.8,-7.95 -38.47,11.92 -55.65,14.96 -22.35,3.95 -28.57,-18.76 -58.26,-16.3 -23.84,1.98 -31.93,25.78 -56.66,13.5 -19.83,-9.84 -32.66,-23.67 -55.76,-6.05 -7.72,5.89 -12.57,11.2 -20.84,17.23 -97,70.7 -204.41,106.26 -327.34,108.11 -31.65,0.48 -48.36,-4.38 -37.2,32.93 6.28,20.97 16.66,37.66 27.57,51.86 88.76,115.51 290.16,159.91 469.32,94.86 81.09,-29.45 146.25,-71.38 198.51,-115.37 33.8,-28.46 119.4,-124.25 137.22,-179.38zm-191.37 44.09c-45.46,15.09 -21.62,73.63 18.17,61.5 39.21,-11.96 21.33,-74.61 -18.17,-61.5zm-146.79 139.35c-33.91,18.24 -9.91,60.79 21.43,48.18 32.06,-12.91 9.85,-65.01 -21.43,-48.18zm-123.54 -95.13c-49.35,19.48 -18.09,85.2 25.95,68.42 40.59,-15.46 20.94,-86.93 -25.95,-68.42zm-164.68 99.22c-28.84,17.52 -3.6,52.07 21.46,41.28 27.07,-11.64 9.17,-59.9 -21.46,-41.28z"/>
   <path class="fil0" d="M1479.05 899.66c-65.14,17.56 -37.08,108.2 22.6,93.54 61.14,-15.01 39.06,-110.16 -22.6,-93.54z"/>
   <path class="fil0" d="M1587.92 1056.46c-49.32,25.02 -12.65,90.18 32.38,71.44 45.5,-18.94 17.86,-96.93 -32.38,-71.44z"/>
   <path class="fil0" d="M1447.37 1115.4c-47.41,10.01 -33.23,79.5 14.87,69.78 44.09,-8.92 31.96,-79.66 -14.87,-69.78z"/>
  </g>
  <g>
   <path class="fil1 str0" d="M332.1 10.42l1497.68 0c176.93,0 321.68,144.76 321.68,321.68l0 1537.54c0,176.93 -144.76,321.68 -321.68,321.68l-1497.68 0c-176.93,0 -321.68,-144.76 -321.68,-321.68l0 -1537.54c0,-176.93 144.76,-321.68 321.68,-321.68z"/>
  </g>
 </g>
</svg>
