<?xml version="1.0" encoding="UTF-8"?>
<!DOCTYPE svg PUBLIC "-//W3C//DTD SVG 1.1//EN" "http://www.w3.org/Graphics/SVG/1.1/DTD/svg11.dtd">
<!-- Creator: CorelDRAW -->
<svg xmlns="http://www.w3.org/2000/svg" xml:space="preserve" width="2.16188in" height="2.20173in" version="1.1" style="shape-rendering:geometricPrecision; text-rendering:geometricPrecision; image-rendering:optimizeQuality; fill-rule:evenodd; clip-rule:evenodd"
viewBox="0 0 2161.88 2201.74"
 xmlns:xlink="http://www.w3.org/1999/xlink"
 xmlns:xodm="http://www.corel.com/coreldraw/odm/2003">
 <defs>
  <style type="text/css">
   <![CDATA[
    .str0 {stroke:#856443;stroke-width:20.83;stroke-miterlimit:2.61313}
    .fil1 {fill:none}
    .fil0 {fill:#856443}
   ]]>
  </style>
 </defs>
 <g id="Layer_x0020_1">
  <metadata id="CorelCorpID_0Corel-Layer"/>
  <g id="_1338885923856">
   <path class="fil0" d="M1257.1 1066.8c-0.45,191.19 -140.04,306.62 -327.52,314.41 -101.93,4.24 -173.9,-39.19 -239.24,-81.69 -236.83,-154.03 -503.71,120.61 -413.74,423.41 33.7,113.45 110.32,205.85 203.63,275.46 18.15,13.54 78.56,56.2 101.22,62.63l78.64 -144.31c-20.3,-21.71 -147.19,-68.27 -209.39,-205.11 -54.26,-119.39 -5.15,-269.54 83.3,-286.72 94.28,-18.32 167.19,139.96 207.85,203.14 52.66,81.82 119.43,151.09 222.85,192.43 436.39,174.45 936.19,-177.4 938.45,-619.52 1.03,-201.68 -110.33,-422.31 -314.58,-442.22 -85.29,-8.32 -227.56,56.7 -304.23,-49.86 -48.87,-67.92 -66.04,-136.22 -54.65,-223.5 3.61,-27.67 12.96,-55.48 15.94,-79.64 -11.98,-8.02 -136.86,-42.93 -159.34,-47.41 -45.61,121.76 -26.13,277.32 26.93,384.31 56.37,113.66 144.16,204.73 143.87,324.19zm243.51 -202.82c-68.75,7.19 -129.34,34.46 -146.77,87.32 -16.36,49.6 19.46,100.17 0.25,207.77 -34.28,192.02 -210.67,297.05 -386.33,316.8 -74.1,8.33 -162.84,-12.88 -124.97,92.86 33.88,94.62 155.82,169.77 281.34,187.99 138.99,20.17 274.33,-20.83 373.29,-80.52 53.82,-32.46 91.58,-61.98 131.86,-101.4 288.67,-282.54 176.9,-742.75 -128.67,-710.81z"/>
   <path class="fil0" d="M1711.56 1398.94c-59.57,-50.32 -65.89,19.19 -109,-8.57 -21.81,-14.05 -37.66,-12.44 -58.26,0.62 -29.21,18.53 -32.02,-2.53 -55.27,-8.53 -31.02,-8 -38.75,12.01 -56.06,15.07 -22.51,3.98 -28.78,-18.9 -58.69,-16.41 -24.02,2 -32.16,25.96 -57.07,13.6 -19.97,-9.91 -32.89,-23.84 -56.17,-6.1 -7.78,5.93 -12.67,11.28 -21,17.35 -97.71,71.22 -205.91,107.04 -329.74,108.91 -31.88,0.48 -48.72,-4.41 -37.48,33.17 6.32,21.13 16.78,37.94 27.77,52.24 89.41,116.36 292.29,161.09 472.76,95.56 81.69,-29.66 147.32,-71.9 199.96,-116.21 34.05,-28.67 120.27,-125.17 138.23,-180.69zm-192.77 44.41c-45.8,15.2 -21.78,74.17 18.3,61.95 39.5,-12.05 21.49,-75.16 -18.3,-61.95zm-147.86 140.37c-34.15,18.37 -9.98,61.24 21.58,48.53 32.3,-13 9.93,-65.48 -21.58,-48.53zm-124.45 -95.83c-49.72,19.62 -18.22,85.83 26.14,68.93 40.88,-15.57 21.1,-87.57 -26.14,-68.93zm-165.89 99.95c-29.06,17.65 -3.63,52.44 21.62,41.59 27.26,-11.73 9.24,-60.34 -21.62,-41.59z"/>
   <path class="fil0" d="M1481.96 1020.83c-65.62,17.69 -37.35,108.99 22.77,94.23 61.58,-15.12 39.34,-110.97 -22.77,-94.23z"/>
   <path class="fil0" d="M1591.64 1178.78c-49.68,25.21 -12.73,90.83 32.62,71.96 45.83,-19.07 17.99,-97.64 -32.62,-71.96z"/>
   <path class="fil0" d="M1450.06 1238.16c-47.76,10.08 -33.48,80.09 14.98,70.29 44.42,-8.98 32.19,-80.24 -14.98,-70.29z"/>
  </g>
  <g>
   <path class="fil1 str0" d="M332.1 10.42l1497.68 0c176.93,0 321.68,144.76 321.68,321.68l0 1537.54c0,176.93 -144.76,321.68 -321.68,321.68l-1497.68 0c-176.93,0 -321.68,-144.76 -321.68,-321.68l0 -1537.54c0,-176.93 144.76,-321.68 321.68,-321.68z"/>
  </g>
 </g>
</svg>
