<?xml version="1.0" encoding="UTF-8"?>
<!DOCTYPE svg PUBLIC "-//W3C//DTD SVG 1.1//EN" "http://www.w3.org/Graphics/SVG/1.1/DTD/svg11.dtd">
<!-- Creator: CorelDRAW -->
<svg xmlns="http://www.w3.org/2000/svg" xml:space="preserve" width="2.16188in" height="2.20173in" version="1.1" style="shape-rendering:geometricPrecision; text-rendering:geometricPrecision; image-rendering:optimizeQuality; fill-rule:evenodd; clip-rule:evenodd"
viewBox="0 0 2161.88 2201.74"
 xmlns:xlink="http://www.w3.org/1999/xlink"
 xmlns:xodm="http://www.corel.com/coreldraw/odm/2003">
 <defs>
  <style type="text/css">
   <![CDATA[
    .str0 {stroke:#856443;stroke-width:20.83;stroke-miterlimit:2.61313}
    .fil1 {fill:none}
    .fil0 {fill:#856443}
   ]]>
  </style>
 </defs>
 <g id="Layer_x0020_1">
  <metadata id="CorelCorpID_0Corel-Layer"/>
  <path class="fil0" d="M671.37 1666.26l0.48 38 79.51 1.03 0.69 141.43 -28.6 0.65 -0.92 177.26 -208.25 0.74 -0.86 26.18c-15.55,10 -23.24,7.7 -29.88,26.57 -12.95,36.8 29.57,63.73 57.54,43.95 14.22,-10.06 15.55,-20.06 16.7,-40.87l653.58 0.09c0,76.36 91.99,50.26 73.55,-3.85 -6.53,-19.17 -21.32,-20.26 -30.54,-26.22 -2.78,-1.8 -2.69,-21.46 -2.98,-25.81l-207.09 -0.01 -0.88 -177.82 -28.37 -0.29 -1.07 -141.67 80.15 -0.52 0.17 -38.63c43.48,-1.57 87.82,0.54 131.02,0.36 26.91,-0.11 51.47,-16.02 61.9,-37.59 6.33,-13.11 1.2,-18.17 16.85,-18.17 5.44,1.3 4.13,3.98 6.18,15.9 8.78,51.01 71.68,39.25 113.22,39.25 41.33,0 98,11.15 103.09,-47.75 1.2,-13.87 -1.19,-8.37 6.52,-16.02 17.59,-17.44 9.77,-46.9 -13.51,-52.2 -12.11,-2.76 -244.03,-1.6 -260.18,-0.76l-0.59 46.24c-21.68,4.87 -784.27,-1.55 -869.37,-1.65 -40.1,-0.05 -85.34,1.93 -124.78,-1.21 -3.75,-11.24 6.9,-31.76 9.2,-43.19 -17.65,-1.59 -70.46,-3.06 -82.63,4.09 -16.48,9.69 -18.82,33.1 -7.78,45.99 5.87,6.85 8.09,3.87 10.31,12.67 2.73,10.8 0.96,42.39 35.23,51.96 16.05,4.48 404.86,1.8 442.38,1.91z"/>
  <path class="fil0" d="M268.09 1588.83l986.6 3.73c-0.07,-58.67 3.78,-130.9 -0.33,-187.71 -1.94,-26.89 -16.9,-47.91 -33.41,-58.69 -26.1,-17.03 -46.08,-13.08 -79.23,-11.94 -300.5,10.39 -387.07,25.12 -677.29,75.68 -83.33,14.52 -146.57,15.35 -174.94,106.82 -5.04,16.24 -20.59,58.36 -21.4,72.1z"/>
  <path class="fil0" d="M1519.98 1001.09c-14.16,-1.03 -44.87,-13.64 -55.2,-11.83 -8.97,1.57 -14.95,11.24 -9.37,20.98 4.59,8 15.96,6.78 24.47,11.75 -9.87,5.01 -14.38,3.98 -22.19,11.67 -17.68,17.41 -10.92,60.56 -10.92,94.21 0,66.16 -6.52,82.64 55.55,84.43 3.93,6.44 -0.31,5.97 4.42,12.39 3.94,5.36 8.85,4.36 9.94,9.06l-0.04 263.97 -31 -0.1c8.05,-21.48 38.87,-54.89 18.71,-112.82 -44.46,-127.74 -232.8,-97.44 -232.8,38.19 0,92.13 94.25,142.59 166.57,109.39 15.11,-6.93 19.43,-12.25 30.12,-19.54 9.95,-6.77 35.92,-2.63 58.07,-4.54 10.98,-28.17 -8.86,-254.11 7.55,-295.83 23.15,-1.31 57.82,3.84 57.82,-41.81l0.02 -101.38c0.01,-40.11 -14.52,-44.13 -51.12,-46.76 4.77,-9.55 12.04,-19.77 18.13,-29.75 12.3,-20.17 9.98,-24.08 24.72,-24.08l117.89 0.09 -0.01 1017.45 -165.21 0.01c-33.65,-0.23 -31.24,1.62 -31.24,42.74 0,19.15 -14.08,20.88 -4.94,40.77 4.49,9.79 19.49,18.09 34.44,11.66 10.13,-4.36 17.9,-17.64 13.38,-32.62 -5.79,-19.2 -19.39,-5.93 -13.05,-34.57l365.2 0.02 1.07 19.48c-40.56,21.88 4.96,71.35 30.22,41.13 15.2,-18.18 -1.23,-28.85 -1.83,-45.71 -1.05,-29.6 7.94,-42.94 -23.77,-42.9l-175.99 0.01 -0.26 -1017.85 113.17 0.16c26.63,-0.01 16.91,-7.5 43.8,36.65 14.24,23.38 19.84,29.67 54.42,20.15 6.62,-1.82 61.35,-10.13 39.3,-32.72 -9.63,-9.87 -48.99,7.36 -62.69,8.56 -6.65,-12.57 -15.84,-26.41 -23.76,-39.26 -15.2,-24.67 -9.39,-21.46 -44.3,-21.38l-259.08 0c-34.73,-0.02 -29.98,-4.96 -45.43,20.23 -8.77,14.3 -16.7,27.4 -24.77,40.29zm-56.09 108.6l110.7 0.11c1.26,-80.53 7.72,-69.88 -85.78,-69.88 -16.65,0 -24.02,6.43 -25.12,22.49 -0.94,13.72 -0.35,33.3 0.2,47.28z"/>
  <path class="fil0" d="M726.4 1268.2l0.04 85.2c46.71,-4.8 91.73,-13.37 138.45,-17.54 49.06,-4.38 99.74,-5.83 148.11,-10.17l0.38 -62.91c20.39,10.05 45.18,56.8 78.89,57.8 23.85,0.7 33.58,-13.27 45.36,-23.47l107.97 -96.99c10.93,-9.12 26.47,-21.98 36.1,-31.54 19.38,-19.22 11.54,-27.26 12.26,-52.97l59.92 -3.18c12,-0.57 12.91,0.56 13.27,-9.34 -11.3,-7.61 -63.27,1.87 -81.25,0.23 7,-5.54 46.03,-21.93 58.92,-27.27 9.86,-4.09 14.81,-3.12 15.8,-13.51 -9.24,-6.68 -64.26,21.5 -75.14,26.54 -31.25,14.46 -29.28,-22.28 -77.11,21.91l-113.82 100.22c-37.46,-27.82 -99.34,-109.54 -138.09,-118.75 -19.82,-4.72 -60.15,-2.49 -82.69,-2.49 -63.82,0 -106.64,-9.21 -135.76,35.02 -5.46,8.3 -12.74,13.92 -20.98,21.87l-66.28 64.19c-9.92,-4.43 -108.13,-95.71 -125.82,-110.56 -20.89,-17.54 -37.32,-12.6 -58.91,-2.6 -17.49,-15.3 -59.18,-92.98 -72.46,-100.34 -13.46,21.05 15.58,52.5 29.58,74.13 8.93,13.81 4.24,5.07 12.43,9.91 4.72,2.79 18.91,22.95 18.96,28.22 0.18,18.72 -21.57,27.7 13.93,62.93 34.44,34.18 106.74,96.02 144.96,129.94 8.19,7.27 13.62,14.44 28.39,17.12 42.99,7.81 59.42,-40.69 84.61,-51.58z"/>
  <path class="fil0" d="M1089.54 687.38c-94.95,16.37 -121.08,105.06 -69.1,187.91 31.25,49.8 113.41,112.85 205.27,97.82 132.26,-21.65 118.38,-190.75 -11.33,-260.19 -34.64,-18.54 -78.69,-33.51 -124.83,-25.55zm91.36 54.93c-55.03,13.63 -20.09,92.98 29.28,80 47.87,-12.59 19.84,-92.16 -29.28,-80zm-115.11 11.21c-46.27,17.67 -12.47,89.83 32.02,75.55 43.82,-14.06 13.92,-93.08 -32.02,-75.55zm29.09 108.47c-40.65,20.19 8.42,83.11 44.04,64.7 36.6,-18.93 -6.89,-83.15 -44.04,-64.7zm116.12 -1.78c-53.43,18.39 -13.86,93.98 29.9,78.28 45.73,-16.41 13.04,-93.07 -29.9,-78.28z"/>
  <path class="fil0" d="M459.69 687.97c-80.86,14 -147.18,70.19 -169.48,137.85 -32.46,98.52 46.04,162.21 142.1,147.04 76.71,-12.11 148.66,-72.31 169.06,-137.72 30.53,-97.87 -43.97,-164.09 -141.68,-147.18zm22.97 174.05c-50.7,18.89 -37.8,81.71 7.93,65.33 44.08,-15.79 41.83,-83.87 -7.93,-65.33zm31.51 -108.07c-53.81,20.46 -31.26,92.08 15.02,74.43 45.54,-17.37 34.24,-93.15 -15.02,-74.43zm-139.23 106.02c-55.92,15.69 -40.38,91.87 8.3,79.26 49.51,-12.83 40.75,-93.02 -8.3,-79.26zm31.25 -117.59c-58.33,12.94 -47.6,92.7 6.58,79.9 52.7,-12.46 45.52,-91.46 -6.58,-79.9z"/>
  <path class="fil0" d="M730.93 941.29l258.57 0.02c1.19,-46.85 3.55,-87.5 -22.13,-116.5 -28.35,-32 -54.13,-32.92 -107.1,-32.92 -53.05,-0 -77.54,0.8 -106.15,31.63 -26.42,28.46 -24.9,70.29 -23.18,117.78z"/>
  <path class="fil0" d="M618.72 539.24c-11.52,2.2 -195.32,50.03 -201.93,55.05 -9.63,7.32 -10.98,58 -14,74 -8.77,7 -21.41,9.83 -31.87,15.3 -50.22,26.26 -93.88,73.3 -105.91,130.29 -5.88,27.85 -3.45,63.82 11.85,82 -2.29,-46.05 -2.26,-64.62 17.72,-101.61 28.82,-53.39 81.71,-93.23 140.31,-109.97 47.18,-13.47 67.15,-6.98 110.83,2.28 -8.54,-11.78 -33.83,-20.54 -47.06,-23.65 -27.33,-6.43 -41.26,-1.56 -65.82,-1.93l8.76 -43.93c8.39,-5.21 167.04,-46.14 184.13,-50.5 19.05,-4.86 20.4,-6.21 22.3,-26.65l19.43 -174.85c1.87,-14.55 5.74,-33.58 -12.2,-33.44 -16.48,0.13 -14.87,19.4 -16.46,33.67 -3.4,30.46 -15.76,154.59 -20.08,173.93z"/>
  <path class="fil0" d="M1162.37 616.33l6.03 44.67c-24.96,-0.99 -40.49,-4 -65.7,2.19 -18.74,4.6 -37.7,13.68 -48.25,24.7 106.61,-32.53 209.12,23.95 252.95,105.46 29.66,55.16 15.46,75.8 18.13,105.63 1.7,-7.09 9.6,-19.21 12.4,-32.32 3.02,-14.13 3.14,-31.21 0.75,-45.75 -11.26,-68.7 -71.01,-129.01 -139.72,-151.26 -21.72,-91.15 17.85,-66.8 -79.06,-93.84 -45.39,-12.67 -91.78,-26.19 -137.46,-36.76 -4.43,-17.46 -16.87,-143.21 -19.89,-170.81 -1.46,-13.33 0.44,-32.72 -12.56,-36.09 -20.89,-5.42 -18.56,15.99 -16.7,31.07l19.27 172.19c3.41,30.85 -1.28,24.84 56.66,40.22 25.6,6.8 50.51,13.52 76.51,20.54 24.06,6.5 53.27,15.8 76.65,20.14z"/>
  <path class="fil0" d="M740.91 983.15c19.68,1.83 39.65,7.89 56.89,9.08 7.51,0.52 18.42,-1.7 28.65,-1.68l99.19 0.68c18.3,-1.45 38.87,-7.33 56.62,-9.37l5.26 -32.19 -251.64 -0.31 5.03 33.78z"/>
  <path class="fil0" d="M743.4 988.19c4.13,9.58 4.1,7.05 25.57,10.56 10.16,1.66 23.23,3.4 32.07,5.63l0.26 40.02c-6.35,1.38 -7.61,0.36 -12.78,4.35 5.83,3.53 6.45,4.54 15.43,4.48 5.44,10.2 -8.21,-4.23 1.3,4.64 3.8,3.54 24.15,10.02 31.95,10.46l-29.64 -13.02c29.51,7.14 45.19,23.43 93.94,5.63 6.58,-2.4 26.13,-8.16 30.2,-10.38 -0.99,-6.67 2.43,-0.36 -3.72,-4.19 -0.11,-0.07 -5.2,-1.89 -5.91,-2.25 -0.07,-11.54 -2.8,-31.5 1.72,-39.85 13.39,-7.45 48.57,-0.75 55.83,-16.09 -3.25,-2.29 1.41,-0.95 -4.85,-1.75l-20.86 2.92c-46.74,8.97 -42.22,4.25 -91.37,4.25 -64.1,0 -45.44,6.09 -106.02,-5.8l-13.1 0.38z"/>
  <path class="fil0" d="M925.23 1005.78l-0.24 37.04c11.06,1.16 9.63,4.15 17.69,-1.32 4.09,-2.78 9.01,-8.69 12.37,-12.59 7.88,-9.13 14.83,-16.93 19,-30.77l-48.82 7.64z"/>
  <path class="fil0" d="M798 1040.01l0.27 -31.54c-8.96,-5.05 -42.12,-9.46 -49.89,-9.1 3.97,9.83 26.04,45 39.02,44.58 0.04,0 5.12,-1.19 5.2,-1.22 6.17,-2.21 2.7,-0.98 5.39,-2.71z"/>
  <path class="fil0" d="M734.1 1833.84c5.89,-3.15 3.91,4.46 4.93,-9.59l-0.07 -95.08c-0.26,-12.72 1.4,-8.5 -4.85,-11.4 -4.79,6.97 -2.71,18.94 -2.7,27.38l-0.05 81.18c1.48,10.19 0.71,4.27 2.75,7.52z"/>
  <g>
   <path class="fil1 str0" d="M332.1 10.42l1497.68 0c176.93,0 321.68,144.76 321.68,321.68l0 1537.54c0,176.93 -144.76,321.68 -321.68,321.68l-1497.68 0c-176.93,0 -321.68,-144.76 -321.68,-321.68l0 -1537.54c0,-176.93 144.76,-321.68 321.68,-321.68z"/>
  </g>
 </g>
</svg>
