<?xml version="1.0" encoding="UTF-8"?>
<!DOCTYPE svg PUBLIC "-//W3C//DTD SVG 1.1//EN" "http://www.w3.org/Graphics/SVG/1.1/DTD/svg11.dtd">
<!-- Creator: CorelDRAW -->
<svg xmlns="http://www.w3.org/2000/svg" xml:space="preserve" width="2.16188in" height="2.20173in" version="1.1" style="shape-rendering:geometricPrecision; text-rendering:geometricPrecision; image-rendering:optimizeQuality; fill-rule:evenodd; clip-rule:evenodd"
viewBox="0 0 2161.88 2201.74"
 xmlns:xlink="http://www.w3.org/1999/xlink"
 xmlns:xodm="http://www.corel.com/coreldraw/odm/2003">
 <defs>
  <style type="text/css">
   <![CDATA[
    .str0 {stroke:#856443;stroke-width:20.83;stroke-miterlimit:2.61313}
    .fil1 {fill:none}
    .fil0 {fill:#856443}
   ]]>
  </style>
 </defs>
 <g id="Layer_x0020_1">
  <metadata id="CorelCorpID_0Corel-Layer"/>
  <path class="fil0" d="M726.08 1221.99c0.49,116.85 -14.49,445.34 17.43,531.97 80.87,219.45 387.73,243.69 499.32,31.17 70.09,-133.48 -1.21,-373.54 47.14,-501.88 25.72,-68.27 73.48,-117.06 163.67,-112.5 16.98,26.52 43.23,140.09 180.95,129.39 81.32,-6.31 149.1,-75.8 151.4,-160.56 5.12,-188.84 -262.73,-251.37 -329.71,-42.8 -108.3,12.19 -120.58,12.33 -181.24,75.78 -160.49,167.9 10.72,500.57 -137.02,633.65 -115.74,104.25 -280.99,48.34 -327.83,-78.61 -22.06,-59.8 -14.55,-418.63 -12.1,-507.37 157.82,-11.63 209.21,-59.52 263.56,-175.52 44.34,-94.64 79.39,-239.06 91.08,-353.37 16.27,-159.08 -14.49,-254.97 -178,-259.52 -51.21,-1.43 -38.34,-28.29 -84.94,-23.49 -70.16,7.22 -73.08,104.59 -11.65,122.95 40.07,11.97 58.91,-14.2 76.81,-28.07 97.29,-1.09 129.92,19.55 130.06,117.52 0.17,116.18 -43.1,298.35 -91.69,401.02 -30.14,63.7 -55.03,99.85 -129.88,116.81 -70.94,16.06 -150.45,15.34 -218.58,-6.32 -61.59,-19.59 -88.43,-68.55 -115.62,-131.21 -29.39,-67.72 -148.16,-434.84 -37.1,-485.5 14.34,-6.54 32.16,-10.11 49.68,-11.72 40.28,-3.7 31.72,-3.63 52.13,14.62 59.27,53.01 141.63,-32.98 86.57,-91.7 -10.32,-11.01 -24.26,-18.12 -42.97,-18.79 -57.78,-2.06 3.95,18.57 -98.38,24.43 -88.87,5.09 -152.13,47.93 -161.73,148.54 -13.76,144.26 62.45,481.69 164.31,573.87 60.82,55.04 97.99,42.19 184.33,67.22zm870.2 -179c-126.16,33.15 -71.51,215.6 48.98,182.54 113.92,-31.25 75.63,-215.29 -48.98,-182.54z"/>
  <g>
   <path class="fil1 str0" d="M332.1 10.42l1497.68 0c176.93,0 321.68,144.76 321.68,321.68l0 1537.54c0,176.93 -144.76,321.68 -321.68,321.68l-1497.68 0c-176.93,0 -321.68,-144.76 -321.68,-321.68l0 -1537.54c0,-176.93 144.76,-321.68 321.68,-321.68z"/>
  </g>
 </g>
</svg>
