<?xml version="1.0" encoding="UTF-8"?>
<!DOCTYPE svg PUBLIC "-//W3C//DTD SVG 1.1//EN" "http://www.w3.org/Graphics/SVG/1.1/DTD/svg11.dtd">
<!-- Creator: CorelDRAW -->
<svg xmlns="http://www.w3.org/2000/svg" xml:space="preserve" width="2.16188in" height="2.20173in" version="1.1" style="shape-rendering:geometricPrecision; text-rendering:geometricPrecision; image-rendering:optimizeQuality; fill-rule:evenodd; clip-rule:evenodd"
viewBox="0 0 2161.88 2201.74"
 xmlns:xlink="http://www.w3.org/1999/xlink"
 xmlns:xodm="http://www.corel.com/coreldraw/odm/2003">
 <defs>
  <style type="text/css">
   <![CDATA[
    .str0 {stroke:#856443;stroke-width:20.83;stroke-miterlimit:2.61313}
    .fil1 {fill:none}
    .fil0 {fill:#856443}
   ]]>
  </style>
 </defs>
 <g id="Layer_x0020_1">
  <metadata id="CorelCorpID_0Corel-Layer"/>
  <path class="fil0" d="M1589.95 1402.64c-34.92,-27.78 -104.3,-67.73 -146,-78.95 -0.71,35.54 -9.74,64.97 -10.93,94.11 106.53,38.07 84.44,171.72 84.95,264.56 0.43,69.34 -2.73,130.57 -70.97,129.86 -20.17,-0.21 -42.99,3.26 -56.49,-6.96 -15.33,-11.61 -15.07,-33.47 6.62,-39.35 27.7,-7.51 30.26,12.54 49.82,12.86 27.54,0.46 28.72,-8.53 32.71,-33.21 3.06,-18.89 4.17,-39.06 4.63,-58.51 1.94,-80.23 12.61,-186.3 -40.42,-225.75 -32.34,-24.06 -68.38,-18.45 -96.13,5.56 -22.89,19.81 -36.02,45.11 -46.73,84.59 -10.61,39.14 -33.51,121.98 -38.24,161.52 -8.99,75.19 51.72,26.17 77.69,54.86 14.4,15.91 1.17,34.61 -17.43,36.88 -23.96,2.94 -18.51,-7.57 -49.81,-16.12 -17.31,-4.72 -31.74,-13.27 -38.43,-25.63 -22.04,-40.78 22.64,-172.83 33.8,-218.42 12.74,-52.05 35.44,-95.76 80.59,-119.82 19.94,-10.63 26.71,-8.89 49.85,-14.56 7.86,-34.45 13.11,-62.85 10.59,-100.01 -18.94,-9.99 -44.21,-17.54 -63.64,-25.87 -20.03,-8.59 -42.2,-23.86 -58.65,-30.04l-142.52 527.3c-9.54,-88.55 -12.5,-229.29 -18.67,-328.52 -1.65,-26.49 3.75,-26.44 17.45,-41.17 6.18,-6.65 21.57,-23.64 25.94,-31.35l-49.04 -46.74c-53.45,17.74 -38.67,9.5 -79.7,0.13 -7.27,6.69 -17.27,18.05 -23.68,26.04 -7.88,9.81 -15.3,16.61 -22.63,26.25 4.26,10.8 19.87,22.46 28.33,30.83 11.19,11.06 20.57,12.51 19.72,35.94l-8.92 215.98c-0.73,18.66 -1.36,37.37 -2.17,56.02 -0.68,15.8 0.79,42.32 -6.78,51.31l-77.42 -260.58c-13.21,-43.47 -25.37,-86.59 -39.16,-130.86 -6.83,-21.93 -31.25,-114.61 -39.55,-127.34 -28.73,11.99 -61.64,39.02 -121.03,56.55 -2.19,41.7 3.06,112.95 11.48,151.86l30.19 7.59c23.35,8.02 43.6,28.77 49.22,55.74 18.24,87.59 -105.14,128.82 -142.78,45.56 -22.56,-49.91 12.46,-77.11 30.32,-96.02 -0.8,-22.41 -6.18,-49.37 -8.59,-72.76 -2.66,-25.84 -3.36,-49.2 -4.27,-75.35 -19.75,1.9 -91.41,43.23 -108.22,54.19 -129.72,84.6 -153.69,179.7 -149.65,343.41 1.08,43.89 -4.09,116 16.83,147.08 42.61,63.31 275.67,124.19 353.71,137.5 245.07,41.8 615.86,23.94 825.14,-119.38 53.19,-36.43 54.98,-27.18 56.03,-108.76 1.65,-293.57 -5.91,-293.71 -116.97,-382.05zm-833.07 118.19c-30.94,9.73 -17.57,57.85 15.98,47.9 28.62,-8.49 17.55,-58.45 -15.98,-47.9zm365.41 -367.25l-79.3 0.12c4.51,14.31 22.87,41.67 38.84,41.78 18.53,0.13 34.8,-24.86 40.46,-41.89zm-329.69 -320.12c-16.67,6.11 -23.23,2.54 -21.5,27.92 1.42,20.81 6.76,20.62 3.76,45.53 -6.46,53.71 12.31,55.33 17.52,82.42 8.9,46.28 41.65,18.57 46.63,56.85 7.61,58.56 30.77,97.59 66.48,138.53l74.94 79.39c68.02,50.84 96.77,81.75 169.75,23.26 22.41,-17.96 37.76,-22.68 55.14,-47.78 14.95,-21.58 61.54,-52.9 93.37,-112.18 10.57,-19.69 22.4,-52.57 25.21,-78.09 4.56,-41.43 36.04,-14.36 46.06,-56.33 9.95,-41.67 24.07,-31.94 18.33,-84.96 -2.72,-25.19 2.36,-26.15 3.69,-46.9 1.63,-25.28 -5.92,-21.5 -20.88,-27.66 4.34,-75.81 13.3,-48.74 5.96,-151.7 -4.15,-58.23 -14.3,-89.7 -51.07,-115.48 -141.2,-99 -356.94,-132.87 -488.01,0.1 -95.09,96.48 -36.42,221.97 -45.38,267.08zm223.78 264.53c-31.32,3.41 -48.65,9.73 -55.91,38.42 -7.88,31.15 3.22,58.02 20.52,70.52 26.49,19.14 47.41,7.64 77.64,4.02 39.9,-4.77 51.01,4.27 84.95,6.46 64.64,4.19 78.44,-79.72 42.68,-107.86 -24.38,-19.19 -132.95,-15.58 -169.87,-11.56zm-156.13 -406.06c-16.78,30.22 -5.5,71.11 1.51,104.58 1.81,8.67 -5,95.78 -6.65,111.03l-36.72 -0.09c-3.31,-26.13 -6.87,-30.99 -24.01,-42.82 2.28,29.82 6.41,-1.87 2.08,48.46 -2.03,23.52 -0.39,34.3 11.31,48.07 3.72,4.39 3.33,2.16 4.9,8.76 2.13,8.98 -2.78,19.53 12.46,30.34 47.52,33.71 25.04,10 42.06,73.6 10.24,38.24 43.61,96.33 69.63,108.63 -3.34,-45.95 2.12,-76.83 35.8,-93.32 55.97,-27.41 163.12,-26.79 218.49,0.15 38.46,18.72 33.5,46.74 35.54,95.47 40.19,-31.98 68.8,-91.16 76.3,-145.85 6.09,-44.43 42.11,-12.01 46.82,-64.11 1.79,-19.74 13.85,-10.66 16.88,-38.87 2.19,-20.38 -3.73,-35.06 -2.15,-53.86 -7.22,8.72 -6.63,11.83 -7.51,25.6l-30.13 -0.13c-3.94,-25.08 -3.55,-61.35 -16.15,-79.21 -7.05,-9.99 -19.13,-11.88 -18.5,-28.15 0.57,-14.87 26.84,-86.49 -12.16,-115.96 -25.43,-19.21 -48.45,-4.44 -72.9,4.4 -70.34,25.41 -183.38,25.46 -260.97,15.91 -18.71,-2.31 -73.29,-14.34 -85.93,-12.64z"/>
  <path class="fil0" d="M560.34 1044.79l-106.12 0.7 -1.69 65.27 107.23 0.3 0.84 116.49 73.01 0.23 1.18 -116.85 108.21 0.06c0.41,-17.22 2.67,-50.22 -1.6,-65.53l-106.82 -0.04 -0.11 -115.69 -72.88 -0.15 -1.25 115.2z"/>
  <g>
   <path class="fil1 str0" d="M332.1 10.42l1497.68 0c176.93,0 321.68,144.76 321.68,321.68l0 1537.54c0,176.93 -144.76,321.68 -321.68,321.68l-1497.68 0c-176.93,0 -321.68,-144.76 -321.68,-321.68l0 -1537.54c0,-176.93 144.76,-321.68 321.68,-321.68z"/>
  </g>
 </g>
</svg>
