<?xml version="1.0" encoding="UTF-8"?>
<!DOCTYPE svg PUBLIC "-//W3C//DTD SVG 1.1//EN" "http://www.w3.org/Graphics/SVG/1.1/DTD/svg11.dtd">
<!-- Creator: CorelDRAW -->
<svg xmlns="http://www.w3.org/2000/svg" xml:space="preserve" width="2.16188in" height="2.20173in" version="1.1" style="shape-rendering:geometricPrecision; text-rendering:geometricPrecision; image-rendering:optimizeQuality; fill-rule:evenodd; clip-rule:evenodd"
viewBox="0 0 2161.88 2201.74"
 xmlns:xlink="http://www.w3.org/1999/xlink"
 xmlns:xodm="http://www.corel.com/coreldraw/odm/2003">
 <defs>
  <style type="text/css">
   <![CDATA[
    .str0 {stroke:#856443;stroke-width:20.83;stroke-miterlimit:2.61313}
    .fil1 {fill:none}
    .fil0 {fill:#856443}
   ]]>
  </style>
 </defs>
 <g id="Layer_x0020_1">
  <metadata id="CorelCorpID_0Corel-Layer"/>
  <g id="_1338771310400">
   <path class="fil0" d="M1094.35 1129.23l-141.02 -262.45c-17.17,-34.32 -26.45,-61.68 -60.56,-76.99 -71.92,-32.27 -96.4,66.77 -211.59,25.73 -97.26,-34.65 -100.33,-80.49 -174.83,18.29 -39.42,52.28 -253.17,337.43 -258.9,352.23 -1.69,4.35 -1.99,7.34 -3.32,10.94 -12.11,32.88 -72.22,8.44 -71.88,119.11 0.06,18.48 -5.41,47.41 8.17,60.13 16.39,15.37 39.15,3.77 42.28,-14.74 8.3,-49 -17.83,-85.14 31.78,-105.57 14.36,4.06 15.28,10.62 28.53,17.53 12.15,6.34 25.28,5.15 34.02,11.02 14.5,76.25 -13.79,647.39 9.86,669 10.75,9.82 31.98,9.08 39.52,-5.15 8.29,-15.65 3.6,-596.58 3.58,-621.68 -0.02,-19.09 1.26,-34.63 -3.11,-52.72 -5.41,-22.35 -0.37,-22.22 11.56,-37.66 17.82,-23.07 131.06,-182.66 147.94,-194.92 -2.93,57.8 -52.45,373.56 -65.55,467.76 -4.35,31.32 -16.64,65.67 3.79,85.32 35.17,33.82 136.7,21 193.99,21 39.41,0 288.74,4.93 315.64,-4.81 33.13,-12 42.02,-25.24 35.92,-66.19 -7.92,-53.2 -52.87,-345.98 -51.81,-375.17 21.73,40.24 42.95,82.53 65.53,122.51 11.28,19.97 25.61,36.94 56.61,37.95 91.42,2.97 175.19,-227.8 216.19,-262.85 4.93,89.9 0.46,193.03 0.46,284.4 0,132.3 25.42,104.52 183.77,104.7 48.02,0.06 96.06,-0.15 144.08,-0.12 32.11,0.02 76.16,2.59 76.92,-65.74 1.02,-91.78 -6.03,-199.61 0.69,-288.97 15.97,18.02 57.18,105.48 72.88,134.66 22.07,41.02 15.03,27.88 15.09,80.32l0.42 621.57c4.27,30.3 49.68,34.69 50.81,-9.99 3.13,-123.09 -0.17,-286.67 -0.17,-414.78 0,-66.74 -3.8,-145.52 0.67,-210.79 19.82,0.49 34.24,-4.26 47.96,-12.3 21.87,-12.81 17.39,-20.51 29.91,-33.63 35.93,25.41 4.17,86.72 22.91,110.89 7.9,10.19 23.24,11.02 33.18,5.4 18.09,-10.22 24.32,-106.13 -12.53,-145.62 -8.39,-8.99 -11.63,-13.23 -22.62,-19.32l-22.52 -9.21c-16.69,-7.04 -25.7,-33.99 -41.32,-64.1 -22.39,-43.17 -175.09,-335.56 -189.26,-352.11 -49.76,-58.07 -111.28,-14.62 -119.05,3.69 -12.33,29.06 -23.04,112.29 -33.6,149.86 -8.55,-18.77 -15.27,-51 -20.76,-71.4 -11.43,-42.42 2.02,-34.32 15.89,-68.19l-66.83 1.62c19.63,56.15 31.33,3.45 -11.82,142.03 -6,-12.64 -23.63,-112.37 -28.45,-139.04 -5.33,-29.48 -4.32,-18.82 -25.27,-34.31 -27.94,-20.65 -53.95,-16.01 -82.08,8.88 -18.11,16.02 -151.13,239.76 -176.78,283.52 -8.39,14.31 -35.82,61.6 -44.88,70.47zm-348.97 -213.76l1.53 -24.08c-53.93,-33.44 -50.07,57.85 -1.53,24.08zm-31.39 523.79c16.81,5.41 18.63,4.39 32.62,-6.07 2.45,-19.43 -2.57,-35.3 -23.35,-30.91 -20.81,4.39 -16.28,22.93 -9.27,36.98zm29.18 -162.21c-28.71,-13.01 -48.19,13.29 -30.3,30.5 16.37,15.76 44.09,-0.26 30.3,-30.5zm-27.54 -261.61c-4.63,8.01 -13.48,12.73 -5.89,28.02 4.84,9.76 17.56,12.3 27.61,7.52 16.74,-7.97 17.46,-46.81 -21.73,-35.54zm7.2 128.08c-29.28,10.72 -14.5,46.21 11.91,38.43 23.11,-6.8 13.57,-47.77 -11.91,-38.43z"/>
   <path class="fil0" d="M1654.24 1483.37l-137.08 -0.06 -0.1 423.31c0.3,107.54 134.43,102.17 137.27,7.02 3.67,-122.82 -0.1,-303.02 -0.1,-430.28z"/>
   <path class="fil0" d="M1487 1484.64l-137.05 -1.66 -0.04 423.56c0.36,42.35 19.38,78.41 67.74,79.07 42.16,0.57 68.35,-30.87 69.36,-72.08 3.19,-129.08 -0.02,-296.81 -0.02,-428.89z"/>
   <path class="fil0" d="M1465.5 502.65c-179,40.1 -115.54,307.53 59.63,267.22 64.46,-14.83 120,-80.26 103.98,-160.8 -13.36,-67.13 -81.06,-124.91 -163.61,-106.42z"/>
   <path class="fil0" d="M709.14 528.31c-185.98,29.97 -136.66,300.87 43.28,269.88 66,-11.37 124.26,-77.87 110.29,-157.73 -11.66,-66.68 -75.56,-124.72 -153.58,-112.15z"/>
   <path class="fil0" d="M708.93 1641.49l-133.46 -0.26c-6.59,22.39 -2.33,166.82 -2.33,201.99 0,47.09 -14.52,141.95 67.88,142.41 30.48,0.17 53.28,-18.02 63.12,-40.59 11.49,-26.34 8.52,-282.28 4.8,-303.55z"/>
   <path class="fil0" d="M877.43 1641.28l-137.09 0.3c1.07,41.81 -4.93,274.69 5.23,300.71 22.98,58.81 98.88,54.63 124.36,6.83 12.47,-23.4 7.69,-69.54 7.69,-98.88 0,-69.42 1.04,-139.65 -0.19,-208.96z"/>
   <path class="fil0" d="M649.96 519c29.5,-8.66 42.03,-18.28 78.96,-17.93 38.35,0.37 48.18,11.57 77.01,17.81 -3.59,-113.48 -157.72,-107.99 -155.97,0.11z"/>
  </g>
  <g>
   <path class="fil1 str0" d="M332.1 10.42l1497.68 0c176.93,0 321.68,144.76 321.68,321.68l0 1537.54c0,176.93 -144.76,321.68 -321.68,321.68l-1497.68 0c-176.93,0 -321.68,-144.76 -321.68,-321.68l0 -1537.54c0,-176.93 144.76,-321.68 321.68,-321.68z"/>
  </g>
 </g>
</svg>
