<?xml version="1.0" encoding="UTF-8"?>
<!DOCTYPE svg PUBLIC "-//W3C//DTD SVG 1.1//EN" "http://www.w3.org/Graphics/SVG/1.1/DTD/svg11.dtd">
<!-- Creator: CorelDRAW -->
<svg xmlns="http://www.w3.org/2000/svg" xml:space="preserve" width="2.16188in" height="2.20173in" version="1.1" style="shape-rendering:geometricPrecision; text-rendering:geometricPrecision; image-rendering:optimizeQuality; fill-rule:evenodd; clip-rule:evenodd"
viewBox="0 0 2161.88 2201.74"
 xmlns:xlink="http://www.w3.org/1999/xlink"
 xmlns:xodm="http://www.corel.com/coreldraw/odm/2003">
 <defs>
  <style type="text/css">
   <![CDATA[
    .str0 {stroke:#856443;stroke-width:20.83;stroke-miterlimit:2.61313}
    .fil1 {fill:none}
    .fil0 {fill:#856443}
   ]]>
  </style>
 </defs>
 <g id="Layer_x0020_1">
  <metadata id="CorelCorpID_0Corel-Layer"/>
  <path class="fil0" d="M1094.48 1033.76l-142.41 -265.03c-17.34,-34.65 -26.71,-62.29 -61.16,-77.75 -72.63,-32.59 -97.35,67.43 -213.68,25.98 -98.21,-35 -101.32,-81.29 -176.55,18.47 -39.81,52.79 -255.67,340.75 -261.45,355.7 -1.7,4.39 -2.01,7.41 -3.35,11.05 -12.23,33.2 -72.93,8.53 -72.59,120.28 0.06,18.67 -5.46,47.87 8.24,60.72 16.56,15.52 39.53,3.8 42.7,-14.89 8.38,-49.48 -18.01,-85.98 32.09,-106.61 14.5,4.1 15.43,10.72 28.81,17.7 12.27,6.4 25.53,5.2 34.36,11.13 14.65,77 -13.93,653.77 9.96,675.59 10.85,9.91 32.29,9.17 39.91,-5.2 8.37,-15.8 3.63,-602.45 3.61,-627.8 -0.01,-19.28 1.28,-34.97 -3.14,-53.23 -5.46,-22.57 -0.37,-22.44 11.67,-38.04 18,-23.3 132.35,-184.46 149.4,-196.84 -2.96,58.37 -52.97,377.24 -66.2,472.37 -4.4,31.63 -16.8,66.32 3.83,86.15 35.52,34.15 138.06,21.2 195.9,21.2 39.8,0 291.59,4.98 318.75,-4.86 33.46,-12.12 42.43,-25.49 36.27,-66.84 -8,-53.72 -53.39,-349.39 -52.32,-378.87 21.94,40.64 43.37,83.35 66.17,123.72 11.39,20.17 25.86,37.31 57.17,38.32 92.32,3 176.91,-230.04 218.32,-265.45 4.98,90.79 0.47,194.93 0.47,287.21 0,133.61 25.67,105.55 185.58,105.73 48.5,0.06 97.01,-0.15 145.5,-0.12 32.42,0.02 76.91,2.62 77.68,-66.39 1.03,-92.69 -6.09,-201.57 0.69,-291.81 16.13,18.2 57.74,106.52 73.6,135.98 22.3,41.43 15.18,28.16 15.24,81.11l0.43 627.69c4.31,30.6 50.17,35.03 51.31,-10.09 3.16,-124.3 -0.18,-289.49 -0.18,-418.87 0,-67.41 -3.83,-146.95 0.68,-212.87 20.02,0.49 34.57,-4.3 48.43,-12.42 22.09,-12.94 17.56,-20.71 30.2,-33.96 36.29,25.65 4.21,87.57 23.14,111.98 7.98,10.29 23.48,11.13 33.51,5.46 18.27,-10.32 24.56,-107.17 -12.65,-147.06 -8.47,-9.08 -11.74,-13.35 -22.84,-19.51l-22.74 -9.3c-16.85,-7.11 -25.96,-34.33 -41.73,-64.73 -22.61,-43.6 -176.81,-338.86 -191.13,-355.58 -50.24,-58.64 -112.38,-14.76 -120.22,3.72 -12.45,29.35 -23.27,113.4 -33.94,151.34 -8.63,-18.95 -15.42,-51.5 -20.97,-72.11 -11.54,-42.83 2.04,-34.66 16.04,-68.86l-67.49 1.64c19.82,56.71 31.64,3.48 -11.94,143.43 -6.06,-12.77 -23.86,-113.48 -28.73,-140.41 -5.38,-29.78 -4.36,-19.01 -25.52,-34.65 -28.21,-20.85 -54.48,-16.17 -82.89,8.96 -18.3,16.19 -152.63,242.13 -178.53,286.32 -8.47,14.45 -36.17,62.21 -45.33,71.17zm-352.4 -215.87l1.54 -24.32c-54.46,-33.78 -50.56,58.42 -1.54,24.32zm-31.69 528.95c16.98,5.46 18.81,4.43 32.94,-6.14 2.48,-19.61 -2.6,-35.65 -23.58,-31.21 -21.01,4.44 -16.44,23.15 -9.36,37.35zm29.46 -163.81c-28.99,-13.13 -48.66,13.43 -30.6,30.8 16.53,15.91 44.52,-0.26 30.6,-30.8zm-27.8 -264.19c-4.67,8.09 -13.61,12.85 -5.94,28.3 4.89,9.85 17.73,12.42 27.89,7.59 16.9,-8.05 17.64,-47.27 -21.94,-35.89zm7.27 129.34c-29.57,10.83 -14.64,46.66 12.02,38.81 23.34,-6.87 13.71,-48.24 -12.02,-38.81z"/>
  <path class="fil0" d="M1659.89 1391.39l-138.43 -0.06 -0.1 427.48c0.3,108.59 135.76,103.17 138.62,7.09 3.7,-124.02 -0.09,-306 -0.09,-434.51z"/>
  <path class="fil0" d="M1491 1392.67l-138.4 -1.68 -0.04 427.73c0.36,42.77 19.57,79.19 68.41,79.85 42.57,0.58 69.02,-31.17 70.05,-72.79 3.22,-130.35 -0.02,-299.74 -0.02,-433.12z"/>
  <path class="fil0" d="M1469.29 401c-180.77,40.5 -116.68,310.56 60.21,269.85 65.1,-14.98 121.19,-81.06 105,-162.39 -13.49,-67.79 -81.85,-126.14 -165.22,-107.46z"/>
  <path class="fil0" d="M705.48 426.92c-187.81,30.26 -138,303.84 43.71,272.54 66.65,-11.48 125.48,-78.64 111.38,-159.29 -11.78,-67.33 -76.31,-125.95 -155.09,-113.25z"/>
  <path class="fil0" d="M705.27 1551.06l-134.78 -0.27c-6.66,22.61 -2.36,168.47 -2.36,203.98 0,47.56 -14.67,143.34 68.55,143.81 30.78,0.17 53.8,-18.2 63.74,-40.98 11.6,-26.6 8.61,-285.06 4.85,-306.54z"/>
  <path class="fil0" d="M875.42 1550.86l-138.44 0.3c1.07,42.22 -4.98,277.39 5.28,303.67 23.21,59.39 99.86,55.17 125.59,6.9 12.59,-23.63 7.76,-70.22 7.76,-99.85 0,-70.1 1.06,-141.02 -0.19,-211.02z"/>
  <path class="fil0" d="M645.72 417.52c29.8,-8.74 42.44,-18.46 79.74,-18.1 38.72,0.37 48.65,11.69 77.77,17.99 -3.63,-114.6 -159.27,-109.06 -157.5,0.11z"/>
  <g>
   <path class="fil1 str0" d="M332.1 10.42l1497.68 0c176.93,0 321.68,144.76 321.68,321.68l0 1537.54c0,176.93 -144.76,321.68 -321.68,321.68l-1497.68 0c-176.93,0 -321.68,-144.76 -321.68,-321.68l0 -1537.54c0,-176.93 144.76,-321.68 321.68,-321.68z"/>
  </g>
 </g>
</svg>
