<?xml version="1.0" encoding="UTF-8"?>
<!DOCTYPE svg PUBLIC "-//W3C//DTD SVG 1.1//EN" "http://www.w3.org/Graphics/SVG/1.1/DTD/svg11.dtd">
<!-- Creator: CorelDRAW -->
<svg xmlns="http://www.w3.org/2000/svg" xml:space="preserve" width="2.16188in" height="2.20173in" version="1.1" style="shape-rendering:geometricPrecision; text-rendering:geometricPrecision; image-rendering:optimizeQuality; fill-rule:evenodd; clip-rule:evenodd"
viewBox="0 0 2161.88 2201.74"
 xmlns:xlink="http://www.w3.org/1999/xlink"
 xmlns:xodm="http://www.corel.com/coreldraw/odm/2003">
 <defs>
  <style type="text/css">
   <![CDATA[
    .str0 {stroke:#856443;stroke-width:20.83;stroke-miterlimit:2.61313}
    .fil1 {fill:none}
    .fil0 {fill:#856443}
   ]]>
  </style>
 </defs>
 <g id="Layer_x0020_1">
  <metadata id="CorelCorpID_0Corel-Layer"/>
  <path class="fil0" d="M744.65 1796.48c300.41,0 266.16,41.93 249.24,-197.58 -4.44,-62.8 -26.7,-149.41 -47.3,-202.39 -29.16,-75 -122.49,-178.84 -182.81,-247.69 -47.15,-53.83 -53.86,-89.91 -101.82,-80.83 -32.17,6.09 -52.24,29.16 -59.22,61.91 -21.83,102.53 155.87,189.57 117.34,228.09 -25.83,25.83 -106.76,-91.24 -121.96,-112.41 -72.03,-100.39 -4.06,-104.4 -45.45,-186.61 -15.64,-31.06 -56.51,-199.43 -150.56,-121.87 -42.3,34.88 -24.24,107.28 -17.58,169.08 19.45,180.62 51.18,343.39 172.75,455.78 100.14,92.58 151.18,88.65 153.09,156.86 1.12,39.8 -6.53,77.65 34.28,77.65zm-25.83 -1127.9c-18.48,79.33 -8.61,238.03 -8.61,327.18 0,32.92 -2.64,3.13 8.61,25.83 38.35,-28.1 25.87,-81.55 25.83,-146.37 -0.04,-60.27 0,-120.54 0,-180.81 19.73,13.21 33.48,41.89 47.38,13.56 5.02,-10.23 -1.23,-67.33 -73.21,-39.39zm697.41 25.83c0,57.4 0.02,114.8 0,172.2 -0.02,66.01 -12.97,126.55 25.83,154.98 10.41,-15.54 17.22,-15.14 17.22,-34.44l0 -266.91c0,-91.52 -100.33,-63.28 -92.11,-17.48 7.13,39.71 30.59,4.01 49.06,-8.35zm-637.14 -370.23c25.79,35.2 20.93,1.2 29.12,35.85 33.62,142.15 189.7,60.59 151.69,-18.63l34.44 0 0 -25.83 -34.44 0c0,-81.04 -15.85,-68.88 -103.32,-68.88 -35.38,0 -28.52,23.84 -35.19,42.31 -16.36,45.36 3.59,13.16 -42.3,35.18zm120.54 120.54c-72.82,0 -100.2,-24.52 -133.89,38.31 -12.37,23.08 -29.7,133.61 -29.7,168.33 33.99,0 34.94,2.71 60.27,8.61 0.85,-37.94 8.61,-40.26 8.61,-86.1l8.61 0c0,95.9 -28.43,390.97 -17.22,439.11 43.33,10.37 72.82,33.32 77.58,-94.62 1.83,-49.07 8.52,-78.3 8.52,-137.85 44.16,63.55 -6.07,241.08 68.88,241.08 69.04,0 29.09,-126.69 26.08,-181.06 -4.35,-78.72 -8.86,-143.43 -8.86,-232.21l8.61 0c0,142.5 68.88,88.46 68.88,77.49 0,-64.27 -9.63,-205.43 -68.95,-241.92 -44.95,-27.64 -28.39,0.84 -77.41,0.84zm284.13 -86.1c0,103.15 154.98,112.23 154.98,-17.22 0,-21.61 -25.85,-40.82 -32.57,-52.62l-6.87 -24.63c-7.06,-15.31 31.72,-17.46 -55.27,-17.46 -38.89,0 -15.89,6.52 -20.83,17.46 -12.39,27.39 8.78,-17.79 -2.97,15.09 -9.17,25.66 -11.07,10.71 -25.42,38.53 -8.49,16.46 -11.04,18.77 -11.04,40.85zm-77.49 327.18c0,20.74 68.88,51.83 68.88,-94.71l8.61 0c0,79.23 31.93,24.74 -26.96,196.91 -28.43,83.09 -33.61,92.33 18.35,104.43 -0.84,37.65 -31.98,129.15 25.83,129.15 43.13,0 43.05,-82.94 43.05,-129.15l34.44 0c0,159.84 36.22,130.15 77.49,120.54l0 -120.54c86.9,-23.2 -17.22,-73.71 -17.22,-318.57 20.37,29.3 13.8,53.91 20.74,74.74 13.15,39.45 -1.8,4.06 56.75,2.75 -4.75,-57.11 -20.02,-172.95 -72.08,-204.12l-160.46 -3.28c-58.11,28.3 -77.41,201.42 -77.41,241.84zm490.76 456.33c0,84.72 -107.09,211.07 -154.98,223.86 -18.62,-38.81 17.8,-65.15 49.65,-96.72 115,-113.98 51.09,-215.78 -19.25,-200.03 -36.72,8.22 -49.91,50.76 -75.63,79.33 -16.47,18.29 -19.74,24.83 -34.83,42.65l-105.74 126.72c-49.74,68.53 -67.6,130.99 -82.52,218.83 -7.5,44.15 -3.23,95.11 -10.85,144.18 -22.65,145.77 -0.35,115.54 253.35,115.54 59.33,0 18.68,-80.85 43.58,-120.01 27.42,-43.11 185.84,-107.89 244.36,-255.02 31.2,-78.43 82.03,-318.23 82.74,-408.85 0.56,-71.88 -72.82,-133.67 -132.32,-62.61 -16.33,19.5 -33.7,79.06 -52.53,120.26 -26.24,57.41 -5.03,22.88 -5.03,71.87z"/>
  <g>
   <path class="fil1 str0" d="M332.1 10.42l1497.68 0c176.93,0 321.68,144.76 321.68,321.68l0 1537.54c0,176.93 -144.76,321.68 -321.68,321.68l-1497.68 0c-176.93,0 -321.68,-144.76 -321.68,-321.68l0 -1537.54c0,-176.93 144.76,-321.68 321.68,-321.68z"/>
  </g>
 </g>
</svg>
