<?xml version="1.0" encoding="UTF-8"?>
<!DOCTYPE svg PUBLIC "-//W3C//DTD SVG 1.1//EN" "http://www.w3.org/Graphics/SVG/1.1/DTD/svg11.dtd">
<!-- Creator: CorelDRAW -->
<svg xmlns="http://www.w3.org/2000/svg" xml:space="preserve" width="2.16188in" height="2.20173in" version="1.1" style="shape-rendering:geometricPrecision; text-rendering:geometricPrecision; image-rendering:optimizeQuality; fill-rule:evenodd; clip-rule:evenodd"
viewBox="0 0 2161.88 2201.74"
 xmlns:xlink="http://www.w3.org/1999/xlink"
 xmlns:xodm="http://www.corel.com/coreldraw/odm/2003">
 <defs>
  <style type="text/css">
   <![CDATA[
    .str0 {stroke:#856443;stroke-width:20.83;stroke-miterlimit:2.61313}
    .fil1 {fill:none}
    .fil0 {fill:#856443}
   ]]>
  </style>
 </defs>
 <g id="Layer_x0020_1">
  <metadata id="CorelCorpID_0Corel-Layer"/>
  <path class="fil0" d="M1523.48 2107.07l51.07 0c25.39,-9.78 64.51,-11.52 93.54,-20.91 345.45,-111.72 336.64,-625.97 -24.16,-719.47 -151.65,-39.3 -253.72,15.61 -343.52,77.34 -32.57,-23.76 -77.51,-52.57 -94.82,-91.01 15.3,-21.68 32.92,-34.95 51.6,-58.6 74.54,-94.35 68.26,-137.86 124.98,-186.37 137.6,-117.68 28.82,-210.87 26.95,-214.13 -15.32,-26.75 35.44,-332.44 -51.57,-453.41 -82.35,-114.48 -219.35,-106.39 -279.45,-129.17l-97.72 0c-33.43,12.91 -85.61,7.4 -178.95,45.41 -54.22,22.07 -97.73,57.97 -125.98,99.1 -37.96,55.28 -24.46,123.43 -26.57,197.71 -2.17,76.69 -10.73,134.34 -9.04,217.49 -93.59,60.6 -55.69,217.34 27.39,260.39 44,22.8 26.79,4.82 47.09,53.71 39.43,94.97 86.5,126.97 118.67,176.83 -223.42,199.05 -131.35,77.32 -350.63,206.74 -65.8,38.84 -114.24,76.05 -155.04,125.22 -211.85,255.3 17.04,214.52 141.31,213.36 82.69,-0.78 166.06,-0.76 248.76,-0.03 163.48,1.45 326.31,3.99 489.74,4.04 24.37,11.06 36.35,45.13 63.04,70.62 143.2,136.8 159.69,90.41 253.32,125.15zm-728.69 -1111.65c5.64,15.62 -11.72,9.17 17.59,21.71l82.14 0.58c26.72,-9.35 15.75,-3.87 23.91,-24.51 -27.4,-11.19 -28,5.36 -62,6.5 -36.55,1.23 -34.07,-18.21 -61.63,-4.29zm325.28 0c1.44,3.93 -11.76,30.46 63.98,26.81 35.92,-1.74 49.54,-4.49 55.19,-35.19 -23.99,3.64 -38.68,12.88 -63.32,11.96 -17.19,-0.65 -16.53,-3.82 -28.74,-6.09 -25.98,-4.81 -16.39,-2.86 -27.11,2.51zm-156.73 230.42c-9.37,53.39 113.94,63.59 108.86,-2.22 -38.54,0.82 -12.06,18.14 -52.01,20.43 -41.9,2.41 -23.9,-23.39 -56.85,-18.2zm-190.22 -286.48c29.42,-5.6 32.38,-20.61 68.7,-21.35 40.18,-0.82 43.21,16.91 75.64,20.78 2.55,-53.32 -85.74,-50.69 -120.36,-34.73 -24.87,11.46 -24.98,9.98 -23.98,35.31zm347.39 -6.38c6.65,3.15 -1.1,6.08 13.06,3.29 20.87,-4.11 20.65,-18.52 57.9,-18.32 41.74,0.22 41.54,22.81 72.82,18.55 10.97,-60.45 -159.72,-51.07 -143.78,-3.52zm383.07 764.28c-43.76,-28.26 -113.61,-16.55 -132.67,7.71 -36.91,45.15 20.87,74.85 37.9,91.13 0.01,103.76 48.12,141.67 154.61,116.3 47.56,-11.33 65.03,-21.97 94.54,-54.12 40.78,-44.43 35.39,-43.52 38.55,-108.79 1.05,-21.57 95.55,-155.06 -19.12,-198.76 -47.33,-18.04 -92.84,1.47 -111.47,29.17 -22.51,33.47 -8.77,91.6 -21.34,122.43 -42.65,-14.09 7.81,-30.92 -73.08,-69.54 -51.17,-24.43 -26.68,-51.77 -54.63,-90.79 -18.56,11.27 -16.9,4.19 -10.42,37.56 19.03,98.04 79.98,49.55 97.14,117.7zm107.77 39.44c-18.98,8.12 -71.44,34.08 -86.11,36.93 6.5,-44.38 9.77,-16.38 40.32,-47.49 -8.6,-4.54 8.15,-12.87 -24.34,-0.65 -13.69,5.15 -61.84,44.43 -46.59,79.21 25.99,9.74 52.44,-7.13 86.63,-10.47 -3.7,11.3 -3.87,24.19 -41.61,32.4 -130.01,28.27 -34.27,-80.6 -63.11,-112.75 -26.69,-30.67 -48.04,-7.19 -58.92,20.53 -18.28,-6.1 -8.21,-4.62 -15.36,-9.98 -53.78,-40.36 28.86,5.85 -14.94,-12.43 -12,34.91 -0.93,43.36 25.75,56.97 11.05,-16.53 17.38,-34.39 38.02,-28.82 2.06,23.95 -32.28,47.64 -16.34,108.35 11.17,42.56 55.55,51.69 97.87,47.57 40.56,-3.95 73.22,-20.31 97.34,-42.65 32.7,-30.29 43.47,-45.31 43.69,-104.13 0.2,-54.7 34.1,-51.81 38.27,-101.8 7.74,-92.72 -124.15,-114.95 -140.37,-22.24 -16.18,92.47 27.19,81.97 39.81,111.46zm-626.39 -1223.06l-78.02 1.22c-9.11,47 -11.04,36.82 -0.2,73.51l77.86 2.4c0.12,70.39 -11.81,96.26 69.11,81.8 1.18,-2.03 2.41,-7.53 2.78,-6.47l6.81 -28.2c1.09,-10.79 -0.26,-31.55 -0.33,-43.4l78.39 -5.6c7.35,-42.49 10.74,-39.63 -1.02,-71.37l-77.74 -5.63c0.72,-28.39 4.95,-56.3 -9.32,-79.46 -79,-17.76 -69.2,13.88 -68.32,81.2zm-269.52 357.04l-0.52 146.64c-38.97,-44.18 -38.59,-62.91 -57.83,-93.21 -6.42,-10.12 -4.07,-7.1 -9.67,-12.27 -46.29,40.54 -19.69,135.9 8.89,167.89 18.94,21.2 50.89,23.76 67.64,41.36 15.1,15.86 98.41,275.11 288.87,277.85 119.66,1.72 215.68,-116.57 259.28,-190.98 65.91,-112.47 11.26,-57.69 91.99,-133.23 38.25,-35.79 81.81,-110.2 18.46,-149.61 -15.3,40.97 -37.8,79.53 -64.38,107.77l-0.06 -185.21c-64.12,-36.54 -88.26,-64.7 -126.53,-124.13 -167.2,-20.81 -96.65,33.04 -261.17,88.49 -69.14,23.31 -148.8,39.76 -214.96,58.63zm768.74 560.05c-93.92,22.76 -148.48,61.25 -188.26,119.91 -166.79,245.88 50.33,540.49 319.79,482.34 144.65,-31.22 276.05,-183.3 232.83,-373.49 -31.82,-140 -183.3,-272.64 -364.35,-228.75zm-718.55 31.06c8.39,194.65 355.37,247.06 461.2,74.47 15.11,-24.63 29.07,-38.49 36.9,-74.44 -11.72,-14.78 -71.56,-70.29 -87.7,-84.77 -103.78,60.47 -186.34,95.71 -315.75,2.23l-94.65 82.51z"/>
  <g>
   <path class="fil1 str0" d="M332.1 10.42l1497.68 0c176.93,0 321.68,144.76 321.68,321.68l0 1537.54c0,176.93 -144.76,321.68 -321.68,321.68l-1497.68 0c-176.93,0 -321.68,-144.76 -321.68,-321.68l0 -1537.54c0,-176.93 144.76,-321.68 321.68,-321.68z"/>
  </g>
 </g>
</svg>
