<?xml version="1.0" encoding="UTF-8"?>
<!DOCTYPE svg PUBLIC "-//W3C//DTD SVG 1.1//EN" "http://www.w3.org/Graphics/SVG/1.1/DTD/svg11.dtd">
<!-- Creator: CorelDRAW -->
<svg xmlns="http://www.w3.org/2000/svg" xml:space="preserve" width="2.16188in" height="2.20173in" version="1.1" style="shape-rendering:geometricPrecision; text-rendering:geometricPrecision; image-rendering:optimizeQuality; fill-rule:evenodd; clip-rule:evenodd"
viewBox="0 0 2161.88 2201.74"
 xmlns:xlink="http://www.w3.org/1999/xlink"
 xmlns:xodm="http://www.corel.com/coreldraw/odm/2003">
 <defs>
  <style type="text/css">
   <![CDATA[
    .str0 {stroke:#856443;stroke-width:20.83;stroke-miterlimit:2.61313}
    .fil1 {fill:none}
    .fil0 {fill:#856443}
   ]]>
  </style>
 </defs>
 <g id="Layer_x0020_1">
  <metadata id="CorelCorpID_0Corel-Layer"/>
  <g id="_1338829105584">
   <path class="fil0" d="M1606.05 1738.7c5.05,2.44 44.59,43.86 54.87,53.83 7.15,6.94 4.62,4.06 3.55,15.53 -3.56,37.88 22.32,55.9 48.57,81.82l129.97 129.98c12.73,12.7 52.62,55.35 66.82,63.14 9.74,5.35 23.59,8.35 36.37,7.21 52.46,-4.69 74.59,-64.32 47.12,-102.62 -6.25,-8.71 -13.96,-15.1 -20.98,-22.33 -7.31,-7.54 -14.1,-14.28 -21.62,-21.7 -42.47,-41.89 -88.18,-89.83 -129.98,-129.96 -20.56,-19.73 -47.12,-52.57 -69.48,-60.51 -17.8,-6.32 -23.18,-2.4 -40.21,-2.09 -3.33,-4.87 -22.66,-23.09 -28.39,-28.95 -5.59,-5.72 -26.31,-24.97 -28.89,-29.86l20.22 -26.63c82.76,-116.98 95.63,-277.22 27.43,-405.3 -10.64,-19.98 -33.26,-55.06 -47.46,-70.58 -2.38,-2.6 -3.15,-4.13 -5.33,-6.61 -2.08,-2.38 -3.8,-3.59 -5.85,-6 -9.32,-10.89 -18.65,-19.31 -29.34,-29.15 -2.28,-2.1 -3.71,-3.08 -6.42,-5.54 -26.01,-23.56 -72.39,-50.04 -103.15,-62.58 -123.23,-50.25 -265.19,-34.94 -372.81,41.74 -5.15,3.67 -9.42,6.92 -13.74,10.12l-25.97 21.7 -34.27 36.13c-27.21,33.81 -35.64,47.31 -55.29,86.61 -56.77,113.55 -44.88,269.79 24.78,374.14 9.31,13.95 30.05,43.57 41.47,53.86 4.37,3.93 6.99,7.57 11.07,11.67 105.96,106.27 262.49,142.46 407.03,92.31 37.27,-12.93 62.92,-27.94 93.46,-48.44 7.22,-4.85 21.85,-15.47 26.46,-20.98zm-275.68 -622.01c-170.62,13.08 -313.82,162.03 -298.79,349.96 5.57,69.71 36.27,141.21 81.43,190.38 67.66,73.66 162.66,116.15 268.93,107.31 66.8,-5.56 125.56,-30.04 174.13,-68.24 3.15,-2.48 8.09,-6.25 10.76,-8.76 19.23,-18.11 32.8,-30.37 49.09,-52.7 46.54,-63.78 69.86,-137.71 63.3,-220.19 -13.51,-169.75 -161.59,-312.1 -348.84,-297.75z"/>
   <path class="fil0" d="M386.74 1426.93c52.38,0.09 90.04,-22.94 115.41,-48.22l403.56 -403.37c38.88,-38.75 83.32,-82.17 121.24,-121.37 6.8,-7.02 13.16,-13.13 20.06,-20.02 3.67,-3.66 6.67,-6.55 10.35,-10.22 3.67,-3.67 7.56,-6.65 10,-11l-8.18 -5.24c-9.33,-5.55 -16.14,-10.85 -24.28,-17.94 -13.73,-11.96 -27.83,-28.75 -39.07,-44.37 -27.37,-38.02 -62.14,-105.68 -91.47,-132.73l-14.63 -13.54c-7.42,-6.21 -23.94,-17.27 -36.17,-20.59 -4.17,2.99 -9.28,8.81 -12.91,12.45l-191.17 191.17c-33.87,34.26 -67.31,68.26 -101.78,101.85 -34.79,33.91 -67.55,68.5 -102.35,102.36 -34.52,33.59 -67.79,67.67 -101.8,101.83l-76.19 76.55c-9.64,12.65 -11.9,13.56 -20.52,30.42 -27.29,53.41 -22.35,112.26 7.62,159.44 22.56,35.52 68.63,72.43 132.26,72.54zm472.57 -738.97c-13,3.6 -15.28,18.91 -4.41,25.94 7.8,5.05 40.29,11.88 67.66,42.83 11.15,12.62 25.41,5.07 26.65,-5.77 0.96,-8.39 -2.93,-11.17 -7.04,-14.94 -4.2,-3.86 -6,-6.99 -10.9,-10.76 -4.34,-3.34 -7.95,-6.72 -12.57,-10.17 -7.93,-5.91 -46.97,-30.58 -59.39,-27.13zm-230.96 202.54c-21.66,10.43 0.91,25.71 15.23,53.09 10.56,20.19 13.13,42.39 17.68,47.35 3.35,3.65 9.62,5.89 15.69,3.69 12.86,-4.66 8.77,-18 5.45,-30.27 -3.09,-11.44 -7.18,-21.21 -12.11,-31.14 -5.4,-10.87 -17.41,-31.13 -25.79,-39.24 -4.06,-3.94 -9.3,-6.78 -16.15,-3.48zm-27.16 296.98c0,-26.13 -3.94,-46.63 -12.15,-69.08 -3.22,-8.8 -8.05,-22.23 -14.28,-25.81 -11.38,-6.55 -24.02,3.28 -21.38,15.7 1.36,6.43 14.85,24.81 18.25,60.95 1.26,13.36 -1.87,27.02 7.78,32.43 11.05,6.2 21.78,-2.2 21.78,-14.19zm-354.37 48.34c-9.03,3.18 -15.48,14.72 -1.99,26.44 7.76,6.74 15.55,12.54 25.23,18.09 84.81,48.69 78.06,1.35 65.28,-4.64 -12.45,-5.84 -38.91,-6.45 -72.5,-35.82 -4.17,-3.64 -8.89,-6.58 -16.02,-4.07zm537.75 -511.16c-24.43,2.06 -45.98,7.63 -65.86,17.07 -8.35,3.96 -21.8,9.86 -24.45,16.73 -4.96,12.87 7.27,23.74 19.47,18.41 8.24,-3.6 11.28,-7.22 27.65,-13.52 10.22,-3.93 20.96,-6.82 32.43,-8.57 13.38,-2.04 26.49,0.39 30.09,-11.22 4.27,-13.75 -6.3,-20.01 -19.32,-18.91zm-363.88 348.8c-16.04,1.59 -68.81,11.66 -72.63,27.73 -1.62,6.82 1.42,12.05 4.94,14.98 11.11,9.26 25.89,-7.17 61.04,-12.93 9.13,-1.5 32.1,-1.07 37.37,-2.71 10.25,-3.18 12.43,-18.46 4.68,-24.64 -6.79,-5.41 -25.36,-3.43 -35.4,-2.43zm502.41 -266.39c-45.23,12.93 -23.21,125.44 24.22,112.37 23.24,-6.4 27.99,-40.07 22.57,-67.02 -4.34,-21.59 -20.36,-52.91 -46.8,-45.35zm-194.79 233.93c-23,2.94 -49.98,15.79 -61.13,34.8 -12.97,22.12 0.8,49.82 41.18,44.49 26.53,-3.5 50.79,-18.95 60.05,-35.28 16.2,-28.57 -9.99,-47.86 -40.1,-44zm-178.22 190.37c-32.85,6.14 -68.82,54.19 -57.02,83.75 12.31,30.84 61.6,15.52 83.95,-28.33 5.61,-11 10.72,-26.54 4.97,-40.01 -4.83,-11.32 -16.24,-18.33 -31.9,-15.41zm-134.08 -83.28c-29.75,6.15 -30.77,35.45 -8.54,57.66 30.88,30.84 88.85,37.56 92.45,0.85 3.02,-30.9 -48.83,-65.76 -83.91,-58.5zm-20.15 130.17c-28.31,5.18 -53.7,32.3 -46.46,67.96 5.66,27.87 33.24,52.01 67.97,45.18 27.59,-5.42 52.14,-33.44 45.22,-67.55 -5.69,-28.04 -32.28,-51.91 -66.73,-45.6zm375.78 -467.84c-33.28,7.56 -51.26,36.44 -45.63,67.11 5.14,27.95 33.18,52.98 68.06,45.81 27.65,-5.69 51.56,-32.13 45.3,-67.13 -4.96,-27.74 -33.26,-53.62 -67.73,-45.79zm-258.37 132.85c-28.3,5.21 -53.56,32.21 -46.92,67.07 5.29,27.8 32.73,52.99 66.93,46.48 28.15,-5.37 53.11,-32.54 46.7,-66.87 -5.29,-28.33 -32.32,-53 -66.71,-46.67z"/>
   <path class="fil0" d="M959.35 369.64c-8.61,9.94 -19.98,20 -29.56,29.74 -69.29,70.43 -141.88,140.72 -211.19,211.23 -79.23,80.59 -162.21,160.93 -241.55,241.52 -80.09,81.36 -161.34,160.26 -241.54,241.53 -23.06,23.37 -36.09,36.12 -52.65,67.61 -43.54,82.84 -31.5,183.44 26.82,254.2 5.38,6.53 8.94,9.81 14.75,15.55 22.3,22.01 39.99,35.16 71.22,49.03 78.04,34.66 167.55,21.09 234,-29.43 22.17,-16.86 223.58,-222.17 272.88,-270.84 81.23,-80.21 160.83,-160.79 241.52,-241.55 40.43,-40.47 80.9,-79.86 120.78,-120.75l105.58 -105.63c4.2,-4.19 11.97,-11.09 14.92,-15.32 9.75,4.84 27.78,24.16 59.49,13.94 38.55,-12.43 56.71,-62.27 21.54,-97.51 -13.08,-13.11 -26.72,-25.93 -39.16,-39.12l-61.75 61.56c-20.66,20.89 -40.76,41.16 -61.7,61.77 -41.9,41.24 -82.01,82.9 -124.03,124 -41.76,40.84 -82.24,82.14 -123.49,123.48 -41.44,41.53 -82.98,82.06 -123.97,124.05 -40.82,41.82 -82.37,81.8 -123.51,123.45l-185.78 185.72c-19.99,19.75 -37.06,37.89 -72.02,51.5 -73.66,28.67 -146.53,1.17 -185.84,-39.03 -39.93,-40.82 -67.73,-110.43 -38.92,-184.71 13.48,-34.76 31.76,-52.67 51.11,-72.35 20.78,-21.14 41.13,-41.54 62.26,-62.29 41.78,-41.02 81.78,-82.43 123.5,-123.45 41.93,-41.23 82.04,-82.83 124.01,-124.03 83.4,-81.87 164.19,-165.4 247.44,-247.55 20.93,-20.65 41.16,-40.78 61.78,-61.69l154.36 -154.33c5.43,-5.49 10.18,-10.28 15.7,-15.71 4.65,-4.57 11.83,-11 15.49,-15.66l-38.76 -38.96c-50.76,-52.54 -136.67,14.16 -83.74,80.04z"/>
   <path class="fil0" d="M1182.11 1526.5c0,96.76 77.95,173.97 170.78,174.01 69.59,0.03 119.5,-35.69 145.84,-75.85 37.74,-57.56 36.6,-107.01 12.63,-168.89 -20.29,-52.36 -46.87,-98.34 -72.36,-143.19 -6.52,-11.48 -74.96,-124.19 -84.19,-131.62l-25.22 38.49c-8.42,13.48 -16.67,25.52 -25.41,39.52 -37.17,59.52 -122.07,201.7 -122.07,267.54z"/>
   <path class="fil0" d="M1413.37 762.16c-6.02,4.83 -35.48,54.78 -42.08,65.71 -12.64,20.95 -26.75,47.17 -36.3,72 -12.78,33.23 -11.08,58 7.15,84.99 32.19,47.64 107.39,50.85 142.33,-0.5 18.11,-26.6 19.51,-51.86 7.11,-83.95 -11.95,-30.89 -55.75,-109.98 -78.21,-138.26z"/>
   <path class="fil0" d="M1413.55 1860.18c-1.4,0.81 -0.33,-0.11 -1.77,1.42 -4.45,4.73 -37.87,59.52 -40.3,63.68 -28.43,48.67 -64.99,107.71 -29.52,156.96 57.83,80.28 189.16,20.31 149.81,-83.75 -9.71,-25.67 -23.74,-50.3 -36.21,-72.07 -9.88,-17.24 -30.81,-51.61 -42.02,-66.24z"/>
   <path class="fil0" d="M777.93 838.37c-39.06,7.51 -27.02,63.97 10.58,56.69 36.54,-7.07 26.11,-63.75 -10.58,-56.69z"/>
   <path class="fil0" d="M519.69 971.33c-14.82,1.99 -27.05,14.42 -25.33,31.74 3.74,37.8 62.37,31.84 57.43,-6.74 -1.88,-14.71 -15.09,-27.28 -32.09,-25z"/>
   <path class="fil0" d="M401.4 1306.54c-14.58,2.74 -27.07,14.78 -23.94,33.24 2.46,14.54 16.56,26.39 33.43,23.54 14.2,-2.39 26.46,-16.05 23.47,-33.83 -2.35,-13.98 -16.48,-26.05 -32.96,-22.94z"/>
  </g>
  <g>
   <path class="fil1 str0" d="M332.1 10.42l1497.68 0c176.93,0 321.68,144.76 321.68,321.68l0 1537.54c0,176.93 -144.76,321.68 -321.68,321.68l-1497.68 0c-176.93,0 -321.68,-144.76 -321.68,-321.68l0 -1537.54c0,-176.93 144.76,-321.68 321.68,-321.68z"/>
  </g>
 </g>
</svg>
