<?xml version="1.0" encoding="UTF-8"?>
<!DOCTYPE svg PUBLIC "-//W3C//DTD SVG 1.1//EN" "http://www.w3.org/Graphics/SVG/1.1/DTD/svg11.dtd">
<!-- Creator: CorelDRAW -->
<svg xmlns="http://www.w3.org/2000/svg" xml:space="preserve" width="2.16188in" height="2.20173in" version="1.1" style="shape-rendering:geometricPrecision; text-rendering:geometricPrecision; image-rendering:optimizeQuality; fill-rule:evenodd; clip-rule:evenodd"
viewBox="0 0 2161.88 2201.74"
 xmlns:xlink="http://www.w3.org/1999/xlink"
 xmlns:xodm="http://www.corel.com/coreldraw/odm/2003">
 <defs>
  <style type="text/css">
   <![CDATA[
    .str0 {stroke:#856443;stroke-width:20.83;stroke-miterlimit:2.61313}
    .fil1 {fill:none}
    .fil0 {fill:#856443}
   ]]>
  </style>
 </defs>
 <g id="Layer_x0020_1">
  <metadata id="CorelCorpID_0Corel-Layer"/>
  <g id="_1338796648128">
   <path class="fil0" d="M1571.74 1595.29c4.72,2.28 41.68,41 51.28,50.32 6.68,6.48 4.32,3.8 3.31,14.51 -3.32,35.41 20.87,52.25 45.4,76.48l121.47 121.49c11.9,11.87 49.18,51.73 62.45,59.01 9.11,5 22.06,7.81 34,6.74 49.03,-4.38 69.72,-60.12 44.04,-95.92 -5.84,-8.15 -13.05,-14.11 -19.61,-20.87 -6.84,-7.05 -13.19,-13.35 -20.21,-20.28 -39.69,-39.16 -82.42,-83.97 -121.49,-121.47 -19.21,-18.44 -44.04,-49.14 -64.94,-56.56 -16.64,-5.91 -21.67,-2.24 -37.58,-1.95 -3.11,-4.55 -21.18,-21.57 -26.54,-27.06 -5.22,-5.34 -24.59,-23.34 -27,-27.91l18.91 -24.89c77.35,-109.33 89.38,-259.11 25.64,-378.82 -9.94,-18.67 -31.09,-51.46 -44.36,-65.97 -2.22,-2.43 -2.95,-3.85 -4.98,-6.17 -1.95,-2.22 -3.55,-3.35 -5.48,-5.61 -8.71,-10.17 -17.43,-18.05 -27.43,-27.24 -2.13,-1.96 -3.47,-2.88 -6,-5.17 -24.31,-22.02 -67.66,-46.76 -96.41,-58.49 -115.18,-46.97 -247.86,-32.66 -348.45,39.02 -4.81,3.43 -8.81,6.46 -12.84,9.46l-24.27 20.28 -32.03 33.77c-25.43,31.6 -33.31,44.22 -51.68,80.95 -53.06,106.13 -41.95,252.16 23.16,349.7 8.7,13.04 28.09,40.72 38.76,50.34 4.08,3.67 6.53,7.07 10.35,10.9 99.04,99.33 245.34,133.15 380.44,86.28 34.84,-12.09 58.81,-26.11 87.35,-45.28 6.75,-4.53 20.43,-14.46 24.73,-19.61zm-257.67 -581.36c-159.47,12.22 -293.32,151.44 -279.26,327.1 5.21,65.16 33.9,131.98 76.11,177.94 63.24,68.84 152.04,108.56 251.36,100.3 62.43,-5.2 117.36,-28.07 162.75,-63.78 2.94,-2.31 7.56,-5.84 10.06,-8.19 17.98,-16.93 30.65,-28.39 45.88,-49.26 43.49,-59.61 65.3,-128.72 59.16,-205.81 -12.63,-158.66 -151.04,-291.71 -326.06,-278.3z"/>
   <path class="fil0" d="M432.11 1303.88c48.95,0.08 84.15,-21.44 107.87,-45.06l377.19 -377.02c36.34,-36.22 77.87,-76.8 113.32,-113.45 6.35,-6.56 12.3,-12.27 18.75,-18.71 3.43,-3.42 6.24,-6.12 9.68,-9.56 3.43,-3.43 7.06,-6.22 9.34,-10.28l-7.64 -4.89c-8.72,-5.19 -15.09,-10.14 -22.69,-16.77 -12.83,-11.18 -26.01,-26.87 -36.52,-41.47 -25.58,-35.54 -58.08,-98.77 -85.49,-124.06l-13.68 -12.65c-6.93,-5.8 -22.37,-16.14 -33.8,-19.24 -3.9,2.8 -8.67,8.24 -12.06,11.63l-178.68 178.69c-31.66,32.02 -62.91,63.8 -95.13,95.19 -32.51,31.69 -63.14,64.02 -95.67,95.67 -32.26,31.39 -63.36,63.25 -95.15,95.18l-71.2 71.55c-9.01,11.82 -11.12,12.67 -19.17,28.43 -25.51,49.92 -20.89,104.92 7.12,149.02 21.08,33.2 64.15,67.7 123.62,67.8zm441.69 -690.69c-12.15,3.37 -14.28,17.68 -4.12,24.25 7.3,4.72 37.65,11.1 63.24,40.03 10.43,11.8 23.75,4.74 24.91,-5.39 0.9,-7.84 -2.74,-10.44 -6.58,-13.96 -3.93,-3.61 -5.61,-6.53 -10.19,-10.06 -4.06,-3.13 -7.43,-6.28 -11.75,-9.5 -7.41,-5.53 -43.9,-28.59 -55.51,-25.37zm-215.87 189.32c-20.25,9.74 0.85,24.03 14.24,49.62 9.87,18.87 12.27,39.62 16.53,44.26 3.13,3.41 8.99,5.5 14.66,3.44 12.02,-4.35 8.19,-16.83 5.09,-28.29 -2.89,-10.7 -6.71,-19.83 -11.32,-29.11 -5.04,-10.16 -16.27,-29.09 -24.1,-36.68 -3.8,-3.68 -8.7,-6.33 -15.1,-3.25zm-25.38 277.58c0,-24.42 -3.68,-43.59 -11.36,-64.57 -3.01,-8.22 -7.52,-20.78 -13.34,-24.13 -10.63,-6.12 -22.45,3.06 -19.98,14.68 1.27,6 13.88,23.19 17.06,56.96 1.17,12.49 -1.74,25.26 7.28,30.32 10.33,5.79 20.35,-2.06 20.35,-13.26zm-331.22 45.18c-8.44,2.97 -14.47,13.76 -1.86,24.71 7.25,6.3 14.53,11.72 23.58,16.91 79.27,45.51 72.96,1.27 61.01,-4.34 -11.63,-5.46 -36.37,-6.03 -67.76,-33.47 -3.89,-3.41 -8.3,-6.15 -14.97,-3.81zm502.62 -477.77c-22.83,1.93 -42.98,7.13 -61.56,15.96 -7.8,3.71 -20.37,9.22 -22.85,15.64 -4.64,12.03 6.8,22.19 18.2,17.2 7.7,-3.37 10.54,-6.75 25.84,-12.63 9.55,-3.67 19.59,-6.38 30.31,-8.01 12.5,-1.91 24.76,0.36 28.12,-10.48 3.99,-12.85 -5.89,-18.7 -18.06,-17.67zm-340.11 326.01c-14.99,1.49 -64.32,10.89 -67.89,25.91 -1.52,6.38 1.33,11.26 4.62,14 10.39,8.65 24.2,-6.69 57.05,-12.08 8.53,-1.4 30,-1 34.93,-2.53 9.58,-2.97 11.62,-17.26 4.38,-23.04 -6.35,-5.06 -23.7,-3.2 -33.09,-2.27zm469.58 -248.99c-42.27,12.08 -21.69,117.24 22.65,105.03 21.72,-5.98 26.16,-37.45 21.1,-62.64 -4.06,-20.18 -19.03,-49.45 -43.74,-42.39zm-182.06 218.65c-21.5,2.75 -46.72,14.76 -57.14,32.53 -12.12,20.67 0.74,46.56 38.49,41.58 24.8,-3.27 47.47,-17.71 56.13,-32.98 15.15,-26.71 -9.34,-44.74 -37.48,-41.13zm-166.58 177.94c-30.7,5.74 -64.33,50.65 -53.3,78.28 11.51,28.82 57.57,14.5 78.47,-26.48 5.24,-10.28 10.02,-24.8 4.64,-37.39 -4.52,-10.58 -15.19,-17.13 -29.82,-14.4zm-125.32 -77.84c-27.8,5.75 -28.76,33.13 -7.98,53.89 28.86,28.83 83.04,35.1 86.4,0.79 2.83,-28.89 -45.65,-61.46 -78.43,-54.68zm-18.83 121.66c-26.46,4.85 -50.2,30.2 -43.43,63.53 5.29,26.05 31.07,48.61 63.53,42.23 25.79,-5.07 48.74,-31.25 42.27,-63.13 -5.32,-26.21 -30.17,-48.52 -62.37,-42.62zm351.23 -437.27c-31.11,7.06 -47.91,34.07 -42.65,62.73 4.8,26.12 31.01,49.52 63.61,42.82 25.84,-5.31 48.19,-30.03 42.34,-62.75 -4.63,-25.93 -31.08,-50.11 -63.31,-42.8zm-241.49 124.18c-26.45,4.87 -50.06,30.11 -43.86,62.69 4.95,25.98 30.59,49.53 62.56,43.44 26.31,-5.01 49.64,-30.41 43.65,-62.5 -4.94,-26.48 -30.21,-49.54 -62.35,-43.62z"/>
   <path class="fil0" d="M967.3 315.68c-8.05,9.29 -18.67,18.69 -27.62,27.8 -64.76,65.82 -132.61,131.53 -197.39,197.43 -74.05,75.33 -151.61,150.42 -225.77,225.75 -74.86,76.04 -150.8,149.79 -225.76,225.75 -21.56,21.84 -33.74,33.76 -49.21,63.19 -40.7,77.43 -29.44,171.46 25.06,237.59 5.03,6.1 8.36,9.17 13.79,14.53 20.83,20.57 37.38,32.86 66.57,45.82 72.94,32.4 156.61,19.71 218.71,-27.51 20.72,-15.76 208.97,-207.65 255.05,-253.15 75.93,-74.97 150.33,-150.28 225.74,-225.77 37.79,-37.83 75.61,-74.64 112.89,-112.86l98.68 -98.73c3.92,-3.92 11.19,-10.36 13.94,-14.31 9.11,4.52 25.96,22.58 55.6,13.03 36.03,-11.61 53,-58.2 20.13,-91.14 -12.23,-12.25 -24.97,-24.24 -36.59,-36.57l-57.72 57.54c-19.31,19.53 -38.09,38.47 -57.67,57.74 -39.16,38.55 -76.65,77.48 -115.93,115.89 -39.03,38.17 -76.87,76.77 -115.42,115.41 -38.73,38.82 -77.56,76.7 -115.87,115.95 -38.15,39.09 -76.99,76.45 -115.45,115.38l-173.64 173.59c-18.68,18.46 -34.64,35.42 -67.31,48.14 -68.85,26.8 -136.95,1.09 -173.7,-36.48 -37.32,-38.15 -63.31,-103.21 -36.38,-172.64 12.6,-32.49 29.68,-49.23 47.77,-67.63 19.42,-19.76 38.44,-38.83 58.2,-58.22 39.04,-38.34 76.43,-77.05 115.43,-115.39 39.19,-38.53 76.68,-77.42 115.9,-115.93 77.95,-76.52 153.47,-154.59 231.28,-231.37 19.56,-19.3 38.47,-38.11 57.75,-57.66l144.27 -144.24c5.08,-5.13 9.52,-9.61 14.68,-14.69 4.35,-4.27 11.06,-10.28 14.48,-14.63l-36.23 -36.42c-47.45,-49.11 -127.75,13.23 -78.27,74.81z"/>
   <path class="fil0" d="M1175.51 1396.95c0,90.44 72.85,162.6 159.62,162.64 65.04,0.03 111.7,-33.36 136.31,-70.89 35.28,-53.8 34.21,-100.02 11.8,-157.86 -18.96,-48.94 -43.81,-91.92 -67.63,-133.84 -6.09,-10.72 -70.06,-116.08 -78.69,-123.02l-23.57 35.98c-7.87,12.6 -15.59,23.85 -23.76,36.94 -34.74,55.63 -114.09,188.52 -114.09,250.06z"/>
   <path class="fil0" d="M1391.66 682.55c-5.63,4.52 -33.16,51.2 -39.33,61.42 -11.82,19.58 -25,44.08 -33.93,67.3 -11.94,31.06 -10.36,54.21 6.69,79.44 30.08,44.52 100.37,47.52 133.04,-0.47 16.92,-24.87 18.24,-48.47 6.64,-78.46 -11.17,-28.88 -52.11,-102.8 -73.1,-129.23z"/>
   <path class="fil0" d="M1391.83 1708.83c-1.31,0.76 -0.31,-0.1 -1.65,1.33 -4.17,4.42 -35.4,55.63 -37.67,59.52 -26.58,45.49 -60.75,100.67 -27.59,146.7 54.05,75.04 176.8,18.98 140.02,-78.28 -9.07,-23.99 -22.19,-47.01 -33.85,-67.36 -9.23,-16.11 -28.8,-48.24 -39.27,-61.91z"/>
   <path class="fil0" d="M797.74 753.78c-36.51,7.02 -25.26,59.79 9.89,52.99 34.15,-6.61 24.41,-59.58 -9.89,-52.99z"/>
   <path class="fil0" d="M556.37 878.06c-13.85,1.86 -25.28,13.48 -23.68,29.67 3.49,35.33 58.3,29.76 53.68,-6.3 -1.76,-13.75 -14.11,-25.5 -30,-23.37z"/>
   <path class="fil0" d="M445.81 1191.36c-13.63,2.57 -25.31,13.81 -22.38,31.06 2.3,13.59 15.48,24.67 31.25,22.01 13.27,-2.24 24.73,-15.01 21.93,-31.62 -2.2,-13.07 -15.41,-24.35 -30.8,-21.45z"/>
  </g>
  <g>
   <path class="fil1 str0" d="M332.1 10.42l1497.68 0c176.93,0 321.68,144.76 321.68,321.68l0 1537.54c0,176.93 -144.76,321.68 -321.68,321.68l-1497.68 0c-176.93,0 -321.68,-144.76 -321.68,-321.68l0 -1537.54c0,-176.93 144.76,-321.68 321.68,-321.68z"/>
  </g>
 </g>
</svg>
