<?xml version="1.0" encoding="UTF-8"?>
<!DOCTYPE svg PUBLIC "-//W3C//DTD SVG 1.1//EN" "http://www.w3.org/Graphics/SVG/1.1/DTD/svg11.dtd">
<!-- Creator: CorelDRAW -->
<svg xmlns="http://www.w3.org/2000/svg" xml:space="preserve" width="2.16188in" height="2.20173in" version="1.1" style="shape-rendering:geometricPrecision; text-rendering:geometricPrecision; image-rendering:optimizeQuality; fill-rule:evenodd; clip-rule:evenodd"
viewBox="0 0 2161.88 2201.74"
 xmlns:xlink="http://www.w3.org/1999/xlink"
 xmlns:xodm="http://www.corel.com/coreldraw/odm/2003">
 <defs>
  <style type="text/css">
   <![CDATA[
    .str0 {stroke:#856443;stroke-width:20.83;stroke-miterlimit:2.61313}
    .fil1 {fill:none}
    .fil0 {fill:#856443}
   ]]>
  </style>
 </defs>
 <g id="Layer_x0020_1">
  <metadata id="CorelCorpID_0Corel-Layer"/>
  <path class="fil0" d="M1000.66 656.32c-275.64,9.42 -566.91,-33.17 -737.48,287.54 -78.13,146.91 -63.16,267.02 -63.16,448.59 0,176.32 -15.24,350.46 209.04,262.39 281.91,-110.7 233.91,-329.89 637.19,-383.06 215.4,-28.4 183.71,-42.18 183.71,-336.31 0,-73.16 15.33,-178.98 -26.84,-233.45 -48.5,-62.65 -111.17,-48.82 -202.45,-45.7zm-28.63 667.18c11.2,29.02 52.43,74.83 72.61,101.68 93.01,123.7 124.72,142.91 120.49,308.6 -1.57,61.59 -10.6,56.53 39.24,57.5 0,-62.35 -8.24,-145.95 -6.73,-198.77 2.18,-76.34 41.75,-55.12 30.13,-165.82 -29.52,28.81 -27.84,62.38 -58.94,84.05 -30.51,-17.69 -136.03,-163.74 -154.04,-194.78l-42.77 7.54zm599.37 68.32c-40.44,19.81 -144.75,6.67 -194.19,8.3l0.15 85.59 192.17 1.87 3.25 192.98 86.83 -0.34 -0.72 -147.2c4.87,-74.19 44.39,-46.71 193.77,-46.34l-0.03 -87.3c-39.68,0 -79.41,-0.33 -119.12,0.28 -88.42,1.35 -73.89,27.95 -73.89,-193.56l-87.27 0 -0.94 185.72zm-288.99 -162.78c18.25,-8.39 11.06,-4.68 23.19,-15.14 30.52,-26.33 40.65,-67.42 147.9,-118.82 96.85,-46.41 155.54,-37.41 266.03,-25.37 29.96,-43.39 309.71,-400.48 114.06,-416.53 -67.91,-5.57 -161.92,-0.21 -232.69,-0.21 -366,0 -332.91,-11.03 -332.9,357.28 0,75.06 -9.81,163.08 14.41,218.78zm301.35 -131.21c-180.83,20.33 -333.47,171.83 -314.11,377.58 42.33,450.03 732.99,399.82 691.55,-66.7 -15.89,-178.91 -180.75,-333 -377.43,-310.87zm297.48 273.35l-184.81 -7.78c-17.04,-53.56 -1.42,-126.03 -8.24,-184.07 -20.67,-20.18 -136.53,-11.5 -145.36,-2.93 -22.19,38.15 -8.05,133.69 -8.05,185.78 -28.17,-0.23 -181.5,-13.21 -184.86,10.92 -1.92,13.76 -10.32,-12.5 -10.09,69.17 0.1,34.3 -3.33,54.84 11.13,77l183.83 4.74c0,204.5 -27.94,193.59 82.85,194.3 97.2,0.62 80.83,14.02 78.93,-194.2 205.52,0 194.18,21.02 193.98,-81.81 -0.06,-28.98 4.93,-53.46 -9.29,-71.11z"/>
  <g>
   <path class="fil1 str0" d="M332.1 10.42l1497.68 0c176.93,0 321.68,144.76 321.68,321.68l0 1537.54c0,176.93 -144.76,321.68 -321.68,321.68l-1497.68 0c-176.93,0 -321.68,-144.76 -321.68,-321.68l0 -1537.54c0,-176.93 144.76,-321.68 321.68,-321.68z"/>
  </g>
 </g>
</svg>
