<?xml version="1.0" encoding="UTF-8"?>
<!DOCTYPE svg PUBLIC "-//W3C//DTD SVG 1.1//EN" "http://www.w3.org/Graphics/SVG/1.1/DTD/svg11.dtd">
<!-- Creator: CorelDRAW -->
<svg xmlns="http://www.w3.org/2000/svg" xml:space="preserve" width="2.16188in" height="2.20173in" version="1.1" style="shape-rendering:geometricPrecision; text-rendering:geometricPrecision; image-rendering:optimizeQuality; fill-rule:evenodd; clip-rule:evenodd"
viewBox="0 0 2161.88 2201.74"
 xmlns:xlink="http://www.w3.org/1999/xlink"
 xmlns:xodm="http://www.corel.com/coreldraw/odm/2003">
 <defs>
  <style type="text/css">
   <![CDATA[
    .str0 {stroke:#856443;stroke-width:20.83;stroke-miterlimit:2.61313}
    .fil1 {fill:none}
    .fil0 {fill:#856443}
   ]]>
  </style>
 </defs>
 <g id="Layer_x0020_1">
  <metadata id="CorelCorpID_0Corel-Layer"/>
  <path class="fil0" d="M736.58 1731.4c4.2,0.24 6.48,1.3 9.73,1.73 8.52,1.13 335.36,0.35 343.23,0.35l309.69 0.01c3.84,-0.01 7.16,-0.06 10.57,-0.45 6.56,-0.76 13.39,-2.79 18.76,-3.59 4.07,-0.61 4.51,-2.2 8,-2.93 3.89,-0.46 8.79,-3.91 12.27,-5.27 5.45,-2.13 0.34,0.1 4.44,-2.69 0.95,-0.65 1.81,-1.04 2.99,-1.83 7.51,-5.02 9.03,-6.55 15.51,-12.84 3.52,-3.43 6.39,-6.81 9.43,-10.44 2.83,-3.39 5.37,-7.93 7.72,-11.82l6.59 -12.71c2.48,-6.3 4.06,-12.4 5.33,-18.94 1.19,-6.1 1.55,-1.72 1.89,-13.31 1.07,-35.89 0.26,-79.99 0.19,-117.25 -0.01,-6.52 0.33,-35.45 -0.18,-39.27 -5.69,-0.71 -4.65,1.24 -4.65,-13.31l0.08 -16.21c0.22,-1.31 0.09,-1.26 1.58,-1.76l4.01 -1.11 0.2 -27.06c0.59,-4.77 -0.54,-0.62 -0.62,-4.29 -0.09,-4.62 2,-1.52 -1.87,-7.77 -1.06,3.33 0.35,8.85 -0.72,11.77 -0.83,2.26 -1.45,2.16 -8.57,1.83 -1.91,-4.5 -0.88,-19 -0.88,-25.34 -0,-4.17 -0.81,-24.14 0.64,-26.07 0.81,-0.93 2.28,-0.82 4.01,-0.81 2.03,0.01 2.85,-0.06 4.33,0.49 2.09,4.93 -0.27,18.51 0.93,24.62 1.49,-0.37 0.28,0.39 1.48,-0.92 0.13,-0.15 0.85,-1.44 0.91,-1.69 0.33,-1.28 0.14,-3.32 0.34,-4.89 0.38,-2.89 0.81,-6.86 0.82,-9.63 0.04,-7.18 0.03,-14.41 0,-21.59 -0.01,-3.89 -0.55,-5.97 -0.52,-10 0.04,-4.55 -1.16,-4.87 -1.14,-9.43 0.78,-205.52 -0.33,-412.11 -0.33,-617.67 -0.22,-2.05 -0.01,-4.59 -0.34,-6.8 -0.36,-2.38 -1.16,-3.13 -1.43,-5.94 -1.26,-13.37 -1.37,-7.18 -2.33,-12.32 -0.78,-4.22 0.63,-1.58 -1.35,-5.91 -0.89,-1.94 -0.78,-3.9 -1.34,-6.13 -0.82,-3.24 -1.22,-1.32 -1.86,-5.54 -0.38,-2.56 -0.73,-3.41 -2.67,-4.81l-7.25 -19.33c-0.56,-1.07 0,0.2 -0.57,-1.01l-9.3 -16.43c-1.01,-1.86 -1.69,-2.21 -2.59,-3.71 -0.99,-1.66 -1.26,-3.35 -2.44,-4.94 -2.31,-3.1 -4.3,-6.8 -7.17,-9.61l-0.82 -0.76c-0.07,-0.08 -0.18,-0.19 -0.26,-0.27l-22.09 -24.15c-2.32,-1.76 -0.99,-1.44 -2.65,-3.17l-28.02 -27.23c-1.9,-2.28 -3.61,-4.87 -6.13,-6.93l-2.4 -2.41c-2.05,-2.49 -0.69,-1.09 -3.37,-2.85 -1.47,-0.97 -1.78,-1.61 -2.95,-2.89 -0.63,-0.69 -0.91,-0.94 -1.56,-1.6l-0.78 -0.82c-5.14,-5.72 -11.83,-12 -17.36,-17.31 -3.67,-3.52 -7.8,-6.55 -11.13,-10.42l-5.37 -6.76c-1.08,-1.5 -0.31,-0.43 -1.09,-2.13 -1.51,-3.32 -4.2,-5.65 -5.85,-9.35 -0.7,-1.59 -0.86,-2.82 -1.54,-4.31 -3.84,-8.44 -5.62,-13.95 -7.06,-23.3 -1.68,-10.94 0.35,-24.85 -1.04,-35.79 -4.7,-1.5 -114.93,-0.59 -129.71,-0.59l-261.32 0c-14.28,0 -127.11,-1.05 -130.27,0.55 -1.25,1.27 0.21,31.21 -2,39.45 -0.59,2.21 -0.43,3.04 -0.72,5.59 -0.45,3.88 -4.35,13.47 -6.19,17.59 -1.32,2.97 -1.03,0.12 -2.19,3.52l-4.51 7.63c-0.94,1.7 -1.5,2.24 -2.74,3.56 -2.53,2.7 -1.98,3.09 -5.42,6.15l-11.11 11.5c-3.14,2.93 -11.27,9.96 -13.17,12.63 -3.38,4.76 -1.36,1.25 -6.5,5.6 -5.32,4.5 -9.56,10.5 -14.93,15.03 -2.71,2.28 -3.99,5.61 -6.8,7.88l-13.87 13.49c-0.51,0.67 -0.5,0.69 -1.16,1.5l-8.18 7.11c-1.95,1.35 -1.48,1.74 -3.03,3.22 -0.08,0.07 -0.2,0.18 -0.29,0.25 -0.09,0.07 -0.21,0.17 -0.3,0.24 -5.27,4.32 -6.37,7.57 -9.9,11.11 -3.48,3.49 -14.19,17.58 -16.35,21.53 -1.52,2.77 -3.57,4.35 -4.8,7.27 -2.17,5.12 -7.14,11.3 -8.5,15.67 -0.7,2.23 -0.94,2.1 -1.87,3.93 -3.74,7.34 -3.78,10.5 -4.96,13.53 -0.66,1.7 -1.17,1.48 -1.82,3.92l-6.67 23.25c-0.5,1.9 -0.31,3.18 -0.91,4.87 -1.65,4.63 -1.7,10.77 -2.2,16.24 -1.26,13.59 -1.11,21.44 -1.11,35.27l0 865.96c0,7.53 -0.62,16.4 0.59,23.21 1.46,8.27 1.49,9.87 3.53,17.56 0.75,2.84 1.63,3.02 2.5,6.31 0.69,2.64 0.84,2.25 2.07,4.28 0.87,1.43 1.28,2.31 1.95,3.76 0.51,1.09 0.44,1.02 0.93,2.19 2.58,6.04 5.69,12.33 10.08,17.39l2.87 3.43c2.38,3.47 5.73,5.77 8.55,8.8 2.42,2.61 5.73,3.98 8.52,6.24l5.2 4.24c2.3,1.94 5.12,3.24 7.26,4.83 2.03,1.51 5.65,2.18 8.32,3.79 2.7,1.63 5.81,2.38 8.54,3.6 0.74,0.33 0.98,0.57 1.7,0.85l4.68 1.65c0.37,0.15 1.89,0.46 2.07,0.5zm359.31 -1472.29l0 126.19c-0,19.46 -3.46,16.3 18.89,16.3 3.83,0 47.96,0.81 49.37,-0.59 0.78,-0.77 0.55,-5.99 0.55,-7.82l0 -129.87c-0.01,-5.68 1.54,-12.09 -4.17,-12.09 -19.77,0 -43.78,-0.4 -63.04,0.06 -2.15,3.12 -1.61,2.9 -1.6,7.82zm-200.85 -2.63l0.04 136.7c0.02,2.81 -0.48,6.31 0.6,8.25 2.96,1.44 58.19,0.56 66.62,0.48 2.35,-3.11 1.43,-6.43 1.43,-12.41l0.03 -133.02c-0.02,-2.9 -0.04,-3.24 -1.04,-5.14 -19.54,-0.65 -45.54,-0.14 -66.11,-0.09 -1.53,2.25 -1.59,1.32 -1.57,5.22zm330 850.37c8.52,0.15 3.27,-1.3 11.2,-2.21 2.78,-0.32 1.67,-0.3 3.57,-1.2 1.11,-0.52 1.92,-0.58 3.15,-1.06 1.35,-0.54 0.16,-0.08 1.39,-0.69 2.78,-1.38 6.31,-1.82 9.59,-2.54 2.19,-0.48 5.5,-0.58 7.68,-1.4 1.53,-0.57 1.66,-0.8 3.43,-1.3 1.9,-0.54 1.75,-0.52 3.34,-1.3 2.54,-1.26 4.71,-0.89 6.9,-2.05 4.98,-2.63 4.24,-0.36 8.11,-2.4 4.03,-2.13 3.13,-0.15 5.93,-1.94 1.34,-0.87 1.15,-1.01 2.73,-1.44 2.52,-0.69 1.24,0.06 3.44,-1.3 1.97,-1.22 4.41,-1.63 6.58,-2.26 7.95,-2.33 2.31,-1.52 10.11,-3.49l10.73 -3.48c2.76,-0.69 4.53,-0.56 7.43,-1.64 2.08,-0.78 4.66,-1.88 7.33,-2.17 1.88,-12.37 0.71,-106.04 -0.49,-118.2 -0.42,-4.24 -0.41,-8.93 -0.53,-13.75 -0.11,-4.22 -0.72,-9.48 -0.93,-13.65 -0.25,-5.17 -0.97,-22.67 -2.51,-27.07l-1.39 1.27c-0.02,0.02 -0.85,1.24 -1.08,1.53l-6.7 10.6c-0.06,0.09 -0.16,0.21 -0.22,0.3 -0.61,0.89 -0.15,0.04 -0.63,0.91 -0.66,1.19 -0.67,2.01 -1.35,3.41l-28.29 54.81c-2.58,5.98 -0.38,2.82 -5.13,9.59 -4.11,5.85 -1.8,3.92 -3.28,6.71 -1.01,1.91 -0.59,0.17 -1.8,2.91 -2.41,5.47 -0.98,2.76 -3.61,6.39l-2.41 4.94c-0.31,0.62 -0.4,1.06 -0.87,1.81l-7.65 13.83c-0.5,0.85 -0.5,0.78 -0.75,1.8 -1.44,5.98 -2.17,3.2 -4.81,10 -0.5,1.29 -0.85,1.85 -1.47,3.32 -1.79,4.25 -5.39,9.63 -6.8,13.18l-7.83 16.4c-0.86,1.39 -0.98,2.78 -1.54,3.75 -0.42,0.73 -1.48,1.48 -2.2,2.46l-6.74 13.26c-1.41,2.19 -0.11,0.99 -2.65,5.24 -1.78,2.98 -8.86,16.21 -9,18.13zm-229.99 -706.83c3.24,2.55 9.74,1.57 16.16,1.58l44.69 0c1.41,0 2.85,0.04 4.25,0.03 2.41,-0.01 2.89,0.42 3.58,-1.16 1.05,-1.08 0.96,2.38 0.91,-5.71l-0 -129.87c-0.02,-15.3 2.4,-14.06 -12.94,-14.06 -13.05,0 -44.47,-0.59 -55.21,0.09 -2.44,3.33 -1.46,9.8 -1.46,16.59 0.01,43.89 -0.41,88.88 0.02,132.5zm200.97 -141.43l-0.05 138.85c-0.03,5.07 1.82,4.52 6.63,4.5l56.8 -0.01c3.57,0.02 4.29,0.19 6.56,-1.38l0.02 -139.33c-0,-8.57 1.46,-10.76 -7.11,-10.76l-57.83 -0.01c-6.01,0.01 -5.01,2.57 -5,8.14zm100.43 3.15l-0 133.02c-0.02,4.22 -0.54,4.43 1.31,7.1l37.85 0.07c6.93,0 8.98,0.46 14.36,-1.8l11.53 -5.28c5.06,-4.22 9.82,-16.62 10.17,-22.2l-0.04 -98.76c-0.5,-6.5 -1.88,-5.01 -3.87,-8.07 -1.01,-1.54 -0.43,-1.48 -1.63,-2.48 -6.27,-5.24 -3.3,-2.42 -7.59,-5.06l-5.35 -2.55c-19.04,-7.24 -35,-5.31 -55.14,-5.26 -2.34,3.18 -1.58,6.12 -1.6,11.27zm-508.45 21.56l0 85.18c0,2.93 0.24,5.33 0.5,7.91 0.48,4.72 0.71,0.93 2.48,5.72 1.22,3.3 1.28,3.15 3.11,5.82l1.41 2.28c2.22,2.85 5.96,5.82 9.14,7.59l3.38 1.89c6.02,3.13 6.32,2.24 14.96,2.27 4.97,0.01 8.2,0.69 13.22,0.13l24.11 -0.16c3.6,-0 2.94,-2.02 2.94,-6.11l-0 -134.6c-0.02,-12.96 2.48,-10.76 -18.7,-10.76 -4.91,0 -9.82,0.01 -14.73,0 -6.44,-0.01 -8.11,1.24 -13.24,1.87 -2.22,0.27 -2.66,-0.01 -4.7,1 -0.1,0.05 -0.23,0.13 -0.33,0.19 -3.82,1.92 -4.3,0.25 -8.66,3.4 -3.94,2.84 -7.11,4.42 -10.46,8.42 -5.82,6.97 -4.42,7.81 -4.42,17.96zm342.56 1098.29c9.38,-0.01 18.57,-0.03 27.37,-1.07 3.48,-0.41 3.94,-1.19 7.75,-1.65 2.36,-0.29 6.19,-0.3 8.33,-1.15l11.07 -3.08c6.67,-1.83 4.48,-1.84 6.77,-2.58 3.85,-1.25 7.2,-1.78 11.22,-3.6l6.82 -2.67c1.25,-0.66 1.48,-1.09 2.94,-1.74 1.24,-0.55 2.33,-0.64 3.53,-1.24l9.05 -5.12c1.59,-0.96 1.88,-0.54 3.35,-1.42 3.93,-2.36 7.22,-5.33 11.54,-7.4 2.54,-1.22 3.52,-2.54 5.76,-4.21l9.26 -7.02c0.11,-0.1 0.46,-0.4 0.59,-0.49l19.72 -19.68c1.52,-1.72 2.44,-3.76 4.2,-5.31 2.83,-2.5 10.35,-13.81 12.15,-16.69l2.89 -5.03c2.89,-3.96 5.03,-8.99 7.93,-13.06l2.94 -6.38c0.78,-2.59 4.17,-8.32 4.39,-9.83 0.29,-1.96 -0.34,-2.83 -0.97,-3.95 -1.17,0.14 -3.18,0.58 -4.69,0.91l-9.09 2.89c-6.44,3.8 -13.22,4.17 -18.26,6.41l-4.48 1.73c-1.72,0.35 -2.96,0.79 -4.59,1.27 -1.85,0.55 -3.96,0.56 -5.52,0.93 -2.65,0.62 -1.59,1.07 -4.39,1.84 -5.19,1.43 -8.78,3.47 -13.98,4.46 -5.26,1 -12.74,4.61 -18.1,6.43 -1.98,0.67 -3.58,0.43 -5.42,0.98l-13.78 4.6c-5.73,2.59 -22.48,5.61 -28.75,8.63 -4.05,1.95 -6.48,0.88 -9.86,2.33 -4.26,1.83 -9.28,2.98 -13.31,5 -1.89,0.95 -2.71,0.65 -4.77,1.52 -3.11,1.32 -6.27,1.65 -9.5,3.12 -4.29,1.94 -9.72,3.01 -14.18,4.27l-3.76 0.97c-1.28,0.5 -0.54,0.26 -1.02,0.52 -2.46,1.35 -6.78,0.63 -8.63,3.43 -1.86,2.81 -2.57,5.48 -4.46,8.18 -2.54,3.61 -3.91,8.4 -6.09,12.32 -2.35,4.21 -3.84,7.69 -6.66,11.71 -1.24,1.77 -1.41,3.32 -2.43,5.48 -0.21,0.46 -0.26,0.67 -0.45,1.14 -0.69,1.69 -0.31,0.88 -1.08,2.07l-6.79 11.61c-0.67,2.12 0.8,2.94 2.06,3.56 1.37,0.67 2.8,0.94 4.48,1.26 3.97,0.76 6.3,1.93 10.52,2.1 2.99,0.12 3.13,0.45 5.34,1 6.17,1.53 15.56,1.69 23.04,1.69zm-79.49 -359.04c-0.41,-2.31 -2.44,-4.59 -4.23,-6.21 -1.97,-1.78 2.1,1.51 -0.61,-0.5 -0.72,-0.54 -0.44,-0.22 -0.99,-0.6 -1.28,-0.9 -2.72,-2.95 -4.15,-3.74 -2.29,-1.26 -1.12,-0.39 -2.77,-1.88 -2.92,-2.66 -3.65,-1.82 -7.41,-5.7l-4.04 -3.35c-1.06,-1 -1.88,-1.59 -2.93,-2.35 -2.36,-1.7 -4.43,-2.3 -6.72,-3.83 -1.99,-1.32 -2.57,-1.17 -4.15,-3.07 -3,-3.61 -7.09,-4.61 -10.4,-7.58l-21.35 -14.93c-3.31,-2.03 -5.87,-4.13 -9.37,-5.89 -2.85,-1.43 -0.88,-0.8 -2.96,-2.26 -0.72,-0.5 -2.3,-1.22 -3.09,-1.67l-14.53 -8.63c-0.66,-0.43 -1.01,-0.57 -1.66,-0.98l-6.06 -4.39c-3.01,-1.82 -7.14,-3.04 -10.19,-5.11 -3.64,-2.46 -8.42,-4.3 -11.93,-6.96 -0.83,-0.63 0.07,-0.14 -0.98,-0.65l-6.41 -3.58c-0.14,-0.08 -0.54,-0.31 -0.68,-0.38 -0.11,-0.06 -0.24,-0.13 -0.35,-0.18l-12.29 -6.61c-2.26,-1.38 -4.74,-1.84 -6.96,-3.54l-29.82 -16.49c-0.9,-0.43 -1.02,-0.43 -1.71,-0.89 -0.09,-0.06 -0.22,-0.15 -0.31,-0.22l-4.24 -3.06c-1.01,-0.57 -0.83,-0.41 -1.8,-0.79 -2.56,-1.03 -2.86,-1.78 -6.04,-1.57 0.01,1.64 0.11,1.43 0.72,2.63l10.8 17.03c1.2,1.97 1.38,3.45 2.59,5.35 1.14,1.78 1.99,2.85 3.1,4.79l4.65 6.87c0.89,1.51 -0.07,0.05 0.92,1.19 1.96,2.24 3.89,7.45 6.67,11.2l5.83 9.94c1.16,2.44 2.44,1.9 3.67,4.13l6.53 10.83c0.32,0.59 0.29,0.73 0.66,1.45 0.57,1.13 0.21,0.52 0.83,1.33l0.93 1.11c0.83,1.36 0.31,1.2 0.96,2.7 0.48,1.08 1.15,1.59 1.83,2.45l15.04 24.27c1.63,4.04 3.4,6.46 5.15,9.67l8 12.52c0.32,0.47 0.44,0.71 0.81,1.29 0.48,0.72 0.46,0.61 0.84,1.24l14.71 24.76c1.17,1.83 1.93,3.07 2.99,4.89 1.23,2.13 1.96,2.78 3.21,4.67l3.97 7.64c0.72,1.1 1.06,1.1 1.8,2.37 0.59,1 0.64,1.39 1.3,2.4 0.64,0.98 1.02,1.39 1.66,2.53 1.09,1.97 1.13,3.41 2.46,5.49 1.25,1.97 2.45,2.8 3.27,4.62 1.45,3.23 2.78,4.44 4.37,7.17l5.23 8.42c0.79,1.05 0.32,0.27 0.8,1.33l2.8 5.11c0.85,1.96 2.56,3.3 4.14,1.43 0.61,-0.73 0.98,-1.93 1.43,-2.78 3.37,-6.24 2.37,-5.28 6.71,-10.7l2.11 -3.65c0.07,-0.09 0.17,-0.2 0.24,-0.3l12.19 -19.41c0.52,-0.7 1.13,-1.18 1.78,-1.86 0.93,-0.97 1.13,-1.03 1.89,-2.42 0.97,-1.78 0.3,-0.94 1.38,-2.23l1.97 -2.19c2.02,-1.92 3.73,-3.57 5.08,-6.1l4.74 -5.74c3.03,-4.28 10.99,-12.05 14.77,-15.61l8.56 -8.35c0.07,-0.1 0.16,-0.23 0.23,-0.33l2.06 -2.56c0.08,-0.07 0.19,-0.18 0.27,-0.26 0.07,-0.07 0.19,-0.18 0.26,-0.26l1.87 -2.1c0.07,-0.09 0.21,-0.25 0.29,-0.39zm282.36 85.59c-0.76,0.2 -1.29,-0.02 -2.34,0.34 -1.38,0.48 -0.25,0.43 -2.03,1.03l-9.33 2.35c-2.15,0.63 -1.79,1.06 -4.12,1.62 -6.75,1.61 -15.59,5.22 -22.2,6.76 -3.62,0.85 -1.36,1.1 -4.11,1.66 -2.39,0.48 -2.69,-0.13 -4.96,0.86 -8.97,3.87 -13.33,4.39 -21.63,7.22l-8.37 3.14c-1.63,0.61 -2.82,0.69 -4.44,1.37 -4.28,1.79 -9.75,2.06 -13.79,3.64l-8.2 3.27c-1.31,0.41 -3.44,0.4 -5.31,0.68 -1.93,0.29 -2.26,1.2 -3.72,1.88 -1.35,0.63 -3.14,0.7 -4.63,1.18l-8.54 3.02c-1.97,0.55 -2.93,0.25 -4.03,1.79 -0.95,1.33 -0.72,2.4 -1.73,4.09 -2.65,4.41 -6.63,12.66 -9.39,16.33 -1.11,1.46 -0.28,-0.05 -1.23,1.86l-3.91 7.67c-1.24,3.61 -0.18,1.22 -2.18,3.63 -2.22,2.69 -5.41,12.05 -7.5,15.65 -1.35,2.33 -1.09,0.35 -2.14,3.55 -1.04,3.19 -3.01,4.61 -3.99,7.58 -1.2,3.68 -1.97,4.97 -3.63,8.05 -1.08,2.01 -0.64,3.12 -1.37,4.5l-1.35 1.74c-0.06,0.11 -0.13,0.25 -0.19,0.36l-25.03 46.39c-0.6,0.94 -1.55,2.79 -1.84,4.11 -0.21,0.97 -1.21,2.84 3.02,1.89 3.28,-0.74 6.67,-2.82 12.86,-4.47 2.8,-0.75 1.2,-0.97 4.22,-1.55 3.13,-0.6 8.68,-2.13 10.92,-3.38l4.14 -1.52c2.28,-0.71 0.82,-0.31 2.2,-1 2.08,-1.04 4.47,-0.5 6.71,-1.75 1.19,-0.66 0.42,-0.68 1.95,-1.02 2.04,-0.46 3.15,-0 5.2,-0.76 6.37,-2.36 15.5,-4.5 21.37,-7.48 1.96,-1 4.59,-0.78 6.66,-1.81 3.57,-1.78 7.24,-2.86 11.31,-3.31 3.06,-0.34 6.17,-1.79 8.96,-2.68 2.18,-0.7 1.7,-1.08 4.18,-1.55l31.41 -9.21c4.48,-1.07 13.51,-4.8 17.35,-5.76 3.34,-0.83 5.54,-1.53 9.16,-2.49l8.94 -2.62c1.81,-0.57 2.54,-0.88 4.6,-1.28 2.99,-0.58 1.98,-0.43 3.91,-1.69 2.92,-1.89 6.3,-0.54 7.43,-4.13 1.94,-6.17 2.15,-8.74 3.13,-14.17 0.48,-2.7 0.73,-2.34 1.24,-4.52 0.5,-2.14 0.26,-4.9 1.28,-7.17 1.33,-3 0.96,-9.45 1.81,-12.94 0.71,-2.92 1.38,-6.55 1.61,-9.87 0.42,-6 1.93,-11.57 2.07,-15.22 0.07,-1.91 -0.01,-3.85 0.16,-5.76 0.3,-3.26 0.57,-7.32 1.01,-10.55 1.07,-7.92 2.17,-19.39 1.75,-27.42 -0.09,-1.78 0.29,-1.7 -0.9,-2.4 -1.44,-0.84 -2.43,0.26 -2.45,0.26zm-511.51 -194.96c-1.51,2.52 -0.62,30.12 -0.63,35.23 -0.03,11.6 -0.43,24.34 0.54,35.3 1.01,11.45 0.38,22.94 1.57,34.23 0.62,5.88 0.51,10.8 1.3,16.49 1.36,9.79 -0.09,25.67 1.96,34.01 1.86,7.6 0.02,16.57 2.57,24.21l0.85 3.35c0.58,3.98 1.67,7.54 1.94,11.7 0.19,2.94 -0.01,5.7 0.45,8.59 0.5,3.17 1.15,4.52 1.38,7.7 0.39,5.36 1.63,10.18 2.54,15.21 0.22,1.21 0.36,2.28 0.68,3.49 0.28,1.06 0.86,1.98 1.19,3.51 0.9,4.2 0.29,6.66 1.76,10.34l4.94 19.28c1.19,5.94 1.04,3.51 2.09,6.72 1.18,3.61 0.09,3.29 1.88,7.06 1.39,2.92 1.79,7.06 3.08,10.13 0.93,2.23 0.92,0.45 1.76,2.89 1.24,3.63 0.4,4.37 3.06,10.15 0.85,1.84 0.62,1.07 1.35,3.5l3.4 7.52c0.06,0.11 0.13,0.24 0.19,0.35 0.06,0.11 0.13,0.25 0.19,0.36 1.12,2.24 4.35,9.2 6.94,12.95 1.11,1.6 1.39,3.52 2.8,5.08 2.99,3.3 1,2.96 4.5,6.5l12.29 16.19c1.59,2.5 2.72,3.16 4.89,5.01l5.59 4.89c0.07,0.09 0.15,0.23 0.22,0.32l8.27 7.55c1.55,1.41 2.91,2.91 4.68,4.26 2.31,1.76 2.89,1.77 5.01,3.94 1.8,1.83 2.82,2.49 5.33,3.61 3.73,1.66 6.93,5.04 10.88,6.95l15.02 7.09c4.64,2.58 10.4,3.26 14.76,5.26 2.74,1.26 14.81,5.58 16.34,2.67 0.63,-1.21 -0.59,-1.94 -1.18,-3.08 -0.73,-1.42 -0.58,-2.1 -1.16,-3.68 -0.86,-2.33 -1.9,-2.98 -2.93,-5.94 -0.5,-1.45 -0.8,-1.65 -1.37,-2.83 -1.98,-4.08 -3.81,-8.69 -4.7,-13.3 -0.64,-3.33 -0.32,-1.22 -1.27,-3.39 -1.03,-2.37 -0.71,-5.11 -1.5,-7.58l-3.85 -14.02c-0.63,-3.04 -1.69,-4.33 -1.97,-6.92 -1.04,-9.35 0.11,-3.09 -1.84,-11.28 -1,-4.19 -1.12,-16.33 -1.49,-21.27 -0.48,-6.41 -0.22,-10.65 0.06,-16.91 0.15,-3.36 0.82,-4.97 0.97,-7.89 0.07,-1.37 -0.06,-2.89 0.02,-4.23 0.06,-1.02 0.02,-1.02 0.27,-2l0.29 -0.8c2.35,-6.33 1.67,-13.97 2.69,-16.71 1.2,-3.2 0.91,-3.88 1.06,-7.81 0.09,-2.24 1.78,-6.77 2.64,-10.55 1.67,-7.28 3.44,-6.13 -1.44,-13.05 -1.37,-1.94 -0.83,-0.41 -1.37,-2.87l-8 -13.58c-0.78,-1.41 -0.65,-1.73 -1.55,-3.18 -1.68,-2.72 -2.89,-5.74 -4.85,-8.23 -2.35,-2.98 -3.4,-5.42 -5.65,-7.99l-3.56 -5.39c-0.9,-1.21 -1.02,-1.18 -1.75,-2.44 -1,-1.72 -0.68,-1.5 -1.44,-3.39 -0.78,-1.92 -3.46,-3.65 -7.27,-11.04l-3.28 -5.66c-3.18,-5.69 -7.07,-10.72 -10.44,-16.33 -0.61,-1.01 -0.7,-1.71 -1.37,-2.87 -2.69,-4.7 -6.19,-9.2 -8.38,-14.23 -0.61,-1.4 -0.85,-1.33 -1.61,-2.63 -0.81,-1.37 -0.61,-1.54 -1.73,-2.99l-5.07 -8.09c-2.2,-4.49 -11.59,-17.78 -12.65,-21.07 -1.14,-3.54 -4.51,-6.11 -6.2,-9.46l-6.54 -11.36c-1.46,-1.89 -2.02,-3.9 -3.29,-5.67 -1.45,-2.02 -2.56,-2.76 -3.73,-5.15 -0.91,-1.85 -0.7,-1.2 -1.61,-2.61l-7.17 -12.83c-0.09,-0.13 -0.33,-0.51 -0.43,-0.64 -0.48,-0.67 -0.1,-0.17 -0.69,-0.89 -2.41,-2.98 -6.72,-11.64 -10.24,-16.56 -2.54,-3.55 -4.01,-7.76 -6.46,-11.44 -1.36,-2.04 -2.52,-3.33 -3.35,-5.67 -0.7,-1.98 -0.06,-1.52 -1.13,-3.03l-5.94 -7.63c-0.44,-0.52 -0.51,-0.76 -0.83,-1.28 -0.89,-1.48 -1.88,-3.29 -3.27,-4.13zm446.32 454.56c-1.72,0.14 -2.22,1.23 -3.79,2.21 -1.78,1.11 -1.89,1.22 -3.28,2.46l-14.03 9.13c-4.33,3.05 -17.16,9.15 -22.53,12.15 -1.85,1.03 -2.33,0.38 -4.35,1.48 -1.31,0.7 -0.12,0.25 -2.14,1.05 -1.09,0.43 -0.91,0.32 -1.78,0.8 -1.54,0.83 -0.23,0.47 -2.25,1 -3.03,0.79 -7.01,2.84 -9.99,4.08 -3.35,1.39 -9.67,2.52 -13.11,4.21l-8.95 2.54c-6.17,2.02 -16.93,2.74 -19.5,3.66 -8.07,2.89 -47.08,2.1 -55.03,0.87l-14.11 -3.07c-1.64,-0.42 -3.26,-0.37 -5.12,-0.78 -1.62,-0.35 -2.43,-1.1 -4.13,-1.58 -5.74,-1.59 -6.27,-0.72 -13.44,-3.86 -1.56,-0.68 -2.67,-0.81 -4.33,-1.51 -2.59,-1.08 -0.72,-0.96 -4,-1.83 -2.04,-0.54 -12.67,-6.62 -14.93,-8.05 -1.42,-0.89 -2.07,-1.64 -3.45,-2.35 -2.38,-1.24 -3.59,-3.07 -6.12,-4.38l-0.73 -0.34c-1.89,-0.96 -1.66,-1.15 -3.12,-2.59 -1.9,-1.88 -1.28,-1.06 -3.54,-2.31l-3.47 -2.31c-1.36,-0.98 -1.69,-1.73 -2.79,-2.92 -2.08,-2.25 -3.13,-2.54 -4.82,-4.13 -0.11,-0.1 -1.27,-1.28 -1.3,-1.31l-6.55 -6.08c-0.08,-0.07 -0.2,-0.19 -0.27,-0.26 -1.46,-1.48 0.09,0.34 -0.76,-0.76 -0.89,-1.16 -0.16,-0.36 -0.87,-1.68 -1.01,-1.87 -1.92,-2.15 -3.37,-3.59 -1.76,-1.74 -0.74,-0.08 -2.09,-2.57 -3.69,-0.13 -9.2,-0.2 -12.74,-0.71 -1.91,-0.27 -2.94,-1.01 -4.64,-1.48 -2.97,-0.82 -4.91,-0.18 -8.62,-1.38 -2.76,-0.89 -5.33,-0.82 -8.39,-1.22 -1.86,-0.24 -2.9,-1.05 -4.57,-1.59 -3.2,-1.05 -9.74,-1.58 -13.05,-3.26 -8.41,-4.26 -12.52,-5.2 -20.73,-8.24 -2.16,-0.8 -1.35,-1.28 -4.29,-2.06 -4.11,-1.08 -8.54,-4.92 -12.54,-6.83 -1.6,-0.76 -0.56,-0.27 -1.81,-1.25 -0.69,-0.54 -0.21,-0.23 -0.94,-0.68 -0.03,-0.02 -0.99,-0.51 -1.06,-0.55l-8.3 -4.87c-2.72,-1.45 -4.47,-3.42 -6.85,-5.19 -0.09,-0.07 -0.22,-0.16 -0.31,-0.22l-7.54 -5.63c-3.19,-2.22 -3.91,-3.99 -6.04,-6.49 -1.15,-1.35 -2.44,-1.66 -3.65,-2.69l-3.34 -2.94c-1.66,-1.9 -0.63,-2.24 -2.81,-4.05 -2.7,-2.24 -1,-0.27 -2.95,-3.35 -0.57,-0.9 0.03,-0.03 -0.68,-0.9 -3.2,-3.95 -4.58,-4.39 -5.71,-5.85 -2.27,-2.93 -6.8,-8.09 -8.23,-10.69 -2,-3.61 -2.91,-2.8 -4.43,-5.5l-8.55 -14.09c-0.55,-1.09 -0.33,-1.26 -0.83,-2.35l-5.72 -10.04c-0.59,-0.91 -1.89,-3.52 -2.3,-4.5l-4.04 -8.57c-2.02,-4.04 -2.96,-14.07 -6.32,-19.56 -1.03,-1.68 -1.2,-2.11 -1.91,-4.35 -2.12,-6.7 -3.25,-13.43 -5.46,-20.4 -0.78,-2.44 -1.29,-1.53 -1.9,-4.81 -0.34,-1.81 -0.49,-3.36 -1.15,-5.18 -2.28,-6.34 -1.35,-7.37 -2.33,-10.3 -1.64,-4.9 -3.87,-20.17 -4.26,-21.52 -0.73,-2.58 -1.05,-2.28 -1.18,-5.68 -0.09,-2.4 -0.22,-3.48 -0.69,-5.58 -0.43,-1.92 -0.86,-3.38 -1.31,-4.96l-2.56 -16.83c-0.57,-7.87 -2.18,-15.24 -2.66,-23.11 -0.31,-5.1 -0.52,-6.91 -1.34,-11.35l-3.28 -35.42c-0.05,-4.48 -0.25,-8.11 -0.69,-12.09 -0.86,-7.92 -0.89,-15.97 -1.06,-24.76 -0.15,-7.96 -1.43,-16.48 -1.46,-24.15 -0.03,-8.86 -0.5,-16.38 -0.5,-25.25 -0,-17.17 -0.16,-34.35 -0.01,-51.53l1.03 -37.87c0.12,-15.23 0.6,-14.1 5.55,-20.06 1.07,-1.29 0.26,-0.59 1.66,-1.45 9.2,-5.67 12.54,-2.94 21.43,0.23l17.16 8.56c3.76,1.08 5.36,3.67 8.38,4.62 5.79,1.83 11.97,5.91 17.28,8.53 1.67,0.82 2.59,1.19 4.41,1.95 1.57,0.65 0.89,0.3 2.06,1.07l5.96 3.46c1.17,0.5 1.61,0.45 2.72,1 0.78,0.39 0.87,0.56 2.01,1.14 1.54,0.8 2.42,1.37 4.09,2.22 1.52,0.77 2.71,1.51 4.13,2.17 12,5.54 6.88,5.76 12,7.24 3,0.87 14.03,7.16 16.94,9 2.94,1.86 13.44,6.24 17.15,8.67l7.99 4.61c2.66,2 5.5,3.11 8.16,4.98 1.25,0.88 0.26,0.36 1.94,1.19l4.07 2.26c0.63,0.36 1.38,0.85 1.96,1.2 1.53,0.92 2.59,1.69 4.21,2.61 1.47,0.83 2.88,1.46 4.22,2.14 2.17,1.1 1.7,1.59 3.67,2.6 3.7,1.92 5.18,1.67 8.99,4.22 1.24,0.83 2.06,1.7 3.52,2.74 3.56,2.52 7.51,4.33 11.24,6.67 0.13,0.09 0.52,0.34 0.65,0.43 3.58,2.17 6.38,4.76 9.74,6.56l5.91 4.04c2.57,1.7 4.19,4.14 7.03,5.54 4.3,2.11 7.33,5.87 11.65,7.83 5.57,2.52 4.28,3.4 7.65,5.03l4.28 2.58c1.84,1.06 0.33,0.04 1.58,1.42l7.3 5.42c3.23,2.05 6.04,4.94 8.96,7.3 3.32,2.67 11.38,9.5 14.66,11.17 3.14,1.6 1.5,0.96 3.58,2.66 4.49,3.65 8.27,-2.5 12,-5.28 2.18,-1.62 4.41,-2.81 6.24,-4.89 2.37,-2.68 5.63,-4 8.31,-6.37l7.21 -5.4c2.96,-1.72 4.48,-4.06 7.19,-5.94 1.49,-1.04 2.41,-1.37 3.81,-2.52 1.16,-0.94 2.2,-1.9 3.48,-2.83 2.75,-2 5.15,-3.48 7.44,-5.74l0.76 -0.82c0.36,-0.36 0.14,-0.24 0.78,-0.74 0.55,-0.43 1.15,-0.68 1.91,-1.24l3.35 -2.94c2.59,-1.94 5.1,-3.34 7.88,-5.28 0.36,-0.26 0.56,-0.43 0.89,-0.73l2.59 -2.09c3.47,-2.43 1.39,-1.52 5.89,-4.08 0.11,-0.06 0.24,-0.15 0.34,-0.21l3.22 -2.61c1.2,-1.1 0.21,-0.38 1.72,-1.34l7.77 -4.91c0.35,-0.25 1.8,-1.24 2.15,-1.55 3.72,-3.13 2.69,-1.62 5.7,-3.76 1.65,-1.17 1.56,-1.66 3.43,-2.84 3.91,-2.46 10.5,-6 13.5,-9.2 1.88,-2 4.97,-4.02 7.61,-5.4l21.48 -13.81c4.99,-3.68 11.2,-6.61 12.18,-7.29 0.94,-0.65 0.38,-0.41 1.81,-1.33l10.93 -6.98c1.84,-1.77 4.81,-3.14 6.89,-4.67l19.48 -12c1.85,-1.04 2.7,-0.8 4.2,-2.19 1.19,-1.11 2.41,-1.9 3.9,-2.84 0.18,-0.12 0.72,-0.48 0.96,-0.62 3.94,-2.36 6,-2.63 11.09,-6.31l20.95 -11.66c1.3,-0.91 2.55,-1.47 4.02,-2.25l6.19 -3.27c0.07,-0.03 1,-0.46 1.07,-0.5 0.11,-0.06 0.24,-0.13 0.35,-0.19 0.11,-0.06 0.24,-0.13 0.34,-0.19 3.15,-1.82 6.56,-2.58 9.33,-4.4 2.99,-1.95 5.3,-2.96 9.93,-2.78 2.98,0.11 7.69,2.02 9.37,3.32 2.04,1.58 3.36,5.03 5.06,7.04 0.47,8.48 0.25,3.27 1.34,9.53l2.74 27.32c1.73,15.76 1.69,23.21 2.53,38.07 0.13,2.33 0.54,2.43 0.77,4.28 0.33,2.69 0.2,9.15 0.86,14.45 0.81,6.46 0.3,12.59 0.96,18.96 2.41,23.09 1.64,98.34 1.53,119.5 -0.02,4.95 0.48,15.87 -0.59,19.96 -1.44,5.52 -1.24,30.14 -2.24,37.75 -0.73,5.57 -1.26,12.42 -1.49,18.54 -0.13,3.3 -0.69,6.17 -1.24,9.19 -0.58,3.15 -0.61,5.77 -0.82,9.2 -0.18,2.87 -0.76,5.9 -1.23,8.74 -0.98,5.88 -2.65,20.92 -4.22,26.15l-2.56 12.64c-1.56,5.75 0.39,4 -2.66,12.63 -1.04,2.95 -0.55,5.24 -1.77,8.27l-2.52 7.3c-0.34,1.2 -0.5,2.99 -0.94,4.34 -0.38,1.19 -1.13,2.29 -1.37,3.27 -0.39,1.62 -0.17,3.07 -0.64,4.78l-3.78 10.93c-0.99,4.14 -1.81,3.24 -2.66,7.29 -0.67,3.2 -2.63,6.14 -3.69,9.03 -0.31,0.87 -0.29,1.17 -0.63,2.03l-3.44 7.04c-1.35,2.28 0.09,2 -3.12,6.93 -2.3,3.53 -1.2,3.13 -2.46,4.9 -0.69,0.98 -0.12,-0.19 -1.16,1.43 -2.8,4.35 -8.57,16.61 -13.24,21.46 -2.74,2.85 -4.03,5.24 -5.62,7.01l-6.02 7.06c-2.54,3.72 -9.57,12.7 -12.47,14.87 -0.09,0.07 -0.22,0.15 -0.31,0.21l-18.7 16.07c-1.16,1.48 -0.23,0.13 -0.94,1.49zm-281.02 -158.01c0.02,10.07 -0.85,20.56 1.19,30.31 0.69,3.32 1.44,7.04 1.54,11.79 0.11,5.15 1.03,3.15 1.85,6.35 0.98,3.81 0.25,5.07 1.81,9.25 0.42,1.11 0.17,0.52 0.49,1.67l6.36 17.26c0.1,0.28 0.43,1.45 0.49,1.6 1.14,2.82 2.93,5.63 4.01,9.19l12.92 22.09c1.94,2.46 3.08,5.14 5.17,7.43 1.38,1.51 0.76,0.98 1.61,2.78 1.25,2.67 3.93,4.94 5.8,7.2 0.07,0.09 0.17,0.2 0.24,0.3 0.07,0.09 0.17,0.21 0.24,0.3l2.14 3.22c0.59,0.92 0.16,0.41 0.84,1.16l10.44 9.57c0.07,0.09 0.16,0.22 0.23,0.31l5.02 4.86c0.85,0.68 1.63,1.16 2.46,1.7 1.91,1.23 3.39,1.11 5.26,-0.7 1.08,-1.05 0.3,-0.78 1.28,-2.83 0.57,-1.2 0.77,-1.02 1.59,-2.56l2.12 -2.67c0.45,-0.68 0.72,-4.55 2.84,-7.74 0.07,-0.1 0.16,-0.22 0.23,-0.32l0.98 -1.1c0.06,-0.08 0.15,-0.2 0.2,-0.28 0.05,-0.09 0.12,-0.22 0.17,-0.31 0.05,-0.09 0.1,-0.24 0.14,-0.34 0.04,-0.11 0.08,-0.26 0.12,-0.38l2.5 -5.46c0.98,-2.42 3.18,-5.12 4.2,-7.34l1.6 -2.58c0.68,-1.94 0.51,-3.18 1.59,-4.89 1.87,-2.97 -0.65,-2.46 3.24,-3.16 0.22,-3.8 0.1,-1.61 1.35,-3.76 1.37,-2.33 2.29,-6.87 4.42,-9.85 1.87,-2.61 3.96,-8.1 5.48,-11.28l0.4 -0.7c0.42,-0.69 0.19,-0.14 0.67,-0.91 1.44,-2.28 3.94,-6.74 4.72,-9.43 1.03,-3.53 2.83,-6.5 4.52,-9.79 0.77,-1.49 1.24,-1.67 1.9,-2.78 0.69,-1.16 0.88,-2.38 1.59,-3.69 2.12,-3.91 4.87,-8.09 6.62,-12.31 1.04,-2.5 2.34,-3.45 3.39,-6l11.57 -22.67c1.9,-4.1 4.15,-9.16 6.97,-12.51 2.58,-3.07 4,-7.26 5.39,-10.85 0.83,-2.17 1.54,-2.23 2.74,-4.6 0.06,-0.11 0.13,-0.25 0.19,-0.36 0.06,-0.11 0.14,-0.23 0.2,-0.33l4.85 -8.8c0.67,-1.28 0.61,-2.02 1.34,-3.43l8.42 -15.72c2.07,-4.8 3.36,-3.42 3.86,-5.96 0.79,-4.01 0.85,-2.07 2.14,-4.84l7.26 -14.24c2.04,-7.55 2.37,-4.81 4.82,-10.04 1.18,-2.52 1.83,-4.63 3.13,-6.91 1.24,-2.16 2.65,-3.59 3.58,-5.84l0.88 -2.33c0.36,-0.66 0.37,-0.55 0.67,-0.91 2.89,-3.53 3.1,-6.24 4.92,-9.78 0.76,-1.49 0.24,-0.15 0.7,-1.46l1.41 -3.31c0.3,-0.5 0.67,-1.23 0.93,-1.72 0.63,-1.18 1.22,-1.85 1.74,-3 1.15,-2.49 1.37,-3.93 2.96,-6.49 1.26,-2.03 0.99,-0.97 1.86,-3.5l5.43 -10.76c0.08,-0.13 0.35,-0.44 0.44,-0.57l4.43 -8.69c2.15,-2.5 3.56,-4.72 4.72,-8.02 0.89,-2.53 2.26,-3.74 3.28,-6.14l26.55 -50.71c0.63,-1.16 1.02,-1.3 1.74,-2.99l1.58 -3.14c0.85,-1.68 0.3,-1.68 1.5,-3.23l2.17 -3.06c0.06,-0.1 0.15,-0.22 0.21,-0.32 0.46,-0.68 0.24,-0.29 0.69,-0.87 2.12,-2.83 3.23,-7.37 5.74,-11.08 1.32,-1.95 2.02,-4.63 3.11,-6.93 1.01,-2.12 2.45,-3.55 5.1,-9.59l5.17 -9.01c1.07,-1.46 0.53,-1.55 1.57,-3.17l10.09 -18.81c0.67,-0.92 0.07,-0.07 0.74,-1.32l0.37 -0.7c1.41,-2.59 1.74,-5.4 4.04,-7.66l2.35 -2.73c0.06,-0.1 0.12,-0.24 0.18,-0.35 1.22,-2.31 0.81,-4.37 3.67,-4.92 0.06,-3.36 -0.13,-2.08 1.14,-4 1.28,-1.91 1.76,-4.19 3.43,-7.05 2.83,-4.83 1.25,-5.03 2.93,-7.18l1.79 -3.36c0.97,-1.88 0.94,-0.62 2.19,-3.04 0.84,-1.62 0.79,-1.61 0.7,-3.92 -2.75,-0.07 -4.4,0.68 -6.63,1.73 -0.1,0.05 -0.23,0.12 -0.33,0.17l-4.37 2.9c-0.1,0.07 -0.23,0.16 -0.33,0.23 -3.48,2.42 -5.13,2.59 -6.81,3.69 -0.09,0.06 -0.2,0.16 -0.3,0.22l-8.54 5.2c-0.36,0.19 -1.79,0.74 -1.81,0.76l-0.74 0.72c-2.82,2.86 -4.64,2.08 -6.59,4.41l-7.37 5.44c-2.76,1.33 -3.96,2.85 -6.2,4.25 -1.72,1.07 -1.31,0.89 -2.7,1.98 -0.89,0.7 -2.19,1.39 -3.21,2.06 -3.67,2.4 -5.87,2.82 -9.35,5.4 -1.88,1.39 -1.2,0.85 -3.47,1.89 -2.61,1.19 -2.5,3.02 -5.72,4.67 -7.63,3.92 -13.98,9.62 -21.47,13.8l-4.33 3c-1.06,0.81 -0.54,0.37 -1.58,1.05l-20.99 14.22c-2.09,1.91 -4.82,3.04 -7.06,5.03 -2.74,2.44 -3.91,2.04 -7.62,5.5l-4.4 3.02c-2.97,2.44 -6.95,4.41 -9.18,6.56 -0.08,0.07 -0.19,0.19 -0.27,0.27l-16.71 12.8c-0.76,0.48 -1.07,0.59 -1.64,0.99l-2.54 2.2c-1.31,0.91 -2.47,1 -3.47,1.77 -0.91,0.7 -0.24,0.19 -0.96,1.04l-13.83 12c-2.22,1.98 -3.96,4.21 -6.56,6.06l-7.96 6.76c-0.81,0.85 -1.67,1.98 -2.53,2.71 -0.8,0.68 -1.98,1.67 -2.62,2.11 -4.96,3.43 -8.9,7.71 -13.54,11.72l-26.85 26.78c-4.67,4.34 -8.85,9.41 -12.94,14.4l-6.79 8.44c-2.07,1.76 -2.97,3.26 -4.54,5.46l-3.07 4.28c-0.53,1.03 -0.37,0.67 -1.02,1.64l-4.19 5.79c-0.81,1.39 -0.85,2.08 -1.81,3.46l-4.17 6.34c-0.2,0.39 -0.56,1.07 -0.73,1.39 -0.23,0.45 -0.65,1.37 -0.88,1.76 -0.93,1.59 -0.91,1.03 -1.93,3.35 -0.77,1.76 -1.12,1.59 -1.89,2.76 -0.66,1.01 -0.3,0.65 -0.87,1.77l-10.37 22.72c-0.5,1.65 -0.68,2.14 -1.25,3.49l-4.85 15.65c-1.08,2.87 -2.72,13.03 -3.36,16.52 -0.5,2.71 -0.64,1.81 -1.2,4.02 -1.07,4.25 -1.09,13.89 -1.09,19.4zm244.28 402.64l135.13 -0c4.59,-0 4.9,-0.05 8.46,-0.9 5.5,-1.31 3.43,-0.95 6.42,-3.04 6.2,-4.32 8.33,-10.96 5.48,-17.87 -0.19,-0.47 -0.37,-0.99 -0.6,-1.5 -0.65,-1.46 -2.57,-4.16 -3.78,-5.17 -6.18,-5.21 -10.93,-4 -21.24,-4l-128.82 0.01c-2.54,-0 -5.94,-0.19 -7.81,0.66l-5.24 3.11c-6.96,7.41 -6.44,17.35 -0.23,24.24 2.51,2.79 8.2,4.5 12.22,4.48zm-298.12 83.93l288.65 0.01c5.57,0.01 8.26,0.31 13.73,-0.47 2.25,-0.32 2.11,-0.48 3.77,-1.15 0.91,-0.37 0.67,-0.18 1.47,-0.6l3.67 -2.7c3.94,-3.59 6.65,-14.31 -0.09,-21.56 -1.07,-1.15 -3.89,-3.44 -5.73,-3.79 -5.36,-1.01 -279.78,-0.28 -300.22,-0.27l-16.77 0.3c-1.08,0.3 -4.35,2.91 -5.2,3.85 -1.19,1.32 -3.08,3.69 -3.86,5.1 -1.48,2.66 -1.74,3.22 -1.56,7.41 0.15,3.35 2.35,6.33 4.49,8.67 4.96,5.42 9.27,5.23 17.63,5.2zm130.92 -1190.2l224.51 0c13.57,0 25.01,1.89 30.06,-11.81 1.26,-3.43 1,-5.41 0.08,-8.79 -1.61,-5.96 -2.1,-3.05 -4.19,-6.26 -1.56,-2.41 0.02,-1.84 -5.87,-4.67 -3.04,-1.46 -12.62,-0.96 -16.93,-0.96l-227.14 -0c-4,0 -7.25,0.17 -10.56,2.14 -1.27,0.76 -0.17,0.06 -1.23,0.85 -4.05,3.01 -6.48,7.44 -6.48,12.82 0.01,5.71 0.07,5.52 3.98,10.61l2.27 1.95c3.3,2.59 5.87,4.14 11.49,4.14zm-176.66 0.42l85.17 0c5.5,0 12.22,-2.5 14.88,-6.38 2.69,-3.93 2.86,-3.69 2.94,-10.22 0.07,-5.91 -0.76,-6.65 -2.14,-9.49 -0.49,-1.02 -0.51,-1.74 -2.38,-3.24 -4.54,-3.63 -7.7,-3.96 -13.83,-3.96l-83.57 0c-8.12,0 -8.98,-0.99 -14.87,3.5 -0.99,0.75 -1.46,1.53 -2.25,2.41 -4.22,4.72 -0.95,1.35 -2.69,6.78 -1.33,4.16 -1.44,6.6 1.64,12.23l0.76 1.35c0.48,0.75 1.53,1.9 2.19,2.44 0.7,0.57 0.63,0.48 1.23,0.82 0.14,0.07 0.56,0.28 0.7,0.36l7.44 3.39c1.37,0.11 3.33,0.02 4.76,0.02z"/>
  <g>
   <path class="fil1 str0" d="M332.1 10.42l1497.68 0c176.93,0 321.68,144.76 321.68,321.68l0 1537.54c0,176.93 -144.76,321.68 -321.68,321.68l-1497.68 0c-176.93,0 -321.68,-144.76 -321.68,-321.68l0 -1537.54c0,-176.93 144.76,-321.68 321.68,-321.68z"/>
  </g>
 </g>
</svg>
