<?xml version="1.0" encoding="UTF-8"?>
<!DOCTYPE svg PUBLIC "-//W3C//DTD SVG 1.1//EN" "http://www.w3.org/Graphics/SVG/1.1/DTD/svg11.dtd">
<!-- Creator: CorelDRAW -->
<svg xmlns="http://www.w3.org/2000/svg" xml:space="preserve" width="2.16188in" height="2.20173in" version="1.1" style="shape-rendering:geometricPrecision; text-rendering:geometricPrecision; image-rendering:optimizeQuality; fill-rule:evenodd; clip-rule:evenodd"
viewBox="0 0 2161.88 2201.74"
 xmlns:xlink="http://www.w3.org/1999/xlink"
 xmlns:xodm="http://www.corel.com/coreldraw/odm/2003">
 <defs>
  <style type="text/css">
   <![CDATA[
    .str0 {stroke:#856443;stroke-width:20.83;stroke-miterlimit:2.61313}
    .fil1 {fill:none}
    .fil0 {fill:#856443}
   ]]>
  </style>
 </defs>
 <g id="Layer_x0020_1">
  <metadata id="CorelCorpID_0Corel-Layer"/>
  <path class="fil0" d="M335.98 1176.2l139.43 1.11 0.37 616.71 448.61 0.24 0.52 -334.84 319.89 -0.24 0.14 333.88c85.89,5.19 350.73,2.35 446.04,1.6 4.52,-194.14 0.32,-417.1 0.78,-615.4 39.96,-4.67 93.18,-2.31 134.14,-2.59l-182.26 -182.27c-34.34,-32.77 -60.56,-59.89 -93.1,-90.93l-185.67 -182.08c-90.33,-86.26 -191.82,-195.49 -280.18,-274.27 -11.68,4.74 -202.63,193.38 -232.96,224.1 -16.48,16.69 -31.09,29.48 -47.94,45.82l-375.62 367.14c-21.63,21.12 -77.65,69.08 -92.2,92.04z"/>
  <path class="fil0" d="M1586.07 788.12l1.17 -295.65 -171.02 -0.08c-0.73,37.35 -1.87,80.07 -0.69,116.4 0.78,24 25.71,40.78 51.19,64.85 25.17,23.76 99.54,104.66 119.35,114.49z"/>
  <g>
   <path class="fil1 str0" d="M332.1 10.42l1497.68 0c176.93,0 321.68,144.76 321.68,321.68l0 1537.54c0,176.93 -144.76,321.68 -321.68,321.68l-1497.68 0c-176.93,0 -321.68,-144.76 -321.68,-321.68l0 -1537.54c0,-176.93 144.76,-321.68 321.68,-321.68z"/>
  </g>
 </g>
</svg>
