<?xml version="1.0" encoding="UTF-8"?>
<!DOCTYPE svg PUBLIC "-//W3C//DTD SVG 1.1//EN" "http://www.w3.org/Graphics/SVG/1.1/DTD/svg11.dtd">
<!-- Creator: CorelDRAW -->
<svg xmlns="http://www.w3.org/2000/svg" xml:space="preserve" width="2.16188in" height="2.20173in" version="1.1" style="shape-rendering:geometricPrecision; text-rendering:geometricPrecision; image-rendering:optimizeQuality; fill-rule:evenodd; clip-rule:evenodd"
viewBox="0 0 2161.88 2201.74"
 xmlns:xlink="http://www.w3.org/1999/xlink"
 xmlns:xodm="http://www.corel.com/coreldraw/odm/2003">
 <defs>
  <style type="text/css">
   <![CDATA[
    .str0 {stroke:#856443;stroke-width:20.83;stroke-miterlimit:2.61313}
    .fil0 {fill:none}
    .fil1 {fill:#856443}
   ]]>
  </style>
 </defs>
 <g id="Layer_x0020_1">
  <metadata id="CorelCorpID_0Corel-Layer"/>
  <g>
   <path class="fil0 str0" d="M332.1 10.42l1497.68 0c176.93,0 321.68,144.76 321.68,321.68l0 1537.54c0,176.93 -144.76,321.68 -321.68,321.68l-1497.68 0c-176.93,0 -321.68,-144.76 -321.68,-321.68l0 -1537.54c0,-176.93 144.76,-321.68 321.68,-321.68z"/>
  </g>
  <path class="fil1" d="M359.43 1738.93l0 20.47c26.11,32.11 20.26,25.39 70.52,25l1068.18 1.1c71.5,0.04 282.87,26.29 226.34,-52.12 -14.9,-20.67 -57.19,-9.47 -86.81,-14.16l-1.37 -699.25c24.3,-3.41 53.79,3.76 75.45,-5.54 23.33,-10 26.45,-38.62 9.07,-58.59l-603.21 -500.26c-21.74,-16.84 -33.19,-15.05 -55.24,-27.77l-29.3 0c-20.25,9.87 -34.82,10.97 -54.72,24.34l-552.26 455.32c-49.79,38.38 -66.72,52.15 -62.52,92.1 43.55,29.06 30.21,14.39 87.75,15.83l-0.36 701.69c-50.37,0 -61.6,-8.8 -91.52,21.85zm633.8 -950.6l-83.98 0.91 -0.35 101.58 87.35 1.98 2.07 80.83 102.11 -0.3 -2.69 -79.7 84.41 -1.88 0.08 -101.84 -84.74 -0.52 -0.92 -85.47 -102.86 0.26 -0.48 84.15zm0.38 692.51c0.03,-31.22 2.04,-69.21 -39.02,-61.86 -31.74,5.68 -24.37,42.46 -24.48,77.19 -0.09,29.31 1.05,68.49 38.22,61.42 31.21,-5.94 25.24,-46.19 25.28,-76.74zm128.72 -61.25c-33.5,12.35 -24.34,42.47 -24.08,81.54 0.22,32.43 4.26,70.07 45.04,54.19 28.06,-10.93 34.93,-156.33 -20.96,-135.73zm-416.22 301.13l44.17 0.16c8.04,-70.95 1.27,-184.91 1.26,-260.19 0,-47.72 -10.6,-230.27 10.96,-257.17 22.11,-10.76 538.79,-11.31 561.23,-1.65 26.86,23.43 14.79,82.69 14.8,117.74 0.03,86.41 -5.51,349.8 1.48,399.86l44.22 1.04 1.23 -590.11 -679.12 -1.7 -0.24 592.02z"/>
 </g>
</svg>
