<?xml version="1.0" encoding="UTF-8"?>
<!DOCTYPE svg PUBLIC "-//W3C//DTD SVG 1.1//EN" "http://www.w3.org/Graphics/SVG/1.1/DTD/svg11.dtd">
<!-- Creator: CorelDRAW -->
<svg xmlns="http://www.w3.org/2000/svg" xml:space="preserve" width="2.16188in" height="2.20173in" version="1.1" style="shape-rendering:geometricPrecision; text-rendering:geometricPrecision; image-rendering:optimizeQuality; fill-rule:evenodd; clip-rule:evenodd"
viewBox="0 0 2161.88 2201.74"
 xmlns:xlink="http://www.w3.org/1999/xlink"
 xmlns:xodm="http://www.corel.com/coreldraw/odm/2003">
 <defs>
  <style type="text/css">
   <![CDATA[
    .str0 {stroke:#856443;stroke-width:20.83;stroke-miterlimit:2.61313}
    .fil1 {fill:none}
    .fil0 {fill:#856443}
   ]]>
  </style>
 </defs>
 <g id="Layer_x0020_1">
  <metadata id="CorelCorpID_0Corel-Layer"/>
  <path class="fil0" d="M1206.27 586.31c136.35,80.76 257.32,-2 359.38,42.55l-0.52 38.26c-102.61,46.4 -870.17,-30.31 -1009.89,16.74 -26.83,63.82 -9.13,340.1 -9.9,460.25 -0.15,23.64 -1.31,49.26 -0.99,72.54 0.62,45.89 -4.1,42.38 12.2,75.45l1178.13 0.36c114.36,-0.61 163.44,-23.85 197.35,-107.11 32.96,-80.9 39.88,-175.33 29.42,-268.01 -9.78,-86.65 -35.48,-176.87 -89.75,-209.69 -34.09,-20.61 -80.83,-29.57 -124.96,-30.7 -68.38,-1.75 -107.27,21.97 -126.29,-36.1 44.68,-51.59 153.01,-0.65 144.46,-104.94 -6.83,-83.32 -94.43,-69.58 -174.11,-70.36 -295.49,-2.88 -402.47,-35.7 -384.52,120.77zm-592.53 1138.19c54.97,-143.73 -32.96,-81.42 -39.97,-172.66 161.98,-16.14 1042.02,-17.84 1083.86,4.58 -1.38,64.74 -101.32,63.8 -44.56,151.41 39.3,60.66 105.18,29.43 134.7,-24.51 2.15,-75.77 -23.19,-56.86 -46.88,-97.78 -41.09,-70.95 37.74,-82.12 -98.26,-81.95l-995.82 1.76c-68.12,0.56 -58.19,-2.93 -70.57,45.72 -24.64,96.88 -25.61,26.43 -47.25,88.34 -36.17,103.46 66.33,103.02 124.75,85.09zm-378.47 -799.07l-16.96 -127.3c-20.7,16.21 -22.65,9.76 -22.38,81.54l0.92 294.05c41.67,-24.89 18.57,14.24 27.22,-53.58 6.81,-53.44 -19.76,-27.9 12.56,-71.08 54.08,10.18 31.08,24.1 44.24,86.54 23.41,111.11 68.59,115.51 125.18,150.54 62.83,38.9 20.2,34.52 120.22,27.36l-0.7 -564.81c0,-57.91 16.19,-108.41 -58.28,-96.03 -45.47,7.56 -149.74,70.91 -177.5,161.49 -19.95,65.09 -1.35,97.31 -54.52,111.28zm376.84 550.3c42.34,14.22 966.82,23.88 994.36,-4.26 11.3,-23.83 20.19,-58.56 16.57,-98.46 -6.4,-70.55 -55.57,-49.68 -200.14,-49.24l-659.04 -0.08c-164.94,-0.04 -163.97,-23.16 -151.75,152.04zm719.84 -583.26c0,325.4 -33.63,303.02 150.86,303.02 178.71,0 141,-3.87 141.61,-231.13 0.24,-80.75 6.79,-157.11 -16.51,-217.84 -50.29,-12 -148.93,-17.49 -209.4,-10.2 -88.18,10.62 -66.57,62.58 -66.57,156.14zm-342.67 290.9c45.15,23.01 212.84,29.11 250.04,-6.31 38.65,-35.96 23.61,-120.36 23.61,-212.69 0,-79.64 7.85,-154.16 -16.83,-216.76 -47.66,-13.15 -112.92,-14.89 -171.49,-13.12 -79.39,2.41 -102.76,1.33 -105.39,85.32 -2.72,86.71 -16.85,313.74 20.06,363.57zm-380.12 -302.88c-2.06,351.51 -27.98,317.81 166.68,317.81 161.62,0 123.84,-45.9 123.84,-257.9 0,-137.57 33.98,-200.37 -111.13,-206.61 -174.51,-7.5 -178.47,-9.75 -179.39,146.7z"/>
  <g>
   <path class="fil1 str0" d="M332.1 10.42l1497.68 0c176.93,0 321.68,144.76 321.68,321.68l0 1537.54c0,176.93 -144.76,321.68 -321.68,321.68l-1497.68 0c-176.93,0 -321.68,-144.76 -321.68,-321.68l0 -1537.54c0,-176.93 144.76,-321.68 321.68,-321.68z"/>
  </g>
 </g>
</svg>
