<?xml version="1.0" encoding="UTF-8"?>
<!DOCTYPE svg PUBLIC "-//W3C//DTD SVG 1.1//EN" "http://www.w3.org/Graphics/SVG/1.1/DTD/svg11.dtd">
<!-- Creator: CorelDRAW -->
<svg xmlns="http://www.w3.org/2000/svg" xml:space="preserve" width="2.16188in" height="2.20173in" version="1.1" style="shape-rendering:geometricPrecision; text-rendering:geometricPrecision; image-rendering:optimizeQuality; fill-rule:evenodd; clip-rule:evenodd"
viewBox="0 0 2161.88 2201.74"
 xmlns:xlink="http://www.w3.org/1999/xlink"
 xmlns:xodm="http://www.corel.com/coreldraw/odm/2003">
 <defs>
  <style type="text/css">
   <![CDATA[
    .str0 {stroke:#856443;stroke-width:20.83;stroke-miterlimit:2.61313}
    .fil1 {fill:none}
    .fil0 {fill:#856443}
   ]]>
  </style>
 </defs>
 <g id="Layer_x0020_1">
  <metadata id="CorelCorpID_0Corel-Layer"/>
  <g id="_1338799711872">
   <path class="fil0" d="M907.16 1268.9c12.12,-2.83 21.29,-11.8 32.43,-17.69l0 156.24c-29.38,-6.85 -33.27,-12.14 -42.67,-40.27 -8.33,-24.93 13.19,-20.53 13.19,-59.96 0,-17.93 -2.95,-21.5 -2.95,-38.32zm-88.44 -2.95c7.23,-13.67 47.71,-90.12 56.59,-99.65 30.18,-32.37 65.83,-3 110.82,-45.42 10.78,-10.16 35.21,-51.14 38.95,-67.18l32.43 0c0,75.08 -23.23,121.47 -94.32,138.56 -43.43,10.44 -71.89,30.51 -108.51,53.63 -8.31,5.25 -27.57,17.83 -35.95,20.06zm215.2 -306.58l94.33 0 0 47.17 -94.33 0 0 -47.17zm-15.35 -188.61l94.94 -0.06c0,67.13 11.79,80.7 11.79,141.5l-91.39 0c0,-20.61 -2.94,-28.19 -2.94,-47.17 12.09,0 43.1,4.43 43.1,-23.58 0,-28.82 -33.21,-23.58 -51.94,-23.58l-3.56 -47.11zm121.47 -141.56c-22.7,0 -53.06,-5.43 -53.06,23.59 0,22.57 15.61,23.58 38.32,23.58 -1.31,15.81 -8.45,29.61 -8.84,47.17l-91.39 0c0.58,-25.98 25.07,-75.9 26.53,-141.5l91.39 0c0,20.62 -2.95,28.19 -2.95,47.17zm-153.29 -168.03c0,77.28 35,84.89 -1.74,213.46 -8.91,31.17 -12.35,49.97 -13.82,88.5 -2.13,55.9 15.56,121.47 15.56,190.34l0 61.91c0,11.8 -6.08,14.65 -8.84,26.53 -8.72,-6.39 -10.75,-15.17 -17.26,-24.01 -28.25,-38.39 -103.61,-80.72 -103.61,-29.05 0,23.89 32.28,26.59 47.91,40.53 14.34,12.79 31.68,34.01 31.68,59.7 0,14.13 -39.59,10.24 -60.76,18.83 -4.29,1.74 -18.34,10.64 -18.83,10.64 -107.85,0 -61.7,-88.44 -106.13,-88.44 -45.95,0 -15.78,76.87 6.55,99.58 16.53,16.81 35.03,26.97 61.26,33.08 -3.22,6.07 -4.09,6.99 -5.89,14.74 -15.36,-1.28 -28.33,-11.79 -50.12,-11.79 -79.61,0 -73.58,79.59 -114.97,79.59l-20.63 -2.95c0.4,-17.96 5.89,-31.38 5.89,-53.06 0,-14.3 -24.97,-27.79 -40.87,-11.43 -12.82,13.19 -12.19,50.77 -12.19,70.39 0,27.81 34.54,44.89 61.91,47.17 0.91,10.95 8.1,29.44 11.36,38.75 13.74,39.23 50.54,30.51 50.54,2.52 0,-20.05 -13.09,-36.16 -14.74,-56.01 6.29,-1.68 15.15,-8.09 19.7,-12.73 24.4,-24.84 26.02,-70.97 77.58,-46.23 -7.73,14.61 -58.96,100.48 -58.96,114.97 0,48.13 60.18,6.98 78.35,-4.19 12.65,-7.78 41.65,-28.23 54.31,-31.18 0,33.91 -14.65,34.05 -31.78,50.77 -16.23,15.85 -24.27,30.18 -30.13,55.36 -25.73,0 -47.17,-2.35 -47.17,23.58 0,27.11 28.03,23.58 47.17,23.58 0,19.14 -3.53,47.17 23.58,47.17 23.43,0 23.84,-17.41 23.63,-41.22 -0.28,-30.89 0.24,-37.85 5.85,-61.95l5.9 0c7.5,32.17 46.16,56.01 79.59,56.01 0,65.53 -40.73,144.04 -89.3,184.85 -50.8,42.67 -110.28,74.56 -202.54,74.56l-168.03 0c-23.72,0 -40.33,-8.47 -49.06,-24.64 -10.16,-18.81 -1.94,-46.11 -30.54,-46.11 -44.67,0 -16.43,70.08 2.1,89.29 12.02,12.46 36.96,28.63 59.81,28.63l212.25 0c87.12,0 162.1,-39.62 217.41,-95.07 54.89,-55.03 98.03,-135.98 98.12,-217.31 0.08,-70.77 -0.1,-141.57 -0.1,-212.35 17.62,-8.45 36.61,-14.67 53.11,-26.48 12.39,-8.87 33.98,-28.22 38.27,-44.27l5.89 0c7.95,29.76 54.55,58.2 82.1,68.24 18.98,6.92 39.12,8.76 58.43,18.25 10.15,4.98 15.55,10.02 27.13,4.84 22.9,-10.24 25.54,-38.86 -29.5,-58.52 -10.49,-3.75 -22.94,-5.96 -32.72,-8.54 -60.94,-16.11 -84.8,-67.68 -84.8,-136.29l32.43 0c3.54,15.21 27.34,55.61 37.45,65.72 23.87,23.87 44.93,25.04 76.83,29.3 31.81,4.24 41.07,23.96 54.69,48.49 13.27,23.91 24.98,45.29 37.39,68.74 -17.09,-4.57 -26.25,-17.69 -44.22,-17.69 -9.74,0 -20.63,13.73 -20.63,23.58 0,16.12 16.59,22.83 26.53,29.48 -0.72,32.5 -13.35,59.12 5.15,92.4 5.03,9.05 6.23,6.44 3.63,16.26 -17.52,66.06 -67.74,27.72 -67.74,68.21 0,49.66 95.36,13.77 106.12,-32.43l5.9 0c5.42,23.25 6.09,29.03 5.87,58.98 -0.18,24.83 -1.07,44.2 23.61,44.2 27.11,0 23.58,-28.03 23.58,-47.17 19.14,0 47.17,3.53 47.17,-23.58 0,-25.94 -21.44,-23.58 -47.17,-23.58 -13.96,-59.91 -41.27,-52.73 -57.21,-81.34 -7.01,-12.59 -4.7,-24.76 -4.7,-42.47 19.94,1.66 40.68,29.48 61.91,29.48 51.18,0 0.83,-73.11 -8.84,-91.38 35.47,8.26 53.13,32.59 56.03,73.67 4.48,63.51 94.31,87.28 94.31,41.3 0,-37.33 -47.17,-8.19 -47.17,-56.01 0,-18.86 24.31,-18 36.67,-15.94 41.37,6.91 53.41,-42.2 -2.95,-50.44 -25.81,-3.77 -36.01,8.85 -54.35,10.37 -4.01,-15.01 -28.24,-32.9 -42.19,-40.35 -23.27,-12.44 -35.83,-12.71 -69.83,-12.71 -9.48,-17.91 -27.15,-42.14 -32.43,-61.91 41.87,-22.15 31.57,32.43 91.39,32.43 16.69,0 39.77,-7.73 53.66,-11.2 29.53,-7.37 43.63,-5.73 43.63,-35.97 0,-39.33 -88.92,2.15 -103.89,-2.46 -28.89,-8.91 -38.39,-70.95 -117.2,-18.17l-11.79 -8.84c29.98,-44.78 114.97,-18.41 114.97,-58.96 0,-50.9 -109.38,-10.94 -147.86,20.17 -5.61,4.54 -37.86,41.25 -37.86,15.2 0,-52.7 54.31,-82.54 103.18,-82.54 131.28,0 222.95,33.17 310.31,120.08 8.43,8.39 15.9,18.24 22.84,27.28 7.24,9.42 13.9,19.4 20.64,29.48 83.61,125.04 35,224.08 82.5,224.08 24.78,0 23.58,-23.12 23.58,-41.27 0,-211.16 -195.75,-406.81 -406.81,-406.81 -67.48,0 -130.78,-7.67 -175.24,51.75 -7.37,9.85 -13.05,24.04 -22.27,30.79 -3.03,-12.98 -7.56,-12.17 -8.85,-26.53 -3.19,-35.61 -0.08,-73.45 0.07,-109.15 0.41,-99.57 -34.91,-105.69 0.99,-225.86 20.24,-67.74 18.33,-106.06 6.52,-176.67 -4.42,-26.46 -3.32,-63.17 -31.17,-63.17 -42.1,0 -14.74,69.83 -14.74,94.33l-91.39 0c0,-16.5 -5.94,-41.08 -8.39,-56.46 -3.13,-19.61 -4.99,-37.87 -26.98,-37.87 -12.61,0 -23.58,9.09 -23.58,20.64z"/>
   <path class="fil0" d="M373.59 708.79l0 29.48c0,107.49 81.79,210.12 178.63,248.81 16.82,6.72 23.59,16.49 27.72,34.19 -36.15,8.42 -116.63,95.28 -140.26,133.9 -8.03,13.11 -19.09,30.7 -24.45,43.35 -7.27,17.17 -14.12,33.03 -20.59,50.15 -10.69,28.26 -21.05,79.32 -21.05,117.5l0 206.35c0,14.26 9.32,23.58 23.58,23.58 31.13,0 23.58,-36.66 23.58,-67.8 0,-147.69 -11.68,-263.53 84.81,-380.97 14.24,-17.33 27.63,-33.19 44.89,-46.49 13.59,-10.47 38.16,-34.16 56.02,-38.32 12.72,24.03 29.67,61.91 50.11,61.91 38.45,0 35.19,-105.94 50.11,-120.87 6.6,-3.17 15.78,-3.87 23.64,-5.83 65.32,-16.31 125.25,-61.89 162.71,-117.35 8.81,-13.04 14.94,-24.81 21.99,-39.92 31.52,-67.64 33.06,-151.81 5.21,-221.42 -11.11,-27.78 -25.83,-66.51 -51.41,-66.51 -16.18,0 -23.58,12.91 -23.58,23.58 0,11.9 20.48,33.79 31.37,65.91 23.41,69.09 20.61,126.07 -12.65,191.59 -30.43,59.94 -91.52,105.36 -157.97,119.13 -23.12,4.8 -36.96,2.87 -43.63,24.18 -4.85,15.51 -8.41,43.15 -14.63,56.12 -10.47,-7.67 -35.91,-63.67 -47.27,-76.54 -9.61,-10.88 -26.92,-12.31 -42.2,-19.71 -235.9,-114.15 -141.33,-449.12 98.32,-449.12 83.95,0 132.65,47.17 147.39,47.17 11.5,0 66.14,-31.13 -40.81,-74.16 -91.82,-36.94 -215.55,-22.91 -288.62,45.42 -3.98,3.73 -4.94,5.16 -9.15,8.53 -27.8,22.25 -48.35,54.04 -64.34,86.01 -13.33,26.68 -27.48,69.62 -27.48,108.13z"/>
   <path class="fil0" d="M1175.42 1307.22c0,141.78 -14.41,246.48 96.54,357.43 54.28,54.28 136.38,96.54 218.89,96.54l212.25 0c22.03,0 46.66,-15.46 58.34,-27.15 11.68,-11.68 27.15,-36.32 27.15,-58.34l0 -197.51c0,-14.26 -9.32,-23.58 -23.58,-23.58 -29.46,0 -23.59,30.27 -23.58,58.96 0.01,29.29 2.81,148.68 -3.41,167.57 -6.82,20.68 -24.22,32.89 -52.59,32.89 -165.77,0 -313.43,22.61 -413.95,-125.52 -34.12,-50.28 -39.32,-83.45 -47.21,-138.5 -10.43,-72.69 17.45,-163.42 -25.25,-163.42 -9.85,0 -23.58,10.89 -23.58,20.64z"/>
   <path class="fil0" d="M609.42 652.78c22.77,0 23.2,27.94 24.02,34.94 7.29,61.7 72.46,56.85 82.89,64.5 25.28,18.54 -1.41,42.06 -9.63,42.06 -41.95,0 -76.72,-21.34 -95.22,-46.28 -11.74,-15.83 -18.21,-26.48 -22.41,-48.37 -1.93,-10.08 -5.06,-20.76 -1.46,-30.13 2.83,-7.37 13.22,-16.72 21.8,-16.72zm-23.58 -44.22c-7.06,3.74 -13.48,9.05 -21.61,6.88 -0.01,-0 -49.14,-28.47 -49.14,13.75 0,15.86 10.56,23.5 23.58,26.53l0 38.32c-65.65,1.46 -51.08,53.06 -26.53,53.06 17.54,0 22.19,-5.54 38.32,-5.89 7.05,13.31 13.96,22.77 20.63,35.37 -40.82,27.33 -46.09,64.85 -2.95,64.85 8.72,0 30.89,-25.73 35.38,-32.43 11.49,7.69 22.79,13.98 35.37,20.64 -0.28,12.67 -20.04,58.96 17.69,58.96 21.84,0 29.01,-26.19 29.48,-47.17l29.48 0c15.97,68.54 58.96,52.53 58.96,20.63 0,-22.85 -23.31,-32.53 -12.69,-50.67 3.9,-6.67 6.25,-10.52 9.75,-17.13 26.55,0 50.11,3.33 50.11,-23.58 0,-26.91 -23.57,-23.58 -50.11,-23.58 -4.46,-8.41 -6.63,-12.91 -11.79,-20.63 21.77,-15.96 19.48,-50.11 -8.85,-50.11 -29.87,0 -11.22,23.58 -44.22,23.58 -24.78,0 -26.53,-19.65 -26.53,-44.22 34.61,-8.06 29,-50.11 0,-50.11 -24.81,0 -13.89,20.56 -47.17,2.95 0,-26.55 3.33,-50.11 -23.58,-50.11 -26.91,0 -23.58,23.56 -23.58,50.11z"/>
   <path class="fil0" d="M562.26 1407.45c22.77,0 23.19,27.94 24.02,34.94 7.29,61.7 72.46,56.85 82.89,64.5 25.29,18.54 -1.41,42.06 -9.63,42.06 -59.43,0 -107.53,-42.04 -117.62,-94.65 -1.93,-10.08 -5.06,-20.77 -1.46,-30.13 2.83,-7.37 13.22,-16.72 21.8,-16.72zm-23.58 -44.22c-33.63,17.8 -22.27,-2.95 -47.17,-2.95 -29,0 -34.61,42.06 0,50.12l0 38.32c-65.65,1.46 -51.08,53.06 -26.53,53.06 17.54,0 22.19,-5.54 38.32,-5.89 6.66,12.58 12.94,23.89 20.63,35.37 -40.82,27.33 -46.09,64.85 -2.95,64.85 8.72,0 30.89,-25.73 35.37,-32.43 11.49,7.69 22.79,13.98 35.38,20.63 -0.28,12.67 -20.05,58.96 17.69,58.96 21.84,0 29.01,-26.19 29.48,-47.17l29.48 0c1.97,8.46 8.11,22.5 11.63,29.64 14.37,29.22 47.33,20.88 47.33,-9 0,-22.86 -23.31,-32.53 -12.7,-50.67 3.91,-6.67 6.25,-10.52 9.75,-17.13 26.55,0 50.11,3.33 50.11,-23.58 0,-26.91 -23.56,-23.59 -50.11,-23.59 -4.45,-8.41 -6.62,-12.91 -11.79,-20.63 21.78,-15.95 19.49,-50.11 -8.84,-50.11 -29.87,0 -11.22,23.58 -44.22,23.58 -24.78,0 -26.53,-19.65 -26.53,-44.22 34.61,-8.06 29,-50.12 0,-50.12 -24.81,0 -13.89,20.56 -47.17,2.95 0,-26.55 3.33,-50.11 -23.58,-50.11 -26.91,0 -23.58,23.57 -23.58,50.11z"/>
   <path class="fil0" d="M1552.76 1548.95c0,-29.78 47.17,-29.78 47.17,0 0,29.78 -47.17,29.78 -47.17,0zm0 -67.8c-29.14,15.42 -28.8,15.08 -44.22,44.22 -26.55,0 -50.11,-3.33 -50.11,23.58 0,34.25 34.68,17.71 53.06,26.53 -5.27,19.73 -26.53,16.91 -26.53,44.22 0,6.87 9.68,20.64 23.58,20.64 21.65,0 23.28,-21.73 41.27,-26.53 8.82,18.38 -7.72,53.06 26.53,53.06 34.25,0 17.71,-34.68 26.53,-53.06 19.73,5.27 16.91,26.53 44.22,26.53 9.75,0 20.64,-13.73 20.64,-23.58 0,-21.65 -21.73,-23.29 -26.53,-41.27 18.38,-8.82 53.06,7.72 53.06,-26.53 0,-34.26 -34.68,-17.71 -53.06,-26.53 5.27,-19.73 26.53,-16.91 26.53,-44.22 0,-6.87 -9.68,-20.63 -23.58,-20.63 -21.65,0 -23.29,21.73 -41.27,26.53 -8.82,-18.38 7.72,-53.06 -26.53,-53.06 -26.91,0 -23.58,23.57 -23.58,50.11z"/>
   <path class="fil0" d="M1582.24 1206.99c0,9.37 3.82,12.79 7.01,22.47 17.24,52.37 -12.9,94.78 -12.9,107.24 0,39.25 67.8,38.07 67.8,-73.7 0,-24.13 -8.71,-79.59 -38.32,-79.59 -14.26,0 -23.59,9.32 -23.59,23.58z"/>
   <path class="fil0" d="M1458.42 1077.28c0,31.65 47.17,31.65 47.17,0 0,-31.64 -47.17,-31.64 -47.17,0z"/>
   <path class="fil0" d="M491.5 1265.95c0,31.64 47.17,31.64 47.17,0 0,-31.65 -47.17,-31.65 -47.17,0z"/>
   <path class="fil0" d="M1647.09 1383.87c0,31.64 47.17,31.64 47.17,0 0,-31.65 -47.17,-31.65 -47.17,0z"/>
   <path class="fil0" d="M1293.34 1548.95c0,31.64 47.17,31.64 47.17,0 0,-31.65 -47.17,-31.65 -47.17,0z"/>
   <path class="fil0" d="M774.51 1596.12c0,31.64 47.17,31.64 47.17,0 0,-31.64 -47.17,-31.64 -47.17,0z"/>
   <path class="fil0" d="M1387.68 1619.7c0,31.65 47.17,31.65 47.17,0 0,-31.64 -47.17,-31.64 -47.17,0z"/>
   <path class="fil0" d="M467.92 1643.28c0,31.65 47.17,31.65 47.17,0 0,-31.64 -47.17,-31.64 -47.17,0z"/>
  </g>
  <g>
   <path class="fil1 str0" d="M332.1 10.42l1497.68 0c176.93,0 321.68,144.76 321.68,321.68l0 1537.54c0,176.93 -144.76,321.68 -321.68,321.68l-1497.68 0c-176.93,0 -321.68,-144.76 -321.68,-321.68l0 -1537.54c0,-176.93 144.76,-321.68 321.68,-321.68z"/>
  </g>
 </g>
</svg>
