<?xml version="1.0" encoding="UTF-8"?>
<!DOCTYPE svg PUBLIC "-//W3C//DTD SVG 1.1//EN" "http://www.w3.org/Graphics/SVG/1.1/DTD/svg11.dtd">
<!-- Creator: CorelDRAW -->
<svg xmlns="http://www.w3.org/2000/svg" xml:space="preserve" width="2.16188in" height="2.20173in" version="1.1" style="shape-rendering:geometricPrecision; text-rendering:geometricPrecision; image-rendering:optimizeQuality; fill-rule:evenodd; clip-rule:evenodd"
viewBox="0 0 2161.88 2201.74"
 xmlns:xlink="http://www.w3.org/1999/xlink"
 xmlns:xodm="http://www.corel.com/coreldraw/odm/2003">
 <defs>
  <style type="text/css">
   <![CDATA[
    .str0 {stroke:#856443;stroke-width:20.83;stroke-miterlimit:2.61313}
    .fil1 {fill:none}
    .fil0 {fill:#856443}
   ]]>
  </style>
 </defs>
 <g id="Layer_x0020_1">
  <metadata id="CorelCorpID_0Corel-Layer"/>
  <g id="_1338842117904">
   <path class="fil0" d="M222.93 1590.96l0 47.05c51.68,74.88 64.03,61.21 188.99,61.19l755.95 -0c13.96,3.33 23.59,23.34 32.82,37.99 113.71,180.56 245.68,165.68 311.65,191.39l58.58 0c66.65,-26.86 225.35,-21.55 324.48,-216.95 25.42,-50.11 26.11,-101.95 43.54,-144.16l0 -90.13c-13.81,-29.56 -20.8,-77.3 -35.19,-110.7 -101.12,-234.81 -405.54,-307.51 -597.4,-161.33l-40.21 27.99c-24.26,-15.96 -59.71,-55.75 -70.4,-93.5 51.12,-34.78 95.48,-125.21 132.05,-185.02 47.24,-77.25 108.68,-158.42 30.71,-213.04 -12.1,-155.64 43.78,-317.31 -172.77,-441.13 -61.24,-35.02 -99.36,-28.07 -151.85,-50.24l-83.48 0c-64.52,31.39 -147.96,28.82 -216.56,155.41 -61.74,113.93 -39.56,191.13 -40.39,328.4 -23.04,19.37 -40.48,22.86 -45.22,62.18 -8.07,67.02 63.02,155.46 99.98,213.97 15.44,24.43 27.35,43.11 41.56,64.09 15.08,22.26 36.93,37.61 32.33,62.42 -42.44,229.01 -387.11,92.65 -539.09,307.59 -45.55,64.42 -32.61,88.24 -60.1,146.54zm536.87 -822.19c-155.57,-7.97 -22.3,156.73 46.5,258.63 220.86,327.13 378.21,85.46 496.18,-105.73 23.69,-38.39 54.15,-77.26 52.78,-133 -13.72,-6.91 -26.93,-8.31 -48.43,-11.89 -22.89,-71.72 -31.19,-104.02 -92.57,-134.5 -54.06,-26.84 -110.42,-43.25 -175.87,-48.43 -145.83,-11.53 -269.07,40.15 -278.58,174.92zm227.61 -353.34l-60.22 1.01c-0.63,12.02 -1.97,19.54 -0.75,30.43 3.91,34.92 -15.34,-18.16 6.58,25.13l55.95 3.4 0.78 54.52c21.68,6.18 0.34,12.04 55.99,6.52l4.11 -58.79c54.25,-7.3 66.87,13.48 62.39,-55.53l-62.17 -8.61c-0.31,-7.4 0.14,-21.63 -0.54,-27.56l-8.35 -33.19c-62.57,-11.5 -49.56,9.08 -53.77,62.66zm245.76 840.34l-53.7 -71.85c-11.75,-13.14 -4.06,-5.17 -11.61,-11.6 -127.06,81.63 -217.6,54.9 -317.35,-20.17 -37.71,72.88 -51.87,102.05 -25.19,136.1 108.04,137.91 315.8,141.45 407.85,-32.48zm238.76 -47.42c-427.83,98.41 -281.56,734.92 138.83,641.11 155.82,-34.77 288.89,-187.51 250.25,-387.34 -29.96,-154.97 -194.17,-298.6 -389.08,-253.77z"/>
   <path class="fil0" d="M1555.61 1405.35l-46.7 1.74c-9.87,-25.66 -6.28,-38.4 -18.22,-58.01 -19.46,-1.46 -37.84,-1.81 -31.38,23.39 5.68,22.19 12.77,6.46 28.26,42.05 -7.39,6.92 -22.87,21.46 -31.34,28.97 -45.77,-16.27 -23.03,-23.74 -48.39,-42.9 -18.82,-14.22 -50.83,-6.67 -45.02,27.71 9.54,56.38 114.13,-18.14 54.52,82.83 -28.36,0.17 -35.88,-10.99 -60.48,0.4l1.84 27.09c35.5,15.74 10.18,2.8 33.16,2.71l28.23 1.7c8.4,48.43 -39.01,37.15 -85.91,64.59l4.98 28.48c61.33,12.62 10.93,-19.18 95.85,-46.86l20.96 36.18c-37.94,48.61 -69.75,28.28 -55.98,86.46 63.62,21.9 39.86,-8.37 70.48,-73.11l54.05 16.18c0.16,37.41 -43.13,94.72 25.71,73.92 11.43,-38.98 -5.59,-23.04 -1.1,-69.7l62.83 -18.13c36,79.34 5.85,79.77 62.76,75.06 34.24,-56.63 -12.27,-43.88 -44.88,-82.42 5.88,-24.32 9.29,-16.87 18.67,-42.22 82.9,17.59 59.82,42.13 97.06,30.35 24.51,-52.94 -32.66,-25.13 -79.75,-56.1l2.49 -73.88c37.93,-13.59 72.34,2.2 61.5,-49.94 -46.78,-10.88 -27.76,11.12 -70.57,29.23 -1.47,-1.5 -3.81,-5.78 -4.5,-4.39l-15.96 -16.63c6.4,-16.14 24.07,-31.82 32.63,-37.88 18.4,-13.04 24.83,-9.06 48.31,-24.76 -2.27,-39.3 -29.96,-65.44 -54.87,-29.13 -16.52,24.08 12.26,11.32 -41.9,70.45l-44.02 -20.97c1.8,-49.73 20.12,-22.39 10.62,-67.24l-32 -4.5 -1.94 69.28zm-28.07 54.52c-118.46,36.95 -52.91,182.06 41.69,152.26 98.34,-30.98 55.47,-182.56 -41.69,-152.26z"/>
   <path class="fil0" d="M935.11 1021.43c15.35,35.05 150.94,39.57 168.87,1.5 -23.21,-21.77 -11.16,-3.07 -79.55,-2.09 -29.71,0.42 -67.11,-13.75 -89.32,0.59z"/>
   <path class="fil0" d="M1097.54 750.88c29.58,-5.44 34.27,-17.09 62.57,-16.2 30.94,0.97 24.82,12.98 61.04,15.46 -3.28,-25.54 5.69,-17.07 -16.9,-29.67 -16.09,-8.97 -96.83,-30.11 -106.71,30.41z"/>
   <path class="fil0" d="M823.95 743.61c28.68,10.94 30.8,-10.3 63.91,-8.76 38.07,1.78 30.44,27 60.29,6.87 -9.49,-21.06 8.15,-8.06 -22.48,-22.59 -39.76,-18.88 -98.65,-6.56 -101.72,24.48z"/>
   <path class="fil0" d="M842.27 794.64c9.85,18.85 -10.95,3.66 14.17,16.55 16.95,8.69 64.28,14.11 88.04,-16.55 -17.19,-10.26 18.2,-8.77 -24.07,-6.78l-50.91 1.25c-7.71,-0.73 -0.58,-2.34 -11.76,-1.28 -17.45,1.67 -4.83,-0.51 -15.47,6.81z"/>
   <path class="fil0" d="M1098.72 794.64c8.84,18.18 -10.18,4.79 14.43,17.3l65.4 0.82c27.89,-10.17 9.85,-0.51 20.79,-18.12 -13.97,-10.31 16.21,-9.17 -22.49,-7.67 -9.75,0.37 -9.01,4.36 -25,5.31 -29.89,1.77 -28.63,-14.06 -53.13,2.36z"/>
  </g>
  <g>
   <path class="fil1 str0" d="M332.1 10.42l1497.68 0c176.93,0 321.68,144.76 321.68,321.68l0 1537.54c0,176.93 -144.76,321.68 -321.68,321.68l-1497.68 0c-176.93,0 -321.68,-144.76 -321.68,-321.68l0 -1537.54c0,-176.93 144.76,-321.68 321.68,-321.68z"/>
  </g>
 </g>
</svg>
