<?xml version="1.0" encoding="UTF-8"?>
<!DOCTYPE svg PUBLIC "-//W3C//DTD SVG 1.1//EN" "http://www.w3.org/Graphics/SVG/1.1/DTD/svg11.dtd">
<!-- Creator: CorelDRAW -->
<svg xmlns="http://www.w3.org/2000/svg" xml:space="preserve" width="2.16188in" height="2.20173in" version="1.1" style="shape-rendering:geometricPrecision; text-rendering:geometricPrecision; image-rendering:optimizeQuality; fill-rule:evenodd; clip-rule:evenodd"
viewBox="0 0 2161.88 2201.74"
 xmlns:xlink="http://www.w3.org/1999/xlink"
 xmlns:xodm="http://www.corel.com/coreldraw/odm/2003">
 <defs>
  <style type="text/css">
   <![CDATA[
    .str0 {stroke:#856443;stroke-width:20.83;stroke-miterlimit:2.61313}
    .fil1 {fill:none}
    .fil0 {fill:#856443}
   ]]>
  </style>
 </defs>
 <g id="Layer_x0020_1">
  <metadata id="CorelCorpID_0Corel-Layer"/>
  <g id="_1338867581312">
   <path class="fil0" d="M1375.72 821.14l-264.06 -2.98 0.09 180.11 37.31 10.61c1.56,-33.85 -6.13,-49.05 14.18,-71.93 59.54,-28.54 99.46,53.93 117.46,98.54 21.36,52.95 48.04,133.81 20.19,188.89 -35.39,6.79 -138.98,-25.35 -144.57,-32.48 -17.36,-30.23 -3.77,-95.03 -8.12,-135.02l-40 -9.22 0.07 222.97c32.62,-10.59 75.55,-31.83 110.06,-2.89 31.39,26.33 25.11,75.5 0.87,104.73 -41.1,49.57 -172.69,82.76 -211.21,9.28 -38.14,0 -40.5,-2.13 -67.92,10.98 -6.44,28.99 -6.41,24.9 4.55,49.48 123.69,28.77 329.19,-44.89 324.29,76.72 -3.37,83.59 -121.26,63.69 -229.87,63.53 -70.64,-0.1 -80.04,-10.63 -93.76,14.99 29.49,41.57 251.61,-16.7 302.93,32.59 21.24,20.41 29.23,54.74 12.15,84.36 -30.63,53.13 -197.69,31.3 -299.97,32.33 -43.33,0.44 -74.89,8.63 -63.94,-43.47 37.37,-19.48 223.41,-5.98 286.82,-8.99 28.6,-1.36 19,3.09 32.79,-11.84 -8.39,-23.9 1.23,-17.78 -78.95,-17.43 -116.3,0.51 -245.46,21.5 -245.52,-67.82 -0.07,-106.06 188.43,-57.91 297.91,-67.32 25.41,-2.19 22.96,-0.9 26.01,-24.83 -81.14,-22.69 -252.52,27.61 -308.51,-30.5 -31.63,-32.83 -34.97,-84.98 0.74,-119.45 41.32,-39.88 85.87,-16.01 141.93,-28.05 11.51,-40.75 4.61,-218.87 4.82,-274.21l-41.69 9.09c-1.11,111.47 19,133.21 -38.64,143.72 -60.43,11.02 -71.79,28.07 -114.59,20.81 -28.96,-91.54 30.91,-315.68 142.65,-289.78 13.37,30.51 10.35,35 10.35,76.04l38.33 -9.87 0 -184.58 -252.09 2.33c-126.87,4.02 -228.22,123.52 -229.12,260.22 -1.08,165.49 0.13,331.47 0.13,497.03 0,78.49 -10.27,162.18 59.5,181.85 97.5,27.49 111.15,-59.2 110.89,-136.09 -0.56,-164.82 -0.72,-330.07 0.05,-494.87l72.28 -2.11 -0.02 665.27 536.12 2.22 -0.06 -664.64 73.52 -1.6c4.98,161.14 0.76,328.76 0.48,489.19 -0.08,45.1 -10.33,162.24 99.78,145.44 80.79,-12.33 69.73,-97.63 69.72,-178.12 -0.01,-163.45 0.56,-327 0.06,-490.44 -0.26,-84.06 -12.74,-129.1 -55.4,-183.59 -28.07,-35.86 -92.2,-88.43 -161.04,-89.2z"/>
   <path class="fil0" d="M1043.82 365.23c-258.9,52.11 -178.12,432.61 70.2,386.19 96.22,-17.99 181.07,-109.17 158.9,-230.94 -17.47,-95.95 -113.88,-178.44 -229.09,-155.25z"/>
  </g>
  <g>
   <path class="fil1 str0" d="M332.1 10.42l1497.68 0c176.93,0 321.68,144.76 321.68,321.68l0 1537.54c0,176.93 -144.76,321.68 -321.68,321.68l-1497.68 0c-176.93,0 -321.68,-144.76 -321.68,-321.68l0 -1537.54c0,-176.93 144.76,-321.68 321.68,-321.68z"/>
  </g>
 </g>
</svg>
