<?xml version="1.0" encoding="UTF-8"?>
<!DOCTYPE svg PUBLIC "-//W3C//DTD SVG 1.1//EN" "http://www.w3.org/Graphics/SVG/1.1/DTD/svg11.dtd">
<!-- Creator: CorelDRAW -->
<svg xmlns="http://www.w3.org/2000/svg" xml:space="preserve" width="2.16188in" height="2.20173in" version="1.1" style="shape-rendering:geometricPrecision; text-rendering:geometricPrecision; image-rendering:optimizeQuality; fill-rule:evenodd; clip-rule:evenodd"
viewBox="0 0 2161.88 2201.74"
 xmlns:xlink="http://www.w3.org/1999/xlink"
 xmlns:xodm="http://www.corel.com/coreldraw/odm/2003">
 <defs>
  <style type="text/css">
   <![CDATA[
    .str0 {stroke:#856443;stroke-width:20.83;stroke-miterlimit:2.61313}
    .fil1 {fill:none}
    .fil0 {fill:#856443}
   ]]>
  </style>
 </defs>
 <g id="Layer_x0020_1">
  <metadata id="CorelCorpID_0Corel-Layer"/>
  <path class="fil0" d="M951.54 1208.84c0,32.09 32.88,37.8 64.24,48.76 41.72,14.57 93.95,45.47 116.66,11.83l41.45 -111.74c17.94,4.44 41.14,28.51 53.76,41.13 45.8,45.8 92.02,133.95 92.03,192.26 0,68.9 3.74,79.1 -18.6,145.43 -15.87,47.14 -78.57,164.39 -119.9,164.39 -73.73,0 -21.87,-96.94 -21.87,-116.63 0,-33.79 -60.04,-48.7 -104.14,-67.17 -47.52,-19.9 -342.85,-151.53 -366.05,-151.53 -14.82,0 -25.13,9.56 -31.02,20.02 -28.16,49.89 -6.65,63.71 30.52,78.91l354.3 152.34c17.03,11.7 28.91,34.98 28.91,62.2 0,10.12 -34.29,94.71 -40.01,105.72 -32.14,-2.74 -34.58,-19.09 -39.54,-26.17 -10.48,-14.95 -23.95,-16.21 -41.75,-23.87 -12.51,-5.38 -33.46,-17.07 -47.84,-13.64 -23.92,5.72 -58.87,55.5 1.52,81.86 76.81,33.52 62.02,10.72 82.06,13.51 13.31,1.85 9.87,6.93 27.25,8.38 -1.22,14.82 -19.33,57.56 -25.51,69.24 -46.46,0 -111.21,14.84 -149.01,25.94 -83.22,24.44 -168.83,62.52 -229.22,124.33 -23.3,23.86 -59.16,74.59 -62.8,115.81l1067.95 -0c-37.48,-156.56 -213.94,-222.61 -353.55,-255.15 3.8,-3.3 0.58,-0.77 6.29,-4.63l50.46 -33.36c141.58,-105.96 223.86,-271.58 223.86,-450.41 0,-13.52 -3.12,-24.87 -3.59,-43.77 -3.15,-126.99 -95.15,-291.99 -198.91,-369.69 -38.24,-28.63 -43.84,-32.84 -89.06,-56.72 63.74,-134.84 16.21,-120.06 -74.48,-155.16 -55.47,-21.47 -68.22,-18.82 -85.35,28.15l-100.33 275.09c-6.7,19.18 -38.73,102.39 -38.73,114.36zm331.91 -135.51c-51.22,18.6 -22.63,90.67 27.68,72.7 42.53,-15.19 24.37,-91.6 -27.68,-72.7z"/>
  <path class="fil0" d="M926.04 1853.98c-16.66,-18.21 -120.02,-28.53 -85.55,-118.46 35.01,-91.33 121.15,-29.65 142.62,-28.58 -15.54,-26.94 -21.86,-23.56 -73.43,-44.38 -24.34,-9.83 -161.46,-67.85 -176.26,-66.41 -26.62,2.6 -38.74,51.32 -48.36,75.17 -8.42,20.87 -34.64,67.53 -19.13,89.15 8.6,11.99 145.69,63.93 170.24,74.02 29.61,12.18 59.54,31.01 89.87,19.48z"/>
  <path class="fil0" d="M1138.4 738.05c7.6,6.42 57.43,22.78 73.27,28.47 24.14,8.67 53.79,15.96 72.62,29.39l47.57 -125.85c-45.08,-25.26 -86.09,-48.31 -146.34,-54.62 -17.33,33.48 -28.69,90.58 -47.12,122.62zm28.06 -10.11c27.13,11.55 29.03,-7.7 36.59,-28.84 5.17,-14.41 22.4,-46.16 9.88,-57.85 -20.12,-18.77 -30.09,15 -34.75,28.21 -6.6,18.7 -19.11,38.51 -11.72,58.47zm73.97 -68.74c-11.47,9.45 -16.3,33.45 -22.74,50.11 -17.69,45.76 11.11,41.69 18.44,37.24 6.37,-3.87 32.52,-66.6 28.94,-80.13 -3.24,-12.21 -14.19,-15.84 -24.64,-7.22zm47.36 14.26c-13.26,7.35 -34.85,71.17 -31.22,81.38 2.78,7.83 12.13,14.57 22.38,8.76 9.91,-5.62 34.22,-70.83 30.95,-81.43 -3.61,-11.7 -13.59,-13.44 -22.11,-8.72z"/>
  <path class="fil0" d="M1196.6 581.93c6.87,4.46 63.18,16.2 79.09,22.24 27.84,10.55 46.15,24.89 69.44,34.17 6.24,-52.59 -21.17,-52.48 -61.68,-67.73 -39.65,-14.93 -66.04,-31.12 -86.86,11.32z"/>
  <g>
   <path class="fil1 str0" d="M332.1 10.42l1497.68 0c176.93,0 321.68,144.76 321.68,321.68l0 1537.54c0,176.93 -144.76,321.68 -321.68,321.68l-1497.68 0c-176.93,0 -321.68,-144.76 -321.68,-321.68l0 -1537.54c0,-176.93 144.76,-321.68 321.68,-321.68z"/>
  </g>
 </g>
</svg>
