<?xml version="1.0" encoding="UTF-8"?>
<!DOCTYPE svg PUBLIC "-//W3C//DTD SVG 1.1//EN" "http://www.w3.org/Graphics/SVG/1.1/DTD/svg11.dtd">
<!-- Creator: CorelDRAW -->
<svg xmlns="http://www.w3.org/2000/svg" xml:space="preserve" width="2.16188in" height="2.20173in" version="1.1" style="shape-rendering:geometricPrecision; text-rendering:geometricPrecision; image-rendering:optimizeQuality; fill-rule:evenodd; clip-rule:evenodd"
viewBox="0 0 2161.88 2201.74"
 xmlns:xlink="http://www.w3.org/1999/xlink"
 xmlns:xodm="http://www.corel.com/coreldraw/odm/2003">
 <defs>
  <style type="text/css">
   <![CDATA[
    .str0 {stroke:#856443;stroke-width:20.83;stroke-miterlimit:2.61313}
    .fil1 {fill:none}
    .fil0 {fill:#856443}
   ]]>
  </style>
 </defs>
 <g id="Layer_x0020_1">
  <metadata id="CorelCorpID_0Corel-Layer"/>
  <g id="_1338224289104">
   <path class="fil0" d="M994.36 309.75c-406.23,49.96 -746.16,404.02 -692.26,870.98 46.41,402.03 414.43,740.12 874.34,685.97 395,-46.5 739.02,-413.1 682.97,-871.51 -48.41,-395.92 -409.06,-741.51 -865.05,-685.43zm527.75 293.45c-71.89,122.88 37.83,202.11 -131.43,379.03 -67.84,70.91 -91.2,31.56 -117.91,198.71l-83.61 -3.54c33.23,-230.5 183.62,-202.47 225.07,-360.04 35.67,-135.58 -30.94,-354.36 -173.49,-402.11 -94.67,-31.71 -249.71,-21.48 -344.25,5.16 -670.45,188.94 -673.5,1135.2 -7.73,1333.79 236.18,70.45 465.27,-2.38 614.58,-116.63 489.81,-374.79 189.8,-1057 18.77,-1034.37z"/>
   <path class="fil0" d="M1256.42 1299.94c18.76,9.03 21.11,17.53 44.32,26.76 21.6,8.59 46.65,7.97 70.85,12.33 57.33,10.32 66.57,60.72 122.8,26.34 21.28,-13.01 61.6,-53.82 71.17,-87.72 13.69,-48.49 -18.68,-86.81 -53.91,-97.32 -37.91,30.69 -18.11,84.51 -53.07,104.83 -63.39,25.05 -170.98,-136.63 -268.22,-81.41 -61.65,35.02 -106.34,163.69 -137.5,245.93 3.48,-53.89 22.97,-87.28 32.1,-133.11 -95.08,53.26 -324.62,-10.66 -341.04,-103.49 -11.03,-62.33 51.69,-181.36 193.73,-88.1l53.15 38.58c39.24,15.3 10.31,8.3 25.02,-0.44 1.33,-48.4 -120.57,-70.28 -159.27,-105.28 138.74,51.98 142.73,-20.48 198.62,-121.39 -11.05,-28.78 -25.66,-31.13 -26.24,-59.67 -0.66,-32.98 35.18,-117.7 -54.6,-202.8 -159.07,-150.78 -412.47,-17.69 -380.93,185.35 15.04,96.84 70.16,171.27 72.54,280.27 2.8,128.17 6.7,188.8 64.68,290.33 107.08,187.5 340.85,250.35 463.02,154.09 69.82,-55 70.99,-174.33 62.78,-284.1z"/>
   <path class="fil0" d="M1012.46 1197.88c-41.93,-23.11 -143.97,-130.06 -213.73,-76.9 -75.54,57.56 -49.57,135.06 79.03,176.97 90.31,29.43 202.33,41.56 238.22,-47.97 17.67,-44.08 16.37,-95.31 24.15,-141.71 11.94,-71.18 40.3,-70.2 63.22,-111.51 -10.18,-34.44 -22.07,-68.18 -59.65,-62.73 -41.45,6.01 -48.01,44.49 -52.1,79.44 -11.92,101.95 -38.9,119.12 -79.13,184.42z"/>
   <path class="fil0" d="M1573.35 1440.32c-36.11,-31.37 -86.5,29.63 -175.34,-29.8 -31.26,-20.91 -31.97,-41.06 -51.3,-54.76 -22.61,-16.02 -45,-6.13 -74.28,-31.32 -2,82.91 7.59,91.98 37.89,113.73 61.53,44.15 37.49,66.34 68.32,97.84 41.32,42.2 77.74,-17 103.37,-32.81 32.94,-20.32 102.41,-15.76 91.33,-62.89z"/>
  </g>
  <g>
   <path class="fil1 str0" d="M332.1 10.42l1497.68 0c176.93,0 321.68,144.76 321.68,321.68l0 1537.54c0,176.93 -144.76,321.68 -321.68,321.68l-1497.68 0c-176.93,0 -321.68,-144.76 -321.68,-321.68l0 -1537.54c0,-176.93 144.76,-321.68 321.68,-321.68z"/>
  </g>
 </g>
</svg>
