<?xml version="1.0" encoding="UTF-8"?>
<!DOCTYPE svg PUBLIC "-//W3C//DTD SVG 1.1//EN" "http://www.w3.org/Graphics/SVG/1.1/DTD/svg11.dtd">
<!-- Creator: CorelDRAW -->
<svg xmlns="http://www.w3.org/2000/svg" xml:space="preserve" width="2.16188in" height="2.20173in" version="1.1" style="shape-rendering:geometricPrecision; text-rendering:geometricPrecision; image-rendering:optimizeQuality; fill-rule:evenodd; clip-rule:evenodd"
viewBox="0 0 2161.88 2201.74"
 xmlns:xlink="http://www.w3.org/1999/xlink"
 xmlns:xodm="http://www.corel.com/coreldraw/odm/2003">
 <defs>
  <style type="text/css">
   <![CDATA[
    .str0 {stroke:#856443;stroke-width:20.83;stroke-miterlimit:2.61313}
    .fil1 {fill:none}
    .fil0 {fill:#856443}
   ]]>
  </style>
 </defs>
 <g id="Layer_x0020_1">
  <metadata id="CorelCorpID_0Corel-Layer"/>
  <path class="fil0" d="M578.96 779.25c-22.21,14.8 -30.63,11.5 -30.02,74.15 0.56,57.73 25.02,112.89 56.89,155.98 33.74,45.62 13.77,-0.16 38.73,66.51 91.22,243.63 375.8,241.37 464.97,-3.58 24.95,-68.54 93,-105.83 94.24,-218.87 0.15,-13.99 -0.55,-34.32 -4.39,-47.63 -6.28,-21.78 -10.57,-15.38 -25.78,-26.56 -3.49,-117.95 7.48,-209.87 -55.56,-293.76 -104.57,-139.17 -381.03,-138.78 -484.67,1.43 -62.83,85.01 -49.24,174.39 -54.41,292.34zm246.47 2.78c-18.11,-4.1 -102.58,-4.38 -126.21,-2.69 -49.76,3.56 -14.39,67.48 0.37,81.66 53.19,51.09 149.3,13.7 125.85,-78.97zm250.02 3.08c-26.76,-10.64 -87.17,-6.05 -122.8,-5.97 -28.86,0.07 -30.23,4.72 -28.3,35.26 1.33,21.06 8.13,38.65 18.66,48.96 52.94,51.87 151.74,-1.22 132.43,-78.24zm-246.93 689.42c0.02,0.01 91.17,16.1 103.06,-10.32 3.65,-8.11 19.41,-87.59 16.31,-102.48 -15.4,-7.37 -85.13,-4.56 -108.02,-4.56 -52.76,-0.02 -39.14,0.52 -24.24,82.52 2.61,14.35 2.38,26.48 12.89,34.83zm932.73 -343.35c12.54,27.25 36.32,50.59 49.14,81.73 127.39,-10.37 227.82,-111.42 202.84,-159.38 -10.45,-20.07 -40.48,-31.02 -62.27,-13.74 -50.04,39.67 -25.84,82.48 -189.71,91.39zm-887.64 620.48c0.83,-0.7 2.03,-2.91 2.4,-2.21 2.89,5.51 62.47,-107.49 63.5,-109.57 20.21,-40.5 10.37,-36.11 -3.81,-101.59l-7.72 -27.83c-4.06,-7 0.12,-2.19 -5.71,-6.86l-92.67 -1.97c-11.2,15.83 -14.33,46.01 -19.41,67.18 -9.44,39.41 -14.32,34.88 2.45,68.66l60.96 114.19zm321.33 -99.2l232.01 136.39c5.44,3.07 18.03,26.3 18.26,-39.48 -16,-6.12 -207.76,-119.74 -214.29,-127.33 42.39,-35.97 58.41,-11.22 97.02,11.31 27.07,15.8 70.78,45.17 97.96,55.99 -4.24,-13.78 -26.21,-56.66 -34.17,-65.16 -12.37,-13.23 -50.01,-26.62 -57.74,-38.5l32.81 -1.17 -33.83 -61.36c-2.12,-3.7 -3.91,-7.09 -5.78,-10.03l-7.41 -10.38c-71.8,3.82 -137.06,40.67 -173.45,74.63 -79.77,74.45 -4.31,119.54 31.91,90.55l16.69 -15.45zm393.09 -448.99c-11.96,-27.18 -33.02,-49.85 -46.04,-81.17 -90.55,0.28 -160.43,46.24 -193.87,98.89 -85.47,134.56 45.79,308.08 110.85,417.67 70.71,119.11 7.22,197.97 22.19,231.32 7.53,16.77 26.18,27.11 48.85,21.82 46.81,-10.93 54.32,-122.97 47.79,-168.65 -20.72,-144.86 -184.31,-285.99 -174.61,-409.02 3,-37.98 34.69,-74.39 58.88,-88.35 31.81,-18.35 85.3,-20.1 125.96,-22.51zm123.12 113.92c-43.83,-15.14 -92.37,-63.57 -125.94,-64.6l-51.57 2.72c-5.81,2.07 -5.76,2.63 -8.69,4.58 45.51,18.19 158.79,98.95 201.85,115.27l-4.96 44.84c-26.32,-6.48 -216.33,-129.82 -245.97,-141.19 -10.59,7.35 -16.48,15.39 -21.96,30.88 11.91,14.49 209.03,125.66 243.64,147.45 -28.3,48.8 -52.18,17.1 -112.75,-18.33 -20.66,-12.08 -37.53,-21.84 -59.28,-34.48 -20.83,-12.11 -41.11,-27.01 -62.24,-35.3 2.65,16.67 10.97,34.15 17.91,48.32 9.93,20.26 18.01,19.87 38.65,31.8 22.98,13.27 65.42,35.87 83.8,50.6l-67 8.05c1.06,10.64 35.8,57.3 45.48,78.25 66.17,2.39 139.12,-29.49 171.2,-61.36 99.34,-98.67 52.93,-237.92 -15.65,-340.28 -21.4,-31.94 -79.25,-111.62 -89.83,-149.12 66.29,26.16 53.53,58.26 155,43.02 -12.92,-12.7 -65.44,-40 -86.26,-52.34 -29.91,-17.71 -58.76,-35.09 -87.68,-52.14l3.13 -45.12c35.76,19.57 213.58,127.38 230.1,132.19 13.9,-8.23 21.09,-14.52 27.85,-28.23 -9.11,-9.05 -226.34,-137.41 -243.42,-143.75 6.91,-30.57 15.21,-60.52 -19.65,-70.15 -37.44,-10.35 -51.26,16.52 -61.56,41.95 -23.86,58.93 -28.74,118.89 -6.19,182.15 39.5,110.76 133.58,200.9 151.97,274.33zm-843.96 576.49c99.71,0 193.29,-5.05 291.85,-15.07 43.78,-4.45 88.34,-9.88 132.22,-15.63l99.25 -14.65c12.06,-1.69 21.96,-1.79 32.01,-9.07l-199.31 -117.07c-23.84,-14.93 -12.9,-16.43 -37.66,-4.71 -60.02,28.41 -145.8,-37.67 -115.36,-111.08 35.35,-85.26 138.47,-130.56 233.23,-149.15 -19.05,-59.17 -27.43,-76.56 -29.94,-147.7l-149.8 -62.8c-24.24,151.18 -76.09,321.63 -157.06,447.15 -98.04,151.98 -84.75,143.74 -178.5,3.09 -26.09,-39.15 -49.5,-86.24 -69.99,-132.86 -37.58,-85.5 -72.91,-216.48 -88.99,-317.53 -22.84,7.03 -53.24,23.95 -78.84,34.89 -149.39,63.81 -259.18,87.5 -343.32,234.19 -29.58,51.57 -51.71,106.62 -59.18,174.43 -10.2,92.59 2.75,120.16 88.65,137.03 65.25,12.81 135.46,23.24 201.86,32.2 140.91,19.03 283.88,34.34 428.88,34.34zm0 -1092.03c29.75,0 21.77,0.74 25.69,18.53 5.14,23.35 8.28,37.93 29.99,55.39 21.3,17.12 57.15,28.31 92.44,24.21 50.07,-5.81 115.53,-73.09 100.32,-131.31 -21.19,-11.37 -323.08,-5.46 -377.19,-5.49 -23.5,-0 -46.96,-0.09 -70.45,-0.23 -29.52,-0.17 -37.78,2.11 -31.61,32.41 28.22,138.69 197.16,129.24 221.34,36.82 1.55,-5.92 1.84,-11.03 3.06,-15.57l6.42 -14.77z"/>
  <g>
   <path class="fil1 str0" d="M332.1 10.42l1497.68 0c176.93,0 321.68,144.76 321.68,321.68l0 1537.54c0,176.93 -144.76,321.68 -321.68,321.68l-1497.68 0c-176.93,0 -321.68,-144.76 -321.68,-321.68l0 -1537.54c0,-176.93 144.76,-321.68 321.68,-321.68z"/>
  </g>
 </g>
</svg>
