<?xml version="1.0" encoding="UTF-8"?>
<!DOCTYPE svg PUBLIC "-//W3C//DTD SVG 1.1//EN" "http://www.w3.org/Graphics/SVG/1.1/DTD/svg11.dtd">
<!-- Creator: CorelDRAW -->
<svg xmlns="http://www.w3.org/2000/svg" xml:space="preserve" width="2.16188in" height="2.20173in" version="1.1" style="shape-rendering:geometricPrecision; text-rendering:geometricPrecision; image-rendering:optimizeQuality; fill-rule:evenodd; clip-rule:evenodd"
viewBox="0 0 2161.88 2201.74"
 xmlns:xlink="http://www.w3.org/1999/xlink"
 xmlns:xodm="http://www.corel.com/coreldraw/odm/2003">
 <defs>
  <style type="text/css">
   <![CDATA[
    .str0 {stroke:#856443;stroke-width:20.83;stroke-miterlimit:2.61313}
    .fil1 {fill:none}
    .fil0 {fill:#856443}
   ]]>
  </style>
 </defs>
 <g id="Layer_x0020_1">
  <metadata id="CorelCorpID_0Corel-Layer"/>
  <path class="fil0" d="M542.65 1685.18c8.47,118.67 -28.69,240.8 43.97,269.16 23.37,9.12 71.43,5.37 100.22,5.37l731.56 0c125.88,-0.05 104.01,-51.04 104,-212.17 -0,-54.73 -8.9,-53.48 23.85,-81.59 17.4,-14.94 39.38,-42.63 54.52,-52.59 -2.8,55.24 -32.98,220.78 -31.33,247.52 2.2,35.54 23.75,36.75 40.38,51.52 -0.81,16.98 -6.94,39.41 14.99,41.33 21.83,1.91 21.82,-19.43 24.48,-37.28 38.24,-5.56 53.15,-23.77 57.76,-62.45 4.31,-36.12 9.9,-72.73 14.56,-109.63l59.06 -430.86c10.17,-72.19 22.22,-147.17 29.48,-219.18 29.24,2.61 25.5,-0.78 21.13,28.58l-32.17 243.36c-0.6,29.29 8.61,74.9 43.86,50.33 4.98,-21.57 -2.96,-22.46 -4.63,-40.48 -1.39,-14.99 2.06,-29.54 3.89,-41.98 51.82,-350.52 37.55,-250.9 -24.79,-280.39l0.35 -40.79c-45.55,-22.87 -22.69,20.08 -44.19,-73.82 -112.67,-492.12 -665.17,-741.04 -1105.51,-498.32 -400.98,221.04 -522.64,746.26 -242.28,1121.19 27.44,36.69 82.78,99.91 116.81,123.15zm1158.48 -506.45c17.74,2.75 38.73,7.2 57.29,5.03l4.17 -33.93 -57.32 -7.19 -4.14 36.1zm-80.4 584.92l58 7.97c8.4,-65.11 76.73,-525.38 71.26,-547.54l-55.53 -5.88 -73.73 545.46zm-510.06 -1032.49c-13.16,23.03 -26.27,26.34 -48.9,10.15 -8.69,-47.88 45.74,-51.27 31.31,-107.48 -23.48,-91.47 -173.27,-33.57 -104.76,60.01 8.6,11.74 27.75,30.61 12.88,49.21 -20.12,25.17 -38.33,-4.2 -45.94,-10.21 -6.79,-10.7 -13.38,-6.08 -38.3,-5.97 -14.72,0.07 -29.17,-0.74 -43.78,0.96 -4.5,20.59 -5.06,141.26 0.24,160.32 29.11,3.31 304.53,3.48 319.5,-1.6l0.8 -156.92 -70.91 -3.04c-19.62,2.78 -5.66,0.64 -12.14,4.56zm-567.73 886.81c3.77,-95.13 0.46,-197 0.46,-292.87l0 -436.19c0,-42.95 -8.87,-102.09 15.76,-131.06 28.61,-33.65 63.18,-25.74 117.38,-25.74 47.95,0 100.35,2.01 147.76,-0.69 0.04,-26.99 -3.19,-48.19 24.22,-51.26 20.35,-2.28 53.91,-0.1 76.1,-0.58 -3.28,-46.5 -1.63,-70.42 22.69,-100.3 43.05,-52.89 123.44,-56.33 172.2,0.61 22.55,26.33 26.16,59.59 20.99,99.57 23.91,0.97 52.51,-1.37 75.24,0.57 30.26,2.59 25.64,24.1 26,51.86 48.52,0.52 97.19,0.21 145.74,0.21 48.43,0 91.98,-8.56 120.18,26.26 22.9,28.29 14.73,88.24 14.73,130.54l0 439.62c0,90.9 -5.67,201.72 0.61,290.17 15.3,-6.48 89.2,-92.67 93.25,-112.31 14.47,-70.2 37.4,-281.93 50.54,-372.33 22.85,-157.19 5.19,-140.45 67.4,-138.01 -5.67,-95.07 -70.99,-228.84 -125.25,-304.72 -57.98,-81.07 -132.06,-149.28 -228.4,-204.11 -426.48,-242.72 -971.82,25.07 -1047.67,497.5 -21.36,133.07 -8.8,258.47 35.6,373.74 29.32,76.13 114.57,223.63 174.46,259.5zm696.15 -698.34c-8.32,25.04 -51.33,16.58 -102.32,16.58l-240.42 -0.01c-54.7,0.04 -74.06,10.41 -71.56,-49.07 -4.07,-6.82 -5.15,-5.76 -27.98,-5.39 -25.93,0.41 -84.6,-1.8 -102.1,1.31 -6.53,31.95 -1.85,702.47 -1.85,809.54 0,29.52 -3.24,90 1.71,115.85 25.2,5.14 290.49,1.78 339.16,1.78 45.24,0 318.73,5.83 337.99,-3.36l0.73 -922.32c-14.24,-5.45 -115.19,-4.7 -131.37,-0.69l-1.99 35.79z"/>
  <path class="fil0" d="M1008.59 993.4c-99.3,14.41 -183.55,98.97 -169.16,217.33 12.05,99.08 101.36,182.56 218.27,169.5 100.77,-11.27 181.24,-103.24 168.52,-220.06 -10.43,-95.79 -105.79,-182.99 -217.63,-166.77z"/>
  <path class="fil0" d="M779.27 1540.59c-21.24,8.39 -17.22,32.76 5.02,36.9 14.71,2.74 53.64,0.69 70.84,0.69 61.87,0 415.85,2.3 426.7,-1.86 18.44,-7.06 17.61,-33.42 -4.78,-37.33l-215.85 -0.39c-37.76,0 -266.89,-3.94 -281.93,2z"/>
  <path class="fil0" d="M773.09 1493.38c13.78,6.89 412.86,4.84 490.99,3.99 28.19,-0.3 42.49,-20.46 23.64,-34.65 -11.62,-8.74 -357.28,-4.44 -418.84,-4.44 -29.58,0 -133.89,-12.33 -95.78,35.1z"/>
  <path class="fil0" d="M777.27 1621.48c-17.57,7.13 -16.26,33.91 9.19,36.62l212.93 0.27c36.15,0 269.04,3.39 283.26,-2.16 16.24,-6.33 19.1,-33.54 -8.25,-36.61 -18.73,-2.1 -52.07,-0.09 -72.37,-0.09 -63.51,0 -412.67,-2.94 -424.75,1.97z"/>
  <path class="fil0" d="M779.14 1701.72c-21.8,7.61 -17.26,33.41 7.06,36.57l497.33 -1.75c17.63,-6.91 15.44,-34.04 -9.44,-36.82l-212.88 -0.14c-40.24,0 -263.52,-4.33 -282.06,2.14z"/>
  <path class="fil0" d="M1019.89 627.43c-26.98,17.62 -2.86,63.02 26.83,44.5 23.34,-14.55 6.12,-66.03 -26.83,-44.5z"/>
  <g>
   <path class="fil1 str0" d="M332.1 10.42l1497.68 0c176.93,0 321.68,144.76 321.68,321.68l0 1537.54c0,176.93 -144.76,321.68 -321.68,321.68l-1497.68 0c-176.93,0 -321.68,-144.76 -321.68,-321.68l0 -1537.54c0,-176.93 144.76,-321.68 321.68,-321.68z"/>
  </g>
 </g>
</svg>
