<?xml version="1.0" encoding="UTF-8"?>
<!DOCTYPE svg PUBLIC "-//W3C//DTD SVG 1.1//EN" "http://www.w3.org/Graphics/SVG/1.1/DTD/svg11.dtd">
<!-- Creator: CorelDRAW -->
<svg xmlns="http://www.w3.org/2000/svg" xml:space="preserve" width="2.16188in" height="2.20173in" version="1.1" style="shape-rendering:geometricPrecision; text-rendering:geometricPrecision; image-rendering:optimizeQuality; fill-rule:evenodd; clip-rule:evenodd"
viewBox="0 0 2161.88 2201.74"
 xmlns:xlink="http://www.w3.org/1999/xlink"
 xmlns:xodm="http://www.corel.com/coreldraw/odm/2003">
 <defs>
  <style type="text/css">
   <![CDATA[
    .str0 {stroke:#856443;stroke-width:20.83;stroke-miterlimit:2.61313}
    .fil1 {fill:none}
    .fil0 {fill:#856443}
   ]]>
  </style>
 </defs>
 <g id="Layer_x0020_1">
  <metadata id="CorelCorpID_0Corel-Layer"/>
  <g>
   <path class="fil0" d="M1386.94 1143.26l87.43 50.94c29.65,16.7 58.92,33.42 88.26,50.53 38.49,22.45 14.38,10.95 43.49,4.85 22.06,-4.62 39.35,10.6 39.86,30.45 1.07,42.02 -69.96,52.07 -64.32,-11.04 -15.22,-6.55 -33.83,-18.64 -49.06,-27.13l-149.07 -85.5c-0.41,0.42 -1.02,0.54 -1.17,1.33l-3.23 4.25c-11.31,17.77 -17.04,38.97 -41.86,69.15 -7.99,9.71 -13.32,12.61 -17.76,24.86 10.35,4.69 22.67,20.78 32.23,30.51l94.99 94.37c20.3,20.95 120.97,119.4 124.92,127.37 14.63,-3.36 25.55,-8.94 39.94,0.69 39.58,26.46 -12,85.91 -43.7,48.73 -10.4,-12.2 -7.57,-20.45 -4.69,-35.07 1.89,-9.61 -9.2,-16.18 -18.35,-25.17 -13.78,-13.52 -29.98,-31.57 -46.22,-47.2l-164.56 -163.72c-6.64,-6.67 -15.49,-17.64 -23.76,-23.25 -47.77,32.84 -20.77,23.25 -95.41,64.5 5.83,14.5 18.56,34.44 26.8,48.6l84.46 147.8c21.45,1.52 34.74,1.59 41.84,18.87 16.66,40.5 -39.45,61.84 -57.25,31.87 -12.09,-20.36 -2.13,-29.42 4.87,-44.95 -19.22,-32.32 -37.39,-64.78 -56.16,-98.14 -10.63,-18.91 -18.51,-31.1 -28.72,-49.42 -7.41,-13.31 -19.81,-38.37 -29,-48.62 -4.28,0.87 -62.87,17.91 -65.77,19.42 -9.37,30.46 -5.16,90.34 1.93,121.97 8.49,37.9 20.83,66.93 37.27,96.43 30.23,54.26 82.85,100.78 139.09,128.72 203.6,101.09 453.7,-37.94 468.62,-273.81 8.96,-141.69 -78.39,-278.42 -210.45,-325.47 -36.42,-12.97 -69.83,-20.23 -113.12,-20.76 -14.49,-0.18 -52.79,-1.62 -58.24,10.15 -1.82,3.93 -11.81,44.98 -14.11,52.91zm-566.44 -393.56l-3.73 87.42c0.35,-0.38 0.93,-0.99 1.3,-1.41 12.91,-14.52 24.72,-31.94 40.44,-45.44l56.6 -43.43 -94.61 2.87 0.36 -12.74c-0.3,-65.35 1.19,-101.64 -21.06,-156.76 -23.55,10.34 -41.66,-2.06 -68.02,22.65 -57.26,53.69 -14.45,131.21 89.07,134.11 8.83,0.44 115.8,1.24 123.72,-10.97 2.77,-4.27 26.35,-159.14 -19.29,-204.9 -17.52,-17.56 -46.67,-42.94 -84.15,-23.53 -10.86,5.63 -25.93,20.24 -31.31,29.46 -8.54,14.63 -10.31,29.78 -12.73,47.96 -5.48,-6.62 -10.32,-7.52 -10.13,-15.35 0.99,0.57 0.98,0.69 0.13,-1.91 4.35,-33.2 26.72,-63.26 54.89,-74.35 41.33,-16.26 71.52,8.7 90.5,27.98 48.98,49.76 29.02,147.77 26.21,215.03 23.16,-5.55 40.48,-13.58 67.33,-17.87 9.3,-89.71 0.59,-144.15 -36.73,-213.62 -111.91,-208.3 -409.42,-223.27 -545.65,-38.67 -29.17,39.53 -50.41,81.98 -60.19,134.21 -26.56,141.9 41.4,283.83 160.45,347.43 32.01,17.1 55.61,26.83 93.61,34.94 23.72,5.07 101.3,13.53 118.79,0.85 4.44,-3.83 12.07,-41.73 19.83,-61.24 8.71,-21.9 19.61,-37.83 27.53,-56.93 -56.09,3.47 -103.02,11.68 -162.21,9.44 -58.42,-2.2 -98.81,-9.39 -131.55,-42.05 -32.61,-32.52 -55.71,-73.92 -27.25,-120.78 40.51,-66.7 105.15,-51.59 114.53,-58.53l3.39 -7.76c3.19,-13.86 -0.63,-34.06 14.07,-64.17 7.31,-14.97 29.55,-37.08 43.36,-44.99 51.61,-29.55 98.85,1.3 125.36,31.89 4.69,5.1 2.56,-0.5 2.35,9.28 -12.37,7.39 -41.98,1.41 -68.06,31.1 -42.36,48.23 -24.93,96.97 22.11,130.31 19.67,13.94 51.61,18.74 80.72,20.46zm-37.12 -191.15c1.72,0.07 2.9,0.68 3.59,1.07l-3.59 -1.07zm650.65 -148.66c37.99,23.03 -39.06,133.94 7.57,159.93 18.16,-1.39 27.14,-24.05 36.35,-36.32 18.51,-24.66 46.68,-53.52 68.82,-77.72 6.37,-6.96 44.01,-44.47 48.83,-13.94 0.94,5.96 -0.74,11.07 -2.31,15.13 -3.32,8.56 -8.97,15.02 -14.56,20.76 -16.2,16.64 -91.21,93.52 -87.99,114.22 20.47,10.77 66.89,-38.46 85.22,-56.43 30.08,-29.47 57.62,-85.04 77.05,-60.28 16.42,20.92 -34.27,72.37 -46.92,85.37 -26.57,27.29 -68.46,43.34 -70.26,58.42 -1.26,10.55 -0.44,4.17 1.43,7.59 24.68,10.23 67.89,-13.53 82.56,-24.46 10.38,-7.74 19.85,-16.37 30.76,-24.83 11.81,-9.17 20.92,-16.06 39.16,-12.11 9,22.97 -4.82,29.19 -18.4,42.88 -24.54,24.71 -58.69,40.96 -91.26,55.31 -23.26,10.24 -21.13,20.58 -35.61,37.54 -10.69,12.51 -30.68,18.67 -37.2,33.68 -8.97,20.65 10.22,39.23 24.73,43.04 22.54,5.92 38.36,-5.35 63.89,4.52 16.12,6.23 35.16,18.16 37.63,36.04 -17.96,14.11 -37.65,11.24 -65.75,9.53 -50.45,-3.06 -108.01,-1.81 -151.42,-4.49 -99.93,-6.18 -69.06,16.69 -39.29,71.68 12.8,23.65 15.81,43.68 22.96,70.53 3.95,14.85 16.36,12.25 32.08,13.41 43.63,3.23 84.79,-1.82 125.32,-14.96 89.83,-29.13 161.67,-95.52 196.54,-174.59 94.64,-214.65 -46.9,-418.26 -229.79,-455.6 -219.68,-44.84 -401.59,128.84 -393.12,337.71 0.3,7.38 1.07,13.02 1.85,20.37 2.27,21.48 -0.52,15.82 41.57,27.03 81.76,21.77 87.98,70.04 121.68,16.53 13.59,-21.59 18.17,-40.54 26.59,-66.69 15.36,-47.65 56.53,-72.63 69.37,-115.18 9.46,-31.32 5.26,-143.64 41.92,-143.6zm-558.2 875.43c-6.34,8.85 -12.34,18.97 -19.19,28.26 -45.6,61.87 4.32,29.82 17.09,97.21 7.71,40.69 -7.82,83.65 -30.87,113.69 -4.67,6.09 -7.21,9.68 -11.22,14.13l-14.59 12.34c-6.38,-31.84 -11.86,-54.11 -15.54,-90.19 -5.01,-49.2 2.31,-55.91 8.6,-96.09 -14.73,9.01 -64,35.24 -71.2,46.53 9.17,24.61 32.39,54.1 2.42,110.38 -12.03,22.6 -44.65,67.34 -62.52,79.97 -4.16,-32.63 -4.41,-68.35 -2.15,-102.08 3.06,-45.43 15.33,-44.84 27.48,-75.14 -16.43,3.15 -35.24,10.52 -50.33,17.12 -22.04,9.63 -12.54,40.43 -65.06,56.21 -29.92,8.99 -54.83,2.52 -82.16,-4.97 -27.49,-7.53 -55.06,-7.41 -80.08,-16.33 22.4,-10.07 41.43,-16.31 63.14,-27.32 45.26,-22.96 91.27,-53.07 140.26,-26.52 30.27,16.41 3.67,2.52 65.91,-10.05 -49.46,-16.52 -67.81,-39.26 -99.57,-82.56 -4.48,-6.11 -7.56,-9.6 -10.68,-17.42 39.27,1.63 108.46,9.91 134.56,39.94 11.4,13.12 14.05,21.02 18.24,42.41 24.32,-17.02 49.58,-26.56 68.29,-48.13 -34.65,-4.18 -53.38,-25.18 -68.81,-44.8l-37.35 -48.5c-8.36,-8.24 -10.06,-7.18 -15.22,-16.93 28.56,1.37 73.1,9.79 97.65,17.73 41.04,13.28 46.05,27.56 51.49,61.8 9.38,-4.67 3.56,-0.65 10.57,-9.2 2.36,-2.87 5.4,-6.65 7.81,-9.7 6,-7.59 10.94,-12.56 13.17,-22.49 -24.14,-17.07 -54.54,-56.05 -72.17,-89.34 -17.3,-32.66 -24.87,-52.44 -32.32,-88.69 -3.46,-16.85 -9.16,-13.28 -25.99,-14.74 -106.97,-9.28 -180.73,26.02 -243.42,76.66 -97.55,78.8 -141.77,223.09 -96.79,354.64 39.76,116.28 143.58,201.15 266.74,217.21 210.67,27.48 388.11,-151.26 366.74,-355.5 -3.45,-32.94 0.31,-18.79 -47.19,-33.96 -65.54,-20.94 -76.7,-41.73 -105.76,-55.6zm180.33 -541.32c-77.08,8.05 -145.79,41.61 -192.3,97.05 -39.63,47.24 -81.33,126.81 -69.52,215.25 16.07,120.3 86.63,206.84 187.86,243.71 35.91,13.07 81.44,20.41 124.57,16.18 147.53,-14.48 277.09,-145.65 259.9,-312.56 -8.64,-83.9 -52.3,-154.52 -97.44,-190.21 -14.5,-11.47 -22.91,-19.3 -41.01,-29.7 -52.63,-30.26 -108.4,-46.35 -172.05,-39.71zm83.65 343.93c9.04,-5.36 49.63,-6.38 67.08,-6.05l52.46 2.43c0.65,-12.45 2.63,-56.76 -0.68,-66.91 -0.13,-0.39 -0.55,-1.05 -0.68,-1.41l-1.11 -2.46c-1.01,-5.21 0.09,-1.09 1.38,-7.04l0.39 -21.09c-11.37,-8.2 -15.18,-8.3 -34.14,-9.69 -0.98,-0.07 -1.48,-0.13 -2.49,-0.18 -16.56,-0.8 -73.63,3.73 -83.37,-3.94l-0.65 -124.69 -114.24 -0.24 -1.01 125.59 -125.13 0.17 -0.43 114.54 125.29 0.69 0.56 125.07 114.36 0.64c3.6,-28.23 -4.65,-107.86 2.39,-125.43z"/>
  </g>
  <g>
   <path class="fil1 str0" d="M332.1 10.42l1497.68 0c176.93,0 321.68,144.76 321.68,321.68l0 1537.54c0,176.93 -144.76,321.68 -321.68,321.68l-1497.68 0c-176.93,0 -321.68,-144.76 -321.68,-321.68l0 -1537.54c0,-176.93 144.76,-321.68 321.68,-321.68z"/>
  </g>
 </g>
</svg>
