<?xml version="1.0" encoding="UTF-8"?>
<!DOCTYPE svg PUBLIC "-//W3C//DTD SVG 1.1//EN" "http://www.w3.org/Graphics/SVG/1.1/DTD/svg11.dtd">
<!-- Creator: CorelDRAW -->
<svg xmlns="http://www.w3.org/2000/svg" xml:space="preserve" width="2.16188in" height="2.20173in" version="1.1" style="shape-rendering:geometricPrecision; text-rendering:geometricPrecision; image-rendering:optimizeQuality; fill-rule:evenodd; clip-rule:evenodd"
viewBox="0 0 2161.88 2201.74"
 xmlns:xlink="http://www.w3.org/1999/xlink"
 xmlns:xodm="http://www.corel.com/coreldraw/odm/2003">
 <defs>
  <style type="text/css">
   <![CDATA[
    .str0 {stroke:#856443;stroke-width:20.83;stroke-miterlimit:2.61313}
    .fil1 {fill:none}
    .fil0 {fill:#856443}
   ]]>
  </style>
 </defs>
 <g id="Layer_x0020_1">
  <metadata id="CorelCorpID_0Corel-Layer"/>
  <path class="fil0" d="M648.32 682.55l-108.23 -0.49 4.31 133.35 108.35 0.68 1.37 101.92 124.18 9.94 9.57 -111.85 103.37 -0.79 9.85 -133.24c-124.19,0.43 -110.17,17.77 -116.67,-102.08 -43.9,-15.04 -84.59,-14.73 -128.89,-0.44l-7.2 103z"/>
  <g id="_1338956097200">
   <path class="fil0" d="M1311.12 1743.64c85.87,-60.89 160.91,-24.15 208.26,-97.15 -76.54,-58.85 -190.78,-1.59 -309.77,5.03 -193.3,10.76 -419.64,-115.36 -586.32,79.78 -41.19,48.22 -119.92,164.83 -137.7,229.57 46.86,142.84 184.7,252.7 364.9,212.35 86.41,-123.83 53.63,-212.3 279.2,-191.17 314.13,29.43 274.79,106.36 632.91,-277.54 48.37,-51.85 61.61,-59.46 121.42,-115.24 25.87,-24.14 36.17,-36.13 55.54,-63.89 45.2,-64.78 35.65,-22.4 35.2,-91.48 -256.49,21.66 -107.52,214.87 -561.9,318.97 -85.32,19.55 -82.47,6.55 -101.75,-9.22z"/>
   <path class="fil0" d="M723.75 1158.71c-100.11,-50.76 -71.07,-87.5 -135.04,-158.03 -66.72,-73.57 -116.97,-61.26 -180.6,2.89 -50.48,82.5 187.98,460.54 284.34,457.15 99.53,-3.5 432.86,-209.22 532.15,-256.88 -20.07,87.77 -62.07,150.8 -51.88,241.08 71.56,26.97 181.42,19.61 274.3,20.5 130.74,1.26 193.31,23.19 170.65,-111.05 -70.57,-46.01 -167.46,-22.8 -255.81,-37.37 -15.03,-92.24 86.76,-192.64 80.52,-282.67 -5.71,-82.59 -99.17,-203.5 -211.67,-197.87 -95.84,4.79 -189.95,102.34 -286.14,127.22 -167.24,43.26 -169.72,37.46 -220.8,195.02z"/>
   <path class="fil0" d="M1532.96 576.45c-68.78,30.66 -72.97,9.75 -106.07,103.79 -74.04,210.34 123.41,363.29 300.73,279.68 235.46,-111.02 94.87,-512.52 -194.66,-383.47z"/>
  </g>
  <g>
   <path class="fil1 str0" d="M332.1 10.42l1497.68 0c176.93,0 321.68,144.76 321.68,321.68l0 1537.54c0,176.93 -144.76,321.68 -321.68,321.68l-1497.68 0c-176.93,0 -321.68,-144.76 -321.68,-321.68l0 -1537.54c0,-176.93 144.76,-321.68 321.68,-321.68z"/>
  </g>
 </g>
</svg>
