<?xml version="1.0" encoding="UTF-8"?>
<!DOCTYPE svg PUBLIC "-//W3C//DTD SVG 1.1//EN" "http://www.w3.org/Graphics/SVG/1.1/DTD/svg11.dtd">
<!-- Creator: CorelDRAW -->
<svg xmlns="http://www.w3.org/2000/svg" xml:space="preserve" width="2.16188in" height="2.20652in" version="1.1" style="shape-rendering:geometricPrecision; text-rendering:geometricPrecision; image-rendering:optimizeQuality; fill-rule:evenodd; clip-rule:evenodd"
viewBox="0 0 2161.88 2206.52"
 xmlns:xlink="http://www.w3.org/1999/xlink"
 xmlns:xodm="http://www.corel.com/coreldraw/odm/2003">
 <defs>
  <style type="text/css">
   <![CDATA[
    .str0 {stroke:#856443;stroke-width:20.83;stroke-miterlimit:2.61313}
    .fil1 {fill:none}
    .fil0 {fill:#856443}
   ]]>
  </style>
 </defs>
 <g id="Layer_x0020_1">
  <metadata id="CorelCorpID_0Corel-Layer"/>
  <path class="fil0" d="M1107.68 529.64c-319.85,28.53 -537.45,286.63 -547.71,576.75 -1.96,55.46 7.69,129.95 -11.86,178.1 -8.18,20.15 -21.71,42.72 -30.84,61.63 -17.58,36.41 -88.55,168.61 -89.82,190.75 -4.67,81.28 87.62,60.34 110.05,76.94 56.69,41.95 -17.57,246.98 46.46,331.11 79.02,103.81 235.19,-19.93 286.91,54.4 25.78,37.04 9.33,124.11 13.43,175.71 2.85,35.89 25.09,30.7 60.1,30.54l562.31 -0.02c26.85,0 70.01,6.33 81.86,-12.95 9.67,-15.73 4.32,-152.5 4.32,-182.42 -0,-556.1 173.16,-713.71 136.66,-978.05 -42,-304.15 -309.63,-530.32 -621.87,-502.47zm70.83 1006.11c91.2,10.93 224.98,-74.79 266.14,-117.82 49.6,-51.85 124.24,-162.97 119.52,-266.85l-92.02 0.4c5,42.91 6.29,64.8 -17.07,96.28 -54.22,73.09 -202.3,53.42 -181.84,-96.15l-93.98 -0.17c-3.68,45.29 16.43,145.11 -23.5,158.72 -31.65,10.78 -37.23,-16.85 -69.88,-13.95 -23.57,2.09 -44.24,22.47 -44.85,47.43 -0.61,24.86 18.34,45.65 40.13,49.3 36.82,6.17 41.68,-23.84 73.04,-14.23 39.7,12.16 24.52,112.3 24.32,157.04zm-440.61 -439.49l92.73 0.16c-4.87,-44.1 -2.04,-71.46 19.7,-100.11 35.48,-46.74 121.18,-52.42 161.86,2.11 29.91,40.08 17.07,50.75 18.83,97.7l91.74 0.37c7.67,-42.17 -15.49,-142.75 22.63,-158.49 29.97,-12.37 37.8,13.94 68.17,13.71 55.87,-0.43 67.08,-82.93 10.29,-96.2 -37.9,-8.86 -39.9,22.05 -73.67,13.53 -45.05,-11.36 -21.86,-113.03 -26.97,-157.98 -135.72,-7.87 -282.02,109.69 -343.93,230.09 -22.62,44 -38.41,99.22 -41.39,155.11zm0.97 55.1c-4.9,105.8 73.47,219.19 119.39,266.32 41.12,42.19 168.06,127.16 265.78,118.32l0.23 -91.7c-41.76,5.51 -65.91,6.46 -95.63,-16.31 -20.05,-15.36 -40.85,-41.61 -41.74,-80.46 -0.89,-38.7 19.04,-68.98 38.42,-83.89 30.83,-23.73 54.84,-22.54 97.85,-18.47l1.02 -93.09c-45.34,-3.98 -143.33,16.42 -158.54,-23.07 -12.16,-31.59 15.72,-38.46 13.4,-69.91 -4.14,-56.34 -85.74,-60.73 -96.62,-7.05 -7.76,38.32 64.99,99.89 -50.44,99.26 -31,-0.17 -62.15,-0.22 -93.14,0.06zm439.84 -348.18c41.19,-5.34 67.93,-3.06 96.36,16.91 49.02,34.41 58.98,116.09 1.09,164.35 -34.22,28.53 -56.9,19.12 -97.71,18.78l0.41 92.85c42.66,1.93 144.67,-11.87 157.95,20.21 13.42,32.4 -14.26,39.64 -13.33,70.24 1.74,57.35 82.8,63.04 95.77,12.05 10.84,-42.63 -65,-102.4 51.26,-102.19 31.52,0.06 63.05,-0.18 94.57,0.14 -4.31,-106.61 -54.74,-197.53 -122.78,-267.02 -46.85,-47.85 -159,-124.12 -263.35,-118.52l-0.26 92.2z"/>
  <g>
   <path class="fil1 str0" d="M332.1 10.42l1497.68 0c176.93,0 321.68,144.76 321.68,321.68l0 1537.54c0,176.93 -144.76,321.68 -321.68,321.68l-1497.68 0c-176.93,0 -321.68,-144.76 -321.68,-321.68l0 -1537.54c0,-176.93 144.76,-321.68 321.68,-321.68z"/>
  </g>
 </g>
</svg>
