<?xml version="1.0" encoding="UTF-8"?>
<!DOCTYPE svg PUBLIC "-//W3C//DTD SVG 1.1//EN" "http://www.w3.org/Graphics/SVG/1.1/DTD/svg11.dtd">
<!-- Creator: CorelDRAW -->
<svg xmlns="http://www.w3.org/2000/svg" xml:space="preserve" width="2.16188in" height="2.20173in" version="1.1" style="shape-rendering:geometricPrecision; text-rendering:geometricPrecision; image-rendering:optimizeQuality; fill-rule:evenodd; clip-rule:evenodd"
viewBox="0 0 2161.88 2201.74"
 xmlns:xlink="http://www.w3.org/1999/xlink"
 xmlns:xodm="http://www.corel.com/coreldraw/odm/2003">
 <defs>
  <style type="text/css">
   <![CDATA[
    .str0 {stroke:#856443;stroke-width:20.83;stroke-miterlimit:2.61313}
    .fil1 {fill:none}
    .fil0 {fill:#856443}
   ]]>
  </style>
 </defs>
 <g id="Layer_x0020_1">
  <metadata id="CorelCorpID_0Corel-Layer"/>
  <g id="_1338875766480">
   <path class="fil0" d="M834.11 1193.67l13.46 -56.19c191.5,-12.27 158.19,146.44 158.19,282.85l-0.06 333.34c-0.16,16.41 -3.95,41.68 6.51,51.78 54.42,52.56 31.94,-185.66 31.94,-234.02 0,-74.07 0,-148.14 0,-222.21 0,-78.42 8.81,-131.81 -32.94,-187.96 -39.3,-52.85 -81.45,-60.63 -163.06,-63.51l-14.56 -55.22c10.8,-11.06 16.89,-12.58 26.99,-20.45 9.63,-7.51 16.9,-16.44 24.63,-24.28 136.39,-138.18 13.67,-384.27 -220.01,-349.2 -415.33,62.33 -431.54,883.04 0.68,937.86 201.1,25.51 319.24,-143.24 260.84,-287.25 -24.15,-59.53 -50.95,-70.5 -92.61,-105.54z"/>
   <path class="fil0" d="M1327.88 1042.56l-13.89 55.17c-188.18,6.17 -196.14,94.31 -196.14,247.04l0.33 447.63c2.66,13.27 39.06,50.64 38.37,-34.27 -0.72,-89.57 -8.06,-504.89 9.31,-546.52 22.89,-54.89 72.23,-78.83 149.82,-74.24l12.11 56.18c-220.35,154.3 -73.61,425.28 168.81,392.9 209.33,-27.96 320.27,-235.18 317.55,-468.5 -2.61,-223.72 -115.95,-438.65 -312.89,-468.67 -194.63,-29.67 -325.23,131.7 -266.9,284.4 13.18,34.5 35.83,61.02 62.57,84.1 7.26,6.27 8.35,6.76 14.94,11.67l16.02 13.13zm133.67 -273.03c-7.84,42.88 20.37,30.48 56.44,49.5 27.67,14.59 44.2,30.29 61.12,49.99 63.05,73.46 55.94,160.24 90.84,122.69 22.58,-24.29 -39.49,-146.91 -120.94,-199.21 -15.62,-10.03 -67.5,-36.57 -87.46,-22.96z"/>
  </g>
  <g>
   <path class="fil1 str0" d="M332.1 10.42l1497.68 0c176.93,0 321.68,144.76 321.68,321.68l0 1537.54c0,176.93 -144.76,321.68 -321.68,321.68l-1497.68 0c-176.93,0 -321.68,-144.76 -321.68,-321.68l0 -1537.54c0,-176.93 144.76,-321.68 321.68,-321.68z"/>
  </g>
 </g>
</svg>
