<?xml version="1.0" encoding="UTF-8"?>
<!DOCTYPE svg PUBLIC "-//W3C//DTD SVG 1.1//EN" "http://www.w3.org/Graphics/SVG/1.1/DTD/svg11.dtd">
<!-- Creator: CorelDRAW -->
<svg xmlns="http://www.w3.org/2000/svg" xml:space="preserve" width="2.16188in" height="2.20173in" version="1.1" style="shape-rendering:geometricPrecision; text-rendering:geometricPrecision; image-rendering:optimizeQuality; fill-rule:evenodd; clip-rule:evenodd"
viewBox="0 0 2161.88 2201.74"
 xmlns:xlink="http://www.w3.org/1999/xlink"
 xmlns:xodm="http://www.corel.com/coreldraw/odm/2003">
 <defs>
  <style type="text/css">
   <![CDATA[
    .str0 {stroke:#856443;stroke-width:20.83;stroke-miterlimit:2.61313}
    .fil1 {fill:none}
    .fil0 {fill:#856443}
   ]]>
  </style>
 </defs>
 <g id="Layer_x0020_1">
  <metadata id="CorelCorpID_0Corel-Layer"/>
  <g id="_1338669820864">
   <path class="fil0" d="M823.25 1071.74l14.05 -58.67c199.92,-12.81 165.15,152.88 165.15,295.29l-0.07 348c-0.17,17.13 -4.12,43.52 6.8,54.06 56.81,54.87 33.35,-193.82 33.35,-244.31 0,-77.33 0,-154.65 0,-231.98 0,-81.87 9.2,-137.6 -34.39,-196.23 -41.03,-55.18 -85.04,-63.3 -170.23,-66.3l-15.2 -57.65c11.27,-11.54 17.63,-13.13 28.18,-21.35 10.06,-7.84 17.64,-17.17 25.72,-25.35 142.39,-144.26 14.27,-401.17 -229.69,-364.56 -433.6,65.07 -450.51,921.87 0.72,979.11 209.95,26.63 333.28,-149.54 272.31,-299.88 -25.21,-62.15 -53.19,-73.59 -96.69,-110.18z"/>
   <path class="fil0" d="M1338.74 913.99l-14.5 57.6c-196.45,6.43 -204.76,98.45 -204.76,257.9l0.34 467.32c2.78,13.85 40.78,52.86 40.06,-35.78 -0.75,-93.51 -8.41,-527.1 9.71,-570.56 23.9,-57.3 75.41,-82.3 156.41,-77.51l12.64 58.65c-230.04,161.08 -76.85,443.98 176.23,410.18 218.54,-29.19 334.35,-245.52 331.52,-489.11 -2.72,-233.57 -121.05,-457.94 -326.65,-489.29 -203.19,-30.98 -339.53,137.49 -278.63,296.91 13.76,36.02 37.41,63.7 65.32,87.8 7.57,6.54 8.71,7.06 15.6,12.19l16.72 13.7zm139.54 -285.04c-8.18,44.77 21.26,31.82 58.93,51.67 28.89,15.23 46.15,31.62 63.8,52.19 65.82,76.69 58.4,167.28 94.84,128.08 23.57,-25.36 -41.23,-153.37 -126.26,-207.97 -16.3,-10.47 -70.46,-38.17 -91.31,-23.98z"/>
  </g>
  <g>
   <path class="fil1 str0" d="M332.1 10.42l1497.68 0c176.93,0 321.68,144.76 321.68,321.68l0 1537.54c0,176.93 -144.76,321.68 -321.68,321.68l-1497.68 0c-176.93,0 -321.68,-144.76 -321.68,-321.68l0 -1537.54c0,-176.93 144.76,-321.68 321.68,-321.68z"/>
  </g>
 </g>
</svg>
