<?xml version="1.0" encoding="UTF-8"?>
<!DOCTYPE svg PUBLIC "-//W3C//DTD SVG 1.1//EN" "http://www.w3.org/Graphics/SVG/1.1/DTD/svg11.dtd">
<!-- Creator: CorelDRAW -->
<svg xmlns="http://www.w3.org/2000/svg" xml:space="preserve" width="2.16188in" height="2.20173in" version="1.1" style="shape-rendering:geometricPrecision; text-rendering:geometricPrecision; image-rendering:optimizeQuality; fill-rule:evenodd; clip-rule:evenodd"
viewBox="0 0 2161.88 2201.74"
 xmlns:xlink="http://www.w3.org/1999/xlink"
 xmlns:xodm="http://www.corel.com/coreldraw/odm/2003">
 <defs>
  <style type="text/css">
   <![CDATA[
    .str0 {stroke:#856443;stroke-width:20.83;stroke-miterlimit:2.61313}
    .fil1 {fill:none}
    .fil0 {fill:#856443}
   ]]>
  </style>
 </defs>
 <g id="Layer_x0020_1">
  <metadata id="CorelCorpID_0Corel-Layer"/>
  <path class="fil0" d="M448.33 1522.02c-12.75,6.07 -32.16,6.09 -32,40.11 0.05,10.54 2.46,20.68 5.24,30.56 4.41,15.64 3.77,12.42 17.17,18.96 51.67,25.21 16.46,58.34 28.06,108.54 8.56,37.04 37.17,68.33 62.17,82.69 15.29,8.78 208.98,44.99 241.12,50.75 19.44,3.49 43.74,6.31 61.96,10.52 36.87,8.51 74.17,173.21 81.41,210.5 4.09,21.07 6.09,43.78 10.75,64.04l482.56 0.47 -25.42 -101.5c-45.38,-186.85 -68.68,-391.5 -53.66,-584.28 3.26,-41.83 22.56,-194.57 38.7,-220.05l57.06 0.68c-6.42,32.78 -17.39,67.04 -23.82,103.38 -39.6,224.06 -15.88,480.3 39.88,699.52 8.36,32.88 16.54,70.61 28.04,101.97l254.54 0.28c-1.24,-7.04 -21.29,-41.52 -26.39,-51.59 -111.85,-220.98 -130.36,-482.39 -48.29,-717.49 46.24,-132.47 50.36,-96.25 108.61,-206.9 82.88,-157.43 70.16,-358.37 -13.12,-506.06 -71.14,-126.16 -186.23,-227.58 -342.93,-288.02 -162.61,-62.72 -369.31,-65.51 -533.65,-1.79 -39.2,15.2 -73.24,30.75 -107.35,50.38 -66.29,38.15 -100.21,68.44 -153.31,121.7 -3.78,3.79 -6.33,5.45 -9.71,9.39l-44.2 56.03c-57.17,78.1 -96.94,185.6 -101.96,292.39 -3.94,83.86 56.82,123.03 28.67,192.76 -36.71,90.92 -165.06,191.92 -118.86,255.59 3.5,4.83 14.04,14.75 20.23,18.14 11.66,6.37 64.45,9.59 34.1,68.92 -6.67,13.04 -53.45,65.65 34.37,89.41zm1019.52 -461.81c-40.5,29.76 -73.78,22.82 -112.12,4.95 -34.11,34.61 -31.56,20.98 -60.05,22.63 -6.12,0.35 -6.13,3.35 -12.07,8 -18.21,14.24 -35.46,8.5 -51.69,1.52 8.72,74.28 91.23,131.38 180.18,122.32 81.76,-8.32 154.04,-69.69 143.1,-161.74 -5.48,2.86 -42.9,45.58 -87.35,2.32zm-284.76 -638.61c-12.53,-4.6 -25.43,-14.6 -44.74,-14.37 -24.92,0.29 -28.94,9.3 -45.42,15.22 -18.02,-28.17 -75.84,-22.09 -81.02,-4.81 0.67,19.33 28.05,35.15 36,58.33 26.39,-7.58 46.82,-11.87 70.47,4.29 40.11,27.41 33.38,70.84 16.84,55.85 -4.05,-3.67 -3.93,-8.78 -5.5,-13.98 -9.13,-30.2 -47.76,-45.94 -75.2,-27.75 -0.6,11.41 -0.41,67.78 -19.75,50.66 -11.45,-10.13 8.65,-18.79 -1.31,-54.54 -4.81,-17.28 -14.74,-32.35 -23.96,-42.06 -7.51,-7.91 -25.2,-21 -41.67,-22.91 -26.06,-3.02 -30.6,11.65 -40.5,26.17 -14.37,-6.42 -26,-14.69 -45.6,-5.06 -11.17,5.48 -28.65,20.6 -15.9,34.59 21.52,23.62 42.91,21.87 47.56,70.17 22.31,-0.41 29.59,-12.93 63.47,-2.13 16.17,5.16 13.6,19.08 1.95,19.16 -7.09,0.05 -17.84,-5.97 -32.08,-5.46 -34.05,1.22 -56.63,23.59 -63.25,51.65 -2.91,12.33 -2.02,22.45 -17.7,15.86 -10,-10.03 10.94,-52.54 29.49,-65.23 4.22,-81.63 -119.02,-112.11 -116.91,-21.84 -18.07,-1.02 -30.8,-2.12 -45.2,6.24 -9.15,5.31 -19.06,18.2 -13.83,35.45 4.82,15.89 14.36,13.72 29.17,22.03 15.37,8.62 14.95,14.08 25.37,27.77 47.28,-7.8 72.1,28.79 58.11,55.58l-10.98 -0.02c-7.04,-11.28 0.31,-20.65 -10.98,-31.85 -6.75,-6.71 -29.62,-14.81 -33.74,0.28 -3.36,12.31 -3.81,30.58 -21.77,25.35 -4.5,-13.06 22.48,-49.37 -25.94,-67.85 -49.9,-19.04 -96.41,30.62 -98.67,51.46 -1.64,15.19 19.33,15.99 32.57,18.91 28.04,6.18 56.96,52.02 28.26,53.02 -10.49,-3.56 -8.57,-38.83 -44.72,-39.72 -53.59,-1.3 -70.52,65.58 -58.14,106.09 7.57,24.78 19.86,36.67 34.56,50.58 -6.91,17.63 -16.39,32.14 -0.82,52.1 11.25,14.42 27.51,18.43 49.61,14.27 -6.61,47.63 41.63,67.35 72.81,37.81 10.99,10.08 15.89,21.08 34.06,22.35 20.56,1.44 29.47,-9.21 37.86,-19.17 5.82,10.58 7.8,16.57 17.64,24.71 30.44,25.17 62.63,11.73 75.27,-27.1 14.26,31.02 54.01,26.5 62.5,-7.56 14.17,12.92 17.18,29.81 48.02,18.27 10.94,-33.62 8.33,-63.49 46.47,-87.37l-10.94 -19.49c-0.22,-0.45 -0.46,-1.02 -0.69,-1.46l-3.26 -5.57c-40.58,20.48 -87.15,3.6 -101.76,-38.63 -5.32,-15.38 -9.13,-38.52 12.82,-32.01 5.7,23.88 -0.9,28.74 17.09,46.92 14.86,15.01 49.59,21.85 68.67,3.84 6.73,-6.36 5.42,-12.64 10.59,-21.41 5.01,-8.5 26.32,-32.77 39.3,-22.1 12.9,12.65 -16.58,17.28 -24.59,32.63 -10.67,20.46 -0.48,33.89 7.49,46.04 39.78,-6.13 30.25,-17.09 83.59,-4.53 4.43,-50.49 37.71,-47.89 58.28,-53.83 9.81,-49.58 78.9,-70.38 71.85,-36.96 -14.92,6.26 -25.89,2.06 -39.82,13.2 -22.52,18.01 -18.39,58.38 7.93,73.11 17.06,9.54 36.18,-1.9 32.05,20.53 -15.95,6.23 -35.49,-0.43 -47.4,-9.39 -18.91,-14.23 -14.86,-17.85 -25.58,-40.32 -16.84,-2.69 -27.96,5.75 -33.91,14.94 -11.65,17.97 0.22,25.95 -3.54,41.36 -26.4,8.15 -33.44,-40.09 -103.94,4.57 -29.04,18.4 -54.95,73.91 -32.44,84.98 7.4,3.64 -8.19,-4.11 3.15,1.3 0.49,0.24 1.11,0.55 1.56,0.77l3.07 1.74c-15.54,12.37 -6.31,50.89 34.32,39.96 -9.38,19.62 -10.5,35.53 4.71,50.18 17.21,16.57 30.9,11.62 50.29,3.91 13.65,12.44 24.09,23.93 46.53,20.12 38.86,-6.61 38.67,-72.83 28.26,-100.02 -8.06,-21.05 -25.63,-31.13 -22.53,-45.73 10.21,-3.11 12.33,-0.97 18.26,5.24 16.24,17.01 13.85,32.14 44.56,32.53 29.66,0.37 53.03,-19.19 61.02,-41.78 2.66,-7.52 3.44,-14.39 13.19,-12.04 19.16,4.61 -9.5,42.33 -15.28,48.36 -16.54,17.26 -44.65,24.7 -77.26,21.7 2,15.91 2.93,25.91 0.05,41.99 -2.01,11.2 -7.99,24.71 -3.25,35.13 7.54,6.6 21.2,7.15 30.97,3.05 10.56,-4.43 12.57,-12.68 18.3,-20.17 18.68,8.29 41.56,12.28 54.46,-9.46 3.25,-5.46 3.95,-12.77 7.66,-18.18 13.8,13.82 31.96,26.88 61.57,25.98 31.16,-0.94 44.77,-15.64 59.61,-27.57 13.34,16.54 21.13,29.95 46.83,25.47 21.17,-3.69 31.55,-18.89 33.59,-41.73l4.84 4.95c33.87,36.47 78.98,4.96 64.78,-45.94 36.83,16.63 70.99,-15.57 59.57,-46.33 -3.81,-10.28 -12.52,-12.83 -24.93,-15.4 -40.76,-8.44 -76.3,-39.73 -85.26,-79.26 -3.51,-15.48 10.35,-20.31 15.92,-9.45 11.12,21.72 10.99,48.02 57.15,66.63 36.59,14.74 79.32,-1.82 57.07,-42.13 -5.4,-9.78 -13.95,-13.36 -23.38,-19.61 62.24,-13.32 56.87,-103.96 -14.71,-102.41 8.91,-17.8 22.71,-31.15 -5.74,-49.48 -50.75,-32.68 -146.28,-2.61 -166.32,45.56 14.06,6.41 17.27,8.41 27.34,18.89 29.06,30.24 7.11,39.61 -1.59,27.26 -4.63,-6.56 -2.89,-6.74 -9.94,-13.61 -50.14,-48.83 -89.97,3.8 -101.09,-7.64 -9.85,-12.35 11.86,-20.97 21.48,-25.08 17.18,-7.34 27.51,-6.02 46.88,-5.7 5.74,-17.64 25.96,-37.97 40.51,-47.54 28.2,-18.55 80.76,-18.54 90.28,-39.67 10.15,-22.52 -2.46,-47.78 -25.89,-55.18 -16.31,-5.15 -25.22,0.57 -37.62,5.55 27.43,-64.43 -37.38,-94.04 -65.3,-70.73 -18.17,15.17 -26.24,57.27 -44.1,77.44 -6.02,6.8 -15.57,14.75 -20.11,20.44 30.23,52.59 5.48,106.17 -10.08,91.38 -5.74,-5.46 -3.17,-8.22 1.19,-17.2 14.75,-30.34 0.76,-68.46 -28.85,-83.27 -15.66,-7.83 -30.39,-4.6 -40.66,-10.25 -2.76,-19.57 13.52,-16.48 31.05,-12.29 15.56,3.72 23.6,11.89 34.66,16.92 10.03,-5.43 26.83,-26.3 33.46,-37.07 16.71,-27.15 38.28,-80.1 4.21,-100.98 -22.46,-13.77 -37.61,-4.44 -55.06,3.83 0.81,-57.19 -70.21,-79.36 -85.31,-32.62 -6.96,21.55 -21.79,21.62 -37.13,45.92 -11.52,18.25 -18.97,40.83 -19.08,67.41 0.54,0.38 1.41,0.15 1.75,0.95l36.67 10.79c10.39,4.87 27.46,12.02 22.83,24.5 -10,8.66 -17.29,-1.67 -26.17,-6.2 -50.14,-25.55 -87.01,12.17 -95.12,7.6 -9.81,-12.2 -0.4,-16.63 10.39,-22.46 10.38,-5.61 18.34,-8.72 31.78,-11.01 -0.07,-34.96 8.3,-62.96 27.98,-89 5.46,-7.22 13.09,-16.45 16.61,-23.94 10.81,-23 -12.2,-40.21 -31.95,-42.83 -28.1,-3.72 -40.28,12.63 -51.14,27.69z"/>
  <g>
   <path class="fil1 str0" d="M332.1 10.42l1497.68 0c176.93,0 321.68,144.76 321.68,321.68l0 1537.54c0,176.93 -144.76,321.68 -321.68,321.68l-1497.68 0c-176.93,0 -321.68,-144.76 -321.68,-321.68l0 -1537.54c0,-176.93 144.76,-321.68 321.68,-321.68z"/>
  </g>
 </g>
</svg>
