<?xml version="1.0" encoding="UTF-8"?>
<!DOCTYPE svg PUBLIC "-//W3C//DTD SVG 1.1//EN" "http://www.w3.org/Graphics/SVG/1.1/DTD/svg11.dtd">
<!-- Creator: CorelDRAW -->
<svg xmlns="http://www.w3.org/2000/svg" xml:space="preserve" width="2.16188in" height="2.20173in" version="1.1" style="shape-rendering:geometricPrecision; text-rendering:geometricPrecision; image-rendering:optimizeQuality; fill-rule:evenodd; clip-rule:evenodd"
viewBox="0 0 2161.88 2201.74"
 xmlns:xlink="http://www.w3.org/1999/xlink"
 xmlns:xodm="http://www.corel.com/coreldraw/odm/2003">
 <defs>
  <style type="text/css">
   <![CDATA[
    .str0 {stroke:#856443;stroke-width:20.83;stroke-miterlimit:2.61313}
    .fil1 {fill:none}
    .fil0 {fill:#856443}
   ]]>
  </style>
 </defs>
 <g id="Layer_x0020_1">
  <metadata id="CorelCorpID_0Corel-Layer"/>
  <path class="fil0" d="M518.17 1605.48c-11.35,5.4 -28.61,5.41 -28.47,35.68 0.05,9.37 2.19,18.39 4.67,27.18 3.92,13.91 3.35,11.05 15.27,16.87 45.96,22.43 14.64,51.9 24.96,96.56 7.61,32.95 33.06,60.78 55.3,73.56 13.6,7.81 185.91,40.02 214.5,45.15 17.3,3.1 38.91,5.61 55.13,9.35 32.8,7.57 65.98,154.09 72.42,187.26 3.64,18.74 5.42,38.94 9.56,56.97l429.29 0.42 -22.61 -90.3c-40.37,-166.22 -61.1,-348.28 -47.74,-519.78 2.9,-37.21 20.07,-173.08 34.43,-195.76l50.76 0.61c-5.71,29.16 -15.48,59.64 -21.19,91.96 -35.23,199.33 -14.13,427.28 35.48,622.3 7.44,29.25 14.71,62.81 24.94,90.72l226.44 0.24c-1.11,-6.26 -18.94,-36.93 -23.47,-45.89 -99.51,-196.58 -115.96,-429.13 -42.96,-638.28 41.14,-117.85 44.8,-85.63 96.62,-184.06 73.73,-140.05 62.41,-318.81 -11.67,-450.19 -63.29,-112.23 -165.67,-202.45 -305.07,-256.22 -144.65,-55.8 -328.54,-58.28 -474.73,-1.59 -34.88,13.53 -65.15,27.36 -95.5,44.82 -58.98,33.93 -89.15,60.88 -136.38,108.27 -3.36,3.37 -5.63,4.85 -8.64,8.35l-39.32 49.85c-50.85,69.48 -86.24,165.11 -90.7,260.11 -3.51,74.6 50.54,109.45 25.5,171.48 -32.65,80.88 -146.83,170.73 -105.74,227.38 3.11,4.29 12.49,13.12 18,16.13 10.37,5.67 57.34,8.54 30.33,61.31 -5.94,11.6 -47.55,58.4 30.58,79.54zm906.96 -410.83c-36.03,26.47 -65.63,20.3 -99.74,4.41 -30.35,30.79 -28.07,18.66 -53.43,20.13 -5.44,0.31 -5.45,2.98 -10.74,7.11 -16.2,12.66 -31.54,7.56 -45.98,1.35 7.76,66.08 81.16,116.87 160.29,108.82 72.73,-7.41 137.03,-62 127.3,-143.88 -4.87,2.54 -38.16,40.55 -77.71,2.06zm-253.33 -568.11c-11.15,-4.09 -22.62,-12.99 -39.8,-12.79 -22.17,0.26 -25.74,8.27 -40.41,13.54 -16.03,-25.06 -67.47,-19.65 -72.07,-4.28 0.59,17.2 24.95,31.27 32.02,51.89 23.48,-6.75 41.65,-10.56 62.69,3.81 35.68,24.38 29.69,63.02 14.98,49.69 -3.6,-3.26 -3.49,-7.81 -4.89,-12.44 -8.13,-26.87 -42.49,-40.87 -66.91,-24.69 -0.54,10.15 -0.37,60.3 -17.57,45.07 -10.19,-9.01 7.69,-16.72 -1.17,-48.52 -4.28,-15.37 -13.11,-28.78 -21.31,-37.42 -6.68,-7.03 -22.42,-18.68 -37.07,-20.37 -23.18,-2.68 -27.22,10.37 -36.03,23.28 -12.78,-5.71 -23.13,-13.06 -40.56,-4.5 -9.94,4.87 -25.49,18.33 -14.15,30.77 19.14,21.01 38.17,19.46 42.3,62.42 19.85,-0.37 26.33,-11.5 56.46,-1.89 14.38,4.59 12.1,16.98 1.73,17.05 -6.3,0.04 -15.87,-5.31 -28.54,-4.86 -30.29,1.09 -50.38,20.99 -56.27,45.95 -2.59,10.96 -1.8,19.97 -15.74,14.11 -8.9,-8.93 9.74,-46.74 26.23,-58.03 3.75,-72.61 -105.88,-99.74 -104,-19.43 -16.08,-0.91 -27.4,-1.89 -40.22,5.55 -8.14,4.72 -16.95,16.19 -12.3,31.54 4.29,14.14 12.77,12.21 25.94,19.59 13.67,7.67 13.3,12.53 22.57,24.71 42.06,-6.94 64.14,25.61 51.7,49.44l-9.77 -0.02c-6.26,-10.03 0.28,-18.37 -9.76,-28.34 -6.01,-5.97 -26.35,-13.17 -30.02,0.26 -2.99,10.95 -3.39,27.2 -19.37,22.55 -4,-11.62 20,-43.92 -23.08,-60.36 -44.39,-16.93 -85.76,27.24 -87.77,45.78 -1.46,13.52 17.2,14.22 28.98,16.82 24.94,5.5 50.67,46.28 25.14,47.17 -9.33,-3.17 -7.63,-34.55 -39.79,-35.33 -47.67,-1.16 -62.73,58.34 -51.72,94.37 6.73,22.04 17.67,32.62 30.74,45 -6.15,15.69 -14.59,28.59 -0.73,46.34 10.01,12.83 24.48,16.39 44.13,12.7 -5.88,42.37 37.04,59.91 64.77,33.64 9.78,8.96 14.13,18.75 30.3,19.88 18.29,1.29 26.22,-8.19 33.69,-17.06 5.17,9.41 6.94,14.74 15.69,21.98 27.08,22.39 55.72,10.44 66.96,-24.11 12.69,27.59 48.04,23.57 55.61,-6.73 12.6,11.49 15.28,26.52 42.72,16.25 9.74,-29.91 7.41,-56.48 41.34,-77.72l-9.73 -17.34c-0.2,-0.4 -0.41,-0.91 -0.61,-1.3l-2.91 -4.95c-36.1,18.22 -77.52,3.2 -90.52,-34.36 -4.74,-13.68 -8.12,-34.27 11.41,-28.48 5.07,21.24 -0.81,25.57 15.2,41.74 13.22,13.35 44.11,19.44 61.09,3.41 5.99,-5.65 4.82,-11.24 9.42,-19.04 4.46,-7.56 23.42,-29.15 34.97,-19.66 11.48,11.26 -14.75,15.37 -21.87,29.03 -9.49,18.2 -0.43,30.14 6.66,40.95 35.39,-5.46 26.91,-15.2 74.36,-4.03 3.94,-44.92 33.55,-42.61 51.85,-47.89 8.73,-44.1 70.19,-62.61 63.92,-32.87 -13.27,5.57 -23.03,1.83 -35.42,11.74 -20.04,16.02 -16.37,51.93 7.06,65.04 15.17,8.49 32.19,-1.69 28.52,18.26 -14.2,5.54 -31.57,-0.38 -42.17,-8.35 -16.82,-12.65 -13.22,-15.88 -22.75,-35.87 -14.98,-2.39 -24.87,5.11 -30.17,13.29 -10.36,15.98 0.19,23.09 -3.15,36.79 -23.49,7.25 -29.75,-35.67 -92.46,4.07 -25.84,16.37 -48.89,65.75 -28.86,75.6 6.58,3.24 -7.28,-3.65 2.8,1.16 0.44,0.21 0.99,0.48 1.39,0.68l2.74 1.54c-13.83,11 -5.61,45.27 30.53,35.55 -8.35,17.45 -9.35,31.61 4.19,44.64 15.31,14.74 27.49,10.34 44.73,3.48 12.15,11.06 21.44,21.29 41.4,17.9 34.57,-5.88 34.4,-64.79 25.14,-88.98 -7.17,-18.73 -22.8,-27.69 -20.04,-40.69 9.09,-2.77 10.97,-0.86 16.24,4.66 14.44,15.13 12.33,28.59 39.64,28.94 26.39,0.33 47.17,-17.07 54.29,-37.17 2.36,-6.68 3.06,-12.8 11.74,-10.71 17.04,4.11 -8.46,37.66 -13.6,43.03 -14.71,15.35 -39.72,21.97 -68.74,19.3 1.79,14.15 2.61,23.05 0.04,37.35 -1.79,9.97 -7.11,21.98 -2.89,31.26 6.7,5.87 18.86,6.36 27.55,2.71 9.4,-3.94 11.19,-11.28 16.28,-17.94 16.62,7.37 36.96,10.92 48.45,-8.42 2.89,-4.86 3.51,-11.35 6.81,-16.17 12.27,12.3 28.43,23.91 54.77,23.11 27.72,-0.84 39.83,-13.91 53.04,-24.53 11.87,14.72 18.8,26.65 41.66,22.66 18.83,-3.28 28.06,-16.81 29.89,-37.12l4.31 4.41c30.13,32.44 70.26,4.41 57.63,-40.87 32.77,14.8 63.15,-13.85 52.99,-41.22 -3.39,-9.14 -11.14,-11.41 -22.18,-13.7 -36.26,-7.51 -67.88,-35.35 -75.85,-70.5 -3.12,-13.77 9.21,-18.07 14.16,-8.41 9.89,19.32 9.78,42.72 50.84,59.27 32.55,13.12 70.56,-1.62 50.77,-37.48 -4.8,-8.7 -12.41,-11.89 -20.8,-17.45 55.37,-11.85 50.59,-92.48 -13.09,-91.1 7.93,-15.84 20.2,-27.71 -5.11,-44.01 -45.15,-29.07 -130.13,-2.33 -147.96,40.53 12.51,5.7 15.36,7.48 24.33,16.81 25.85,26.91 6.32,35.24 -1.42,24.25 -4.12,-5.84 -2.57,-5.99 -8.84,-12.1 -44.61,-43.44 -80.04,3.38 -89.93,-6.8 -8.76,-10.99 10.56,-18.65 19.11,-22.31 15.28,-6.54 24.47,-5.36 41.7,-5.07 5.11,-15.7 23.09,-33.78 36.04,-42.29 25.09,-16.51 71.84,-16.49 80.32,-35.3 9.03,-20.03 -2.19,-42.5 -23.03,-49.09 -14.51,-4.58 -22.44,0.51 -33.47,4.94 24.4,-57.32 -33.26,-83.66 -58.09,-62.92 -16.17,13.5 -23.35,50.94 -39.24,68.89 -5.35,6.05 -13.85,13.12 -17.89,18.18 26.89,46.79 4.88,94.45 -8.97,81.29 -5.11,-4.85 -2.82,-7.31 1.06,-15.3 13.12,-26.99 0.68,-60.91 -25.67,-74.08 -13.93,-6.96 -27.04,-4.09 -36.17,-9.12 -2.46,-17.41 12.02,-14.65 27.62,-10.93 13.84,3.31 21,10.57 30.83,15.06 8.93,-4.83 23.87,-23.4 29.77,-32.98 14.87,-24.15 34.06,-71.25 3.75,-89.83 -19.98,-12.25 -33.46,-3.94 -48.98,3.41 0.72,-50.88 -62.46,-70.6 -75.89,-29.02 -6.19,19.17 -19.38,19.23 -33.03,40.85 -10.25,16.23 -16.87,36.32 -16.97,59.97 0.48,0.34 1.26,0.13 1.56,0.84l32.62 9.6c9.24,4.33 24.44,10.69 20.31,21.8 -8.89,7.7 -15.38,-1.49 -23.28,-5.52 -44.61,-22.73 -77.4,10.83 -84.62,6.76 -8.72,-10.85 -0.35,-14.8 9.24,-19.98 9.23,-4.99 16.31,-7.76 28.27,-9.8 -0.07,-31.11 7.39,-56.01 24.89,-79.18 4.85,-6.42 11.65,-14.63 14.78,-21.3 9.61,-20.46 -10.85,-35.77 -28.42,-38.1 -25,-3.31 -35.84,11.23 -45.5,24.63z"/>
  <g>
   <path class="fil1 str0" d="M332.1 10.42l1497.68 0c176.93,0 321.68,144.76 321.68,321.68l0 1537.54c0,176.93 -144.76,321.68 -321.68,321.68l-1497.68 0c-176.93,0 -321.68,-144.76 -321.68,-321.68l0 -1537.54c0,-176.93 144.76,-321.68 321.68,-321.68z"/>
  </g>
 </g>
</svg>
