<?xml version="1.0" encoding="UTF-8"?>
<!DOCTYPE svg PUBLIC "-//W3C//DTD SVG 1.1//EN" "http://www.w3.org/Graphics/SVG/1.1/DTD/svg11.dtd">
<!-- Creator: CorelDRAW -->
<svg xmlns="http://www.w3.org/2000/svg" xml:space="preserve" width="2.16188in" height="2.20173in" version="1.1" style="shape-rendering:geometricPrecision; text-rendering:geometricPrecision; image-rendering:optimizeQuality; fill-rule:evenodd; clip-rule:evenodd"
viewBox="0 0 2161.88 2201.74"
 xmlns:xlink="http://www.w3.org/1999/xlink"
 xmlns:xodm="http://www.corel.com/coreldraw/odm/2003">
 <defs>
  <style type="text/css">
   <![CDATA[
    .str0 {stroke:#856443;stroke-width:20.83;stroke-miterlimit:2.61313}
    .fil1 {fill:none}
    .fil0 {fill:#856443}
   ]]>
  </style>
 </defs>
 <g id="Layer_x0020_1">
  <metadata id="CorelCorpID_0Corel-Layer"/>
  <path class="fil0" d="M998.21 485.44c19.18,12.11 38.03,19.63 57,33.24 83.99,60.2 76.64,109.5 76.61,194.14 -0.03,105.19 125.91,143.5 233.27,124.76 56.46,-9.86 87.78,-34.39 117.02,-64 30.94,-31.33 43.71,-70.61 62.8,-118.13 16.33,-40.67 -42.7,-80.69 -72.96,-97.98 -46.3,-26.46 -94.37,-31.78 -151.11,-17.44 10.2,28.89 62.74,73.35 26.83,158.3 -7.59,17.95 -13.44,34.41 -35.15,29.11 -7.81,-31.65 40.73,-56.25 8.6,-130.19 -63.42,-145.94 -255.96,-171.93 -322.9,-111.78zm-91.06 255.44c3.01,24.69 -10.93,44.39 -31.96,46.39 -45.79,4.37 -130.26,-62.35 -148.71,-92.2 -42.07,-0.19 -23.21,4.36 -90.19,-0.9 -23.83,-1.88 -70.21,-2.39 -87.98,-9.29l-1.14 -18.36c28.26,-9.27 132.45,7.63 141.99,-0.38 27.31,-22.33 -0.04,-115.58 -68.06,-120.17 -77.98,-5.26 -150.25,73.29 -172.15,137.07 -15.68,45.67 -18.95,28.89 -50.26,54.1 -39.69,31.95 -59.71,74.77 -63.51,146.11 -105.47,56.04 -103.02,218.17 -86.24,322.94 21.5,134.27 79.93,124.32 148.4,175.6 22.55,16.89 34.73,34.05 61.3,50.03 99.26,59.71 217.52,7.05 177.82,-21.28 -2.03,-1.44 -34.19,-6.87 -44.62,-11.21 -95.95,-40.01 -89.18,-120.4 -151.53,-175.41 -27.7,-24.44 -64.97,-44.5 -93.33,-70.02 -11.8,-10.61 -21.43,-14.84 -22.46,-35.42 28.26,-12.31 33.87,6.23 51.01,24.15 13.66,14.28 36.66,33.21 58.38,32.76 6.59,-14.88 42.63,-93.8 61.33,-75.64 21.04,20.44 -86.04,118.24 -5.98,127.99 55.43,6.75 117.82,-41.65 124.36,-84.63 2.98,-19.56 -40.47,-104.71 -23.72,-121.17 13.82,-13.58 22.43,2.04 24.25,21.01 12.58,130.49 81.71,63.05 119.89,75.17 6.01,14.86 5.24,11.91 -8.2,19.02 -28.9,15.29 -60.41,10.31 -90.11,13.85 -13.65,40.15 -15.3,51.75 -43.26,72.04 -26.46,19.2 -53.62,22.58 -86.43,31.84 -1.32,20.57 17.16,49.31 27.46,63.85 73.64,103.86 236.29,65.64 282.87,-45.7 10.37,-24.79 14.88,-46.86 13.4,-76.95 -1.12,-22.57 -16.05,-60.91 -12.25,-74.68 59.5,-9.52 24.07,134.26 34.28,153.68 11.42,21.72 26.74,30.26 38.1,62.82 6.65,19.07 20.31,70.26 9.59,88.09 -13.85,-1.47 -9.92,2.87 -17.41,-27.9 -8.43,-34.62 -11.1,-90.18 -53.79,-91.95 -49.39,98.37 -147.11,90.64 -158.36,102.24 -18.72,19.3 20.13,98.7 100.29,132.67 47.55,20.15 170.41,23.06 220.98,4.26 54.44,-20.24 104.01,-68 124.07,-119.45 37.11,-95.2 -24.41,-147.81 -29.67,-191.44 7.43,-8.39 2.84,-7.55 15.61,-11.43 22.44,21.91 48.53,83.82 51.96,126.21 6.13,75.77 -37.46,116.21 -35.05,142.9 54.28,12.27 93.98,3.57 127.95,-25.93 20.6,-17.89 33.55,-11.73 67.32,-11.73 69.84,0 176.71,7.07 239.62,-4.51 42.35,-7.79 88.74,-34.14 103.06,-60.53 72.87,2.52 138.38,11.57 203.15,-54.29 52.97,-53.85 64.45,-126.43 62.19,-203.09 -11.94,4.23 -23.96,15.74 -36.56,23.43 -26.32,16.08 -56.4,27.29 -88.11,30.37 -35.01,3.4 -22.98,-1.22 -43.66,18.74 -19.76,19.08 -51.07,29.2 -84.5,33.46 -54.77,6.96 -60.24,-3.55 -104.77,-11.22 -11.83,19.41 -21.7,44.18 -42.16,59.37 -17,12.63 -44.15,35.16 -72.71,21.25 -0.87,-17 0.34,-14.8 16.77,-21.44 28.21,-11.4 57.71,-23.07 66.93,-55.44 5.93,-20.83 -14.99,-32.82 -27.79,-45.02 -11.56,-11.02 -31.05,-38.35 -41.9,-43.19 -11.72,4.57 -16.68,12.01 -25.28,18.04 -26.1,18.28 -78.3,34.79 -106.48,14.91l0.19 -19.77c28.87,-8.46 50.74,9.56 87.15,-10.76 22.89,-12.78 31.88,-45 47.91,-50.79 13.44,7.09 14.31,19.74 22.56,34.36 9.74,17.27 10.99,19.52 26.27,32.87 21.67,18.94 41.35,36.42 72.72,45.61 66.3,19.42 151.53,2.3 163.23,-60.01 12.88,-68.59 -10.43,-141.01 -43.47,-181.56 -56.8,-69.69 -95.52,-64.37 -142.97,-92.93 -2.8,-31.95 13.87,-21.28 36.4,-12.69 83.3,31.74 146.99,85.02 169.73,174.61 5.17,20.36 8,39.19 8.74,60.97 1.33,39.26 -16.78,70.51 21.91,64.41 52.84,-8.32 122.09,-38.49 112.87,-105.2 -4.76,-34.46 -17.35,-63.74 -31.41,-90.45 -8.38,-15.91 -15.42,-24.65 -24.83,-37.84 -27.32,-38.26 -38.39,-23.53 -45.64,-76.5 -13.6,-99.27 -131.42,-206.11 -237.65,-195.54 -6.93,13.09 -37.12,83.03 -37.67,92.95 13.93,11.47 42.78,18.16 63.98,25.7 12.77,4.54 41.78,7.41 47.4,22.28 15.76,41.7 -79.28,-7.56 -95.51,-12.37 -26.33,-7.81 -32.02,-10.8 -48.33,6.65 -115.26,123.34 -345.08,89.78 -391.24,-22.82 -30.02,-73.23 28.43,-113.44 -43.62,-203.3 -16.29,-20.31 -42.52,-37.59 -75.53,-49.74 -31.29,-11.51 -49.64,-29.78 -83.69,-41.5 -74.2,-25.56 -152.33,-0.64 -195.39,39.19 -44.14,40.82 -25.74,24.62 -3.98,73.33 14.32,32.06 13.73,64.05 33.13,91.88 21.63,31.04 66.75,72.52 110.05,78.64 31.79,4.5 33.16,-8.91 52.72,-14.1zm-271.19 143.78c-67.15,-10.64 -106.11,-21.02 -177.69,19.9 -34.18,19.54 -50.06,39.5 -73.72,57.59l13.35 18.78c22.85,-8.23 26.63,-28.08 75.7,-54.15 31.42,-16.69 62.6,-29.11 105.07,-24.63 68.35,7.23 120.52,68.63 125.43,137.52 -29.99,21.28 -48.21,0.63 -47.49,31.01 81.59,14.86 164.95,-92.24 294.29,4.48 25.02,18.71 47.28,50.27 60.65,85.5 21.86,57.64 9.1,122.27 -22.48,173.79 -13.61,22.21 -23.78,24.63 -10.73,51.26 18.76,-4.62 29.33,-28.54 37.93,-44.88 38.5,-73.09 24.56,-128.73 43.88,-196.19 9.29,-32.41 32.7,-91.8 55.13,-104.69 23.43,-13.46 98.72,19.45 121.17,31.02 -1.19,25.26 -10.61,64.96 -12.72,97.92l27 0.85c5.04,-16.69 1.69,-40.52 10.06,-71.35 11.62,-42.78 56.41,-4.02 94.17,-38.39 9.06,-8.25 8.06,-15 -0,-20.76 -12.36,-6 -23.7,7.71 -45.94,10.1 -119.85,12.9 -181.56,-101.59 -238.65,1.17 -12.7,22.87 -26.29,73.46 -38,89.29 -22.66,-45.11 -65.32,-93.24 -111.22,-114.86 -86.51,-40.74 -144.87,0.25 -188.96,7.89 -6.07,-51.57 -38.24,-101.16 -69.99,-124.35 1.65,-22.02 24.5,-88.36 -16.65,-88.15 -2.7,8.49 -6.96,50.52 -9.6,64.35zm655.64 97.09c24.46,5.15 18.82,-15.67 35.1,-36.45 10.73,-13.7 27.87,-26.11 52.75,-27.99 54.13,-4.1 75.04,36.86 77.5,83.01l27.8 -1.16c6.09,-52.35 -39.14,-103.8 -87.71,-107.14 -57.32,-3.94 -122.34,32.1 -105.44,89.72zm-208.19 533.19c-1.25,40.17 9.43,87.53 23.16,121.03 30.28,73.85 109.29,86.88 133.58,158.58 10.54,31.12 8.8,101.45 7.73,138.39l143.8 0.68 -0.19 -238.6c14.93,-14.86 107.7,-47.3 136.78,-54.4 131,-31.96 284.76,29.93 314.05,-68.45 7.29,-24.48 0.84,-151.12 0.2,-186.3 -36.76,15.48 -55.55,41.75 -132.74,40.37 -23.28,-0.41 -34.3,-8.65 -48.52,2.87 -57.27,46.38 -91.83,56.41 -173.96,58.91 -51.16,1.56 -198.99,-8.95 -221.72,4.68 -97.93,58.69 -98.95,35.07 -182.15,22.25z"/>
  <g>
   <path class="fil1 str0" d="M332.1 10.42l1497.68 0c176.93,0 321.68,144.76 321.68,321.68l0 1537.54c0,176.93 -144.76,321.68 -321.68,321.68l-1497.68 0c-176.93,0 -321.68,-144.76 -321.68,-321.68l0 -1537.54c0,-176.93 144.76,-321.68 321.68,-321.68z"/>
  </g>
 </g>
</svg>
