<?xml version="1.0" encoding="UTF-8"?>
<!DOCTYPE svg PUBLIC "-//W3C//DTD SVG 1.1//EN" "http://www.w3.org/Graphics/SVG/1.1/DTD/svg11.dtd">
<!-- Creator: CorelDRAW -->
<svg xmlns="http://www.w3.org/2000/svg" xml:space="preserve" width="2.16188in" height="2.20173in" version="1.1" style="shape-rendering:geometricPrecision; text-rendering:geometricPrecision; image-rendering:optimizeQuality; fill-rule:evenodd; clip-rule:evenodd"
viewBox="0 0 2161.88 2201.74"
 xmlns:xlink="http://www.w3.org/1999/xlink"
 xmlns:xodm="http://www.corel.com/coreldraw/odm/2003">
 <defs>
  <style type="text/css">
   <![CDATA[
    .str0 {stroke:#856443;stroke-width:20.83;stroke-miterlimit:2.61313}
    .fil1 {fill:none}
    .fil0 {fill:#856443}
   ]]>
  </style>
 </defs>
 <g id="Layer_x0020_1">
  <metadata id="CorelCorpID_0Corel-Layer"/>
  <path class="fil0" d="M318.23 1333.63c11.5,5.64 23.3,13.16 38.19,19.57 12.1,5.22 31.31,10.02 42.04,16.07 3.2,23.64 -1.81,52.89 1.45,75.37 2.94,20.3 21.69,35.61 30.28,46 -3,20.95 -12.82,36.99 -9.02,62.22 4.46,29.64 16.21,24.03 33.98,38.04 0.56,33.58 -4.79,91.17 6.96,118.26 30.35,69.96 120.43,43.3 187.91,35.64 91.57,-10.39 206.8,-44.83 253.17,-118.66 14.78,-23.54 23.98,-61.79 32.52,-91.39 5.5,-19.06 22.59,-85.48 29.85,-97.71l52.75 13.86c-2.21,23.04 -22.58,82.22 -30.04,107.18 -10.93,36.62 -19.52,70.43 -37.82,99.55 -17.33,27.58 -42.09,50.25 -68.65,68.5 -24.05,16.52 -40.49,24.56 -67.13,35.8l-22.06 9.84c-0.36,0.23 -1.11,0.74 -1.62,1.17 6.3,5.95 12.68,8.69 20.55,14.22 92.31,64.82 114.07,160.96 118.86,273.26 1.93,45.37 -5.66,127.59 -4.9,136.72l459.69 -0.01c-4.58,-3.78 -52.2,-23.7 -63.04,-28.87 -144.64,-69.1 -241.65,-250.05 -212.27,-425.58 32.01,-191.24 186.62,-333.73 399.64,-341.47 26.05,-79.86 90,-137.7 129.08,-295.25 29.2,-117.72 25.97,-268.04 -15.18,-376.04 -88.01,-230.94 -293.53,-314.82 -531.55,-320.4 -119.91,-2.81 -268.45,15.87 -366.08,57.63 -149.52,63.96 -249.24,204.72 -279.18,361.83 -20.69,108.56 -8,111.5 -5.09,197.26 2.83,83.6 -19.34,106.31 -50.61,164.11 -16.29,30.11 -65.99,111.65 -72.71,143.26zm396.73 -339.48c22.7,96.27 114.4,123.57 200.52,131.86 36.09,3.48 18.23,-1.28 45.78,10.05 11,4.52 33.15,12.56 44.17,14.24 14.27,-51.91 47.62,-110.59 80.92,-132.57 27.03,-17.83 62.28,-9.28 79.86,8.44 16.48,16.6 26.49,45.83 31.16,76.69 15.09,99.75 -43.7,128.21 -88.38,172.41 -15.64,15.48 -43.46,38.72 -67.5,40.36 -17.71,1.21 -22.43,-12.74 -33.7,-21.01l-11.16 8.17c-6.6,6.72 -25.5,25.68 -28.39,32.83 25.22,20.92 47.56,55.11 112.64,27.65 50.11,-21.13 72.66,-56.82 93.12,-68.65 14.59,4.56 96.78,84.17 231.64,55.8 62.86,-13.23 61.54,-42.13 104.44,-96.24 13.32,-16.81 27.98,-38.24 38.79,-61.44 17.49,-37.55 35.61,-114.99 39.24,-161.21 3.77,-48.08 -12.38,-129.23 -20.02,-178.3 -9.79,-62.86 -15.87,-104.89 -44.12,-155.79 -110.85,-199.66 -338.99,-251.32 -560.84,-232.25 -220.8,18.96 -388.37,130.89 -450.59,348.3 -16.45,57.49 3.51,118.15 36.7,146.39 33.17,28.22 115.02,27.78 165.71,34.28z"/>
  <path class="fil0" d="M773.72 575.13c4.42,12.84 13.42,25.67 18.02,36.94l-47.48 27.22c-0.76,-0.98 -1.4,-2.36 -1.57,-1.95l-19.83 -32.02c-16.62,7.8 -50.46,39.85 -64.69,55.48 -6.37,7 -15.6,15.35 -16.72,24.39 14.5,2.74 80.9,-19.92 118,42.96l-38.55 39.13c-15.39,-12.28 -21.36,-31.72 -49.2,-27.11 -41.23,6.84 -33.28,2.34 -64.32,-8.58 -16.24,28.99 -30.06,62.08 -39.86,97.21 -10.17,36.45 -0.3,85.65 33.97,93.8 3.65,-4.88 10.67,-31.04 25.48,-55.59l29.93 -51.02c12.97,2.19 36.16,17.56 49.75,23.24 -6.8,30.19 -40.72,59.9 -46.33,91.85 90.24,10.67 95.78,-3.59 120.21,74.86 30.6,-2.43 66.75,-50.71 116.46,-59.13 18,-3.05 39.54,3.21 54.36,-3.43 50.61,-22.68 72.32,-34.99 127.93,6.28 14.76,10.95 11.16,-1.72 49.48,1.09 112.95,8.28 139.89,148.49 125.14,221.61 -3.22,15.96 -8.81,30.55 -15.13,42.59 -7.33,13.98 -19.68,26.57 -23.06,39.36 17.61,9.66 44.57,32.79 71.5,35.08 11.38,-20.42 17.39,-45.87 22.49,-71.43 17.41,2.06 40.53,6.57 54.64,14.13l-16.15 65.89c79.56,1.7 67.61,-11.23 105.07,-63.67 20.26,-28.37 55.64,-68.39 59.19,-113.03 -8.59,-4.29 -36,-11.59 -46.27,-11.84 -13.42,-0.32 -25.18,16.38 -33.64,25.01 -30.79,31.43 -45.7,19.52 -94.6,15.65l4.26 -56.8c68.48,4.57 40.11,11.11 68.13,22.19 -6.45,-4.81 -13.61,-11.59 -18.51,-17.96 7.99,-15.7 31.36,-36.32 53.35,-42.77 34.33,-10.08 58.82,12.64 79.93,5.91 7.94,-21.31 11.15,-75.32 -0.2,-95.55 -61,0.3 -135.87,65.14 -177.02,68.82 -15.65,1.4 -21.4,-2.49 -34.6,-4.76 -16.44,-2.82 -24.3,3.46 -37.49,0.98 -1.81,-15.83 -8.44,-40.89 -5.32,-55.06 69.58,-8.84 52.2,4.19 74.76,1.15 13.39,-1.8 51.75,-23.32 57.04,-31.08 8.23,-31 -4.89,-49.09 -9.9,-75.06l53.04 -16.29c10.17,21.56 13.19,42.72 16.7,66.45l55.09 -13.75c-0.93,-32.57 -17.31,-146.53 -41.36,-177.09 -3.42,-4.34 -0.48,-1.33 -4.48,-4.54 -32.21,55.08 -88.87,62.17 -96.65,77.36 -16.93,33.06 14.13,82.47 -118.25,113.98 -18.94,4.51 -19.26,17.61 -32.33,27.94 -10.96,-6.71 -32.64,-24.32 -42.41,-33.98 7,-14.41 22.56,-31.24 34.96,-39.2 28.5,-18.27 88.72,-10.4 96.84,-53.53 19.55,-103.88 57.6,-53.07 107.87,-118.96 17.2,-22.55 20.06,-28.55 2.04,-45.67 -15.3,-14.53 -24.96,-24.22 -40.22,-36.27 -42.56,-33.59 -96.82,-59.2 -152.56,-74.2 -121.03,-32.56 -40.61,34.09 -124.98,83.15 -49.24,28.63 -56.96,23.93 -57.33,95.23l-55.67 0.92c-3.61,-17.35 -2.29,-42.51 2.17,-59.16 7.17,-26.8 28.14,-20.55 -22.06,-94.6 -9.19,-13.56 -24.1,-29.5 -29.85,-41.52 -37.93,-0.61 -146.85,30.91 -169.22,48.72z"/>
  <path class="fil0" d="M1804.59 1617.94c-7.41,3.37 -159.25,154.23 -169.4,168.2 7.75,12.44 11.09,9.35 17.48,21.11 -4.85,7.77 -15.46,17.47 -20.64,22.67 -34.45,34.57 -125.07,128.42 -149.18,146.35 -32.94,24.5 -85.2,38.52 -131.58,20.5 -16.51,-6.42 -38.65,-18.98 -56.03,-28.54 -17.57,-9.67 -41.12,-20.54 -57.12,-29.65 17.6,-25.21 428.29,-422.98 436.54,-439.88 -263.78,-131.77 -546.66,80.71 -509.75,357.44 34.61,259.48 343.92,402.56 571.36,220.52 28.29,-22.64 52.07,-51.17 73.46,-84.8 47.76,-75.07 62.29,-173.41 42.66,-261.49 -7.69,-34.48 -29.06,-89.58 -47.81,-112.43z"/>
  <path class="fil0" d="M1334.37 1923.34c12.04,11.03 41.99,23.7 63.91,23.79 47,0.18 75.09,-38.93 95.89,-59.81 13.78,-13.83 25.78,-25.66 39.6,-39.55 10.45,-10.5 32.06,-29.74 38.87,-40.52l-60.24 -61.76c-11.32,5.2 -13.89,12.09 -22.83,21.13l-151.72 151.8c-3.09,3.97 -0.72,-0.03 -3.47,4.93z"/>
  <path class="fil0" d="M831.1 1050.04c32.9,16.27 103.25,20.77 143.11,24.06 9.81,-23.6 26.24,-48.93 42.08,-68.3 5,-6.11 13.67,-13.28 16.67,-20.3 -26.66,-9.71 -32.79,-3.66 -53.48,7.11 -53.44,27.8 -53.89,-8.54 -107.84,26.78 -7.11,4.65 -12.3,9.19 -19.94,14.42 -7.12,4.86 -16.75,9.61 -20.59,16.23z"/>
  <path class="fil0" d="M1552.93 1704.36c4.76,8.76 33.96,37 40.59,40.65 3.91,-2.62 1.55,-0.91 4.94,-3.85l37.26 -36.84c8.01,-7.45 35.07,-33.15 39.39,-42.17 -9.31,-9.74 -30.97,-34.83 -42.8,-39.98 -10.26,12.26 -75.19,74.04 -79.37,82.19z"/>
  <path class="fil0" d="M1676 1582.75l40.77 39.76 51.13 -49.23c-4.69,-11.33 -30.84,-34.54 -42.46,-40.98 -8.78,5.57 -45.02,40.83 -49.44,50.45z"/>
  <path class="fil0" d="M1050.01 588.21c10.1,-1 32.96,-13.75 38.46,-19.5 7.1,-7.41 13.03,-36.11 15.4,-47.33l-94.33 -2.78 40.47 69.61z"/>
  <g>
   <path class="fil1 str0" d="M332.1 10.42l1497.68 0c176.93,0 321.68,144.76 321.68,321.68l0 1537.54c0,176.93 -144.76,321.68 -321.68,321.68l-1497.68 0c-176.93,0 -321.68,-144.76 -321.68,-321.68l0 -1537.54c0,-176.93 144.76,-321.68 321.68,-321.68z"/>
  </g>
 </g>
</svg>
