<?xml version="1.0" encoding="UTF-8"?>
<!DOCTYPE svg PUBLIC "-//W3C//DTD SVG 1.1//EN" "http://www.w3.org/Graphics/SVG/1.1/DTD/svg11.dtd">
<!-- Creator: CorelDRAW -->
<svg xmlns="http://www.w3.org/2000/svg" xml:space="preserve" width="2.16188in" height="2.20173in" version="1.1" style="shape-rendering:geometricPrecision; text-rendering:geometricPrecision; image-rendering:optimizeQuality; fill-rule:evenodd; clip-rule:evenodd"
viewBox="0 0 2161.88 2201.74"
 xmlns:xlink="http://www.w3.org/1999/xlink"
 xmlns:xodm="http://www.corel.com/coreldraw/odm/2003">
 <defs>
  <style type="text/css">
   <![CDATA[
    .str0 {stroke:#856443;stroke-width:20.83;stroke-miterlimit:2.61313}
    .fil1 {fill:none}
    .fil0 {fill:#856443}
   ]]>
  </style>
 </defs>
 <g id="Layer_x0020_1">
  <metadata id="CorelCorpID_0Corel-Layer"/>
  <path class="fil0" d="M607.63 2031.64l634.03 0.05 0.3 -195.8c3.04,-21.69 18.8,-25.5 43.49,-25.42 88.76,0.31 177.56,0.07 266.33,0.07 4.81,-32.13 -2.77,-74.56 1.44,-105.59 2.77,-20.44 31.12,-30.67 57.53,-51.5 -16.43,-16.55 -84.91,-41.72 -47.78,-74.96 54.07,-48.41 71.04,-20.5 70.58,-78.56 -0.52,-66.33 -1.02,-51.97 65.3,-82.35 26.52,-12.15 65.8,-22.96 70.22,-40.13 3.79,-14.72 -0.93,-22.07 -8.61,-28.98 -46.5,-41.8 -89.22,-121.74 -108.37,-185.24 -25.52,-84.57 -14.25,-175.09 -32.79,-264.03 -58.2,-279.24 -337.87,-530.39 -690.46,-483.23 -112.68,15.07 -253.91,76.66 -327.87,150.16l-56.29 56.33c-163.4,186.83 -198.46,443.01 -93.88,676.09 57.83,128.89 156.87,179.05 156.74,435.89 -0.05,98.9 -1,198.35 0.09,297.19zm645.97 -814.3c-79.04,-20.81 -145.88,-167 -111.27,-201.96 17.52,-17.69 44.37,-5.91 46.9,18.89 4.95,48.54 12.53,78.48 53.15,113.9 14.58,12.71 36.8,28.5 56.59,18.17 30.96,-16.17 59.77,-56.21 49.24,-109.15 -15.1,-75.97 -110.04,-71.93 -38.96,-121.21 55.37,-38.39 64.97,-143.45 -30.63,-177.41 -43.74,-15.54 -4.64,-61.32 -56.51,-106.59 -30.78,-26.86 -86.13,-36.56 -124.61,-7.93 -39.63,29.48 -43.87,59.32 -43.86,122.65l0 329.52c0,45.27 -6.77,118 11.21,155.15 42.11,87.04 180.71,66.22 188.75,-34.02zm-452.91 -509.17c70.55,16.48 105.7,73.53 93.15,133.22 -4.31,20.53 -21.11,40.38 -42.74,27.31 -33.64,-20.34 19.76,-77.47 -48.33,-103.4 -26.76,-10.19 -32.63,-8.69 -55.78,6.07 -56.02,35.7 -57.17,119.92 -11.19,159.01 7.74,6.58 61.98,32.33 13.69,63.19 -68.6,43.83 -58.59,143.05 9.43,175.11 25.93,12.22 37.17,6.5 39.56,40.28 7.1,100.36 126.57,128.13 177.56,61.59 31.02,-40.48 22.85,-78.07 22.85,-135.76l0 -311.71c0,-45.2 7.66,-112.04 -12.7,-146.09 -16.86,-28.2 -53.64,-58.69 -106.15,-48.49 -40.44,7.86 -72.54,38.93 -79.35,79.66zm-55.34 3.08c-97.62,30.98 -134.58,181.89 -50.22,253.14 -6.14,13.5 -25.26,25.04 -38.03,61.45 -27.96,79.77 10.77,164 86.87,196.35 15.25,64.55 43.71,112.84 110.53,132.65 33.96,10.07 74.51,8.17 104.85,-5.93 14.23,-6.61 25.06,-13.17 36.59,-22.65 21.08,-17.34 17.96,-19.7 32.43,-31.59 22.13,38.74 84.09,75.89 152.35,64.41 56.43,-9.49 101.51,-50.88 119.43,-99.64 2.71,-7.39 4.24,-13.24 5.77,-21.01 0.3,-1.52 1.59,-9.01 1.89,-9.89 2.51,-7.52 0.48,-4.54 6.15,-8.83 21.28,-16.1 58.9,-25.61 80.72,-85.48 10.05,-27.57 14.4,-63.4 5.19,-96.17 -8.41,-29.87 -18.2,-42.53 -35.57,-65.28l-4.99 -7.2c62.13,-71.76 65.32,-163.61 -10.17,-229.9 -12.37,-10.86 -25.57,-14.63 -34.73,-21.82 -13.47,-10.57 -14.9,-118.97 -135.59,-140.05 -67.83,-11.85 -113.89,21.59 -152.18,63.99 -9.2,-7.87 -24.04,-35.51 -66.39,-53.38 -29.85,-12.59 -67.65,-16.67 -101.8,-7.18 -54.93,15.26 -109.48,66.1 -113.09,134z"/>
  <g>
   <path class="fil1 str0" d="M332.1 10.42l1497.68 0c176.93,0 321.68,144.76 321.68,321.68l0 1537.54c0,176.93 -144.76,321.68 -321.68,321.68l-1497.68 0c-176.93,0 -321.68,-144.76 -321.68,-321.68l0 -1537.54c0,-176.93 144.76,-321.68 321.68,-321.68z"/>
  </g>
 </g>
</svg>
