<?xml version="1.0" encoding="UTF-8"?>
<!DOCTYPE svg PUBLIC "-//W3C//DTD SVG 1.1//EN" "http://www.w3.org/Graphics/SVG/1.1/DTD/svg11.dtd">
<!-- Creator: CorelDRAW -->
<svg xmlns="http://www.w3.org/2000/svg" xml:space="preserve" width="2.16188in" height="2.20173in" version="1.1" style="shape-rendering:geometricPrecision; text-rendering:geometricPrecision; image-rendering:optimizeQuality; fill-rule:evenodd; clip-rule:evenodd"
viewBox="0 0 2161.88 2201.74"
 xmlns:xlink="http://www.w3.org/1999/xlink"
 xmlns:xodm="http://www.corel.com/coreldraw/odm/2003">
 <defs>
  <style type="text/css">
   <![CDATA[
    .str0 {stroke:#856443;stroke-width:20.83;stroke-miterlimit:2.61313}
    .fil1 {fill:none}
    .fil0 {fill:#856443}
   ]]>
  </style>
 </defs>
 <g id="Layer_x0020_1">
  <metadata id="CorelCorpID_0Corel-Layer"/>
  <g id="_1338793870720">
   <path class="fil0" d="M1011.53 427.58c-392.98,52.05 -646.11,381.8 -604.81,745.78 39.37,346.98 349.74,647.11 746.03,601.48 385.02,-44.33 646.97,-393.47 601.74,-748.57 -48.88,-383.73 -394.16,-644.88 -742.96,-598.69zm-287.72 232.97c10.35,32.1 552.38,558.38 594.86,601.03 27.81,27.93 177.28,188.04 202.29,196.08 85.91,-85.41 135.08,-263.7 125.82,-398.53 -19.23,-280.08 -244.81,-504.45 -524.39,-524.56 -151.59,-10.9 -318.48,48.12 -398.58,125.98zm713.25 880.95c-9.67,-30.98 -172.35,-178.57 -196.11,-202.12l-547.02 -548.28c-22,-21.9 -33.48,-40.11 -53.91,-46.74 -78.18,79.33 -136.59,248.3 -125.93,398.56 26.36,371.5 401.13,618.13 756.34,493.07 54.87,-19.31 131.72,-59.65 166.64,-94.49z"/>
   <path class="fil0" d="M1080.48 968.8l346.78 -0.01 -0.02 358.43c0,19.92 7.12,22.97 17.9,33.99 14.61,14.92 17.23,19.47 35.56,28.04l0.09 -520.36c-0.01,-75.43 -55.07,-66.96 -109.76,-66.89l0.01 72.84c0.02,42.64 -31.61,71.67 -67.85,45.53 -25.35,-18.28 -17.06,-79.37 -17.06,-115.11 -53.18,-13.06 -318.16,-3.41 -392.91,-3.37 14.33,29.41 103.41,109.64 129.7,136.46 19.72,20.11 19.77,30.44 57.55,30.44z"/>
   <path class="fil0" d="M678.65 874.62l1.51 494.27c0,76.75 34.55,72.19 96.94,72.2l531.99 0.15c-8.37,-17.59 -21.51,-31.8 -36.8,-43.88 -23.28,-18.39 -185.42,-9.51 -221.57,-9.51 -105.61,0 -211.22,0 -316.83,0l-0.14 -419.02 103.32 0.28c-9.33,-22.62 -76.97,-82.89 -103.72,-110.19 -25.72,-26.24 -20.63,-28.6 -46.48,-34.32l-8.21 50.03z"/>
   <path class="fil0" d="M1312.48 909.97l38.45 -0.92c8.76,-36 9.65,-175.87 -2.27,-206.97 -58.93,-18.99 -46.62,31.28 -46.52,77.5 0.09,42.74 -6.41,101.72 10.34,130.39z"/>
   <polygon class="fil0" points="774.98,1347.38 855.29,1347.28 855.34,1315.31 855.34,1291.51 855.18,1266.95 774.95,1266.89 "/>
   <polygon class="fil0" points="1305.68,1065.32 1305.91,1089.38 1336.43,1089.44 1360.24,1089.45 1385.96,1089.69 1385.99,1017.69 1385.89,1009.37 1305.71,1009.39 "/>
   <polygon class="fil0" points="907.69,1346.77 987.9,1347.38 987.78,1266.97 907.88,1267.12 "/>
   <polygon class="fil0" points="1173.12,1065.32 1173.23,1089.57 1252.91,1089.37 1253.34,1009.83 1173.08,1009.32 "/>
   <polygon class="fil0" points="1306.1,1218.38 1384,1218.47 1385.77,1137.8 1307.14,1138.2 "/>
   <polygon class="fil0" points="775.46,1218.59 853.38,1218.36 854.98,1138.19 776.51,1138.05 "/>
   <polygon class="fil0" points="1040.51,1344.98 1120.45,1346.81 1120.39,1268.98 1040.63,1267.35 "/>
   <polygon class="fil0" points="908.08,1218.18 987.11,1217.68 987.82,1140.61 909.27,1137.97 "/>
   <path class="fil0" d="M807.28 714.13c5.84,20.25 32.11,45.45 51.66,53.68 -0.15,-19.26 5.6,-49.22 -7.32,-63.11 -17.43,-18.74 -37.17,-4.4 -44.33,9.44z"/>
  </g>
  <g>
   <path class="fil1 str0" d="M332.1 10.42l1497.68 0c176.93,0 321.68,144.76 321.68,321.68l0 1537.54c0,176.93 -144.76,321.68 -321.68,321.68l-1497.68 0c-176.93,0 -321.68,-144.76 -321.68,-321.68l0 -1537.54c0,-176.93 144.76,-321.68 321.68,-321.68z"/>
  </g>
 </g>
</svg>
