<?xml version="1.0" encoding="UTF-8"?>
<!DOCTYPE svg PUBLIC "-//W3C//DTD SVG 1.1//EN" "http://www.w3.org/Graphics/SVG/1.1/DTD/svg11.dtd">
<!-- Creator: CorelDRAW -->
<svg xmlns="http://www.w3.org/2000/svg" xml:space="preserve" width="2.16188in" height="2.20173in" version="1.1" style="shape-rendering:geometricPrecision; text-rendering:geometricPrecision; image-rendering:optimizeQuality; fill-rule:evenodd; clip-rule:evenodd"
viewBox="0 0 2161.88 2201.74"
 xmlns:xlink="http://www.w3.org/1999/xlink"
 xmlns:xodm="http://www.corel.com/coreldraw/odm/2003">
 <defs>
  <style type="text/css">
   <![CDATA[
    .str0 {stroke:#856443;stroke-width:20.83;stroke-miterlimit:2.61313}
    .fil1 {fill:none}
    .fil0 {fill:#856443}
   ]]>
  </style>
 </defs>
 <g id="Layer_x0020_1">
  <metadata id="CorelCorpID_0Corel-Layer"/>
  <path class="fil0" d="M810.95 1525.8c20.48,37.95 64.24,88.85 91.57,111.95 84.43,71.37 125.23,63.39 135.45,72.72 16.95,35.97 18.42,48.38 47.76,67.02 24.62,15.63 57.58,24.11 92.65,13.55 32.04,-9.64 51.41,-27.25 64.62,-50.88 21.26,-38.02 15.19,-55.75 8.24,-97.38 25.06,-14.71 56.72,-55.61 77.71,-83.58 12.74,-16.98 21.48,-32.26 32.14,-50.22 18.24,-30.77 12.45,-21.43 42.23,-40.27 31.05,-19.65 44.33,-32.06 69.6,-52.39 8.19,-6.59 13.95,-14.14 21.4,-21.29 64.24,-61.61 24.8,-27.39 104.78,-60.14 183.27,-75.04 280.58,-224.35 182.61,-401.58 -22.28,-40.31 -42.9,-63.46 -68.47,-93.16 -47.91,-55.67 -50.39,-26.97 -74.16,-90.63 -15.33,-41.06 -34.54,-75.65 -55.32,-109.46 -20.47,-33.3 -45.83,-64.39 -73.15,-91.65 -27.83,-27.77 -51.56,-52.28 -87.97,-76.89 -73.23,-49.5 -34.04,-11.65 -80.45,-84.44 -156.53,-245.48 -388.2,-223.15 -535.49,20.25 -20.25,33.48 -7.84,19.47 -42.23,40.25 -34.53,20.86 -67.78,45.16 -93.69,71.02 -56.52,56.41 -34.55,44.09 -96.91,68.04 -175.6,67.42 -291.7,210.71 -200.78,393.86 9.73,19.6 20.15,35.44 30.93,51.5 15.25,22.7 57.02,70.1 77.64,87.09 22.87,18.84 17.17,21.19 28.94,53.54 15.77,43.36 44.41,98.22 70.24,134.08 4.53,6.29 14.68,17.9 18.48,24.41 6.31,10.8 3.11,53.13 8.76,73.71 22.66,82.48 96.32,137.18 202.85,120.99zm247.73 -597.85l-111.25 -0.19 -0.09 81 110.3 -0.06 1.3 110.44 80.83 1.26 0.25 -111.7 111.62 -0.1 -0.09 -79.99 -110.7 -0.94 -1.08 -111.27 -80.95 -0.09 -0.14 111.63zm11.26 -259.87c-158.49,17.86 -290.4,154.98 -271.85,335.59 16.05,156.23 159.21,288.56 334,269.38 155.89,-17.11 289.14,-158.77 268.27,-337.83 -17.77,-152.42 -157.18,-286.66 -330.43,-267.14zm-4.15 111.65c-94.16,17.87 -176.81,107.37 -156.44,224.4 16.14,92.71 111.14,179.49 225.71,156.98 92.96,-18.26 176.12,-111.13 153.94,-225.95 -17.94,-92.85 -109.06,-177.11 -223.21,-155.44zm-453.04 514.94l9.61 -13.48c15.39,-27.23 16.31,-23.44 29.23,-42.79l-105.11 -65.1c5.52,27.51 50.28,103.14 66.26,121.36zm988.2 -551.23c-31.26,-92.77 -133.79,-208.78 -199.72,-246.76 10.5,37.58 34.53,86.75 48.72,145.4 6.56,27.11 2.72,15.33 46.74,38.94 40,21.45 74.99,46.48 104.25,62.42zm76.17 254.64c49.75,12.63 93.91,67.64 78.09,133.57 -14.54,60.6 -62.5,88.12 -133.62,83.48 -11.89,33.85 -34.58,62.33 -48.47,89.13 67.22,-12.69 177.47,-93.51 201.11,-183.13 25.93,-98.32 -25.39,-177.59 -81.85,-247.01 -8,-9.84 -16.59,-13.7 -23.34,-22.99 -0.67,28.74 11.8,64.33 8.08,146.95zm-821.37 527.37c23.23,51.53 109.53,127.26 178.92,142.95l6.12 -14.93c34.11,-101.87 151.31,-95.18 187.25,-41.29 20.74,-8.89 69.98,-68.13 82.53,-92.51 -78.05,17.81 -94.76,43.86 -223.15,46.46 -119.76,2.44 -143.12,-19.35 -231.67,-40.68zm-379.53 -463.35l3.13 -7.45c0.12,-0.73 0.33,-1.76 0.41,-2.59 0.09,-1.09 -0.94,-10.05 -1.15,-11.47 -1.37,-9.39 -2.64,-17.49 -3.46,-26.63 -5.46,-60.59 -1.25,-108.21 9.29,-167.68 -0.5,-0.63 -1.39,-2.32 -1.65,-1.77 -0.25,0.55 -1.3,-1.4 -1.65,-1.75 -21.12,-21.42 -46.11,-43.98 -31.26,-90.11 12.14,-37.71 39.01,-50.14 83.78,-54.56l39.36 -68.89c-74.18,23.94 -161.91,92.72 -185.14,173.65 -14.62,50.93 -5.6,107.21 15.44,150.62 34.32,70.78 52.8,75.09 72.91,108.64zm379.28 -660.44c35.83,-8.68 66.3,-22.23 106.62,-29.99 40.09,-7.72 82.99,-11.73 125.3,-10.84 134.6,2.83 181.02,38.62 222.96,46.25 -14.84,-30.59 -60.21,-76.63 -86.3,-99.6 -81.22,-71.49 -191.71,-72.17 -277.41,-7.35 -26.46,20.01 -74.41,67.64 -91.18,101.54zm20.7 1093.98c22.85,17.18 102.13,30.96 136.39,34.84 99.65,11.3 200.28,-4.51 289.87,-43.9 28.59,-12.57 35.06,-9.78 48.23,-37.55 9.27,-19.55 19.99,-40.09 26.36,-61.69 -80.97,2.58 -143.92,7.22 -226.91,-0.45 -75.58,-6.98 -137.78,-21.46 -208.29,-36 0.7,35.73 -4.1,57.41 -18.48,86.17 -17.69,35.39 -29.3,38.47 -47.18,58.59zm558.2 -155.32c18.15,-0.47 42.3,-6.61 60.52,-10.89 29.37,-6.91 28.51,-11.73 43.16,-32.51 13.44,-19.08 48.29,-70.26 54.44,-95.64 -51.74,-19.6 -91.73,-118.66 -17.19,-183.37 25.78,-22.39 38.28,-15.48 68.65,-26.58 5.54,-32.42 0.93,-76.28 -3.67,-107.43 -5.89,-39.85 -7.8,-68.62 -30.62,-85.21 -30.14,-21.9 -109.36,-77.49 -143.59,-88.7 17.1,136.67 29.26,178.3 21.43,327.35 -5.86,111.39 -24.75,204.07 -53.13,302.98zm-649.79 -801.16c67.89,-2.07 124.25,-6.4 193.83,-1.63 62.67,4.3 116.01,16.11 175.47,23.23 16.06,-54.85 101.33,-66.36 133.98,-17.16 15.26,23 9.67,33 16.39,56.32l105.17 39.16c-7.17,-35.8 -52.51,-166.09 -71.55,-181.69 -31.03,-25.4 -145.24,-54.44 -193.72,-60.52 -80.36,-10.07 -156.56,-1.63 -229.65,19.38 -17.23,4.95 -79.72,27.19 -89.15,36.2 -9.44,9.02 -35.92,70.85 -40.77,86.7zm-219.28 173.54c54.15,26.57 51.91,129.3 -33.3,141.29l-14.26 2.78c-0.75,0.2 -1.96,0.51 -2.89,0.92 -7.5,41.03 -11.47,83.52 -9.7,127.17 0.96,23.74 9.08,101.38 18.97,118.22 7.74,13.18 147.22,116.32 168.63,106.31 0.97,-4.09 -15.8,-129.37 -17.37,-152.05 -3.98,-57 -4.33,-114.67 -1.03,-171.64 6.27,-108.24 24.54,-201.95 52.83,-298.83l-86.11 17.31c-16.65,4.9 -12.9,4.33 -20.67,15.78 -14.81,21.82 -46.75,63.85 -55.1,92.74zm203.66 -132.06c-28.64,98.38 -47.82,180.89 -55.18,290.91 -6.89,103.11 -2.81,225.56 17.83,323.67 95.22,-18.66 162.32,25.37 197.56,102.64 6.09,13.34 -2.44,9.8 34.36,18.54 108.98,25.88 322.7,54.92 429.18,29.82 59.53,-214.07 77.18,-392.43 37.25,-618.42 -9.13,-51.69 -7.52,-41.6 -54.72,-60.53 -24.92,-9.99 -61.81,-25.02 -86.77,-30.31 -14.35,10.78 -37.82,42.24 -85.65,28.13 -31.13,-9.19 -49.42,-32.48 -55.24,-66.05 -112.76,-15.56 -262.48,-43.69 -378.62,-18.38z"/>
  <g>
   <path class="fil1 str0" d="M332.1 10.42l1497.68 0c176.93,0 321.68,144.76 321.68,321.68l0 1537.54c0,176.93 -144.76,321.68 -321.68,321.68l-1497.68 0c-176.93,0 -321.68,-144.76 -321.68,-321.68l0 -1537.54c0,-176.93 144.76,-321.68 321.68,-321.68z"/>
  </g>
 </g>
</svg>
