<?xml version="1.0" encoding="UTF-8"?>
<!DOCTYPE svg PUBLIC "-//W3C//DTD SVG 1.1//EN" "http://www.w3.org/Graphics/SVG/1.1/DTD/svg11.dtd">
<!-- Creator: CorelDRAW -->
<svg xmlns="http://www.w3.org/2000/svg" xml:space="preserve" width="2.16188in" height="2.20173in" version="1.1" style="shape-rendering:geometricPrecision; text-rendering:geometricPrecision; image-rendering:optimizeQuality; fill-rule:evenodd; clip-rule:evenodd"
viewBox="0 0 2161.88 2201.74"
 xmlns:xlink="http://www.w3.org/1999/xlink"
 xmlns:xodm="http://www.corel.com/coreldraw/odm/2003">
 <defs>
  <style type="text/css">
   <![CDATA[
    .str0 {stroke:#856443;stroke-width:20.83;stroke-miterlimit:2.61313}
    .fil1 {fill:none}
    .fil0 {fill:#856443}
   ]]>
  </style>
 </defs>
 <g id="Layer_x0020_1">
  <metadata id="CorelCorpID_0Corel-Layer"/>
  <g id="_1338834933360">
   <path class="fil0" d="M478.32 1313.29c0,-181.29 121.93,-298.34 305.28,-298.34 290.21,0 504.96,382.31 303.8,595.21 -62.9,66.57 -138.72,84.74 -234.42,84.74 -190.21,0 -374.66,-188.95 -374.66,-381.61zm831.43 -290.25c-0.04,-2.35 3.34,-6.55 3.7,-5.55 0.35,1 2.03,-3.45 2.5,-4.44 0.18,-0.38 6.35,-14.4 6.37,-14.44 4.85,-12.62 6.39,-19.37 10.31,-31.33l54.6 -174.35c18.17,12.17 36.16,31.3 56.54,47.54 19.03,15.15 40.69,30.94 47.54,56.54 -16.24,24.26 -96.49,78.51 -129.05,99.92 -8.39,5.52 -12.46,7.95 -20.91,13.78l-31.59 12.35zm-692.66 -264.81c0,103.58 68.57,109.74 -39.87,216.85l-70.46 68.3c-0.99,1.03 -2.36,2.56 -3.34,3.61 -57.46,61.39 -101.42,140.5 -101.42,252.42 0,233.35 158.64,315.35 192.08,390.73 9.96,22.44 12.15,136.32 36.88,136.32l686.88 0c30.48,0 140.41,-232.58 96.36,-385.52l-102.31 -170.25c-15.22,-37.69 -18.84,-53.68 -28.74,-96.15l257.7 -110.02c44.43,-18.34 80.45,-35.12 126.92,-53.48 41.68,-16.46 103.22,-33.38 90.37,-88.97 -21.53,-93.19 -204.92,-271.39 -279.81,-365.95 -20.71,-26.15 -29.87,-180.83 -49.48,-180.83l-603.62 0c-22.71,0 -22.54,152.72 -57.18,187l-115.41 113.55c-17.99,24.13 -35.56,41.18 -35.56,82.39z"/>
   <path class="fil0" d="M839.1 1632.44c75.66,0 166.52,-33.43 166.52,-104.07 0,-36.11 -30.84,-69.38 6.94,-69.38 23.75,0 135.8,50.89 111.01,-55.51 -30.6,2.55 -30.35,13.88 -48.57,13.88 -30.97,0 -42.33,-34.69 -104.07,-34.69 -40.17,0 -37.05,80.82 -145.7,55.51l26.41 -15.22c12.13,-5.17 20.55,-8.92 36.04,-12.53 0,-36.71 -9.35,-58.63 -55.51,-69.39 -18.3,38.13 23.35,48.57 -48.57,48.57 2.38,-28.56 7.33,-25.63 25.98,-43.41 52.97,-50.52 19.28,-47.73 6.98,-93.62 -9.28,-34.61 -8.51,-126.63 -130.09,-126.63 -148.72,0 -180.82,190.15 -77.57,264.9 34.74,25.15 46.91,7.41 58.75,59.2 12.28,53.74 2.56,116.66 78.81,157.09 21.42,11.35 63.15,25.3 92.65,25.3z"/>
  </g>
  <g>
   <path class="fil1 str0" d="M332.1 10.42l1497.68 0c176.93,0 321.68,144.76 321.68,321.68l0 1537.54c0,176.93 -144.76,321.68 -321.68,321.68l-1497.68 0c-176.93,0 -321.68,-144.76 -321.68,-321.68l0 -1537.54c0,-176.93 144.76,-321.68 321.68,-321.68z"/>
  </g>
 </g>
</svg>
