<?xml version="1.0" encoding="UTF-8"?>
<!DOCTYPE svg PUBLIC "-//W3C//DTD SVG 1.1//EN" "http://www.w3.org/Graphics/SVG/1.1/DTD/svg11.dtd">
<!-- Creator: CorelDRAW -->
<svg xmlns="http://www.w3.org/2000/svg" xml:space="preserve" width="2.16188in" height="2.20173in" version="1.1" style="shape-rendering:geometricPrecision; text-rendering:geometricPrecision; image-rendering:optimizeQuality; fill-rule:evenodd; clip-rule:evenodd"
viewBox="0 0 2161.88 2201.74"
 xmlns:xlink="http://www.w3.org/1999/xlink"
 xmlns:xodm="http://www.corel.com/coreldraw/odm/2003">
 <defs>
  <style type="text/css">
   <![CDATA[
    .str0 {stroke:#856443;stroke-width:20.83;stroke-miterlimit:2.61313}
    .fil1 {fill:none}
    .fil0 {fill:#856443}
   ]]>
  </style>
 </defs>
 <g id="Layer_x0020_1">
  <metadata id="CorelCorpID_0Corel-Layer"/>
  <g id="_1338865886224">
   <path class="fil0" d="M461.15 1501.75c0,-186.46 125.41,-306.84 313.98,-306.84 298.48,0 519.35,393.2 312.46,612.16 -64.69,68.47 -142.67,87.16 -241.1,87.16 -195.63,0 -385.34,-194.33 -385.34,-392.48zm855.12 -298.52c-0.04,-2.42 3.44,-6.74 3.8,-5.71 0.36,1.03 2.09,-3.55 2.57,-4.57 0.19,-0.39 6.53,-14.81 6.55,-14.85 4.99,-12.98 6.57,-19.92 10.6,-32.22l56.15 -179.32c18.69,12.51 37.19,32.19 58.16,48.89 19.57,15.58 41.85,31.82 48.89,58.15 -16.71,24.96 -99.24,80.75 -132.72,102.77 -8.63,5.67 -12.81,8.17 -21.51,14.17l-32.49 12.7zm-712.39 -272.35c0,106.53 70.53,112.87 -41,223.03l-72.46 70.24c-1.02,1.06 -2.43,2.63 -3.43,3.71 -59.1,63.13 -104.31,144.51 -104.31,259.61 0,240 163.16,324.33 197.56,401.86 10.24,23.09 12.49,140.2 37.93,140.2l706.45 0c31.34,0 144.41,-239.21 99.11,-396.5l-105.22 -175.1c-15.65,-38.76 -19.38,-55.21 -29.56,-98.89l265.04 -113.15c45.69,-18.87 82.74,-36.13 130.54,-55 42.87,-16.94 106.15,-34.33 92.95,-91.51 -22.14,-95.84 -210.76,-279.12 -287.78,-376.37 -21.3,-26.9 -30.73,-185.98 -50.89,-185.98l-620.82 0c-23.36,0 -23.18,157.07 -58.81,192.33l-118.7 116.79c-18.5,24.81 -36.57,42.35 -36.57,84.74z"/>
   <path class="fil0" d="M832.22 1830.01c77.81,0 171.26,-34.39 171.26,-107.04 0,-37.13 -31.72,-71.36 7.14,-71.36 24.42,0 139.67,52.35 114.17,-57.09 -31.47,2.62 -31.22,14.27 -49.95,14.27 -31.86,0 -43.54,-35.68 -107.04,-35.68 -41.31,0 -38.11,83.12 -149.85,57.09l27.16 -15.66c12.47,-5.31 21.14,-9.18 37.07,-12.89 0,-37.76 -9.62,-60.3 -57.09,-71.36 -18.81,39.22 24.01,49.95 -49.95,49.95 2.44,-29.38 7.54,-26.36 26.71,-44.65 54.48,-51.96 19.83,-49.09 7.18,-96.29 -9.54,-35.6 -8.75,-130.23 -133.79,-130.23 -152.96,0 -185.96,195.58 -79.78,272.45 35.73,25.87 48.25,7.61 60.43,60.88 12.63,55.28 2.63,119.99 81.05,161.57 22.03,11.68 64.95,26.02 95.29,26.02z"/>
  </g>
  <g>
   <path class="fil1 str0" d="M332.1 10.42l1497.68 0c176.93,0 321.68,144.76 321.68,321.68l0 1537.54c0,176.93 -144.76,321.68 -321.68,321.68l-1497.68 0c-176.93,0 -321.68,-144.76 -321.68,-321.68l0 -1537.54c0,-176.93 144.76,-321.68 321.68,-321.68z"/>
  </g>
 </g>
</svg>
