<?xml version="1.0" encoding="UTF-8"?>
<!DOCTYPE svg PUBLIC "-//W3C//DTD SVG 1.1//EN" "http://www.w3.org/Graphics/SVG/1.1/DTD/svg11.dtd">
<!-- Creator: CorelDRAW -->
<svg xmlns="http://www.w3.org/2000/svg" xml:space="preserve" width="2.16188in" height="2.20173in" version="1.1" style="shape-rendering:geometricPrecision; text-rendering:geometricPrecision; image-rendering:optimizeQuality; fill-rule:evenodd; clip-rule:evenodd"
viewBox="0 0 2161.88 2201.74"
 xmlns:xlink="http://www.w3.org/1999/xlink"
 xmlns:xodm="http://www.corel.com/coreldraw/odm/2003">
 <defs>
  <style type="text/css">
   <![CDATA[
    .str0 {stroke:#856443;stroke-width:20.83;stroke-miterlimit:2.61313}
    .fil1 {fill:none}
    .fil0 {fill:#856443}
   ]]>
  </style>
 </defs>
 <g id="Layer_x0020_1">
  <metadata id="CorelCorpID_0Corel-Layer"/>
  <path class="fil0" d="M1411.33 873.39c-38.8,-39.86 -109.82,-99.73 -77.41,-189.95 121.39,-43.76 91.49,132.9 134.91,95.41 73.56,-63.53 -50.43,-360.47 -277.49,-267.04 -61.77,25.41 -72.28,54.95 -112.59,86.67 -56.24,-22.76 -69.39,-92.59 -172.52,-103.27 -173.89,-18.02 -279.24,157.79 -219.79,305.81 30.87,76.87 203.76,231.93 264.04,298.76 138.13,153.17 190.55,80.22 325.33,-74.22 40.8,-46.76 113.22,-102.13 135.52,-152.17zm-94.06 -398.3c18.05,-18.04 12.94,29.85 13.74,-36.94 0.4,-33.13 -20.98,-78.95 23.01,-126.16 70.92,-76.13 77.72,-8.91 146.05,-25.84 5.94,-22.89 5.33,-36.85 -3.36,-56.57 -49.17,-12.3 -26.86,-5 -68.83,12.75 -33.72,14.26 -58.59,11.95 -92.56,51.12 -33.43,38.54 -56.1,131.6 -18.04,181.64zm381.62 -202.04c82.35,22.77 99.74,75.83 89.88,165.81l-26.63 176.64c-10.51,54.68 -1.86,44.56 3.54,54.29 15.24,-11.89 12.51,19.83 29.33,-79.1 5.39,-31.7 10.59,-65.63 14.78,-99.61 9.15,-74.24 30.67,-183.99 -66.88,-231.26 -15.47,-7.5 -26.39,-7.87 -43.33,-13.88 -31.19,-11.04 -21.87,-14.92 -41.54,-19.33 -37.32,-8.38 -60.54,21.73 -40.12,52.61 20.53,31.04 54.49,0.13 80.97,-6.18zm36.11 836.57c41.73,-4.99 58.2,-1.38 87.51,12.95l2.24 -169.97c0,-81.48 -67.87,-82.5 -85.13,-35.48 -9.99,27.21 -4.36,154.4 -4.62,192.5zm-1401.62 8.68l84.76 -11.42 5.58 -30.15 -0.85 -152.75c0,-95.24 -79.26,-92.31 -89.02,-29.07 -7.22,46.73 -0.95,169.43 -0.47,223.39zm1032.61 -416.07c-19.09,13.98 -14.56,49.02 -0.16,77.67 11.07,22.04 28.69,40.5 41.56,53.87 143.85,149.49 347.39,16.48 358.57,-93.97 3.7,-36.59 -12.1,-53.55 -34.19,-32.72 -8.89,8.38 -20.87,46.07 -31.54,65.47 -19.56,35.56 -58.57,68.58 -116.28,76.32 -91.61,12.3 -149.16,-35.09 -179.25,-108.1 -7.64,-18.53 -18.02,-53.7 -38.71,-38.54zm-802.44 -239.56c-131.2,36.72 -81.45,238.41 54.35,201.61 35.26,-9.56 76.28,-88.78 70.8,-130.72 -6.56,-50.28 -68.02,-86.89 -125.15,-70.9zm-4.44 289.58l0.07 124.02c0.09,300.32 203.06,534.05 490.7,548.16 287.85,14.13 537.24,-220.07 537.34,-499.42l-63.37 2.63c-19.47,248.8 -211.76,439.68 -474.15,427.75 -249.92,-11.37 -426.09,-210.77 -426.22,-469.58l-3.57 -188.6c-53.29,-5.86 -60.83,2.68 -60.81,55.04zm1056.06 170.01c-12.74,269.49 -163.81,415.45 -361.83,500.1 0.13,69.99 1.74,110.65 45.76,158.88 86.2,94.43 14.76,80.38 51.97,167.29 35.51,20.16 173.74,20.37 208.79,-0.3 16.24,-36.88 5.37,-75.46 11.67,-121.63 63.46,-25.61 73.87,-18.52 111.21,-69.99 82.7,-113.98 199.67,-265.89 124.72,-415.59 -69.58,-18.35 -95.56,3.81 -96.61,78.2 -1.04,73.2 -12.13,110.14 -41.48,160.54 -69.18,-2.36 -157.72,-12.85 -192.59,66.35 -21.55,48.95 -3.52,50.08 -35.48,60.87 -15.25,-49.12 24.81,-101.77 50.62,-122.17 46.92,-37.09 98.46,-32.38 165.33,-34.52 26.32,-55.21 51.72,-244.31 51.65,-330.88 -0.04,-47.32 6.85,-94.77 -8.67,-126.69 -19.31,-3.78 -63.29,19.74 -85.08,29.56zm-1115.22 428.57c66.65,3.98 117.56,-1.74 165.03,34.61 24.1,18.46 83.65,97.14 41.72,125.85 -54.65,-74.42 7.55,-138.43 -219.02,-130.61 -80.92,-151.1 5.82,-277.98 -136.15,-238.28 -20.43,39.7 -18.48,56.15 -18.44,105.95 0.09,125.99 65.76,214.27 149.51,319.6 31.8,39.99 46.91,39.24 80.93,52.54l14.3 6.1c51.34,21.73 -52.28,133.55 71.63,133.55 42.1,0 125.28,3.98 158.38,-9.73 29.43,-90.5 -27.15,-89.12 42.26,-158.22 40.53,-40.35 53.9,-80.33 54.56,-153.03 -12.5,-28.45 -32.61,-25.74 -63.3,-39.41 -161.76,-72.04 -286.62,-249.41 -305.39,-428.81 -5.67,-54.18 18.67,-168.61 -47.34,-162 -59.8,5.98 -41.8,182.33 -39.87,277.86 1.32,65.35 7.95,37.47 20.52,83.28 19.02,69.31 -7.66,91.69 30.68,180.75zm600.26 -587.43l-86.05 -0.07 -22.34 57.9c0.44,-1.44 -1.56,-7.47 -2.11,-6.04 -0.55,1.41 -3.06,-5.17 -3.78,-6.85l-15.04 -53.44c-7.91,-37.28 -4.76,-43.48 -25.68,-65.8 -23.37,18.53 -26.73,45.39 -34.46,73.5 -48.31,0 -120.52,-10.01 -158.21,8.76 8.01,13.86 -8.57,19.15 68.16,17.98 59.26,-0.91 85.91,7.6 110.67,-13.79l10.09 -10.9c1.18,-1.25 3.05,-4.19 4.76,-6.13l37.15 131.7c29.18,-23.73 36.89,-66.08 46.36,-100.84l85.34 -0.04 25.64 -55.55c11.61,41.58 18.49,110.49 43.01,139.4 24.51,-16.74 25.72,-45.36 35.36,-83.02 51.19,0.28 61.24,6.41 90.8,-9.28 -9.97,-15.87 -12.56,-26.83 -87.99,-17.06 -35.89,9.45 -16.72,2.68 -35.73,34.53 -12.38,-50.14 -15.94,-102.47 -40.59,-126.17 -23.48,20.67 -37.69,62.31 -45.35,91.22z"/>
  <g>
   <path class="fil1 str0" d="M332.1 10.42l1497.68 0c176.93,0 321.68,144.76 321.68,321.68l0 1537.54c0,176.93 -144.76,321.68 -321.68,321.68l-1497.68 0c-176.93,0 -321.68,-144.76 -321.68,-321.68l0 -1537.54c0,-176.93 144.76,-321.68 321.68,-321.68z"/>
  </g>
 </g>
</svg>
