<?xml version="1.0" encoding="UTF-8"?>
<!DOCTYPE svg PUBLIC "-//W3C//DTD SVG 1.1//EN" "http://www.w3.org/Graphics/SVG/1.1/DTD/svg11.dtd">
<!-- Creator: CorelDRAW -->
<svg xmlns="http://www.w3.org/2000/svg" xml:space="preserve" width="2.16188in" height="2.20173in" version="1.1" style="shape-rendering:geometricPrecision; text-rendering:geometricPrecision; image-rendering:optimizeQuality; fill-rule:evenodd; clip-rule:evenodd"
viewBox="0 0 2161.88 2201.74"
 xmlns:xlink="http://www.w3.org/1999/xlink"
 xmlns:xodm="http://www.corel.com/coreldraw/odm/2003">
 <defs>
  <style type="text/css">
   <![CDATA[
    .str0 {stroke:#856443;stroke-width:20.83;stroke-miterlimit:2.61313}
    .fil1 {fill:none}
    .fil0 {fill:#856443}
   ]]>
  </style>
 </defs>
 <g id="Layer_x0020_1">
  <metadata id="CorelCorpID_0Corel-Layer"/>
  <g id="_1338723030000">
   <path class="fil0" d="M1535.2 514.21c16.42,17.94 13.92,41.8 12.41,64.7 -0.59,9.02 1.19,18.47 0.54,25.96 -1.39,16.23 -22.02,60.62 -30.62,76.29 -23.73,43.24 -53.98,90.28 -83.14,128.25 -23.75,30.92 -80.73,72.24 -113.78,97.39l-103.53 79.08c-12.58,12.01 2.9,6.95 -13.31,15.48 -19.78,10.41 -58.77,3.99 -89.52,14.83 -43.8,15.43 -33.04,10.81 -71.14,-13.03 -43.58,-27.27 -84.83,-55.74 -126.69,-84.57 -41.29,-28.44 -64.32,-78.39 -88.42,-122.81l-53.94 -102.6c-4.93,-9.56 -17.72,-30.06 -19.75,-37.06 11.23,-7.27 20.25,-22.24 28.91,-25.91 12.54,-5.32 34.93,5.01 48.85,-3.14 11.09,-6.5 12.97,-26.67 17.66,-39.83 2.46,-6.89 4.43,-15.12 6.65,-21.6 4.51,-13.12 4.21,-4.64 13.24,-15.43 2.28,-16.73 -6.52,-18.75 -8.54,-32.15 -5.29,-35.02 26.87,-61.67 0.22,-102.52 -44.65,-68.44 -205.61,-63.82 -217.5,38.75 -4.2,36.22 -6.24,19.95 -0.78,67.5 3.93,34.17 7.15,42.34 15.19,70.23 -11.37,13.44 -26.08,25.61 -39.82,37.86 -26.53,23.67 -57.76,53.7 -72.57,86.46 -48.13,106.44 -53.27,222.22 -62.16,337.24 -12.15,-17.61 -21.35,-72.12 -33.61,-83.38 -5.39,-4.94 -73.34,-28.97 -86.09,-33.85 -19.77,-7.56 -75.23,-37.61 -78.36,2.71 -2.26,29.1 47.33,38.12 72.79,47.23 13.72,4.91 28.6,10.44 42.2,15.08 19.07,6.51 16.85,17.98 23.12,36.97 9.98,30.27 20.35,58.83 30.68,89.29 15.62,46.04 52.98,138.97 62.13,180.52 -28.17,-0.71 -56.48,-0.79 -84.66,-0.63 -26.08,0.15 -57.78,-3.36 -56.17,27.26 2.09,39.72 82.96,17.83 146.89,24.18 -21.01,112.93 -47.75,228.99 -71.85,342.28 -5.19,24.4 -21.85,68.33 1.23,78.39 37.42,16.3 39.86,-29.01 45.32,-55.46 11.62,-56.26 23.35,-115.79 37.17,-171.44l277.58 -0.45c1.06,60.85 0.74,121.5 0.63,182.1 -0.03,12.95 -2.78,29.2 5.13,39.17 7.94,10.02 24.06,12.37 35.63,4.24 16.87,-11.86 9.75,-58.62 9.75,-82.54 0,-60.88 0.35,-121.7 0.35,-182.58 0,-57.7 -3.52,-127.36 0.37,-183.57l110.13 19.63c-1.69,23.72 -15.78,73.9 -22.26,99.32 -20.98,82.31 -45.11,163.39 -64.3,246.56 -3.9,16.92 3.18,9.15 3.15,23.88 -0.02,8.67 -3.6,17.83 -3.15,29.02 1.81,44.98 47.39,36.02 86.93,36.02 41.74,0 83.48,0 125.21,0.03 20.77,0.01 38.39,0.87 50.02,-12.19 11.15,-12.53 10.89,-36.56 -0.23,-47.68 -3.84,-3.84 -78,-28.74 -91.44,-33.65 2.91,-26.2 25.37,-88.51 34.24,-116.95 12.03,-38.59 24.02,-77.43 35.11,-116.1 19.38,-67.58 68.95,-189.86 5.09,-232.75 -21.78,-14.63 -192.41,-59.12 -232.75,-69.93 -19.36,-5.2 -40.33,-10.69 -59.66,-15.75 -16.61,-4.35 -47.75,-7.41 -55.04,-20.61 -16.51,-29.93 -13.54,-103.32 -14.18,-141.08 10.21,5.59 29.46,24.42 58.11,39.63 21.66,11.5 42.22,23.35 64.09,35.09 22.34,11.99 111.49,64.02 131.54,67.96 3.76,-7.78 12.91,-18.6 20.31,-26.39 34.1,11.74 58.85,70.88 131.58,34.72 24.13,-12 29.93,-27.71 41.76,-49.85 4.15,-7.77 45.73,-30.37 56.11,-36.83 8.03,2.85 4.89,3.32 13.13,7.94 16.42,-6.79 195.92,-123.89 208.85,-133.63 18.58,-14.02 44.28,-38.24 59.29,-55.19 11.96,13.41 17.49,77.1 21.81,96.23 4.75,21.04 6.1,16.67 25.98,15.38 3.7,23.24 15.43,43.32 21.55,63.42 -11.24,10.61 -63.28,38.46 -80.47,48.38 -28.14,16.23 -54.96,31.95 -82.23,48.16 -26.56,15.8 -54.09,30.99 -80.56,47.19 -22.35,13.69 -49.09,42.12 -61.17,69.28 -11.92,26.78 -73.38,416.51 -69.39,446.9 9.78,5.64 20.22,3.87 28.16,7.83 -21.41,13.7 -64.34,23.76 -88.76,36.08 -16.73,8.44 -24.79,27.56 -6.56,38.82 17.43,10.75 156.97,5.71 181.76,5.47 59.54,-0.57 50.16,-22.22 44.77,-73.08 51.26,-4.16 40.78,16.88 42.82,-74.23 1.33,-59.55 5.35,-304.83 10.13,-344.04l165.21 -55.86c20.3,64.85 68.78,273.66 88.24,353.15 4.69,19.16 9.68,38.81 14.59,58.13 15.09,59.43 -93.82,72.37 -125.26,92.58 -19.34,12.43 -18.9,35.24 4.69,41.43 19.33,5.07 201,3.81 213.44,-3.2 26.65,-15.02 -0.45,-55.19 2.5,-124.81l49.51 -13.59c2.18,-26.68 -79.95,-374.41 -90.04,-458.52 18.58,-19.49 91.13,-52.69 87.6,-146.13 -1.97,-52.33 -28.13,-85.02 -51.23,-125.64 -24.7,-43.43 -25.34,-37.84 -26.6,-90.79 -1.39,-58.28 2.14,-119.41 -3.02,-177.14 -3.02,-33.8 -16.53,-62.52 -32.24,-85 -15.07,-21.57 -38.19,-47.36 -61.71,-57.99 0.44,-0.54 1.21,-1.97 1.46,-1.49 0.38,0.72 23.44,-15.37 21.88,-35.04 -4.15,-52.56 -68.15,-155.81 -116.79,-191.1 -52.82,-38.33 -133.32,-18.4 -173.36,30.07 -14.02,16.98 -30.68,70.24 -11.55,94.87 7.39,9.53 6.12,-0.07 13.6,15.08 10.31,20.89 2.65,46.23 10.16,52.3 9.98,8.06 11.76,-0.89 19.9,11.59 33.81,51.85 32.9,50.19 70.83,39.19zm-991.06 989.19l268.52 0.01 -0.27 -143.39 -237.78 0.17 -30.48 143.22z"/>
   <rect class="fil0" x="1079.86" y="503.17" width="106.07" height="321.29"/>
   <rect class="fil0" transform="matrix(2.96145E-14 -1.11818 1.11818 2.96145E-14 972.244 716.852)" width="94.86" height="287.34"/>
  </g>
  <g>
   <path class="fil1 str0" d="M332.1 10.42l1497.68 0c176.93,0 321.68,144.76 321.68,321.68l0 1537.54c0,176.93 -144.76,321.68 -321.68,321.68l-1497.68 0c-176.93,0 -321.68,-144.76 -321.68,-321.68l0 -1537.54c0,-176.93 144.76,-321.68 321.68,-321.68z"/>
  </g>
 </g>
</svg>
