<?xml version="1.0" encoding="UTF-8"?>
<!DOCTYPE svg PUBLIC "-//W3C//DTD SVG 1.1//EN" "http://www.w3.org/Graphics/SVG/1.1/DTD/svg11.dtd">
<!-- Creator: CorelDRAW -->
<svg xmlns="http://www.w3.org/2000/svg" xml:space="preserve" width="2.16188in" height="2.20173in" version="1.1" style="shape-rendering:geometricPrecision; text-rendering:geometricPrecision; image-rendering:optimizeQuality; fill-rule:evenodd; clip-rule:evenodd"
viewBox="0 0 2161.88 2201.74"
 xmlns:xlink="http://www.w3.org/1999/xlink"
 xmlns:xodm="http://www.corel.com/coreldraw/odm/2003">
 <defs>
  <style type="text/css">
   <![CDATA[
    .str0 {stroke:#856443;stroke-width:20.83;stroke-miterlimit:2.61313}
    .fil1 {fill:none}
    .fil0 {fill:#856443}
   ]]>
  </style>
 </defs>
 <g id="Layer_x0020_1">
  <metadata id="CorelCorpID_0Corel-Layer"/>
  <g id="_1338779338016">
   <path class="fil0" d="M1462.77 895.55c-9.93,7.58 -49.02,50.15 -64.98,64.62 -5.11,4.63 -2.32,0.75 -5.01,7.34 24.05,3.57 118.26,59.93 145.32,79.19 35.21,25.06 47.33,37.31 73.67,57.63l48.97 45.95c21.48,22.48 51.2,58.41 69.3,82.19 -2.69,6.25 -20.72,28.22 -25.57,34.54l-57.51 63.36c-5.77,5.73 -9.96,9.59 -16.15,14.93 -32.34,27.91 -44.67,40.99 -83.66,68.37 -24.19,16.99 -47.56,31.49 -75.12,47.46 -109.32,63.33 -250.78,101.67 -396.14,101.82 -167.2,0.17 -335.78,-59.37 -459.06,-147.7 -22.08,-15.82 -57.99,-43.55 -75.28,-61.1 -6.44,-6.54 -16.37,-12.69 -24.57,-22.11 -8.57,-9.85 -33.56,-33.57 -43.18,-46.65 -9.93,-13.5 -25.78,-28.89 -41.7,-51.11 6.56,-18.69 84.28,-99.28 98.07,-112.14l31.9 -28.55c5.05,-4.28 11.08,-8.93 17.24,-13.91 10.38,-8.38 22.92,-17.66 34.49,-25.92 182.7,-130.43 419.04,-180.85 639.5,-131.35 15.17,3.41 36.93,10.31 51.43,11.9 4.77,-6.82 11.81,-13.1 17.2,-18.78l54.03 -55.64c-26.19,-12.28 -103.13,-30.24 -133.71,-35.62 -201.37,-35.46 -421.26,-3.5 -593.58,96.8 -54.06,31.47 -91.15,55.17 -137.65,93.79l-117.17 115.98c-20.41,23.46 -39.5,49.95 -57.35,75.6 -4.39,6.31 -9.07,13.54 -13.17,19.85 -6.22,9.58 -0.44,13.25 4.89,21.57 23.07,36.03 51.25,71.11 78.19,103.21l24.37 25.67c6.23,5.52 11.27,11.09 17.37,17.21 6.2,6.21 9.29,9.22 16.04,16.74 5.56,6.19 11.63,9.59 17.48,15.44 45.11,45.13 141.5,107.5 197.88,135.34 276.31,136.45 586.04,124.16 851.15,-26.14 33.09,-18.76 50.74,-32.19 80.25,-52.69l123.35 -108.11c17.24,-17.11 60.26,-70.88 75.72,-91.82 8.75,-11.85 18.13,-25.78 26.6,-38.99 8.23,-12.84 6.44,-12.48 -13.78,-41.36 -9.66,-13.8 -18.13,-25.1 -27.63,-38 -22.14,-30.1 -69.09,-83.15 -94.57,-105.84 -6.46,-5.76 -10.04,-9.79 -16.7,-16.04 -3.16,-2.97 -5.43,-4.16 -8.65,-6.98 -4.06,-3.57 -4.6,-5.03 -8.9,-8.33 -45.81,-35.17 -57.94,-48.62 -115.82,-84.59 -13.65,-8.48 -27.91,-16.74 -42.79,-24.57 -12.78,-6.72 -31.66,-18.1 -45.03,-22.46z"/>
   <path class="fil0" d="M1315.97 1044.39c-4.81,2.13 -42.47,41.55 -64.23,64.62 9.56,-4.51 19.61,-10.49 29.57,-16.46 12.05,-7.22 25.4,-3.19 30.64,7.63 10.85,22.42 -19.91,33.23 -38.92,45.47 -1.91,-1.54 -19.89,-33.04 -21.34,-36.59 -9.01,9.56 -15.28,16.31 -15.33,16.4 23.73,35.27 38.17,85.35 30.07,137.26 -18.99,121.7 -145.05,193.23 -257.94,146.02 -37.64,-15.74 -72.5,-47.54 -91.8,-82.59 -35.64,-64.75 -29.96,-144.84 9.8,-201.63 20.39,-29.11 54.58,-59.16 99.74,-72.88 49.26,-14.98 104.54,-7.49 144.65,14.35l14.93 -14.8 -18.12 -10.89c2.22,-5.31 17.04,-31.52 20.62,-35.61 4.45,-5.09 12.41,-8.14 21.23,-5.87 11.12,2.86 9.45,5.65 14.89,13.85 10.31,-7.26 18.81,-19.74 28.56,-28.41 -7.13,-7.22 -31.97,-20.87 -44.04,-26.46 -16.94,-7.84 -34.04,-14.14 -53.32,-19.28 -77.13,-20.54 -165.5,-6.58 -231.64,35.04 -18.32,11.53 -35.93,24.39 -49.32,38.72l-26.6 28.71c-48.19,54.65 -72.99,141.19 -66.73,218.48 3.38,41.7 15.04,78.39 31.67,111.56 17.3,34.5 35.01,56.16 60.81,82.57 19.88,20.35 59.79,46.94 85.75,57.65 96.48,39.81 196.91,34.02 284.39,-22.56 114.33,-73.93 166.02,-218.56 123.11,-350.34 -9.13,-28.02 -34.75,-79.8 -51.09,-93.98zm-395.26 53.93c6.42,-11.65 16.57,-20.44 27.12,-28 -4.69,-6.79 -16.31,-17.37 -23.01,-23.5 -25.16,-23.02 -38.61,0.26 -37.57,12.98 0.92,11.22 29.33,36.8 33.46,38.52zm294.02 298.31c7.41,7.08 14.33,14.67 21.96,22.29 26.4,26.37 51.52,-5.27 30.1,-26.6 -7.54,-7.5 -14.78,-18.41 -23.36,-24.01l-28.7 28.32zm62.77 -88.77c20.95,4.17 54.16,20.61 60.44,-5.09 3.27,-13.41 -5.81,-22.17 -14.95,-25.34 -7.03,-2.44 -27.57,-8.18 -34.65,-8.88l-10.84 39.32zm-388.5 -162.18c2.47,-2.5 19.64,-32.07 21.19,-35.76 -8.08,-6.17 -19.54,-11.52 -28.3,-16.67 -12.86,-7.56 -24.6,-5.51 -31,5.84 -7.39,13.11 0.95,23.67 9.61,29.22 9.49,6.09 19.3,11 28.5,17.37zm58.39 250.95l-28.66 -28.36c-5.42,3.37 -18.3,16.87 -23.35,22.22 -20.46,21.69 3.76,55.32 29.3,29.36 4.72,-4.8 19.24,-17.49 22.71,-23.22zm-63.09 -89.82l-10.24 -38.38c-5.26,0.22 -25.77,6.1 -32.26,8.06 -11.24,3.39 -20.22,10.7 -17.91,24.82 4.81,29.4 54.11,9.14 60.41,5.5zm26.49 50.56c-3.27,-9.23 -14.65,-24.08 -20.22,-36.3 -9.04,4.03 -19.26,10.4 -28.19,15.74 -9.72,5.81 -18.76,13.89 -11.86,29.59 12.08,27.5 43.34,-3.61 60.28,-9.03zm83.41 68.62c-5.54,-4.27 -11.09,-6.08 -17.3,-9.78 -6.57,-3.91 -12.09,-8.06 -18.61,-11.12 -5.85,16.71 -34.6,45.24 -11.14,59.83 13.91,8.65 24.76,-0.44 30.3,-9.54 5,-8.19 14.41,-22.3 16.74,-29.39zm12.41 -391.46l40.09 -10.69c-3.25,-20.13 -10.18,-55.66 -34.41,-50.4 -27.07,5.88 -8.19,41.73 -5.69,61.08zm270.68 123.44l10.82 40.32c5.76,-0.17 23.87,-6.37 31.69,-8.61 11.29,-3.22 20.4,-9.94 18.59,-24.25 -3.8,-30 -41.82,-9.94 -61.1,-7.46zm-25.9 199.3c16.52,5.92 46.98,35.54 59.76,10.37 12.02,-23.67 -14.67,-32.53 -38.07,-46.54 -2.42,2.07 -20.28,32.48 -21.69,36.17zm-135.87 -333.69l39.9 11.06c3.07,-19.56 20.68,-53.12 -4.11,-60.73 -25.44,-7.81 -32.46,29.5 -35.78,49.67zm-241.7 174.68l10.92 -40.15c-19.01,-3.37 -53.11,-21.33 -60.33,4.37 -3.95,14.03 4.46,22.84 15.3,26.41 9.68,3.18 24.41,7.94 34.11,9.37zm293.84 227.16c2.79,7.52 11.86,21.83 16.22,29.08 5.46,9.1 15.32,18.48 28.94,11.68 27,-13.48 -2.79,-44.39 -9.04,-61.17 -6.07,2.85 -11.45,7.13 -17.42,10.59 -6.8,3.94 -12.35,6.41 -18.7,9.81zm-208.71 -364.53l35.25 -20.62c-12.98,-22.98 -22.25,-50.91 -45.52,-40.26 -23.31,10.67 -0.55,43.82 10.27,60.88zm156.48 381.28c1.25,8.96 5.92,24.21 8.93,33.76 3.51,11.13 10.89,19.87 25.17,16.83 27.45,-5.83 9.07,-40.42 5.64,-61.6l-39.73 11.01zm-68.39 -0.85l-39.83 -9.8c-4.82,20.78 -20.56,53.74 4.08,60.9 13.48,3.91 22.4,-4.25 26.06,-15.16 3.06,-9.15 8.33,-26.72 9.69,-35.94zm-174.2 -187.28l-0.8 -41.82c-22.59,0.46 -56.19,-6.31 -56.8,20.43 -0.63,27.62 35.51,21.13 57.6,21.39zm416.69 -0c18.04,-0.22 58.06,7.34 57.38,-21.39 -0.62,-26.42 -33.95,-20.34 -57.02,-20.35l-0.36 41.74zm-229.12 -231.65l41.48 -0.04c-0.6,-22.35 6.52,-57.53 -20.83,-57.72 -27.15,-0.19 -20.83,36.25 -20.65,57.76zm41.15 421.06l-40.88 0.67c-1.45,22.18 -5.7,57.55 20.31,57.48 26.7,-0.07 21.38,-35.65 20.57,-58.14z"/>
   <path class="fil0" d="M1125.98 1141.31c-12.99,-1.96 -27.21,-13.71 -61.46,-8.15 -104.63,16.98 -114.08,172.16 -6.96,198.96 21.04,5.26 44.26,2.82 62.52,-5.32 16.65,-7.42 32.79,-20.17 41.24,-32.08 -3.69,-5.37 -6.38,-5.26 -11.93,-11.26 -4.18,-4.52 -7.05,-7.44 -9.99,-12.5 -20.19,-34.67 -6.42,-77.72 24.13,-92.56 -0.35,-10.8 -9.09,-1.42 15.35,-25.94l320.58 -321.92c12.33,-11.96 39.84,-42.66 49.91,-50.08l-31.18 -33.28c-5.87,3.48 -62.3,62.07 -72.76,72.43l-123.32 123.7c-32.96,33.34 -64.52,65.82 -97.76,99.12l-49.53 48.92c-16.77,16.83 -31.99,33.14 -48.83,49.95z"/>
   <path class="fil0" d="M1585.64 513.49c-11.62,3.42 -25.16,20.13 -32.19,27.35 -12.52,12.85 -14.2,28.82 -2.35,43.75l118.09 120.27c10.56,10.24 19.49,20.15 29.88,30.61 38.69,38.94 54.76,5.87 73.63,-11.67 28.94,-26.91 -8.57,-55.57 -26.63,-73.35 -35.21,-34.64 -88.56,-86.8 -119.49,-120.56 -8.27,-9.03 -20.63,-22.37 -40.95,-16.4z"/>
   <path class="fil0" d="M1597.49 1347.46c4.82,-3.69 9.82,-7.64 14.83,-12.01l27.55 -27.75c4.85,-5.3 9.54,-8.47 14.07,-13.49l50.84 -59.25c-3.15,-8.53 -18.05,-24.17 -24.32,-31.8 -8.95,-10.91 -15.85,-19.07 -26.07,-29.22 -13.85,-13.75 -41.7,-44.88 -56.91,-54.56 -5.44,4.79 -12.43,16.9 -15.77,23.17 -4.61,8.64 -8.25,17.07 -11.48,26.5 -13.93,40.59 -14.67,89.91 0.5,130.01 5.52,14.6 17.25,39.96 26.75,48.41z"/>
   <path class="fil0" d="M1678.99 743.82c-3.56,-5.69 -9.98,-10.95 -15.24,-16.21 -15.78,-15.79 -104.28,-107.71 -111.72,-111.78l-34.95 68.28c-14.94,27.19 -1.72,30.29 29.83,63.58 29.04,30.65 36.54,45.38 62.25,31.96l69.83 -35.83z"/>
   <path class="fil0" d="M1181.99 1192.47c-57.02,17.4 -31.01,104.95 26.28,87.89 56.77,-16.89 33.48,-106.14 -26.28,-87.89z"/>
  </g>
  <g>
   <path class="fil1 str0" d="M332.1 10.42l1497.68 0c176.93,0 321.68,144.76 321.68,321.68l0 1537.54c0,176.93 -144.76,321.68 -321.68,321.68l-1497.68 0c-176.93,0 -321.68,-144.76 -321.68,-321.68l0 -1537.54c0,-176.93 144.76,-321.68 321.68,-321.68z"/>
  </g>
 </g>
</svg>
