<?xml version="1.0" encoding="UTF-8"?>
<!DOCTYPE svg PUBLIC "-//W3C//DTD SVG 1.1//EN" "http://www.w3.org/Graphics/SVG/1.1/DTD/svg11.dtd">
<!-- Creator: CorelDRAW -->
<svg xmlns="http://www.w3.org/2000/svg" xml:space="preserve" width="2.16188in" height="2.20173in" version="1.1" style="shape-rendering:geometricPrecision; text-rendering:geometricPrecision; image-rendering:optimizeQuality; fill-rule:evenodd; clip-rule:evenodd"
viewBox="0 0 2161.88 2201.74"
 xmlns:xlink="http://www.w3.org/1999/xlink"
 xmlns:xodm="http://www.corel.com/coreldraw/odm/2003">
 <defs>
  <style type="text/css">
   <![CDATA[
    .str0 {stroke:#856443;stroke-width:20.83;stroke-miterlimit:2.61313}
    .fil1 {fill:none}
    .fil0 {fill:#856443}
   ]]>
  </style>
 </defs>
 <g id="Layer_x0020_1">
  <metadata id="CorelCorpID_0Corel-Layer"/>
  <g id="_1338887580640">
   <path class="fil0" d="M1881.13 1391.46c39.59,-16.83 81.68,-68.14 90.28,-132.65 -23.06,10 -55.93,36.07 -89.27,52.8 -64.67,32.47 -47.54,27.48 -87.28,-1.96 36.12,-35.21 66.09,-65.59 80.43,-137.79 -96.64,53.22 -122.92,105.46 -184.63,56.69 7.06,-19.99 -3.39,0.77 7.91,-13.72 19,-24.36 65.88,-48.84 79.63,-127.33 -43.2,22.72 -129.14,89.39 -192.35,73.03 24.54,-32.71 46.86,-80.42 52.35,-138.01 -23.19,11.62 -3.86,-0.25 -22.93,14.62 -5.59,4.35 -13.77,12.7 -18.91,18.03 -68.8,71.39 -72.72,66.32 -131.24,52.41 22.53,-37.95 46.71,-67.9 53.99,-123.6 -43.97,27.82 -108.44,97.89 -188.24,77.61 -320.04,-81.3 -650.1,-34.55 -926.49,137.03l-156.93 131.95c-99.47,114.45 -119.54,140.2 104.63,319.74 94.26,75.49 253.08,154.11 377.04,185.97 372.06,95.64 834.67,15.06 1084.66,-253.6l65.93 -78.66c34.44,-51.52 19.96,-59.83 1.43,-112.58zm-644.96 -169.78c-57.16,2.48 -82.21,16.88 -107.6,50.96 -74.72,100.3 81.78,279.71 201.13,102.72 42.61,70.87 -7.91,222.35 -74.27,291.8l-67.71 49.05c-12.69,9.91 -5,2.5 -14.2,12.35 238.61,-29.47 414.26,-109.54 564.33,-274.48 -14.38,-18.57 -29.41,-27.34 -50.29,-48.91 -115.87,-119.7 -356.11,-209.78 -519.03,-233.92 25.52,18.81 43.25,27.24 67.64,50.43zm-899.66 223.5c80.63,81.94 131.11,119.33 236.63,178.75 82.81,46.63 224.11,92.72 327.89,104.63l-66.21 -48.63c-24.72,-24.12 -36.04,-35.33 -53.36,-62.13 -68.52,-105.94 -68.9,-237.74 3.7,-341.56 49.04,-70.14 58.86,-53.09 118.21,-103.73 -147.86,3.2 -341.74,83.45 -457.21,169 -50.87,37.69 -71.67,66.19 -109.65,103.68z"/>
   <path class="fil0" d="M1223.21 1133.83c50.22,41.76 164.81,284.72 -1.69,285.1 -67.56,0.16 -102.31,-65.02 -80.08,-132.46 14.5,-43.98 59.6,-127.96 81.78,-152.65zm294.88 -188.02c-61.43,75.84 -92.68,59.4 -152.78,-2.06 -21.91,-22.41 -45.37,-31.12 -46.86,-71.99 -1.74,-47.7 23.02,-58.6 42.24,-80.02 18.93,9.15 139.45,131.89 157.4,154.07zm-140.29 40.37c-18.3,10.07 -75.77,90.95 -132.95,79.15 -7.05,-49.39 68.17,-111.69 87.56,-130.35 17.49,13.93 33.9,26.27 45.39,51.2zm275.8 -93.8l-55.67 -5.52 -22.32 24.37c-23.19,-11.11 -155.98,-145.41 -173.15,-169.24 55.65,-59.43 -26.9,-88.9 52.3,-167.98 41.89,-41.83 79.03,-78.88 121.26,-119.58 130.13,-125.41 120.6,-161.9 187.35,-93.99l209.97 210.43c33.69,37.34 -7.83,54.83 -55.07,102.25 -39.8,39.96 -82.32,82.81 -120.49,120.38 -60.13,59.18 -79.52,98.88 -144.19,98.88z"/>
  </g>
  <g>
   <path class="fil1 str0" d="M332.1 10.42l1497.68 0c176.93,0 321.68,144.76 321.68,321.68l0 1537.54c0,176.93 -144.76,321.68 -321.68,321.68l-1497.68 0c-176.93,0 -321.68,-144.76 -321.68,-321.68l0 -1537.54c0,-176.93 144.76,-321.68 321.68,-321.68z"/>
  </g>
 </g>
</svg>
