<?xml version="1.0" encoding="UTF-8"?>
<!DOCTYPE svg PUBLIC "-//W3C//DTD SVG 1.1//EN" "http://www.w3.org/Graphics/SVG/1.1/DTD/svg11.dtd">
<!-- Creator: CorelDRAW -->
<svg xmlns="http://www.w3.org/2000/svg" xml:space="preserve" width="2.16188in" height="2.20173in" version="1.1" style="shape-rendering:geometricPrecision; text-rendering:geometricPrecision; image-rendering:optimizeQuality; fill-rule:evenodd; clip-rule:evenodd"
viewBox="0 0 2161.88 2201.74"
 xmlns:xlink="http://www.w3.org/1999/xlink"
 xmlns:xodm="http://www.corel.com/coreldraw/odm/2003">
 <defs>
  <style type="text/css">
   <![CDATA[
    .str0 {stroke:#856443;stroke-width:20.83;stroke-miterlimit:2.61313}
    .fil1 {fill:none}
    .fil0 {fill:#856443}
   ]]>
  </style>
 </defs>
 <g id="Layer_x0020_1">
  <metadata id="CorelCorpID_0Corel-Layer"/>
  <g id="_1338829112640">
   <path class="fil0" d="M1327.03 1207.44c102.56,26.58 154.71,288.54 183.46,326.26 60.77,79.72 103.99,-53.61 118.84,-99.08 21.05,-64.48 35.04,-145.41 19.16,-218.76 -15.05,-69.51 -48.5,-129.77 -26.99,-208.21 20.86,-76.09 49.94,-124.09 30.43,-215.67 -52.17,-244.88 -272.67,-123.82 -324.77,-123.79 -72.66,0.03 -134.69,-58.16 -216.66,-21.86 -51.52,22.81 -91.63,77.9 -107.09,147.98 -17.9,81.15 10.06,144.22 30.84,211.71 23.42,76.05 -12.27,143.83 -26.61,211.84 -21,99.58 47.01,433.61 137.64,317.61 16.17,-20.7 53.71,-148.87 69.74,-185.08 25.17,-56.88 64.36,-131.98 112.02,-142.94z"/>
   <path class="fil0" d="M1667.5 1133.2c12.25,112.47 43.39,122.04 13.27,255.81 -15.17,67.4 -47.75,179.65 -102.27,197.88 -154.93,51.78 -118.7,-244.03 -251.46,-336.91 -45.54,28.44 -80.67,117.25 -103.58,183.84 -23.94,69.54 -35.27,168.59 -128.1,157.01 -67.38,-8.41 -94.44,-107.88 -112.63,-173.52 -41.95,-151.39 -4.61,-178.33 -8.33,-244.65l-93.19 -7.92c12.95,32.43 82.92,112.61 23.33,131.59 -70.69,22.51 -69.8,-138.79 -157.04,-153.1 -96.05,-15.75 -174.62,-16.17 -233.22,68.55 -44.44,64.24 -34.01,358.65 -16.8,390.76 28.98,54.1 88.56,45.55 162.55,45.48l1064.32 0.07c176.94,0.74 141.46,-70.91 141.6,-283.1 0.1,-148.1 -45.22,-232.71 -198.45,-231.8z"/>
   <path class="fil0" d="M293.44 419.74c-4.65,85.78 42.04,62.01 89.29,44.53l33.04 52.46c-25.8,18.15 -82.92,38.49 -89.75,64 -4.46,16.68 10.79,42.98 20.12,49.21 21.61,14.42 33,-2.91 59.07,-8.6l210.93 360.3c10.48,18.97 43.53,79.2 55.13,87.57 25.32,18.28 26.34,5.06 48.85,8.33 20.65,3 22.44,12.69 44.61,25.15 52.66,29.62 39.75,28.77 67.19,75.3l63.32 81.96c-0.19,-22.97 -18.46,-42.6 -43.19,-86.85 -34.19,-61.19 -31.93,-34.18 -35.6,-115.44 -4.9,-108.47 69.73,-18.25 -51.5,-210.18l-55.01 20.92c-10.89,-35.15 9.33,-27.69 36.59,-50.49l-17.97 -39.3c-32.46,9.63 -35.86,27.57 -61.96,16.81 5.51,-26.58 -2.28,-8.02 14.11,-23.8 7.16,-6.89 5.6,-3.77 13.7,-9.98 9.15,-7.03 8.29,-5.48 13.96,-11.19l-18.66 -37.68c-25.91,7.72 -36.89,27.14 -62.5,15.19 5.86,-19.89 2.6,-12.26 16.31,-23.84 5.2,-4.39 18.49,-10.32 28.7,-16.53l-20.81 -40.83c-13.39,4.54 -22.39,11.63 -29.21,14.11 -14.47,5.28 -18.06,7.8 -33.19,-0.36 12.38,-25.67 19.54,-23.63 44.46,-33.63 -7.56,-30.46 -7.4,-21.52 -20.53,-46.3 -27.3,9.19 -34.71,28.82 -62.29,12.48 16.46,-29.22 17.23,-16.27 42.53,-37.47l-16.2 -39.25c52.62,-25.72 52.46,-44.2 13.67,-84.54 -42.89,-1.21 -64.52,32.87 -112.01,45.06l-24.93 -54c18.69,-13.87 51.26,-25.94 46.94,-60.41 -12.02,-95.91 -182.97,36.41 -207.21,57.28z"/>
  </g>
  <g>
   <path class="fil1 str0" d="M332.1 10.42l1497.68 0c176.93,0 321.68,144.76 321.68,321.68l0 1537.54c0,176.93 -144.76,321.68 -321.68,321.68l-1497.68 0c-176.93,0 -321.68,-144.76 -321.68,-321.68l0 -1537.54c0,-176.93 144.76,-321.68 321.68,-321.68z"/>
  </g>
 </g>
</svg>
