<?xml version="1.0" encoding="UTF-8"?>
<!DOCTYPE svg PUBLIC "-//W3C//DTD SVG 1.1//EN" "http://www.w3.org/Graphics/SVG/1.1/DTD/svg11.dtd">
<!-- Creator: CorelDRAW -->
<svg xmlns="http://www.w3.org/2000/svg" xml:space="preserve" width="2.16188in" height="2.20173in" version="1.1" style="shape-rendering:geometricPrecision; text-rendering:geometricPrecision; image-rendering:optimizeQuality; fill-rule:evenodd; clip-rule:evenodd"
viewBox="0 0 2161.88 2201.74"
 xmlns:xlink="http://www.w3.org/1999/xlink"
 xmlns:xodm="http://www.corel.com/coreldraw/odm/2003">
 <defs>
  <style type="text/css">
   <![CDATA[
    .str0 {stroke:#856443;stroke-width:20.83;stroke-miterlimit:2.61313}
    .fil1 {fill:none}
    .fil0 {fill:#856443}
   ]]>
  </style>
 </defs>
 <g id="Layer_x0020_1">
  <metadata id="CorelCorpID_0Corel-Layer"/>
  <path class="fil0" d="M1695.93 900.37c-10.03,6.82 -125.38,164.98 -129.54,176.64l127.52 0.47c7.81,27.15 3.72,366.23 3.33,440.27 -0.25,48.13 9.29,106.33 -30.71,121.7 -31.93,12.26 -507.73,5.63 -584.99,5.58 -74.06,-0.05 -557.02,7.24 -585.71,-5.28 -38.75,-16.92 -30.11,-71.27 -30.11,-118.23l0.31 -426.05c2.63,-16.25 -1.56,-6.28 6.02,-14.24 20.04,-12.84 549.42,0.65 628.34,-4.68l128.3 -184.78c-89.87,-6.11 -389.16,-0.6 -501.45,-0.52 -162.71,0.13 -348.86,-40.09 -349.83,155.27 -0.83,166.42 -0.89,335 0.85,501.38 0.67,63.33 -2.43,135.99 78.37,172.62 45.7,20.71 180.99,12.86 240.46,12.86 167.11,0 334.21,-0.52 501.31,-0.52 80.81,0 450.15,9.15 496.85,-8.48 78.58,-29.67 88.65,-88.88 89.81,-157.64l-0.58 -505.08c-0.72,-70.5 -10.72,-130.75 -88.54,-161.3zm-133.15 -309.84c22.6,20.49 53.63,40.54 78.44,58.51l81.1 57.67c11.41,-10.8 48.77,-60.15 52,-79.48 7.37,-44.23 -49.9,-75.81 -95.57,-106.26 -17.02,-11.35 -33.17,-15.21 -54.18,-5.65 -16.93,7.7 -54.95,58.35 -61.78,75.22zm-58.67 633.24c-38.26,19.67 -66.89,15.78 -76.89,66.41 -22.24,112.58 151.02,83.61 125,162.45 -6,18.19 -28.82,24.26 -51.28,18.67 -25.33,-6.3 -22.39,-22.12 -30.96,-43.29l-51.83 0.33c-6.48,61.32 34.47,72.15 81.33,89.41l2.44 35.49 29.57 0.64 0.98 -37.75c90.05,-9.86 112.76,-112.81 24.65,-153.51 -16.15,-7.46 -30.16,-13.8 -46.14,-21.73 -19.19,-9.53 -32.33,-15.31 -27.2,-45.38 3.5,-20.44 20.93,-30.05 44.28,-24.16 22.17,5.6 19.74,20.33 28.44,41.74l51.92 0.06c6.44,-53.62 -29.09,-74.18 -72.85,-87.35l-0.28 -39.85 -30.31 0.53 -0.89 37.29zm-913.46 146.38l441.85 0.02 1.02 -82.56 -442.4 0.28 -0.47 82.26zm-3.89 171.5c78.6,-0.98 605.62,5 632.64,-2.48l-0.19 -82.96 -629.8 -0.67c-6.33,21.37 -2.54,62.15 -2.65,86.11zm1107.62 -793.74c-17.59,-16.24 -145.5,-112.23 -160.51,-118.1 -14.31,11.74 -276.59,375.95 -305.88,416.3 -57.85,79.7 -53.79,96.85 -87.02,203.15 -8.55,27.34 -40.45,96.63 -1.36,104.76 21.41,4.46 73.8,-39.13 90.07,-49.93 28.94,-19.23 58.27,-39.72 86.56,-60.58 54.51,-40.2 88.12,-98.02 131.55,-158.46 81.89,-113.95 166.88,-224.22 246.59,-337.13zm-488.72 472.07c7.43,9.11 13.63,15.15 26.67,18.91 12.55,-6.65 71.31,-47.61 79.28,-56.6 -9.67,-11.89 -59.31,-48.1 -75.51,-57.06 -9.3,11.68 -28.67,75.41 -30.44,94.75z"/>
  <g>
   <path class="fil1 str0" d="M332.1 10.42l1497.68 0c176.93,0 321.68,144.76 321.68,321.68l0 1537.54c0,176.93 -144.76,321.68 -321.68,321.68l-1497.68 0c-176.93,0 -321.68,-144.76 -321.68,-321.68l0 -1537.54c0,-176.93 144.76,-321.68 321.68,-321.68z"/>
  </g>
 </g>
</svg>
