<?xml version="1.0" encoding="UTF-8"?>
<!DOCTYPE svg PUBLIC "-//W3C//DTD SVG 1.1//EN" "http://www.w3.org/Graphics/SVG/1.1/DTD/svg11.dtd">
<!-- Creator: CorelDRAW -->
<svg xmlns="http://www.w3.org/2000/svg" xml:space="preserve" width="2.16188in" height="2.20173in" version="1.1" style="shape-rendering:geometricPrecision; text-rendering:geometricPrecision; image-rendering:optimizeQuality; fill-rule:evenodd; clip-rule:evenodd"
viewBox="0 0 2161.88 2201.74"
 xmlns:xlink="http://www.w3.org/1999/xlink"
 xmlns:xodm="http://www.corel.com/coreldraw/odm/2003">
 <defs>
  <style type="text/css">
   <![CDATA[
    .str0 {stroke:#856443;stroke-width:20.83;stroke-miterlimit:2.61313}
    .fil1 {fill:none}
    .fil0 {fill:#856443}
   ]]>
  </style>
 </defs>
 <g id="Layer_x0020_1">
  <metadata id="CorelCorpID_0Corel-Layer"/>
  <path class="fil0" d="M752.51 984.16c-34.07,48.11 -21.91,64.48 -43.19,106.63 -83.9,-17.28 -89.22,-93.21 -51.52,-166.42 18.31,-35.56 35.79,-53.2 58.91,-77.7 48.82,-51.71 224.87,-373.43 242.92,-435.65l-346.96 -0.85c9.5,350.62 -248.43,577.66 21.68,914.73 21.15,26.39 43.85,48.98 64.49,72.39 92.24,104.68 259.62,257.26 365.21,357.21 71.42,67.61 70.14,119.74 189.06,93.76 -65.42,-46.8 -173.39,-187.04 -235.51,-252.89 -45.94,-48.7 -75.9,-87.36 -123.86,-126.91 -39.15,-32.28 -96.58,-88.27 -141,-110.59l64.92 -22.5c22.04,-7.67 36.49,-15.33 55.49,-28.14 42.89,-28.93 51.72,-45.62 87.15,-76.45 11.16,21.24 15.19,56.72 34.57,90.69 55.43,97.15 350.73,521.52 383.68,530.55l40.76 0c-20.41,-47.41 -70.18,-110.78 -97.88,-149.7 -79.53,-111.75 -135.51,-179.63 -223.95,-277.76 -19.4,-21.53 -84.38,-124.16 -89.89,-156.82 39.95,33.96 88.61,88.11 126.35,135.37l291.54 370.11c20.31,26.13 41.98,58.52 57.97,75.86l167.81 0c-14.9,-156.14 -122.19,-352.99 -219.52,-470.07 -39.04,-46.96 -122.28,-115.86 -187.04,-155.05 -142.34,-86.12 -176.55,-53.56 -236.62,-111.02 22.4,-44.39 334.73,-317.91 309.11,-705.84l-241.24 0.05c-33.39,77.77 -189.63,423.15 -188.35,485.34 1.86,90.89 94.45,188.94 -10.36,243.76 -69.67,36.44 -184.08,19.56 -124.7,-152.09zm63.81 252.35l24.49 -55.67c-127.75,33.5 -188.82,202.11 -50,135.25 58.17,-28.02 125.91,-73.24 168.16,-110.26 -34.09,-97.02 -119.6,4.3 -142.65,30.69zm-213.47 -176.72c-104.68,11.97 -6.24,194.7 33.18,203.12 88.76,18.98 -10.43,-185.23 -33.18,-203.12z"/>
  <g>
   <path class="fil1 str0" d="M332.1 10.42l1497.68 0c176.93,0 321.68,144.76 321.68,321.68l0 1537.54c0,176.93 -144.76,321.68 -321.68,321.68l-1497.68 0c-176.93,0 -321.68,-144.76 -321.68,-321.68l0 -1537.54c0,-176.93 144.76,-321.68 321.68,-321.68z"/>
  </g>
 </g>
</svg>
