<?xml version="1.0" encoding="UTF-8"?>
<!DOCTYPE svg PUBLIC "-//W3C//DTD SVG 1.1//EN" "http://www.w3.org/Graphics/SVG/1.1/DTD/svg11.dtd">
<!-- Creator: CorelDRAW -->
<svg xmlns="http://www.w3.org/2000/svg" xml:space="preserve" width="2.16188in" height="2.20173in" version="1.1" style="shape-rendering:geometricPrecision; text-rendering:geometricPrecision; image-rendering:optimizeQuality; fill-rule:evenodd; clip-rule:evenodd"
viewBox="0 0 2161.88 2201.74"
 xmlns:xlink="http://www.w3.org/1999/xlink"
 xmlns:xodm="http://www.corel.com/coreldraw/odm/2003">
 <defs>
  <style type="text/css">
   <![CDATA[
    .str0 {stroke:#856443;stroke-width:20.83;stroke-miterlimit:2.61313}
    .fil1 {fill:none}
    .fil0 {fill:#856443}
   ]]>
  </style>
 </defs>
 <g id="Layer_x0020_1">
  <metadata id="CorelCorpID_0Corel-Layer"/>
  <g id="_1338778271728">
   <path class="fil0" d="M733.84 396.13c0.37,36.99 61.48,91.22 84.92,120.7l190.23 233.45c83.92,118.88 323.57,164.5 227.02,370.53 -67.36,143.74 -253.78,89.91 -269.87,28.41 4.38,-100.39 60.3,-97.15 -8.56,-218.38 -30.96,-54.5 -71.04,-114.61 -105.02,-162.41l-233.48 -299.35c-56.18,22.63 -171.57,147.37 -199.11,207.93l276.91 256.29c288.69,252.47 122.47,94.32 10.69,452.03 -30.56,97.76 -68.03,262.91 -72.73,373.63l105.67 52.91c3.39,-91.2 27.92,-229.54 49.28,-316.17 12,-48.64 25.82,-96.61 42.3,-142.83 19.71,-55.28 29.63,-105.1 63.54,-121.93 37.5,29.02 39.23,101.8 22.52,143.37 -20.47,50.91 -37.24,83.27 -54.18,138.92 -31.05,101.98 -56.39,220.82 -67.23,332.23l61.54 14.93c30.85,-152.35 109.06,-319.76 103.86,-508.78 -1.57,-57.22 -34.6,-148.49 -25.67,-179.11 30.94,3.44 62.38,50.34 126.22,58.09 80.04,9.72 107.94,-28.8 161.45,-32.57 14.52,53.74 -38.34,113.37 -62.11,162.05 -63.98,131.03 -150.87,389.36 -166.12,528.01l83.89 3.25c43.7,-81.16 53.59,-281.6 186.73,-491.25 50.17,-79 108.85,-105.18 149.72,-191.17 40.93,-86.09 30.11,-198.74 -12.26,-282.21 -81.93,-161.41 -156.51,-288.79 -252.02,-420.6 -27.85,-38.43 -138.1,-166.97 -163.22,-177.57 -52.61,-22.21 -209.23,43.1 -254.92,67.61zm518.94 876.56c126.09,-9.02 197.74,-288.29 55.91,-280.43 -27.41,48.13 -50.74,210.94 -55.91,280.43z"/>
   <path class="fil0" d="M1144.52 1888c216.53,2.62 434.91,-157.47 520.71,-254.63 120.63,-136.59 212.47,-311.42 203.51,-567.43 -14.28,-407.89 -357.76,-749.7 -800.22,-750.51 21.99,48.06 40.23,44.61 73.96,89.41l133.39 179.73c67.7,111.06 306.33,154.45 325.6,481.97 12.65,214.89 -83.79,350.52 -189.66,442.23 -107.55,93.15 -174.38,73.13 -197.04,125.56 -24.25,56.1 -59.52,192.05 -70.26,253.67z"/>
   <path class="fil0" d="M571.6 1710.17l44.66 -195.4c29.06,-132.82 36.38,-80.35 -15.14,-190.85 -26.04,-55.87 -44.75,-129.15 -46.67,-202.06 -2.54,-95.91 27.18,-150.54 30.67,-223.8l-196.11 -168.71c-96.45,103.26 -115.18,395.72 -79.98,554.73 42.41,191.52 144.38,312.24 262.58,426.09z"/>
  </g>
  <g>
   <path class="fil1 str0" d="M332.1 10.42l1497.68 0c176.93,0 321.68,144.76 321.68,321.68l0 1537.54c0,176.93 -144.76,321.68 -321.68,321.68l-1497.68 0c-176.93,0 -321.68,-144.76 -321.68,-321.68l0 -1537.54c0,-176.93 144.76,-321.68 321.68,-321.68z"/>
  </g>
 </g>
</svg>
