<?xml version="1.0" encoding="UTF-8"?>
<!DOCTYPE svg PUBLIC "-//W3C//DTD SVG 1.1//EN" "http://www.w3.org/Graphics/SVG/1.1/DTD/svg11.dtd">
<!-- Creator: CorelDRAW -->
<svg xmlns="http://www.w3.org/2000/svg" xml:space="preserve" width="2.16188in" height="2.20173in" version="1.1" style="shape-rendering:geometricPrecision; text-rendering:geometricPrecision; image-rendering:optimizeQuality; fill-rule:evenodd; clip-rule:evenodd"
viewBox="0 0 2161.88 2201.74"
 xmlns:xlink="http://www.w3.org/1999/xlink"
 xmlns:xodm="http://www.corel.com/coreldraw/odm/2003">
 <defs>
  <style type="text/css">
   <![CDATA[
    .str0 {stroke:#856443;stroke-width:20.83;stroke-miterlimit:2.61313}
    .fil1 {fill:none}
    .fil0 {fill:#856443}
   ]]>
  </style>
 </defs>
 <g id="Layer_x0020_1">
  <metadata id="CorelCorpID_0Corel-Layer"/>
  <path class="fil0" d="M461.95 1525.31l75.69 -0.4c-20.7,-79.89 -10.77,-146.45 -10.77,-230.34 -0,-67.59 -20.81,-191.94 71.32,-171.45 5.45,-54.44 8.22,-89.54 73.93,-81.67 2.59,-36.8 14.08,-32.62 25.33,-53.57 -23.85,-65.42 -37.08,-115.29 -66.18,-177.21 -13.75,-29.26 -27.48,-57.6 -42.95,-80.87 -37.72,-56.73 29.52,-117.87 139.63,235.14 13.28,42.57 42.56,11.23 52.54,70.87 86.16,-13.21 72.68,72.78 72.68,105.4 -0.01,52.53 -4.46,129.21 1.42,178.85 22.76,-32.19 27.53,-63.3 71.93,-76.79 58.09,-17.66 77.22,19.32 57.9,66.49 -15.34,37.48 -28.7,73.6 -43.47,109.94 -15.39,37.85 -34.04,71.72 -48.69,105.72l381.75 -0.19c-13.04,-32.63 -31.73,-63.64 -46.15,-101.5 -26.9,-70.61 -104.7,-209.17 10.5,-180.81 27.41,6.75 49.65,31.67 61.61,53.01l14.76 26.2c0.13,-60.3 0.02,-120.61 0.03,-180.92 0.01,-63.97 -2.27,-113.97 72.61,-104.9 3.18,-21.19 9.2,-31.17 26.43,-42.52 22.36,-14.73 16.34,-17.01 24.9,-43.65 20.24,-62.97 46.25,-135.86 78.22,-194.17 8.61,-15.7 15.65,-28.04 25.2,-42.83 11.36,-17.6 15.66,-28.39 42.27,-21.12 5.11,26.5 -37.69,80.51 -63.33,140.69 -18.22,42.76 -47.94,114.08 -55.45,160.85 17.69,8.11 28.92,22.67 30.54,49.86 55.08,-12.7 73.63,27.08 72.57,81.03 93.84,-18.75 72.53,91.98 72.53,165.83 0,90.91 9.39,149.21 -11.18,234.3l69.97 0.28c-6.41,-283.61 -0.23,-573.47 -0.23,-856.45 0,-74.69 9.3,-134.06 -41.47,-169.5 -91.4,-63.81 -268.31,33.59 -359.07,-71.21 -40.96,-47.3 -32.43,-113.42 -31.25,-186.55l-375.05 0.06c10.49,171.65 -16.62,237.45 -192.07,237.44 -54.73,-0 -155.6,-10.64 -193.2,17.91 -54.39,41.3 -45.8,92.43 -45.8,171.85 0,285.6 -0.65,571.28 0.05,856.88zm121.08 211.99l251.45 1.45 -3.24 -45.44c-33.88,-14.97 -104.31,-7.46 -147.39,-7.46 -90.91,0 -98.98,-11.49 -100.82,51.45zm750.48 1.47l251.3 -0.04c-0.18,-65.93 -5.44,-52.97 -142.78,-52.91 -112.16,0.05 -107.33,-9.13 -108.52,52.94zm-376.61 -644.39l-1.27 27.02c34.79,10.24 32.98,35.43 47.68,38.29l163.68 0.01c11.3,-31.91 62.72,-43.83 27.43,-73.3 -57.73,-48.2 19.44,-35.13 -195.36,-34.93 -9.15,11.75 -9.3,17.91 -17.14,25.75 -7.48,7.49 -14.2,8.39 -25.01,17.15zm-15.74 -233.15l0.23 31.74c21.41,12 36.45,19.78 43.75,44.68l184.29 -0.02c14.38,-3.32 8.3,-14.97 26.72,-29.51 15.82,-12.48 25.82,-6.78 25.81,-30.98 -0.02,-25.1 -7.39,-15.41 -25.16,-31.55 -11.62,-10.55 -12.46,-18.31 -23.12,-29.95l-185.76 -0.29c-14.77,28.69 -18.94,30.82 -46.77,45.88zm-14.6 -231.13l-0.59 34.07 30.52 21.23c13.48,12.74 10.42,15.39 21.27,29.74l209.73 1c4,-14.09 9.87,-23.97 18.98,-31.97 3.96,-3.48 9.69,-6.22 15.4,-10.04 13.82,-9.25 13.24,3.8 13.19,-44.03 -0.94,-0.72 -2.37,-2.84 -2.83,-2 -0.05,0.09 -35.74,-15.44 -45.04,-50.21l-209.43 0.07c-26.46,39.69 -15.07,25.52 -51.2,52.14zm491.22 652.54l-27.13 0.6c-17.15,-48.99 6.7,-172.77 -11.38,-210.8l-23.39 -0.48c-20.94,47.87 9.48,288.88 -10.36,326.19 -28.14,22.92 -56.32,-26.22 -64.25,-53.35 -11.01,-37.64 -26.77,-66.35 -70.74,-68.71 6.25,27.3 27.07,72.91 37.98,101.06 23.12,59.66 61.87,158.22 110.56,196.35 34.42,26.95 30.19,3.18 30.19,75.73l141.48 -0.21 0.35 -60.1c36.04,-25.18 47.5,-28.77 62.91,-78.83 12.62,-40.98 12.99,-84.86 11.02,-130.32l-2.11 -207.85c-2.95,-10.34 -35.2,-45.61 -34.94,37.48 0.13,39.2 2.14,53.02 -2.41,90.2 -45.29,21.38 -34.31,-27.01 -34.27,-115.76 0.01,-23.94 2.4,-63.11 -0.04,-85.22 -1.87,-16.91 -36.19,-61.06 -35.74,42.63 0.28,63.93 3.95,139.35 -3.47,201.96l-22.68 1.51c-18.22,-23.63 -10.37,-109.95 -10.38,-143.83 -0,-19.9 4.03,-161.73 -6.18,-173.05 -55.48,-61.48 -16.6,204.37 -35.01,254.83zm-708.85 -115.85l-0.07 149.08c0,27.15 -7.36,31.51 -30.33,25.49 -13.31,-28.31 -6.01,-197.09 -5.82,-234.2 0.17,-23.94 -4.86,-30.91 -28.62,-30.37 -20.49,38.13 0.64,169.88 -10.19,223.78 -81.82,26.67 10.61,-163.9 -66.28,-139.3 -6.86,23.48 -16.91,289.48 10.24,362.73 15.74,42.46 28.96,43.98 57.63,65.98l1.19 59.23 142.06 0.09c0.54,-104.66 1.97,-24.3 64.35,-114.69 16.47,-23.87 29.23,-50.16 43.54,-79.99 17.7,-36.91 61.2,-138.37 70.75,-178.28 -42.92,1.29 -56.69,24.97 -68.83,61.29 -9.2,27.52 -26.73,72.79 -60.37,64.97 -19.14,-15.69 -10.29,-104.74 -10.29,-133.58 0,-49.65 -0.42,-99.47 0.07,-149.1 0.2,-21.03 5.64,-56.37 -21.5,-48.74 -33.45,9.41 -0.18,179.35 -16.36,204.57 -12.36,8.7 -17.53,9.67 -31.62,2.15 -5.92,-22.92 -3.55,-167.55 -3.06,-209.14 0.32,-27.92 4.82,-48.52 -27.85,-46.46 -15.59,23.71 -8.61,107.3 -8.62,144.49zm199.76 -332.69c-8.39,16.3 -9.53,70.28 0.85,85.17 16.36,18.55 28.35,0.98 39.32,25.08 10.85,23.84 1.4,29.84 33.16,29.84 293.87,0 198.37,6.12 234.89,-36.65 27.69,-32.44 40.54,33.04 40.54,-81.7 0,-38.58 -16.75,-20.5 -37.22,-38 -17.54,-14.99 -2.22,-40.64 -38.02,-40.64 -66.73,0 -133.46,0 -200.19,0 -51.93,0 -9.17,31.39 -49.61,45.84 -18.91,6.75 -12.61,-2.02 -23.72,11.06zm-16.69 -235.09c-17.11,134.19 18.67,92.59 39.54,111.34 18.94,17.02 -0.07,42.38 37.7,42.38 338.76,0 216.13,4.14 260.74,-40.87 33.09,-33.38 42.53,29.91 42.53,-90.29 0,-38.46 -26.39,-20.66 -43.67,-38.09 -44.94,-45.36 83.25,-42.34 -259.61,-42.32 -33.73,0 -21.04,13.74 -32.42,35.01 -8.46,15.81 -31.26,17.98 -44.82,22.84zm27.45 491.1c-0.02,72.65 -0.29,55.8 38.34,70.78 15.74,41.16 -11.31,35.19 96.63,35.19 40,-0 96.45,3.25 134.46,-1.27 15.58,-18.93 5.06,-29.67 29.77,-38.5 31.26,-11.17 24.08,-8.96 24.08,-66.19 0,-40 -15.78,-21.54 -34.94,-38.25 -41.52,-36.23 73.82,-37.76 -208.76,-37.07 -46.65,0.23 -24.74,10.04 -41.59,33.52 -14.64,20.41 -37.99,-0.18 -38,41.8z"/>
  <g>
   <path class="fil1 str0" d="M332.1 10.42l1497.68 0c176.93,0 321.68,144.76 321.68,321.68l0 1537.54c0,176.93 -144.76,321.68 -321.68,321.68l-1497.68 0c-176.93,0 -321.68,-144.76 -321.68,-321.68l0 -1537.54c0,-176.93 144.76,-321.68 321.68,-321.68z"/>
  </g>
 </g>
</svg>
