<?xml version="1.0" encoding="UTF-8"?>
<!DOCTYPE svg PUBLIC "-//W3C//DTD SVG 1.1//EN" "http://www.w3.org/Graphics/SVG/1.1/DTD/svg11.dtd">
<!-- Creator: CorelDRAW -->
<svg xmlns="http://www.w3.org/2000/svg" xml:space="preserve" width="2.16188in" height="2.20173in" version="1.1" style="shape-rendering:geometricPrecision; text-rendering:geometricPrecision; image-rendering:optimizeQuality; fill-rule:evenodd; clip-rule:evenodd"
viewBox="0 0 2161.88 2201.74"
 xmlns:xlink="http://www.w3.org/1999/xlink"
 xmlns:xodm="http://www.corel.com/coreldraw/odm/2003">
 <defs>
  <style type="text/css">
   <![CDATA[
    .str0 {stroke:#856443;stroke-width:20.83;stroke-miterlimit:2.61313}
    .fil1 {fill:none}
    .fil0 {fill:#856443}
   ]]>
  </style>
 </defs>
 <g id="Layer_x0020_1">
  <metadata id="CorelCorpID_0Corel-Layer"/>
  <path class="fil0" d="M619.32 1855.28l356.81 -0.04c3.84,-44 -2.9,-107.35 -3.59,-154.16 -1.65,-110.68 -7.31,-369.96 34.66,-451.74 66.17,-128.91 276.51,-187.01 420.43,-227.53 131.98,-37.15 135.48,-41.91 210.61,72.69 73.45,112.03 67.08,153.3 -85.03,117.68 -120,-28.1 -305.43,-29.81 -418.08,33.6 -27.7,15.59 -75.8,54.4 -70.5,92.99 48.73,-4.34 38.71,-52.31 143.16,-76.28 65.17,-14.96 137.29,-15.87 202.32,-0.81 215.8,49.99 112.58,234.5 -6.87,176.78 -5.89,-50.69 46.11,-38.62 79.74,-59.7 0.9,-43.29 -50.93,-40.8 -99.16,-39.41 -66.39,1.91 -171.05,13.94 -228,44.24 -47.35,25.19 -40.91,31.82 -26.95,82.53 -17.99,-9.54 -4.33,-10.1 -25.87,-15.15 7.33,36.88 29.06,49.54 32.66,82.24 -41.89,0.83 -53.05,-25.8 -64.88,-58.99 -1.49,-4.18 -3.21,-10.11 -5.11,-13.79l-10.6 -12.93c-20.7,30.13 14.15,94.49 14.08,192.54 -0.04,65.16 -6.34,153.4 -0.59,215.3l155.58 -0.16c19.28,-28.39 45.25,-127.3 59.54,-164.86 27.63,-72.61 97.28,-35.74 176.47,-28.4 79.6,7.38 126.3,-16.72 126.41,-96.9 0.05,-36.2 -10.9,-67.7 4.94,-97.48 27.55,-51.81 32.22,-10.49 15.21,-82.18 20.93,-6.78 42.11,-20.96 43.86,-46.24 1.85,-26.86 -15.73,-42.43 -13.07,-80.19 55.53,-13.62 131.51,-13.13 61.27,-135.77 -23.56,-41.14 -76.32,-119.79 -83.2,-175.11 -3.19,-25.68 38.45,-58.82 -3.48,-222.17 -18.21,-70.95 -42.42,-126.17 -82.85,-175.19 -218.81,-265.22 -786.82,-312.93 -1027.7,103.95 -68.89,119.22 -89.22,272.55 -38.36,417.21 63.62,180.98 214.64,349.36 197.53,568.38 -5.54,70.93 -39.82,181.45 -41.41,215.07zm229.81 -958.34c-76.2,25.65 -84.58,109.66 -42.14,178.74 24.28,39.53 34.28,37.56 44.47,91.57 7.49,39.69 18.64,73.97 58.72,77.94 78.29,7.74 58.48,-99.15 59.93,-206.32 0.61,-44.77 6.3,-80.26 -21.18,-114.59 -18.26,-22.81 -58.48,-41.26 -99.8,-27.35z"/>
  <g>
   <path class="fil1 str0" d="M332.1 10.42l1497.68 0c176.93,0 321.68,144.76 321.68,321.68l0 1537.54c0,176.93 -144.76,321.68 -321.68,321.68l-1497.68 0c-176.93,0 -321.68,-144.76 -321.68,-321.68l0 -1537.54c0,-176.93 144.76,-321.68 321.68,-321.68z"/>
  </g>
 </g>
</svg>
