<?xml version="1.0" encoding="UTF-8"?>
<!DOCTYPE svg PUBLIC "-//W3C//DTD SVG 1.1//EN" "http://www.w3.org/Graphics/SVG/1.1/DTD/svg11.dtd">
<!-- Creator: CorelDRAW -->
<svg xmlns="http://www.w3.org/2000/svg" xml:space="preserve" width="2.16188in" height="2.20173in" version="1.1" style="shape-rendering:geometricPrecision; text-rendering:geometricPrecision; image-rendering:optimizeQuality; fill-rule:evenodd; clip-rule:evenodd"
viewBox="0 0 2161.88 2201.74"
 xmlns:xlink="http://www.w3.org/1999/xlink"
 xmlns:xodm="http://www.corel.com/coreldraw/odm/2003">
 <defs>
  <style type="text/css">
   <![CDATA[
    .str0 {stroke:#856443;stroke-width:20.83;stroke-miterlimit:2.61313}
    .fil1 {fill:none}
    .fil0 {fill:#856443}
   ]]>
  </style>
 </defs>
 <g id="Layer_x0020_1">
  <metadata id="CorelCorpID_0Corel-Layer"/>
  <g id="_1338984113168">
   <path class="fil0" d="M1546.54 863.38c-6.81,-1.32 -0.45,-2.42 -13.85,-6.19 -9.91,-2.78 -11.8,-8.75 -24.49,-11.34 -9.09,-1.63 -4.87,-4.68 -12.67,-6.31 -5.85,-1.22 -10.02,-1.54 -14.59,-4.69 -8,-5.49 -17.26,-2.49 -27.36,-9.75 -6.75,-4.85 -12.72,-3.72 -19.21,-8.76 -8.14,-6.33 -16.22,-3.41 -23.06,-8.76 -2.76,-2.15 0.26,-0.53 -2.98,-2.28 -1.29,-0.7 -6.91,-2.28 -7.94,-2.56 -9.62,-2.51 -6.44,-3.54 -12.63,-6.12 -7.75,-3.23 -7.87,0.24 -12.67,3.54 -3.69,2.54 -8.69,3.11 -12.95,5.64 -14.45,8.55 -4.19,4.96 -20.72,7.42 -15.14,2.25 -11.17,4.79 -31.29,-0.93 -11.68,-3.32 -4.34,-8.69 -20.48,-8.57 -6.09,8.15 3.74,3.69 -7.77,8.97 -7.95,3.65 -2.09,4.93 -8.94,8.29l-10.59 6.8c-4.65,4.33 -6.87,2.33 -10.31,7.03l-20.02 14.06c-19.13,5.41 -10.73,7.36 -25.66,10.05 -4.24,0.76 -11.26,1.33 -15.12,2.31 -13.78,3.5 -26.89,8.59 -44.22,1.4 -14.34,-5.94 -14.24,-0.89 -30.62,-11.59 -6.99,-4.57 -9.72,-4.71 -16.26,-11.67l-10.39 -14.94c-1.56,-2.68 -2.23,-2.7 -3.96,-5.22 -3.8,-5.56 -5.34,-15.46 -10.22,-24.17 -5.74,-10.24 -10.35,-46.97 -10.32,-60.48 0,-5.45 -0.21,-11.89 0.23,-17.24 0.55,-6.66 1.98,-8.57 4.01,-13.39 1.77,-4.19 2.27,-9.37 3.8,-13.43 2.51,-6.67 3.72,-5.78 6.94,-11.62l7.2 -10.2c3.84,-4.12 3.24,-6.37 6.87,-10.37 6.67,-7.36 10.27,-11.43 15.82,-19.78 2.38,-3.57 4.81,-5.43 7.88,-9.38 11.05,-14.23 17.87,-10.07 4.38,-38.65 -2.15,-4.54 -3.39,-15.07 -5.86,-20.72 -2.38,-5.44 -4.27,-5.64 -5.74,-11.35 -2.77,-10.73 -3.09,-17.93 -7.38,-28.48 -3.47,-8.52 -3.38,-19.87 -6.61,-27.96l-6.2 -18.6c-4.91,-12.01 -8.12,-21.33 -9.2,-35 -0.57,-7.32 -1.69,-8.35 -4.77,-13.39 -5.03,-8.25 -3.33,-18.51 -7.4,-27.15 -2.45,-5.22 -3.18,-5.06 -5,-12.35 -0.95,-3.84 -2.59,-9.53 -4.07,-13.06 -1.42,-3.39 -1.4,-2.27 -2.83,-5.06 -3.79,-7.41 -3.76,-10.77 -8.57,-17.87 -4.67,-6.89 -8.68,-16.11 -13.69,-22.03 -4.13,-4.87 -4.43,-3.83 -7.78,-9.38 -3.11,-5.15 -4.1,-4.35 -8.01,-9.2l-33.9 -36.41c-3.04,-3 -6.23,-4.1 -9.8,-7.33 -8.61,-7.81 1.01,-2.04 -10.2,-7.86 -5.81,-3.02 -3.15,-4.87 -9.67,-7.38 -8.42,-3.24 -5.36,-0.14 -11.93,-5.84 -3.5,-3.03 -6.78,-3.96 -11.35,-5.11 -10.2,-2.54 -4.44,-1.99 -11.3,-6.4 -5.85,-3.76 -21.15,-3.2 -28.67,-5.41 -13.06,-3.81 -30.55,-6.46 -46.65,-4l-8.28 2.91c-1.67,1.07 -0.99,0.99 -3.55,1.99 -8.26,3.23 -23,2.45 -30.1,4.65 -6.88,2.13 -2.08,3.45 -10.91,6.2 -11.57,3.62 -14.53,5.4 -24.86,10.66l-1.69 0.89c-4,2.39 -3.8,3.86 -8.84,5.94 -6.42,2.64 -6.26,1.36 -10.45,6.07 -1.9,2.13 -1.79,2.52 -3.74,4.26 -6.19,5.55 -13.8,8.47 -19.19,15.02l-5.14 4.68c-6.81,5.28 -10.44,13.2 -15.83,18.46l-32.22 54.76c-1.45,5.87 -0.77,11.3 -3.69,15.3 -3.13,4.28 -4.29,1.96 -5.69,10.82 -0.91,5.75 -1.23,9.59 -2.12,15.33 -3.56,23.12 -9.89,28.51 -5.77,63.16 1.17,9.89 2.3,19.74 5.36,29.03 1.05,3.18 0.76,1 1.87,5.98 2.92,13.03 3.98,9.32 7.24,19.22 7.22,21.85 8.22,16.87 10.86,24.73 2.99,8.87 7.11,15.22 11.15,23.33 2.34,4.69 4.54,5.35 7.07,10.17 6.01,11.44 13.51,20.66 20.02,31.72 3.46,5.89 4.23,4.2 7.64,9.56 1.54,2.41 1.61,3.3 3.55,5.65 1.44,1.74 2.7,2.61 4.4,4.86l8 9.26c3.44,4.61 2.97,5.86 7.12,10.03l14.39 20.59c1.58,3.43 5.71,5.64 7.91,9.22 3.99,6.5 4.2,2.7 8.83,8l12.7 13.75c2.63,2.72 2.46,1.93 4.84,4.41 1.81,1.89 1.83,2.47 3.68,4.25l32.81 29c6.68,3.26 8.36,7.22 14.43,10.85l16.58 10.21c4.33,3.57 5.64,4.29 13.98,2.63 0.96,-8.29 0.54,-12.86 -2.56,-18.21 -7.13,-12.31 1.81,-5.98 -10.26,-24.04 -1.51,-2.26 -2.56,-5.02 -4.04,-7.85 -1.69,-3.21 -2.17,-4.78 -3.87,-8.05 -1.54,-2.95 -2.37,-3.95 -4.19,-7.95l-8.63 -13.99c-2.48,-4.94 -2.49,-6.99 -6.39,-10.25 -5.54,-4.64 -11.13,-13.63 -16.39,-18.1 -8.14,-6.9 -9.47,-10.38 -6.33,-17.49 3.83,-8.72 9.59,-14.41 16.73,-20.74 6.36,-5.64 7.93,-7.7 16.46,-11.72 11.81,6.06 9.49,7.77 17.57,15.9 5.08,5.11 12.84,12.74 16.56,17.89 4.45,6.17 8.17,14.19 13.14,19.97l12.6 22.12c3.7,9.76 8.3,12.34 10.53,22.67 2.22,10.22 1.48,5.46 5.49,11.31 2.49,3.62 1.31,9.85 8.65,24.52 3.77,7.55 3.02,19.37 7.11,27.26 4.67,9.03 7.6,14.57 0.7,23.96l-3.39 4.39c-2.19,1.7 -3.5,1.21 -6.69,2.36 -6.36,2.29 -4.44,4.86 -9.68,7.67 -3.26,1.74 -3.07,0.67 -5.94,2.01 -7.4,3.46 -0.7,0.69 -4.93,4.53 -3.04,2.76 -6.71,2.3 -10.65,5.18 -3.45,2.52 -5.34,5.71 -9.45,7.61 -4.59,2.13 -5.96,4.63 -10.46,6.91l-10.47 6.79c-5.56,5.08 -10.25,3.06 -16.56,8.71l-32.68 26.85c-5.82,5.89 -8.81,6.07 -13.86,11.28 -6.72,6.91 -8.49,2.16 -11.81,14.6 4.37,6.17 10.28,11.14 16.41,15.13 8.13,5.29 35.07,33.32 51.24,44.15 3.94,2.64 17.09,13.48 17.76,20.35l-0.44 5.1c-0.74,4.52 -5.19,6.57 -8.28,10.52 -18.52,23.66 -21.27,30.19 -43.15,8.86 -0.21,-0.2 -0.48,-0.48 -0.69,-0.7 -12.64,-13.09 -29.46,-22.7 -42.84,-35.21 -9.73,-9.09 -25.83,-26.01 -37.78,-32 -11.92,8.84 -12.43,5.28 -28.79,8.4 -5.44,1.04 -7.49,3.61 -12.48,5.74 -5.73,2.44 -9.3,2.05 -14.74,3.94l-12.28 6.26c-7.24,2.57 -6.64,1.35 -12.8,5.57l-16.13 11.47c-2.71,2.26 -4.09,2.24 -7.24,3.54 -6.05,2.51 -6.06,4.63 -11.33,7.32 -10.4,5.31 -2.97,2.31 -10.11,8.21 -9.83,8.12 -36.35,30.09 -43.46,39.9 -3.96,5.46 -9.43,9.75 -14.42,14.78 -3.73,3.75 -4.1,8.15 -7.2,11.31 -5.26,5.35 -3.15,5.53 -7.28,11.31 -4.7,6.59 -12.18,13.87 -15.26,21.85 -3.05,7.9 -4.51,7.19 -8.07,14.5 -1.18,2.41 -0.4,0.82 -1.39,3.96 -2.4,7.6 -7.17,9.43 -9.5,18 -2.25,8.25 -2.59,7.75 -5.9,14.03 -3.71,7.06 -5.07,19.3 -9.13,27.88 -3.24,6.85 -1.68,7.45 -3.13,15.47l-4.27 23.01c-0.65,5.76 -0.78,3.33 -1.85,7.6 -0.93,3.7 -1.8,12.2 -1.94,16.22 -0.55,16.61 -1.98,37.61 3.44,52.91 2.17,6.11 1.12,9.82 2.05,16.84 0.6,4.54 1.68,10.11 2.55,15.9 1.95,12.96 5.48,10.32 8.78,27.92 3.73,19.87 10.54,9.57 11.71,45.42 0.85,25.77 -0.5,47.45 -3.44,70.82 -1.7,13.47 -3.95,19.17 -6.31,30.88 -2.27,11.22 -2.25,22.46 -2.45,36.09 -0.1,7.17 -0.99,11.3 2.5,16.13l11.04 14.1c2.96,3.67 3.09,2.35 5,6.95 1.93,4.68 -0.26,1.76 3.34,5.91l14.39 22.75c3.49,8.16 12.22,24.23 17.31,30.33 4.26,5.11 0.85,0.19 3.44,5.67 4.02,8.47 13.46,18.38 19.1,27.46l9.66 10.17c3.81,4.13 29.44,19.63 34.14,21.35 2.75,1 4.24,1.19 7.03,2.2 0.92,0.33 2.79,1.17 3.72,1.6 2.96,1.36 -0.76,0.41 3.15,1.47 8.77,-6.88 9.05,-7.51 13,-20.15 5.75,-18.44 15.78,-35.22 18.67,-53.38 1.48,-9.35 1.82,-6.47 5.08,-12.15 2.72,-4.75 2.2,-9.81 3.46,-15.29 1.95,-8.5 5.73,-4.65 8.82,-25.57 0.91,-6.13 1.94,-8.44 3.93,-13.29 1.48,-3.59 1.06,-2.52 2.37,-7.09 6.74,-23.52 5.3,-47.33 3.96,-73.52 -0.47,-9.14 -1.37,-22.51 -2.9,-31.34 -0.79,-4.61 -1.11,-10.01 -2.37,-14.81 -5.07,-19.33 -4.35,-44.38 -10.56,-61.07 -3.41,-9.18 -3.9,-20.22 -5.77,-29.94 -1.78,-9.25 -6.05,-16.47 -7.83,-27.64 -0.89,-5.52 -0.39,-12.58 -1.98,-16.82 -4.72,-12.56 -6.07,-10.61 -7.92,-27.42 -1.64,-14.89 -6.44,-13.39 -6.44,-29.39 3.36,-2.89 5.87,-4.49 11.29,-5.62 17.23,-3.59 20.41,-10.56 42.43,-8.57 17.06,22.71 7.13,30.68 14.23,45.21 7.02,14.36 5.3,15.38 7.09,32.46 0.8,7.65 1.66,9.47 4.54,15.51 5.65,11.83 0.57,34.8 9.23,45.2 0.67,0.81 2.06,2.42 2.23,2.79 2.07,4.52 0.81,12.87 1.5,18.31 0.8,6.15 0.54,12.53 1.56,18.4 1.22,6.99 3.02,8.67 4.48,15.36 5.57,25.61 1.89,14.74 4.11,35.39 0.56,5.28 0.54,12.64 1.18,18.77 0.86,8.24 3.65,6.47 3.94,15.76 0.4,12.8 1.84,25.63 0.4,37.43 -1.57,12.89 -5.58,20.26 -5.92,34.15 -0.15,6.27 0.08,13.76 3.2,17.44 6.35,7.48 2.86,3.84 6.91,12.8 2.97,6.59 5.41,3.43 7.67,12.05 2.46,9.43 1.55,6.3 6.41,13.64 2.85,4.32 2.37,10.24 3.45,16.47l4.1 10.54c5.09,7.13 5.06,28.56 5.64,38.98 0.73,13.35 0.53,25.33 1.82,38.26l3.7 36c10.44,3.78 9.3,-3.12 15.17,-6.22 2.8,-1.47 6.14,-1.06 9.48,-2.56 3.16,-1.42 2.3,-2.61 7.08,-4.71 5.12,-2.26 16.07,-3.34 19.1,-4.96 2.63,-1.41 0.72,-2.19 7.37,-4.31 2.98,-0.96 5.7,-1.63 9.58,-2.28 21.66,-3.59 19.78,-6.66 38.77,-8.96 7.86,-0.96 14.04,-1.22 21.9,-2.09 20.86,-2.3 26.31,-7.98 63.76,-8.51 8.57,-0.12 14.8,-0 22.31,-1.67 22.5,-4.98 40.93,-6 65.11,-6.13l71.49 -1.28c22.61,0.13 16.11,3.14 16.27,-56.36 0.08,-26.75 -0.83,-53.1 5.24,-78.07 2.61,-10.75 3.24,-56.83 6.42,-78.54 1.31,-8.97 3.7,-11.7 4.44,-19.59l5.09 -66.26c0.34,-11.81 3.73,-9.93 3.96,-21.09 0.67,-31.27 1.49,-61.76 1.44,-94.13 -0.03,-11.7 -0.48,-36.03 -2.24,-45.61 -0.85,-4.62 -3.52,-15.98 -3.03,-20.5 0.65,-5.94 4.5,-7.54 8.37,-9.57 0.28,-0.15 0.63,-0.31 0.91,-0.47 9.93,-5.46 43.17,-5.19 46.82,-2.91 0.83,0.52 4.63,4.16 5.62,6.05 5.12,9.73 3.4,173.52 -0.57,198.45 -1.13,7.08 -2.98,11.9 -4.05,19.67 -1.9,13.87 -2.11,31.2 -2.34,45.7 -0.42,26.41 -6.67,31.27 -7.48,40.99 -1.73,20.83 -1.31,45.7 -5.67,65.97 -1.84,8.6 -1.88,11.96 -2.44,22.85 -0.78,14.87 -4.34,84.05 0,94.13 7.49,2.97 28.58,1.23 38.8,3.75 12.8,3.15 22.87,5.24 36.69,5.48 6.74,0.11 14.98,0.22 20.19,1.11 8.27,1.43 9.51,2.37 16.12,4.86 9.78,3.69 28.91,2.43 37.83,5.89l15.87 5.23c8.44,2.36 18.54,0.82 26.29,5.58 7.84,4.83 16.93,4.71 26.59,6.37 8.87,1.51 8.8,3.53 15.54,5.78 8.7,2.92 17.68,1.99 25.6,6.25 7.54,4.06 17.34,5.88 27.91,5.36 2,-5.37 1.36,-0.72 2.63,-8.06 0.83,-4.84 0.94,-5.83 2.79,-9.17 2.9,-5.22 6.27,-10.04 7.19,-16.29 1.48,-10.11 4.06,-9.11 6.42,-17.57 2.23,-7.99 1.55,-12.09 5.06,-18.81 6.5,-12.42 4.13,-24.31 9.3,-37.06 1.98,-4.91 3.93,-13.46 5.08,-18.74 1.4,-6.43 0.95,-14.33 2.79,-21.19 1.77,-6.61 4.36,-10.09 5.56,-16.79 2.54,-14.26 2.48,-28.72 6.63,-41.24 2.01,-6.04 3.35,-12.61 4.11,-19.34 0.83,-7.44 0.34,-16.72 1.7,-22.57 1.64,-7.06 3.76,-10.72 5.04,-18.74l14.76 -91.18c6.98,-20.26 2.93,-8.14 5.95,-29.88 1.94,-14 8.16,-23.03 9.7,-37.41 2.18,-20.49 3.28,-15.27 6.8,-29.54 1.04,-4.23 1.45,-5.25 1.77,-10.19 1,-15.24 6.61,-21.69 9.66,-36.47 1.71,-8.28 0.53,-13.32 3.63,-20.44 4.7,-10.8 4.04,-27.05 8.15,-39.51 2.4,-7.25 4.76,-6.88 5.78,-17.63 0.8,-8.53 0.74,-14.28 2.85,-21.28 7.23,-24.08 6.38,-36.41 12.43,-57.74 3.41,-12 2.97,-31.5 7.2,-40.64 3,-6.5 4.69,-9.69 5.55,-18.02 1.18,-11.35 3.9,-8.95 6.92,-17.08 2.48,-6.67 0.53,-14.07 5.02,-18.97 4.58,-5.01 2.5,1.66 4.96,-7.45 1.11,-4.15 1.25,-5.31 3.65,-7.77 2.63,-2.69 2.84,-1.74 5,-5.75 1.83,-3.41 1.79,-5.7 3.11,-8.95 1.98,-4.93 2.54,-2.84 4.89,-6.87 2.84,-4.83 1.15,-5.02 2.45,-9.98 1.68,-6.4 0.59,-1.53 5.08,-6.21 2.91,-3.04 2.35,-3.85 4.7,-7.28 11.39,-16.61 7.24,-19.71 14.14,-33.52 2.02,-4.04 1.8,-2.3 3.52,-8.37 0.87,-3.06 1.42,-6.65 2.43,-9.54 2.72,-7.8 4.58,-3.66 7.64,-16.01l14.31 -32.19c4.07,-6.14 2.93,-11.89 6.3,-17.65 2.22,-3.82 3.47,-3.36 5.19,-6.6 1.63,-3.09 1.54,-5.72 3.02,-9 1.37,-3.02 3.07,-4.53 4.56,-7.36 1.36,-2.59 2.52,-5.87 3.63,-8.25 1.26,-2.72 2.24,-5.88 3.65,-8.27l12.44 -23.17c2.43,-4.97 3.75,-12.99 6.79,-17.21 4.3,-5.99 3.16,-11.43 5.85,-18.1 2.79,-6.9 4.44,-5.22 6.81,-15.96 3.74,-16.9 6.89,-15.38 11.21,-36.36 1.77,-8.6 4.56,-9.59 6.46,-17.37 1.57,-6.44 1.33,-14.61 2.78,-21.18 1.58,-7.2 5.67,-10.86 10.48,-36.7 1.52,-8.17 4.3,-11.5 5.46,-18.2 3.3,-19.09 5.5,-88.78 -1.19,-109.29 -1.07,-3.28 -2.48,-5 -3.88,-7.93 -3.11,-6.55 -1.04,-12.12 -9,-14.68 -8.89,-2.85 -16.8,-7.35 -26.56,-9.11 -14.18,-2.55 -23.57,-7.05 -38.17,-8.06 -23.54,-1.65 -71.85,-4.61 -93.33,4.46 -10.89,4.61 -25.1,3.36 -35.96,6.64 -6.78,2.04 -7.96,4.51 -16.64,5.86 -3.93,0.61 -6.89,0.93 -9.4,2.2 -12.28,6.2 -1.97,6.46 -26.01,9.5 -7.46,0.95 -10.44,4.93 -17.44,6.67 -9.09,2.26 -11,0.73 -18.07,5.73 -7.34,5.2 -9.23,3.07 -18.41,5.61 -6.6,1.82 -4.66,5.46 -16.33,7.48 -10.02,1.74 -10.24,1.74 -17.31,6.43 -6.81,4.53 -10.14,2.41 -17.54,5.19 -6.65,2.5 -7.84,5.14 -16.73,7.19 -9.83,2.27 -8.74,4.59 -16.41,7.35 -6.15,2.21 -11.12,3.16 -16.96,6.62 -6.69,3.97 -10.1,3.54 -17.51,6.35 -7.68,2.92 -5.44,4.94 -16.55,7.36 -11.32,2.46 -9.11,5.13 -15.89,7.74 -6.7,2.58 -11.14,0.86 -18.85,5.16 -4.84,2.7 -1.62,1.74 -7.72,3.28 -4.24,1.08 -5.13,1.41 -8.91,2.73 -6.34,2.22 -9.27,6.09 -15.73,7.9 -9.34,2.61 -10.57,-0.1 -19.62,4.54 -5.58,2.87 -12.56,3.69 -18.04,5.92 -5.82,2.37 -9.09,6.51 -15.74,7.98 -9.3,2.06 -9.58,2.67 -16.66,6.92 -5.94,3.57 -10.94,2.38 -16.73,7.05 -8.42,6.8 -6.52,3.59 -16.22,7.55 -5.89,2.41 -0.89,1.27 -6.66,4.13 -6.54,3.23 -9.71,3.74 -15.98,7.9 -2.63,1.75 -5.61,2.63 -8.21,3.93 -10.14,5.02 -22.92,19.41 -31.85,27.35l-7.52 7.12c-0.3,0.26 -1.19,0.91 -1.47,1.17 -3.24,2.91 -1.01,0.54 -2.91,3.5 -3.37,5.26 -7.17,8.17 -10.07,13.84 -4.89,9.56 -15.44,16.25 -19.51,26.78 -5.69,14.69 -7.8,3.96 -7.69,28 0.13,30.32 6.91,25.73 8.06,39.73 1.18,14.39 2.51,9.22 6.49,17.31 5.82,11.84 6.17,7.3 17.24,11.61 5.32,2.07 0.72,0.99 4.41,2.01 12.92,3.57 26.43,-3.91 38.28,-6.48 7.3,-1.57 4.11,0.52 8.54,-3.48 4.27,-3.85 10.31,-5.3 14.44,-9.39 4.36,-4.31 0.66,-1.66 6.64,-5.2l13.69 -10.22c3.43,-2.26 3.79,-2.73 6.41,-5.47 5.39,-5.65 1.95,-1.59 7.23,-4.8l12.62 -11.23c3.53,-3.06 4.5,-2.45 7.21,-4.73 2.69,-2.26 2.45,-3.96 5.21,-6.59 2.77,-2.63 3.94,-2.16 6.73,-5.15 11.13,-11.94 16.75,-11.78 27.09,1.06 3.74,4.65 7.37,6.35 10.83,11.74 10.76,16.76 19.53,6.86 29.9,-3.28l22.53 -31.71c1.54,-2.96 1.59,-4.85 3,-7.59 1.81,-3.56 3.17,-3.59 5.02,-6.85 2.57,-4.52 2.83,-10.99 5.46,-15.77 2.15,-3.89 2.19,-1.95 3.74,-6.76 1.37,-4.23 1.28,-5.26 2.85,-9.09l11.26 -20.59 22.91 -21.01c3.41,-2.3 1.79,-3.23 6.6,-5.34 4.98,-2.18 11.45,-2.94 16.79,-5.67 5.35,-2.75 12.38,-3.15 19.47,-3.72 6.46,-0.53 10.38,-1.65 18.44,-2.36 25.87,-2.27 84.85,-0.53 104.33,-5.55 6.96,-1.8 12.61,-0.46 19.83,-1.65l75 -11.98c6.22,-2.02 5.79,-4.57 15.78,-6.61 5.63,-1.15 10.93,-2.31 15.61,-5.45 8.34,-5.61 8.56,-2.59 17.25,-5.55 8.72,-2.97 2.79,-5.42 14.26,-8.18 13.55,-3.26 11.85,-13.87 25.69,-2.54 6.01,4.93 2.27,5.25 5.5,11.96 1.5,3.13 4,5.31 6.17,9.74 11.26,23 4.96,23.49 -9.82,29.96 -5.46,2.38 -4.24,3.68 -9.47,6.31 -3.76,1.89 -8.74,2.95 -11.98,5.19 -5.07,3.51 -1.98,3.84 -10.29,5.59 -5.2,1.09 -9.96,1.31 -14.71,2.93 -4.47,1.53 -5.17,3.42 -11.38,4.69 -20.26,4.18 -13.74,4.8 -24.13,8.52 -3.64,1.31 -10.78,1.74 -15.02,2.34 -4.51,0.65 -8.03,1.63 -13.73,2.13 -7.62,0.68 -7.75,1.45 -13.8,3.37 -13.28,4.21 -29.47,-0.94 -37.37,11.29l-11.59 21.48c-2.56,5.12 -4.24,4.75 -6.94,10.24 -2.79,5.66 -2.23,5.16 -6.08,9.92 -4.04,4.98 -2.83,6.17 -5,12.23l-33.3 48.8c-3.69,4.54 -0.94,6.22 -5.62,11.69 -5.11,5.98 -13.26,12.57 -12.53,21.54 5.53,2.24 10.18,3.42 15.35,7.25 8.8,6.52 19.76,10 29.22,15.6 3.22,1.91 3.46,2.98 6.71,5.31 3.7,2.65 4.69,2.11 7.78,3.98 3.31,1.99 2.41,2.46 5.9,4.64 3.5,2.18 5.34,1.86 8.5,3.43 5.03,2.48 13.37,12.44 28.31,16.72 5.54,1.59 4.32,0.72 7.33,4.99 5.89,8.36 3.29,11.03 -1.81,19.15 -2.4,3.81 -4.22,7.17 -6.78,10.54 -3.99,5.24 -7.3,18.34 -15.92,18.5l-19.94 -10.44c-4,-3.26 -2.83,-3.56 -8.39,-5.48 -8.65,-2.99 -4.31,-2.28 -10.04,-6.39l-9.67 -5.21c-6.69,-5.75 -11.86,-6.02 -17.78,-11.17 -3.82,-3.31 -0.3,-0.48 -4.52,-2.83 -6.12,-3.41 -2.2,1.18 -5.12,-4.49zm-537.5 105.48c-1.8,-1.64 -0.21,1.26 -1.59,-2.75 -2.09,-6.09 -3.35,-15.97 -2.05,-22.2 1.49,-7.19 3.89,-7.56 11.48,-8.58l6.35 -1.38c17.69,-6.47 8.99,-7 15.67,-19.73 4.9,-9.34 3.9,-11.75 5.87,-23.17 1.83,-10.57 7.6,-5.63 7.8,-21.28 -15.3,-2.82 -18.11,3.59 -24.24,-8.73 -5.1,-0.28 -13.28,-1.62 -16.96,1.67l-6.9 10.67c-3.43,9.27 -0.95,18.62 -12.99,22.11 -8.72,2.53 -22.88,0.03 -31.54,3.02 -11.95,4.13 -4.38,14.2 -3.44,25.67 0.89,11.04 -0.37,22.53 2.07,32.75 3.11,12.99 4.94,3.84 7.26,28.32 0.48,5.08 -0.19,12.06 0.97,16.7 0.42,1.7 1.61,3.83 2.65,5.22 1.5,2.02 0.33,0.25 1.81,2.13 0.16,0.2 0.43,0.49 0.58,0.7 4.71,6.44 3.48,25.91 3.88,36.06 9.67,0.36 14.65,-6.14 31.86,-6.93 24.06,-1.11 16.03,0.11 27.83,12.08 17.68,17.92 -7.33,41.47 -5.8,55.44 0.98,8.85 10.09,3.26 18.91,9.55 7.26,5.18 8.07,4.03 17.98,5.88 11.98,2.25 5.97,5.5 16.01,7.72 3.67,0.81 7.5,0.67 10.75,1.46 4.06,0.99 4.22,2.12 7.17,4.53 5.81,4.73 11.54,2.73 18.95,4.97 6.89,2.09 6.78,5.96 15.77,7.78 4.21,0.85 6.09,0.81 9.92,2.1 7.97,2.67 16.94,12.92 24.7,4.44 3.84,-4.46 2.87,-16.61 5.84,-21.85 2.44,-4.32 2.65,-2.08 4.92,-8.27 5.09,-13.93 6.43,-12.7 23,-14.86 19.46,-2.54 15.54,2.69 23.72,10.15 4.47,4.07 2.22,0.91 5.64,6.37 4.85,7.73 4.98,1.11 10.38,13.41 7.69,0.3 9.21,1.81 13.45,-2.54 2.13,-2.19 0.57,-1.56 3.85,-4.08l14.74 -11.67c2.59,-1.68 3.33,-1.15 5.46,-2.59 2.59,-1.76 1.28,-2.03 4.55,-4.81l8.65 -7.11c5.49,-5.54 13.92,-10.54 17.35,-17.34 3.53,-6.99 3.94,-2.64 9.91,-7.02 2.88,-2.11 4.02,-4.67 8.54,-7.41l9.6 -7.7c1.78,-1.33 3.82,-1.83 5.12,-2.84 3.79,-2.96 0.21,-1.37 4.2,-5.06 0.18,-0.17 17.92,-8.55 5.96,-19.34 -9.13,-8.25 -4.87,-8.33 -15.03,-19.43 -12.02,-13.15 -5.92,-14.81 -2.03,-28.58 3.37,-11.92 2.07,-7.93 11.95,-12.87 13,-6.5 27.11,-3.13 37.48,-7.92 0.63,-9.67 -2.93,-38.42 -4.3,-48.86 -1.12,-8.54 -4.08,-10.78 -5.72,-20.51 -1.27,-7.54 -1.32,-16.41 -2.75,-23.48 -13.5,-2.41 -27.46,0.29 -40.09,0.99 -0.36,8.41 -0.36,15.9 -0.2,24.31 0.07,3.88 0.02,7.85 0.58,11.69 0.17,1.13 0.97,4.3 1.36,5.37 1.63,4.56 2.28,5.3 0.31,9.88 -6.37,14.8 -12.68,10.63 -29.36,12.03 -2.67,3.41 -3.11,10.21 -5.69,13.63 -2.39,3.19 -3.77,-2.11 -4.13,14.99 -0.3,14.38 -5.12,11.16 -8.43,18.86 -1.83,4.25 -1.52,9.91 -4.94,13.45 -5.34,5.51 -2.03,-3 -4.24,5.98 -2.57,10.46 1.7,9.72 6.19,13.48 3.78,3.19 0.3,0.94 2.84,6.01 4.78,9.49 8.92,1.03 6.95,20.83 -2.58,1.47 -4.19,1.13 -6.43,2.65 -4.15,2.84 -1.4,2.42 -4.73,6.05 -3.43,3.74 -5.31,1.33 -11.89,9.35 -0.17,0.2 -0.42,0.51 -0.59,0.71 -0.17,0.2 -0.44,0.48 -0.62,0.69l-3.96 4.07c-5.93,6.24 -12.48,6.85 -21.32,5.25l-0.48 -8.78c-4.04,-0.15 -4.56,0.7 -6.61,-1.39l-1.8 -4.48c-1.68,-3.51 -5.65,-5.35 -8.48,-7.87l-1.59 -1.48c-0.19,-0.18 -0.54,-0.54 -0.82,-0.79 -0.27,0.3 -0.6,0.4 -0.73,0.97 -0.12,0.55 -0.54,0.72 -0.7,0.93 -8.46,11.23 -23.51,1.99 -32.65,9.9 -3.64,3.15 -1.17,2.22 -6.93,3.13 -9.68,1.52 -20.76,-0.55 -30.37,1.48 -2.72,0.57 -3.49,0.29 -3.68,2.18 -0.06,0.56 -0.29,0.8 -0.36,1.06l-1.61 7.63c-1.96,8.11 -8.92,17.03 -18.28,17.08 -17.69,0.09 -13.62,-8.19 -27.74,-8.72 -4,-0.15 -8.09,-0.05 -12.17,-0.23 -4.93,-15.62 2.21,-29.77 2.36,-44.7 -11.08,-4.84 -6.47,-4.65 -13.26,-10.67l-11.66 -12.14c-9.09,-9.42 -3.45,-6.89 -8.32,-15.31 -4.23,-7.31 -4.58,-2.41 -8.69,-16.09 -9.93,-2.69 -11.3,-2.89 -21.65,-1.16 -17.82,2.97 -25.26,-5.09 -20.62,-20.83z"/>
   <path class="fil0" d="M306.08 808.77c0,18.03 -2.67,38.02 5.06,48.38l311.17 0.23c26.73,-0.04 21.61,-3.11 32.09,6.69l16.76 13.65c9.26,6.66 1.4,4.73 9.5,7.66 6.47,2.34 2.82,-0.47 7.15,4.93 4.38,5.46 15.44,13.36 23.25,8.54 5.11,-3.15 -0.48,-2.04 6.77,-5.09 9.85,-4.15 1.39,-2.18 9.65,-7.64l16.37 -13.76c3.55,-10.31 -21.07,-24.89 -27.79,-31.52 -2.12,-2.09 -3.2,-2.33 -5.22,-4.04 -6.63,-5.59 2,-1.66 -10.07,-9.66 -3.54,-2.35 -3.66,-3.91 -5.53,-5.19 -5.69,-3.89 -1.83,2.47 -11.73,-8.16 -10.91,-11.72 -11.26,-13.95 -30.74,-13.98 -26.32,-0.03 -335.84,-1.4 -340.78,0.69 -2.14,0.9 -5.89,5.75 -5.89,8.27z"/>
   <path class="fil0" d="M337.73 596.81c0.15,45.4 -7.43,38.58 32.99,38.66 4.89,0.01 173.08,1.83 176.07,-1.52 1.58,-1.78 2.5,-39.58 -0.57,-43.04 -3.68,-4.15 -44.44,-2.02 -49.71,-2.02l-154.89 -0.01c-2,3.26 -3.91,3.41 -3.89,7.94z"/>
   <path class="fil0" d="M1592.44 282.84c-8.76,-6.94 -2.77,-4.72 -16.74,-6.43 -12.83,-1.57 -26.84,-19.99 -36.56,-1.08 -3.78,7.35 -3.67,3.28 -5.65,14.05 -1.83,9.96 -2.38,10.68 -6.26,17.72 -3.78,6.85 -2.16,13.18 -4.83,20.35 -2.56,6.88 -5.98,4.16 -7.94,16.83 -4.98,32.22 1.05,24.5 14.94,29.71 3,1.13 5.09,2.64 8.27,3.67 40.12,12.93 26.61,-5.04 39.81,-34.65 2.77,-6.22 2.69,-13.17 5.28,-19.86 4.4,-11.36 10.46,-20.72 9.69,-40.32z"/>
   <path class="fil0" d="M1279.2 452.24l11.78 0.07 11.5 -14.94c11.37,-16.37 35.55,-13.46 -1.51,-42.64 -10.87,-8.56 -11.7,-14.39 -27.72,-25.31 -2.82,-1.92 -10.54,-10.81 -12.94,-13.55 -5.87,-6.72 -8.26,-6.34 -15.68,-10.52 -2.37,1.71 -3.87,3.16 -6,5.65 -3.34,3.89 -2.89,3.33 -6.59,6.7 -2.53,2.3 -3.75,4.08 -6.23,6.97l-8.95 9.6c-8.44,9.63 -5.82,10.07 2.29,20.22l17.4 14.36c1.2,0.81 2.48,2.1 3.51,3.1 2.41,2.36 4.57,4.08 6.75,6.49 4.07,4.49 0.87,2.65 6.38,6.86 13.9,10.61 9.26,10.23 20.49,19.24 2.7,2.17 3.62,4.94 5.52,7.7z"/>
   <path class="fil0" d="M1361.45 280.48c-0.17,2.99 -0.47,7.44 -0.24,10.35 0.5,6.37 5.02,10.2 7.81,26.5 0.63,3.69 0.57,5.56 1.7,8.98 1.5,4.56 2.34,3.95 4.17,7.63 2.44,4.94 2.6,12.39 4.05,18.39 4.69,19.48 4.87,20.89 23.7,17.21 7.05,-1.38 12.83,-1.5 18.44,-4.2l14.27 -8.24c-0.34,-16.24 -7.42,-29.94 -10.67,-45.1 -1.44,-6.73 -3.02,-16.67 -5.32,-22.49 -6.46,-16.38 -1.37,-13.4 -7.87,-21.02 -12.78,-0.69 -16.25,2.3 -25.34,5.02 -6.16,1.84 -20.32,4.68 -24.69,6.96z"/>
   <path class="fil0" d="M485.91 693.19c-7.18,0 -31.41,-0.63 -36.49,0.67 -11.37,2.91 -8.69,17.9 -8.62,34.1l0.14 15.8c9.61,6.43 29.47,3.96 42.32,3.98 17.1,0.02 13.16,-11.06 13.13,-39.65 -0.02,-20.19 -4.97,-14.9 -10.48,-14.89z"/>
   <path class="fil0" d="M550.35 710.74l0.74 33.67c8.35,3.11 43.1,0.69 51.69,0.32l-1.03 -50.23c-56.09,-2.71 -51.4,-5.2 -51.4,16.24z"/>
   <path class="fil0" d="M337.47 735.91c0.06,10.97 0.61,9.38 18.68,9.36 32.99,-0.04 28.17,5.58 28.18,-26.58 0,-5.92 0.56,-13.59 -0.95,-19.06 -1.36,-4.91 0.07,-1.83 -2.07,-4.83l-26.48 -0.13c-20.63,0.02 -17.36,-6.77 -17.36,41.24z"/>
  </g>
  <g>
   <path class="fil1 str0" d="M332.1 10.42l1497.68 0c176.93,0 321.68,144.76 321.68,321.68l0 1537.54c0,176.93 -144.76,321.68 -321.68,321.68l-1497.68 0c-176.93,0 -321.68,-144.76 -321.68,-321.68l0 -1537.54c0,-176.93 144.76,-321.68 321.68,-321.68z"/>
  </g>
 </g>
</svg>
