<?xml version="1.0" encoding="UTF-8"?>
<!DOCTYPE svg PUBLIC "-//W3C//DTD SVG 1.1//EN" "http://www.w3.org/Graphics/SVG/1.1/DTD/svg11.dtd">
<!-- Creator: CorelDRAW -->
<svg xmlns="http://www.w3.org/2000/svg" xml:space="preserve" width="2.16188in" height="2.20173in" version="1.1" style="shape-rendering:geometricPrecision; text-rendering:geometricPrecision; image-rendering:optimizeQuality; fill-rule:evenodd; clip-rule:evenodd"
viewBox="0 0 2161.88 2201.74"
 xmlns:xlink="http://www.w3.org/1999/xlink"
 xmlns:xodm="http://www.corel.com/coreldraw/odm/2003">
 <defs>
  <style type="text/css">
   <![CDATA[
    .str0 {stroke:#856443;stroke-width:20.83;stroke-miterlimit:2.61313}
    .fil1 {fill:none}
    .fil0 {fill:#856443}
   ]]>
  </style>
 </defs>
 <g id="Layer_x0020_1">
  <metadata id="CorelCorpID_0Corel-Layer"/>
  <g id="_1338776694576">
   <path class="fil0" d="M1497.46 979.11c-6.09,-1.18 -0.41,-2.17 -12.39,-5.54 -8.87,-2.49 -10.56,-7.83 -21.91,-10.15 -8.13,-1.45 -4.35,-4.19 -11.33,-5.64 -5.23,-1.09 -8.96,-1.38 -13.05,-4.19 -7.16,-4.91 -15.44,-2.22 -24.48,-8.72 -6.04,-4.34 -11.38,-3.32 -17.19,-7.83 -7.28,-5.67 -14.51,-3.05 -20.63,-7.83 -2.47,-1.93 0.24,-0.48 -2.66,-2.04 -1.16,-0.62 -6.19,-2.04 -7.11,-2.28 -8.61,-2.25 -5.76,-3.17 -11.3,-5.48 -6.93,-2.89 -7.04,0.21 -11.33,3.17 -3.3,2.27 -7.78,2.78 -11.59,5.04 -12.93,7.65 -3.75,4.44 -18.54,6.64 -13.54,2.01 -10,4.29 -27.99,-0.83 -10.45,-2.97 -3.89,-7.77 -18.32,-7.67 -5.45,7.29 3.35,3.3 -6.95,8.03 -7.11,3.26 -1.87,4.41 -8,7.41l-9.47 6.08c-4.16,3.87 -6.15,2.08 -9.22,6.29l-17.91 12.57c-17.11,4.83 -9.59,6.58 -22.96,8.99 -3.79,0.68 -10.07,1.19 -13.52,2.06 -12.33,3.13 -24.05,7.69 -39.56,1.26 -12.83,-5.31 -12.74,-0.8 -27.39,-10.37 -6.25,-4.09 -8.7,-4.21 -14.55,-10.44l-9.3 -13.36c-1.39,-2.39 -1.99,-2.41 -3.54,-4.67 -3.4,-4.97 -4.78,-13.84 -9.15,-21.62 -5.13,-9.16 -9.26,-42.02 -9.24,-54.11 0.01,-4.87 -0.19,-10.63 0.2,-15.42 0.5,-5.96 1.77,-7.67 3.59,-11.98 1.58,-3.75 2.03,-8.38 3.4,-12.02 2.25,-5.96 3.33,-5.17 6.21,-10.4l6.44 -9.13c3.43,-3.69 2.9,-5.7 6.15,-9.28 5.96,-6.58 9.19,-10.22 14.15,-17.69 2.13,-3.2 4.3,-4.86 7.05,-8.39 9.88,-12.73 15.99,-9.01 3.92,-34.58 -1.92,-4.06 -3.04,-13.48 -5.24,-18.54 -2.13,-4.87 -3.82,-5.04 -5.13,-10.15 -2.48,-9.6 -2.77,-16.04 -6.6,-25.47 -3.1,-7.63 -3.02,-17.78 -5.91,-25.02l-5.54 -16.64c-4.4,-10.74 -7.27,-19.08 -8.24,-31.31 -0.52,-6.55 -1.51,-7.46 -4.27,-11.98 -4.5,-7.38 -2.98,-16.56 -6.62,-24.29 -2.19,-4.67 -2.84,-4.53 -4.47,-11.05 -0.85,-3.43 -2.31,-8.52 -3.64,-11.68 -1.27,-3.03 -1.25,-2.03 -2.53,-4.53 -3.39,-6.63 -3.37,-9.64 -7.67,-15.98 -4.18,-6.16 -7.76,-14.42 -12.25,-19.71 -3.69,-4.36 -3.96,-3.43 -6.96,-8.39 -2.79,-4.61 -3.67,-3.89 -7.17,-8.23l-30.33 -32.57c-2.72,-2.68 -5.57,-3.67 -8.76,-6.56 -7.71,-6.98 0.91,-1.82 -9.12,-7.04 -5.2,-2.7 -2.82,-4.35 -8.65,-6.6 -7.54,-2.9 -4.8,-0.13 -10.67,-5.22 -3.13,-2.71 -6.06,-3.55 -10.16,-4.57 -9.13,-2.27 -3.98,-1.78 -10.11,-5.73 -5.24,-3.36 -18.92,-2.87 -25.65,-4.83 -11.67,-3.41 -27.32,-5.78 -41.72,-3.58l-7.41 2.6c-1.49,0.96 -0.89,0.88 -3.17,1.78 -7.39,2.89 -20.57,2.19 -26.92,4.16 -6.15,1.91 -1.86,3.09 -9.76,5.56 -10.35,3.24 -12.99,4.83 -22.24,9.53l-1.51 0.8c-3.58,2.14 -3.4,3.46 -7.91,5.31 -5.74,2.36 -5.6,1.22 -9.35,5.43 -1.7,1.91 -1.6,2.26 -3.35,3.81 -5.54,4.96 -12.34,7.57 -17.17,13.44l-4.59 4.19c-6.09,4.72 -9.34,11.81 -14.16,16.51l-28.82 49c-1.3,5.25 -0.69,10.11 -3.31,13.69 -2.8,3.83 -3.84,1.76 -5.09,9.69 -0.81,5.15 -1.1,8.57 -1.9,13.72 -3.18,20.68 -8.84,25.51 -5.16,56.5 1.05,8.85 2.06,17.67 4.8,25.96 0.93,2.85 0.68,0.89 1.67,5.35 2.61,11.66 3.56,8.34 6.48,17.2 6.46,19.55 7.36,15.09 9.72,22.12 2.67,7.93 6.36,13.61 9.97,20.87 2.09,4.2 4.06,4.78 6.33,9.1 5.37,10.24 12.08,18.48 17.91,28.37 3.1,5.27 3.79,3.76 6.83,8.56 1.38,2.16 1.44,2.96 3.18,5.06 1.29,1.56 2.41,2.34 3.94,4.35l7.15 8.28c3.08,4.12 2.66,5.24 6.37,8.97l12.88 18.42c1.41,3.07 5.1,5.05 7.07,8.25 3.57,5.81 3.76,2.42 7.9,7.16l11.36 12.3c2.35,2.43 2.2,1.73 4.33,3.94 1.62,1.69 1.64,2.21 3.29,3.8l29.35 25.95c5.98,2.92 7.48,6.46 12.91,9.71l14.83 9.13c3.87,3.2 5.05,3.84 12.5,2.35 0.86,-7.41 0.49,-11.5 -2.28,-16.29 -6.38,-11.02 1.61,-5.35 -9.17,-21.5 -1.35,-2.02 -2.29,-4.49 -3.61,-7.02 -1.51,-2.87 -1.94,-4.28 -3.46,-7.2 -1.38,-2.64 -2.12,-3.54 -3.75,-7.11l-7.72 -12.51c-2.22,-4.42 -2.23,-6.25 -5.72,-9.17 -4.96,-4.15 -9.95,-12.2 -14.66,-16.19 -7.28,-6.17 -8.47,-9.28 -5.67,-15.65 3.43,-7.8 8.57,-12.88 14.96,-18.55 5.69,-5.05 7.09,-6.89 14.73,-10.49 10.56,5.42 8.48,6.95 15.72,14.22 4.54,4.57 11.49,11.4 14.81,16.01 3.98,5.52 7.31,12.7 11.76,17.87l11.27 19.79c3.31,8.73 7.42,11.04 9.42,20.28 1.98,9.14 1.32,4.89 4.91,10.12 2.22,3.24 1.17,8.81 7.74,21.93 3.37,6.75 2.7,17.32 6.36,24.38 4.18,8.08 6.8,13.04 0.63,21.43l-3.04 3.93c-1.95,1.52 -3.13,1.08 -5.98,2.11 -5.69,2.05 -3.97,4.35 -8.66,6.86 -2.91,1.55 -2.75,0.59 -5.31,1.8 -6.62,3.09 -0.63,0.62 -4.41,4.06 -2.72,2.46 -6,2.06 -9.53,4.63 -3.09,2.25 -4.78,5.11 -8.45,6.81 -4.11,1.9 -5.33,4.14 -9.35,6.18l-9.36 6.07c-4.98,4.54 -9.17,2.74 -14.81,7.8l-29.24 24.02c-5.2,5.27 -7.88,5.43 -12.4,10.08 -6.01,6.19 -7.59,1.93 -10.56,13.06 3.91,5.52 9.19,9.97 14.68,13.54 7.28,4.73 31.37,29.81 45.84,39.5 3.53,2.36 15.29,12.06 15.89,18.21l-0.39 4.56c-0.66,4.04 -4.64,5.87 -7.4,9.41 -16.57,21.16 -19.03,27.01 -38.6,7.92 -0.19,-0.18 -0.43,-0.43 -0.61,-0.63 -11.31,-11.71 -26.35,-20.31 -38.32,-31.5 -8.7,-8.14 -23.11,-23.27 -33.8,-28.63 -10.67,7.91 -11.12,4.72 -25.76,7.52 -4.86,0.93 -6.7,3.23 -11.16,5.13 -5.13,2.19 -8.32,1.83 -13.18,3.53l-10.99 5.6c-6.48,2.3 -5.93,1.21 -11.44,4.98l-14.43 10.26c-2.43,2.02 -3.66,2 -6.48,3.16 -5.41,2.24 -5.42,4.14 -10.14,6.55 -9.31,4.75 -2.66,2.07 -9.05,7.34 -8.79,7.26 -32.52,26.92 -38.88,35.69 -3.54,4.88 -8.44,8.72 -12.9,13.22 -3.33,3.36 -3.67,7.29 -6.44,10.12 -4.71,4.78 -2.82,4.95 -6.51,10.12 -4.2,5.89 -10.9,12.41 -13.65,19.55 -2.72,7.07 -4.03,6.43 -7.22,12.97 -1.06,2.16 -0.36,0.74 -1.25,3.55 -2.14,6.8 -6.41,8.44 -8.5,16.1 -2.01,7.38 -2.32,6.93 -5.28,12.55 -3.33,6.31 -4.54,17.26 -8.17,24.94 -2.91,6.13 -1.5,6.67 -2.8,13.84l-3.82 20.59c-0.58,5.15 -0.69,2.97 -1.65,6.8 -0.83,3.31 -1.62,10.92 -1.74,14.51 -0.49,14.86 -1.78,33.65 3.07,47.33 1.94,5.46 1,8.78 1.83,15.07 0.54,4.06 1.51,9.04 2.28,14.22 1.74,11.6 4.9,9.23 7.85,24.98 3.33,17.78 9.43,8.56 10.48,40.63 0.76,23.06 -0.45,42.45 -3.08,63.35 -1.52,12.05 -3.54,17.15 -5.65,27.62 -2.03,10.04 -2.01,20.09 -2.19,32.29 -0.09,6.42 -0.89,10.11 2.24,14.43l9.88 12.61c2.65,3.29 2.76,2.1 4.47,6.22 1.73,4.19 -0.23,1.57 2.99,5.29l12.87 20.35c3.12,7.3 10.93,21.67 15.48,27.13 3.82,4.57 0.76,0.17 3.08,5.07 3.59,7.57 12.04,16.44 17.09,24.56l8.64 9.1c3.4,3.69 26.33,17.56 30.54,19.09 2.46,0.9 3.79,1.06 6.29,1.97 0.82,0.3 2.5,1.05 3.33,1.43 2.65,1.21 -0.68,0.36 2.82,1.31 7.85,-6.15 8.1,-6.72 11.63,-18.02 5.15,-16.5 14.12,-31.51 16.7,-47.75 1.33,-8.36 1.63,-5.79 4.54,-10.87 2.43,-4.24 1.97,-8.78 3.1,-13.68 1.75,-7.61 5.13,-4.16 7.89,-22.88 0.81,-5.48 1.73,-7.54 3.52,-11.89 1.32,-3.22 0.94,-2.26 2.12,-6.34 6.03,-21.05 4.74,-42.34 3.55,-65.78 -0.42,-8.18 -1.22,-20.13 -2.59,-28.04 -0.71,-4.12 -1,-8.95 -2.13,-13.24 -4.54,-17.3 -3.89,-39.7 -9.44,-54.64 -3.06,-8.22 -3.49,-18.09 -5.16,-26.79 -1.59,-8.27 -5.41,-14.74 -7.01,-24.72 -0.8,-4.94 -0.35,-11.26 -1.78,-15.05 -4.22,-11.24 -5.43,-9.5 -7.09,-24.53 -1.46,-13.31 -5.76,-11.98 -5.76,-26.29 3,-2.59 5.26,-4.02 10.1,-5.02 15.41,-3.21 18.25,-9.44 37.95,-7.67 15.26,20.32 6.37,27.45 12.73,40.44 6.28,12.85 4.74,13.76 6.34,29.04 0.72,6.85 1.48,8.47 4.06,13.87 5.06,10.58 0.52,31.13 8.26,40.44 0.6,0.72 1.84,2.17 1.99,2.5 1.85,4.04 0.72,11.52 1.35,16.38 0.71,5.5 0.48,11.21 1.39,16.46 1.09,6.25 2.7,7.75 4.01,13.74 4.98,22.91 1.69,13.19 3.68,31.66 0.5,4.73 0.49,11.31 1.06,16.79 0.77,7.37 3.26,5.79 3.52,14.1 0.35,11.45 1.65,22.93 0.35,33.48 -1.4,11.54 -4.99,18.12 -5.3,30.55 -0.13,5.61 0.07,12.3 2.86,15.6 5.68,6.69 2.56,3.44 6.17,11.45 2.66,5.89 4.84,3.07 6.86,10.78 2.2,8.43 1.39,5.63 5.74,12.2 2.55,3.86 2.11,9.16 3.09,14.74l3.67 9.43c4.56,6.38 4.53,25.55 5.04,34.87 0.65,11.94 0.47,22.67 1.63,34.22l3.31 32.21c9.35,3.38 8.31,-2.8 13.57,-5.56 2.5,-1.31 5.49,-0.94 8.48,-2.29 2.83,-1.27 2.06,-2.34 6.34,-4.22 4.58,-2.02 14.37,-2.99 17.09,-4.44 2.35,-1.27 0.64,-1.95 6.59,-3.86 2.67,-0.86 5.1,-1.46 8.57,-2.04 19.38,-3.21 17.69,-5.96 34.68,-8.02 7.04,-0.85 12.56,-1.09 19.59,-1.87 18.66,-2.06 23.54,-7.14 57.04,-7.62 7.67,-0.11 13.24,-0 19.96,-1.49 20.12,-4.46 36.61,-5.37 58.25,-5.48l63.95 -1.15c20.22,0.11 14.41,2.81 14.56,-50.42 0.07,-23.93 -0.74,-47.5 4.69,-69.84 2.33,-9.62 2.9,-50.84 5.74,-70.26 1.17,-8.03 3.31,-10.46 3.97,-17.53l4.56 -59.27c0.3,-10.57 3.33,-8.89 3.54,-18.87 0.6,-27.97 1.33,-55.26 1.29,-84.2 -0.02,-10.48 -0.43,-32.24 -2.01,-40.81 -0.76,-4.13 -3.15,-14.3 -2.71,-18.34 0.59,-5.32 4.02,-6.75 7.49,-8.57 0.25,-0.13 0.57,-0.28 0.81,-0.42 8.88,-4.88 38.62,-4.65 41.88,-2.61 0.74,0.46 4.14,3.72 5.03,5.41 4.57,8.71 3.04,155.23 -0.52,177.53 -1.02,6.33 -2.67,10.64 -3.62,17.59 -1.7,12.4 -1.89,27.91 -2.09,40.89 -0.37,23.63 -5.97,27.97 -6.69,36.67 -1.55,18.63 -1.17,40.88 -5.07,59.01 -1.65,7.69 -1.69,10.7 -2.19,20.44 -0.69,13.3 -3.88,75.19 0,84.2 6.7,2.66 25.57,1.1 34.71,3.36 11.45,2.82 20.46,4.69 32.83,4.91 6.03,0.1 13.4,0.19 18.06,1 7.4,1.28 8.5,2.12 14.42,4.35 8.74,3.3 25.85,2.17 33.84,5.26l14.2 4.68c7.55,2.11 16.59,0.73 23.52,5 7.01,4.32 15.15,4.21 23.79,5.69 7.94,1.35 7.88,3.16 13.91,5.17 7.79,2.61 15.82,1.78 22.9,5.59 6.74,3.63 15.52,5.26 24.96,4.8 1.79,-4.81 1.21,-0.64 2.35,-7.21 0.75,-4.33 0.84,-5.22 2.49,-8.2 2.6,-4.68 5.61,-8.98 6.44,-14.57 1.32,-9.04 3.63,-8.15 5.74,-15.72 1.99,-7.15 1.39,-10.82 4.53,-16.83 5.81,-11.11 3.7,-21.75 8.31,-33.16 1.78,-4.39 3.52,-12.04 4.54,-16.76 1.25,-5.75 0.85,-12.82 2.5,-18.96 1.58,-5.91 3.9,-9.03 4.97,-15.02 2.28,-12.76 2.22,-25.7 5.94,-36.89 1.8,-5.4 3,-11.28 3.67,-17.3 0.75,-6.66 0.31,-14.96 1.52,-20.2 1.47,-6.31 3.37,-9.59 4.5,-16.76l13.2 -81.57c6.24,-18.12 2.63,-7.28 5.32,-26.73 1.74,-12.52 7.3,-20.6 8.68,-33.46 1.94,-18.33 2.94,-13.67 6.08,-26.43 0.93,-3.78 1.3,-4.7 1.58,-9.12 0.89,-13.63 5.91,-19.4 8.64,-32.63 1.53,-7.4 0.48,-11.92 3.24,-18.29 4.2,-9.67 3.61,-24.19 7.3,-35.34 2.14,-6.49 4.26,-6.15 5.17,-15.78 0.72,-7.63 0.67,-12.77 2.55,-19.03 6.47,-21.54 5.7,-32.57 11.11,-51.65 3.05,-10.74 2.66,-28.18 6.44,-36.35 2.69,-5.81 4.19,-8.67 4.97,-16.11 1.06,-10.16 3.49,-8.01 6.19,-15.28 2.22,-5.97 0.47,-12.59 4.49,-16.97 4.09,-4.48 2.24,1.48 4.43,-6.67 1,-3.7 1.12,-4.76 3.26,-6.95 2.35,-2.41 2.55,-1.56 4.47,-5.15 1.64,-3.05 1.6,-5.1 2.78,-8 1.78,-4.41 2.27,-2.54 4.38,-6.14 2.54,-4.33 1.03,-4.49 2.2,-8.93 1.5,-5.72 0.53,-1.37 4.54,-5.55 2.61,-2.72 2.1,-3.44 4.21,-6.52 10.19,-14.85 6.48,-17.63 12.65,-29.98 1.8,-3.61 1.61,-2.06 3.15,-7.48 0.78,-2.74 1.27,-5.94 2.18,-8.54 2.43,-6.98 4.1,-3.28 6.83,-14.32l12.8 -28.8c3.65,-5.49 2.63,-10.64 5.63,-15.79 1.99,-3.42 3.11,-3.01 4.64,-5.9 1.46,-2.76 1.37,-5.12 2.7,-8.05 1.22,-2.7 2.74,-4.05 4.08,-6.59 1.22,-2.31 2.26,-5.25 3.24,-7.38 1.13,-2.43 2,-5.26 3.26,-7.4l11.13 -20.72c2.18,-4.44 3.35,-11.62 6.07,-15.39 3.85,-5.36 2.83,-10.22 5.24,-16.19 2.5,-6.17 3.97,-4.67 6.1,-14.28 3.35,-15.12 6.17,-13.76 10.03,-32.53 1.59,-7.69 4.08,-8.57 5.78,-15.54 1.4,-5.76 1.19,-13.07 2.48,-18.94 1.42,-6.44 5.07,-9.72 9.38,-32.84 1.36,-7.31 3.85,-10.29 4.88,-16.28 2.95,-17.07 4.92,-79.42 -1.06,-97.77 -0.96,-2.93 -2.22,-4.47 -3.47,-7.1 -2.78,-5.85 -0.93,-10.84 -8.06,-13.13 -7.94,-2.56 -15.02,-6.57 -23.76,-8.15 -12.69,-2.28 -21.09,-6.3 -34.14,-7.2 -21.06,-1.47 -64.28,-4.13 -83.5,3.99 -9.74,4.12 -22.45,3.01 -32.17,5.94 -6.06,1.83 -7.12,4.03 -14.88,5.24 -3.51,0.55 -6.16,0.83 -8.41,1.96 -10.98,5.55 -1.76,5.78 -23.27,8.5 -6.67,0.85 -9.33,4.41 -15.59,5.96 -8.13,2.02 -9.84,0.65 -16.17,5.13 -6.57,4.65 -8.26,2.75 -16.46,5.02 -5.91,1.63 -4.17,4.89 -14.61,6.69 -8.96,1.56 -9.16,1.56 -15.48,5.75 -6.1,4.05 -9.07,2.15 -15.7,4.65 -5.94,2.24 -7.02,4.59 -14.97,6.43 -8.8,2.03 -7.82,4.1 -14.67,6.57 -5.51,1.98 -9.95,2.83 -15.17,5.93 -5.99,3.55 -9.04,3.17 -15.67,5.68 -6.87,2.61 -4.86,4.42 -14.8,6.58 -10.13,2.2 -8.15,4.59 -14.22,6.92 -6,2.31 -9.97,0.78 -16.86,4.62 -4.33,2.42 -1.45,1.56 -6.9,2.94 -3.8,0.96 -4.59,1.25 -7.97,2.44 -5.67,1.99 -8.29,5.45 -14.07,7.06 -8.35,2.33 -9.45,-0.09 -17.56,4.06 -4.99,2.57 -11.23,3.3 -16.14,5.3 -5.21,2.12 -8.14,5.82 -14.08,7.14 -8.32,1.84 -8.57,2.38 -14.91,6.19 -5.31,3.19 -9.78,2.13 -14.96,6.31 -7.53,6.09 -5.83,3.21 -14.51,6.76 -5.26,2.15 -0.8,1.13 -5.96,3.7 -5.85,2.89 -8.69,3.35 -14.3,7.06 -2.35,1.56 -5.01,2.35 -7.35,3.51 -9.07,4.49 -20.5,17.37 -28.49,24.47l-6.73 6.37c-0.26,0.23 -1.06,0.82 -1.31,1.05 -2.9,2.6 -0.91,0.48 -2.6,3.13 -3.02,4.7 -6.42,7.31 -9.01,12.38 -4.38,8.56 -13.81,14.54 -17.45,23.95 -5.09,13.15 -6.97,3.55 -6.87,25.05 0.12,27.12 6.18,23.02 7.2,35.54 1.06,12.87 2.25,8.24 5.81,15.49 5.2,10.59 5.52,6.53 15.42,10.38 4.76,1.85 0.64,0.88 3.94,1.8 11.56,3.2 23.64,-3.5 34.24,-5.8 6.52,-1.41 3.67,0.46 7.64,-3.11 3.82,-3.45 9.22,-4.74 12.92,-8.4 3.89,-3.85 0.59,-1.48 5.94,-4.66l12.25 -9.15c3.07,-2.02 3.39,-2.44 5.73,-4.89 4.82,-5.06 1.74,-1.43 6.47,-4.29l11.29 -10.05c3.16,-2.73 4.03,-2.19 6.45,-4.23 2.4,-2.02 2.19,-3.54 4.66,-5.89 2.48,-2.35 3.52,-1.93 6.02,-4.61 9.95,-10.69 14.98,-10.54 24.23,0.95 3.35,4.16 6.59,5.68 9.69,10.5 9.63,14.99 17.48,6.13 26.75,-2.93l20.15 -28.37c1.37,-2.65 1.43,-4.33 2.68,-6.8 1.62,-3.18 2.83,-3.2 4.49,-6.12 2.3,-4.04 2.53,-9.83 4.88,-14.11 1.92,-3.48 1.96,-1.75 3.35,-6.05 1.22,-3.79 1.15,-4.71 2.55,-8.13l10.06 -18.41 20.5 -18.8c3.05,-2.05 1.6,-2.89 5.91,-4.77 4.46,-1.95 10.24,-2.63 15.02,-5.08 4.79,-2.46 11.07,-2.81 17.42,-3.33 5.78,-0.47 9.29,-1.48 16.5,-2.11 23.14,-2.03 75.9,-0.48 93.33,-4.96 6.23,-1.61 11.28,-0.42 17.74,-1.48l67.09 -10.72c5.57,-1.81 5.18,-4.09 14.11,-5.92 5.04,-1.03 9.78,-2.06 13.96,-4.87 7.46,-5.02 7.66,-2.32 15.43,-4.96 7.8,-2.66 2.5,-4.85 12.76,-7.32 12.12,-2.92 10.6,-12.41 22.97,-2.27 5.38,4.41 2.04,4.7 4.93,10.7 1.35,2.8 3.58,4.76 5.52,8.72 10.07,20.58 4.44,21.02 -8.78,26.8 -4.88,2.13 -3.79,3.29 -8.47,5.64 -3.36,1.69 -7.82,2.64 -10.72,4.64 -4.53,3.14 -1.77,3.43 -9.2,5 -4.65,0.98 -8.91,1.17 -13.16,2.62 -4,1.37 -4.63,3.06 -10.18,4.2 -18.12,3.74 -12.29,4.29 -21.58,7.62 -3.25,1.17 -9.65,1.55 -13.44,2.09 -4.03,0.58 -7.18,1.46 -12.28,1.91 -6.81,0.61 -6.93,1.3 -12.35,3.01 -11.88,3.77 -26.36,-0.83 -33.43,10.1l-10.37 19.22c-2.29,4.58 -3.79,4.25 -6.21,9.16 -2.5,5.06 -2,4.62 -5.44,8.87 -3.61,4.46 -2.53,5.52 -4.47,10.94l-29.8 43.66c-3.3,4.06 -0.83,5.56 -5.02,10.46 -4.57,5.35 -11.86,11.24 -11.21,19.26 4.94,2 9.11,3.06 13.73,6.48 7.87,5.83 17.68,8.94 26.14,13.96 2.88,1.71 3.1,2.67 6,4.75 3.31,2.37 4.2,1.89 6.96,3.56 2.96,1.78 2.15,2.2 5.28,4.15 3.13,1.95 4.78,1.67 7.61,3.07 4.5,2.22 11.96,11.13 25.32,14.95 4.96,1.42 3.87,0.65 6.56,4.46 5.27,7.48 2.94,9.87 -1.62,17.13 -2.14,3.41 -3.78,6.42 -6.06,9.43 -3.57,4.68 -6.53,16.41 -14.24,16.55l-17.83 -9.34c-3.58,-2.92 -2.54,-3.18 -7.51,-4.9 -7.74,-2.67 -3.86,-2.04 -8.98,-5.71l-8.65 -4.67c-5.98,-5.15 -10.61,-5.39 -15.91,-9.99 -3.42,-2.96 -0.26,-0.43 -4.05,-2.54 -5.48,-3.06 -1.96,1.05 -4.58,-4.02zm-480.84 94.36c-1.61,-1.47 -0.19,1.13 -1.43,-2.46 -1.87,-5.45 -3,-14.29 -1.83,-19.86 1.33,-6.43 3.48,-6.76 10.27,-7.68l5.68 -1.24c15.82,-5.78 8.05,-6.26 14.02,-17.65 4.38,-8.35 3.49,-10.51 5.25,-20.73 1.63,-9.45 6.8,-5.04 6.98,-19.04 -13.69,-2.52 -16.2,3.22 -21.68,-7.81 -4.56,-0.25 -11.88,-1.45 -15.17,1.5l-6.17 9.54c-3.07,8.29 -0.85,16.66 -11.62,19.78 -7.8,2.26 -20.47,0.02 -28.22,2.7 -10.69,3.69 -3.92,12.7 -3.08,22.96 0.8,9.87 -0.33,20.16 1.86,29.3 2.78,11.62 4.42,3.44 6.5,25.33 0.44,4.54 -0.17,10.79 0.87,14.94 0.38,1.52 1.44,3.43 2.37,4.67 1.34,1.8 0.29,0.22 1.61,1.9 0.15,0.19 0.39,0.44 0.52,0.63 4.21,5.76 3.11,23.18 3.47,32.26 8.65,0.33 13.11,-5.49 28.51,-6.19 21.52,-0.99 14.33,0.1 24.89,10.81 15.81,16.03 -6.56,37.1 -5.19,49.59 0.87,7.92 9.03,2.92 16.91,8.54 6.49,4.63 7.22,3.6 16.08,5.26 10.72,2.01 5.34,4.91 14.32,6.91 3.28,0.73 6.71,0.6 9.61,1.3 3.63,0.89 3.78,1.9 6.42,4.05 5.2,4.24 10.32,2.45 16.95,4.45 6.17,1.87 6.06,5.33 14.11,6.95 3.77,0.76 5.44,0.73 8.88,1.88 7.13,2.39 15.15,11.56 22.1,3.97 3.44,-3.99 2.57,-14.86 5.22,-19.55 2.18,-3.87 2.37,-1.86 4.4,-7.4 4.55,-12.46 5.74,-11.36 20.58,-13.3 17.41,-2.27 13.9,2.4 21.22,9.07 4,3.64 1.99,0.81 5.05,5.7 4.33,6.91 4.46,0.99 9.28,11.99 6.88,0.26 8.24,1.62 12.04,-2.27 1.91,-1.96 0.5,-1.39 3.44,-3.65l13.19 -10.44c2.31,-1.5 2.98,-1.02 4.88,-2.31 2.32,-1.57 1.15,-1.81 4.07,-4.3l7.74 -6.36c4.91,-4.95 12.46,-9.43 15.53,-15.52 3.15,-6.25 3.53,-2.36 8.86,-6.28 2.58,-1.88 3.6,-4.18 7.64,-6.63l8.59 -6.89c1.59,-1.19 3.42,-1.63 4.58,-2.54 3.39,-2.65 0.19,-1.23 3.76,-4.53 0.16,-0.15 16.03,-7.64 5.33,-17.3 -8.17,-7.38 -4.35,-7.46 -13.44,-17.39 -10.76,-11.76 -5.3,-13.24 -1.81,-25.56 3.01,-10.67 1.85,-7.09 10.69,-11.51 11.63,-5.81 24.25,-2.8 33.52,-7.08 0.56,-8.65 -2.62,-34.37 -3.85,-43.71 -1,-7.64 -3.65,-9.64 -5.11,-18.35 -1.13,-6.74 -1.18,-14.69 -2.46,-21 -12.07,-2.15 -24.57,0.26 -35.86,0.88 -0.32,7.52 -0.32,14.22 -0.18,21.74 0.06,3.47 0.02,7.02 0.52,10.46 0.15,1.01 0.87,3.84 1.21,4.81 1.46,4.08 2.04,4.74 0.28,8.84 -5.69,13.24 -11.34,9.51 -26.26,10.76 -2.38,3.05 -2.78,9.14 -5.09,12.2 -2.14,2.85 -3.37,-1.89 -3.69,13.41 -0.27,12.87 -4.58,9.99 -7.54,16.87 -1.63,3.8 -1.37,8.87 -4.43,12.03 -4.78,4.93 -1.81,-2.68 -3.79,5.35 -2.3,9.35 1.52,8.7 5.54,12.06 3.38,2.85 0.26,0.84 2.54,5.37 4.27,8.49 7.98,0.93 6.22,18.63 -2.31,1.32 -3.75,1.01 -5.75,2.37 -3.72,2.54 -1.26,2.17 -4.23,5.42 -3.07,3.34 -4.75,1.19 -10.63,8.36 -0.16,0.19 -0.38,0.46 -0.54,0.64 -0.15,0.18 -0.39,0.43 -0.55,0.61l-3.55 3.64c-5.31,5.58 -11.16,6.12 -19.07,4.7l-0.43 -7.85c-3.61,-0.13 -4.08,0.63 -5.92,-1.25l-1.6 -4.01c-1.5,-3.14 -5.06,-4.79 -7.59,-7.04l-1.43 -1.33c-0.17,-0.16 -0.48,-0.48 -0.73,-0.7 -0.24,0.27 -0.54,0.36 -0.65,0.87 -0.11,0.49 -0.49,0.64 -0.63,0.83 -7.57,10.04 -21.04,1.78 -29.21,8.85 -3.26,2.81 -1.04,1.98 -6.2,2.8 -8.66,1.36 -18.57,-0.49 -27.17,1.32 -2.43,0.51 -3.12,0.26 -3.29,1.95 -0.05,0.5 -0.26,0.72 -0.32,0.95l-1.44 6.83c-1.75,7.26 -7.98,15.23 -16.36,15.28 -15.82,0.09 -12.19,-7.32 -24.82,-7.8 -3.57,-0.14 -7.24,-0.04 -10.89,-0.2 -4.41,-13.98 1.98,-26.63 2.11,-39.99 -9.91,-4.33 -5.79,-4.15 -11.86,-9.54l-10.43 -10.85c-8.13,-8.43 -3.08,-6.17 -7.44,-13.7 -3.79,-6.54 -4.09,-2.15 -7.77,-14.39 -8.89,-2.41 -10.11,-2.59 -19.37,-1.04 -15.94,2.65 -22.6,-4.56 -18.45,-18.63z"/>
   <path class="fil0" d="M387.76 930.25c0,16.13 -2.38,34.02 4.52,43.28l278.36 0.21c23.91,-0.04 19.34,-2.78 28.7,5.98l14.99 12.21c8.29,5.96 1.26,4.24 8.5,6.85 5.79,2.09 2.52,-0.42 6.39,4.41 3.92,4.89 13.81,11.95 20.8,7.64 4.57,-2.82 -0.43,-1.82 6.05,-4.56 8.81,-3.72 1.24,-1.94 8.63,-6.84l14.64 -12.3c3.18,-9.23 -18.85,-22.26 -24.86,-28.2 -1.89,-1.87 -2.86,-2.09 -4.67,-3.61 -5.93,-5 1.79,-1.49 -9.01,-8.64 -3.17,-2.1 -3.28,-3.5 -4.94,-4.64 -5.09,-3.48 -1.63,2.21 -10.49,-7.3 -9.76,-10.48 -10.07,-12.48 -27.5,-12.5 -23.54,-0.03 -300.44,-1.26 -304.86,0.61 -1.91,0.81 -5.27,5.15 -5.27,7.4z"/>
   <path class="fil0" d="M416.08 740.64c0.14,40.61 -6.65,34.51 29.51,34.58 4.37,0.01 154.83,1.64 157.5,-1.36 1.42,-1.59 2.24,-35.41 -0.51,-38.5 -3.3,-3.71 -39.76,-1.81 -44.47,-1.81l-138.56 -0.01c-1.79,2.91 -3.5,3.06 -3.48,7.1z"/>
   <path class="fil0" d="M1538.52 459.77c-7.84,-6.21 -2.48,-4.23 -14.97,-5.75 -11.48,-1.4 -24.02,-17.88 -32.71,-0.96 -3.38,6.57 -3.28,2.94 -5.06,12.57 -1.64,8.91 -2.13,9.56 -5.6,15.85 -3.38,6.13 -1.93,11.79 -4.32,18.2 -2.29,6.15 -5.35,3.72 -7.11,15.05 -4.45,28.82 0.94,21.92 13.37,26.58 2.69,1.01 4.56,2.37 7.4,3.28 35.9,11.57 23.81,-4.51 35.61,-31 2.48,-5.56 2.41,-11.78 4.72,-17.76 3.93,-10.16 9.36,-18.53 8.67,-36.06z"/>
   <path class="fil0" d="M1258.3 611.3l10.53 0.07 10.3 -13.37c10.17,-14.65 31.8,-12.04 -1.35,-38.15 -9.72,-7.66 -10.46,-12.88 -24.8,-22.64 -2.52,-1.72 -9.43,-9.67 -11.57,-12.12 -5.26,-6.01 -7.39,-5.67 -14.03,-9.41 -2.12,1.53 -3.46,2.83 -5.37,5.05 -2.98,3.48 -2.59,2.98 -5.89,5.99 -2.26,2.06 -3.35,3.65 -5.57,6.24l-8.01 8.59c-7.55,8.61 -5.2,9.01 2.05,18.09l15.57 12.85c1.07,0.73 2.22,1.87 3.14,2.78 2.16,2.11 4.09,3.65 6.04,5.8 3.64,4.02 0.78,2.37 5.71,6.13 12.43,9.5 8.28,9.15 18.32,17.21 2.42,1.94 3.24,4.43 4.94,6.89z"/>
   <path class="fil0" d="M1331.88 457.66c-0.15,2.67 -0.42,6.66 -0.22,9.26 0.45,5.7 4.49,9.13 6.99,23.7 0.57,3.3 0.51,4.97 1.52,8.03 1.35,4.08 2.09,3.54 3.72,6.83 2.19,4.42 2.33,11.08 3.62,16.45 4.2,17.43 4.35,18.69 21.2,15.4 6.3,-1.23 11.47,-1.34 16.5,-3.76l12.76 -7.37c-0.31,-14.54 -6.64,-26.78 -9.54,-40.35 -1.29,-6.02 -2.71,-14.91 -4.76,-20.12 -5.78,-14.65 -1.22,-11.98 -7.04,-18.8 -11.44,-0.61 -14.54,2.06 -22.67,4.49 -5.51,1.65 -18.18,4.19 -22.09,6.23z"/>
   <path class="fil0" d="M548.64 826.86c-6.42,0 -28.1,-0.57 -32.65,0.59 -10.17,2.6 -7.78,16.02 -7.71,30.51l0.13 14.13c8.59,5.75 26.36,3.54 37.86,3.56 15.3,0.02 11.78,-9.89 11.75,-35.46 -0.02,-18.06 -4.44,-13.33 -9.38,-13.33z"/>
   <path class="fil0" d="M606.29 842.56l0.66 30.12c7.47,2.79 38.56,0.61 46.24,0.29l-0.92 -44.93c-50.17,-2.43 -45.98,-4.65 -45.98,14.53z"/>
   <path class="fil0" d="M415.85 865.07c0.05,9.81 0.54,8.39 16.71,8.37 29.52,-0.03 25.2,4.99 25.21,-23.78 0,-5.29 0.5,-12.16 -0.85,-17.05 -1.22,-4.39 0.06,-1.64 -1.85,-4.32l-23.69 -0.12c-18.46,0.02 -15.52,-6.06 -15.52,36.9z"/>
  </g>
  <g>
   <path class="fil1 str0" d="M332.1 10.42l1497.68 0c176.93,0 321.68,144.76 321.68,321.68l0 1537.54c0,176.93 -144.76,321.68 -321.68,321.68l-1497.68 0c-176.93,0 -321.68,-144.76 -321.68,-321.68l0 -1537.54c0,-176.93 144.76,-321.68 321.68,-321.68z"/>
  </g>
 </g>
</svg>
