<?xml version="1.0" encoding="UTF-8"?>
<!DOCTYPE svg PUBLIC "-//W3C//DTD SVG 1.1//EN" "http://www.w3.org/Graphics/SVG/1.1/DTD/svg11.dtd">
<!-- Creator: CorelDRAW -->
<svg xmlns="http://www.w3.org/2000/svg" xml:space="preserve" width="2.16188in" height="2.20173in" version="1.1" style="shape-rendering:geometricPrecision; text-rendering:geometricPrecision; image-rendering:optimizeQuality; fill-rule:evenodd; clip-rule:evenodd"
viewBox="0 0 2161.88 2201.74"
 xmlns:xlink="http://www.w3.org/1999/xlink"
 xmlns:xodm="http://www.corel.com/coreldraw/odm/2003">
 <defs>
  <style type="text/css">
   <![CDATA[
    .str0 {stroke:#856443;stroke-width:20.83;stroke-miterlimit:2.61313}
    .fil1 {fill:none}
    .fil0 {fill:#856443}
   ]]>
  </style>
 </defs>
 <g id="Layer_x0020_1">
  <metadata id="CorelCorpID_0Corel-Layer"/>
  <g id="_1338813784432">
   <path class="fil0" d="M490.09 678.52l-0.61 554.26 -46.73 2.41 -2.69 -521.62c-25.27,7.04 -37.17,10.4 -49.34,35.08l0.02 997.07c25.52,0.38 50.99,0.49 76.48,0.83 5.33,0.07 30.28,0.44 33.93,0.01l37.93 -12.54c-7.36,-53.98 13.43,-15.22 -25.56,-31.41 -0.06,-0.02 -83.08,-7.4 -71.12,-84.88 7.3,-47.24 22.64,-17.42 23.16,-85.22 0.31,-41.3 1.26,-65.42 4.58,-105.49 6.31,-76.22 -16.67,-109.74 59.86,-144.21 66.09,-29.77 124.74,8.26 156.05,34.61 35.27,-25.82 24.23,-32.16 71.19,-51.26 34.75,-14.13 51.63,-31.26 97.25,-31.26 285.8,0 401.29,-14.33 668.16,92.12 46.93,18.72 54.13,50.52 53.48,105.56 46.04,-0.41 96.83,-6.68 124.86,19.13 42.66,39.3 14.06,75.7 4.46,112.61 -4.91,18.9 55.72,106.48 -35.16,134.15 -54.76,16.68 -38.1,-18.84 -45.61,35.54l21.91 9.69c2.64,0.63 4.88,1.28 7.87,1.81 7.49,1.34 33.3,1.12 42.1,1 25.49,-0.37 50.94,-0.47 76.43,-0.83l-0.02 -963.35c0.02,-51.54 -4.94,-56.55 -49.58,-68.8l0.31 668.85 -49.66 -1.69 0.1 -702.24c-93.17,-34.38 -553.37,-317.14 -592.23,-317.16 -34.78,-0.02 -502.88,283.21 -591.8,317.22zm593.81 464.26l74.79 -73.04c55.18,-48.33 209.05,-185.62 230.15,-232.98 85.13,-191.05 -183.61,-325.3 -298.8,-181.82 -35.43,-18.5 -117.67,-103.62 -235.58,-41.04 -85.1,45.16 -150.07,167.43 -15.75,293.81 51.48,48.43 181.54,199.54 245.19,235.08z"/>
   <path class="fil0" d="M810.43 1338.18l0.4 217.35 714.01 -0.39c4.33,-213.27 37.46,-164.13 -143.58,-221.55 -232.51,-73.74 -250.25,-49.79 -526.77,-49.79 -50.69,0 -43.59,7.44 -44.06,54.37z"/>
   <path class="fil0" d="M1081.88 1073.61c17.94,-11.61 249.32,-228.44 261.91,-256.64 36.47,-81.7 -19.86,-149.17 -79.72,-166.76 -100.27,-29.46 -136.91,45.68 -182.19,71.49 -33.07,-33.54 -86.22,-95.47 -170.88,-76.35 -67.62,15.27 -121.06,81.69 -90.91,163.09 17.74,47.89 217.23,234.79 261.79,265.17zm-26.26 -233.95l-47.43 1.68 0.25 42.06 49.02 6.76 1.87 47.74 43.49 0.39 4.46 -48.84c45.91,-0.53 48.31,12.18 48.45,-47.24l-47.5 -2.99c-2.54,-28.94 2.07,-27.6 -9.5,-48.27l-33.69 -0.24c-11.79,20.98 -7.01,19.07 -9.42,48.94z"/>
   <path class="fil0" d="M341.5 656l2.22 35.52c45.47,4.83 144.87,-63.74 183.05,-85.42 78.51,-44.59 535.04,-301.33 555.13,-301.32 62.54,0 688.04,402.27 735.55,386.67 12.43,-79.39 -8.19,-60.15 -166.37,-149.94 -64.31,-36.51 -125.08,-70.35 -188.75,-106.01 -47.84,-26.8 -359.07,-208.34 -380.39,-208.22 -20.71,0.11 -549.62,305.04 -656.13,362.3 -28.86,15.52 -86.85,35.48 -84.32,66.43z"/>
   <path class="fil0" d="M496.49 1608.87c-13.48,43.42 5.65,45.33 46.39,45.33l1027.48 -0.01c48.89,0.02 116.79,14.3 96.29,-41.54 -110.2,-21.87 -819.12,-7.98 -1081.66,-7.87l-88.5 4.08z"/>
   <polygon class="fil0" points="589.75,1744.66 1572.63,1746.05 1574.72,1705.61 590.25,1703.55 "/>
   <path class="fil0" d="M517.87 1351.78c-7.63,116.78 126.69,110.32 140.49,50.64 9.1,-39.35 -19.71,-65.06 -46.53,-74.59 -46.71,-16.6 -66.07,3.11 -93.96,23.95z"/>
   <path class="fil0" d="M515.16 1555.78l36.14 -0.79 109.49 0.07 34.52 0.5 -33.36 -76.38c-75.58,20.51 -74.95,20.09 -147.77,-8.81l0.99 85.4z"/>
   <path class="fil0" d="M760.32 1539.01l0.91 -32.39 -0.08 -50.54 0.03 -135.48c-40.88,21.68 -50.63,53.46 -49.94,110.35 0.71,57.89 10.42,91.91 49.08,108.06z"/>
   <path class="fil0" d="M1576.26 1555.67c44.2,-0.99 85.78,4.51 95,-34.57 12.9,-54.67 -50.71,-39.08 -94.97,-39.97l-0.04 74.55z"/>
  </g>
  <g>
   <path class="fil1 str0" d="M332.1 10.42l1497.68 0c176.93,0 321.68,144.76 321.68,321.68l0 1537.54c0,176.93 -144.76,321.68 -321.68,321.68l-1497.68 0c-176.93,0 -321.68,-144.76 -321.68,-321.68l0 -1537.54c0,-176.93 144.76,-321.68 321.68,-321.68z"/>
  </g>
 </g>
</svg>
