<?xml version="1.0" encoding="UTF-8"?>
<!DOCTYPE svg PUBLIC "-//W3C//DTD SVG 1.1//EN" "http://www.w3.org/Graphics/SVG/1.1/DTD/svg11.dtd">
<!-- Creator: CorelDRAW -->
<svg xmlns="http://www.w3.org/2000/svg" xml:space="preserve" width="2.16188in" height="2.20173in" version="1.1" style="shape-rendering:geometricPrecision; text-rendering:geometricPrecision; image-rendering:optimizeQuality; fill-rule:evenodd; clip-rule:evenodd"
viewBox="0 0 2161.88 2201.74"
 xmlns:xlink="http://www.w3.org/1999/xlink"
 xmlns:xodm="http://www.corel.com/coreldraw/odm/2003">
 <defs>
  <style type="text/css">
   <![CDATA[
    .str0 {stroke:#856443;stroke-width:20.83;stroke-miterlimit:2.61313}
    .fil1 {fill:none}
    .fil0 {fill:#856443}
   ]]>
  </style>
 </defs>
 <g id="Layer_x0020_1">
  <metadata id="CorelCorpID_0Corel-Layer"/>
  <g id="_1338937332880">
   <path class="fil0" d="M1066.79 964.5c-51.6,107.22 -224.34,144.11 -313.41,4.63 -23.01,-36.04 -32.26,-85.12 -29.32,-134.84 101.19,-34.97 264.42,-18.99 371.54,-0.97l-0.42 57.23c42.3,-31.85 36.71,-15.2 41.71,-79.37 8.45,-108.47 15.19,-210.37 -108.3,-255.2 -64.14,-23.29 -144.19,-27.83 -213.78,-9.01 -75.19,20.34 -111.16,45.33 -128.86,123.54 -11.18,49.42 -7.76,177.5 0.28,228.35 21.74,137.46 150.33,231.22 286.73,190.84 38.97,-11.54 122.73,-51.95 105.65,-100.67 -0.15,-0.44 -5.13,-11.97 -5.36,-12.47l-6.48 -12.06zm-177.49 -308.21c-54.95,0.54 -57.25,40.61 -1.9,41.24 4.44,29.59 -0.88,43.09 34.51,36.65 5.92,-10.44 7.68,-19.56 9.32,-36.35 51.31,-1.12 59.67,-37.48 -1.81,-42.21 1.63,-55.24 -39.6,-54.44 -40.13,0.67z"/>
   <path class="fil0" d="M1043.68 1386.72c84.37,102.03 65.55,88.37 188.86,155.6 -141.23,12.1 -221.96,-37.54 -222.37,59.29 -0.11,26.32 6.33,43.29 14.69,58.76 40.98,8.38 629.79,7.95 648.57,-0.3 29.07,-14.48 32.87,-95.22 0.93,-111.6 -25.19,-11.18 -152.37,-5.96 -189.3,-4.44 -11,13.99 -22.76,28.96 -28.87,39.63l199.26 -0.03 -0.44 39.07 -603.76 1.32 -0.35 -38.83 239.43 -1.81c-64.32,-107.96 -22.75,-65.41 -91.66,-102.36 -33.52,-17.98 -89.61,-62.46 -100.5,-94.34 83.49,-4.03 48.58,35.73 156.07,75.1l16.76 -38.32c-19.77,-4.43 -55.6,-20.58 -63.85,-36.2 33.87,-2.43 65.7,2.93 82.09,-21.71 14.93,-22.44 13.87,-72.74 -1.93,-93.57 -25.09,-33.08 -225.57,-21.86 -295.53,-20.63 -40.76,0.72 -59.91,7.24 -65.8,42.08 -17.57,103.8 37.89,90 117.7,93.31z"/>
   <path class="fil0" d="M1496.52 707.32c-36.3,-6.11 -58.22,-21.24 -91.86,5.75l-126.58 119.8c-22.84,21.04 -35.64,39.6 -62.43,63.41 -0.01,0 -75.44,-23.84 -99.83,38.47 -16.17,41.32 23.97,73.12 45.57,92.38 -14.61,20.22 -64.56,59.1 -68.62,78.31 -5.21,24.65 10.35,36.09 22.06,46.63 19.21,17.3 25.21,27.23 59.11,27.43 17.42,-23.95 49.02,-55.52 70.37,-67.12 10.19,6.02 86.94,112.25 141.82,17.69 17.27,-29.76 -0.06,-42.31 -4.29,-67.16 19.52,-13.51 31.98,-31.22 53.35,-43.96 -4.11,-14.09 -1.22,-13.61 -15.61,-28.61 -5.21,-5.43 -4.64,-4.02 -9.04,-7.35 -17.4,18.01 -41.96,45.66 -63.03,55.98 -33.28,-37.62 -73.4,-71.98 -106.2,-109.4 14.5,-21.62 51.47,-49.28 74.55,-76.07 24.21,-28.11 54.56,-52.77 81.37,-79.53 83.28,-83.09 78.21,-0.83 130.4,34.3 12.18,8.2 32.22,4.49 53.5,11.86l-10.91 -32.36c25.89,-23.4 104.32,-73.44 56.77,-124.86 -43.05,-46.55 -76.6,-19.68 -130.47,44.41zm-359.94 407.05l21.36 21.63c14.95,-12.19 47.04,-40.88 55.46,-56.02l-20.97 -21.12c-16.52,8.63 -48.13,37.87 -55.85,55.51z"/>
   <path class="fil0" d="M436.07 1340.78l0 313.11c16.85,12.89 12.54,12.45 36.37,6.19 21.89,-68.17 -12.49,-256.54 16.26,-355.71 15.36,-52.98 37.87,-81.38 66.06,-117.3 14.7,-18.73 73.69,-70.83 104.89,-80.69 -11.15,34.75 -56.4,100.6 -48.57,131.02 21.32,21.14 22.08,9.74 52.47,8.78 -16.11,44.36 -21.45,48.46 18.41,75.06l165.18 110.79c17.1,10.86 18.91,17.27 33.64,0.98 18.2,-17.84 -22.06,-89.07 -32.07,-112.08 -8.23,-18.89 -45.44,-98.67 -47.69,-112.11 -6.04,-36.11 64.89,-46.55 -6.58,-97.48 -29.42,-20.96 -60.45,-43.48 -88.94,-70 -64.85,16.39 -139.11,75.37 -173.22,111.74 -62.89,67.06 -68.63,103.64 -90.81,173.76l-5.38 13.94z"/>
   <path class="fil0" d="M598.66 1611.05c14.36,13.2 57.02,35.76 85.82,40.43 21.51,3.49 78.53,-23.39 89.39,-41.03 10.5,-18.31 6.43,-114.02 -1.74,-132.87 -20.84,-6.07 -130.32,-7.99 -152.95,-3.74 -29.72,5.58 -22.11,29.78 -21.76,58.82 0.32,25.86 -1.05,52.85 1.22,78.39z"/>
   <path class="fil0" d="M1725.81 1243.78l0 -99.15c-12.01,-25.32 -17.38,-68.7 -31.89,-101.61 -15.52,-35.2 -36.56,-58.16 -47.34,-83.44 -4.52,4.68 -3.54,3.08 -8.28,10.19 -1.43,2.13 -11.01,12.94 -9.83,29.35 1.47,20.5 96.14,129.65 40.06,299.35 -24.56,74.31 -77.83,140.62 -142.26,178.13 -43.67,25.43 -26.54,16.16 -40.48,62.49 64.58,-13.57 126.61,-78.07 156.75,-112.61 20.68,-23.7 36,-48.55 50.17,-81.47 13.33,-30.96 19.46,-73.74 33.08,-101.23z"/>
   <path class="fil0" d="M1500.65 853.41c-102.68,33.76 -53.19,184.86 51.48,151.01 34.83,-11.27 61,-54.97 49.57,-98.24 -11.04,-41.8 -55.51,-67.74 -101.05,-52.77z"/>
   <path class="fil0" d="M1352.55 1416.18c-105.33,30.35 -57.93,181.56 43.59,153.82 91.5,-25 59.95,-183.66 -43.59,-153.82z"/>
   <path class="fil0" d="M1555.93 1047.27c15.81,15.54 35.3,60.43 42.3,91.67 9.57,42.76 7.97,83.92 -3.03,125.34 -26.54,99.98 -106.5,134 -125.52,153.9l21.11 30.32c144.39,-69.79 203.94,-267.37 102,-418.87l-36.85 17.65z"/>
  </g>
  <g>
   <path class="fil1 str0" d="M332.1 10.42l1497.68 0c176.93,0 321.68,144.76 321.68,321.68l0 1537.54c0,176.93 -144.76,321.68 -321.68,321.68l-1497.68 0c-176.93,0 -321.68,-144.76 -321.68,-321.68l0 -1537.54c0,-176.93 144.76,-321.68 321.68,-321.68z"/>
  </g>
 </g>
</svg>
