<?xml version="1.0" encoding="UTF-8"?>
<!DOCTYPE svg PUBLIC "-//W3C//DTD SVG 1.1//EN" "http://www.w3.org/Graphics/SVG/1.1/DTD/svg11.dtd">
<!-- Creator: CorelDRAW -->
<svg xmlns="http://www.w3.org/2000/svg" xml:space="preserve" width="2.16188in" height="2.20173in" version="1.1" style="shape-rendering:geometricPrecision; text-rendering:geometricPrecision; image-rendering:optimizeQuality; fill-rule:evenodd; clip-rule:evenodd"
viewBox="0 0 2161.88 2201.74"
 xmlns:xlink="http://www.w3.org/1999/xlink"
 xmlns:xodm="http://www.corel.com/coreldraw/odm/2003">
 <defs>
  <style type="text/css">
   <![CDATA[
    .str0 {stroke:#856443;stroke-width:20.83;stroke-miterlimit:2.61313}
    .fil1 {fill:none}
    .fil0 {fill:#856443}
   ]]>
  </style>
 </defs>
 <g id="Layer_x0020_1">
  <metadata id="CorelCorpID_0Corel-Layer"/>
  <path class="fil0" d="M268.35 2187.92l1624.58 0c108.08,-54.28 84.7,-47.63 62.75,-250.19 -13.49,-124.53 -34.22,-178.34 -105.68,-241.21 -105.06,-92.43 -448.37,-105.09 -504.75,-185.91l-23.67 36.23c-8.04,15.83 -10.84,22.54 -19.67,36.35 -121.33,189.96 -428.62,121.69 -474.57,-72.58 -345.48,173.94 -579.68,46.13 -621.13,426.74 -22.5,206.61 -44.44,196.5 62.15,250.56zm1261.65 -319.87c-75.32,0 -98.18,-18.55 -98.18,54.14 0,54.09 45.41,37.71 97.98,37.17 0,83.21 -23.39,107.57 89.34,95.45l2.57 -95.19 94.89 -1.3c15,-115 -15.78,-90.28 -94.89,-90.28l-1.27 -94.68c-104.24,-16.11 -91.16,2.46 -90.46,94.68z"/>
  <path class="fil0" d="M1127.74 368.03l-85.27 0c-66.21,27.11 -176.65,13.09 -275.65,140.79 -84.99,109.62 -48.4,216.88 -54.19,366.52 -70.99,49.25 -61.24,103.16 -21.16,176.09 28.44,51.72 65.24,105.59 96.19,153.68 63.61,98.84 134.93,211.42 289.51,215.06 202.72,4.8 291.73,-196.3 391.43,-362.42 15.89,-26.48 31.72,-58.71 35.3,-94.88 6.74,-68.05 -19.1,-53.34 -42.58,-87.53 7.46,-140.1 18.72,-262.3 -52.2,-364.42 -87.46,-125.94 -245.34,-128.21 -281.38,-142.89zm-356.76 385.37l15.87 161.35c-41.23,-2.79 -55.66,3.22 -78.21,19.04 -10.46,74.56 78.78,187.89 133.41,273.09 147.82,230.52 338.73,231.11 484.21,-1.83 39.08,-62.57 142.13,-200.68 132.85,-276.6l-81.63 -5.93 29.26 -133.31c-264.53,23.33 -353.83,-117.87 -635.75,-35.81z"/>
  <g>
   <path class="fil1 str0" d="M332.1 10.42l1497.68 0c176.93,0 321.68,144.76 321.68,321.68l0 1537.54c0,176.93 -144.76,321.68 -321.68,321.68l-1497.68 0c-176.93,0 -321.68,-144.76 -321.68,-321.68l0 -1537.54c0,-176.93 144.76,-321.68 321.68,-321.68z"/>
  </g>
 </g>
</svg>
