<?xml version="1.0" encoding="UTF-8"?>
<!DOCTYPE svg PUBLIC "-//W3C//DTD SVG 1.1//EN" "http://www.w3.org/Graphics/SVG/1.1/DTD/svg11.dtd">
<!-- Creator: CorelDRAW -->
<svg xmlns="http://www.w3.org/2000/svg" xml:space="preserve" width="2.16188in" height="2.20173in" version="1.1" style="shape-rendering:geometricPrecision; text-rendering:geometricPrecision; image-rendering:optimizeQuality; fill-rule:evenodd; clip-rule:evenodd"
viewBox="0 0 2161.88 2201.74"
 xmlns:xlink="http://www.w3.org/1999/xlink"
 xmlns:xodm="http://www.corel.com/coreldraw/odm/2003">
 <defs>
  <style type="text/css">
   <![CDATA[
    .str0 {stroke:#856443;stroke-width:20.83;stroke-miterlimit:2.61313}
    .fil1 {fill:none}
    .fil0 {fill:#856443}
   ]]>
  </style>
 </defs>
 <g id="Layer_x0020_1">
  <metadata id="CorelCorpID_0Corel-Layer"/>
  <g id="_1338952898832">
   <path class="fil0" d="M1239.58 1128.21c34.21,-40.7 27.63,-142.9 55.25,-149.94 170,0.66 292.62,32.16 291.01,-165.2 -1.25,-153.48 0.73,-307.27 0.1,-460.78 -0.88,-214.16 -75.62,-191.12 -267.18,-191.24 -155.56,-0.1 -311.15,0.45 -466.71,0.03 -69.83,-0.19 -151.01,-11.13 -198.58,28.44 -54.08,44.98 -45,102.67 -45.33,186.7 -2.52,648.23 -48.45,601.51 315.71,602.05 37.9,0.06 75.84,0.3 113.74,-0.1 74.31,-0.77 54.52,-0.29 133.96,101.7 6.91,8.87 16.91,23.79 25.58,34.25 13.68,16.5 14.75,18.25 42.44,14.09zm-574.58 -751.99l0.11 472.69c-0.03,93.02 114.45,72.14 216.87,72.15l197.8 -0.29c82.07,-0.15 63.94,60.37 131.29,111.96 11.86,-25.15 12.82,-52.82 20.74,-79.28 13.54,-45.24 50.28,-32.35 128.84,-32.39 200.28,-0.11 168.19,10.48 168.24,-341.41l0 -239.34c0.1,-146.24 -29.55,-121.92 -246.02,-121.95l-478.67 0c-149.08,0 -139.2,14.96 -139.2,157.85z"/>
   <path class="fil0" d="M381.82 1340.25l-9.9 52.51c-110.25,22.81 -73.47,144.34 -4.94,186.67 61.48,37.98 23.88,-11.73 86.05,75.37 27.8,38.95 51.97,51.79 79.99,83.89 -100.58,20.89 -167.35,56.53 -175.08,163.15 -2.29,31.61 5.54,87.32 45.13,60.33 26.91,-18.34 -12,-107.28 72.49,-149.52 50.75,-25.38 152.34,-13.63 214.96,-14.02 55.25,-0.34 167.16,-10.63 212.28,10.76 93.98,44.54 41.53,130.69 75.15,152.95 39.96,26.45 44.88,-31.89 43.76,-60.46 -4.18,-106.14 -74.6,-150.67 -180.91,-162.83 89.52,-80.91 80.47,-95.44 112.92,-130.33 13.11,-14.1 34.12,-16.7 54.33,-29.24 27.81,-17.25 62.82,-50 67.38,-96.32 7.71,-78.3 -29.36,-74.71 -73.07,-95.73l-11.54 -47.06c63.24,-1.13 92.28,-5.81 134.34,-38.71 24.81,-19.4 74.86,-65.22 57.41,-112.91 -59.8,-18.51 -52.7,17.74 -107.11,-42.74l-75.41 -74.11c-30.64,-19.96 -74.34,-32.11 -113.21,-14.99 -56.36,24.83 -37.46,48.32 -64.67,88.64 -85.57,-36.63 -168.17,-39.07 -257.29,-5.52 -12.13,-15.75 -31.08,-111.72 -133.45,-89.41 -45.88,10 -95.22,67.92 -133.06,106.23 -50.37,51 -42.03,15.85 -85.08,29.08 -49.2,15.12 26.45,153.42 168.56,154.32zm-19.52 113.33c-10.08,92.09 71.84,70.55 105.19,121.06 11.96,18.13 19.66,31.39 31.02,46.72l77.48 77.96c148.26,106.65 261.78,-16.41 332.93,-129.33 17.29,-27.44 18.25,-17.92 48.92,-29 26.46,-9.56 82.86,-48.19 54.38,-86.2 -29.91,-30.71 -145.83,3.58 -247.28,-118.27 -201.41,138.85 -256.63,83.09 -402.64,117.04zm69.87 -70.93c82.7,1.22 131.17,-5.44 199.39,-36.12 78.41,-35.26 128.97,-93.89 157.14,-78.8 12.52,14.41 12.07,20.43 27.76,35.77 29.75,29.07 70.5,70.9 123.49,71.18 -58.78,-266.75 -456.68,-263.91 -507.78,7.97zm448.93 -197.28c62.9,35.89 62.83,124.56 172.26,92.24 27.04,-7.98 38.89,-19.65 52.81,-41.01 -54.21,-14.19 -83.91,-68.83 -117.19,-99.81 -52.58,-48.93 -110.99,-47.96 -107.87,48.58zm-601.7 57.21c124.89,99.11 145.65,1.1 183.22,-35.18 19.56,-18.88 46.51,-21.32 41.24,-57.64 -12.2,-84.13 -96.11,-27.2 -119.04,-2.3 -99.41,107.98 -72.25,63.63 -105.43,95.12z"/>
   <path class="fil0" d="M1491.41 1118.17c-28.71,20.73 -212.61,40.98 -254.11,271.56 -45.52,21.36 -74.66,24.06 -68.29,93.24 4.05,44.02 37.89,80 64.66,97.31 71.96,46.52 7.57,-23.32 85.97,75.4 53.52,67.39 58.65,60.64 78.36,84.24 -117.56,2.31 -251.02,33.51 -251.02,180.03 0,25.78 0.79,24.94 8.64,42.59l39.55 2.54c31.92,-72.69 -37.76,-167.85 237.27,-167.6l311.13 0.13c60.17,-0.13 116.08,18.62 142.97,51.24 43.92,53.29 -14.92,134.19 67.5,113.33 10.66,-25.88 13.55,-65.62 2.89,-99.8 -32.98,-105.69 -149.46,-121.35 -251.18,-122.29 19.09,-22.78 29.51,-19.3 79.43,-83.67 78.88,-101.72 9.02,-27.16 90,-77.54 29.43,-18.31 60.91,-44.9 65.4,-96.31 6.82,-78.13 -31.41,-72.02 -70.48,-96.02 -10.02,-15.93 -21.33,-69.34 -35.03,-96.43 -17.32,-34.26 -30.97,-52.18 -55.74,-76 -92.96,-89.39 -101.99,-61.09 -173.46,-95.95 8.29,-22.61 32.03,-33.83 10.83,-57.73 -25.85,-31.78 -41.8,0.77 -52.85,15.51 -12.66,16.91 -5.28,9.66 -19.48,18.99 -9.35,-15.2 -39.99,-65.66 -68.8,-59.92 -53.1,10.59 6.68,71.44 15.82,83.15zm-264.06 339.39c-7.18,47.52 23.39,72.05 56.86,83.98 34.23,12.21 30.42,0.74 47.54,30.37 39.08,67.63 120.18,168.43 220.46,168.07 95.29,-0.34 182.38,-99.43 218.3,-164.15 16.58,-29.89 9.06,-22.13 45.75,-32.41 43.81,-12.28 70.7,-39.06 66.18,-92.99 -46.4,-8.37 -105.29,-15.02 -145.85,-32.19 -52.58,-22.27 -72.5,-59.63 -106.68,-80.01 -28.31,13.38 -47.61,31.5 -78.33,48.41 -153.67,84.55 -266.7,35.63 -324.22,70.91zm70.31 -75.07c120.52,4.95 210.69,-31.28 284.95,-84.34 65.48,-46.79 49.68,-48.22 102.93,9.61 26.46,28.73 65.2,61.3 119.99,68.57 -21.28,-109.62 -123.37,-202.73 -253.4,-202.76 -132.5,-0.02 -233.91,94.61 -254.46,208.91z"/>
   <path class="fil0" d="M1144.25 571.05l-77.24 0.12c-22.19,2.69 10.09,-3.51 -9.89,1.85l-10.79 5.24c-11.19,-48.09 -22.41,-119.74 -47.42,-151.54 -32.24,-41 -47.4,-204.68 -140.44,-152 -25.96,14.7 -25.84,34.5 -33.91,68.71 -6.24,26.43 -18.56,46.33 -24.02,77.17 -5.23,29.53 -0.22,64.06 -10.9,90.63 -24.76,61.61 -46.88,76.94 -28.85,160.08 7.81,36.02 28.03,135.07 46.89,156.17 25.74,28.8 85.41,62.92 145.73,57.35 61.49,-5.67 76.13,-63.55 143.99,-62.3 65.59,1.2 83.6,54.98 138.3,61.79 76.38,9.5 163.62,-33.46 176.22,-129.46 4.01,-30.56 12.81,-51.78 19.82,-80.39 20.6,-84.11 -3.83,-99.44 -28.12,-161.41 -9.99,-25.49 -5.84,-58.1 -9.76,-85.56 -5.1,-35.7 -15.87,-48.83 -23.74,-78.33 -8.03,-30.12 -5.67,-54.98 -30.01,-72.06 -24.65,-17.28 -56.81,-13.15 -78.46,6.08 -36.35,32.29 -30.22,106.48 -62.39,141.1 -43.74,47.07 -26,88.32 -54.99,146.76zm156.21 -247.8c-23.15,36.2 -19.42,76.13 -40.64,113.6 -38.53,68.02 -8.87,-20.7 -47.16,108.68 -21.78,73.57 27.15,68.51 20.76,117.26 -0.98,7.43 -31.61,73.11 -70.04,-35.43l-127.75 1.24c-2.14,4 -17.41,41.94 -21.82,47.37 -16.67,20.54 -41.39,11.01 -47.32,-8.16 -14.27,-46.15 36.13,-27.25 10.95,-130.11 -28.43,-116.17 -13.58,-44.64 -45.59,-103.87 -21.43,-39.64 -12.47,-84.17 -44.76,-110.41 -8.42,33.62 -15.7,55.36 -25.04,86.67 -10.84,36.32 -4.73,67.46 -12.04,101.81 -17.39,81.61 -59.79,60.3 -24.84,178.61 21.93,74.24 4.82,119.08 93.03,135.67 69.15,13 78.94,-58.46 173.41,-61.17 88.14,-2.53 117.48,63.77 167.23,62.92 30.93,-0.53 65.92,-20.62 80.89,-35.78 19.48,-19.73 16.96,-64.33 25.78,-93.57 39.69,-131.52 -6.42,-113.59 -22.01,-185.83 -7.44,-34.48 -0.78,-65.43 -11.67,-102l-31.35 -87.5z"/>
   <path class="fil0" d="M607.61 1595.44c-80.46,35.29 86.72,124.81 161.86,50.18 15.23,-15.12 18.54,-36.7 -1.35,-48.97 -20.99,-12.94 -35.87,7.42 -50.9,14.96 -53.3,26.75 -82.04,-28.27 -109.61,-16.17z"/>
   <path class="fil0" d="M1642.4 1601.25c-56.27,-25.89 -44.91,29.2 -104.19,15.52 -21.09,-4.87 -39.86,-21.8 -53.57,-23.12 -21.78,-2.09 -37.61,17.82 -25.54,40.85 28.63,54.63 206.46,60.2 183.3,-33.25z"/>
   <path class="fil0" d="M801.56 1539.46c52.8,15.52 63.79,-20.28 37.07,-54.5 -44.8,-6.65 -48.11,18.65 -37.07,54.5z"/>
   <path class="fil0" d="M535.81 1536.77c41.07,32.05 46.3,-24.9 38.18,-49.91 -15.94,-3.56 -33.63,-10.37 -45.39,8.24 -11.31,17.9 -4.49,31.82 7.21,41.67z"/>
   <path class="fil0" d="M1394.97 1538.76c18.11,6.19 26.82,6.08 44.86,-0.18 5.44,-17.48 5.07,-33.43 -1.22,-49.91 -42.78,-15.88 -56.91,9.71 -43.63,50.09z"/>
   <path class="fil0" d="M1695.72 1544.3c39.18,-22.35 21.78,-65.74 -11.2,-61.11 -27.63,3.88 -41.47,56.54 11.2,61.11z"/>
  </g>
  <g>
   <path class="fil1 str0" d="M332.1 10.42l1497.68 0c176.93,0 321.68,144.76 321.68,321.68l0 1537.54c0,176.93 -144.76,321.68 -321.68,321.68l-1497.68 0c-176.93,0 -321.68,-144.76 -321.68,-321.68l0 -1537.54c0,-176.93 144.76,-321.68 321.68,-321.68z"/>
  </g>
 </g>
</svg>
