<?xml version="1.0" encoding="UTF-8"?>
<!DOCTYPE svg PUBLIC "-//W3C//DTD SVG 1.1//EN" "http://www.w3.org/Graphics/SVG/1.1/DTD/svg11.dtd">
<!-- Creator: CorelDRAW -->
<svg xmlns="http://www.w3.org/2000/svg" xml:space="preserve" width="2.16188in" height="2.20173in" version="1.1" style="shape-rendering:geometricPrecision; text-rendering:geometricPrecision; image-rendering:optimizeQuality; fill-rule:evenodd; clip-rule:evenodd"
viewBox="0 0 2161.88 2201.74"
 xmlns:xlink="http://www.w3.org/1999/xlink"
 xmlns:xodm="http://www.corel.com/coreldraw/odm/2003">
 <defs>
  <style type="text/css">
   <![CDATA[
    .str0 {stroke:#856443;stroke-width:20.83;stroke-miterlimit:2.61313}
    .fil1 {fill:none}
    .fil0 {fill:#856443}
   ]]>
  </style>
 </defs>
 <g id="Layer_x0020_1">
  <metadata id="CorelCorpID_0Corel-Layer"/>
  <g id="_1338832303968">
   <path class="fil0" d="M706.36 1843.29c28.41,8.06 41.31,13.98 69.39,-1.61 46.26,-25.69 35.38,-80.59 35.14,-130.55 -0.52,-106.74 5.54,-78.59 -21.66,-95.84 -20.6,-13.07 -35.78,-34.76 -39.33,-61.13 -4.34,-32.3 44.81,-171.42 57.17,-211.26 8.76,-28.23 15.26,-48.62 38.18,-65.13 5.96,-4.3 14.11,-7.46 19.93,-11.84 -13.66,-63.34 5.7,-100.31 48.83,-123.67 10.71,-5.8 23.34,-9.64 37.12,-10.65 40.08,-2.94 19.03,14.25 47.63,-12.39 15.97,-14.88 36.87,-17.65 44.78,-23.11 -14.64,-28.8 -19.86,-62.38 -5.79,-96.16 15.93,-38.25 36.58,-44.95 54.95,-59.89 -6.65,-34.2 -25.06,-82.67 -36.11,-117.81 -14.3,-45.52 -17.97,-78.67 -58.27,-93.13 -32,-11.48 -267.24,2.85 -299.88,-5.38l-3.46 1.78c-13.87,6.14 10.81,-3.99 -3.57,1.49 -17.11,6.52 -21.12,5.89 -35.94,21.39 -12.72,13.31 -14.23,23.22 -20.89,43.39l-92.52 297.53c-9.88,32.61 -22.5,66.75 -31.09,99.82 -16.44,63.28 46.72,104.82 95.13,83.47 8.02,-3.53 15.23,-8.13 19.59,-12.48l13.85 -18.12c10.41,-18.92 24.01,-78.07 30.45,-91.52 1.56,-3.25 1.96,-3.54 3.26,-5.18 0.72,30.2 -2.02,62.66 -2.58,93.08 -1.12,61.12 -2.01,527.47 0.28,550.43 1.17,11.76 6.7,24.92 12.53,33.24 5.5,7.84 19.11,17.39 22.9,21.25z"/>
   <path class="fil0" d="M871.14 1576.29c-1.17,65.15 -0.07,131.52 0.14,196.79 0.11,31.89 -3.71,61.41 19.63,77.77 26.4,18.5 49.46,7.6 68.65,-11.51 15.8,13.9 40.91,33.22 68.72,11.56 23.61,-18.39 19.85,-43.89 19.76,-77.83 -0.17,-65 0.21,-130.63 -0.71,-195.43 16.42,4.58 24.97,20.72 54.07,8.94 54.1,-21.9 16.56,-92.06 -1.06,-149.36 -45.36,-147.45 -27.44,-137.65 -140.78,-137.67 -114,-0.01 -97.2,-10.05 -141.52,136.89 -18.17,60.24 -54.51,124.72 -3.51,148.87 24.77,11.73 39.68,1.43 56.61,-9.04zm24.77 -146.27c3.28,119.52 1.01,243.81 0.81,363.76 -0.02,13.86 -0.91,26.6 7.61,34.63 9.4,8.86 23.57,6.79 31.17,-1.33 11.18,-11.96 6.63,-65.95 6.63,-86.13l-0.09 -135.53c0.04,-15.17 1.69,-27.41 17.52,-27.01 24.19,0.61 17.5,37.07 17.68,70.74 0.13,24.1 -3.46,165.22 5.16,176.77 7.05,9.45 21.92,11.1 31.43,3.85 10.72,-8.17 9.05,-22.57 8.96,-38.33 -0.19,-35.1 -2.4,-335.89 -0.04,-364.07 10.37,36.03 23.83,74.97 35.35,111.8 12.97,41.46 39.38,22.2 42.76,17.23 9.66,-14.15 -3.56,-43.83 -8.9,-60.24 -12.02,-36.9 -24.15,-75.89 -35.57,-113.68 -21.37,-70.7 -14.59,-57.83 -94.53,-57.83 -96.16,0 -78.52,-7.9 -98.37,51.73 -12.57,37.76 -24.61,77.15 -35.98,115.48 -4.03,13.58 -17.48,47.11 -13.05,59.02 6.9,18.55 35.1,20.28 43.62,-5.5 6.89,-20.82 30.2,-104.92 37.83,-115.37z"/>
   <path class="fil0" d="M1207.52 691.23l-0.12 42.03 -0.05 32.27 -114.09 0.19 46.11 150.19c19.64,6.13 44.52,4.7 65.74,4.95l2.85 11.83c4.72,15.31 22.9,9.46 44.62,51.74 17.87,34.76 15.43,52.17 9.53,91.05 119.47,0.56 100.43,14.43 100.43,-73.46 0,-27.11 0.15,-54.26 -0.06,-81.37 26.93,0.58 54.32,0.12 81.3,0.12 19.59,0 62.37,7.06 72.02,-7.9 3.6,-11.81 2.5,-130.13 -0.67,-143.29 -17.38,-7.9 -123.87,-4.68 -152.47,-3.66l-0.11 -117.32c0.03,-19.01 3.15,-28.84 -6.06,-34.82 -8.97,-5.18 -129.58,-5.11 -143.5,-0.68 -10.92,15.48 -5.99,55.07 -5.46,78.13z"/>
   <path class="fil0" d="M1021.51 499.94c17.68,-5.17 408.89,-1.83 475.05,-1.77 32.32,0.04 58.93,-3.84 80.08,15.26 25.06,22.63 24.76,36.88 24.73,70.9l0.19 481.93c0.04,43.06 11.49,121.06 -70.54,122.58 -63.57,1.18 -128.62,0.06 -192.34,-0.06l14.69 49.95c37.19,3.69 93.25,0.49 131.71,0.55 44.18,0.07 79.74,2.84 113.14,-18.66 67.22,-43.28 54.38,-114.25 54.39,-207.16l0.06 -392.42c0,-20.95 1.23,-45.93 -0.61,-66.41 -2.17,-24.11 -11.17,-33.95 -15,-50.54 -11.24,-7.98 -11.31,-23.28 -46.85,-43.16 -21.73,-12.15 -45.7,-13.72 -72.98,-13.72 -58.9,0 -117.8,-0.13 -176.71,-0.12 -58.9,0 -117.8,-0.06 -176.71,-0.13 -46.71,-0.05 -128.82,-5.52 -169.23,7.32 3.87,13.7 13.81,26.3 18.18,46.06l8.76 -0.43z"/>
   <path class="fil0" d="M770.81 655.86c26.72,9.67 41.07,24.14 86.56,18.63 73.72,-8.94 124.01,-81.48 108.56,-153.76 -3.25,-15.2 -12.75,-28.67 -14.25,-40.68 -6.34,-3.77 -11.87,-13.89 -17.47,-19.56 -113.69,-115.01 -283.61,33.91 -199.57,158.28 16.92,25.04 26.43,25.6 36.17,37.09z"/>
   <path class="fil0" d="M1020.17 1151.42c6.91,6.81 8.37,10.92 17.41,17.65 19.81,-11.26 17.52,-9.71 45.9,-9.65 187.22,0.43 157.92,-19.34 191.38,85.03l52.69 169.75c4.55,13.76 11.62,28.91 5.02,43.3 -5.26,11.48 -18.61,22.57 -37.09,18.63 -25.37,-5.4 -31.71,-43.5 -39.55,-70.65 -5.08,-17.61 -20.52,-72.98 -27.54,-85.07 -2.94,65.76 0.02,138.3 0.06,204.82 0.05,68.08 0.23,136.17 0.29,204.24 0.02,28.41 6.87,74.9 -12.31,89.41 -10.22,7.74 -26.17,9 -38.39,1.96 -12.02,-6.92 -15.24,-19.13 -15.22,-38.57 0.07,-65.83 3.44,-141.23 -0.2,-205.89 -15.85,30.55 -36.22,37.5 -38.43,42.94 -2.33,5.74 2.51,169.65 -1.59,183.64 -1.99,6.79 -7.88,13.49 -12.9,17.06 -7.18,5.11 -13.43,4.38 -21.04,6.59 -6.11,1.77 -5.75,8.29 -9.96,23.24 40.98,5.04 48.96,-10.8 64.43,-28.95 1.37,1.23 1.65,1.39 3.59,3.6l12.12 13.22c22.42,17.59 49.06,18.18 71.42,1.85 31.06,-22.68 23.94,-59.83 23.93,-105.52 -0.01,-41.2 -2.56,-232.67 0.27,-255.9 37.09,50.43 122.78,16.46 103.4,-52.92 -19.96,-71.48 -52.62,-169.53 -76.47,-244.9 -9.22,-29.17 -26.72,-45.7 -62.5,-46.07 -35.86,-0.37 -72,0.06 -107.89,0.06 -38.6,0 -67.52,-5.82 -90.85,17.07z"/>
   <path class="fil0" d="M1124.97 971.42c-94.63,24.09 -56.45,166.53 36.88,141.11 32.89,-8.96 61.9,-44.13 51.86,-87.14 -8.19,-35.14 -43.72,-65.42 -88.74,-53.96zm4.54 25.18c-60.26,18.93 -34.02,107.65 25.93,91.27 21.78,-5.95 41.61,-30.9 32.94,-59.74 -6.39,-21.28 -30.23,-40.52 -58.87,-31.53z"/>
   <path class="fil0" d="M944.8 1172.74c-78,20.11 -47.92,136.11 29.26,116.64 75.93,-19.15 47.34,-136.39 -29.26,-116.64zm3.56 25.86c-44.06,14.59 -21.93,79.85 22.76,65.12 40.87,-13.48 21.5,-79.78 -22.76,-65.12z"/>
  </g>
  <g>
   <path class="fil1 str0" d="M332.1 10.42l1497.68 0c176.93,0 321.68,144.76 321.68,321.68l0 1537.54c0,176.93 -144.76,321.68 -321.68,321.68l-1497.68 0c-176.93,0 -321.68,-144.76 -321.68,-321.68l0 -1537.54c0,-176.93 144.76,-321.68 321.68,-321.68z"/>
  </g>
 </g>
</svg>
