<?xml version="1.0" encoding="UTF-8"?>
<!DOCTYPE svg PUBLIC "-//W3C//DTD SVG 1.1//EN" "http://www.w3.org/Graphics/SVG/1.1/DTD/svg11.dtd">
<!-- Creator: CorelDRAW -->
<svg xmlns="http://www.w3.org/2000/svg" xml:space="preserve" width="2.16188in" height="2.20173in" version="1.1" style="shape-rendering:geometricPrecision; text-rendering:geometricPrecision; image-rendering:optimizeQuality; fill-rule:evenodd; clip-rule:evenodd"
viewBox="0 0 2161.88 2201.74"
 xmlns:xlink="http://www.w3.org/1999/xlink"
 xmlns:xodm="http://www.corel.com/coreldraw/odm/2003">
 <defs>
  <style type="text/css">
   <![CDATA[
    .str0 {stroke:#856443;stroke-width:20.83;stroke-miterlimit:2.61313}
    .fil1 {fill:none}
    .fil0 {fill:#856443}
   ]]>
  </style>
 </defs>
 <g id="Layer_x0020_1">
  <metadata id="CorelCorpID_0Corel-Layer"/>
  <path class="fil0" d="M1047.74 536.44c-25.56,143.05 -8.23,322.77 -88.99,436.77 -84.98,119.95 -170.02,137.14 -240.38,316.56 -155.09,395.49 151.76,481.05 444.48,596.29 441.09,173.66 551.69,-25.42 504.41,-466.34 -37.17,-346.6 -100.99,-622.48 -405,-701.05 -32.56,338.87 125.36,187.83 160.65,334.82 -85.45,40.33 -195.98,-69.85 -226.3,-137.6 -43.7,-97.66 1.38,-266.87 5.56,-380.6 -67.09,-12.94 -94.67,-32.96 -154.44,1.15zm-348.16 158.36c-36.83,-41.61 -40.26,-60.72 -119.53,-66.05 9.22,58.6 147.19,279.02 344.56,227.34 30.76,-71.03 78.14,-250.47 35.8,-339.8 -146.76,22.37 109.84,31.92 -260.82,178.51zm-183.17 51.81c-31.59,88.33 -13.54,41.71 64.16,108.02 -19.26,122.69 -185.15,381.59 -31.13,609.66 57.38,84.97 -14.24,29.66 72.89,56.63 24.62,-39.87 19.42,-72.19 20.8,-129.36 6.38,-264.34 173.54,-376.05 48.68,-545.76 -29.24,-39.75 -119.51,-108.08 -175.4,-99.19z"/>
  <g>
   <path class="fil1 str0" d="M332.1 10.42l1497.68 0c176.93,0 321.68,144.76 321.68,321.68l0 1537.54c0,176.93 -144.76,321.68 -321.68,321.68l-1497.68 0c-176.93,0 -321.68,-144.76 -321.68,-321.68l0 -1537.54c0,-176.93 144.76,-321.68 321.68,-321.68z"/>
  </g>
 </g>
</svg>
