<?xml version="1.0" encoding="UTF-8"?>
<!DOCTYPE svg PUBLIC "-//W3C//DTD SVG 1.1//EN" "http://www.w3.org/Graphics/SVG/1.1/DTD/svg11.dtd">
<!-- Creator: CorelDRAW -->
<svg xmlns="http://www.w3.org/2000/svg" xml:space="preserve" width="2.16188in" height="2.20173in" version="1.1" style="shape-rendering:geometricPrecision; text-rendering:geometricPrecision; image-rendering:optimizeQuality; fill-rule:evenodd; clip-rule:evenodd"
viewBox="0 0 2161.88 2201.74"
 xmlns:xlink="http://www.w3.org/1999/xlink"
 xmlns:xodm="http://www.corel.com/coreldraw/odm/2003">
 <defs>
  <style type="text/css">
   <![CDATA[
    .str0 {stroke:#856443;stroke-width:20.83;stroke-miterlimit:2.61313}
    .fil1 {fill:none}
    .fil0 {fill:#856443}
   ]]>
  </style>
 </defs>
 <g id="Layer_x0020_1">
  <metadata id="CorelCorpID_0Corel-Layer"/>
  <g id="_1338715047744">
   <path class="fil0" d="M771.3 620.7l17.65 5.08c34.59,5.11 68.12,-5.22 97.09,8.63 33.91,16.21 37.96,52.46 38.03,97.86 0.19,122.24 -45.79,107.04 -153.35,107.84 1.75,111.99 11.4,152.19 -109.4,152.05 -135.21,-0.15 -87.85,-48.58 -106.47,-152.82l-52.28 1.36c-225.42,293.53 -152.47,711.29 136.38,962.96 194.29,169.28 516.21,209.25 777.73,70.72 64.85,-34.35 167.2,-105.44 191.55,-153.27 -123.09,0.31 -230.6,76.3 -351.23,85.18 -108.99,8.03 -249.15,-62.15 -340.63,-101.22 -126.5,-54.01 -277.6,-84.15 -241.54,-177.76 24.15,-62.69 91.7,-44.13 154.01,-24.96 61.31,18.87 115.65,39.61 178.06,52.81 35.31,-82.27 170.74,-61.52 282.6,-127.92 32.59,-19.34 48.17,-41.54 78.75,-62.47 159.39,-109.12 268.72,68.64 399.1,72.89 36.3,-163.04 34.48,-283.42 -20.01,-436.75 -42.3,-119.04 -132.82,-238.44 -210.43,-295.99 -175.76,-130.31 -345.54,-196.55 -581.47,-154.35 -49.55,8.87 -161.82,32.15 -184.13,70.12zm357.21 414.18c-31.91,-26.91 -54.12,-37.35 -83.35,6.81 -39.07,59.03 35.61,139.5 -60.17,96.69 -60.62,-27.1 -103.72,-61.67 -177.83,-44.51 -87.53,20.27 -117.5,89.54 -99.75,189.06l-29.1 17.07c-32.73,23.46 -37.53,68.17 -29.57,107.23 13.63,66.94 67.79,70.65 107.07,24.6 36.35,17.3 75.14,42.2 129.15,43.48 74.42,1.76 73.01,-28.15 103.85,-62.7 36.97,61.31 50.52,49.22 118.52,33.79 26.35,-5.98 42.35,-0.9 68.09,-14.09 40.13,-20.57 3.94,-16.56 65.89,-23.85 76.47,-9 171.45,-87.48 201.88,-147.43 109.21,-215.19 -175.06,-376.17 -314.67,-226.17z"/>
   <path class="fil0" d="M1040.31 1589.87c123.52,58.65 251.01,-35.18 320.53,-35.16 86.98,0.03 108.16,55.62 34.32,44.63 -74.14,-11.03 -66.98,2.19 -137.06,27.48 -184.6,66.62 -256.71,-25.96 -268.93,-31.87 -22.18,-10.72 -64.95,-20.92 -90.28,-28.93 -47.18,-14.91 -138.29,-53.23 -180.87,-39.35l-7.31 47.92 427.63 176.36c174.86,61.36 314.35,-83.37 505.06,-67.56 35.06,-51.74 91.68,-119.97 106.02,-199.56 -24.46,-16.68 -59.55,-26.03 -89.15,-38.84 -92.97,-40.21 -184.35,-117.08 -280.98,-39.32 -58.68,47.22 -74.55,67.16 -163.91,96.61 -90.92,29.96 -172.68,22.83 -175.06,87.59z"/>
   <path class="fil0" d="M575.39 646.41c-101.74,8.98 -149.26,-32.87 -149.05,85.86 0.22,127.89 43.83,73.45 151.35,89.82 0.43,42.07 -3.54,96.66 8.31,135.89 32.14,16.48 37.57,13.31 82.84,13.57 95.92,0.56 82.23,-33.8 81.74,-151 65.02,-3.81 110.31,12.15 146.47,-22.53 8.94,-37.95 10.72,-92.45 -0.99,-129.62 -19.59,-28.54 -106.43,-20.76 -142.49,-20.72 -14.46,-95.12 34.56,-153.04 -84.57,-153.1 -133.16,-0.06 -76.57,47.59 -93.62,151.82z"/>
   <path class="fil0" d="M1215.64 1015.04c-83.85,30.53 -171.71,111.39 -164.37,213.67 7.4,103.07 108.49,184.23 222.56,145.92 69.09,-23.2 170.89,-108.89 163.43,-218.36 -6.88,-100.91 -108.72,-182.35 -221.62,-141.23zm84.24 319.98c-10.85,-23.4 -9.78,-10.67 -34.49,-23.46l-4.59 -42.91c-58.46,19.85 -3.7,102.31 39.08,66.37zm-96.35 -120.83c-15.22,-6.04 -21.13,-6.03 -35.31,-13.98l-5.08 -40.93c-68.01,23.14 21.15,119.48 40.39,54.91zm-22.61 129.93c-14.73,-38.46 -11.44,-5.18 -34.43,-25.09 -26.55,-22.99 8.79,-22.26 -23.76,-41.88 -39.94,27.83 13.48,100.25 58.19,66.97zm150.16 -110.75c0.75,-1.86 1.44,-6.73 1.7,-5.75 0.27,1 1.21,-4.46 1.6,-5.9 0.41,-1.52 0.89,-4.42 1.43,-6.26 0.56,-1.91 0.85,-4.45 1.51,-6.48 0.65,-1.98 1.36,-4.36 2.02,-6.2 11.8,-32.7 83.9,-13.57 58.7,-67.43 -9.31,14.8 -7.24,13.46 -17.36,25.01 -71.59,11.04 -38.75,2.14 -78,39.8 -12.43,-22.16 -23.44,-46.35 -5.07,-71.35 -54.79,24.46 -34.47,97.35 33.46,104.56z"/>
   <path class="fil0" d="M814.74 1349.9c-34.73,21.96 -58.67,-36.09 -125.2,-29.74 -16.87,35.78 -28.98,74.61 1.63,112.26 19.56,1.13 38.13,3.33 41.85,-16.09 6.47,-33.74 -11.24,3.74 -12.93,-43.52 27.46,3.2 24.92,9.83 46.34,28.34 135.08,116.74 268.71,3.23 159.24,-114.65 -22.76,-24.51 -26.85,-11.77 -29.99,-37.47 49.04,-14.2 82.87,59.28 93.26,110.04 20.55,-21.85 9.48,-24 34.78,-37.82 -46.04,148.64 45.51,122.37 141.43,85.91 -27.38,-17.85 -71.17,-43.17 -103.82,-39.08 27.11,-73.4 -39.88,3.07 -35.63,-189.43 -85.21,-14.3 -160.65,-103.01 -255.32,-39.84 -31.6,21.09 -51.14,69.91 -39.45,126.74 14.58,70.84 68.82,35.24 83.79,84.36z"/>
  </g>
  <g>
   <path class="fil1 str0" d="M332.1 10.42l1497.68 0c176.93,0 321.68,144.76 321.68,321.68l0 1537.54c0,176.93 -144.76,321.68 -321.68,321.68l-1497.68 0c-176.93,0 -321.68,-144.76 -321.68,-321.68l0 -1537.54c0,-176.93 144.76,-321.68 321.68,-321.68z"/>
  </g>
 </g>
</svg>
