<?xml version="1.0" encoding="UTF-8"?>
<!DOCTYPE svg PUBLIC "-//W3C//DTD SVG 1.1//EN" "http://www.w3.org/Graphics/SVG/1.1/DTD/svg11.dtd">
<!-- Creator: CorelDRAW -->
<svg xmlns="http://www.w3.org/2000/svg" xml:space="preserve" width="2.16188in" height="2.20173in" version="1.1" style="shape-rendering:geometricPrecision; text-rendering:geometricPrecision; image-rendering:optimizeQuality; fill-rule:evenodd; clip-rule:evenodd"
viewBox="0 0 2161.88 2201.74"
 xmlns:xlink="http://www.w3.org/1999/xlink"
 xmlns:xodm="http://www.corel.com/coreldraw/odm/2003">
 <defs>
  <style type="text/css">
   <![CDATA[
    .str0 {stroke:#856443;stroke-width:20.83;stroke-miterlimit:2.61313}
    .fil1 {fill:none}
    .fil0 {fill:#856443}
   ]]>
  </style>
 </defs>
 <g id="Layer_x0020_1">
  <metadata id="CorelCorpID_0Corel-Layer"/>
  <path class="fil0" d="M1433.96 1537.81c-11.91,-43.32 -63.78,-103.29 -51.13,-200.16 2.47,-18.94 8.71,-29.83 13.06,-49.83 3.62,-16.66 8.87,-33.84 13.74,-51.72 30.53,-112.2 20.24,-132.13 92.75,-163.17 66.78,-28.58 142.27,-19.13 204.81,15.45 56.31,31.13 24.75,43.41 50.6,77.25 28.56,-68.41 49.62,-88.6 68.91,-180.61 42.44,-202.4 -26.72,-432.78 -203.03,-526.63 -127.52,-67.89 -285.6,-45.82 -392.3,28.28 -108.02,75.01 -155.78,176.84 -164.17,305.19 -0.94,14.39 0.1,15.57 -12.2,19.07 -13.76,-9.32 -7.31,-12.57 -10.66,-47.03 -1.77,-18.26 -4.48,-35.28 -8.88,-53.09 -24.15,-97.91 -75.61,-165.97 -151.19,-222.8 -97.32,-73.17 -265.89,-96.34 -388.09,-30.16 -99.34,53.8 -175.13,151.8 -206.7,292.08 -61.03,271.19 97.25,513.83 280.06,686.51 96.71,91.35 158.08,143.1 272.37,226.27 63.92,46.52 117.92,82.23 188.43,123.24 35.94,20.91 32.29,24.87 115.64,-37.61 47.8,-35.82 99.95,-66.18 146.97,-102.3 13.83,-10.63 23.8,-17.12 36.12,-26.26 12.12,-9 22.03,-17.87 34.84,-27.46 12.4,-9.28 21.7,-18.15 34.48,-27.82 12.35,-9.35 22.78,-19.89 35.58,-26.69zm106.92 -319.86l-70.28 27.34c13,25.66 21.91,30.06 41.67,76.16l8.8 11.46c4.17,6.8 7.18,12.2 10.31,17.63 6.9,11.94 12.3,21.07 19.15,32.83 8.28,14.21 32.23,56.79 40.45,64.85 9.56,-13.37 112.28,-182.48 120.1,-202.93 -44.31,-34.19 -109.85,-34.72 -170.2,-27.34zm144.32 382.36c14.85,-16.57 72.27,-131.32 81.33,-159.59 10.32,-32.19 16.78,-71.59 10.07,-106.37 -4.63,-24.06 -13.43,-44.61 -29.3,-61.13l-17.1 -15.04 -104.42 173.56c-30.27,49.7 -24.93,35.14 5.65,85.35 8.73,14.33 43.91,75.5 53.75,83.21zm-234.15 -366.62c6.52,-8.76 17.11,-13.19 32.89,-19.85 13.85,-5.85 27.71,-10.33 40.7,-14.9 65.2,-3.5 115.5,-14.7 186.25,20.77 20.65,10.35 30.37,22.03 44.35,29.33 -3.3,-17.43 -29.9,-120.14 -36,-127.74 -15.89,-19.81 -87.73,-43.07 -124.03,-44.64 -41.63,-1.8 -105.22,16.45 -128.31,40.38 -11.43,11.85 -33.32,104.94 -38.04,128.98 8.96,-4.94 13.33,-10.42 22.19,-12.32zm-157.45 676.43c7.24,17.59 31.67,52.09 43.65,70.85 9.37,14.69 34.12,61.31 48.39,69.46 4.5,-9.85 10.12,-16.91 17.42,-24.3 40.61,-41.11 131.32,-163.96 157.71,-216.26 16.16,-32.02 11.11,-29.88 -4.99,-57.71 -19.31,-33.39 -39.09,-72.35 -61.03,-105.72l-95.85 136.72c-17.28,23.16 -30.68,42.79 -49.09,65.17l-56.21 61.8zm199.06 -588.34c-8.43,-7.81 -14.89,-22.7 -20.65,-32.81 -6.77,-11.89 -12.01,-21.93 -20.26,-32.72 -72.23,53.21 -55.18,152.51 -20.91,226.04 22.72,48.75 106.5,199.27 137.34,250.49 6.7,11.13 9.28,12.99 12.97,24.99 8.94,29.05 -0.18,10.57 15.78,25.94l60.85 94.84c33.88,53.63 70.63,110.04 116,154.14 4.3,4.18 6.06,6.7 10.1,10.74 0.37,0.36 4.94,4.64 5.46,5.04 7,5.38 -3.98,-0.39 6.65,4.11l89.71 -143.32c-98.21,-78.24 -301.22,-432.17 -383.5,-567.57 -6,-9.87 -7.91,-9.97 -9.55,-19.92zm-548.29 -126.43c8.79,4.95 11.76,2.8 25.37,3.85l4.23 16.04c14.32,-3.41 62.56,-41.56 79.63,-54.49l61.48 -43.01c19.54,-5.35 59.91,8.61 -6.84,66.52 -10.01,8.68 -17.84,15.43 -27.45,24.57 -21.16,20.13 -32.71,36.17 -64.1,64.08 -8.92,7.93 -5.67,6.25 -12.5,15.06 -11,14.15 -44.56,36.86 -41.96,60.94 71,36.28 163.94,-66.94 215.9,-46.53 24.85,41.65 -41.04,64.83 -74.89,81.22 -75.07,36.35 -162.96,69.75 -230.82,108.53 -17.39,9.93 -73.14,49.87 -83.06,62.85 -7.6,9.95 -7.04,6.88 -0.59,15.63 10.39,9.63 8.33,3.19 34.09,-17.4 71.45,-57.11 116.04,-74.33 202.22,-109.41 29.39,-11.96 143.03,-67.42 162.06,-83.76 25.69,-22.04 23.23,-61.13 -6.66,-77.65 -41.6,-23 -123.46,54.34 -189.74,51.43l165.39 -167.52c32.35,-46.17 -12.26,-94.92 -67.2,-56.76l-100.22 70.89c10.3,-19.73 77.88,-73.24 99.05,-96.28 17.48,-19.03 31.98,-22.54 48.33,-48.61 15.31,-24.41 11.3,-54.68 -12.54,-69.97 -46.55,-29.87 -99.09,41.84 -146.72,80.32 -10.64,8.59 -14.98,13.57 -25.65,22.81l-57.48 46.63c16.21,-37.53 93.89,-122.76 100.52,-135.06 25.09,-46.56 -32.59,-139.61 -135.3,-7.21 -18.54,23.91 -55.18,59.94 -82.06,94.46 -27.43,35.23 -72.39,102.5 -112.09,117.79 -31.82,-54.1 -0.27,-104.6 -12.49,-157.09 -11.48,-49.31 -67.83,-76.04 -106,-35.45 -19.87,21.13 -30.29,174.62 -37.01,226.53 -1.76,13.62 -3.61,26.17 -5.62,39.52 -3,20.03 -4.67,25 16.08,25.62 10.25,-29.88 29.64,-249.75 36.08,-268.44 9.57,-27.78 45.6,-25.43 63.47,-6.69 19.33,20.27 14.56,53.85 11.52,83.83 -4.03,39.8 -0.25,157.81 70.64,92.83 66.84,-61.26 85.93,-105.5 154.44,-177.78 21.78,-22.98 64.87,-89.96 101.18,-81.13 26.41,6.43 30.84,32.99 4.38,62 -17.18,18.82 -30.89,35.8 -46.43,57.37 -5.61,7.8 -100.39,131.55 -64.24,130.92 9.12,-0.16 16.02,-9 23.81,-15.43l118.08 -103.55c5.83,-5.01 10.09,-7.12 15.61,-12.24l43.47 -39.51c6.89,-5.42 9.24,-6.8 15.21,-12.58 41.37,-40.08 75.46,6.87 45.33,38.39l-27.49 27.91c-26.33,23.87 -65.95,54.37 -86.61,79.72 -8.45,10.37 -16.99,18.41 -27.28,28.11 -12.4,11.71 -18.92,13.71 -26.54,27.18zm426.8 -574.84c-9.57,2.66 -42.08,32.72 -51.85,40.77 -21.65,17.84 -94.65,84.09 -53.12,113.2 25.01,17.54 53.32,-9.39 66.77,-16.68 -24.69,36.82 -77.72,82.33 -55.3,112.25 36.62,48.83 89.7,-36.13 114.85,-48.41 -10.72,26.46 -53.83,83.8 -4.55,94.66 64.34,14.18 104.64,-107.98 184.61,-185.21 8.73,-8.43 32.75,-24.27 52.28,-20.85 15,13.07 16.11,53.89 22.22,78.11 25.43,100.84 83.73,96.2 95.34,64.07l-8.87 -198.97c-2.43,-15.86 -6.19,-31.31 -9.57,-45.79 -3.78,-16.24 -3.94,-36.56 -22.15,-27.82 -7.87,13.93 4.4,41.96 8.11,59.19 11.7,54.4 4.04,91.89 7.26,142.43 1.54,24.15 20.49,80.01 -13.18,68.63 -11.84,-4 -22.6,-28.17 -27.42,-39.49 -9.72,-22.81 -14.59,-46.15 -18.41,-71.33 -16.39,-107.92 -105.39,-22.84 -139.76,20.71 -15.13,19.17 -24.06,32.78 -37.85,52.14 -13.18,18.52 -22.77,33.7 -35.56,50.96 -9.37,12.65 -28.83,39.23 -56.35,31.21 -13.36,-40.15 98.72,-152.72 89.97,-169.91 -19.47,-16.72 -36.25,3.29 -47.8,17.24l-39.63 46.91c-13.23,15.56 -65.7,84.46 -95.57,70.78l-1.34 -5.75c-0.03,-3.91 -0.67,-3.66 0.58,-8.23l99.11 -123.11c11.48,-14.15 30.57,-29.89 22.61,-56.54 -20.51,-4.08 -23.55,7.22 -35.84,18.93l-64.27 57.07c-13.02,12.22 -19.27,18.93 -41.1,16.66 -3.03,-29.31 42.94,-67.96 60.08,-84.26 33.93,-32.26 84.7,-49.74 65.1,-75.08 -19.2,-27.79 -113.74,49.26 -141.5,37.41l-1.1 -11.96c14.44,-38.95 152.33,-74.64 212.61,-116.65 10.94,-7.63 31.73,-21.98 40.02,-29.61 14.43,-13.29 3.58,-31.99 -19.29,-12.03 -11.24,9.81 -26.58,21.37 -41.98,30.89 -84.31,52.1 -130.67,47.7 -185.71,91.28 -9.46,7.49 -27.75,22.94 -28.74,40.93 -3.83,69.43 115.91,-7.74 136.26,-8.74z"/>
  <g>
   <path class="fil1 str0" d="M332.1 10.42l1497.68 0c176.93,0 321.68,144.76 321.68,321.68l0 1537.54c0,176.93 -144.76,321.68 -321.68,321.68l-1497.68 0c-176.93,0 -321.68,-144.76 -321.68,-321.68l0 -1537.54c0,-176.93 144.76,-321.68 321.68,-321.68z"/>
  </g>
 </g>
</svg>
