<?xml version="1.0" encoding="UTF-8"?>
<!DOCTYPE svg PUBLIC "-//W3C//DTD SVG 1.1//EN" "http://www.w3.org/Graphics/SVG/1.1/DTD/svg11.dtd">
<!-- Creator: CorelDRAW -->
<svg xmlns="http://www.w3.org/2000/svg" xml:space="preserve" width="2.16188in" height="2.20173in" version="1.1" style="shape-rendering:geometricPrecision; text-rendering:geometricPrecision; image-rendering:optimizeQuality; fill-rule:evenodd; clip-rule:evenodd"
viewBox="0 0 2161.88 2201.74"
 xmlns:xlink="http://www.w3.org/1999/xlink"
 xmlns:xodm="http://www.corel.com/coreldraw/odm/2003">
 <defs>
  <style type="text/css">
   <![CDATA[
    .str0 {stroke:#856443;stroke-width:20.83;stroke-miterlimit:2.61313}
    .fil1 {fill:none}
    .fil0 {fill:#856443}
   ]]>
  </style>
 </defs>
 <g id="Layer_x0020_1">
  <metadata id="CorelCorpID_0Corel-Layer"/>
  <path class="fil0" d="M1116.79 1221.12l6.5 132.25 430.11 2.38c2.61,-34.13 -15.31,-143.52 32.87,-131.14 4.3,1.1 70.42,65.09 93.34,85.72 20.19,18.17 68.22,77.96 98.06,81.38 54.47,6.23 81.61,-52.39 51.03,-94.17l-171.11 -177.29c-79.12,-78.7 -73.76,-108.21 -236.71,-119.22 -87.37,-5.9 -253.41,-13.62 -315.95,32.11l-175.83 180.13c-14.99,14.65 -78.21,72.75 -85.52,85.09 -30.35,51.23 16.5,107.61 74.2,84.28 41.93,-16.96 130.35,-162.96 199,-161.52zm-376.17 -573.65c43.07,21.25 35.57,28.33 61.17,42.69 27.46,-19.55 70.56,-65.38 80.28,-99.95 -20.73,-14.41 -36.16,-28.33 -63.32,-42.34 -24.61,22.63 -68.77,68.17 -78.13,99.6zm-284.35 322.71c74.36,7.93 89.84,17.85 131.42,-30.71 32.16,-37.56 57.48,-56.41 81.59,-103.17 -24.3,-14.69 -15.59,-0.86 -28.59,-29.8 43.74,-70.24 116.78,-119.06 68.41,-123.02 -22.39,-1.83 -62.03,56.52 -75.33,73.77 -37.94,49.24 -160.02,168.46 -177.51,212.95zm1043.36 717.82c20.61,39.72 51.1,31.28 74.9,76.29 -24.04,59 -136.69,100.23 -134.07,177.35 1.44,42.29 34.91,78.61 87.04,65.98 27.85,-6.75 67.91,-55.1 87.88,-74 190.54,-180.37 185,-172.3 17.07,-365.25 -64.04,16.66 -107.93,68.54 -132.82,119.64zm-402.19 76.29c17.31,-40.93 48.71,-38.66 75.71,-76.29 -16.58,-55.34 -75.76,-94.84 -124.78,-124.92 -35.39,23.74 -120.37,115.11 -131.57,180.54 -12.47,72.9 74.7,124.53 130.99,181.5 22.2,22.47 64.68,67.71 78.52,74.88 44.6,23.11 92.49,-7.51 101.36,-41.95 22.86,-88.74 -103.76,-133.13 -130.22,-193.77zm-1.28 -326.93c26.26,0.13 125.96,-13.16 99.05,32.3 -22.99,38.85 -93.56,-9.91 -121.41,27.87 -17.34,30.28 31.7,42.35 58.03,64.15 19.76,16.36 57.25,52.79 72.3,79.46 29.03,51.43 25.25,44.69 97.37,48.85 43.04,2.48 101.06,4.21 139.89,-9.35 1.96,-1.5 4.58,-6.57 5.41,-5.03 0.81,1.5 4.09,-3.8 5.16,-5.07 36.49,-43.63 28.77,-71.63 115.56,-123.65 35.2,-21.1 41.74,-12.05 36.3,-52.44 -50.37,-26.02 -124.57,20.9 -144.46,-35.29 22.11,-32.63 76.71,-21.87 118.88,-19.67 -7.15,-48.71 -37.14,-36.26 -89.65,-35.83 -48.05,0.39 -96.25,-0.54 -144.3,-0.94 -45.21,-0.37 -90.43,-0.39 -135.64,-0.73 -65.92,-0.5 -91.11,-19.22 -112.46,35.39zm208.45 -861.91c-251.35,54.17 -163.61,430.89 88.28,365.1 222.74,-58.18 153.97,-417.31 -88.28,-365.1zm-392.63 70.39c-33.01,28.92 -64.58,68.36 -89.13,102.19 -55.09,-0.92 -17.8,-8.37 -63.66,-17.91 -14.43,25.74 -39.46,47.8 -60.26,66.05 23.95,57.72 44.72,41.04 -7.15,95.4 -100.18,104.99 -109.76,182.02 -297.72,95.52 2,-47.39 147.77,-197 188.05,-239.32 32.13,-33.74 67.66,-84.33 97.82,-114.25 19.65,-19.49 85.78,-94.11 94.6,-114.73 -327.15,-153.01 -617.18,273.41 -348.21,527.69 107.13,101.28 301.68,108.84 418.9,6.86 134.32,-116.86 145.74,-321.24 66.77,-407.51z"/>
  <g>
   <path class="fil1 str0" d="M332.1 10.42l1497.68 0c176.93,0 321.68,144.76 321.68,321.68l0 1537.54c0,176.93 -144.76,321.68 -321.68,321.68l-1497.68 0c-176.93,0 -321.68,-144.76 -321.68,-321.68l0 -1537.54c0,-176.93 144.76,-321.68 321.68,-321.68z"/>
  </g>
 </g>
</svg>
