<?xml version="1.0" encoding="UTF-8"?>
<!DOCTYPE svg PUBLIC "-//W3C//DTD SVG 1.1//EN" "http://www.w3.org/Graphics/SVG/1.1/DTD/svg11.dtd">
<!-- Creator: CorelDRAW -->
<svg xmlns="http://www.w3.org/2000/svg" xml:space="preserve" width="2.16188in" height="2.20173in" version="1.1" style="shape-rendering:geometricPrecision; text-rendering:geometricPrecision; image-rendering:optimizeQuality; fill-rule:evenodd; clip-rule:evenodd"
viewBox="0 0 2161.88 2201.74"
 xmlns:xlink="http://www.w3.org/1999/xlink"
 xmlns:xodm="http://www.corel.com/coreldraw/odm/2003">
 <defs>
  <style type="text/css">
   <![CDATA[
    .str0 {stroke:#856443;stroke-width:20.83;stroke-miterlimit:2.61313}
    .fil1 {fill:none}
    .fil0 {fill:#856443}
   ]]>
  </style>
 </defs>
 <g id="Layer_x0020_1">
  <metadata id="CorelCorpID_0Corel-Layer"/>
  <g id="_1338933959600">
   <path class="fil0" d="M689.18 2010.62c29.72,8.43 43.2,14.62 72.57,-1.69 48.39,-26.87 37,-84.29 36.75,-136.54 -0.54,-111.64 5.8,-82.2 -22.65,-100.24 -21.54,-13.67 -37.43,-36.35 -41.13,-63.94 -4.54,-33.78 46.86,-179.28 59.79,-220.94 9.16,-29.52 15.95,-50.85 39.93,-68.12 6.24,-4.49 14.76,-7.8 20.84,-12.39 -14.28,-66.24 5.96,-104.91 51.07,-129.33 11.2,-6.06 24.41,-10.08 38.82,-11.14 41.92,-3.07 19.9,14.91 49.81,-12.96 16.7,-15.56 38.56,-18.46 46.83,-24.17 -15.31,-30.11 -20.77,-65.24 -6.06,-100.57 16.66,-40 38.26,-47 57.47,-62.64 -6.96,-35.77 -26.21,-86.46 -37.76,-123.21 -14.96,-47.61 -18.8,-82.28 -60.94,-97.41 -33.47,-12.01 -279.49,2.99 -313.63,-5.63l-3.63 1.86c-14.5,6.42 11.31,-4.17 -3.73,1.56 -17.89,6.82 -22.09,6.16 -37.59,22.37 -13.3,13.92 -14.88,24.29 -21.84,45.38l-96.77 311.17c-10.33,34.11 -23.53,69.82 -32.52,104.41 -17.19,66.17 48.87,109.62 99.5,87.3 8.38,-3.69 15.93,-8.51 20.48,-13.05l14.49 -18.95c10.88,-19.79 25.11,-81.65 31.84,-95.72 1.63,-3.4 2.05,-3.7 3.41,-5.42 0.76,31.58 -2.11,65.54 -2.7,97.35 -1.17,63.92 -2.1,551.65 0.3,575.67 1.22,12.3 7.01,26.06 13.1,34.76 5.74,8.2 19.99,18.19 23.95,22.23z"/>
   <path class="fil0" d="M861.52 1731.38c-1.22,68.14 -0.07,137.56 0.15,205.82 0.11,33.34 -3.89,64.23 20.52,81.33 27.61,19.35 51.73,7.95 71.8,-12.03 16.52,14.54 42.79,34.75 71.87,12.09 24.69,-19.24 20.76,-45.91 20.67,-81.39 -0.18,-67.98 0.22,-136.62 -0.74,-204.39 17.18,4.79 26.12,21.67 56.55,9.35 56.59,-22.91 17.32,-96.28 -1.11,-156.21 -47.44,-154.21 -28.7,-143.97 -147.24,-143.98 -119.23,-0.01 -101.65,-10.52 -148.01,143.16 -19,63 -57.01,130.44 -3.67,155.7 25.9,12.26 41.5,1.49 59.2,-9.46zm25.91 -152.98c3.43,125 1.06,254.98 0.85,380.44 -0.03,14.5 -0.95,27.83 7.96,36.22 9.83,9.26 24.65,7.1 32.59,-1.39 11.69,-12.51 6.94,-68.96 6.94,-90.08l-0.09 -141.74c0.04,-15.87 1.77,-28.67 18.32,-28.24 25.3,0.64 18.3,38.76 18.49,73.98 0.14,25.21 -3.61,172.8 5.39,184.88 7.37,9.88 22.92,11.61 32.87,4.02 11.22,-8.55 9.46,-23.61 9.37,-40.09 -0.2,-36.7 -2.51,-351.29 -0.05,-380.76 10.85,37.69 24.92,78.41 36.97,116.93 13.56,43.36 41.19,23.22 44.72,18.02 10.1,-14.8 -3.72,-45.84 -9.31,-63 -12.57,-38.59 -25.26,-79.37 -37.2,-118.89 -22.35,-73.95 -15.26,-60.48 -98.87,-60.48 -100.57,0 -82.11,-8.26 -102.88,54.11 -13.15,39.49 -25.75,80.68 -37.63,120.77 -4.21,14.2 -18.28,49.27 -13.65,61.73 7.22,19.4 36.71,21.21 45.63,-5.75 7.2,-21.77 31.57,-109.73 39.57,-120.67z"/>
   <path class="fil0" d="M1213.33 805.73l-0.13 43.96 -0.05 33.75 -119.33 0.2 48.23 157.08c20.54,6.41 46.56,4.92 68.75,5.17l2.98 12.37c4.93,16.01 23.94,9.89 46.67,54.11 18.69,36.35 16.14,54.56 9.96,95.23 124.95,0.58 105.03,15.09 105.03,-76.83 0,-28.35 0.16,-56.75 -0.06,-85.1 28.17,0.61 56.81,0.13 85.03,0.13 20.5,0 65.24,7.39 75.32,-8.26 3.76,-12.35 2.61,-136.1 -0.7,-149.86 -18.18,-8.26 -129.55,-4.89 -159.46,-3.83l-0.12 -122.7c0.03,-19.88 3.29,-30.16 -6.33,-36.41 -9.38,-5.42 -135.52,-5.35 -150.08,-0.71 -11.42,16.19 -6.26,57.59 -5.71,81.72z"/>
   <path class="fil0" d="M1018.78 605.68c18.49,-5.41 427.64,-1.92 496.84,-1.85 33.8,0.03 61.63,-4.02 83.75,15.96 26.2,23.66 25.9,38.56 25.87,74.15l0.2 504.02c0.04,45.03 12.02,126.61 -73.78,128.2 -66.48,1.23 -134.52,0.06 -201.16,-0.06l15.36 52.24c38.89,3.86 97.53,0.52 137.75,0.58 46.2,0.07 83.4,2.97 118.33,-19.52 70.31,-45.26 56.87,-119.49 56.89,-216.65l0.06 -410.42c0,-21.91 1.28,-48.04 -0.64,-69.45 -2.27,-25.21 -11.69,-35.51 -15.69,-52.85 -11.76,-8.35 -11.83,-24.35 -49.01,-45.14 -22.72,-12.71 -47.79,-14.36 -76.33,-14.35 -61.6,0 -123.2,-0.13 -184.81,-0.13 -61.6,0 -123.2,-0.06 -184.81,-0.13 -48.85,-0.06 -134.72,-5.78 -176.99,7.66 4.05,14.33 14.44,27.5 19.01,48.17l9.16 -0.44z"/>
   <path class="fil0" d="M756.59 768.75c27.95,10.11 42.95,25.25 90.52,19.48 77.1,-9.35 129.7,-85.21 113.54,-160.81 -3.4,-15.9 -13.34,-29.98 -14.9,-42.54 -6.63,-3.94 -12.41,-14.53 -18.27,-20.45 -118.9,-120.28 -296.62,35.46 -208.72,165.53 17.7,26.19 27.63,26.77 37.83,38.79z"/>
   <path class="fil0" d="M1017.38 1287.03c7.22,7.12 8.75,11.42 18.21,18.46 20.72,-11.78 18.32,-10.16 48,-10.09 195.8,0.44 165.16,-20.23 200.15,88.93l55.11 177.53c4.75,14.38 12.15,30.23 5.25,45.28 -5.5,12 -19.46,23.61 -38.79,19.49 -26.53,-5.65 -33.16,-45.49 -41.36,-73.89 -5.31,-18.41 -21.46,-76.32 -28.8,-88.96 -3.07,68.78 0.02,144.63 0.06,214.21 0.05,71.2 0.24,142.41 0.3,213.61 0.03,29.72 7.19,78.33 -12.87,93.5 -10.69,8.09 -27.37,9.41 -40.15,2.06 -12.57,-7.24 -15.94,-20.01 -15.92,-40.33 0.07,-68.85 3.6,-147.7 -0.21,-215.34 -16.57,31.95 -37.88,39.22 -40.19,44.91 -2.44,6 2.63,177.43 -1.65,192.06 -2.08,7.1 -8.25,14.1 -13.49,17.84 -7.5,5.35 -14.04,4.58 -22,6.9 -6.39,1.85 -6.01,8.67 -10.42,24.31 42.86,5.28 51.2,-11.29 67.37,-30.28 1.43,1.29 1.72,1.46 3.76,3.76l12.68 13.83c23.44,18.39 51.3,19.01 74.69,1.94 32.49,-23.72 25.04,-62.58 25.03,-110.35 -0.01,-43.09 -2.68,-243.34 0.28,-267.64 38.8,52.74 128.41,17.22 108.15,-55.34 -20.88,-74.76 -55.04,-177.3 -79.98,-256.13 -9.65,-30.5 -27.95,-47.8 -65.36,-48.18 -37.51,-0.38 -75.3,0.06 -112.84,0.06 -40.37,0 -70.61,-6.08 -95.01,17.86z"/>
   <path class="fil0" d="M1126.99 1098.77c-98.97,25.19 -59.04,174.17 38.57,147.57 34.4,-9.37 64.74,-46.15 54.24,-91.13 -8.57,-36.75 -45.73,-68.42 -92.81,-56.44zm4.75 26.33c-63.03,19.8 -35.58,112.59 27.11,95.45 22.78,-6.23 43.52,-32.32 34.45,-62.48 -6.69,-22.25 -31.62,-42.38 -61.56,-32.97z"/>
   <path class="fil0" d="M938.56 1309.33c-81.58,21.04 -50.12,142.36 30.61,121.99 79.41,-20.04 49.51,-142.65 -30.61,-121.99zm3.72 27.05c-46.08,15.26 -22.93,83.52 23.8,68.11 42.74,-14.09 22.48,-83.43 -23.8,-68.11z"/>
  </g>
  <g>
   <path class="fil1 str0" d="M332.1 10.42l1497.68 0c176.93,0 321.68,144.76 321.68,321.68l0 1537.54c0,176.93 -144.76,321.68 -321.68,321.68l-1497.68 0c-176.93,0 -321.68,-144.76 -321.68,-321.68l0 -1537.54c0,-176.93 144.76,-321.68 321.68,-321.68z"/>
  </g>
 </g>
</svg>
