<?xml version="1.0" encoding="UTF-8"?>
<!DOCTYPE svg PUBLIC "-//W3C//DTD SVG 1.1//EN" "http://www.w3.org/Graphics/SVG/1.1/DTD/svg11.dtd">
<!-- Creator: CorelDRAW -->
<svg xmlns="http://www.w3.org/2000/svg" xml:space="preserve" width="2.16188in" height="2.20173in" version="1.1" style="shape-rendering:geometricPrecision; text-rendering:geometricPrecision; image-rendering:optimizeQuality; fill-rule:evenodd; clip-rule:evenodd"
viewBox="0 0 2161.88 2201.74"
 xmlns:xlink="http://www.w3.org/1999/xlink"
 xmlns:xodm="http://www.corel.com/coreldraw/odm/2003">
 <defs>
  <style type="text/css">
   <![CDATA[
    .str0 {stroke:#856443;stroke-width:20.83;stroke-miterlimit:2.61313}
    .fil1 {fill:none}
    .fil0 {fill:#856443}
   ]]>
  </style>
 </defs>
 <g id="Layer_x0020_1">
  <metadata id="CorelCorpID_0Corel-Layer"/>
  <g id="_1338937352752">
   <path class="fil0" d="M671.71 659.75c5.94,-1.22 5.76,-3.46 9.26,-7.5l6.29 -4.74c0.01,4.29 -1.3,6.07 -3.07,9.47l-1.47 2.73c9.07,0.08 9.32,-2.94 17.42,-4.51l-15.57 12.55c-16.76,11.69 -32.01,28.91 -43.08,45.98l-11.15 18.15c-2.53,3.89 -3.01,3.8 -5.31,8.71 -1.76,3.76 -2.91,6.58 -5,10.16 -11.83,20.22 -23.61,73.04 -24.89,93.63 -1.41,22.76 -4.47,46.78 -0.65,70.14 0.75,4.59 0.53,9.89 1.44,14.14 1.47,6.88 3.83,16.53 5.52,24.68 6.26,30.3 13.46,60.81 2.41,91.54l-7.54 21.85c-7.41,22.07 -22.6,51.95 -40.32,64.46 -11.6,8.19 -15.04,10.72 -21.43,23.31 -2.1,4.14 -1.24,-0.38 -2.14,5.4 -0.3,1.92 -0.25,5.63 -0.22,7.67 0.1,5.61 0.26,8.11 2.41,11.99 13.94,25.14 46.09,25.92 39.43,48.86 -1.46,5.04 -4.62,10 -7.14,14.44 -0.87,1.52 0.04,-0.11 -1.11,2.08l-1.14 2.24c-6.19,10.35 -14.48,11.83 -17.5,29.26 -3.25,18.75 21.82,34.06 21.66,38.57 -0.12,3.54 -29.3,17.9 -8.86,47.4 7.29,10.52 14.48,9.43 22.31,24.46 1.65,3.16 6.24,13.73 6.77,17.1 2.27,14.31 -3.2,28.91 -3.2,44.41 0,28.97 36.49,67.58 57.5,72.31 6.72,1.51 8.73,2.77 15.15,4.28 4.2,0.99 3.51,1.34 6.7,1.95 35.59,6.83 109.99,10.53 142.82,9.58l75.89 -4.38c5.55,13.33 7.15,34.41 9.79,48.09 1.15,5.95 0.88,12.9 2.93,17.94l7.82 51.87c0.57,6.07 2.65,10.41 3.43,16.74 1.38,11.21 6.53,25 -0.52,33.97 -1.81,2.3 -3.08,2.58 -5.07,4.51 -1.83,1.78 -2.91,3.28 -4.74,5.12 -3.52,3.53 -7.14,6.34 -10.73,9.82 -12.1,11.72 -29.48,27.35 -40.73,39.54l-29.26 30.33 -15.91 23.97c-11.2,27.07 -11.65,57.06 -15.17,85.75 -1.29,10.47 -1.39,28.25 -1.67,38.66 -0.36,13.6 -1.13,26.3 -1.3,39.12 -0.05,3.51 -2.74,35.12 0.06,38.14l5.6 1.34c15.59,0.83 31.16,-0.83 46.69,-0.98 19.16,-0.19 34.42,-0.83 51.87,-2.63 16.51,-1.71 32.96,-2.61 49.98,-4.31 23.6,-2.36 47.18,-6.91 71,-10.28 16.96,-2.39 50.88,-9.48 67.52,-13.84l65.07 -16.45c14.26,-4.01 37.6,-10.49 51.2,-17 7.54,-3.61 18.92,-5.64 29.99,-11.08 2.67,-1.31 6.91,-1.68 10.26,-2.89 4.69,-1.7 6.57,-1.4 10.89,-3.41l57.18 -24.17c8.43,-2.8 10.5,-6.05 17.82,-8.92 18.85,-7.39 37.17,-18.06 54.97,-26.59 14.85,-7.11 28.82,-16.95 43.76,-23.68l6.48 -3.32c8.29,-3.98 4.67,-3.51 10.4,-6.8 3.16,-1.81 6.11,-3.06 9.24,-4.9 1.69,-0.99 -0.12,0.18 1.93,-1.26l6.42 -4.41c2.89,-1.8 6.01,-3.37 8.05,-5.48 -0.2,-7.82 -7.34,-17.14 -11.04,-24.19l-18.8 -40.98c-2.7,-5.82 -4.93,-10.71 -7.62,-16.22l-27.15 -56.28c-7.65,-13.23 -12.26,-26.98 -19.62,-40.09l-33.67 -64.12c-0.72,-1.21 -0.99,-1.5 -1.28,-1.85 -3.81,-4.54 -8.83,-3.83 -14.78,-4 -1.23,-1.54 -0.54,-0.61 -1.43,-2.82 -0.52,-1.31 -0.67,-2.2 -1.1,-3.34 -1.5,-3.93 -1.07,-1.05 -2.19,-5.27 -0.72,-2.72 -0.65,-4.22 -1.38,-6.19 -4.72,-12.7 -4.74,-19.37 -6.25,-24.25 -1.29,-4.16 -1.54,-1.48 -2.67,-5.6 -0.71,-2.59 -0.36,-4.42 -0.87,-6.98l-1.84 -5.55c-2.39,-9.08 -0.4,-20.65 -1.63,-30.18 -1.31,-10.16 -4.78,-33.91 3.66,-41.04 8.48,-7.16 65.18,-38.49 77.87,-46.91 35.4,-23.48 46.93,-25.32 83.1,-57.83l14.96 -16.44c1.37,-1.67 2.07,-2.54 3.39,-4.32 1.73,-2.34 0.52,-0.9 1.88,-2.35l2.23 -2.1c1.62,-1.66 2.21,-2.7 3.51,-4.1 1.41,-1.52 2.31,-2.01 4.04,-3.61 2.99,-2.76 4.4,-5.49 7.19,-8.98l19.5 -26.12c3.18,-4.36 5.52,-9.91 9.52,-14.24 5.33,-5.75 18.07,-26.44 21.98,-33.39l11.27 -20.2c4.01,-7.45 6.28,-13.43 9.87,-21.63 6.81,-15.51 11.37,-30.6 16.09,-46.87 5.85,-20.17 12.09,-40.08 15.97,-60.63l4.07 -27.98c11.62,-61.1 19.67,-138.33 8.03,-199.74 -1.85,-9.8 -3.49,-19.91 -5,-29.9l-7.07 -28.79 -15.34 -36.65c-7.63,-14.16 -20.29,-27.17 -34.17,-35.05 -4.46,-2.53 -8.3,-3.64 -12.79,-5.63 -0.07,-13.94 0.47,-25.75 -3.46,-38.8 -3.82,-12.65 -7.49,-18.81 -13.12,-29.3 -2.75,-5.12 -8.09,-11.21 -12.09,-16.01l-25.16 -31.28c-14.72,-17.29 -46.21,-46.4 -66.7,-60.07l-18.81 -12.56c-16.79,-8 -31.72,-17.84 -49.16,-24.6 -2.86,-1.11 -4.56,-1.74 -7.93,-3.08l-70.22 -25.08c-10.97,-3.7 -21.33,-5.68 -33.11,-9.13 -5.66,-1.66 -11.77,-2.04 -17.16,-3.38 -9.78,-2.42 -86.09,-9.64 -97.22,-10.2 -31.45,-1.59 -90.97,-5.48 -121.75,0.66 -6.22,1.24 -11.72,1.19 -17.74,2.83 -6.52,1.78 -21.43,3.57 -26.67,6.02l-32.11 9.02c-8.89,1.91 -16.23,4.91 -24.15,8.31 -2.83,1.21 -4.03,2.02 -6.34,3.29 -4.75,2.61 -18,6.35 -24.17,8.33 -6.54,2.1 -8.83,3.76 -14.61,6.1 -3.04,1.23 -4.72,1.66 -7.65,3.24 -2.73,1.47 -3.95,2.48 -7.05,3.5 -3.56,1.18 -4.2,1.2 -7.36,2.7l-29.08 13.18c-28.02,13.86 -46.6,25.51 -70.25,46.91 -3.87,3.5 -7.35,6.65 -10.79,9.83 -15.61,14.42 -17.25,16.69 -31.52,32.49l-9.38 11.17c-10.58,13.55 -22.33,22.92 -23.18,43.44zm326.17 -106.46c-5.04,0.7 -17.88,-0.72 -25.1,-0.5 -20.22,0.62 -28.14,16.7 -56.7,23.4 -10.44,2.45 -35,6.81 -41.55,11.63l-14.13 12.95c-18.33,19.19 -31.85,16.1 -47.63,32.61 -6.36,6.65 -12.53,14.46 -19.97,20.11 -13.26,10.08 -31.36,11.5 -44.88,21.46 -8.95,6.59 -2.11,23.41 2.76,30.55 2.43,3.57 4.11,4.16 4.12,9.78 -11.35,-0.26 -15.08,-21.96 -18.33,-26.62 -4.98,-0.22 -5.6,2.18 -8.91,5.88 -4.77,5.33 -8.24,12.42 -12.57,17.86 -4.96,6.22 -7.7,12.32 -10.41,19.96 -0.96,2.7 -3.5,6.81 -5.01,10.41 -1.95,4.65 -2.95,6.28 -5.3,9.61 -2.83,4.03 -4.74,5.5 -2.08,10.72 2.96,3.01 18.38,-6.07 21.35,-7.75 3.22,-1.82 7.86,-3.41 11.13,-5.36 3.47,-2.06 5.25,-5.86 10.56,-3.16 -0.98,8.93 -35.3,19.53 -44.29,28.2 -1.69,1.63 -2.42,2.78 -3.88,4.74 -0.74,0.99 -1.14,1.54 -1.91,2.5 -3.33,4.13 -5.77,10.31 -6.62,15.85 -4.54,29.58 8.56,51.89 32.05,66.84 5.33,3.39 11.01,5.53 15.63,9.26l42.65 33.23c6.72,6.11 13.95,10.48 20.85,16.03l21.75 13.84c9.97,4.58 20.91,3.52 32.38,4.79 7.57,0.83 17.61,8.37 22.46,13.21l16.02 17.47c18.22,17.69 18.18,23.8 43.38,33.73 6.98,2.75 11.63,9.76 15.53,0.38l3.89 -10.27c0.86,-1.76 1.87,-2.86 2.73,-4.92 3.09,-7.32 -2.67,-14.26 -6.47,-20.39 -5.41,-8.72 -14.8,-14.86 -23.19,-20.18 -5.66,-3.59 -6.66,-0.97 -6.64,-7.55 3.61,0.05 8.45,2.15 10.87,4.28l10.63 8.98c0.16,0.15 0.38,0.39 0.54,0.54l12.35 11.49c4.29,4.65 6.06,7.28 13.88,6.61 5.38,-6.27 8.25,-8.4 14.46,-13.64 12.83,-10.85 23.32,-13.69 38.09,-20.52 12.47,-5.77 3.44,-36.32 1.5,-46.96l-2.78 -18.65c-3.27,-12.53 -0.78,-22.43 -18.96,-32.11 -3.43,-1.83 -7.1,-3.26 -8.56,-6.83 7.47,-0.25 8.75,1.99 13.29,5.22 4.29,3.06 7.31,6.02 12.84,5.65 3.79,-6.09 4.82,-22.99 14.91,-27.53 3.76,-1.69 3,-0.64 4.77,0.43 -1.52,3.85 -4.63,5.22 -7.06,9.41 -7.95,13.69 -7,28.7 -4.99,43.5 1.46,10.78 5.32,63.54 21.74,60.16 4.73,-0.97 9.89,-2.03 14.17,-3.13 28.72,-7.42 34.91,6.88 43.18,-24.53 1.76,-6.69 1.65,-23.21 4.37,-28.77 3.96,0.28 4.29,0.42 4.07,9.5 -0.11,4.42 -0.53,11.32 -2.01,15.33 -0.09,0.24 -0.24,0.5 -0.33,0.73l-2.09 7.77c-0.39,4.85 -0.2,9.5 0.15,14.33 13.98,0.64 30.64,-3.71 44.13,-5.93 31.76,-5.21 38.63,-4.19 58.65,-27.34 2.48,-2.87 5.49,-5.14 7.86,-8.37l7.32 -9.96c13.13,-17.36 13.7,-37.55 26.59,-58.93 1.31,-2.18 2.41,-3.75 3.68,-5.19l3.68 -2.2c0.18,-0.01 0.61,0.09 0.76,0.09 0.16,0 0.54,0.05 0.79,0.16 0.81,2.74 -10.89,24.29 -12.54,28.39 -2.52,6.24 -3.73,12.3 -6.94,19.04 -2.61,5.48 -5.22,12.18 -8.87,17.13 -2.11,2.86 -1.34,2.69 -3,5.66 -4.26,7.6 -12.01,11.72 -12.05,24.15 8.42,-1.88 16.74,-4.69 24.05,-8.94 14.4,-8.37 21.74,-10.8 40.43,-22.32l21.43 -10.18c0.02,6.1 -3.78,4.78 -14.52,13.74l-18.91 10.61c-5.31,2.46 -8.12,4.81 -12.87,7.57 -26.15,15.15 -70.93,30.67 -102.87,34.91 -9.14,1.21 -15.46,4.35 -24.89,5.08l-45.54 3.99c-16.26,1.13 -50.15,8.25 -65.46,13.37 -14.06,4.7 -26.02,12.44 -36.69,22.8 -6.26,6.08 -13.17,13.11 -18.59,21.54 -15.91,24.74 -7.48,28.47 -2.45,44.5 2.33,7.44 7.28,14.52 13.53,18.99l1.34 0.86c2,1.39 1.32,0.82 2.8,2.34l2.09 2.26c16.57,15.67 11.35,2.28 28.6,28.06 5.81,-1.41 3.24,-2.93 8.89,-3.69 -0.17,6.7 -2.38,9.41 -0.82,17.31 3.97,20.16 34.08,34.28 52.32,39.31 11.23,3.09 68.62,-1.31 104.76,6.22 3.73,0.78 14.04,1.89 16.02,2.7 2.06,0.85 1.98,1.66 5.48,2.85 22.11,7.5 28.06,10.72 47.33,18.72 2.48,1.03 4.11,1.25 6.5,2.3l18.15 7.09c0.28,0.1 0.56,0.21 0.85,0.31l39.74 17.39c4.45,1.87 9.59,3 13.8,4.76 2.48,1.04 12.26,4.72 14.51,5.18 20.07,4.05 6.1,1.42 22.71,0.36 1.62,-0.1 2.69,-0.05 4.3,-0.44 5.5,-1.34 -0.22,0.19 3.76,-1.74 12.13,-5.91 10.48,-2.92 22.86,-14.15l20.53 -25.03c3.47,-4.36 9.85,-12.47 14.84,-14.59 3.17,7.04 -11.04,20.77 -15.37,26.01 -1.22,1.48 -1.82,2.51 -3.31,4.35l-4.94 5.84c-0.15,0.16 -0.37,0.39 -0.52,0.56 -0.15,0.16 -0.38,0.39 -0.53,0.54 -0.15,0.16 -0.39,0.38 -0.54,0.54 -3.74,3.79 -7.35,8.07 -11.82,10.76 -3.34,2 -6.65,3.26 -9.31,6.16 -2.28,2.48 -1.83,2.59 -3.11,4.52 -2.3,3.47 -2.96,-3.51 -1.91,5.81 12.58,6.23 46.02,1.83 59.22,-4 18.31,-8.09 47.73,-22.59 61.87,-35.61 5.99,-5.52 23.42,-21.63 23.2,-31.73 -3.78,0.92 -21,10.76 -29.4,13.82 -4.74,1.72 -11.45,4.91 -15.9,5.21 -5.9,0.39 -15.91,1.57 -19.06,-1.9 10.56,-7.2 34.07,-4.58 47.31,-13.98 4.76,-3.38 7.92,-4.8 12.62,-7.91 14.07,-9.31 17.67,-23.01 24.65,-37.12 2.78,-5.61 3.26,-10.61 3.36,-18.55 8.04,0.91 1.8,0.87 5.03,2.3 2.37,1.05 1.57,0.72 5.17,0.59 4.49,-13.84 15.81,-18.39 11.86,-36.26 -2.19,-9.9 -8.85,-16.78 -11.22,-26.2 -4.9,-19.49 -6.93,-35.58 -7.27,-57.03 -0.16,-9.86 -4.39,-20.22 -11.67,-26.06 -1.46,-1.17 -6.92,-3.92 -4.59,-6.52 1.76,-1.06 -0.11,-1.81 3.91,-0.49 4.27,1.41 4.88,5.96 10.48,6.11 7.3,-15.59 -0.06,-45.39 -6.56,-60.87l-7.17 -17.98c-2.66,-7.29 -13.71,-22.19 -18.73,-28.86l-9.97 -13.85c-8.76,-11.39 -13.33,-31.13 -15.44,-45.48 -0.74,-5.07 -1.3,-4.17 -2.56,-9.27 -2.28,-9.15 -3.59,-9.22 -7.61,-16.06 -3,-5.09 -6.23,-11.79 -15.64,-9.76 -10.15,2.2 -18.67,15.01 -21.15,26.75 -1.52,7.21 -2.11,14.11 -1.68,22.44 0.31,5.8 4.71,15.94 1.15,21.42 -7.41,-2.65 -8.99,-23.14 -7.34,-33.13 1.54,-9.31 4.28,-16.51 -5.72,-21.93 -3.06,-1.67 -4.66,-2.39 -5.53,-5.61 11.75,-0.38 4.75,4.17 16.42,3.15 3.79,-3.35 5.06,-8.12 9.35,-12.06 4.55,-4.19 9.91,-5.54 13.53,-9.34 -0.21,-6.6 -7.89,-13.54 -14.45,-14.88 -9.84,-2.02 -22.5,4.07 -21.89,-6.19l14.07 -1.02c0.23,-0.07 0.59,-0.28 0.78,-0.35 3.43,-1.26 -4.23,-9.6 -5.08,-10.79l-8.05 -11.47c-4.8,-6.91 -11.93,-14.52 -25,-12.66 -5.43,0.77 -8.25,3.87 -10.81,7.61 -5.22,7.64 -3.1,20.01 -10.69,31.81 -7.94,12.36 -20.48,8.07 -24.84,28.46 -2.23,10.46 -4.81,17.76 -11.44,26.11 -2.86,3.61 -5.37,6.15 -9.86,8.63 -8.28,4.57 -36.66,15.56 -42.7,11.89 3.58,-9.64 45.5,-9.26 53.74,-31.19 2.83,-7.54 4.86,-16 3.36,-26.08 -2.93,-1.91 -8.26,-4.09 -9.72,-7.47 12.19,-1.55 6.79,7.66 24.04,-3 6.58,-4.06 12.13,-8.48 15.86,-15.54 5.52,-10.46 3.61,-25.17 14.65,-33.17 3.61,-2.61 8.52,-2.05 11.72,-4.69 -3.28,-3.07 -5.31,-4.02 -9.52,-6.05 -10.77,-5.2 -16.95,-15.34 -25.78,-22.88 -13.04,-11.13 -8.18,-10.2 -26.73,-20.88 -4,-2.3 -6.91,-4.18 -12.97,-3.57 -6,9.22 3.19,27.05 -7,45.22 -12.84,22.89 -31.56,18.31 -40.82,41.77 -1.21,3.06 -7.11,14.78 -9.58,17.49 -15.35,16.86 -37.33,16.22 -56.42,25.94l-16 11.08c-17.43,15.74 -27.22,38.13 -36.04,59.25 -6.9,16.52 -7.25,32.83 -12.52,49.02 -1.8,5.54 0.14,3.09 -3.8,4.9 -0.19,-0.3 -0.39,-1.1 -0.45,-0.95 -0.06,0.15 -0.33,-0.69 -0.41,-0.96 -0.07,-0.28 -0.24,-0.64 -0.31,-0.99 -0.07,-0.35 -0.15,-0.63 -0.2,-1.03 -1.8,-12.39 3.81,-28.08 7.3,-39.61l18.98 -43 14.61 -22.15c0.14,-0.18 0.35,-0.42 0.49,-0.6l4 -4.56c1.77,-1.53 1.41,-1.06 3.1,-2.38 7.63,-5.99 15.24,-12.49 25.15,-15.97 14.91,-5.23 32.18,-7.48 43.4,-18.5 8,-7.84 4.11,-2.59 6.68,-14.25 1.9,-8.59 1.58,-8.58 -0.37,-17.16 -1.47,-6.46 -5.79,-12.58 -2.7,-17.23 6.37,3.64 6.49,16.61 9.76,22.95 4.04,-1.11 8.52,-9.64 16.44,-14.93 8.1,-5.41 11.88,-5.12 18.9,-12.56 3.99,-4.23 9.44,-14 10.07,-21.31 0.83,-9.67 -0.06,-21.94 -1.16,-31.41 -3.03,-6.17 -25.19,-7.6 -33.04,-10 -5.42,-1.65 -10.5,-2.4 -11.8,4.23 -0.86,4.38 -1.92,14.78 -5.91,16.43 -3.54,-5.54 0.65,-15.63 -1.11,-22.51 -1.44,-5.67 -9,-7.6 -13.65,-10.28 -5.66,-3.27 -9.28,-6.24 -14.14,-9.65 -16.5,-11.57 -38.87,-6 -49.21,9.96 -3.47,5.35 -5.75,9.28 -8.61,15.19 -1.29,2.67 -2.74,5.72 -3.64,8.18 -2,5.51 -0.59,5.55 -5.07,8.5l-0.92 -1.69c-0.49,-1.55 -0.46,-0.42 -0.72,-2.9 -0.11,-1.01 0.23,-5.42 0.39,-6.55 0.45,-3.18 1.75,-7.87 2.97,-10.33l5.35 -9.83c6.17,-8.91 14.02,-18.31 24.78,-21.44l9.81 -3.94c-1.33,-2.11 -0.13,-0.28 -1.85,-1.92 -4.26,-4.03 -11.01,-7.96 -17,-9.92 -21.11,-6.93 -52.55,-5.05 -75.28,-2.09 -6.13,0.8 -9.88,-1.35 -9.58,5.25 22.01,6.19 9.05,3.73 34.94,3.91 6.85,0.05 12.87,0.78 17.59,3.5 4.6,2.66 8.56,5.83 6.28,12.14 -6.8,-1.01 -3.93,-7.2 -8.69,-9.44 -6.78,-3.19 -36.42,7 -58.92,-7.56 -5.78,-3.74 -5.3,-6.27 -14.82,-6.76 -0.1,-0.25 -0.38,-2.52 -1.08,-3.36l-11.91 0c-4.63,8.09 -4.36,-0.45 -11.05,18.74l-1.27 2.9c-0.14,0.3 -0.34,0.69 -0.56,1.02 -0.51,-14.28 6.45,-10.73 3.76,-22.63 -11.79,-5.17 -29.32,0.07 -44.02,-0.02 -5.33,-0.03 -11.1,-0.5 -16.18,0.55z"/>
   <path class="fil0" d="M997.88 553.29l3.22 1.31c7.85,1.62 17.71,0.67 25.45,-0.32 30.11,-3.87 32.04,-1.96 27.46,9.25 -4.7,11.52 -3.4,20.52 -7.44,25.81 -4.57,-0.15 -6,-3.02 -8.77,-5.01l-12.28 -7.02c-4.5,-2.22 -12.76,-1.28 -17.98,-1.32 -27.96,-0.23 -55.71,10.09 -72.19,31.43 -22.27,28.85 -6.95,38.01 -28.73,35.73 -5.96,-0.62 -4.26,-1.52 -9.3,-2.75 -3.76,-0.91 -6.9,-0.39 -10.79,-1.38 -4.28,-1.1 -3.73,-2.12 -9.09,-2.43 -10.24,-0.59 -12.29,0.28 -20.53,-3.78 -2.37,-1.17 -4.93,-3.05 -7.03,-4.89 -2.62,-2.29 -3.74,-4.61 -6.62,-2 -5.19,5.18 10.7,8.65 11.55,15.72 -3.14,2.66 -14.28,5.25 -18.84,7.3 -11.93,5.36 -13.58,6.65 -23.39,14.61 -17.02,13.81 -29.81,30.92 -33.57,54.46 -3.24,20.3 9.67,33.13 7.76,40.03 -7.07,0.52 -21.38,-2 -26.14,5.26 -4.22,6.43 23.82,-2.74 36.89,3.74 19.65,9.76 16.23,17.05 26.77,15.67 -1.04,-8.37 -12.87,-14.07 -18.17,-19.77 -2.48,-2.67 -4.13,-3.42 -6.32,-5.76 -9.28,-9.91 -15.14,-17.06 -14.54,-35.34 1.52,-46.76 74.83,-89.37 117.22,-73.65 13.78,5.11 16.3,14.36 20.87,28.94 2.34,7.47 4.44,10.15 8.2,16.51 1.48,2.49 3,4.76 4.96,7.12 1.14,1.38 1.9,2.59 3.46,3.19 5.15,1.97 3.09,0.1 3.86,-0.34 6.38,-6.8 -30.15,-28.19 -11.79,-76.96 3.65,-9.7 19.98,-27.45 29.77,-32.63 8.61,-4.56 17.65,-7.1 27.84,-8.97 22.59,-4.14 42.67,-2.03 56.05,15.25l5.08 7.91c5.68,13.57 2.57,6.45 8.76,15.94 9.63,14.78 27.54,31.44 46.63,28.53 5.06,-0.77 3.29,-2.24 9.26,-1.8 3.33,12.37 4.27,21.15 11.5,31.75 3.66,5.37 10.46,7.23 2.76,11.66 -10.42,5.99 -17.61,7.71 -29.46,16.16 -16.83,11.98 -27.24,25.05 -37.13,43.17 -2.74,5.02 -8.23,11.48 -15.4,6.14 -24.49,-18.23 -27.15,-10.07 -37.24,-15.8 -0.32,-8.5 1.71,-18.33 1.72,-28.58 0.02,-10.38 -0.64,-19.43 -1.22,-29.29 -0.35,-5.91 -5.59,-20.37 -3.66,-25.25 2.26,-5.72 15.29,-3.34 16.53,-13.87 -5.04,-0.31 -6.56,1.28 -10.44,3.84 -11.07,7.28 -27.01,3.49 -32.17,7.1 0.26,0.18 0.62,0.34 0.84,0.42 0.22,0.09 0.57,0.29 0.85,0.39l5.1 0.87c18.89,1.15 12.78,7.73 16.94,31.33 3.28,18.59 0.65,34.04 -0.86,51.51 -15.18,3.5 -16.94,2.8 -30.44,8.4 -8.36,3.46 -14.75,8.04 -21.98,12.81l-17.06 -2.62c-12.09,-4.8 -34.7,-19.85 -43.16,-28.21 -7.09,-7.01 -15.65,-15.77 -25.41,-19.18 -11.98,-4.19 -8.54,-1.66 -9.04,-23.38 -6.52,0.35 -5.66,-0.03 -5.68,7.69 -0.05,20.11 -2.48,10.73 -13.22,20.39 -2.64,2.37 -1.43,0.8 -3.04,3.55 0.89,0.56 -0.75,1.92 3.91,0.62l11.35 -5.61c7.14,-1.17 13.72,3.32 19.26,7.31l9.53 6.83c3.95,3.14 7.77,5.89 11.76,9.04 4.05,3.19 6.69,6.24 11.54,9.93 24.67,18.78 32.26,15.96 41.82,21.02 -1.7,3 -5.13,4.61 -14.39,21.8 -4.44,8.24 -4.94,20.31 -4.89,31.78 -4.75,-0.46 -7.12,-5.07 -12.78,-7.57 -30.5,-13.43 -49.71,9.25 -83.54,9.03 -11.67,-0.07 -23.76,-1.23 -33.94,-6.2 -14.8,-7.22 -24.11,-16.01 -38.57,-23.29 -15.53,-7.82 -31.34,-7.89 -46.08,0.68 -9.83,5.71 -16.34,19.96 -12.61,25.43 5.84,-0.13 3.4,-0.85 5.8,-6.21 9.04,-20.12 32.3,-21.8 49.97,-12.72l11.87 6.65c23.27,20.15 56.26,28.15 86.78,20.56l17.62 -5.26c11.17,-4.31 25.54,-8.54 38,-3.63 16.74,6.6 20.46,16.31 26.29,31.77 0.83,2.2 0.81,2.42 1.79,4.72 1.6,3.8 0.57,0.56 1.49,3.69 3.41,11.58 2.47,14.52 8.7,14.72 1.87,-2.65 1.46,-6.7 0.67,-10.33 -0.79,-3.63 -1.16,-5.3 -1.91,-9.22 -2.26,-11.82 -9.61,-16.8 -10.12,-35.78 -0.2,-7.42 -0.61,-15.19 1.76,-21.43 4.64,-12.28 8.83,-19.22 17.94,-27.67 7.98,-7.4 17.24,-12.41 28.45,-16.85 8.99,-3.56 32.6,-4.35 42.35,-1.29 11.2,3.52 21.37,10.92 26.92,18.6 22.18,30.74 5.71,72.1 14.71,77.28 1.21,-3.78 0.7,-5.61 1.01,-10.22 0.34,-5.09 1.11,-4.65 2.2,-8.2 8.84,-29.02 -19.65,-47.91 4.72,-85.34 5.34,-8.2 11.93,-15.69 19.17,-22.07 1.72,-1.52 1.32,-1.22 3.11,-2.43 0.27,-0.19 1.1,-0.68 1.37,-0.85 0.2,-0.13 0.48,-0.28 0.68,-0.41 0.05,-0.03 1.04,-0.66 1.26,-0.83 8.28,-6.36 4.74,-5.23 17.85,-12.42 61.45,-33.68 81.33,-8.33 99.78,-10.83 0.32,-5.78 -3.87,-8.45 -8.73,-10.24 -6.83,-2.51 -19.53,-2.37 -13.64,-8.7 9.85,-10.57 12.87,-9.93 21.41,-26.41 3.95,-7.62 13.22,-31.13 12.6,-40.69l-4.59 -0.15c-4.09,8.9 -4.95,21.14 -8.57,29.37 -7.26,16.49 -15.76,33.05 -33.59,39.94 -3.43,1.33 -28.68,5.51 -31.74,5.24 -8.83,-0.79 -19.17,-7.59 -22.61,-14.32 -4.85,-9.46 -5.83,-19.85 -5.64,-31.29 0.46,-27.35 20.88,-44.48 19.91,-52.41 -5.76,-0.5 -6.22,2.4 -8.93,6.02 -10.11,13.53 -10.74,18.8 -15.58,33.22 -3.27,9.74 0.67,19.37 -12.8,19.44 -15.91,0.08 -31.91,-11.65 -40.38,-24.3 -9.8,-14.66 -9.93,-36.92 -4.63,-52.87 3.91,-11.76 6.53,-12.87 20.04,-12.45 -0.1,-0.25 -0.38,-2.52 -1.08,-3.36l-11.91 0c-4.63,8.09 -4.36,-0.45 -11.05,18.74l-1.27 2.9c-0.14,0.3 -0.34,0.69 -0.56,1.02 -0.51,-14.28 6.45,-10.73 3.76,-22.63 -11.79,-5.17 -29.32,0.07 -44.02,-0.02 -5.33,-0.03 -11.1,-0.5 -16.18,0.55z"/>
   <path class="fil0" d="M1029.22 994.38l-7.16 -17.15c-1.37,-4.39 -2.14,-4.3 -4.15,-5.28 -2.3,5.99 0.06,20.52 -0.55,28.82l-24.31 16.74c-0.22,0.23 -0.86,0.88 -1.07,1.11 -4.43,4.78 -4.83,5.22 -4.51,9.62 5.36,0.57 14.09,-8 26.63,-14.63l11.67 -7.46c3.23,-1.28 3.24,-0.27 6.9,-2.08l8.98 -4.62c2.28,-0.75 2.8,-0.66 5.2,-1.2 35.33,-7.93 61.95,-5.46 97.73,0.09 33.15,5.14 46.56,5.47 81.99,4.08 19.67,-0.77 53.6,-6.33 72.11,-14.24 24.48,-10.46 25.3,-12.44 44.42,-26.07 5.43,-3.87 6.99,-2.1 6.37,-9.46 -10.13,1.98 -28.35,13.89 -39.82,20.22 -10.2,5.63 -24.69,10.87 -36.76,12.93l-46.35 6.21c-16.43,0.63 -13.43,2.44 -37.92,1.79 -37.94,-1 -60.3,-9.35 -103.04,-8.39 -19.57,0.44 -4.83,-10.02 -8.64,-27.09 -1.22,-5.45 -4.31,-5.33 -5.58,-5.75 -1.27,47.89 2.98,27.02 -42.13,41.8z"/>
   <path class="fil0" d="M1120.03 1041.41c-7.03,2.23 -17.92,2.48 -25.27,5.35 -16.43,6.43 -34.86,10.03 -46.5,15.18 -5.4,2.39 -17.34,6.81 -17.5,13.06 8.09,1.53 24.33,-9.44 36.67,-12.28 2.95,-0.68 4.81,-0.59 7.52,-1.49 3.12,-1.02 6.02,-3.06 8.89,-0.67 8.63,7.17 6.14,18.88 15.84,20.28 -0.48,-2.42 -1.33,-4.27 -2.34,-6.43l-8.4 -17.47c4.83,-3.11 15.73,-5.2 22.41,-6.82 26.44,-6.41 63.98,16.81 91.17,26.77l22.67 7.91c18.31,5.68 14.9,3.22 23.59,5.61 30.75,8.43 42.51,-6.21 53.63,13.12 4.69,8.15 4.11,12.34 4.98,23.37l5.39 0.19c1.99,-13.72 -3.39,-22.35 -4.12,-34.61 9.67,-2.42 21.88,-6.18 30.5,-10.63 7.45,-3.85 14.04,-6.51 19.87,8.56 0.98,2.54 1.04,4.85 2.08,7.7 1.58,4.28 1.65,5.31 4.84,7.05 4.69,-13.24 -12.54,-28.93 -3.58,-39.29 3.82,-4.42 5.51,-4.96 6.76,-10.72 -5.95,0.26 -6.94,1.72 -10.29,5.11 -6,6.07 -18.17,12.87 -26.77,16.37 -35.38,14.38 -90.47,8.83 -123.97,-6.56l-81.92 -32.04c-5.16,-2.76 -7.95,-7.4 -10.6,-10.96l-4.43 -4.19c0.1,11.59 7.79,12.83 8.9,18.54z"/>
   <path class="fil0" d="M1446.75 1041.62c9.66,-1.32 25.04,-32.44 27.22,-45.45 4.43,-26.37 -6.54,-41.32 -5.81,-66.12 0.33,-11.02 5.32,-32.52 12.14,-36.42 3.69,1.07 9.59,7.17 13.23,10.26 4.7,4 7.36,8.19 10.34,13.31 1.79,3.07 4.96,14.88 5.37,18.55 0.83,7.37 0.64,16.15 0.48,23.6 -0.34,15.81 -2.58,28.34 -6.36,41.72 -1.26,4.48 -2.45,4.82 -3.43,7.87l-4.16 19.8c-1.04,5.84 -2.2,3.83 -3.75,9.51 -2.52,0.37 -4.59,0.27 -6.55,1.31 -2.04,1.07 -2.8,3 -2.28,4.72 8.85,3.75 15.3,-3.36 29.59,4.25 5.23,2.78 2.56,3.39 8.66,2.89 -0.6,-7.78 -10.86,-11.51 -17.12,-14.13 -0.53,-9.54 0.59,-19.72 3.09,-28.33l4.54 -19.34c5.3,-18.44 5.88,-46.47 0.73,-66.02 -0.82,-3.12 -3.24,-7.55 -4.65,-10.55 -0.66,-1.39 -1.62,-3.28 -2.77,-4.77l-1.96 -2.34c-15.84,-18.5 -19.21,-10.13 -23.25,-46.43 -0.7,-6.29 -1.74,-7.56 -3.37,-12.77 -1.98,-6.32 -3.37,-8.9 -6.81,-10.63 0.01,10.83 5.18,17.13 5.88,26.7 2.65,36.47 -19.47,50.45 -12.29,81.55l5.26 26.29c6.74,46.52 -27.31,59.51 -21.96,70.95z"/>
   <path class="fil0" d="M1358.96 937.66c1.72,1.37 0.41,0.88 3.11,1.66 1.89,0.55 2.38,0.51 4.38,0.46 7.65,-0.22 13.12,-3.15 19.05,-6.85 24.92,-15.57 31.69,-41.37 19.06,-67.86 -2.14,-4.5 -3.09,-6.52 -6.49,-9.98 -2.8,-2.84 -5.18,-5.23 -8.15,-8.13 -12.28,-11.98 -23.59,-26.94 -8.91,-42.17 8.62,-8.94 15,-7.34 19.46,-13.51 -7.3,-5.3 -18.54,8.06 -23.19,7.77 -8.66,-2.82 -12.36,-18.74 -20.51,-19.58 -0.54,7.37 5.43,10.26 11.18,20.02 5.26,8.92 -0.12,16.85 1.39,27.5 2.85,20.15 34.5,32.43 35.76,59.67 0.5,10.85 -3.38,22.3 -10.09,29.74 -1.3,1.44 -1.93,2.35 -3.55,3.87 -5.97,5.64 -13.89,8.71 -21.55,11.01 -6.1,1.83 -8.07,0.9 -10.96,6.37z"/>
   <path class="fil0" d="M1286.25 912.51c16.85,0.5 31.46,-9.14 38.93,-20.68 5.04,-7.77 17.65,-24.31 10.9,-32.69 -5.44,2.28 -7.45,19.41 -18.69,31.77l-22.6 14.99c-10.04,4.34 -6.69,2.17 -8.54,6.61z"/>
  </g>
  <g>
   <path class="fil1 str0" d="M332.1 10.42l1497.68 0c176.93,0 321.68,144.76 321.68,321.68l0 1537.54c0,176.93 -144.76,321.68 -321.68,321.68l-1497.68 0c-176.93,0 -321.68,-144.76 -321.68,-321.68l0 -1537.54c0,-176.93 144.76,-321.68 321.68,-321.68z"/>
  </g>
 </g>
</svg>
