<?xml version="1.0" encoding="UTF-8"?>
<!DOCTYPE svg PUBLIC "-//W3C//DTD SVG 1.1//EN" "http://www.w3.org/Graphics/SVG/1.1/DTD/svg11.dtd">
<!-- Creator: CorelDRAW -->
<svg xmlns="http://www.w3.org/2000/svg" xml:space="preserve" width="2.16188in" height="2.20173in" version="1.1" style="shape-rendering:geometricPrecision; text-rendering:geometricPrecision; image-rendering:optimizeQuality; fill-rule:evenodd; clip-rule:evenodd"
viewBox="0 0 2161.88 2201.74"
 xmlns:xlink="http://www.w3.org/1999/xlink"
 xmlns:xodm="http://www.corel.com/coreldraw/odm/2003">
 <defs>
  <style type="text/css">
   <![CDATA[
    .str0 {stroke:#856443;stroke-width:20.83;stroke-miterlimit:2.61313}
    .fil1 {fill:none}
    .fil0 {fill:#856443}
   ]]>
  </style>
 </defs>
 <g id="Layer_x0020_1">
  <metadata id="CorelCorpID_0Corel-Layer"/>
  <path class="fil0" d="M323.84 976.19c-21.75,145.82 14.02,364.46 73.23,477.91 61.97,118.74 107.17,173.3 188.26,246.93 -6.61,28.06 -5.67,42.41 -5.67,71.89 0.81,104.36 92.62,85.73 181.58,85.73l535.15 0c156.1,0 190,12.5 190.04,-121.67 0.02,-53.16 -22.39,-20.33 31.72,-69.82 51.13,-46.76 113.24,-137.58 144.11,-199.43 80.29,-160.89 85.39,-278.84 85.41,-457.61 0.02,-42.43 -18.46,-38.8 -55.91,-38.8l-1194.1 -0.02c-31.77,0.06 -157.59,-3.47 -173.81,4.87zm679.67 99.46c-135.49,14.52 -250.81,138.61 -233.35,293.17 21,185.97 224.19,292.53 393.93,199.82l54.32 -41.49c7.53,-7.92 10.33,-8.75 17.74,-18.07 153.03,-192.5 0.37,-458.41 -232.64,-433.43z"/>
  <path class="fil0" d="M1178.36 892.71l309.71 -0.26c33.56,0 28.25,-3.33 41.81,-24.34 8.68,-13.44 17.94,-24.38 26.69,-37.08 50.65,-73.55 111.91,-156.19 158.18,-228.25 -7.69,-10.24 -139.98,-119.24 -151.54,-123.46 -29.44,34.57 -62.6,66.09 -93.29,101.37l-145 154.55c-10.42,9.99 -15.33,12.56 -24.66,23.14l-121.9 134.33z"/>
  <polygon class="fil0" points="980.96,1286.24 866.03,1286.36 865.39,1390.57 979.4,1391.38 980.99,1505.99 1085.65,1506.36 1085.7,1391.69 1200.79,1391.14 1200.39,1286.6 1085.4,1286.17 1085.32,1170.93 981.93,1171.01 "/>
  <path class="fil0" d="M1613.33 338.32c-29.86,7.65 -59.1,39.53 -44.66,79.88 6.52,18.24 19.18,23.76 30.75,33.38 15.2,12.64 22.77,18.43 37.52,30.35 25.05,20.26 49.58,39.45 72.86,58.89 30.02,25.09 52.29,51.94 87.49,43.84 27.32,-6.29 58.79,-45.43 42.87,-82.28 -6.45,-14.94 -116.37,-103.35 -141.59,-122.15 -25.67,-19.13 -48.76,-51.26 -85.24,-41.92z"/>
  <g>
   <path class="fil1 str0" d="M332.1 10.42l1497.68 0c176.93,0 321.68,144.76 321.68,321.68l0 1537.54c0,176.93 -144.76,321.68 -321.68,321.68l-1497.68 0c-176.93,0 -321.68,-144.76 -321.68,-321.68l0 -1537.54c0,-176.93 144.76,-321.68 321.68,-321.68z"/>
  </g>
 </g>
</svg>
