<?xml version="1.0" encoding="UTF-8"?>
<!DOCTYPE svg PUBLIC "-//W3C//DTD SVG 1.1//EN" "http://www.w3.org/Graphics/SVG/1.1/DTD/svg11.dtd">
<!-- Creator: CorelDRAW -->
<svg xmlns="http://www.w3.org/2000/svg" xml:space="preserve" width="2.16188in" height="2.20173in" version="1.1" style="shape-rendering:geometricPrecision; text-rendering:geometricPrecision; image-rendering:optimizeQuality; fill-rule:evenodd; clip-rule:evenodd"
viewBox="0 0 2161.88 2201.74"
 xmlns:xlink="http://www.w3.org/1999/xlink"
 xmlns:xodm="http://www.corel.com/coreldraw/odm/2003">
 <defs>
  <style type="text/css">
   <![CDATA[
    .str0 {stroke:#856443;stroke-width:20.83;stroke-miterlimit:2.61313}
    .fil1 {fill:none}
    .fil0 {fill:#856443}
   ]]>
  </style>
 </defs>
 <g id="Layer_x0020_1">
  <metadata id="CorelCorpID_0Corel-Layer"/>
  <g id="_1338771285920">
   <path class="fil0" d="M851.81 622.8c-65.38,0.49 -371.24,-9.61 -408.47,7.73 -49,22.83 -34.18,107.78 -34.21,172.95 -0.04,83.24 -16.32,134.6 63.05,150.31l-0.05 613.16c-2.92,0.94 -6.05,-0.61 -7.23,1.82 -6.96,14.37 -50.17,-13.71 -56.56,35.4 -10.31,79.29 80.68,52.23 260.22,52.23l1015.73 0.32c45.72,0.67 68.21,9.92 70.24,-37.81 2.23,-52.48 -19.29,-45.11 -63.16,-45.15l-1.28 -607.22c12.47,-45.22 63.99,32.85 63.11,-133.41 -1.27,-241.47 52.93,-213.95 -373.18,-210.09 -34.26,0.31 -57.54,8.46 -79.54,-14.39 -8.57,-8.91 -8.66,-11.72 -20.37,-23.9 -121.95,-126.79 -313.6,-116.14 -428.33,38.04zm203.21 -59.22c-107.85,14.99 -196.55,104.39 -182.34,228.97 30.14,264.33 453.49,226.52 415.99,-54.37 -13.8,-103.35 -112.98,-191.36 -233.64,-174.6zm-498.98 1010.06l83.38 0.26c17.46,-502.23 -68.04,-496.17 162.56,-496.12 174.22,0.03 174.23,-15.69 174.19,163.03 -0.02,109.46 1.76,220.36 -0.17,329.63l630.09 3.13 0.25 -616.54c-51.01,-9.48 -240.72,-5.89 -300.69,-3.56 -46.5,1.81 -53.74,28.11 -95.28,50.76 -36.69,20.01 -79.62,31.9 -126.66,32.12 -130.96,0.62 -170.36,-79.66 -222.32,-82.86 -92.14,-5.67 -207.51,0.38 -302.3,0.38l-3.07 619.77z"/>
   <path class="fil0" d="M1103.79 1081.73c-60.97,21.1 -43.72,99.09 -43.72,166.49 0.02,223.8 -23.53,201.61 216.31,201.61 258.35,0 245.8,28.41 245.79,-171.96 -0,-54.63 16.89,-153.97 -23.04,-185.44 -33.7,-26.56 -379.48,-16.18 -395.34,-10.7z"/>
   <path class="fil0" d="M1042.97 628.95l-5.33 97.17c-54,0.57 -103.97,-17.01 -104.45,40.28 -0.52,61.79 52.89,40.83 105.44,43.9 1.11,31.39 -3.33,68.01 6.7,90.89 20.73,17.07 49.34,15.97 71.43,1.85 9.9,-23.71 6.94,-59.04 5.85,-91.1 50.78,-7.03 101.54,16.49 106.43,-38.07 6.24,-69.61 -47.54,-43.02 -104.32,-49.28 -1.79,-17.95 0.39,-72.36 -4.01,-83.35 -10.36,-25.9 -60.09,-22.83 -77.74,-12.3z"/>
  </g>
  <g>
   <path class="fil1 str0" d="M332.1 10.42l1497.68 0c176.93,0 321.68,144.76 321.68,321.68l0 1537.54c0,176.93 -144.76,321.68 -321.68,321.68l-1497.68 0c-176.93,0 -321.68,-144.76 -321.68,-321.68l0 -1537.54c0,-176.93 144.76,-321.68 321.68,-321.68z"/>
  </g>
 </g>
</svg>
