<?xml version="1.0" encoding="UTF-8"?>
<!DOCTYPE svg PUBLIC "-//W3C//DTD SVG 1.1//EN" "http://www.w3.org/Graphics/SVG/1.1/DTD/svg11.dtd">
<!-- Creator: CorelDRAW -->
<svg xmlns="http://www.w3.org/2000/svg" xml:space="preserve" width="2.16188in" height="2.20173in" version="1.1" style="shape-rendering:geometricPrecision; text-rendering:geometricPrecision; image-rendering:optimizeQuality; fill-rule:evenodd; clip-rule:evenodd"
viewBox="0 0 2161.88 2201.74"
 xmlns:xlink="http://www.w3.org/1999/xlink"
 xmlns:xodm="http://www.corel.com/coreldraw/odm/2003">
 <defs>
  <style type="text/css">
   <![CDATA[
    .str0 {stroke:#856443;stroke-width:20.83;stroke-miterlimit:2.61313}
    .fil1 {fill:none}
    .fil0 {fill:#856443}
   ]]>
  </style>
 </defs>
 <g id="Layer_x0020_1">
  <metadata id="CorelCorpID_0Corel-Layer"/>
  <g>
   <path class="fil0" d="M603.8 1099.79c-125.26,16.45 -231.72,131.93 -211.95,278.69 16.48,122.29 132.93,232.5 279.73,210.64 123.59,-18.41 231.03,-132.66 209.65,-280.09 -17.95,-123.72 -131.97,-228.33 -277.43,-209.23zm643.31 -287.2c-10.41,6.42 -1.13,23.91 4.38,29.39 11.01,10.95 19.05,7.92 33.62,5.87l188.47 -31.46c23.06,-6.54 30.49,-16.21 41.75,-33.62 35.11,-54.32 65.11,-110.63 97.45,-163.74 7.13,-11.7 11.67,-12.53 24.44,-8.83 8.74,18.38 -16.57,51.01 -32.81,78.53l-68.24 112.12c-9.76,16.03 -18.39,20.62 -18.93,43.64 -0.59,25.2 -3.16,101.24 3.19,119.06 17.22,8.7 94.52,4.08 121.4,4.08 27.57,0 103.34,5.52 121.03,-4.48 7.8,-25.88 2.9,-262 2.59,-309.68 -0.17,-25.53 -1.19,-44.87 -12.76,-65.04 -29.42,-51.28 -99.52,-81.15 -160.24,-54.34 -40.2,17.75 -54.47,41.34 -72.56,83.59 -15.89,37.11 -32.24,72.25 -47.57,108.55 -13.81,32.68 -7.93,25.38 -44.08,33.94l-127.29 29.07c-21.06,4.91 -49.39,5.27 -53.83,23.35zm-501.79 125.37l-72.66 -17.98c0,25.11 5.06,43.13 26.88,47.62 28.97,5.96 42.02,-6.69 45.78,-29.63zm188.69 29.29l28.07 -33.52c29.55,-46.22 100.96,-93.33 71.33,-126.72 -25.3,-28.51 -50.73,10.89 -52.25,12.35 -5.94,5.74 -8.59,6.96 -13.91,12.89l-52.54 56.72 -22.9 27.58 -3.77 0.95c-0.02,17.69 1.69,30.82 9.86,40.83 4.29,5.26 8.81,7.17 16.38,9.5 11.37,3.51 10.07,5.05 19.7,-0.59zm69.49 -635.1c-11.62,4.55 -14.73,20.06 -7.85,30.72 5.98,9.27 22.34,6.99 35.03,6.93 42.65,-0.22 247.53,2.54 259.54,-0.9 11.17,-3.2 15.7,-20 8.45,-31.63 -5.49,-8.81 -23.45,-6.54 -36.42,-6.48 -40.13,0.19 -249.78,-2.15 -258.75,1.36zm-691.29 561.05c22.67,11.17 71.21,1.22 101.48,4.72 -0.37,19.08 -2.25,220.63 1.24,231.17 3.98,12 21.66,17.48 30.94,5.68 9.97,-12.67 4.73,-271.82 3.12,-276.19 -4.3,-11.69 -22.72,-7.88 -37.49,-7.84 -96,0.26 -108.98,-13.27 -99.3,42.46zm1445.68 291.1c-14.57,0.29 -14.46,5.16 -16.49,18.45l-13.92 91c-6.2,41.05 -12.24,82.23 -19.12,123.57 -7.5,45.11 6.02,50.68 29.73,106.33 7.11,16.69 13.83,30.96 21.6,48.4 23.18,52.1 75.51,31.73 88.22,9.04 9.79,-17.46 0.96,-40.69 -3.47,-58.67 -12.61,-51.1 -78.39,-328.89 -86.55,-338.12zm-846.83 155.68c0.07,35.94 -10.44,50.22 6.02,70.48 20.92,25.73 123.95,163.67 138.34,174 16.93,12.15 44.15,10.74 60.02,-0.94 44.22,-32.57 -1.11,-82.07 -17.35,-106.31l-140.02 -209.99c-11.39,-17.39 -38.15,-56.02 -64.8,-53.07 -24.03,2.66 17.64,49.54 17.79,125.83zm-298.8 -103.83c-53.28,12.54 -100.92,65.21 -83.5,134.57 35.3,140.49 245.44,91.6 216.26,-49.1 -10.91,-52.6 -65.61,-101.28 -132.76,-85.47zm1001.26 -782.93c12.77,40.28 -31.28,10.2 -34.04,36.06 -0.92,8.53 -0.53,15.68 5.87,17.12 0.37,0.08 31.5,-7.99 37.8,-8.74 18.13,-2.15 32.25,1.09 48.99,0.09 2.51,-16.43 1.07,-46.22 0.91,-65.07 -0.27,-30.43 6.62,-29.41 22.59,-45.7 19.33,-19.72 42.73,-46.9 44.66,-89.47 1.93,-42.57 -11.76,-79.11 -34.36,-98.54 -32.24,-27.71 -56.13,-28.54 -107.26,-24.3 -50.09,4.15 -74.07,4.79 -98.25,35.92 -25.11,32.32 -23.35,63.24 -23.18,111.74 0.09,25.76 9.93,96.36 19.63,115.37 17.98,35.22 83.24,4.86 116.65,15.5zm-475.13 62.07c-7.6,0 -80.51,-3.34 -86.23,3.58 -4.32,10.73 -2.94,32.9 0.37,42.83 41.26,13.14 104.65,-18.31 94.69,25.8 -25.47,9.89 -68.02,-2.32 -95.74,5.87l-1.26 87.03c0.1,39.66 76.92,66.76 77.76,104.78 1.35,61.28 -0.15,124.51 -0.15,185.98l-0.54 150.21 -22.5 1.48c-7.2,21.89 -36.13,86.57 -27.92,106.16 12.54,5.21 124.91,5.89 136.9,0.44 10.99,-8.29 -4.23,-39.96 -11.46,-61.02 -21.67,-63.07 -12.56,-37.41 -37.1,-49.2 -2.89,-85.82 -0.41,-208.71 -0.42,-301.53 -0.01,-39.77 -5.93,-35.97 15.16,-58.04 22.46,-23.49 63.82,-58.54 63.83,-81.96l0 -255.76c0.01,-19.13 -8.49,-24.85 -27.32,-24.85 -171.29,0 -166.39,-13.25 -166.21,43.68 0.2,61.33 -15.39,42.86 93.61,46.56 11.79,0.4 19.93,2.4 19.16,15.25 -0.83,13.72 -11.02,12.69 -24.64,12.69zm83.63 51.65c-41.32,-14.84 -59.2,19.9 -29.52,24.12 22.4,3.18 38.08,-1.86 29.52,-24.12zm497.88 428.13l-145.38 0.04c-42.22,0.02 -30.72,23.74 -29.54,62.23 0.91,29.46 2.22,59.04 3.24,88.79l13.01 355.38c1.1,22.46 -0.88,67.48 7.54,83.92 9.91,19.36 37.71,30.39 64.45,17.87 23.86,-11.17 23.76,-32.26 28.54,-63.12l61.5 -398.65c4.01,-25.95 8.18,-53.11 12.35,-79.35 3.91,-24.65 18.52,-67.12 -15.71,-67.12zm-831.84 -77.06c-20.61,10.02 -27.28,48.99 -58.59,42.19 -27.14,-5.89 -56.52,-15.38 -84.15,-22.24l142.74 -19.95zm-215.4 1.97c-9.94,-5.33 -27.17,-6.17 -38.25,-12.36l-5.53 -51.3c-11.53,-7.37 -15.05,-2.47 -28.71,-6.16 -11.19,-3.02 -13.5,-15.84 -4.91,-23.43 16.77,-14.8 105,15.69 118.06,-24.8 3.45,-10.69 8.83,-49.85 9.73,-62.65 6.46,-91.46 -4.03,-183.75 -98.78,-185.61 -47.19,-0.93 -91.24,-5.01 -122.17,20.78 -28.92,24.11 -42.73,50.87 -39.35,103.35 2.92,45.32 28.11,70.16 51.01,91.47 11.94,11.11 27.75,17.13 30.08,40.23 10.3,102.19 -12.44,60.68 -45.44,100.56 -11.19,13.53 -19.94,31.34 -20.81,55.65l0.38 137.25c4.66,18.92 -5.38,-12.06 1.66,4.43 9.23,21.61 67.06,-53.34 196.48,-34.62 16.39,2.37 54.98,16.82 64.24,11.82 4.14,-8.93 4.19,-28.05 1.35,-39.78 -29.25,-10.28 -134.76,-0.24 -149.54,-14.61 -8.96,-8.75 -5.3,-12.09 0.35,-20.69 33.06,-7.67 163.45,10.63 198.58,18.2 35.26,7.59 59.63,16.55 90.43,-3.84 13.88,-9.19 28.99,-27.36 39.65,-41.07 4.29,-5.51 9.49,-10.63 12.84,-15.55l-261.35 -47.28zm-54.82 287.79c-69.78,9.01 -130.09,74.34 -117.91,157.13 10.21,69.35 75.01,128.83 157.76,116.22 68.57,-10.44 128.48,-75.36 115.47,-158.31 -10.7,-68.18 -73.81,-125.57 -155.33,-115.04z"/>
  </g>
  <g>
   <path class="fil1 str0" d="M332.1 10.42l1497.68 0c176.93,0 321.68,144.76 321.68,321.68l0 1537.54c0,176.93 -144.76,321.68 -321.68,321.68l-1497.68 0c-176.93,0 -321.68,-144.76 -321.68,-321.68l0 -1537.54c0,-176.93 144.76,-321.68 321.68,-321.68z"/>
  </g>
 </g>
</svg>
