<?xml version="1.0" encoding="UTF-8"?>
<!DOCTYPE svg PUBLIC "-//W3C//DTD SVG 1.1//EN" "http://www.w3.org/Graphics/SVG/1.1/DTD/svg11.dtd">
<!-- Creator: CorelDRAW -->
<svg xmlns="http://www.w3.org/2000/svg" xml:space="preserve" width="2.16188in" height="2.20173in" version="1.1" style="shape-rendering:geometricPrecision; text-rendering:geometricPrecision; image-rendering:optimizeQuality; fill-rule:evenodd; clip-rule:evenodd"
viewBox="0 0 2161.88 2201.74"
 xmlns:xlink="http://www.w3.org/1999/xlink"
 xmlns:xodm="http://www.corel.com/coreldraw/odm/2003">
 <defs>
  <style type="text/css">
   <![CDATA[
    .str0 {stroke:#856443;stroke-width:20.83;stroke-miterlimit:2.61313}
    .fil1 {fill:none}
    .fil0 {fill:#856443}
   ]]>
  </style>
 </defs>
 <g id="Layer_x0020_1">
  <metadata id="CorelCorpID_0Corel-Layer"/>
  <path class="fil0" d="M1661.01 1043.48c-78.81,9.06 -161.17,16.51 -240.36,22.85 -30.59,2.45 -11.66,3.7 -23.54,41.57 -5.59,17.84 -14.53,30.13 -24.63,40.56 -19.71,20.37 -55.66,39.18 -96.99,29.32 -27.39,-6.53 -26.76,-13.43 -45.54,5.9 -7.2,7.4 -8.78,9.3 -16.29,15.26 -7.06,5.61 -10.58,10.58 -17.24,16.29 -20.27,17.37 -20.7,23.02 -42.26,23.22 -66.65,0.64 -288.12,-3.5 -328.83,2.45 -74.37,10.88 -122.75,45.96 -144.71,118 -7.92,25.99 -27.17,81.35 -17.2,107.27 14.89,38.7 46.02,38.11 93.84,38.11l789.71 0.03c43.43,0.08 86.87,-0.04 130.3,-0.02 35.71,0.01 94.93,5.79 120.24,-11.7 27.59,-19.06 33.76,-63.88 5.58,-88.18 -25.47,-21.96 -75.68,-17.27 -114.02,-18.76 -84.08,-3.26 -168.82,-7.13 -253.03,-10.8l-155.76 -6.43c-7.46,-0.57 -6.96,-0.37 -9.45,-6.29 -10.37,-24.78 12.28,-37.75 27.18,-53.2 10.82,-11.23 22.24,-20.96 32.9,-32.23l63.69 -66.61c15.26,-16.91 17.69,-16.33 47.2,-20.22 77.07,-10.16 154.44,-21.03 231.65,-30.72 87.13,-10.94 77.19,-81.76 43.02,-106.4 -15.56,-11.22 -34.22,-11.71 -55.47,-9.27zm-639.33 -688.85c-72.37,7.71 -133.17,71.32 -124.5,153.01 7.52,70.93 72.37,131.27 152.92,123.19 70.7,-7.09 131.54,-72.3 122.96,-152.49 -7.65,-71.49 -70.15,-132.36 -151.38,-123.7zm-558.71 815.38c-69.99,8.73 -130.69,72.78 -120.87,154.07 8.53,70.5 73.2,132.09 156.45,121.21 69.82,-9.13 128.97,-73.8 119.44,-154.65 -8.38,-71.08 -73.92,-130.74 -155.02,-120.63zm280.23 47.03c25.45,-7.47 40.76,-15.93 71.2,-20.69 65.2,-10.19 236.44,2.8 267.38,-6.99 12.15,-32.04 12.36,-93.45 23.32,-130.29 50.17,18.49 104.09,42.77 154.21,63.89 33.06,13.93 59.1,17.1 81.56,-8.11 21.79,-24.46 19.83,-56.76 -2.19,-79.15 -13.1,-13.31 -52.29,-26.93 -74.48,-36.1 -26.19,-10.83 -51.83,-21.59 -78.13,-32.44 -12.74,-5.26 -25.87,-10.91 -39.17,-16.08 -22.21,-8.65 -19.16,-9.26 -13.44,-31.65 6.83,-26.72 13.74,-64.85 21.8,-88.57 22.59,2.78 149.2,108.03 187.13,116.27 26.25,5.7 110.66,-2.69 143.04,-4.16 32.96,-1.49 114.68,-0.01 138.36,-13.05 35.4,-19.49 41.39,-72.02 6.09,-96.65 -28.57,-19.93 -100.18,-7.83 -138.11,-6.38 -23.87,0.92 -47.54,2.49 -71.08,3.69 -26.99,1.37 -45.21,6.59 -65.32,-7.07 -30.21,-20.51 -60.22,-40.63 -90.54,-61.41 -29.26,-20.05 -59.45,-39.58 -89.37,-60.71 -57.73,-40.78 -67.87,-20.89 -109.12,-1.31 -54.61,25.93 -67.43,3.85 -109.96,-16.59 -42.61,-20.49 -84.82,18.28 -101.2,38.43 -21.57,26.53 -30.74,71.01 -40.14,109.87 -29.87,123.53 -57.74,258.25 -71.82,385.22zm-400.99 615.78c8.64,1.76 59.38,3.32 64.6,-1.06 1.33,-1.11 3.99,0.96 4.17,-13.13 1.01,-80.1 -17.42,-129.43 61.98,-129.24 67.06,0.16 142.08,-2.02 207.36,0.02 22.52,0.7 36.32,10.65 43.69,26.11 9.54,20.05 0.27,49.5 6.46,64.61l58.45 1.77c9.58,-1.65 4.11,0.09 7.56,-3.72 9.13,-13.7 -10.34,-51.11 17.19,-77 18.5,-17.39 57.78,-11.78 85.74,-11.78 64.5,0 128.98,0 193.48,0 63.09,0 131.08,-2.44 193.55,0.04 77.2,3.07 37.86,89.85 50.29,143.64l66.98 0.56c9.54,-37.6 -11.93,-101.81 14.35,-130.22 14.9,-16.09 33.73,-14.02 59.81,-14.02l219.15 -0.02c25.93,0.11 40.37,7.79 49.36,24.49 10.67,19.79 -0.2,49.93 7.15,65.75 5.01,2.72 59.11,4.7 64.76,0.51 6.06,-4.5 3.1,-55.37 3.1,-66.28 0,-28.16 4.3,-110.11 -5.63,-130.55 -18.18,-37.39 -54.31,-33 -102.95,-33l-953.58 0c-51.46,0 -77.32,-0.33 -106.46,-30.05 -32.33,-32.97 -51.17,-27.82 -108.73,-27.82 -42.98,0 -94.35,-2.56 -136.29,0.18 -36.51,2.38 -51.09,42.89 -59.99,76.39 -9.01,33.9 -7.24,91.38 -7.17,129.04 0.05,33.56 -3.17,106.45 1.63,134.75z"/>
  <g>
   <path class="fil1 str0" d="M332.1 10.42l1497.68 0c176.93,0 321.68,144.76 321.68,321.68l0 1537.54c0,176.93 -144.76,321.68 -321.68,321.68l-1497.68 0c-176.93,0 -321.68,-144.76 -321.68,-321.68l0 -1537.54c0,-176.93 144.76,-321.68 321.68,-321.68z"/>
  </g>
 </g>
</svg>
