<?xml version="1.0" encoding="UTF-8"?>
<!DOCTYPE svg PUBLIC "-//W3C//DTD SVG 1.1//EN" "http://www.w3.org/Graphics/SVG/1.1/DTD/svg11.dtd">
<!-- Creator: CorelDRAW -->
<svg xmlns="http://www.w3.org/2000/svg" xml:space="preserve" width="2.16188in" height="2.20173in" version="1.1" style="shape-rendering:geometricPrecision; text-rendering:geometricPrecision; image-rendering:optimizeQuality; fill-rule:evenodd; clip-rule:evenodd"
viewBox="0 0 2161.88 2201.74"
 xmlns:xlink="http://www.w3.org/1999/xlink"
 xmlns:xodm="http://www.corel.com/coreldraw/odm/2003">
 <defs>
  <style type="text/css">
   <![CDATA[
    .str0 {stroke:#856443;stroke-width:20.83;stroke-miterlimit:2.61313}
    .fil1 {fill:none}
    .fil0 {fill:#856443}
   ]]>
  </style>
 </defs>
 <g id="Layer_x0020_1">
  <metadata id="CorelCorpID_0Corel-Layer"/>
  <path class="fil0" d="M394.97 998.91c-14.99,8.91 -69.17,22.13 -52.87,95.11 7.56,33.86 28.72,78.33 39.16,111.44 26.78,84.91 12.13,186.93 121.48,180.81 19.91,54.78 51.79,128.85 81.28,177.73 10.42,17.27 25.9,39.14 34.14,54.57 19.46,36.47 10.29,182.04 -4.29,238.52 -7.01,27.16 -16.85,43.28 -25.16,68.28 40.47,-9.52 58.93,-55.6 69.08,-98.01 13.96,-58.3 7.52,-97.1 -0.82,-153.74 16.57,11.61 40.37,38.15 52.91,50.85 121.65,123.28 307.03,113.88 425.71,-7.65 16.91,-17.31 36.28,-37.79 50.94,-51.65 -11.91,57.36 -22.44,91.53 -9.4,157.25 9.61,48.44 29.2,94.2 71.74,104.07 -21.12,-50.67 -32.25,-73.47 -38.35,-138.09 -17.53,-185.55 11.48,-152.98 79.4,-277.24 21.47,-39.28 39.33,-82.13 57.06,-124.32 124.39,-2.67 113.8,-149.33 137.38,-230.59 12.07,-41.57 53.78,-126.57 -27.21,-156.04 24.24,-205.29 -7.26,-362.41 -108.11,-499.31 -247.39,-335.81 -801.63,-272.32 -939.36,207.5 -28.26,98.45 -19.46,187.06 -14.7,290.49zm76.2 184.58c-25.57,-22.37 -35.48,-135.75 -49.67,-156.96 -45.32,-6.02 -61.27,35.94 -50.06,76.55 9.64,34.93 26.54,62.68 36.71,102.6 10.88,42.72 18.5,128.89 57.86,147.54 25.82,12.23 34.37,-1.92 55.36,-0.92 31.6,53.5 52.33,164.2 144.12,273.4 34.2,40.68 60.11,69.65 107.15,101.8 222.86,152.3 400.78,-67.81 493.48,-243.81l64.48 -143.57c19.32,2.14 33.95,48 82.1,-19.48 20.7,-29.02 25.14,-69.38 31.5,-107.62 11.55,-69.45 48.09,-137.95 22.49,-171.95 -8.63,-11.45 -42.55,-36 -48.55,-10.05l-10.54 79.56c-4,19.44 -9.63,66.51 -29.94,75.17 -4.05,-108.27 10.53,-205.88 -46.96,-287.17 -46.58,-65.87 -125.04,-89.7 -232.61,-99.54 -94.86,-8.67 -211.59,-3.91 -275.22,-58.32 -62.74,-53.64 -65.84,-172.48 -32.89,-260.7 -55.38,23.43 -67.99,129.37 -51.43,201.9 6.56,28.74 36.01,81.76 8.17,104.1 -19.82,15.9 -73.12,23.2 -102.76,32.94 -116.95,38.43 -165.3,118.59 -167,234 -0.48,32.6 9.49,108.54 -5.81,130.54z"/>
  <path class="fil0" d="M1653.11 700.9l-0.19 135.74c-1.35,23.04 -5.81,16.17 -13.05,34.56 12.31,6.03 9.94,0.22 18.37,3.87 -0.17,15.73 -0.28,11.58 -19.01,18 -9.76,3.35 -18.3,6.97 -23.93,15.1 -9.95,14.37 -5.24,52.19 -5.36,71.39 -0.41,64.8 0.44,462.55 -5.49,469.89 -7.43,9.2 -23.61,1.57 -45.2,10.63l-2.55 20.67c24.94,10.48 55.41,8.89 82.53,10.83l-1.02 290.8 -40 8.3c0.97,26.92 22.43,23.54 80.95,24.76 25.08,0.53 76.05,3.4 96.54,-7.72 1.53,-17.31 9.48,-15.4 -35.82,-21.96l-0.13 -291.51c24.38,-8.91 58.5,0.19 81.91,-11.61l1.14 -19.34c-15.51,-8.5 -36.77,-6.92 -54.43,-8.07 -5.76,-113.21 1.55,-331.81 2.43,-464.06 0.87,-131.31 -9.75,-74.54 -49.32,-108.36 4.77,-13.79 4.75,-3.58 18.73,-11.61 -7.4,-20.5 -12.52,-10.78 -12.86,-42.39l0.65 -116.24c-2.88,-31.06 -22.13,-5.45 -27.9,-54.72 -4.71,-40.26 -6.74,5.45 -7.63,-80.77 -0.44,-42.28 0.25,-66 -7.15,-106.24 -9.48,53.32 0.4,137.71 -3.42,159.55 -8.63,49.33 -4.54,55.8 -28.8,70.49zm1.22 743.75l66.5 0.44 3.3 -508.1c-13.66,-5.8 -48.41,-11.53 -61.92,-1.68 -11.4,8.32 -5.36,51.2 -5.48,67.46 -0.36,49.02 -0.48,98.04 -0.94,147.06 -0.92,96.59 -4.2,198.8 -1.45,294.81z"/>
  <path class="fil0" d="M502.97 1010.16c89.87,-12.74 135.39,-30.05 224.98,7.26 153.44,63.89 171.5,217.4 138.5,364.68 -9.8,43.74 -27.82,74.54 30.9,75.39 43.76,0.63 97.51,12.67 111.09,-26.35l-99.8 0.37c-39.92,-0.7 -8.09,-28.45 -0.32,-126.71 11.95,-151.09 -39.13,-287.57 -195.51,-329.99 -52.08,-14.13 -206.49,-23.62 -209.85,35.36z"/>
  <path class="fil0" d="M781.24 1560.05c20.23,49.61 137.56,108.01 226.45,52.1 18.56,-11.67 49.27,-34.61 55.8,-52.1 -10.13,-4.41 -48.41,-0.56 -66.55,-3.23 -80.19,-11.81 -63.98,-13.19 -145.62,-0.6 -17.74,2.74 -60.5,-0.04 -70.08,3.83z"/>
  <path class="fil0" d="M1001.99 1119.3l15.9 -15.48c5.72,-7.02 8.18,-10.71 13.63,-17.33 67.22,-81.56 187.83,-109.67 287.51,-75.61 13,4.44 35.15,16.34 45.15,17.33 0.47,-29.99 -50.92,-51.76 -85.05,-59.31 -43.17,-9.56 -94.56,-7.56 -137.07,3.62 -73.41,19.29 -178.07,96.27 -140.08,146.77z"/>
  <path class="fil0" d="M1007.12 1189.38c49.55,104.48 289.84,132.07 264.9,-35.75 -27.17,23.71 -59.24,101.56 -200.05,61.91 -25.1,-7.07 -46.04,-20.74 -64.85,-26.15z"/>
  <path class="fil0" d="M834.67 1188.98c-62.23,26.96 -144.91,62.03 -220.5,11.98 -10.57,-7 -16.33,-13.55 -24.04,-22.26 -7.39,-8.33 -12.11,-18.19 -20.45,-25.08 -19.84,175.73 221.6,133.39 264.99,35.36z"/>
  <g>
   <path class="fil1 str0" d="M332.1 10.42l1497.68 0c176.93,0 321.68,144.76 321.68,321.68l0 1537.54c0,176.93 -144.76,321.68 -321.68,321.68l-1497.68 0c-176.93,0 -321.68,-144.76 -321.68,-321.68l0 -1537.54c0,-176.93 144.76,-321.68 321.68,-321.68z"/>
  </g>
 </g>
</svg>
