<?xml version="1.0" encoding="UTF-8"?>
<!DOCTYPE svg PUBLIC "-//W3C//DTD SVG 1.1//EN" "http://www.w3.org/Graphics/SVG/1.1/DTD/svg11.dtd">
<!-- Creator: CorelDRAW -->
<svg xmlns="http://www.w3.org/2000/svg" xml:space="preserve" width="2.16188in" height="2.20173in" version="1.1" style="shape-rendering:geometricPrecision; text-rendering:geometricPrecision; image-rendering:optimizeQuality; fill-rule:evenodd; clip-rule:evenodd"
viewBox="0 0 2161.88 2201.74"
 xmlns:xlink="http://www.w3.org/1999/xlink"
 xmlns:xodm="http://www.corel.com/coreldraw/odm/2003">
 <defs>
  <style type="text/css">
   <![CDATA[
    .str0 {stroke:#856443;stroke-width:20.83;stroke-miterlimit:2.61313}
    .fil1 {fill:none}
    .fil0 {fill:#856443}
   ]]>
  </style>
 </defs>
 <g id="Layer_x0020_1">
  <metadata id="CorelCorpID_0Corel-Layer"/>
  <g id="_1338771297536">
   <path class="fil0" d="M745.64 492.93c-0.97,31.4 -15.44,82.96 -27.47,108.43 -33.87,71.74 -68.08,103.42 -112.55,158.46 -77.03,95.36 -111.26,164.15 -27.25,278.6 39.3,53.54 82.99,85.28 143.45,125.45 54.39,36.14 110.04,63.61 165.88,103.09 175.99,124.46 100.24,247.79 107.4,410.37 6.04,137.36 72.27,175.03 79.08,189.06 20.94,7.42 51.5,54.91 192.8,65.22 29.28,2.13 66.24,23.13 138.16,15.2 117.07,-12.91 179.21,-103.35 140.28,-147.81 -23.6,-26.96 -47.2,-13.36 -70.11,-34.9l81.93 -54.76c76.9,-57.53 146.93,-134.52 195.59,-219.39 71.38,-124.48 112.38,-282.45 85.44,-451.8 -12.04,-75.7 -36.07,-148.99 -67.74,-209.53 -32.18,-61.51 -94.31,-149.97 -148.3,-196.77 -31.54,-27.33 -40.77,-36.52 -76.45,-63.31 -13.37,-10.04 -27.76,-18.78 -41.87,-28.02 -40.76,-26.69 -91.23,-51.05 -138.51,-68.93 -16.13,-6.1 -35.86,-11.07 -51.65,-17.97 -0.08,-26.46 32.65,-134.96 35.54,-171.42 -11.82,21.03 -26.15,63.48 -36.11,88.52 -20.22,50.82 -95.24,233.05 -105.86,271.04 -20.78,74.27 -3.21,150.14 18.44,217.08 20.89,64.58 43.46,122.53 61.13,190.82 59.15,228.58 5.81,461.95 28.54,585.38 11.85,64.34 52.07,114.8 96.57,155.48 11.65,10.64 58.94,45.91 83.57,43.81 -5.33,16.3 -27.58,33.61 -44.78,41.61 -21.08,9.81 -47.32,15.46 -73.75,15.67 -26.19,0.21 -52.28,-4.61 -75.66,-11.59 -55.77,-16.63 -230.1,8.75 -245.9,-196.28 -8.56,-111.11 33.49,-215.58 -10.74,-321.92 -17.02,-40.93 -48.69,-82.03 -73.4,-102.39 -4.95,-4.08 -6.56,-5.22 -11.32,-9.86 -44.24,-43.11 -187.32,-116.7 -252.98,-166.17 -24.06,-18.12 -48.65,-40.14 -67.96,-63.32 -64.02,-76.8 -61.14,-133.7 3.9,-212.37 24.31,-29.4 57.63,-67.7 78.86,-96.8 55.8,-76.46 94.54,-167.53 69.02,-268.08 -9.15,-36.04 -39.59,-98.36 -65.44,-111.86 6.21,41.52 31.5,94.88 20.23,161.94zm785.68 498.15c-27.02,1.46 -82.17,-4.17 -101.99,3.67 -3.81,11.53 -4.91,108.19 -0.16,117.92 9.44,10.88 33.13,6.18 47.36,6.18 18.05,0 36.43,-0.34 54.44,0.14 1.41,20.63 -2.81,76.78 1.84,90.97 9.32,12.21 35.05,7.46 51.69,7.46 20.49,0 41.05,0.18 61.53,0.1 25.97,-0.11 20.13,-13.02 20.11,-37.72 -0.01,-18.74 -1.32,-43.09 0.59,-61.14 27.03,0.81 55.91,0.57 83.02,0.3 27.75,-0.28 21.31,-12.54 21.31,-64.07 0,-46.33 6.37,-63.2 -19.16,-63.64 -27.98,-0.48 -57.47,-0.2 -85.5,0.21 -5.43,-118.59 32.58,-97.87 -107.36,-98.9 -39.31,-0.29 -27.5,11.46 -27.72,98.51z"/>
   <path class="fil0" d="M1074.18 1866.4c-6.81,-14.03 -73.04,-51.7 -79.08,-189.06 -7.16,-162.59 68.59,-285.91 -107.4,-410.37 -55.83,-39.48 -111.49,-66.95 -165.88,-103.09 -60.45,-40.17 -104.14,-71.91 -143.45,-125.45 -84,-114.45 -49.78,-183.24 27.26,-278.6 44.46,-55.04 78.67,-86.72 112.54,-158.46 12.02,-25.47 26.5,-77.03 27.47,-108.43 -142.34,62.06 -268.47,182.04 -336.8,303.03 -143.31,253.73 -122.09,561.23 64.35,788.06 3.34,4.07 5.6,6.31 8.74,10.31l18.49 21.76c3.93,4.48 6.61,5.88 10.97,10.12 7.3,7.09 12.39,13.17 20.01,20.29 22.75,21.27 35.69,35.06 64.23,56.43 131.37,98.34 302.02,166.39 478.56,163.47z"/>
  </g>
  <g>
   <path class="fil1 str0" d="M332.1 10.42l1497.68 0c176.93,0 321.68,144.76 321.68,321.68l0 1537.54c0,176.93 -144.76,321.68 -321.68,321.68l-1497.68 0c-176.93,0 -321.68,-144.76 -321.68,-321.68l0 -1537.54c0,-176.93 144.76,-321.68 321.68,-321.68z"/>
  </g>
 </g>
</svg>
