<?xml version="1.0" encoding="UTF-8"?>
<!DOCTYPE svg PUBLIC "-//W3C//DTD SVG 1.1//EN" "http://www.w3.org/Graphics/SVG/1.1/DTD/svg11.dtd">
<!-- Creator: CorelDRAW -->
<svg xmlns="http://www.w3.org/2000/svg" xml:space="preserve" width="2.16188in" height="2.20173in" version="1.1" style="shape-rendering:geometricPrecision; text-rendering:geometricPrecision; image-rendering:optimizeQuality; fill-rule:evenodd; clip-rule:evenodd"
viewBox="0 0 2161.88 2201.74"
 xmlns:xlink="http://www.w3.org/1999/xlink"
 xmlns:xodm="http://www.corel.com/coreldraw/odm/2003">
 <defs>
  <style type="text/css">
   <![CDATA[
    .str0 {stroke:#856443;stroke-width:20.83;stroke-miterlimit:2.61313}
    .fil1 {fill:none}
    .fil0 {fill:#856443}
   ]]>
  </style>
 </defs>
 <g id="Layer_x0020_1">
  <metadata id="CorelCorpID_0Corel-Layer"/>
  <path class="fil0" d="M1006.62 1233l664.41 667.76c11.2,-93.93 29.55,-380.94 -26.67,-439.07 -75.39,-77.96 -158.77,-161.52 -235.21,-231.42 68.96,-88.46 110.85,-57.76 110.15,-191.65 -0.56,-105.56 -1.76,-211.27 1.37,-316.6 -27.45,9.22 -15.61,4.8 -34.69,19.34 -11.43,8.71 -21.39,20.42 -33.11,32.35 -87.81,89.38 -422.62,410.44 -446.24,459.28z"/>
  <path class="fil0" d="M742.49 972.75c-44.73,102.43 -105.4,41.37 -104.18,207.6 0.72,98.42 -5.43,216.21 2.59,311.61l508.24 -500.52c-19.71,-56.09 -110.86,-134.68 -156.53,-179.26l-332 -331.58c-42.69,-42.58 -131.24,-145.1 -180.78,-165.7 13,550.28 -73.21,290 262.66,657.86z"/>
  <g>
   <path class="fil1 str0" d="M332.1 10.42l1497.68 0c176.93,0 321.68,144.76 321.68,321.68l0 1537.54c0,176.93 -144.76,321.68 -321.68,321.68l-1497.68 0c-176.93,0 -321.68,-144.76 -321.68,-321.68l0 -1537.54c0,-176.93 144.76,-321.68 321.68,-321.68z"/>
  </g>
 </g>
</svg>
