<?xml version="1.0" encoding="UTF-8"?>
<!DOCTYPE svg PUBLIC "-//W3C//DTD SVG 1.1//EN" "http://www.w3.org/Graphics/SVG/1.1/DTD/svg11.dtd">
<!-- Creator: CorelDRAW -->
<svg xmlns="http://www.w3.org/2000/svg" xml:space="preserve" width="2.16188in" height="2.20173in" version="1.1" style="shape-rendering:geometricPrecision; text-rendering:geometricPrecision; image-rendering:optimizeQuality; fill-rule:evenodd; clip-rule:evenodd"
viewBox="0 0 2161.88 2201.74"
 xmlns:xlink="http://www.w3.org/1999/xlink"
 xmlns:xodm="http://www.corel.com/coreldraw/odm/2003">
 <defs>
  <style type="text/css">
   <![CDATA[
    .str0 {stroke:#856443;stroke-width:20.83;stroke-miterlimit:2.61313}
    .fil1 {fill:none}
    .fil0 {fill:#856443}
   ]]>
  </style>
 </defs>
 <g id="Layer_x0020_1">
  <metadata id="CorelCorpID_0Corel-Layer"/>
  <path class="fil0" d="M257.21 1073.1l0 124.87c31.05,71.92 16.22,286.02 244.68,511.62 231.9,228.98 446.92,208.33 522.7,237.39l100.67 0c63.68,-21.31 135.06,0.65 305,-78.75 225.98,-105.59 380.67,-293.82 446.81,-534.96 12.29,-44.8 17.26,-135.82 27.61,-166.05l0 -93.34c-8.67,-23.52 -17.24,-120.37 -28.03,-160.48 -36.9,-137.19 -114.85,-274.06 -205.11,-366.14 -226.81,-231.4 -457.64,-220.37 -521.95,-247.74l-118.36 0c-26.87,9.82 -118.59,15.71 -160.43,27.53 -295.43,83.43 -498.94,286.08 -584.41,580.39 -12.63,43.49 -18.96,138.3 -29.18,165.67zm225.32 492.33l235.72 -65.27c130.69,-34.18 143.15,-39.85 174.76,-126.58 16.24,-44.54 10.74,-20.13 -35.98,-92.19 -75.69,-116.74 -176.33,-232.66 -74.7,-294.2 -5.46,-92.06 -17.94,-203.5 25.49,-276.4 21.74,-36.5 46.08,-60.94 78.32,-82.5 35.1,-23.47 74.86,-33.1 107.98,-52.74 -1.59,-31.15 -11.98,-36.09 -2.61,-67.95 117.44,-1.59 244.21,73.81 305.77,128.39 114.29,101.36 96.68,165.47 94.82,351.8 11.04,37.62 89.63,12.79 -26.23,200.9l-85.47 134.04c-15.3,21.55 -25.95,25.61 -35.46,45.8 60.06,119.5 173.19,124.53 311.54,157.6 45.45,10.87 84.51,27.99 123.21,39.43 71.12,-127.61 120.59,-182.65 140.52,-367.35 63.78,-591.11 -590.66,-1042.66 -1138.58,-701.21 -291.9,181.91 -425.71,564.8 -291.61,899.78 29.57,73.88 59.93,112 92.5,168.64z"/>
  <g>
   <path class="fil1 str0" d="M332.1 10.42l1497.68 0c176.93,0 321.68,144.76 321.68,321.68l0 1537.54c0,176.93 -144.76,321.68 -321.68,321.68l-1497.68 0c-176.93,0 -321.68,-144.76 -321.68,-321.68l0 -1537.54c0,-176.93 144.76,-321.68 321.68,-321.68z"/>
  </g>
 </g>
</svg>
