<?xml version="1.0" encoding="UTF-8"?>
<!DOCTYPE svg PUBLIC "-//W3C//DTD SVG 1.1//EN" "http://www.w3.org/Graphics/SVG/1.1/DTD/svg11.dtd">
<!-- Creator: CorelDRAW -->
<svg xmlns="http://www.w3.org/2000/svg" xml:space="preserve" width="2.16188in" height="2.20173in" version="1.1" style="shape-rendering:geometricPrecision; text-rendering:geometricPrecision; image-rendering:optimizeQuality; fill-rule:evenodd; clip-rule:evenodd"
viewBox="0 0 2161.88 2201.74"
 xmlns:xlink="http://www.w3.org/1999/xlink"
 xmlns:xodm="http://www.corel.com/coreldraw/odm/2003">
 <defs>
  <style type="text/css">
   <![CDATA[
    .str0 {stroke:#856443;stroke-width:20.83;stroke-miterlimit:2.61313}
    .fil1 {fill:none}
    .fil0 {fill:#856443}
   ]]>
  </style>
 </defs>
 <g id="Layer_x0020_1">
  <metadata id="CorelCorpID_0Corel-Layer"/>
  <path class="fil0" d="M470.24 1435.11c-15.18,52.94 -64.64,44.59 -48.47,119.9 31.83,25.63 69.32,23.01 100.34,50.46 -15.4,35.38 -44.97,32.18 -50.8,74.91 24.05,22.92 35.31,16.96 45.47,56.88 28.49,111.91 -26.56,173.35 160.98,158.84 217.96,-16.86 227.43,-28.38 197.15,195.35l806.08 0.19c1.4,-195.45 -24.45,-382.44 30.9,-565.28 41.19,-136.07 131.76,-209.76 144.21,-458.3 28.96,-578.1 -474.03,-893.18 -990.8,-715.27 -157.78,54.32 -268.54,145.56 -337.8,267.12 -101.45,178.07 -27.26,352.61 -112.33,492.36 -33.71,55.38 -92.11,116.87 -106.33,192.28 -25.15,133.36 65.79,96.58 161.41,130.56zm690.17 -866.21c-49.25,5.08 -32.66,-8.57 -68.27,-21.88 91.12,140.73 14.47,207.61 -79.45,186.72 -47.28,-10.52 -78.89,-35.95 -105.24,-68.63 -29.35,-36.4 -31.61,-89.53 -39.48,-141.53l-15.66 25.09c-5.84,10.59 -4.11,10.11 -11.56,21.05 -43.01,7.28 -45.56,-4.97 -64.35,-34.54 10.36,57.54 63.74,71.6 52.44,121.8 -33.96,16.93 -65.36,9.82 -105.14,13.88 19.85,-7.99 264.82,26.07 171.49,195.37 -122.91,-1.57 -155.97,-69.41 -207.01,-89.4 45.52,80.17 42.39,70.87 -99.72,100.81 51.28,2.09 106.11,-10.63 129.45,24.24 -8.33,30.4 -39.03,35.53 -62.93,55.44 67.53,-12.78 216.2,-88.11 231.3,21.34 17.34,125.7 -123.49,88.65 -231.34,96.69 17.77,11.33 20.37,9.94 42.63,15.33 97.46,23.61 -0.35,65.26 -39.85,95.23 31.39,-10.7 47.8,-24.96 87.97,-18.97 13.69,36.43 -4.02,74.87 10.54,108.59 13.95,-67.06 3.84,-98.28 52.42,-138.17 95.58,-78.49 243.47,-59.49 267.97,40.04 3.36,13.66 -29.6,112.72 -27.59,169.4 4.17,117.45 64.33,234.62 134.44,272.5 54.16,29.26 294.34,44.85 366.47,39.43 -27.96,-14.04 -27.63,-3.12 -49.57,-27.01 8.46,-23.17 3.7,-12 27.17,-26.71 -27.12,-4.08 -26.92,-1.18 -42.14,-14.08 6.62,-39.87 32.76,-42.51 80.21,-46.17l-63.84 -10.18 2.52 -43.91c-18.7,34.53 -25.6,60.87 -62.15,73.28 -17.49,-24.25 -15.52,-42.95 -17.54,-75.73l-7.59 10.55c-17.53,34.33 -8.4,58.59 -19.43,88.09 -28.42,76.04 -205.41,12.96 -254.71,-66.01 -42.93,-68.76 -67.48,-187.56 -34.26,-278.1 63.46,-173.02 345.74,-231.49 355.43,38.26 15.01,-32.5 17.07,-75.8 56.68,-86.27 35.12,-9.28 71.7,19.48 104.59,23.27 -31.02,-3.96 -77.54,-43.47 -75.91,-84.11 22,-20.68 39.58,-23.13 66.56,-35.96 -77.57,5.69 -268.88,48.72 -254.23,-152.24 11.86,-162.68 170.53,-137.68 313.43,-133.06 -1.67,-1.2 -4.41,-4.6 -5.36,-3.04l-20.7 -10.46c-24.3,-14.93 -12.57,1.61 -18.44,-22.39 25.63,-22.19 58.12,-19.65 85.25,-34.15 -179.46,5.49 -121.66,3.8 -124.13,-124.48 -49.62,302.39 -578.48,174.62 -325.75,-108.95 -38.18,26.78 -46.91,40.06 -82.96,39.36l-22.38 -79.41 -0.25 99.76z"/>
  <g>
   <path class="fil1 str0" d="M332.1 10.42l1497.68 0c176.93,0 321.68,144.76 321.68,321.68l0 1537.54c0,176.93 -144.76,321.68 -321.68,321.68l-1497.68 0c-176.93,0 -321.68,-144.76 -321.68,-321.68l0 -1537.54c0,-176.93 144.76,-321.68 321.68,-321.68z"/>
  </g>
 </g>
</svg>
