<?xml version="1.0" encoding="UTF-8"?>
<!DOCTYPE svg PUBLIC "-//W3C//DTD SVG 1.1//EN" "http://www.w3.org/Graphics/SVG/1.1/DTD/svg11.dtd">
<!-- Creator: CorelDRAW -->
<svg xmlns="http://www.w3.org/2000/svg" xml:space="preserve" width="2.16188in" height="2.20173in" version="1.1" style="shape-rendering:geometricPrecision; text-rendering:geometricPrecision; image-rendering:optimizeQuality; fill-rule:evenodd; clip-rule:evenodd"
viewBox="0 0 2161.88 2201.74"
 xmlns:xlink="http://www.w3.org/1999/xlink"
 xmlns:xodm="http://www.corel.com/coreldraw/odm/2003">
 <defs>
  <style type="text/css">
   <![CDATA[
    .str0 {stroke:#856443;stroke-width:20.83;stroke-miterlimit:2.61313}
    .fil1 {fill:none}
    .fil0 {fill:#856443}
   ]]>
  </style>
 </defs>
 <g id="Layer_x0020_1">
  <metadata id="CorelCorpID_0Corel-Layer"/>
  <path class="fil0" d="M529.77 500.8c-34.81,102.21 -100.92,390.35 -90.16,502.13 49.82,29.73 132.26,55.75 205.36,51.53 -0.8,-28.72 -45.8,-67.33 -75.28,-163.16 -14.48,-47.06 -41.4,-175.68 -11.88,-211.68 33.05,-9.5 114.87,-3.49 164.68,-14.42 124.04,-27.22 126.97,-82.44 254.56,-102.63 47.74,-7.55 133.91,-18.76 166.13,4.57 14.86,45.31 -1.17,226.04 -11.35,276.66 -27.82,138.23 -81.91,176.97 -83.59,209.59 57.12,9.17 174.35,-23.45 205.68,-55 6.56,-81.52 -57.92,-442.19 -90.02,-497.75 -11.37,16.61 -13.1,64.47 -51.57,46.33 -8.64,-4.07 -18.94,-15.38 -29.97,-22.3 -12.69,-7.95 -23.4,-12.64 -38.44,-18.22 -91.83,-34.03 -300.43,-33.12 -391.91,-1.17 -12.86,4.48 -23.88,8.92 -35.98,15.89 -15.87,9.13 -20.55,17.64 -32.7,24.07 -38.24,20.21 -40.87,-19.15 -53.56,-44.46zm-125.47 1239.83l0.12 -246.21 -179.97 -1.52c-0.59,42.58 -5.99,179.93 7.44,206.78 11.2,22.41 33.55,40.41 65.83,42.49 24.62,1.6 83.55,2.09 106.57,-1.53zm295.84 -605.73c0.17,39.11 101.28,192.72 135.19,243.64l14.56 16.14c6.44,-19.71 100.78,-168.51 124.01,-205.11 26.21,-41.3 18.19,-36.38 19.52,-92.76 -18.61,5.81 -38.78,23.37 -65.5,32.8 -120.26,42.42 -181.13,-17.61 -227.82,-35.12l0.04 40.42zm397.14 196.94c26.73,52.8 77.5,29.17 23.84,103.87l-144.91 203.34c-13.3,17.93 -21.82,31.92 -34.87,49.89 -12.54,17.26 -27.26,33.65 -36.25,53.29l266.83 -0.07c-4.26,-45.58 -74.59,-40.74 -78.21,-146.02 -2.67,-77.88 36.89,-109.28 82.42,-142.21 -23,-166.39 135.59,-179.81 138.4,-182.07 8.67,-12.27 23.25,-39.12 30.17,-53.83 -60.1,-16.93 -56.58,-27.72 -132.67,-22.85 8.11,43.07 35.29,78.72 -12.41,97.86 -30.56,12.26 -72.94,31.32 -102.34,38.81zm-564.97 -83.69c32.09,8.32 128.65,44.85 145.35,61.92 15.19,28.28 -40.66,71.65 -58.73,84.42 8.83,20.83 93.87,136.15 113.24,162.71 20.41,27.96 37.6,52.01 56.7,79.79l59.7 82.13 117.68 -160.58c18.57,-26.2 108.34,-145.55 113.82,-166.21 -159.82,-110.88 41.38,-104.57 86.46,-149.18l-11.39 -48.55 -113.6 -0.28c-12.23,3.3 -117.05,181.67 -138.67,216.01 -67.69,107.57 -57.65,85.91 -155.85,-70.33l-91.42 -144.92c-120.66,-0.95 -114.41,-16.62 -123.29,53.07zm-308.02 189.51l180.22 -0.05c-0.39,-37.02 -4.58,-66.87 8.91,-92.02 23.66,-4.92 22.02,-5.03 41.35,3.81 13.29,46.82 4.89,319.11 4.87,391.15l334.4 1.87 -120.9 -173.34c-14.69,-20.37 -121.71,-155.65 -118.63,-180.03 7.58,-22.32 34.89,-45.32 47.1,-54.49 -41.17,-21.42 -114.63,-38.18 -125.68,-58.92 -11.28,-20.93 7.02,-57.6 11.01,-81.26 -154.65,-0.9 -261.56,80.82 -262.64,243.28zm290.68 -1163.53l66.17 202.04c117.47,-41.53 111.52,-49.87 262.72,-49.26 52.82,0.21 96.38,-0.32 148.08,9.07 54.95,9.98 77.13,23.13 121.07,40.68l66.76 -203.15c-122.67,-35.51 -184.67,-65.18 -331.21,-65.13 -133.82,0.04 -221.61,24.41 -333.6,65.75zm302.28 19.71l-36.48 5.55c-15.52,39.57 -5.19,48.07 37.43,51.52 3.8,43.31 12.46,52.06 50.43,37.43l7.02 -36.6 36.07 -5.48c17.74,-39.3 5.22,-47.81 -36.5,-52.38 -2.12,-21.57 0.28,-42.21 -27,-43.7 -28.85,-1.57 -26.24,18.78 -30.96,43.66zm553.86 991.67c0.59,0.95 1.76,1.15 2.09,2.61 1.73,7.59 60.07,32.32 53.82,100.66 -2.27,24.8 -25.03,39.37 -45.69,23.19 -18.74,-14.68 0.02,-42.66 -21.37,-63.7 -34.38,-33.8 -91.98,-10.73 -112.13,16.59 -36.24,49.14 -13.89,80.29 0.2,127.15 -45.41,10.55 -90.96,23.54 -98.45,85.52 -7.27,60.28 31.09,96.58 78.24,106.68 -6.35,120.19 75.72,151.46 112.73,107.34 22.47,-26.8 13.4,-45.9 28.41,-60.93 34.92,-21.19 52.14,11.24 40.78,50.35 -10,34.41 -34.05,48.81 -42.35,69.55 15.56,20.41 30.95,49.9 78.94,50.1 42.53,0.19 70.02,-21.67 69.68,-64.11l-0.22 -536.89c0.15,-20.17 12.4,-73.28 -64.82,-71.96 -41.03,0.69 -67.12,28.78 -79.87,57.88zm348.26 566.68c-9.56,-30.58 -46.99,-47.92 -46.46,-96.13 0.22,-20 13.06,-36.52 34.69,-30.67 22.5,6.09 18.39,30.32 26.56,48.79 27.9,63 132.15,46.82 124.73,-89.71 107.11,-24.15 113.05,-174.09 -20.13,-191 5.4,-19.94 49.98,-105.48 -21.61,-150.33 -24.75,-15.5 -52.66,-18.05 -79.61,-1.79 -34.67,20.93 -13.52,39.43 -30.62,72.31l-31.4 4.71c-39.79,-48.43 2.48,-112.33 41.02,-126.26 -15.35,-58.62 -77.63,-81.54 -127.02,-51.72 -22.29,13.44 -19.06,16.46 -18.66,49.6l0.02 541.71c-0.28,32.76 3.15,65 64.23,68.68 47.66,2.86 62.29,-25.08 84.26,-48.18zm-1115.79 -1120.7c-21.79,123.64 98.87,409.5 295.01,349.7 76.63,-23.37 129.37,-93.39 157.62,-171.72 37.29,-103.4 34.07,-182.6 36.47,-297.53 -114.74,-8.16 -163.23,15.95 -239.53,61.67 -67.27,40.31 -156.37,58.94 -249.57,57.88zm146.79 213.7c-3.89,85.21 179.72,84.05 192.5,19.35 4.62,-23.35 -12.09,-40.26 -34.37,-33.33 -18.37,5.7 -22.97,23.41 -50.53,26.18 -62.9,6.31 -61.3,-54.25 -107.6,-12.2zm-14.69 -179c-22.63,6.14 -52.82,19.51 -37.26,48.04 16.14,29.61 39.25,-0.43 70.74,9.39 64.2,20.03 48.42,-79.65 -33.48,-57.43zm188.41 0.02c-22.67,6.23 -52.52,19.68 -37.32,47.91 16.13,29.95 39.07,-0.26 70.55,9.6 64.91,20.33 48.3,-79.93 -33.23,-57.51z"/>
  <g>
   <path class="fil1 str0" d="M332.1 10.42l1497.68 0c176.93,0 321.68,144.76 321.68,321.68l0 1537.54c0,176.93 -144.76,321.68 -321.68,321.68l-1497.68 0c-176.93,0 -321.68,-144.76 -321.68,-321.68l0 -1537.54c0,-176.93 144.76,-321.68 321.68,-321.68z"/>
  </g>
 </g>
</svg>
