<?xml version="1.0" encoding="UTF-8"?>
<!DOCTYPE svg PUBLIC "-//W3C//DTD SVG 1.1//EN" "http://www.w3.org/Graphics/SVG/1.1/DTD/svg11.dtd">
<!-- Creator: CorelDRAW -->
<svg xmlns="http://www.w3.org/2000/svg" xml:space="preserve" width="2.16188in" height="2.21859in" version="1.1" style="shape-rendering:geometricPrecision; text-rendering:geometricPrecision; image-rendering:optimizeQuality; fill-rule:evenodd; clip-rule:evenodd"
viewBox="0 0 2161.88 2218.59"
 xmlns:xlink="http://www.w3.org/1999/xlink"
 xmlns:xodm="http://www.corel.com/coreldraw/odm/2003">
 <defs>
  <style type="text/css">
   <![CDATA[
    .str0 {stroke:#856443;stroke-width:20.83;stroke-miterlimit:2.61313}
    .fil1 {fill:none}
    .fil0 {fill:#856443}
   ]]>
  </style>
 </defs>
 <g id="Layer_x0020_1">
  <metadata id="CorelCorpID_0Corel-Layer"/>
  <path class="fil0" d="M524.18 1620.05c-13.84,48.26 -58.93,40.65 -44.19,109.31 29.02,23.36 63.2,20.98 91.48,46 -14.04,32.26 -41,29.34 -46.32,68.3 21.93,20.89 32.19,15.46 41.45,51.85 25.97,102.02 -24.21,158.04 146.76,144.81 198.71,-15.37 207.34,-25.87 179.74,178.09l734.88 0.17c1.28,-178.19 -22.3,-348.66 28.17,-515.35 37.55,-124.05 120.13,-191.23 131.48,-417.81 26.4,-527.04 -432.16,-814.29 -903.29,-652.1 -143.85,49.52 -244.82,132.7 -307.97,243.53 -92.48,162.34 -24.85,321.47 -102.41,448.87 -30.74,50.49 -83.98,106.55 -96.95,175.3 -22.93,121.58 59.98,88.05 147.16,119.02zm629.2 -789.7c-44.9,4.63 -29.78,-7.82 -62.24,-19.95 83.07,128.3 13.19,189.28 -72.43,170.23 -43.11,-9.59 -71.93,-32.78 -95.95,-62.57 -26.76,-33.19 -28.82,-81.62 -36,-129.03l-14.28 22.88c-5.32,9.65 -3.75,9.22 -10.54,19.19 -39.21,6.64 -41.54,-4.53 -58.67,-31.49 9.44,52.46 58.12,65.28 47.81,111.04 -30.96,15.43 -59.58,8.95 -95.85,12.65 18.1,-7.28 241.43,23.77 156.34,178.12 -112.06,-1.44 -142.19,-63.28 -188.72,-81.5 41.5,73.08 38.65,64.61 -90.91,91.9 46.75,1.91 96.74,-9.69 118.02,22.09 -7.6,27.72 -35.58,32.39 -57.37,50.55 61.56,-11.65 197.1,-80.33 210.87,19.46 15.81,114.59 -112.58,80.82 -210.9,88.15 16.2,10.33 18.57,9.06 38.87,13.98 88.85,21.53 -0.31,59.49 -36.33,86.82 28.62,-9.76 43.57,-22.76 80.2,-17.3 12.48,33.22 -3.66,68.26 9.61,99 12.71,-61.14 3.5,-89.6 47.79,-125.97 87.13,-71.56 221.96,-54.23 244.3,36.5 3.07,12.45 -26.98,102.77 -25.15,154.44 3.8,107.07 58.64,213.9 122.56,248.43 49.37,26.67 268.34,40.89 334.1,35.94 -25.49,-12.8 -25.19,-2.84 -45.2,-24.62 7.72,-21.12 3.38,-10.94 24.78,-24.35 -24.73,-3.72 -24.54,-1.08 -38.42,-12.83 6.04,-36.35 29.87,-38.76 73.13,-42.09l-58.2 -9.28 2.3 -40.04c-17.04,31.48 -23.34,55.49 -56.66,66.81 -15.95,-22.1 -14.15,-39.16 -16,-69.04l-6.91 9.61c-15.98,31.3 -7.66,53.41 -17.71,80.31 -25.91,69.32 -187.27,11.81 -232.21,-60.18 -39.14,-62.69 -61.52,-171 -31.24,-253.54 57.86,-157.74 315.21,-211.04 324.04,34.88 13.69,-29.63 15.56,-69.11 51.67,-78.65 32.02,-8.46 65.36,17.76 95.35,21.22 -28.28,-3.61 -70.69,-39.63 -69.2,-76.68 20.05,-18.85 36.08,-21.08 60.69,-32.79 -70.72,5.19 -245.13,44.41 -231.78,-138.79 10.81,-148.31 155.47,-125.52 285.74,-121.3 -1.52,-1.09 -4.02,-4.2 -4.89,-2.77l-18.87 -9.54c-22.15,-13.61 -11.46,1.46 -16.81,-20.41 23.36,-20.22 52.99,-17.91 77.72,-31.13 -163.61,5 -110.92,3.46 -113.17,-113.48 -45.24,275.69 -527.38,159.2 -296.98,-99.32 -34.8,24.41 -42.77,36.52 -75.63,35.88l-20.4 -72.39 -0.23 90.95z"/>
  <g>
   <path class="fil1 str0" d="M332.1 10.42l1497.68 0c176.93,0 321.68,144.76 321.68,321.68l0 1537.54c0,176.93 -144.76,321.68 -321.68,321.68l-1497.68 0c-176.93,0 -321.68,-144.76 -321.68,-321.68l0 -1537.54c0,-176.93 144.76,-321.68 321.68,-321.68z"/>
  </g>
 </g>
</svg>
