<?xml version="1.0" encoding="UTF-8"?>
<!DOCTYPE svg PUBLIC "-//W3C//DTD SVG 1.1//EN" "http://www.w3.org/Graphics/SVG/1.1/DTD/svg11.dtd">
<!-- Creator: CorelDRAW -->
<svg xmlns="http://www.w3.org/2000/svg" xml:space="preserve" width="2.16188in" height="2.20173in" version="1.1" style="shape-rendering:geometricPrecision; text-rendering:geometricPrecision; image-rendering:optimizeQuality; fill-rule:evenodd; clip-rule:evenodd"
viewBox="0 0 2161.88 2201.74"
 xmlns:xlink="http://www.w3.org/1999/xlink"
 xmlns:xodm="http://www.corel.com/coreldraw/odm/2003">
 <defs>
  <style type="text/css">
   <![CDATA[
    .str0 {stroke:#856443;stroke-width:20.83;stroke-miterlimit:2.61313}
    .fil1 {fill:none}
    .fil0 {fill:#856443}
   ]]>
  </style>
 </defs>
 <g id="Layer_x0020_1">
  <metadata id="CorelCorpID_0Corel-Layer"/>
  <g id="_1338781381120">
   <path class="fil0" d="M412.58 1756.66c-12.15,-12.22 -63.09,-66.85 -71.46,-72.58 2.18,-8.59 63.09,-80.17 75.46,-95.66l199.25 -246.14c34.33,-41.75 72.85,-91.88 106.99,-132.26l31.09 -38.07c5.24,-6.2 10.39,-12.55 15.57,-19.05l183.83 -226.93c4.94,-6.65 9.57,-12.47 14.74,-18.37 20.07,-22.93 54.99,-67.75 76.82,-94.78l145.66 -180.04c3.06,-3.85 5.44,-6.03 7.95,-9.33 4.75,-6.25 9.51,-12.12 14.73,-18.41 5.69,-6.86 9.65,-13.56 15.23,-19.31 3.69,-3.8 4.72,-5.41 7.73,-9.62l69.05 -85.2c3.05,-4.17 11.43,-15.79 16.47,-18.02 15.18,18.19 28.87,48.27 31.79,78.03 -45.08,11.87 -113.72,60.35 -148.51,97.76 -56.1,60.34 -91.88,128.64 -106.32,212.36 -15.03,87.13 0.85,167.83 33.72,239.32 17.3,37.63 20.28,25.76 7.07,44.97l-86.59 125.26c-10.17,14.41 -19.74,26.71 -30,40.62l-90.67 121.24c-41.76,53.9 -80.54,106.67 -123.03,159.45 -10.79,13.41 -20.63,25.69 -31.28,39.32l-23.3 28.61c-2.43,2.93 -5.78,6.85 -8.41,10.27 -10.45,13.61 -20.92,25.71 -31.93,38.73 -10.77,12.74 -21.04,25.63 -32.02,38.61 -16.18,19.15 -55.19,65.98 -73.5,85.02l-24.57 28.76c-4.31,5.96 -29.26,34.94 -35.51,37.57 -4.56,-6.53 -13.81,-15.93 -19.8,-21.98l-51.5 -52.35c-3.94,-3.85 -5.47,-7.8 -10.4,-10.77l-14.2 -14.98c-4.83,-5.03 -8.63,-8.97 -13.33,-14.04 -5.28,-5.68 -6.89,-10.68 -12.69,-14.75 -8.48,-5.94 -8.02,-6.12 -14.11,-13.24zm3.8 98.67l91.28 94.48c7.23,7.65 20.54,25.21 34.4,29.05 22.65,6.28 29.31,-7.27 41,-17.86 11.82,-10.7 24.62,-28.84 36,-40.4 3.85,-3.91 4.37,-3.66 7.73,-8.08l171.97 -202.8c24.26,-28.55 62.14,-75.3 83.34,-104.03 4.41,-5.97 9.53,-12.76 14.37,-17.76 0.29,0.24 0.68,0.29 0.8,0.78 0.12,0.49 0.62,0.61 0.78,0.78 21.14,22.69 49.94,65.23 72.35,90.69l230.87 270.7c9.33,9 18.1,26.94 38.3,27.74 20.81,0.83 31.73,-17.26 40.81,-26.52 6.16,-6.28 11.02,-9.48 16.83,-16.27l115.6 -119.39c12.57,-13.12 20.73,-22.58 31.92,-34.37 5.44,-5.73 11.81,-10.43 17,-16.14 5.54,-6.1 10.24,-11.27 15.78,-17.36 24.61,-27.05 62.54,-50.73 47.34,-80.86 -5.87,-11.65 -34.18,-43.52 -43.92,-55.52l-224.54 -277.03c-24.03,-29 -71.36,-85.59 -89.65,-111.43 4.01,-7.86 17.43,-30.18 23.94,-34.65 9.59,15.83 52.33,52.79 68.62,63.85 41.89,28.46 83.57,51.07 136.26,64.28 58.82,14.75 123.58,16.63 182.18,4.09 76.28,-16.33 132.59,-48.95 179.15,-87.54l33.89 -32.38c86.87,-91.68 125.07,-225.38 99.56,-353.3 -12.83,-64.35 -39.96,-120.97 -79.49,-171.2 -12.46,-15.83 -26.52,-29.16 -40.41,-43.21 -3.17,-3.21 -4.09,-5.12 -7.81,-7.99 -2.11,-1.63 -3.04,-2.02 -4.98,-3.74 -1.86,-1.65 -2.44,-2.64 -4.31,-4.26 -73.75,-63.74 -176.11,-95.57 -275.58,-92.57 -21.33,0.64 -42.04,6.07 -60.8,6.83 -5.56,-31.62 -16.61,-58.25 -32.59,-84.37 -12.74,-20.82 -37.62,-48.05 -56.09,-62.16 -15.79,-12.06 -28.04,-21.24 -46.78,-32.45 -64.37,-38.48 -155.59,-62.41 -240.85,-73.49 -194.17,-25.25 -371.93,8.47 -527.13,85.67 -43.98,21.88 -77.58,41.02 -102.37,73.52 -71.6,93.88 -32.85,276.47 -0.35,371.24 6.83,19.9 12.92,37.99 20.49,57.41 14.48,37.15 30.72,72.69 48.12,108.98 33.2,69.24 74.44,135.66 115.68,200 6.67,10.41 27.67,38.54 31.37,47.46 -2.51,4.81 -10.33,13.27 -14.28,18.41l-44.63 54.87c-2.98,3.54 -4.01,5.31 -6.93,8.89l-201.22 248.49c-9.89,12.67 -19.9,23.87 -29.8,36.46 -19.59,24.93 -41.25,48.7 -59.8,74.28 -12.6,17.38 -3.49,37.72 7.52,46.58 11.56,9.3 22.43,23.04 32.52,33.75 10.87,11.52 22.76,23.32 32.83,33.5 5.62,5.68 10.28,11.41 15.82,17.33l17.72 16.78c3.15,4.65 14.73,15.83 19.61,20.84 3.31,3.4 6.67,6.35 10.19,10 3.68,3.81 8.01,9.37 10.34,11.4zm255.79 -685.45c3.46,-7.57 60.1,-76.34 67.11,-84.56 12.94,-15.15 34.09,-43.55 45.99,-56.41 4.56,-4.93 7.5,-8.17 11.64,-14.24l16.92 -20.68c4.56,-5.61 38.59,-46.82 40.02,-51.3 -2.19,-3.69 -8.48,-9.84 -12.29,-14.28l-71.75 -88.2c-4.47,-5.13 -7.88,-10.28 -12.29,-15.08 -26.69,-28.99 -78.76,-97.22 -108.54,-132.22 -4.65,-5.47 -7.89,-9.55 -12.31,-15.07l-119.97 -146.67c-4.47,-5.41 -43.19,-55.47 -49.78,-58.03 -68.16,98.81 -6.71,292.89 32.3,386.93 49.37,119.06 98,198.23 164.61,300.88 5.93,9.13 3.96,6.72 8.34,8.92zm266.22 362.18c2.7,6.6 31.11,41.39 36.02,47.62l93.45 115.53c6.15,7.71 12.49,15.74 18.79,23.02 6.73,7.78 12.67,14.67 19.03,22.76 17.87,22.75 49.7,56.23 66.98,78.59l15.09 16.58c2.6,2.76 2.14,2.85 4.38,5.74l49.8 55.65 209.34 -216.91 -181.62 -224.78c-7.4,-8.97 -13.7,-16.22 -19.98,-24.72l-116.78 -144c-0.96,-1.2 -1.76,-2.24 -2.62,-3.19l-3.19 -3.18c-0.28,0.26 -0.67,0.31 -0.79,0.83l-163.35 219c-4.07,5.5 -7.8,10.28 -11.73,15.7 -4.28,5.91 -8.28,11.42 -12.83,15.76zm-415.66 -1098.43c5.03,9.54 26.85,33.22 34.88,43.69 23.7,30.87 78.14,95.83 105.05,128.46l233.82 284.87 23.41 -28.3c34.95,-44.94 81.14,-99.83 117.45,-144.86l94.16 -116.28c8.35,-10.34 15.77,-18.6 23.2,-28.71l105.77 -130.6c4.32,-5.44 8.41,-9.78 12.3,-15.19 -2.55,-3.7 -12.62,-9.72 -16.69,-12.18 -19.44,-11.75 -36.5,-20.65 -58.73,-29.28 -96.69,-37.56 -197.47,-48.11 -302.32,-48.17 -98.89,-0.06 -201.43,24.56 -291.01,59.49l-81.3 37.06zm944.33 158.09c-68.21,3.88 -129.79,33.04 -180.02,71.35l-33.18 30.21c-20.64,22.24 -28.83,31.22 -46.14,58.99 -9.28,14.9 -21.04,38.46 -27.71,57.38 -39.43,111.76 -22.46,236.34 51.2,325.85 39.27,47.72 82.5,83.37 146.42,107.17 91.95,34.25 189.17,26.91 275.29,-17.73 37.84,-19.62 46.89,-29.68 72.91,-52.47 11.73,-10.27 20.19,-20.17 30.87,-32.51 54.87,-63.44 81.22,-157.24 74.48,-241.67 -7.1,-88.92 -54.53,-179.04 -123.2,-232.36 -4.8,-3.72 -7.78,-6.43 -12.02,-9.57 -67.45,-50.05 -142.58,-69.55 -228.9,-64.63z"/>
   <path class="fil0" d="M1365.75 797.74c-22.36,0.26 -135.35,-2.29 -146.69,1.99 -22.58,8.53 -22.41,24.22 -22.38,52.16l0 149.89c0,25.3 0.12,45.11 21.8,52.71 13.13,4.61 124.65,2.04 148.04,2.11 0.06,24.13 -2.9,131.83 1.54,146.52 6.76,22.37 26.53,23.28 51.62,23.32l149.89 0.01c27.37,0 44.72,0.46 53.18,-21.61 4.76,-12.44 2.23,-125.09 2.23,-147.74 25.53,-4.1 128.16,3.33 146.33,-2.12 22.51,-6.75 23.6,-24.87 23.36,-51.75l0.13 -149.89c-0.04,-18.83 3.62,-44.33 -21.89,-53.49 -16.28,-5.84 -120.09,-0.63 -147.57,-2.28 -3.9,-30.14 3.78,-126.54 -2.03,-146.42 -2.54,-8.69 -10.32,-16.83 -17.55,-20.04 -13.11,-5.82 -92.31,-3.24 -109.69,-3.24 -24.97,0 -50.02,0.27 -74.95,0.11 -64.33,-0.43 -54.55,19.03 -54.55,95.64 0,14.14 1.78,64.14 -0.82,74.13zm-103.1 65.85l-0.54 127.2c28.7,-0.19 57.11,-0.01 85.51,-0.01 23.88,0 60.65,-4.82 75.12,9.38 14.93,14.65 9.41,50.6 9.53,75.12 0.13,28.46 0.01,56.95 0.01,85.41l126.7 -0.01c0,-28.36 0.04,-56.13 0.04,-83.96 0,-24.59 -5.44,-60.26 9.69,-75.82 14.98,-15.41 49.81,-10.1 74.38,-10.1 28.64,-0 57.12,0.26 85.78,-0.03l0.05 -127.24c-27.83,0.9 -56.66,0.16 -84.39,0.13 -23.87,-0.02 -61.81,4.64 -75.89,-9.39 -14.35,-14.3 -9.65,-51.7 -9.65,-75.89 0,-25 2.08,-60.58 -0.24,-84.27l-126.06 -0.33c-2.37,24.24 -0.38,59.17 -0.37,84.6 0,23.98 5.59,60 -9.63,75.05 -8.97,8.87 -15.84,10.24 -31.82,10.24l-128.21 -0.08z"/>
  </g>
  <g>
   <path class="fil1 str0" d="M332.1 10.42l1497.68 0c176.93,0 321.68,144.76 321.68,321.68l0 1537.54c0,176.93 -144.76,321.68 -321.68,321.68l-1497.68 0c-176.93,0 -321.68,-144.76 -321.68,-321.68l0 -1537.54c0,-176.93 144.76,-321.68 321.68,-321.68z"/>
  </g>
 </g>
</svg>
