<?xml version="1.0" encoding="UTF-8"?>
<!DOCTYPE svg PUBLIC "-//W3C//DTD SVG 1.1//EN" "http://www.w3.org/Graphics/SVG/1.1/DTD/svg11.dtd">
<!-- Creator: CorelDRAW -->
<svg xmlns="http://www.w3.org/2000/svg" xml:space="preserve" width="2.16188in" height="2.20173in" version="1.1" style="shape-rendering:geometricPrecision; text-rendering:geometricPrecision; image-rendering:optimizeQuality; fill-rule:evenodd; clip-rule:evenodd"
viewBox="0 0 2161.88 2201.74"
 xmlns:xlink="http://www.w3.org/1999/xlink"
 xmlns:xodm="http://www.corel.com/coreldraw/odm/2003">
 <defs>
  <style type="text/css">
   <![CDATA[
    .str0 {stroke:#856443;stroke-width:20.83;stroke-miterlimit:2.61313}
    .fil1 {fill:none}
    .fil0 {fill:#856443}
   ]]>
  </style>
 </defs>
 <g id="Layer_x0020_1">
  <metadata id="CorelCorpID_0Corel-Layer"/>
  <path class="fil0" d="M312.93 1864.24l485.31 1.67c1.79,-63.75 14.93,-204.05 -19.87,-249.46 -52.8,-68.89 -121.51,-57.17 -223.73,-56.45 -95.2,0.67 -168.45,-12.71 -219.58,53.26 -37.74,48.69 -23.81,177.94 -22.13,250.97zm737.05 -1467.53l61.9 0 0 50.04 50.04 0 0 61.9 -50.04 0 0 50.04 -61.9 0 0 -50.04 -50.04 0 0 -61.9 50.04 0 0 -50.04zm166.3 109.26l-1.9 -145.99c-65.16,-12.61 -103.3,-36.78 -167.79,-24.66 -35.55,8.6 -79.75,18.2 -99.4,30.76 -1.61,40.38 -5.57,182.95 5.16,214.21 10.14,29.56 97.61,80.26 128.55,94.4 25.48,-11.45 70.45,-39.95 94.47,-56.04 41.09,-27.54 43.34,-49.54 40.91,-112.68zm330.01 367.47c-29.79,73.93 -42.76,94.65 -83.55,143.4 101,26.01 78.76,34.19 127.98,-16.01 21.78,-22.22 31.42,-23.3 43.77,-55.84 27.73,-9.27 61.8,-129.96 60.65,-190.88 -1.8,-95.91 -37.95,-164.78 -94.33,-223.82 -33.68,-35.27 -71.17,-59.54 -120.37,-77.33 -92.85,-33.56 -135.78,-18.94 -224.95,-2.51 0.02,82.06 11.24,156.69 -49.47,195.79l-125.12 75.31 -135.1 -82.43c-47.48,-35.62 -38.59,-112.51 -38.63,-184.84 -119.57,-58.19 -307.9,10.89 -353.44,85.8 -19.75,13.06 -6.84,2.65 -21.2,21.27 -114.18,147.97 -76.7,350.67 81.32,479.18l84.24 -26.98c-28.43,-30.04 -78.79,-93.21 -85.84,-160.46 -11.03,-105.35 50.94,-144.32 75.75,-178.71 55.96,-22.16 79.7,-52.32 167.85,-36.97 171.01,29.76 229.45,232.32 81.47,378.61 77.4,9.09 105.97,39.66 143.59,80.85 38.37,-40.29 65.7,-70.93 144.7,-79.86 -60.48,-74.19 -126.84,-168.35 -62.38,-279.33 19.97,-34.39 48.7,-49.67 59.83,-73.22 35.81,-7.07 61.07,-29.28 114.25,-30.54 46.48,-1.11 87.93,10.98 120.47,32.77 56.2,37.62 108.27,101.56 88.52,206.75zm-893.16 -54.75c92.43,-19.02 106.37,-29.48 142.98,-104.57 114.33,-11.26 147.55,48.54 185.33,93.85 -9.26,-75.13 -82.91,-137.39 -170.37,-134.02 -83.38,3.22 -151.19,65.78 -157.94,144.74zm264.08 505.02c36.75,-8.43 62.2,-8.64 90.56,-31.03 36.17,-28.55 33.76,-52.75 59.7,-73.84 86.35,-15.2 142.69,47.36 176.28,92.91 -0.56,-74.59 -85.43,-136.81 -168.97,-133.97 -80.34,2.74 -159.95,67.19 -157.58,145.93zm-526.19 -0.05c37.29,-8.57 61.46,-8.1 90.46,-31 35.5,-28.04 32.97,-45.98 57.94,-73.31 91.26,-14.6 141.9,47.09 178.3,92.63 -0.58,-75.07 -85.24,-137.36 -169.2,-134.28 -80.56,2.95 -159.58,68.73 -157.5,145.97zm787.3 -504.11c91.03,-13.41 111.15,-36.02 144.72,-104.65 120.16,-13.94 158.18,66.28 185.43,94 -21.8,-180.45 -311.89,-182.97 -330.15,10.65zm262.97 504.12c144.62,-20.93 116.3,-88.3 152.76,-104.63 89.09,-13.78 140.59,48.93 176.24,93.1 -1.91,-161.92 -308.21,-196.32 -329,11.53zm-682.04 -21.55c4.44,97.36 -37.84,169.08 -84.94,215.45 23.74,12.45 58.27,12.63 82.76,27.52 37.17,22.59 34.39,33.53 60.7,56.55 52.36,-44.1 26.24,-51.45 119.5,-75.94 3.22,-0.84 7.76,-1.99 10.69,-2.99l14.52 -6.52c-59.49,-61.35 -37.1,-65.31 -68.16,-85.59 -8.8,-44.22 -47.27,-108.87 8.54,-196.56 15.73,-24.72 39.6,-47.81 63.3,-61.89 24,-14.26 76.42,-29.48 85.78,-36.41 -42.18,-92.98 -108.93,-79.33 -227.57,-78.92 -104.71,0.36 -209.93,-11.91 -238.29,78.92 51.35,25.76 151.13,41.79 173.19,166.39zm520.32 -28.21c15.02,98.24 -2.69,168.98 -79.02,243.71 23.99,12.38 58.29,12.52 82.88,27.37 37.28,22.52 34.22,33.29 60.61,56.61 81.75,-68.87 12.37,-41.8 130.09,-79.18l14.41 -6c-20.2,-20.35 -28.42,-26.81 -45.3,-58.7l-42.3 -73.92c9.62,-79.69 -12.06,-104.06 42.53,-168.53 56.19,-66.36 108.48,-59.41 134.93,-79.56 -40.18,-93.3 -111.04,-79.68 -227.78,-79.28 -104.79,0.36 -210.26,-12.11 -238.86,79.28 85.32,44.1 100.79,13.91 167.82,138.18zm-862.71 92.06c-12.12,130.21 122.8,197.26 225.36,126.98 78.69,-53.93 81.47,-219.81 -80.91,-237.06 -22.03,32.56 -25.76,45.01 -55.5,67.95 -25.19,19.43 -62.61,23.71 -88.95,42.13zm790.23 -506.52c-21.94,130.21 133.95,203.64 225.19,127.63 103.15,-85.93 40.84,-237.25 -81.66,-233.47 -24.72,34.4 -27.5,47.43 -57.74,67.85 -34.72,23.45 -56.69,22 -85.79,38zm-264 506.52c-12.28,129.84 122.83,197.48 225.46,127.03 94.73,-65.03 62.48,-223.72 -80.76,-236.98 -80.2,117.47 -76.98,62.5 -144.7,109.95zm525.85 0c-12.96,129.96 123.04,197.97 226.27,127.47 80.58,-55.04 78.34,-223.21 -81.55,-237.69 -82.29,119.22 -77.58,61.43 -144.72,110.21zm-788.49 -506.52c-23.58,131.5 136.91,203.26 226.56,128.7 101.83,-84.69 42.95,-239.97 -82.65,-235.23 -86.71,116.23 -59.93,57.58 -143.91,106.53zm1169.95 997.97c-3.2,-106.66 24.24,-213.52 -49.55,-270.65 -60.42,-46.79 -210.1,-20.39 -297.11,-25.46 -169.09,-2.89 -142.08,163.19 -138.63,303.28l426.39 1.62c52.33,0.97 45.54,2.8 58.91,-8.79zm-525.84 4.93c-0.72,-55.74 1.63,-112.32 0.45,-167.78 -1.2,-56.52 -21.41,-90.8 -57.54,-114.08 -49.88,-32.15 -253.78,-22.42 -323.32,-17.33 -135.08,22.44 -108.56,171.34 -105.21,301.33 75.66,0.57 447.48,12.72 485.61,-2.13z"/>
  <g>
   <path class="fil1 str0" d="M332.1 10.42l1497.68 0c176.93,0 321.68,144.76 321.68,321.68l0 1537.54c0,176.93 -144.76,321.68 -321.68,321.68l-1497.68 0c-176.93,0 -321.68,-144.76 -321.68,-321.68l0 -1537.54c0,-176.93 144.76,-321.68 321.68,-321.68z"/>
  </g>
 </g>
</svg>
