<?xml version="1.0" encoding="UTF-8"?>
<!DOCTYPE svg PUBLIC "-//W3C//DTD SVG 1.1//EN" "http://www.w3.org/Graphics/SVG/1.1/DTD/svg11.dtd">
<!-- Creator: CorelDRAW -->
<svg xmlns="http://www.w3.org/2000/svg" xml:space="preserve" width="2.16188in" height="2.20173in" version="1.1" style="shape-rendering:geometricPrecision; text-rendering:geometricPrecision; image-rendering:optimizeQuality; fill-rule:evenodd; clip-rule:evenodd"
viewBox="0 0 2161.88 2201.74"
 xmlns:xlink="http://www.w3.org/1999/xlink"
 xmlns:xodm="http://www.corel.com/coreldraw/odm/2003">
 <defs>
  <style type="text/css">
   <![CDATA[
    .str0 {stroke:#856443;stroke-width:20.83;stroke-miterlimit:2.61313}
    .fil1 {fill:none}
    .fil0 {fill:#856443}
   ]]>
  </style>
 </defs>
 <g id="Layer_x0020_1">
  <metadata id="CorelCorpID_0Corel-Layer"/>
  <g id="_1338914529136">
   <path class="fil0" d="M860.32 1208.6l39.76 -13.03c0,-0.18 -50.41,-185.47 91.21,-189.13 54.87,-1.42 83.24,27.67 98.1,61.7 32.27,73.88 -9.83,107.78 0.33,133.19 59.11,22.78 39.21,-37.52 121.19,-25.71 80.84,11.65 13.34,45.43 112.86,24.39 -20.64,-74.74 -32.63,-119.49 23.63,-169.36 58.02,-51.44 117.19,-15.25 151.96,18.81 112.96,-114.08 228.51,-205.95 204.2,-390.57 -19.75,-149.99 -155.24,-290.64 -332.69,-243.87 -14.94,353.35 59.7,370.17 -147.1,459.22 -26.14,11.26 -126.18,57.98 -142.12,57.91 -2.31,-0.01 -231.66,-79.34 -264.4,-132.64 -43.02,-70.05 -20.71,-287.7 -24.91,-384.78 -286.1,-73.62 -449.37,317.36 -242.82,513.24 56.22,53.31 187.97,226.23 244.47,247.4 41.5,15.56 36.74,17.83 66.33,33.21z"/>
   <path class="fil0" d="M1321.87 260.83l-480.5 0.29c0.24,143.17 -0.72,286.75 -0.28,430.18 0.28,90.95 20.82,96.72 89.03,126.59 182.48,79.89 122.11,78.7 302.96,0.19 70.03,-30.4 88.8,-32.96 89.1,-126.8 0.47,-143.39 -0.31,-287.01 -0.31,-430.45zm-312.58 216.83l-95.27 -0.52c-0.6,46.11 -7.7,101.08 5.35,144.77l90.5 -0.5 0.03 93.45 143.68 2.48 -0.21 -95.84c117.31,-0.07 98.24,18.98 96.18,-139.96l-94.83 -4.96 -1.93 -93.68 -141.58 -1.26 -1.93 96.02z"/>
   <path class="fil0" d="M1508.7 1422.29c-0.86,53.35 2.12,66.59 -21.63,107.02 29.17,18.3 60.23,25.07 88.77,43.93 116.67,77.09 -48.72,78.11 226.19,77.37 0.9,-167.74 20.16,-190.95 -64.35,-222.79 -57.26,-21.57 -46.68,-23.99 -109.2,-19.88 -70.61,4.64 -8.4,-21.04 -119.78,14.35z"/>
   <path class="fil0" d="M364.93 1743.41l384.97 0.67c13.68,-71.26 5.89,-107.52 -45.23,-135.5 -17.25,-9.44 -49.3,-22.57 -68.88,-29.8 -43.38,-16.03 -33.78,-3.07 -76.3,-6.74 -44.67,-3.85 -25.92,-15.15 -75.72,3.9 -97.83,37.43 -141.01,56.79 -118.83,167.47z"/>
   <path class="fil0" d="M1223.53 1744.09l359.98 -0.32c7.91,-62.91 8.84,-104.91 -37.48,-132.56 -97.35,-58.09 -184.55,-54.59 -278.27,-4.93 -48.73,25.82 -63.56,64.71 -44.23,137.8z"/>
   <path class="fil0" d="M806.54 1744.09l359.84 -0.16c11.05,-63.59 6.09,-104.63 -37.82,-133.13 -47.57,-30.87 -81.9,-39.39 -138.06,-38.51 -52.51,0.83 -45.52,-16.98 -140.09,34.5 -50.2,27.33 -60.05,66.21 -43.87,137.29z"/>
   <path class="fil0" d="M1369.85 362.37c166.43,-5.43 278.23,36.94 346.68,176.91 20.09,41.1 34.26,91.37 37.06,143.32 9.32,172.8 -79.87,259.37 -181.64,359.45 -53.38,52.5 -45.99,40.56 -58.3,129.85l195.72 -205.44c236.67,-298.84 -15.93,-722.16 -338.34,-649.56l-1.18 45.46z"/>
   <path class="fil0" d="M508.04 1023.67l43.27 -18.2c-45.22,-56.94 -91.67,-90.45 -121.49,-178.85 -51.43,-152.45 -1.22,-331.87 130.97,-418.58 78.08,-51.22 126.5,-51.83 232.52,-45.45l-0.69 -45.89c-196.25,-39.85 -351.73,96.61 -402.01,232.27 -63.7,171.85 -9.78,383.1 117.43,474.71z"/>
   <path class="fil0" d="M361.18 1469.74l97.71 0.53c19.99,-63.07 15.55,-107.39 78.83,-127.38 94.65,-29.9 83.35,57.82 150.37,19.96 -13.51,-50.59 -18.07,-44.57 -14.3,-106.76 -92.98,-21.75 -147.21,-34.23 -238.76,1.02 -104.41,40.2 -73.11,92.32 -73.85,212.63z"/>
   <path class="fil0" d="M674.46 1422.51c5.42,63.82 0.04,64.25 -21.49,114.8 50.49,12.91 92.65,42.99 125.43,62.52 60.77,-51.86 93.2,-46.77 120.32,-73.13 -21.85,-40.04 -21.13,-56.33 -17.09,-108.27 -18.93,-3.52 -33.74,-10.63 -48.4,-12.66 -28.85,-4 -26.43,2.96 -54.78,2.87 -63.25,-0.2 -37.12,-14.33 -103.98,13.86z"/>
   <path class="fil0" d="M1090.68 1421.42c4.97,63.72 -4.26,64.78 -19.72,114.06 48.5,12.97 93.1,33.26 116.78,65.03 8.45,-4.65 122,-68.8 127.29,-73.8 -20.36,-34.74 -21.31,-58.54 -17.07,-108.04 -72.5,-15.02 -129.67,-23.11 -207.29,2.76z"/>
   <path class="fil0" d="M1299.48 1253.75c7.44,70.58 -9.66,68.34 -11.73,114.38 59.57,16.33 31.73,-13.89 91.83,-26.98 51.45,-11.2 80,10.59 100.53,38.8l49.67 -16.46c-25.22,-55.87 -9.96,-70.57 -19.8,-109.55 -62.02,-31.24 -40.33,-12.16 -100.46,-13.63 -101.06,-2.48 -17.54,-6.89 -110.04,13.44z"/>
   <path class="fil0" d="M883.45 1249.37c0.93,64.96 -10.57,75.91 -13.21,118.49 63.14,18.15 36.49,-16.82 98.58,-27.73 60.71,-10.67 71.88,23.28 104.5,36.94l32.75 -12.68c-16.2,-58.24 -11.76,-53.05 -16.97,-113.74l-152.96 -16.41c-14.34,1.57 -33.62,10.96 -52.69,15.12z"/>
   <path class="fil0" d="M1056.79 525.23l-95.21 1.48 1.03 44.93 95.24 2.29c-0.57,93.39 -16.58,98.56 47.81,94.59l0.11 -94.37 94.18 -1.36 2.27 -44.19 -94.46 -3.91 -2.45 -94.8 -46.84 -0.32 -1.67 95.67z"/>
   <path class="fil0" d="M1594.77 1227.76c-68.3,34.26 -32.43,159.79 46.06,129.65 67.8,-26.03 30.8,-168.21 -46.06,-129.65z"/>
   <path class="fil0" d="M1172.25 1230.33c-71.42,34.96 -26.74,163.19 48.95,125.35 61.74,-30.87 34.2,-166.06 -48.95,-125.35z"/>
   <path class="fil0" d="M754.94 1230.52c-73.98,37.61 -23.97,160.52 48.65,125.37 62.05,-30.03 34.52,-167.66 -48.65,-125.37z"/>
   <path class="fil0" d="M1378.42 1395.17c-75.05,40.48 -22.24,157.21 48.46,125.26 62.46,-28.22 35.07,-170.32 -48.46,-125.26z"/>
   <path class="fil0" d="M1396.31 1059.4c-16.03,6.62 -21.02,1.82 -34.98,26.98 -23.54,42.42 2.27,125.14 69.03,102.95 72.11,-23.98 40.8,-160.82 -34.05,-129.93z"/>
   <path class="fil0" d="M547.01 1392.22c-66.98,36.03 -34.09,162.42 44.39,128.26 68.67,-29.88 31.26,-168.95 -44.39,-128.26z"/>
   <path class="fil0" d="M553.84 1060.43c-24.85,9.86 -55.22,26.25 -40.06,83.93 7.88,29.98 37.05,62.17 79.83,43.54 59.58,-25.94 40.78,-159.43 -39.77,-127.47z"/>
   <path class="fil0" d="M978.9 1059.34c-34.24,12.2 -53.02,35.65 -40.48,86.09 7.87,31.67 39.37,61.57 80.44,41.54 57.19,-27.9 38.72,-155.66 -39.96,-127.63z"/>
   <path class="fil0" d="M962 1396.49c-13.97,9.02 -23.5,7.93 -31.8,36.52 -18.37,63.3 37.89,111.58 85.05,85.26 56.88,-31.75 20.81,-169.63 -53.24,-121.79z"/>
  </g>
  <g>
   <path class="fil1 str0" d="M332.1 10.42l1497.68 0c176.93,0 321.68,144.76 321.68,321.68l0 1537.54c0,176.93 -144.76,321.68 -321.68,321.68l-1497.68 0c-176.93,0 -321.68,-144.76 -321.68,-321.68l0 -1537.54c0,-176.93 144.76,-321.68 321.68,-321.68z"/>
  </g>
 </g>
</svg>
