<?xml version="1.0" encoding="UTF-8"?>
<!DOCTYPE svg PUBLIC "-//W3C//DTD SVG 1.1//EN" "http://www.w3.org/Graphics/SVG/1.1/DTD/svg11.dtd">
<!-- Creator: CorelDRAW -->
<svg xmlns="http://www.w3.org/2000/svg" xml:space="preserve" width="2.16188in" height="2.20173in" version="1.1" style="shape-rendering:geometricPrecision; text-rendering:geometricPrecision; image-rendering:optimizeQuality; fill-rule:evenodd; clip-rule:evenodd"
viewBox="0 0 2161.88 2201.74"
 xmlns:xlink="http://www.w3.org/1999/xlink"
 xmlns:xodm="http://www.corel.com/coreldraw/odm/2003">
 <defs>
  <style type="text/css">
   <![CDATA[
    .str0 {stroke:#856443;stroke-width:20.83;stroke-miterlimit:2.61313}
    .fil1 {fill:none}
    .fil0 {fill:#856443}
   ]]>
  </style>
 </defs>
 <g id="Layer_x0020_1">
  <metadata id="CorelCorpID_0Corel-Layer"/>
  <g id="_1338714231504">
   <path class="fil0" d="M472.46 1587.84c-11.06,-11.12 -57.44,-60.86 -65.06,-66.08 1.98,-7.82 57.44,-72.99 68.69,-87.09l181.39 -224.09c31.26,-38.01 66.32,-83.65 97.41,-120.41l28.3 -34.67c4.77,-5.65 9.46,-11.43 14.18,-17.34l167.36 -206.59c4.5,-6.06 8.72,-11.35 13.42,-16.72 18.28,-20.88 50.06,-61.68 69.94,-86.29l132.61 -163.91c2.78,-3.51 4.95,-5.49 7.24,-8.5 4.32,-5.69 8.66,-11.03 13.41,-16.76 5.18,-6.24 8.78,-12.34 13.86,-17.58 3.36,-3.46 4.3,-4.93 7.04,-8.76l62.86 -77.56c2.77,-3.8 10.4,-14.37 14.99,-16.41 13.82,16.56 26.28,43.95 28.94,71.04 -41.05,10.81 -103.54,54.94 -135.2,89 -51.08,54.93 -83.65,117.11 -96.8,193.33 -13.68,79.32 0.78,152.8 30.7,217.87 15.75,34.26 18.46,23.46 6.44,40.94l-78.83 114.04c-9.26,13.12 -17.97,24.32 -27.32,36.98l-82.54 110.38c-38.02,49.07 -73.32,97.11 -112.01,145.16 -9.83,12.2 -18.78,23.39 -28.48,35.8l-21.22 26.04c-2.21,2.66 -5.26,6.23 -7.66,9.35 -9.51,12.39 -19.05,23.41 -29.07,35.26 -9.8,11.59 -19.16,23.34 -29.14,35.15 -14.74,17.43 -50.25,60.06 -66.91,77.41l-22.37 26.19c-3.93,5.43 -26.64,31.81 -32.33,34.2 -4.15,-5.94 -12.57,-14.5 -18.03,-20.01l-46.88 -47.66c-3.59,-3.51 -4.98,-7.1 -9.47,-9.81l-12.94 -13.64c-4.4,-4.57 -7.85,-8.17 -12.14,-12.78 -4.81,-5.17 -6.27,-9.72 -11.56,-13.43 -7.72,-5.41 -7.3,-5.57 -12.84,-12.05zm3.46 89.83l83.11 86.02c6.58,6.97 18.7,22.95 31.32,26.45 20.62,5.72 26.68,-6.61 37.33,-16.26 10.76,-9.74 22.41,-26.26 32.77,-36.78 3.5,-3.56 3.98,-3.33 7.04,-7.36l156.56 -184.63c22.09,-25.99 56.57,-68.55 75.88,-94.71 4.01,-5.43 8.67,-11.62 13.08,-16.17 0.26,0.22 0.62,0.26 0.73,0.71 0.11,0.45 0.56,0.56 0.71,0.71 19.25,20.66 45.47,59.39 65.87,82.57l210.19 246.45c8.49,8.19 16.48,24.52 34.86,25.26 18.95,0.76 28.89,-15.72 37.16,-24.14 5.61,-5.72 10.04,-8.63 15.33,-14.81l105.24 -108.69c11.44,-11.94 18.87,-20.56 29.06,-31.29 4.95,-5.22 10.75,-9.49 15.48,-14.69 5.05,-5.56 9.32,-10.26 14.36,-15.81 22.4,-24.62 56.94,-46.18 43.1,-73.61 -5.35,-10.61 -31.12,-39.63 -39.98,-50.54l-204.43 -252.21c-21.87,-26.4 -64.97,-77.93 -81.61,-101.45 3.65,-7.15 15.87,-27.48 21.8,-31.55 8.72,14.41 47.63,48.06 62.46,58.13 38.14,25.91 76.09,46.5 124.06,58.52 53.55,13.43 112.51,15.13 165.86,3.72 69.45,-14.86 120.71,-44.56 163.1,-79.7l30.85 -29.48c79.09,-83.47 113.86,-205.19 90.63,-321.65 -11.68,-58.58 -36.38,-110.13 -72.37,-155.86 -11.35,-14.41 -24.15,-26.55 -36.78,-39.34 -2.89,-2.92 -3.73,-4.66 -7.11,-7.28 -1.92,-1.49 -2.77,-1.83 -4.54,-3.41 -1.69,-1.5 -2.22,-2.41 -3.92,-3.88 -67.14,-58.04 -160.33,-87 -250.88,-84.28 -19.42,0.58 -38.27,5.53 -55.35,6.22 -5.06,-28.79 -15.12,-53.03 -29.67,-76.81 -11.59,-18.95 -34.25,-43.74 -51.06,-56.59 -14.37,-10.98 -25.52,-19.34 -42.59,-29.54 -58.6,-35.04 -141.65,-56.82 -219.27,-66.91 -176.78,-22.99 -338.61,7.71 -479.9,77.99 -40.04,19.92 -70.63,37.34 -93.19,66.93 -65.19,85.47 -29.91,251.71 -0.32,337.98 6.21,18.12 11.76,34.59 18.65,52.26 13.18,33.82 27.97,66.18 43.81,99.22 30.22,63.04 67.77,123.5 105.32,182.09 6.07,9.47 25.19,35.08 28.56,43.2 -2.28,4.38 -9.41,12.08 -13,16.76l-40.63 49.95c-2.72,3.22 -3.65,4.84 -6.31,8.09l-183.2 226.22c-9.01,11.54 -18.11,21.73 -27.12,33.2 -17.83,22.69 -37.56,44.34 -54.44,67.63 -11.48,15.82 -3.18,34.33 6.84,42.4 10.52,8.47 20.42,20.98 29.61,30.73 9.89,10.49 20.72,21.23 29.89,30.5 5.11,5.17 9.36,10.39 14.41,15.78l16.13 15.28c2.87,4.24 13.41,14.41 17.85,18.97 3.01,3.09 6.07,5.78 9.28,9.1 3.35,3.47 7.29,8.53 9.41,10.38zm232.88 -624.04c3.15,-6.89 54.71,-69.5 61.1,-76.98 11.78,-13.8 31.04,-39.65 41.87,-51.36 4.15,-4.49 6.83,-7.44 10.59,-12.96l15.41 -18.82c4.15,-5.11 35.14,-42.62 36.43,-46.7 -1.98,-3.36 -7.72,-8.96 -11.19,-13l-65.33 -80.3c-4.07,-4.67 -7.17,-9.37 -11.19,-13.73 -24.3,-26.4 -71.7,-88.5 -98.81,-120.37 -4.24,-4.98 -7.18,-8.69 -11.2,-13.72l-109.22 -133.53c-4.07,-4.93 -39.32,-50.5 -45.32,-52.83 -62.05,89.96 -6.11,266.65 29.4,352.27 44.95,108.39 89.22,180.47 149.86,273.92 5.4,8.31 3.61,6.11 7.59,8.11zm242.37 329.74c2.46,6.01 28.32,37.68 32.79,43.35l85.08 105.18c5.59,7.02 11.37,14.33 17.11,20.96 6.13,7.08 11.54,13.35 17.33,20.72 16.27,20.72 45.24,51.2 60.98,71.55l13.74 15.09c2.37,2.51 1.95,2.6 3.99,5.22l45.34 50.66 190.59 -197.47 -165.35 -204.65c-6.74,-8.17 -12.48,-14.76 -18.19,-22.5l-106.32 -131.1c-0.88,-1.09 -1.61,-2.04 -2.39,-2.9l-2.91 -2.89c-0.25,0.24 -0.61,0.29 -0.72,0.76l-148.72 199.38c-3.7,5 -7.1,9.35 -10.68,14.29 -3.9,5.38 -7.54,10.4 -11.68,14.35zm-378.42 -1000.02c4.58,8.69 24.44,30.25 31.76,39.78 21.58,28.11 71.14,87.24 95.63,116.95l212.87 259.34 21.31 -25.76c31.82,-40.91 73.87,-90.89 106.93,-131.88l85.72 -105.86c7.6,-9.42 14.35,-16.93 21.12,-26.14l96.3 -118.9c3.93,-4.95 7.65,-8.91 11.2,-13.83 -2.32,-3.37 -11.49,-8.85 -15.19,-11.08 -17.7,-10.69 -33.23,-18.8 -53.46,-26.66 -88.03,-34.19 -179.78,-43.8 -275.24,-43.85 -90.02,-0.06 -183.38,22.36 -264.93,54.16l-74.02 33.74zm859.72 143.93c-62.1,3.53 -118.16,30.08 -163.89,64.96l-30.2 27.5c-18.79,20.24 -26.25,28.43 -42.01,53.7 -8.45,13.56 -19.15,35.02 -25.23,52.24 -35.9,101.75 -20.46,215.17 46.61,296.66 35.75,43.44 75.11,75.89 133.3,97.57 83.7,31.19 172.22,24.49 250.62,-16.15 34.46,-17.86 42.69,-27.02 66.38,-47.77 10.68,-9.35 18.38,-18.36 28.11,-29.6 49.96,-57.75 73.95,-143.15 67.81,-220.02 -6.47,-80.95 -49.65,-163 -112.16,-211.54 -4.37,-3.39 -7.08,-5.85 -10.94,-8.72 -61.41,-45.56 -129.8,-63.32 -208.39,-58.84z"/>
   <path class="fil0" d="M1340.23 714.84c-20.35,0.23 -123.22,-2.09 -133.55,1.81 -20.56,7.76 -20.4,22.05 -20.37,47.48l0 136.46c0,23.03 0.11,41.06 19.85,47.99 11.95,4.2 113.48,1.86 134.77,1.92 0.05,21.96 -2.64,120.02 1.4,133.39 6.15,20.36 24.15,21.2 47,21.23l136.46 0.01c24.92,0 40.72,0.42 48.41,-19.68 4.33,-11.32 2.04,-113.89 2.04,-134.51 23.24,-3.73 116.67,3.03 133.22,-1.93 20.49,-6.15 21.49,-22.64 21.27,-47.11l0.11 -136.46c-0.04,-17.15 3.3,-40.36 -19.93,-48.7 -14.82,-5.31 -109.33,-0.57 -134.35,-2.08 -3.55,-27.44 3.44,-115.2 -1.85,-133.3 -2.31,-7.91 -9.4,-15.32 -15.98,-18.24 -11.93,-5.3 -84.04,-2.94 -99.86,-2.94 -22.74,0 -45.54,0.24 -68.23,0.09 -58.57,-0.39 -49.66,17.33 -49.66,87.07 0,12.87 1.62,58.4 -0.75,67.49zm-93.86 59.95l-0.5 115.81c26.13,-0.17 52,-0.01 77.85,-0.01 21.74,0 55.22,-4.39 68.39,8.54 13.59,13.34 8.57,46.07 8.68,68.39 0.12,25.91 0.01,51.85 0.01,77.76l115.35 -0.01c0,-25.82 0.04,-51.1 0.04,-76.44 0,-22.39 -4.95,-54.86 8.82,-69.02 13.64,-14.03 45.35,-9.19 67.71,-9.2 26.07,-0 52.01,0.24 78.09,-0.03l0.05 -115.84c-25.34,0.82 -51.59,0.14 -76.83,0.11 -21.74,-0.02 -56.27,4.22 -69.09,-8.55 -13.06,-13.02 -8.78,-47.07 -8.78,-69.09 0,-22.76 1.89,-55.15 -0.22,-76.72l-114.76 -0.3c-2.16,22.07 -0.34,53.87 -0.34,77.02 0,21.83 5.09,54.62 -8.77,68.32 -8.17,8.07 -14.42,9.33 -28.97,9.33l-116.72 -0.07z"/>
  </g>
  <g>
   <path class="fil1 str0" d="M332.1 10.42l1497.68 0c176.93,0 321.68,144.76 321.68,321.68l0 1537.54c0,176.93 -144.76,321.68 -321.68,321.68l-1497.68 0c-176.93,0 -321.68,-144.76 -321.68,-321.68l0 -1537.54c0,-176.93 144.76,-321.68 321.68,-321.68z"/>
  </g>
 </g>
</svg>
