<?xml version="1.0" encoding="UTF-8"?>
<!DOCTYPE svg PUBLIC "-//W3C//DTD SVG 1.1//EN" "http://www.w3.org/Graphics/SVG/1.1/DTD/svg11.dtd">
<!-- Creator: CorelDRAW -->
<svg xmlns="http://www.w3.org/2000/svg" xml:space="preserve" width="2.16188in" height="2.20173in" version="1.1" style="shape-rendering:geometricPrecision; text-rendering:geometricPrecision; image-rendering:optimizeQuality; fill-rule:evenodd; clip-rule:evenodd"
viewBox="0 0 2161.88 2201.74"
 xmlns:xlink="http://www.w3.org/1999/xlink"
 xmlns:xodm="http://www.corel.com/coreldraw/odm/2003">
 <defs>
  <style type="text/css">
   <![CDATA[
    .str0 {stroke:#856443;stroke-width:20.83;stroke-miterlimit:2.61313}
    .fil1 {fill:none}
    .fil0 {fill:#856443}
   ]]>
  </style>
 </defs>
 <g id="Layer_x0020_1">
  <metadata id="CorelCorpID_0Corel-Layer"/>
  <g id="_1338875766432">
   <path class="fil0" d="M298.46 1687.62l0 89.14c3.55,8.33 4.48,45.13 6.15,58.01 6.17,47.73 19.46,110.95 38.16,152.83 6.06,13.58 22.17,24.4 41.1,19.44 35,-9.17 21.53,-54.42 62.28,-128.64 73.39,-133.65 228.02,-147.42 365.98,-110.12 68.57,18.54 142.47,61.24 187.12,-5.89 31.89,-47.95 31.59,-159.11 27.48,-224.13 -9.54,-151.19 -35.3,-302.88 -63.27,-447.81l-40.29 35.37c-44.06,34.21 -85.39,48.32 -117.76,118.29 -23.28,50.33 -10.94,80.33 -2.08,132.31 7.85,46.1 13.97,96.35 11.91,144.72 -2.27,53.39 -16.74,120.86 -69.67,126.39 -12.56,1.31 -21.84,-6.57 -20,-18.98 4.49,-30.4 71.42,21.59 53.79,-178.85 -1.83,-20.87 -16.33,-123.99 -22.91,-134.89 -17.49,6.53 -43.22,23.8 -57.41,35.58 -22.63,18.79 -20.5,18.29 -16.65,32.07 14.9,53.37 14.58,113.01 1.4,168.54 -2.74,11.56 -3.77,20.72 -12.85,24.41 -10.98,4.46 -21.08,-2.3 -22.84,-11.26 -1.43,-7.25 3.91,-22.61 5.7,-30.99 10.85,-50.83 4.14,-89.5 2.48,-140.5 -3.83,1.48 -33.47,53.61 -37.35,60.78 -8.47,15.67 -8.5,19.9 -30.13,19.78 -14.26,-0.08 -92.56,1.27 -99.92,-1.21 -14.13,-4.77 -13.56,-26.35 -0.24,-30.82 10.72,-3.6 81.78,-0.8 99.57,-1.46 5.47,-7.95 10.16,-17 15.08,-25.22 28.07,-46.92 75.2,-100.56 125.6,-122.81 44.35,-19.57 24.26,3.94 38.01,-39.59 15.69,-49.66 52.54,-91.11 91.5,-122.77 3.76,-3.05 6.01,-5.43 9.9,-8.7 5.25,-4.42 7.09,-3.61 10.25,-10.14 -74.16,1.43 -123.43,-0.31 -190.85,21.97 -20.02,6.62 -31.32,-1.29 -28.95,-16.32 2.08,-13.24 20.3,-15.84 33.44,-19.41 22.23,-6.02 43,-9.8 65.8,-13.46l18.54 -3.13c0.43,-0.13 0.87,-0.32 1.25,-0.45l2.46 -1.07c-10.36,-18.07 -21.02,-31.88 -29.74,-53.02 -6.54,-15.83 -17.72,-46.02 -18.72,-65.28 -0.63,-12.17 8.34,-21.69 21.24,-18.21 18.7,5.04 7.04,36.27 36.96,89.04 9.84,17.35 23.84,33.44 39.22,43.05 7.48,4.67 49.68,4.24 74.73,8.83 22.93,4.2 11.78,5.67 37.06,-18.61 18.53,-17.79 15.25,-10.42 8.49,-43.86 -11.74,-58.08 -39.61,-119.9 -19.5,-173.64 3.74,-9.99 9.22,-20.12 14.29,-27.62 16.22,-24.01 46.55,-44.97 6.47,-79.36 -93.49,-80.23 -209.18,-0.41 -278.71,69.52 -7.33,7.37 -13.17,14.63 -20.25,21.66 -52.8,52.41 -120.95,157.4 -155.8,218.34 -20.26,35.41 -38.31,72.6 -56.97,110.68 -62.78,128.05 -116.46,303.82 -133.21,450.61 -1.52,13.35 -4.69,70.23 -7.32,76.84z"/>
   <path class="fil0" d="M1804.27 2011.73l15.49 0c15.35,-8.92 23.82,-9.55 27.59,-34.85 2.82,-18.94 4.85,-37.38 6.95,-56.44 1.87,-16.94 7.05,-112.91 9.12,-118.4l0 -100.57c-7.87,-20.38 7.25,-279.64 -149.7,-603.52 -54.2,-111.84 -96.48,-171.8 -190.71,-248.63 -69.49,-56.66 -214.32,-157.7 -296.86,-64.83 -29.07,32.71 -16.4,52.53 -6.12,96.02 8.18,34.6 15.25,68.6 21.63,104.16l12.65 80.8c1.78,14.33 4.23,10.04 10.8,19.95 13.73,0.43 41.73,-6.24 59.48,-7.34 30.72,-1.91 29.89,1.62 48.24,-16.47 20.2,-19.92 35.89,-47.45 44.87,-84.09 1.54,-6.26 3.39,-22 5.7,-26.81 3.4,-7.09 12.91,-12.15 22.7,-7.41 15.53,7.52 6.07,33.85 2.17,47.89 -15.1,54.38 -29.87,62.02 -41.86,87.49 9.37,5.39 33.65,6.38 46.12,8.74 15.03,2.85 28.55,5.86 43.2,9.8 13.3,3.58 30.82,5.93 32.13,20.44 1.68,18.7 -15.94,19.26 -30.11,14.65 -51.36,-16.72 -131.72,-25.77 -190.09,-21.34 5.56,5.84 12.83,12.64 19.49,18.03 41.37,33.45 74.88,70.96 92.39,123.32 2.72,8.14 3.4,22.04 8.19,27.61 6.13,6.34 50.04,9.5 101.74,64.41 23.6,25.06 49.3,60.04 68.86,95.6 14.83,-0.06 91.61,-1.56 99.69,1.3 13.39,4.76 13.2,25.72 -0.27,30.63 -7.2,2.63 -85.88,1.32 -99.8,1.39 -22.94,0.12 -21.42,-3.79 -30.28,-19.61 -4.64,-8.3 -33.66,-58.91 -37.43,-61.28 -3.92,88.38 -10.07,78.86 7.81,162.39 4.37,20.44 -18.34,29.14 -28.67,16.09 -10.12,-12.8 -16.45,-79.75 -16.51,-100.94 -0.18,-60.76 10.7,-68.87 14.44,-100.71 -25.68,-22.78 -38.59,-38.28 -77.02,-54.32 -6.41,8.74 -20.41,107.61 -22.36,126.91 -4.17,41.34 -7.07,95.52 4.45,134.53 7.03,23.77 13.33,31.97 35.7,38.85 22.08,6.79 16.28,39.68 -15.32,30.63 -36.35,-10.42 -51.83,-46.59 -58.32,-88.92 -17.03,-111.14 25.24,-214.38 18.91,-269.12 -4.47,-38.63 -30.3,-80.14 -50.03,-98.83 -40.79,-38.63 -17.22,-18.19 -61.85,-49.97 -6.98,-4.97 -13.75,-11.66 -20.44,-15.2 5.12,93.52 12.21,177.5 -20.49,265.13 -38.25,102.51 -38.4,236.02 -7.7,340.48 9.65,32.84 21.5,39.22 58.73,32 174.73,-33.93 324.26,10.52 430.67,136.95 21.76,25.85 42.15,58.26 56.68,90.82 7.56,16.93 11.5,14.15 25.36,22.61z"/>
   <path class="fil0" d="M1152.88 490.24l-120.93 0 -13.25 7.63c-14.83,11.76 -12.52,32.69 -12.52,48.26l0 369.5c0,16.26 2.42,24.28 -4.71,36.94 -23.69,42.05 -23.93,25.79 -16.94,56.57 3.66,16.14 8.94,55.27 14.13,67.95l32.5 -40.48c9.87,-14.25 20.04,-29.27 29.07,-45.41 14.34,-25.64 16.27,-23.21 16.26,-58.5 -0.02,-121.36 -3.09,-253.89 0.1,-372.27l33.3 -0.24c0.02,111.52 0.03,222.61 0.03,333.69 0,73.42 -6.59,63.32 37.28,130.93 21.22,32.71 51.25,68.3 75.78,90.37 0.87,-19.75 -10.98,-87.54 -15.39,-113.64 -5.9,-34.94 -24.84,-43.61 -27.2,-59.64l-0.17 -391.13c0,-12.68 1.8,-29.51 -3.21,-40.17 -7.27,-15.46 -10.17,-12.1 -24.11,-20.38z"/>
  </g>
  <g>
   <path class="fil1 str0" d="M332.1 10.42l1497.68 0c176.93,0 321.68,144.76 321.68,321.68l0 1537.54c0,176.93 -144.76,321.68 -321.68,321.68l-1497.68 0c-176.93,0 -321.68,-144.76 -321.68,-321.68l0 -1537.54c0,-176.93 144.76,-321.68 321.68,-321.68z"/>
  </g>
 </g>
</svg>
