<?xml version="1.0" encoding="UTF-8"?>
<!DOCTYPE svg PUBLIC "-//W3C//DTD SVG 1.1//EN" "http://www.w3.org/Graphics/SVG/1.1/DTD/svg11.dtd">
<!-- Creator: CorelDRAW -->
<svg xmlns="http://www.w3.org/2000/svg" xml:space="preserve" width="2.16188in" height="2.20173in" version="1.1" style="shape-rendering:geometricPrecision; text-rendering:geometricPrecision; image-rendering:optimizeQuality; fill-rule:evenodd; clip-rule:evenodd"
viewBox="0 0 2161.88 2201.74"
 xmlns:xlink="http://www.w3.org/1999/xlink"
 xmlns:xodm="http://www.corel.com/coreldraw/odm/2003">
 <defs>
  <style type="text/css">
   <![CDATA[
    .str0 {stroke:#856443;stroke-width:20.83;stroke-miterlimit:2.61313}
    .fil1 {fill:none}
    .fil0 {fill:#856443}
   ]]>
  </style>
 </defs>
 <g id="Layer_x0020_1">
  <metadata id="CorelCorpID_0Corel-Layer"/>
  <g id="_1338735478000">
   <path class="fil0" d="M279.6 1536.48l0 91.29c3.63,8.54 4.59,46.21 6.29,59.41 6.32,48.88 19.93,113.62 39.08,156.51 6.21,13.91 22.7,24.98 42.09,19.9 35.85,-9.39 22.05,-55.73 63.78,-131.74 75.15,-136.87 233.52,-150.97 374.8,-112.77 70.22,18.99 145.91,62.72 191.63,-6.03 32.66,-49.11 32.35,-162.95 28.15,-229.52 -9.77,-154.83 -36.15,-310.18 -64.79,-458.6l-41.26 36.22c-45.12,35.04 -87.45,49.48 -120.59,121.14 -23.84,51.55 -11.2,82.26 -2.13,135.49 8.04,47.21 14.3,98.68 12.2,148.21 -2.32,54.68 -17.14,123.77 -71.34,129.44 -12.86,1.34 -22.36,-6.72 -20.48,-19.43 4.6,-31.13 73.14,22.11 55.08,-183.15 -1.88,-21.37 -16.72,-126.98 -23.47,-138.14 -17.91,6.69 -44.26,24.38 -58.79,36.44 -23.18,19.24 -20.99,18.73 -17.05,32.85 15.26,54.66 14.93,115.73 1.43,172.59 -2.81,11.84 -3.86,21.23 -13.16,25 -11.24,4.57 -21.59,-2.36 -23.39,-11.53 -1.46,-7.43 4,-23.15 5.83,-31.74 11.12,-52.06 4.24,-91.66 2.54,-143.88 -3.93,1.52 -34.28,54.9 -38.25,62.25 -8.67,16.05 -8.7,20.38 -30.86,20.26 -14.61,-0.08 -94.79,1.3 -102.33,-1.24 -14.47,-4.89 -13.89,-26.99 -0.25,-31.56 10.98,-3.69 83.74,-0.82 101.96,-1.5 5.6,-8.15 10.41,-17.41 15.44,-25.83 28.75,-48.04 77.01,-102.98 128.62,-125.76 45.42,-20.04 24.85,4.03 38.93,-40.54 16.07,-50.85 53.8,-93.3 93.7,-125.72 3.85,-3.13 6.16,-5.56 10.14,-8.91 5.38,-4.52 7.26,-3.7 10.49,-10.39 -75.95,1.46 -126.4,-0.32 -195.45,22.5 -20.5,6.78 -32.07,-1.32 -29.65,-16.71 2.13,-13.56 20.79,-16.22 34.24,-19.87 22.76,-6.17 44.04,-10.04 67.39,-13.78l18.99 -3.21c0.44,-0.14 0.89,-0.33 1.28,-0.47l2.52 -1.1c-10.61,-18.51 -21.52,-32.65 -30.46,-54.3 -6.7,-16.22 -18.14,-47.13 -19.17,-66.86 -0.65,-12.46 8.54,-22.21 21.75,-18.65 19.15,5.16 7.21,37.15 37.85,91.19 10.07,17.77 24.41,34.24 40.17,44.09 7.65,4.78 50.87,4.35 76.53,9.04 23.48,4.3 12.06,5.8 37.95,-19.06 18.97,-18.22 15.61,-10.67 8.69,-44.92 -12.02,-59.48 -40.57,-122.79 -19.97,-177.82 3.83,-10.23 9.45,-20.61 14.64,-28.29 16.61,-24.59 47.67,-46.05 6.63,-81.27 -95.74,-82.17 -214.22,-0.42 -285.43,71.19 -7.5,7.55 -13.49,14.99 -20.74,22.18 -54.07,53.68 -123.86,161.19 -159.56,223.6 -20.74,36.27 -39.23,74.35 -58.34,113.35 -64.29,131.13 -119.26,311.13 -136.42,461.47 -1.56,13.67 -4.8,71.92 -7.5,78.69z"/>
   <path class="fil0" d="M1821.68 1868.4l15.86 0c15.72,-9.13 24.4,-9.78 28.26,-35.69 2.89,-19.39 4.96,-38.28 7.12,-57.8 1.92,-17.35 7.22,-115.63 9.33,-121.26l0 -102.99c-8.06,-20.87 7.43,-286.37 -153.3,-618.06 -55.5,-114.54 -98.81,-175.95 -195.3,-254.62 -71.17,-58.02 -219.48,-161.5 -304.02,-66.4 -29.78,33.5 -16.8,53.8 -6.27,98.33 8.38,35.44 15.62,70.26 22.15,106.67l12.95 82.74c1.81,14.68 4.33,10.28 11.06,20.44 14.06,0.44 42.73,-6.39 60.91,-7.52 31.46,-1.95 30.61,1.66 49.4,-16.87 20.69,-20.4 36.76,-48.59 45.95,-86.11 1.57,-6.42 3.47,-22.54 5.83,-27.46 3.48,-7.26 13.22,-12.44 23.25,-7.59 15.9,7.7 6.22,34.66 2.23,49.04 -15.46,55.69 -30.6,63.52 -42.87,89.6 9.59,5.52 34.46,6.53 47.23,8.95 15.39,2.92 29.24,6 44.24,10.04 13.63,3.67 31.57,6.07 32.9,20.93 1.72,19.15 -16.33,19.73 -30.84,15 -52.6,-17.13 -134.89,-26.39 -194.67,-21.85 5.7,5.98 13.13,12.95 19.96,18.47 42.36,34.26 76.69,72.67 94.62,126.29 2.79,8.33 3.48,22.57 8.39,28.28 6.27,6.5 51.25,9.74 104.19,65.97 24.17,25.67 50.49,61.48 70.52,97.9 15.19,-0.06 93.82,-1.6 102.09,1.33 13.7,4.87 13.51,26.34 -0.28,31.37 -7.37,2.69 -87.95,1.35 -102.21,1.43 -23.49,0.12 -21.94,-3.88 -31.01,-20.08 -4.76,-8.5 -34.47,-60.33 -38.33,-62.76 -4.02,90.51 -10.31,80.77 8,166.31 4.48,20.93 -18.78,29.85 -29.36,16.48 -10.37,-13.11 -16.85,-81.67 -16.91,-103.37 -0.18,-62.22 10.96,-70.53 14.78,-103.14 -26.3,-23.33 -39.52,-39.2 -78.88,-55.63 -6.57,8.95 -20.91,110.2 -22.89,129.97 -4.27,42.33 -7.25,97.82 4.56,137.77 7.19,24.35 13.65,32.74 36.56,39.78 22.61,6.95 16.68,40.64 -15.69,31.36 -37.23,-10.67 -53.09,-47.71 -59.73,-91.06 -17.44,-113.82 25.85,-219.54 19.37,-275.6 -4.57,-39.57 -31.03,-82.07 -51.23,-101.21 -41.77,-39.56 -17.64,-18.63 -63.34,-51.18 -7.15,-5.09 -14.07,-11.94 -20.93,-15.57 5.25,95.77 12.51,181.78 -20.98,271.52 -39.17,104.98 -39.33,241.71 -7.88,348.68 9.89,33.63 22.02,40.17 60.15,32.77 178.94,-34.75 332.07,10.77 441.04,140.24 22.28,26.47 43.17,59.67 58.04,93 7.74,17.34 11.78,14.48 25.97,23.16z"/>
   <path class="fil0" d="M1154.6 310.26l-123.84 0 -13.57 7.81c-15.19,12.04 -12.82,33.48 -12.82,49.42l0 378.41c0,16.65 2.48,24.86 -4.82,37.83 -24.27,43.07 -24.5,26.42 -17.35,57.94 3.75,16.53 9.16,56.6 14.47,69.59l33.28 -41.45c10.11,-14.59 20.53,-29.97 29.78,-46.51 14.69,-26.26 16.66,-23.77 16.65,-59.91 -0.02,-124.28 -3.16,-260 0.1,-381.24l34.1 -0.24c0.02,114.2 0.03,227.97 0.03,341.73 0,75.19 -6.75,64.84 38.18,134.08 21.73,33.5 52.48,69.95 77.6,92.54 0.89,-20.22 -11.24,-89.65 -15.76,-116.38 -6.05,-35.78 -25.44,-44.66 -27.86,-61.07l-0.17 -400.55c0,-12.99 1.84,-30.22 -3.29,-41.14 -7.44,-15.83 -10.41,-12.39 -24.69,-20.87z"/>
  </g>
  <g>
   <path class="fil1 str0" d="M332.1 10.42l1497.68 0c176.93,0 321.68,144.76 321.68,321.68l0 1537.54c0,176.93 -144.76,321.68 -321.68,321.68l-1497.68 0c-176.93,0 -321.68,-144.76 -321.68,-321.68l0 -1537.54c0,-176.93 144.76,-321.68 321.68,-321.68z"/>
  </g>
 </g>
</svg>
