<?xml version="1.0" encoding="UTF-8"?>
<!DOCTYPE svg PUBLIC "-//W3C//DTD SVG 1.1//EN" "http://www.w3.org/Graphics/SVG/1.1/DTD/svg11.dtd">
<!-- Creator: CorelDRAW -->
<svg xmlns="http://www.w3.org/2000/svg" xml:space="preserve" width="2.16188in" height="2.20173in" version="1.1" style="shape-rendering:geometricPrecision; text-rendering:geometricPrecision; image-rendering:optimizeQuality; fill-rule:evenodd; clip-rule:evenodd"
viewBox="0 0 2161.88 2201.74"
 xmlns:xlink="http://www.w3.org/1999/xlink"
 xmlns:xodm="http://www.corel.com/coreldraw/odm/2003">
 <defs>
  <style type="text/css">
   <![CDATA[
    .str0 {stroke:#856443;stroke-width:20.83;stroke-miterlimit:2.61313}
    .fil1 {fill:none}
    .fil0 {fill:#856443}
   ]]>
  </style>
 </defs>
 <g id="Layer_x0020_1">
  <metadata id="CorelCorpID_0Corel-Layer"/>
  <path class="fil0" d="M604.23 1690.97l194.31 3.52 0.3 255.5 24.2 27.36 215.34 0c21.3,-19.37 14.94,-4.62 23.74,-30.22l2.8 -254.56 33.96 1.73 0.65 253.56 23.72 29.49 215.5 0 23.93 -28.39 2.46 -257.29 192.49 -0.7c67.58,-11.15 62.59,-59.39 62.35,-130.7l-0.03 -556.12c0.04,-187.34 39.28,-220.56 -154.87,-220.04 -114.77,0.3 -71.91,8.11 -138.03,-44.53 -46.08,-36.69 -79.03,-38.67 -119.59,-64.71 20.97,-28.76 44.11,-44.09 57.31,-90.68 11.18,-39.46 11.69,-81.69 -0.5,-118.2 -16.47,-49.34 -54.24,-92 -99.18,-112.98l-43.56 -18.98c-1.05,-2.69 -3.94,-1.93 -5.81,-3.07l-59.12 0c-37.73,17.94 -63.32,14.94 -96.04,44.33 -104.82,94.15 -91.45,209.08 -7.37,299.58 -15.35,10.94 -36.57,16 -59.87,27.93 -26.5,13.57 -34.2,18.66 -57.85,37.43 -65.71,52.17 -25.73,44.43 -138.69,44.13 -194.32,-0.52 -154.85,31.55 -154.87,219.8 -0.02,124.39 0.05,248.79 -0.01,373.18 -0.03,60.97 0.18,121.97 -0.02,182.94 -0.24,71 -5.43,119.83 62.35,130.7zm382.17 -258.17c-51.49,29.19 4.34,113.86 56.83,87.04 23.89,-12.2 29.22,-39.6 8.21,-65.37 -13.03,-15.98 -37.86,-37.06 -65.04,-21.67zm147.73 0.61c-66.87,43.14 -29.46,111.08 26.72,86.6 59.59,-25.97 31.27,-124.02 -26.72,-86.6zm-501.04 170.61l896.04 0.51 -0.37 -730.5 -423.21 -2.01 0 85.91c52.55,-7.39 228.35,-40.13 261.14,29.43 17.55,37.24 -8.14,61.73 -37.53,29 -45.86,-51.07 -139.95,-20.5 -223.38,-12.48l1.73 55.18c91,-14.87 316.24,-25.61 287.45,85.94 -100.34,9.67 76.46,-61.5 -289.41,-39.74l1.1 64.84c75.31,-12.33 145.93,-26.34 206.61,6.07l3.4 49.24c-82.52,10.74 22.61,-40.7 -159,-17.09l-52.07 15.34 0.33 43.3 66.7 3.63 0.56 34.83 -67.64 6.14c0,72.63 10.61,22.12 138.48,39.38 45.21,6.1 95.16,33.03 79.06,88.47 -15.04,51.76 -66.3,31.56 -107.89,68.71 -28.09,25.1 -38.27,54.63 -115.89,60.05 -121.94,8.54 -140.3,-56.27 -184.69,-79.56 -14.38,-7.54 -107.59,-13.85 -75.35,-92.26 27.66,-67.29 162.76,-40.23 220.37,-50.81l0 -31.1c-28.54,-4.76 -47.85,-0.52 -66.82,-13.67l-1.09 -22.5c20.36,-14.43 37.96,-10.22 67.53,-14.05l0.11 -44.41c-35.99,-10.99 -130.73,-29.09 -164.6,-9.37 -12.27,7.15 -14.07,26.87 -32.65,11 -9.39,-7.13 -14.98,8.72 -12.16,-25.78 5.01,-61.27 159.33,-31.67 208.87,-27.28l1.07 -60.11c-46.02,-13.5 -174.08,-21.16 -222.61,-0.1 -44.25,19.19 -5.83,25.07 -52.72,38.51 -53.93,-42.24 32.49,-83.37 79.82,-91.83 74.19,-13.26 132.78,5.82 195.48,0l-0.47 -47.46c-40.38,-11.67 -172.56,-31.85 -210.55,-4.87 -20.6,14.63 -17.43,32.87 -53.23,27.17 -17.41,-123.85 177.15,-76.91 263.02,-73.43l1.16 -81.19c-60.14,-8.22 -347.64,-2.86 -426.84,-2.8l0.13 731.75zm-25.2 0.15l2.5 26.51 940.61 -0.09 3.57 -33.69 -0.63 -748.78 -946.06 0.01 0 756.04z"/>
  <g>
   <path class="fil1 str0" d="M332.1 10.42l1497.68 0c176.93,0 321.68,144.76 321.68,321.68l0 1537.54c0,176.93 -144.76,321.68 -321.68,321.68l-1497.68 0c-176.93,0 -321.68,-144.76 -321.68,-321.68l0 -1537.54c0,-176.93 144.76,-321.68 321.68,-321.68z"/>
  </g>
 </g>
</svg>
