<?xml version="1.0" encoding="UTF-8"?>
<!DOCTYPE svg PUBLIC "-//W3C//DTD SVG 1.1//EN" "http://www.w3.org/Graphics/SVG/1.1/DTD/svg11.dtd">
<!-- Creator: CorelDRAW -->
<svg xmlns="http://www.w3.org/2000/svg" xml:space="preserve" width="2.16188in" height="2.20173in" version="1.1" style="shape-rendering:geometricPrecision; text-rendering:geometricPrecision; image-rendering:optimizeQuality; fill-rule:evenodd; clip-rule:evenodd"
viewBox="0 0 2161.88 2201.74"
 xmlns:xlink="http://www.w3.org/1999/xlink"
 xmlns:xodm="http://www.corel.com/coreldraw/odm/2003">
 <defs>
  <style type="text/css">
   <![CDATA[
    .str0 {stroke:#856443;stroke-width:20.83;stroke-miterlimit:2.61313}
    .fil1 {fill:none}
    .fil0 {fill:#856443}
   ]]>
  </style>
 </defs>
 <g id="Layer_x0020_1">
  <metadata id="CorelCorpID_0Corel-Layer"/>
  <path class="fil0" d="M722.43 919.53l0.15 5.1 -0.28 165 0.08 57.12 0.16 56.38 -0.08 54.02 0.01 5.18 6.02 54.33 3.2 4.93 5.5 8.88c27.69,15.35 29.2,20.39 69.29,19.01 29.98,-1.03 59.14,1.54 89.02,0.88 56.57,-1.25 121.62,-2.82 177.84,-0.91l266.77 1.04c13.13,-0.03 30.07,-0.17 42.86,-2.3 16.34,-2.72 19.13,-8.31 31.7,-9.67l23.21 -32.14 0.98 -46.12 0.4 -59.48 -0.24 -53.46 -0.09 -230.8c-2.14,-32.3 -9.43,-30.17 -20.39,-53.01 -29.18,-8.06 -17,-14.65 -67.32,-13.99 -174.43,2.3 -424.47,-7.83 -577.97,1.03 -33.95,12.11 -48.59,26.26 -50.81,68.97zm841.8 278.94c13.37,11.44 21.31,13.76 45.74,11.76l14.87 -5.79c10.54,-21.28 19.31,-30.86 8.87,-60.65 -4.52,-2.75 -17.11,-16.04 -21.53,-20.19 -6.85,-6.4 -16.04,-14.57 -18.53,-23.6 -15.29,-8.67 -55.07,-53.8 -80.47,-77.45 -13.8,-12.85 -35.61,-41.98 -47.6,-48.59 -3.43,25.21 -0.9,51.68 -0.81,77.19 0.17,47.79 -12.04,36.75 58.27,105.97 14.59,14.36 26.14,27.35 41.19,41.35zm-987.07 -105.85c-8.81,15.24 -27.95,27.53 -41.91,42.94 -22.96,25.36 -4.98,39.26 -6.54,59.83 15.48,11.21 23.37,16.96 48.13,15.84l15.7 -4.51c10.69,-14.74 23.77,-29.35 36.82,-37.63 4.67,-13.42 22.3,-24.17 33.44,-35.74 8.04,-8.35 24.78,-30.82 32.94,-34.07l0.19 -126.24c-11.54,8.19 -20.18,18.72 -30.39,29.73 -10.66,11.5 -17.36,17.45 -29.67,29.58 -19.12,18.85 -39.39,44.54 -58.72,60.26zm449.72 -647.33c-6.33,7.04 -18.7,11.21 -26.95,17.37 -51.96,38.83 -40.98,49.67 -57.54,65.96 0.28,16.09 -7.21,33.75 -8.57,52.03 -1.68,22.49 2.63,35 7.59,55.45 25.83,44.23 24.8,53.13 68.31,78.53 18.3,10.68 33.67,16.82 56.19,18.7 26.44,2.2 47.28,-6.68 68.17,-6.27 6.92,-7.48 3.55,-3.53 13.67,-9.12 4.87,-2.68 9.48,-5.06 14.07,-8.02 13.81,-8.93 18.07,-13.77 30.07,-22.03l-0.02 0.13c10.15,-18.78 18.74,-27.96 28.73,-52.41l7.66 -35.14c2.4,-41.63 -1.79,-48.93 -13.48,-82.84 -7.83,-6.32 -19.62,-29.01 -31.11,-40 -13.5,-12.91 -28.5,-17.19 -39.94,-27.8 -17.02,-5.55 -34.22,-11.63 -55.45,-12.05 -21.52,-0.44 -42.75,8.07 -61.37,7.51zm-9.01 1511.59c5,-8.41 3.15,-4.81 8.3,-11.77 4.73,-6.39 4.19,-6.72 10.66,-13.22l4.54 -52.66 4.44 -51.07 4.28 -56.22c1.4,-45.77 5.44,-90.75 8.25,-135.31 1.92,-30.37 -7.4,-123.72 34.63,-101.5 14.14,16.56 14.56,150.03 17.79,184.84l5.54 129.08c6.59,9.64 4.87,32.3 5.42,47.02 0.75,20.3 5.13,31.98 11.15,47.98 7.48,-2.41 2.16,-0.79 1.93,3.36 20.39,11.64 28.38,22.43 64.48,20.07 8.72,-3.4 13.33,-4.46 21.23,-9.65 5.88,-3.85 5.67,-4.36 10.17,-8.45l8.58 -7.43c13.22,-40.91 8.75,-88.16 8.98,-134.96 0.23,-47.45 0.74,-97.22 -0.21,-144.5 -1.84,-91.91 5.29,-194.1 -1.14,-284.23l-331.75 -0.73c-4.18,115.08 1.39,235.81 -0.3,351.65 -0.83,56.11 -1.02,118.17 0.85,174.05 2.94,87.94 82.17,58.16 102.19,53.67zm-50.1 -969.86c27.02,12.92 42.03,11.18 66.87,18.17l29.27 0.03 -1.85 56.44c-32,-1.93 -65.27,-4.42 -90.13,-20.34 -22.56,-14.44 -13.05,-25.13 -23.86,-32.93 -22.98,-16.58 -25.47,12.41 -24.14,27.91 14.13,9.23 -17.21,4.26 50.44,43.54l17.43 3.67 45.13 13.17 26.36 -1.51 -1.52 55.38 -34.28 -2.81c-14.52,-1.96 -24.04,-4.21 -37.65,-9.35 -5.07,-1.91 -11,-4.1 -15.4,-6.84 -10.84,-6.78 -5.76,-1.78 -11.82,-12.07l-6.35 -7c-0.39,-0.69 -0.74,-1.78 -1.12,-2.52 0,0 -8.09,-27.61 -27.39,-12.63 -12.63,9.81 0.71,33.29 2.69,43.12 0.83,0.59 1.87,1.43 2.42,1.85l32.04 22.86c36.94,10.2 54.06,18.03 97.42,19.35l1.68 30.65c-22.34,-1.02 -80.43,-6.44 -94.45,-16.72 -22.22,-6.04 -42,-23.21 -55.57,-23.96 -33.46,3.54 -31.91,25.48 -31.91,58.22 0,30.44 2.14,48.32 31.95,51.47 34.14,3.62 132.14,1.88 168.46,-0.44 172.38,-16.97 196.77,40.96 196.45,-66.02 -0.07,-22.24 -2.42,-40.99 -25.17,-42.82 -17.35,-1.39 -29.22,13.07 -44.8,19.57 -27.44,11.44 -77.07,21.09 -108.97,19.23l-0.23 -29.32c38.32,-6.51 59.37,-1.71 94.91,-19.47 27.64,-13.81 49.12,-32.35 43.67,-64.51 -33.68,-21.09 -22.18,12.71 -45.24,23.83 -6.2,11.67 -25.15,17.48 -40.52,17.49 -9.56,10 -37.41,9.86 -52.78,8.95l0.67 -54.78 41.62 -4.11 26.1 -2.46c2.5,-2.01 3.22,-2.71 7.81,-5.24 7.98,-4.41 -6.13,2.38 5.44,-2.67 8.34,-3.65 7.52,-2.7 14.86,-4.7 22.52,-15.83 29.95,-17.98 42.63,-43.19l-0.47 -22.01c-29.26,-18.48 -28.49,5.37 -34.37,14.72 -7.56,12.01 -3.46,5.65 -10.99,9.88 -16.6,17.98 -59.65,25.55 -93.54,25.62l1.06 -54.44c36.67,-4.43 52.3,-7.43 86.69,-16.37 14.43,-7.82 29.74,-14.46 42.42,-31.57 8.15,-10.99 17.62,-42.51 -5.04,-43.84 -17.96,-1.06 -13.36,23.17 -35.44,36.46 -17.12,10.3 -32.48,13.57 -53.18,18.06l-35.89 2.18 0.66 -47.66c-9.22,-6.8 -13.69,-10.17 -31.2,-6.99 0.73,7.94 0.75,2.22 -3.26,2.22l-4.09 53.06c-16.62,-1 -37.62,-0.57 -48.96,-7.39 -18.4,0.48 -41.02,-8.91 -50.96,-21.82 -10.48,-13.6 -8.98,-39.31 -37.3,-22.21 -16.73,33.68 20.78,53.56 42.7,65.56z"/>
  <g>
   <path class="fil1 str0" d="M332.1 10.42l1497.68 0c176.93,0 321.68,144.76 321.68,321.68l0 1537.54c0,176.93 -144.76,321.68 -321.68,321.68l-1497.68 0c-176.93,0 -321.68,-144.76 -321.68,-321.68l0 -1537.54c0,-176.93 144.76,-321.68 321.68,-321.68z"/>
  </g>
 </g>
</svg>
