<?xml version="1.0" encoding="UTF-8"?>
<!DOCTYPE svg PUBLIC "-//W3C//DTD SVG 1.1//EN" "http://www.w3.org/Graphics/SVG/1.1/DTD/svg11.dtd">
<!-- Creator: CorelDRAW -->
<svg xmlns="http://www.w3.org/2000/svg" xml:space="preserve" width="2.16188in" height="2.20173in" version="1.1" style="shape-rendering:geometricPrecision; text-rendering:geometricPrecision; image-rendering:optimizeQuality; fill-rule:evenodd; clip-rule:evenodd"
viewBox="0 0 2161.88 2201.74"
 xmlns:xlink="http://www.w3.org/1999/xlink"
 xmlns:xodm="http://www.corel.com/coreldraw/odm/2003">
 <defs>
  <style type="text/css">
   <![CDATA[
    .str0 {stroke:#856443;stroke-width:20.83;stroke-miterlimit:2.61313}
    .fil1 {fill:none}
    .fil0 {fill:#856443}
   ]]>
  </style>
 </defs>
 <g id="Layer_x0020_1">
  <metadata id="CorelCorpID_0Corel-Layer"/>
  <path class="fil0" d="M1229.07 1337.49c-14.83,11.01 -15.38,27.94 -49.81,29.43 -34.74,1.5 -40.07,-18.04 -52.68,-24.3 -10.61,-30.32 -8.4,-40.42 -8.45,-75.56 -0.05,-33.23 -6.3,-52.81 24.59,-58.07 43.93,6.94 14.97,57.22 26.74,107.24 25.52,2.04 8.82,-13.51 43.32,-32 23.95,-12.84 41.84,-8.48 65.54,-1.61 -2.01,-29.91 -15.69,-53.51 -22.91,-81.91 -27.76,-109.28 3.1,-169.74 49.56,-248.12 26.87,-45.34 44.76,-100.5 46.87,-161.84 2.26,-65.85 2.82,-146.5 0.04,-212.13 -86,29.66 -4.56,174.9 -72.39,312.35 -23.57,47.78 -55.74,70.2 -79.06,114.69 -45.82,87.43 -16.37,129.21 -55.69,137.22 -33.76,-4.95 -27.43,-30.25 -22.2,-60.52 27.22,-157.52 129.07,-163 136.92,-305.26 3.14,-56.91 -6.2,-118.37 6.59,-172.91 28.19,-73.26 80.41,-68.49 157.22,-128 51.83,-40.16 93.69,-95.61 196.32,-92.78 151.59,4.18 250.39,166.93 174.36,279.43 -13.22,19.56 -21.46,24.99 -33.07,39.13 10.41,9.73 20.83,16.67 29.72,25.98 8.83,9.23 15.28,22.06 25.87,29.62 26.33,-44.09 49.96,-73.26 55.19,-142.32 8.31,-109.77 -51.89,-206 -145.45,-253.36 -49.1,-24.85 -110.9,-33.06 -170.9,-19.76 -63.7,14.12 -91.61,39.56 -130.55,69.84 -106.24,82.63 -235.79,129.13 -375.56,120.86 -32.92,-1.95 -68.07,1.05 -66.29,-33.54 13.35,-39.06 64.73,-2.52 179.18,-21.67 40.74,-6.81 85.67,-20.54 122.74,-37.92 6.67,-3.13 11.29,-5.19 17.86,-8.37l18.48 -12.73 -46.5 -26.31c-107.24,-61.36 -277.43,-52.08 -385.34,0.12 -10.72,5.63 -38.1,19.66 -45.56,30.3 45.71,31.17 79.55,20.56 74.96,61.36 -15.75,26.19 -36.12,12.17 -61.63,1.16 -22.25,-9.6 -40.68,-20.5 -60.29,-31.67 -80.45,-45.81 -121.88,-119.44 -251.7,-117.83 -90.44,1.11 -103.71,37.31 -132.52,26.16 -11.28,-4.37 -2.69,-4.42 -16.44,-8.21l-45.65 35.36c11.17,51.58 4.59,17.13 -30.74,84.37 -50.57,96.26 -35.86,217.71 28.22,285.33l12.8 -14.43c27.94,-34.57 27.23,-24.75 42.3,-42 -70.65,-49.3 -86.68,-156.39 -17.42,-241.85 48.43,-59.77 150.82,-106.46 254.22,-56.96 59.22,28.35 88.36,75.28 153.2,109.61 17.85,9.45 40.88,20.08 57.19,31.49 90.65,63.41 27.69,180.39 61.93,289.66 29.23,93.29 94.18,105.98 122.5,228.82 12.02,52.16 8.5,109.58 8.5,164.56 0,56.9 11.53,120.36 -39.63,136.55 -56.53,17.89 -63.04,-36.95 -87.35,-38.31 -14.28,-0.8 -23.48,10.04 -28.09,18.2 -16.14,28.54 13.61,130.69 21.87,139.63 18.29,19.83 99.21,36.6 134.37,39.8 59.18,5.39 107.4,-2.63 160.3,-17.54 4.24,-14.21 22.22,-68.19 22.5,-75.03 6.82,-6.36 7.05,-9.05 12.23,-18.35 15.06,-27.03 26.17,-37.89 37.93,-56.83 -5.72,-21.27 -31.56,-45.86 -48.27,-18.28zm-510.87 -504.94l-21.56 8.25 -9.59 35.31 34.26 -9.47 44.1 -19.35 -4.46 -35.85 -42.75 21.12zm721.23 34.21l38.48 11.51c-9.29,-42.23 -2.42,-30.32 -35.06,-45.76l-42.34 -21.26 -4.63 35.98 43.56 19.52zm-507.12 733.64c0.52,32.35 7.89,38.62 33.7,47.47 20.68,7.09 42.42,13.02 65.58,16.48 46.52,6.94 106.5,4.54 147.8,-11.7l26.23 -8.34 -8.18 -84.98c-51.76,8.7 -83.52,17.82 -143.08,14.35 -56.5,-3.29 -86.45,-15.64 -135,-28.15l12.96 54.87zm185.68 252.66c67.78,-15.95 62.43,-24.98 68.48,-53.24 7.08,-33.04 17.29,-70.38 22.19,-103.72 -133.13,29.57 -122.96,29.44 -255.95,0.02 2.37,16.19 5.09,45.28 14.28,56.06 -1.23,17.53 5.44,35.62 9.14,53.17 6.26,29.66 2.9,24.67 29.57,36.17 35.5,15.3 71.14,17.84 112.29,11.55zm382.99 -346.15c0,54.2 -64.52,26.02 -109.88,34.45l0.07 61.8c22.52,2.61 51.27,0.39 74.03,0.64 46.58,0.5 35.93,21.59 35.93,109.97l63.74 0c-0.18,-133.11 -14.65,-106.78 108.69,-110.09l1.38 -63.23c-123.24,-5.23 -109.98,24.87 -109.98,-110.66l-64.05 0 0.08 77.11zm-617.84 -224.41c86.64,-25.75 78.39,36.4 108.68,33.66 5.33,-21.04 3.29,-194.04 -1.2,-222.33 -5.37,-33.91 -14.67,-58.17 -28.82,-85.6 -15.03,-29.13 -32.04,-45.91 -49.35,-69.05 -121.24,-162.14 -5.78,-327.01 -102.97,-360.54 -2.78,65.23 -1.9,143.3 -0.07,208.89 1.74,62.36 19.41,118.9 46.96,165.07 45.44,76.14 77.07,139.21 50.32,245.43 -6.95,27.59 -22.13,55.42 -23.55,84.46zm-371.56 -569.19c-68.79,8.99 -129.2,57.88 -140.21,120.5 -14.28,81.2 57.63,132 135.75,122.39 67.96,-8.36 128.2,-58.57 139.74,-119.78 15.2,-80.63 -57.49,-133.27 -135.28,-123.1zm1248.64 246.89c22.05,-15.43 32.08,-23.52 45.9,-47.94l-6 -6.67c-3.76,-4.39 -3.65,-1.97 -6.64,-9.67 -6.05,-15.58 25.79,-93.02 -61.1,-152.41 -56.69,-38.75 -136.87,-46.23 -186.78,2.85 -52.93,52.05 -30.64,125.27 24.52,172.53 19.56,16.76 52.79,32.89 87.51,37.17 76.13,9.39 61.97,-28.87 102.58,4.13zm-308.44 702.21c-1.78,-16.69 2.75,-4.3 -6.42,-9.2 -104.94,0 -103.61,19.18 -103.61,-83.86 0,-24.43 -8.32,-69.26 16.53,-76.98 12.57,-3.91 75.18,-1.41 93.47,-1.85 0,-19.3 -2.42,-76.17 1.11,-91.22 6.37,-27.14 52.45,-18.73 77.93,-18.73 24.26,0 72.87,-8.91 81.38,15.58 4.01,11.54 2.04,76.26 2.04,93.2l12.69 1.41c104.26,-0.34 97.32,-15.23 97.32,88.45 0.01,104.66 -5.56,65.19 -108.95,74.62 -4.04,25.47 3.24,70.79 -2.61,92.36 -6.59,24.35 -46.46,16.98 -75.3,16.98 -103.52,0 -85.9,4.36 -85.57,-100.76zm188.17 -353.35c-26.58,-24.51 -127.25,-24.98 -173.35,-14.3 -40.76,9.44 -92.5,35.74 -121.64,62.57 -5.14,4.74 -7.72,8.95 -12.48,13.71 -4.48,4.47 -7,5.62 -12.12,10.79 -5.02,5.06 -7.69,9.35 -11.78,14.6 -24.12,31 -41.28,64.94 -51.77,105.82 -12.53,48.85 -11.6,139.92 13.68,177.83 20.68,73.85 111.61,147.99 191.96,167.92 111.33,27.62 218.72,-20.09 272.81,-74.19 52.91,-52.92 101.94,-160.18 74.31,-269.77 -12,-47.6 -34.89,-89.75 -61.93,-118.66 -25.48,-27.25 -59.63,-61.23 -107.69,-76.33z"/>
  <g>
   <path class="fil1 str0" d="M332.1 10.42l1497.68 0c176.93,0 321.68,144.76 321.68,321.68l0 1537.54c0,176.93 -144.76,321.68 -321.68,321.68l-1497.68 0c-176.93,0 -321.68,-144.76 -321.68,-321.68l0 -1537.54c0,-176.93 144.76,-321.68 321.68,-321.68z"/>
  </g>
 </g>
</svg>
