<?xml version="1.0" encoding="UTF-8"?>
<!DOCTYPE svg PUBLIC "-//W3C//DTD SVG 1.1//EN" "http://www.w3.org/Graphics/SVG/1.1/DTD/svg11.dtd">
<!-- Creator: CorelDRAW -->
<svg xmlns="http://www.w3.org/2000/svg" xml:space="preserve" width="2.16188in" height="2.20173in" version="1.1" style="shape-rendering:geometricPrecision; text-rendering:geometricPrecision; image-rendering:optimizeQuality; fill-rule:evenodd; clip-rule:evenodd"
viewBox="0 0 2161.88 2201.74"
 xmlns:xlink="http://www.w3.org/1999/xlink"
 xmlns:xodm="http://www.corel.com/coreldraw/odm/2003">
 <defs>
  <style type="text/css">
   <![CDATA[
    .str0 {stroke:#856443;stroke-width:20.83;stroke-miterlimit:2.61313}
    .fil1 {fill:none}
    .fil0 {fill:#856443}
   ]]>
  </style>
 </defs>
 <g id="Layer_x0020_1">
  <metadata id="CorelCorpID_0Corel-Layer"/>
  <g id="_1338882362608">
   <path class="fil0" d="M932.9 2018.33l296 1.11c1.12,-107.06 -11.6,-223.14 26.41,-316.78 14.78,-36.4 44.86,-84.98 65.51,-105.3 10.31,-10.14 11.3,-13.34 20.01,-23.61 41.19,-48.52 112.09,-99.65 64.16,-209.49 -15.61,-35.76 -53.37,-72.18 -86.02,-88.6 -43.46,-21.86 -90.01,-26.38 -138.13,-7.24 -37.43,14.89 -73.6,45.31 -99.93,74.3 -27.08,-29.36 -59.72,-57.4 -97.37,-73.31 -143.68,-60.69 -293.47,103.29 -224,231.37 24.68,45.5 103.83,98.87 145.91,199.31 39.22,93.63 26.52,211.91 27.46,318.24z"/>
   <path class="fil0" d="M1080.91 1096.17c47.22,50.8 132.14,119.24 235.58,68.24 84.65,-41.74 130.3,-144.06 85.8,-226.3l-77.73 -93.14c-117.06,-117.78 -94.09,-276.17 -95.66,-424.42l-296 -1.11c-0.93,106.95 11.45,223.41 -26.37,316.78 -61.46,151.73 -215.01,188 -149.73,338.43 15.47,35.65 53.5,72.11 86.09,88.56 104.52,52.74 189.94,-15.21 238.02,-67.05z"/>
   <path class="fil0" d="M1501 1215.07l-144.09 0.98 192.61 45.28 -5.08 -34.44 147.52 -3.42c-14.44,-7.58 -177.76,-37.76 -195.44,-36.39l4.48 27.99z"/>
   <path class="fil0" d="M469.92 1222.6l146.95 4.22 -5.02 33.46 195.28 -42.71 -145.62 -2.46 3.67 -28.05c-17.5,-1.3 -180.58,28.66 -195.25,35.54z"/>
   <path class="fil0" d="M1469.99 1315.06c-5.07,8.4 -6.84,7.28 -14.25,17.04l6.65 3.97c19.38,8.37 72.13,15.16 87.04,25.11l-14.86 13.31c9.48,11.26 34.19,14.5 48.66,18.9 17.2,5.23 32.96,9.25 49.74,13.72l11.52 -16.2 -79.57 -21.12c6.1,-7.01 9.98,-10.23 16.05,-19.51 -12.14,-9.5 -74.68,-20.56 -94.1,-23.94l6.93 -10.03c3.67,-5.42 3,-1.9 5.56,-8.76l-91.73 -13.33c13.99,10.61 42.12,16.53 62.36,20.85z"/>
   <path class="fil0" d="M662.51 1307.79l10.63 15.86c0.43,0.62 1.29,1.68 1.77,2.62 -19.29,3.46 -81.93,14.49 -94.07,24l15.71 18.19 -78.66 20.27 10.86 18.44 98.41 -27.87c-4.89,-13.06 -5.06,-8.18 -14.7,-18.13 14.72,-10.11 70.1,-17.41 86.96,-25.09 9.59,-4.37 3.37,-1.2 6.64,-3.99 -7.15,-9.31 -9.33,-9.22 -14.27,-17.04 23.1,-5.52 57.29,-18.53 75.17,-21.25l-104.45 13.98z"/>
   <path class="fil0" d="M517.34 1048l79.21 20.72c-4.21,7.79 -9.41,10.09 -15.66,19.89 12.37,9.57 74.57,20.52 94.07,24 -0.48,0.94 -1.48,1.13 -1.78,2.62l-10.78 16.17 104.44 14.96 -74.84 -23.04c4.43,-7.06 6.97,-7.47 14,-16.54l-4.31 -2.76c-20.78,-9.91 -74.1,-15.79 -89.3,-26.32 5.39,-5.4 9.89,-8.78 14.95,-18.8l-98.46 -27.59 -11.55 16.67z"/>
   <path class="fil0" d="M1534.37 1064.66l15.56 12.53c-10.15,7.21 -52.39,16.04 -70.86,20.69 -2.92,0.73 -9.03,2.11 -11.49,2.95 -1.1,0.37 -4.21,1.54 -5.17,1.96 -9.63,4.36 -3.35,1.17 -6.65,4 7.39,9.72 9.28,8.87 14.25,17.02l-75.19 21.44 104.5 -14.04 -12.45 -18.63c19.38,-3.34 81.81,-14.46 94.11,-23.96 -6.41,-9.62 -11.62,-12.29 -15.75,-19.98l78.74 -18.24 -10.91 -18.64 -98.69 32.91z"/>
  </g>
  <g>
   <path class="fil1 str0" d="M332.1 10.42l1497.68 0c176.93,0 321.68,144.76 321.68,321.68l0 1537.54c0,176.93 -144.76,321.68 -321.68,321.68l-1497.68 0c-176.93,0 -321.68,-144.76 -321.68,-321.68l0 -1537.54c0,-176.93 144.76,-321.68 321.68,-321.68z"/>
  </g>
 </g>
</svg>
