<?xml version="1.0" encoding="UTF-8"?>
<!DOCTYPE svg PUBLIC "-//W3C//DTD SVG 1.1//EN" "http://www.w3.org/Graphics/SVG/1.1/DTD/svg11.dtd">
<!-- Creator: CorelDRAW -->
<svg xmlns="http://www.w3.org/2000/svg" xml:space="preserve" width="2.16188in" height="2.20173in" version="1.1" style="shape-rendering:geometricPrecision; text-rendering:geometricPrecision; image-rendering:optimizeQuality; fill-rule:evenodd; clip-rule:evenodd"
viewBox="0 0 2161.88 2201.74"
 xmlns:xlink="http://www.w3.org/1999/xlink"
 xmlns:xodm="http://www.corel.com/coreldraw/odm/2003">
 <defs>
  <style type="text/css">
   <![CDATA[
    .str0 {stroke:#856443;stroke-width:20.83;stroke-miterlimit:2.61313}
    .fil1 {fill:none}
    .fil0 {fill:#856443}
   ]]>
  </style>
 </defs>
 <g id="Layer_x0020_1">
  <metadata id="CorelCorpID_0Corel-Layer"/>
  <g id="_1338771328016">
   <path class="fil0" d="M940 1867.37l281.82 1.06c1.06,-101.93 -11.05,-212.45 25.14,-301.6 14.07,-34.66 42.71,-80.91 62.38,-100.26 9.81,-9.65 10.75,-12.7 19.05,-22.48 39.21,-46.2 106.72,-94.87 61.08,-199.46 -14.86,-34.05 -50.81,-68.72 -81.9,-84.36 -41.38,-20.81 -85.7,-25.11 -131.51,-6.9 -35.64,14.18 -70.08,43.14 -95.15,70.75 -25.78,-27.95 -56.85,-54.65 -92.71,-69.8 -136.8,-57.78 -279.41,98.34 -213.27,220.28 23.5,43.32 98.86,94.13 138.92,189.76 37.35,89.15 25.26,201.76 26.15,302.99z"/>
   <path class="fil0" d="M1080.91 989.39c44.96,48.36 125.81,113.53 224.3,64.97 80.59,-39.74 124.06,-137.16 81.69,-215.46l-74 -88.68c-111.46,-112.13 -89.59,-262.94 -91.07,-404.09l-281.82 -1.06c-0.89,101.82 10.9,212.71 -25.11,301.61 -58.52,144.46 -204.71,178.99 -142.56,322.22 14.73,33.94 50.94,68.66 81.96,84.32 99.52,50.22 180.85,-14.48 226.62,-63.83z"/>
   <path class="fil0" d="M1480.88 1102.59l-137.18 0.93 183.38 43.11 -4.84 -32.79 140.45 -3.26c-13.75,-7.22 -169.24,-35.96 -186.08,-34.64l4.27 26.65z"/>
   <path class="fil0" d="M499.19 1109.76l139.91 4.02 -4.78 31.86 185.92 -40.67 -138.65 -2.35 3.49 -26.71c-16.67,-1.24 -171.93,27.29 -185.9,33.84z"/>
   <path class="fil0" d="M1451.35 1197.79c-4.83,8 -6.52,6.93 -13.57,16.23l6.33 3.78c18.45,7.97 68.68,14.43 82.87,23.9l-14.15 12.67c9.03,10.72 32.56,13.8 46.33,17.99 16.38,4.98 31.39,8.81 47.36,13.06l10.97 -15.43 -75.76 -20.11c5.81,-6.68 9.51,-9.74 15.28,-18.57 -11.56,-9.04 -71.1,-19.58 -89.59,-22.8l6.59 -9.55c3.5,-5.16 2.86,-1.81 5.29,-8.34l-87.34 -12.7c13.32,10.11 40.11,15.74 59.37,19.85z"/>
   <path class="fil0" d="M682.55 1190.87l10.12 15.1c0.41,0.59 1.23,1.6 1.69,2.49 -18.37,3.3 -78,13.8 -89.56,22.85l14.96 17.32 -74.89 19.3 10.34 17.56 93.69 -26.53c-4.65,-12.43 -4.81,-7.79 -13.99,-17.26 14.02,-9.62 66.74,-16.57 82.8,-23.88 9.13,-4.16 3.2,-1.15 6.32,-3.8 -6.81,-8.87 -8.88,-8.78 -13.58,-16.23 22,-5.26 54.54,-17.64 71.57,-20.23l-99.45 13.31z"/>
   <path class="fil0" d="M544.34 943.53l75.42 19.72c-4.01,7.42 -8.96,9.6 -14.91,18.94 11.78,9.11 71,19.54 89.57,22.85 -0.46,0.89 -1.41,1.07 -1.7,2.49l-10.26 15.4 99.44 14.24 -71.25 -21.93c4.22,-6.72 6.63,-7.12 13.33,-15.76l-4.11 -2.62c-19.79,-9.44 -70.55,-15.03 -85.02,-25.06 5.13,-5.14 9.41,-8.36 14.23,-17.89l-93.74 -26.26 -11 15.87z"/>
   <path class="fil0" d="M1512.65 959.38l14.81 11.93c-9.67,6.87 -49.88,15.28 -67.47,19.7 -2.78,0.7 -8.59,2.02 -10.94,2.81 -1.05,0.35 -4.01,1.46 -4.93,1.87 -9.17,4.15 -3.19,1.11 -6.33,3.8 7.04,9.26 8.83,8.45 13.57,16.21l-71.58 20.41 99.5 -13.37 -11.86 -17.74c18.45,-3.18 77.89,-13.76 89.61,-22.81 -6.11,-9.16 -11.07,-11.7 -15,-19.03l74.97 -17.37 -10.39 -17.75 -93.96 31.33z"/>
  </g>
  <g>
   <path class="fil1 str0" d="M332.1 10.42l1497.68 0c176.93,0 321.68,144.76 321.68,321.68l0 1537.54c0,176.93 -144.76,321.68 -321.68,321.68l-1497.68 0c-176.93,0 -321.68,-144.76 -321.68,-321.68l0 -1537.54c0,-176.93 144.76,-321.68 321.68,-321.68z"/>
  </g>
 </g>
</svg>
