<?xml version="1.0" encoding="UTF-8"?>
<!DOCTYPE svg PUBLIC "-//W3C//DTD SVG 1.1//EN" "http://www.w3.org/Graphics/SVG/1.1/DTD/svg11.dtd">
<!-- Creator: CorelDRAW -->
<svg xmlns="http://www.w3.org/2000/svg" xml:space="preserve" width="2.22748in" height="2.22748in" version="1.1" style="shape-rendering:geometricPrecision; text-rendering:geometricPrecision; image-rendering:optimizeQuality; fill-rule:evenodd; clip-rule:evenodd"
viewBox="0 0 2227.48 2227.48"
 xmlns:xlink="http://www.w3.org/1999/xlink"
 xmlns:xodm="http://www.corel.com/coreldraw/odm/2003">
 <defs>
  <style type="text/css">
   <![CDATA[
    .str0 {stroke:#856443;stroke-width:20.83;stroke-miterlimit:2.61313}
    .fil1 {fill:none}
    .fil0 {fill:#856443}
   ]]>
  </style>
 </defs>
 <g id="Layer_x0020_1">
  <metadata id="CorelCorpID_0Corel-Layer"/>
  <path class="fil0" d="M1399.27 524.88l-33.62 0c-2.15,1.38 -0.67,0.65 -5.23,2.76 -3.72,1.72 -0.77,0.37 -5.12,2.08 -20.59,8.13 -34.9,18.72 -46.52,39.07 -17.02,29.81 -9.83,48.44 -12.61,84.22l-87.82 0.12c-3.39,-35.88 5.21,-57.85 -14.33,-86.74 -25.06,-37.05 -37.68,-30.24 -59.67,-41.52l-27.7 0c-16.06,8.55 -39.65,8.59 -59.31,41.89 -17.93,30.35 -11.68,47.52 -13.38,85.73 -15.31,1.47 -77.48,2.96 -87.61,-0.94 -9.26,-29.86 8.77,-47.41 -15.16,-86.22 -19.14,-31.06 -44.57,-33.21 -58.65,-40.46l-27.63 0c-20.14,10.75 -37.78,6.81 -59.67,41.41 -18.83,29.76 -9.91,50.77 -14.06,86.78 -38.5,0.55 -65.27,-3.33 -98.35,10.58 -103.79,43.67 -84.59,155 -84.59,246.91l-0.14 658.62c0.09,66.69 42.32,113.54 90.33,130.77 41.81,15 156.57,8.95 209.78,8.96l439.81 -0.02c46.51,0.23 179.63,5.15 215.52,-5.41 50.03,-14.71 97.21,-59.1 97.15,-120.76l-0.22 -769.15c0.05,-45.81 1.41,-77.24 -27.31,-109.21 -5.12,-5.69 -8.79,-8.91 -13.42,-13.66 -39.38,-40.46 -81.96,-36.08 -129.28,-37.68 -1.77,-36.64 4.84,-55.4 -13.33,-85.86 -5.08,-8.52 -16.18,-21.32 -23.39,-26.24 -11.41,-7.78 -23.68,-9.87 -34.45,-16.05zm-288.8 50.63c-21.73,6.56 -27.42,24.44 -27.38,50.81 0.04,23.62 -1.72,143.06 1.04,156.19 3.96,18.89 22.37,36.31 46.5,29.91 22.01,-5.85 28.37,-24.29 28.17,-50.69 -0.2,-26.37 -0.06,-52.6 -0.05,-78.96 0.01,-17.59 1.91,-63.6 -0.97,-78 -3.87,-19.39 -24.33,-36.18 -47.31,-29.25zm261.87 0.33c-21.86,8 -26.89,23.14 -26.76,50.53 0.13,26.32 -0.2,52.63 -0.02,78.95 0.12,17.71 -2.2,64.02 1.13,78.26 9.26,39.56 75.24,48.02 74.71,-21.86 -0.19,-26.39 -0.06,-52.58 -0.04,-78.95 0.01,-17.25 1.83,-64.55 -1.2,-78.47 -4,-18.39 -24.41,-37.01 -47.81,-28.45zm-551.54 46.03l-0.15 148.86c0.02,45.03 47.83,56.4 68.67,25.98 11.78,-17.19 7.26,-75.65 7.28,-100.41l-0.1 -74.43c-0.17,-65.14 -75.69,-64.59 -75.7,0zm-151.24 275.16l-0.04 656.33c0.03,77.28 39.3,74.3 99.13,74.26l719.48 0c88.63,0.02 74.09,-55.28 74.27,-144.18l-0.03 -626.92c-247.9,-2.2 -501.95,0.5 -750.87,-0.25l-141.8 0.39 -0.15 40.37z"/>
  <path class="fil0" d="M740.11 1133.19l149.76 0.65c2.24,-11.76 2.57,-125.5 0.15,-134.36l-149.11 -0.48c-2.67,9.93 -2.98,123.18 -0.8,134.2zm746.47 -131.9c-7.74,-4.54 -24.99,-2.34 -34.22,-2.6 -12.66,-0.36 -25.67,-0.42 -38.34,-0.2 -24.64,0.43 -52.04,-0.98 -76.06,0.61l-0.76 133.61 150.13 -1.28 -0.75 -130.14zm-147.09 353.05c-4.7,7.83 -2.26,23.02 -2.1,32.1 0.43,24.69 -2.16,84.55 1.17,100.51l149.31 1.02 0.81 -101.52c-0.1,-11.51 1,-22.81 -1.57,-30.43 -0.13,-0.38 -0.55,-1 -0.83,-1.5l-146.79 -0.16zm-452.2 -44.67c3.74,-3.59 3.14,5.11 3.04,-6.69l0.21 -125.79 -150.04 -0.8c-2.27,24.52 -0.5,73.21 -0.54,101.78l-0.37 24.91c1.48,10.21 -0.57,2.96 3.04,6.82l144.65 -0.23zm597.72 0.19c2.79,-1.67 3.62,1.61 3.43,-13.56 -0.07,-6.06 -0.23,-12.04 -0.23,-18.12 -0.02,-29.25 1.49,-75.14 -0.42,-100.8l-150.19 -1.22 -0.09 126.83c0.09,12.24 -0.43,2.65 3.31,6.67l144.19 0.2zm-346.55 176.14c2.95,4.49 -4.26,1.8 7.02,3.7 0.59,0.1 8.01,0 9.16,-0.02 6.77,-0.09 13.55,-0.15 20.32,-0.01 12.87,0.26 25.45,0.56 38.34,0.5 16.46,-0.07 64.17,2.5 76.17,-2.79 1.98,-13.81 1.62,-121.19 -1.15,-133.24 -25.83,-2.49 -49.67,-0.26 -75.03,-0.45 -9.41,-0.07 -67.53,-4.37 -74.12,2l-0.72 130.3zm-53.71 0.44l5 -0.1 -0.91 -130.68 -148.22 -0.02 0.02 13.96 -0.23 116.91 144.34 -0.06zm-197.53 -2.02c1.94,-0.5 2.48,4.52 2.89,-12.03l-0.02 -117.04 -149.52 -0.81 -0.13 132.1 141.3 0.56c12.11,-0.38 2.84,0.32 5.47,-2.78zm251.64 -174.68l149.46 0.27 0.01 -132.74 -148.96 -0.28 -0.52 132.74zm-199.21 0.34l149.41 -0.15 0.1 -132.75 -148.72 -0.14 -0.8 133.04zm199.33 -177.7l149.38 0.43 0.02 -132.76 -149.44 -0.34 0.05 132.68zm-199.3 0.44l149.39 -0.09 0.19 -132.76 -149.36 -0.2 -0.21 133.05z"/>
  <g>
   <path class="fil1 str0" d="M1113.74 10.42c609.35,0 1103.32,493.97 1103.32,1103.32 0,609.35 -493.97,1103.32 -1103.32,1103.32 -609.35,0 -1103.32,-493.97 -1103.32,-1103.32 0,-609.35 493.97,-1103.32 1103.32,-1103.32z"/>
  </g>
 </g>
</svg>
