<?xml version="1.0" encoding="UTF-8"?>
<!DOCTYPE svg PUBLIC "-//W3C//DTD SVG 1.1//EN" "http://www.w3.org/Graphics/SVG/1.1/DTD/svg11.dtd">
<!-- Creator: CorelDRAW -->
<svg xmlns="http://www.w3.org/2000/svg" xml:space="preserve" width="2.16188in" height="2.20173in" version="1.1" style="shape-rendering:geometricPrecision; text-rendering:geometricPrecision; image-rendering:optimizeQuality; fill-rule:evenodd; clip-rule:evenodd"
viewBox="0 0 2161.88 2201.74"
 xmlns:xlink="http://www.w3.org/1999/xlink"
 xmlns:xodm="http://www.corel.com/coreldraw/odm/2003">
 <defs>
  <style type="text/css">
   <![CDATA[
    .str0 {stroke:#856443;stroke-width:20.83;stroke-miterlimit:2.61313}
    .fil1 {fill:none}
    .fil0 {fill:#856443}
   ]]>
  </style>
 </defs>
 <g id="Layer_x0020_1">
  <metadata id="CorelCorpID_0Corel-Layer"/>
  <path class="fil0" d="M1103.23 1434.41c-24.49,0.01 -100.72,0.83 -118.87,-2.19 -14.39,-2.4 -10.06,-4.17 -23.03,-5.39l-83 -4.45c-13.94,-2.09 -12.39,-3.19 -21.43,-6.41 -15.83,-5.65 -35.7,-1.85 -51.48,-6.89 -37.54,-12 -18.98,-2.96 -48.58,-9.21 -7.2,-1.52 -12.48,-5.25 -22.21,-6.6l-48.15 -9.72c-9.28,-2.54 -17.24,-1.21 -26.22,-3.27 -6.13,-1.41 -15.23,-5.09 -21.79,-6.87 -8.25,-2.24 -15.82,-1.85 -25.33,-3.94 -6.4,-1.41 -5.81,-1.77 -9.37,-3.26 -0.56,-0.24 -1.22,-0.58 -1.78,-0.81l-3.7 -1.59c-22.64,-8.54 -18.58,0.23 -53.09,-12.6 -7.78,-2.9 -15.72,-3.38 -23.43,-5.31 -37.34,-9.34 -72.51,-7.96 -101.22,-15.04 -44.22,-10.91 -117.88,-0.63 -157.08,9.33l-0.44 381.91c0,5.85 6.5,14.2 10.24,17.07 4.55,3.49 12.16,6.38 18.29,10.63 24.76,17.16 52.25,23.3 58.7,28.15 2,1.51 5.05,4.51 7.29,5.78 4.2,2.38 8.41,3.07 11.87,4.28 27.32,9.59 26.79,14.41 48.78,22.02l73.04 29.32c8.52,2.57 18.76,0.82 25.64,4.02 12.94,6.04 -1.69,5.69 20.5,8.61 13.94,1.83 11.7,2.92 21.99,6.75 8.93,3.32 15.89,2.69 24.27,5.03 11.65,3.25 4.14,4.43 19.34,7.37 7.38,1.43 18.25,1.64 24.72,3.81 11.84,3.98 3.39,5.74 20.11,8.7 8.16,1.45 17.53,1.49 25.74,3.35 25.01,5.68 -3.39,3.27 47.93,10.01 12.33,1.62 13.26,8.44 47.57,10.11 28.03,1.36 115.66,17.86 155.28,18.33 20.01,0.24 34.38,2.39 55.25,2.39 88.78,0 116.65,1.4 206.81,-9.15 42.47,-4.97 80.43,-8.03 121.4,-15.61 19.25,-3.56 68,-16.74 82.26,-17.61 13.05,-0.79 18.07,-2.55 26.7,-7.64 12.6,-7.43 11.38,-3.17 28.04,-5.77l51.83 -16.69c11.61,-5.22 16.44,-2.92 30.26,-4.79l60.1 -21.23c3.24,-1.55 8.42,-6.27 10.46,-7.39 7.87,-4.32 18.38,-3.03 27.54,-6.95l48.22 -20c10.35,-3.85 9.82,-6.46 22.5,-11.29 10.71,-4.08 11.5,-6.81 23.79,-10.31 24.89,-7.06 84.49,-35.32 102.19,-48.44 7.9,-5.85 2.57,-1.9 11.61,-6.52 6.82,-3.49 5.65,-3.89 9.73,-6.08 6.93,-3.7 6.69,-1.82 13.89,-4.68l22.94 -11.56c8.88,-4.65 12.24,-8.49 12.24,-21.38l0.01 -370.96c0,-32.16 -5.13,-20.5 -35.41,-24.51 -57.83,-7.65 -113.35,5.5 -166.48,12.87l-87.83 32.02c-25.01,5.71 -1.2,-6.04 -28.14,8.61 -8.14,4.42 -10.65,2.26 -18.8,5.26 -32.31,11.87 -52.48,23.55 -91.06,32.29 -2.17,0.49 -50.89,18.72 -67.38,21.62 -20.75,3.65 -9.93,1.25 -23.42,8.19 -3.54,1.82 -42.42,6.92 -51.54,9.27 -16.21,4.17 -34.94,3.61 -49.95,10.37 -12.42,5.59 -149.91,14.63 -168.86,14.63zm-75.89 -456.52c0.32,35.2 49.24,28.02 49.59,27.84 14.07,-6.88 28.34,-47.21 6.4,-46.26 -17.47,0.76 -44.43,12.55 -55.99,18.42zm-635.64 -28.02c15.01,8.82 44.72,5.65 62.91,5.58 -0.24,19.63 0.02,12.06 -7.12,24.07l-22.94 34.8c-14.41,36 27.29,29.54 52.52,29.51 28.18,-0.03 48.43,3.61 64.69,-6.81 1.28,-16.26 -1.97,-21.14 -9.44,-29.28l-50.57 -0.87c0.22,-8.95 2.45,-11.33 11.84,-25.8 9.62,-14.84 40.77,-61.48 2.05,-63.47 -21.74,-1.12 -46.46,0.13 -68.6,-0.02 -30.07,-0.2 -39.37,-0.51 -35.34,32.28zm-102.3 -237.21c0.52,0.63 8.97,1.48 -1.11,15.47l-9.78 14.37c-5.61,8.54 -12.17,21.31 -20.2,29.52 -30.3,30.93 -27.09,41.73 -15.39,61.43l113.13 0.56c37.67,0.01 31.01,-34.25 11.03,-40.7 -21.19,-6.85 -61.96,4.1 -69.96,-4.48 -5.37,-5.76 -1.85,-5.52 4.68,-15.18 1.32,-1.96 2.7,-4.56 3.96,-6.68l40.05 -68.9c7.28,-27.24 -14.74,-21.74 -50.27,-21.76l-78.93 -0.01c-39.19,-0 -25.85,31.65 -2.78,33.74 10.97,0.99 27.98,-0.02 39.61,-0.03 6.22,-0 12.42,-0.14 18.61,-0.17 9.69,-0.06 11.7,-1.61 17.34,2.83zm12.51 -330.71c22.5,13.06 88,8.12 118.28,7.81 1.07,18.3 0.41,10.79 -6.35,21.81l-28.42 50.99c-8.26,14.59 -28.42,34.1 -29.97,49.57 -1.26,12.52 2.63,12.44 5.68,23.43l129.09 0.55c28.03,0 34.02,0.25 31.73,-29.77 -24.58,-8.96 -86.54,-5.4 -114.75,-5.78 1.11,-17.08 14.65,-25.03 28.82,-47.91l6.9 -8.93c3.41,-4.97 2.19,-4.65 4.8,-10.68 3.8,-8.78 0.64,-2.69 6.15,-10.09l5.69 -7.55c14.97,-19.24 44.06,-65.96 -3.54,-65.95l-128.91 0.03c-24.57,0 -28.5,6.94 -25.2,32.48zm500.58 355.41c3,-6.06 2.82,-10.5 4.28,-19.28 2.44,-14.78 17.09,-40.67 24.04,-54.96 8.77,-18.02 41.27,-44.65 50.67,-54.65 10.76,-11.44 1.99,-24.09 -3.95,-34.14 -6.12,-10.34 -2.41,-9.33 -6.28,-20.72 -4.51,-13.25 -5.65,-3.26 -8.09,-17.96l-5.57 -47.39c-0.11,-17.22 7.97,-38.94 -4.78,-41.13 -11.52,-1.97 -11.46,2.91 -19,8.3 -13.73,9.83 -18.94,8.96 -37.52,36.5 -4.94,7.33 -6.54,5.78 -10.81,15.44 -2.54,5.76 -5.34,13.7 -7.29,19.19 -4.87,13.74 -5.1,28.65 -9.23,43.28 -6.87,24.37 3.81,101.88 8.17,115.96 9.59,30.97 7.17,44.71 25.35,51.56zm628.17 149.5c-12.19,1.01 -13.63,4.74 -22.48,11.43l-82.71 75.13c-7.03,6.02 -7.99,8.45 -17.13,13.99l-9.31 6.98c-11.93,12.43 -6.16,15.26 8.26,26.26 0.44,0.34 1.07,0.81 1.52,1.15l7.09 5.97c9.59,6.66 6.86,-0.05 28.6,18.89l15.67 15.19c13.6,6.09 7.41,-1.39 20.02,9.75 20.83,18.41 21.59,10.65 40.2,23.29 13.16,8.94 24.1,20.54 24.67,-12.08 0.92,-53.04 30.46,-25.89 89.53,-36.74l34.43 -5.25c12.64,-1.11 10.33,-2.24 19.55,-6.54 9.75,-4.54 10.96,-2.28 21.24,-5.36l53.37 -28.11c23.11,-13.78 25.77,-28.25 39.21,-39.39 15.6,-12.93 17.74,-14.74 24.23,-29.35 4.5,-10.13 5.22,-6.32 9.95,-16.17 3.78,-7.89 4.87,-10.13 8.72,-17.43 3.2,-6.08 4.66,-9.41 3.47,-17.98 -1.3,-9.35 -4.17,-7.95 -4.32,-7.69l-8.96 -0.87c-57.78,3.24 -27.53,-4.7 -66.75,-4.48 -15.61,0.09 -16.26,0.86 -22.82,10.85l-29.11 31.46c-24.13,17.29 -19.61,23.24 -53.99,34.59 -10.82,3.57 -3.83,1.54 -10.81,5.32 -15.41,8.35 -51.8,5.81 -69.95,5.9 -58.08,0.26 -34.5,-26.14 -51.39,-68.72zm-632.1 143.87c-0.39,17.85 10.04,16.84 22.72,36.67l97.31 121.14c16.37,17.37 12.7,11.42 25.81,21.43 25.42,19.41 30.23,14.99 42.72,20.81 37.21,17.32 53.99,18.96 97.69,18.96 15.97,0 33.48,0.68 48.76,-2.26 13.34,-2.57 9.34,-2.98 17.36,-6.35 13.74,-5.77 7.69,2.47 37.1,-13.37 5.77,-3.11 9.07,-5.93 16.18,-9.96 10.65,-6.04 19.92,-15.33 29.75,-22.77l38.46 -40.35c10.23,-12.6 12.8,-20.05 31.37,-42.38 22.13,-26.61 25.04,-33.86 5.41,-48.57 -3.82,-2.86 -12.81,-7.33 -17.1,-9.79 -11.39,-6.53 -18.39,-16.84 -31,-21.98l-43.6 44.11c-0.39,0.38 -0.95,0.93 -1.33,1.31l-2.58 2.64c-4.98,4.73 -0.04,0.6 -5.56,4.72l-3.1 2.14c-12.5,8.81 -28.56,18.02 -43.37,22.46 -8.61,2.58 -18.35,7 -27.15,9.99 -11.52,3.92 -11.77,5.54 -26.75,7.65l-75.43 0.41c-10.14,-1.17 -17.64,-5.3 -28.41,-8.5 -15.92,-4.75 -9.5,-6.94 -24.17,-12.15 -22.01,-7.81 -47.57,-29.89 -65.43,-45.41 -14.47,-12.58 -25.48,-24.54 -34.87,-41.32 -13.83,-0.3 -31.41,-0.65 -41.92,2.5 -23.07,6.91 -31.2,4.92 -38.85,8.2zm97.38 -545.16c0.03,26.96 -3.25,28.51 6.93,42.35 8.28,11.24 -0.97,20.6 8.59,36.14l11.72 19.7c7.63,12.51 14.7,22.91 25.32,32.86 26.76,25.06 23.4,16.12 37.29,21.26 7.28,2.7 4.57,4.84 17.48,6.83 33.22,5.13 14.82,12.26 76.2,12.84 28.98,0.28 58,-0.07 86.98,0.14 22.84,0.17 21.58,3.34 37.14,6.95 11.51,2.67 41.7,10.69 49.58,15.9l6.85 6.05c14.23,11.32 11.88,7.48 21.74,22.94 0.31,0.5 0.74,1.14 1.07,1.63 14.56,21.93 13.96,16.66 30.04,43.66 5.42,9.09 3.1,6.85 16.21,6.71l15.62 -75.91c6.02,-42.28 10.67,-78.89 5.29,-121.32 -1.87,-14.76 -4.05,-11.72 -5.19,-25.96 -4.19,-52.21 -0.43,-14.13 -13.33,-52.34 -5.44,-16.1 -14.01,-27.27 -23.03,-39.75 -13.7,-18.95 -28.59,-44.59 -49.01,-55.91l-83.28 -37.89c-9.89,-4.12 -18.65,-1.73 -28.98,-5.36 -30.21,-10.61 -32.6,-7.54 -67.64,-7.53 -14.55,0.01 -77.64,8.2 -92.73,16.46 -5.25,2.87 0.99,0.5 -7.5,3.3 -12.46,4.1 -3.88,-0.96 -14.64,6.13 -11.71,7.71 -36.16,15.23 -45.09,36.98l-9.42 22.04c-3.93,7.26 -0.72,1.62 -3.11,7.9 -8.5,22.36 -11.17,1.44 -11.13,53.16zm249.38 204.41l-123.89 -2.51c-20.54,-1.74 -8.37,-3.94 -22.11,-7.59 -18.15,-4.82 -5.52,3.48 -31.39,-8.84 -18.26,-8.7 -25.14,-15.35 -44.1,-29.7 -5.7,-4.31 -8.75,-8.59 -19.25,-5.28 -10.47,3.3 -13.17,10.35 -22.57,20.3 -48.33,51.22 -54.22,81.17 -43.37,162.3 1.24,9.28 2.42,15.45 3.65,24.83l9.44 46.54c3.18,15.65 5.05,6.96 10.17,17.91l9.07 19.71c4.8,11.47 -0.11,10.85 7.18,22.37l25.94 42.22c5.31,10.83 -2.49,1.91 10.65,18.65 3.34,4.25 3.09,4.52 6.88,8.85 21.04,24.02 21.87,22.8 43.71,40.43 4.45,3.59 13.61,9.28 17.77,11.14 34.56,15.43 56.82,22.98 91.23,22.82 14.39,-0.07 38.99,-2.86 50.21,-6.34 12.75,-3.95 69.2,-36.75 72.74,-39.91 5.41,-4.84 8.1,-10.05 15.2,-14.33 4.47,-2.7 6.44,-2.68 8.76,-4.29 4.42,-3.06 1.3,-0.85 3.62,-3.52 0.33,-0.38 0.77,-1.06 1.09,-1.46 0.33,-0.42 0.77,-1.1 1.1,-1.53 14.07,-18.33 2.65,-13.11 21.58,-36.56 8.39,-10.39 5.04,-6.36 10.45,-18l13.5 -26.09c9.41,-17.44 3.64,-10.04 7.52,-21.56 1.2,-3.57 16.65,-29.99 19.39,-53.56 2.35,-20.23 4.56,-56.38 -3.98,-74.09 -0.35,-0.72 -1.49,-2.81 -1.83,-3.59 -1.78,-4.14 -1.07,-3.33 -2.12,-6.12 -2.76,-7.35 -0.8,-3.91 -5.68,-9.23 -9.93,-10.83 -3.02,-5.16 -9.48,-17.12l-28.33 -34.66c-17.96,-16.98 -6.41,-5.12 -22.52,-14.06 -4.29,-2.38 -4.15,-3.35 -7.68,-5.2 -7.87,-4.12 -15.31,-2.45 -23.83,-4.94 -22.01,-6.46 4.84,-7.85 -48.73,-7.96zm-162.79 277.17c-1.5,20.91 -1.99,16.43 7.02,29.35 4.91,7.04 1.22,4.83 7.61,10.84l15.17 11.35c2.21,1.71 4.33,3.73 5.57,4.69 5.9,4.52 30.2,15.41 40.42,16.04 16.35,1 21.88,0.22 32.52,-5.45 14.07,-7.5 13.86,-2.07 22.22,-15.26 12.11,-19.12 11.99,-24.11 13.5,-59.96 14.66,-4.99 7.79,-5.65 24.3,-3.6 13.3,1.67 23.37,-0.42 19.46,-16.8 -5.55,-23.22 -83.57,-18.24 -98,-15.27 -32.2,6.62 -32.09,11.6 -54.87,21.08 -6.52,2.72 -3.13,1.59 -8.4,4.94l-26.52 18.05zm143.15 -159.67c12.5,6.49 3.91,4.65 20.57,14.5 10.67,6.3 5.79,8.26 22.1,11.92 17.71,3.96 53.98,8.14 56.7,-11.67 4.09,-29.83 -27.97,-16.26 -49.82,-20.5 -24.88,-4.83 -9.62,-25.94 -49.32,-22.5l-0.23 28.24zm-209.15 20.31c19.17,15.14 41.51,13.46 67.03,4.02 56.42,-20.86 35.86,-72.82 10.52,-52.92 -9.12,7.16 -7.92,14.03 -22.62,19.44 -18.35,6.75 -37.82,-4.36 -51.33,11.66 -6.26,7.43 -3.99,6.1 -3.6,17.8zm557.62 -242.25c0.13,52.56 1.04,46.55 13.26,90.15 5.44,19.38 47.65,77.37 62.2,89.53l22.72 16.87c11.99,10.72 42.72,26.9 57.86,34.04 10.38,4.9 9.16,4.68 22.58,3.18l20.51 -65.48c1.82,-17.44 7.56,-25 12.81,-50.13 3.91,-18.75 -0.11,-3.64 8.52,-16.15 22.71,-1.68 30.39,0.68 18.5,47.27 -1.74,6.83 -4.88,10.53 -6.37,17.21 -1.66,7.46 -0.75,15.56 -1.91,22.73 -1.15,7.07 -15.59,31.72 -16.63,54.52 19.34,10.53 76.74,7.17 100.51,-3.1l46.08 -19.33c9.46,-6.27 39.07,-18.07 54.1,-32.82l36 -45.54c1.87,-2.09 7.11,-8.1 8.46,-9.93l22.43 -46.2c3.55,-9.65 2.61,-18.91 6.32,-28.24 10.75,-27.06 8.96,-77.94 4.89,-109.16l-15.09 -51.11c-13,-26.81 -27.6,-53.81 -51.12,-72.55 -18.73,-14.92 -4.54,-8.57 -17.81,-16.51 -8.54,-5.11 -4.71,-0.81 -13.17,-7.57l-5.79 -4.74c-1.52,-1.19 -7,-5.17 -7.82,-5.63l-3.81 -1.82c-22.7,-9.76 -10.62,-14.04 -30.89,-10.7 -8.72,12.62 -5.09,22.86 -9.41,38.52l-16.67 54.22c-8.08,41.22 -33.82,16.94 -35.94,12.7 -2,-26.17 5.45,-43.62 11.32,-64.4 4.98,-17.63 16.68,-39.88 9.21,-61.88 -6.73,-8.4 -94.68,-7.44 -118.15,0.45 -8.26,2.78 -15.09,3.69 -22.92,6.36 -10.63,3.64 -7.83,6.06 -20.91,10.2l-39.82 21.22c-27.93,15.92 -53.68,55.54 -74.32,78.33 -11.04,12.2 -4.03,4.63 -8.78,22.18 -2.52,9.31 -6.21,10.22 -9,20.02 -2.84,9.96 -4.35,15.85 -7.08,24.76 -4.5,14.7 -4.89,40.83 -4.84,58.51zm344.69 47.31c-20.09,0.81 -22.68,-2.71 -37.48,-7.07l-24.25 -10.02c-39.98,-16.51 -101.68,-55.69 -146.77,8.84 -9.79,14.02 -10.63,14.64 -10.67,21.6 -0.1,17.52 -1.01,2.42 2.57,8.22 6.84,11.08 8.24,8.64 13.78,8.34 7.4,-0.41 7.81,-3.17 12,-7.61l6.2 -7c0.36,-0.48 0.83,-1.09 1.17,-1.59l2.06 -3.45c4.69,-7.74 13.21,-15.4 22.53,-18.41 6.85,-2.21 29.44,-2.3 36.53,-0.12 4.81,1.48 6.19,4.24 12.54,7.73l71.06 31.62c11.55,4.4 22.05,4.24 36.17,3.96 19.4,-0.37 20.71,-1.38 31.74,-11.06 49.07,-43.07 7.61,-69.52 -9.2,-46.11 -6.3,8.77 -11.38,16.45 -19.97,22.13zm-15.79 -64.11c30.87,-0.03 35.24,-8.2 48.79,-29.42 6.19,-9.7 6.3,-5.41 4.8,-22.18 -23.71,-18.27 -27.26,4.88 -39.2,14.08 -6,4.63 -8.39,5.68 -16.98,6.08 -21.04,0.98 -20.11,-1.07 -32.96,-8.35l-34.07 -13.61c-0.55,-0.25 -1.25,-0.56 -1.79,-0.82l-9.67 -5.85c-32.65,-22.74 -91.96,-23.66 -115.2,9.83 -1.81,2.62 -2.45,3.99 -4.13,6.19 -5.54,7.3 -18.6,27.23 -5.32,37.83 3.23,2.58 0.57,3.16 8.41,3.35 16.53,0.39 2.59,0.09 17.5,-18.11l3.68 -4.48c5.41,-7.24 -2.42,-4.09 21.8,-14.49 21.35,-9.17 36.93,2.09 51.76,7.1 11.13,3.76 6.26,3.61 14.29,6.97 12.56,5.26 12.83,-0.09 24.91,8.76 3.3,2.42 0.56,1.83 6.56,4.41l33.6 11.63c7.74,1.26 15.37,1.09 23.23,1.09zm-1310.92 733.09c22.42,2.54 31.91,9.6 69.04,13.32 20.14,2.02 16.28,7.96 31.64,9.87 6.6,0.82 13.52,0.06 19.93,1.62 4.3,1.05 7.43,3.57 15.05,5.76 12.03,3.44 22.54,4.16 34.27,7.54 13.07,3.77 17.66,6.81 33.61,8.37 22.53,2.2 16.63,5.09 33.59,8.53 11,2.22 23.99,3.07 36.05,6.03 6.28,1.54 10.15,3.93 15.56,5.19 6.84,1.59 12.43,1.09 19.46,1.89 12.23,1.4 19.47,5.4 34.11,7.67l74.93 9.37c75.6,15.18 257.96,12.04 335.26,-2.06 9.98,-1.82 21.74,-3.57 33.89,-5.28 28.94,-4.08 91.49,-19.8 98.38,-20.53 18.91,-2.02 19.85,-6.26 44.93,-12.63 15.07,-3.83 2.96,-1.51 13.6,-7.39 10.33,-5.7 16.88,0.24 31.61,-8.06 11.79,-6.65 17.69,-4.58 30.93,-8.41l30.86 -9.13c20.48,-5.73 35.8,-15.91 57.98,-20.93 11.77,-2.67 28.36,-7.17 30.13,-20.66 1.24,-9.39 -2.33,-17.87 -6.15,-25.42 -6.96,-13.74 -0.78,-18.5 -9.49,-32.83 -10.84,-17.85 -5.92,-27.26 -36.06,-64.02 -17.92,-21.85 -21.04,-30.32 -50.51,-52.19 -15.17,-11.26 -31.83,-21.12 -35.42,3.93 -2.27,15.82 -0.28,52.02 -10.39,59.44 -15.02,6.08 -20.53,2.8 -30.83,-5.13l-49.49 -34.43c-4.62,-4.57 0.48,-0.6 -5.56,-5.17 -26.87,-20.31 -30.78,-5.7 -50.38,17.28 -10.27,12.04 -16.67,18.39 -26.1,31.7l-19.36 22.87c-0.37,0.41 -0.92,0.97 -1.29,1.38 -0.37,0.41 -0.93,0.94 -1.3,1.35 -3.36,3.72 -0.69,0.36 -3.65,4.11 -2.51,3.19 -2.49,4.15 -5.44,7.6 -4.57,5.33 -3.55,3.37 -8.13,7.72 -4.01,3.81 -9.99,10.04 -15.47,13.8l-7.69 5.27c-0.41,0.34 -0.93,0.9 -1.35,1.24l-59.84 37.53 -32.82 9.59c-5.39,2.2 -6.96,2.42 -12.32,3.54 -29.44,6.13 -95.16,5.96 -122.57,-1.96 -13.89,-4.01 -8.5,-5.42 -25.34,-8.69 -2.8,-0.54 -55.28,-21.34 -60.74,-26.68 -1.83,-1.8 -1.35,-1.72 -3.68,-4.12 -17.29,-17.85 -33.96,-27.08 -49.99,-47.48l-30.74 -37.68c-8.89,-11.5 -17.59,-18.5 -23.23,-32.75 -5.67,-14.32 -11.81,-17.32 -21.09,-28.3 -0.37,-0.44 -0.86,-1.05 -1.22,-1.5 -0.36,-0.45 -0.81,-1.1 -1.16,-1.56 -0.35,-0.45 -0.76,-1.12 -1.1,-1.57l-22.06 -24.94c-10.39,-9.24 -8.53,-9.5 -16.41,-19.91 -20.93,-2.69 -34.99,2.88 -54.42,8.44l-46.96 18.95c-17.94,6.94 -59.08,30.82 -75.06,43.25 -7.1,5.53 -10.52,12.87 -17,19.44l-44.36 62.9c-4.69,16.55 -15.19,34.16 -18.96,47.26 -2.67,9.26 -2.09,21.42 -4,28.33 -3.95,14.24 -6.37,10.47 -5.68,29.34zm138.56 -1004.49c-4.31,11.24 -7.97,22.35 -9.38,35.98 -1.96,19.02 0.67,25.34 -4.68,42.38 -7.94,25.31 -7.63,132.14 -12.84,174.17 -5.25,42.37 -2.24,150.76 -1.31,198.89 0.26,13.76 3.34,23.29 4.49,34.67 1.21,12.04 2.22,25.96 2.76,36.36 1.36,26.33 -0.1,48.03 3.66,73.22 1.56,10.46 5.62,20.55 6.9,32.29 0.67,6.2 1.18,12.54 1.69,16.58 0.72,5.76 1.02,14.1 5.05,18.48 14.93,16.25 82.5,26.26 105.31,27.15 5.23,0.2 9.9,0.19 14.84,1.42 9.49,2.35 7.6,3.81 12.66,5.19 18.5,5.05 45.54,1.85 62.81,-2.62 17.84,-4.62 31.43,0.1 29.25,-15.33 -1.04,-7.36 -20.65,-41.26 -21.59,-43.87 -3.04,-8.43 -1.37,-11.86 -6.09,-20.46 -5.61,-10.19 -8.1,-29.5 -12.51,-40.04 -6.33,-15.1 -5.01,-25.96 -13.71,-41.68 -5.95,-10.74 -7,-6.7 -11.19,-14.49 -1.1,-2.04 -2.39,-6.76 -3.61,-9.54l-10.47 -29.16c-7.47,-35.97 -30.17,-66.54 -32.49,-104.54 -0.76,-12.39 0.08,-13.32 -3.32,-23.24 -2.65,-7.71 -4.13,-11.86 -4.7,-21.47 -0.98,-16.6 -0.79,-38.71 -0.05,-55.4 0.47,-10.71 5.71,-55.51 12.71,-66.43 8.02,-12.52 9.4,-23.44 23.49,-32.28 7.38,-4.63 12.1,-13.55 18.64,-20.09l2.69 -2.65c9.69,-9.51 -1.37,1.73 3.94,-3.8 10.26,-10.65 7.55,-10.81 18.79,-15.99l16.78 -4.7c9.58,-4.32 2.91,-6.36 16.47,-9.64 12.59,-3.04 21.34,0.53 31.32,-7.72 6.72,-5.56 -0.65,-1.84 8.13,-4.98 0.92,-18.75 4.5,-18.79 15.01,-29.47 0.27,-0.27 3.84,-3.74 3.99,-3.88 0.55,-0.54 3.44,-3.47 4.04,-3.98l33.28 -24.27c12.18,-9.93 26.01,-10.86 40.26,-15.99l24.23 -9.49c52.36,-10.28 103.05,-10.37 154.95,-0.06 28.91,5.74 34.96,4.85 61.1,18.11 3.09,1.57 -1.18,-0.03 5.4,2.39 13.55,4.99 16.07,9.23 24.04,12.56 24,10.04 24.11,14.49 44.04,27.33 10.35,6.67 18.23,17.39 26.61,26.29 6.31,6.71 10.86,11.97 16.17,20.65 2.72,4.45 3.24,6.34 5.57,10.4 16.62,29.01 28.83,56.5 34.38,91.87 5.82,37.16 13.69,106.5 2.79,144.78 -2.62,9.21 -1.01,-1.08 -2.95,9.61 -4.49,24.69 1.81,8.16 -9.98,58.85l-14.62 53.52c-2.77,9.67 -4.24,8.56 -7.23,16.25 -2.41,6.19 -2.12,12.79 -4.48,19.46 -4.77,13.47 -5.14,2.8 -7.98,15.13 -3.58,15.54 -2.07,21.9 -6.99,38.21 -3.87,12.81 -7.5,25.13 -7.43,39.63 17.45,-0.26 14.59,-7.61 37.47,-25.11l34.7 -31.02c13.94,-10.89 32.21,-32.87 47.3,-39.94 37.37,-17.5 28.76,63.21 36.75,92.52 39.15,6.11 32.58,-32.89 35.08,-75.01l3.46 -55.15c-1.09,-21.63 -21.03,-36.76 -33.09,-51.58 -7.3,-8.98 -4.41,-7.74 -10.04,-18.68 -32.98,-64.05 -36.72,-105.44 -29.92,-179.45 0.74,-8.14 0.56,-19.51 3.71,-27.67 0.2,-0.52 0.57,-1.16 0.81,-1.63l8.98 -22.53c2.25,-7.44 4.74,-7.3 7.07,-17.16l7.82 -23.07c0.35,-0.51 0.85,-1.09 1.19,-1.63 7.01,-11.19 9.45,-24.43 19.67,-31.88l13.92 -19.39c2.43,-10.46 -2.06,-22.49 -3.93,-30.39 -5.15,-21.76 -2.91,-42.5 -6.6,-63.05l-37.38 -12.55c-16.56,-6.92 -114.95,-14.89 -138.47,-19.86 -38.15,-8.06 -203.67,-12.18 -261.93,-12.15l-238.31 9.62c-32.03,5.66 -75.91,6.94 -96.51,11.34l-46.76 8.41c-15.22,1.8 -7.91,2.1 -19.23,7.05 -6.83,2.99 -16.02,3.49 -24.36,5.38z"/>
  <g>
   <path class="fil1 str0" d="M332.1 10.42l1497.68 0c176.93,0 321.68,144.76 321.68,321.68l0 1537.54c0,176.93 -144.76,321.68 -321.68,321.68l-1497.68 0c-176.93,0 -321.68,-144.76 -321.68,-321.68l0 -1537.54c0,-176.93 144.76,-321.68 321.68,-321.68z"/>
  </g>
 </g>
</svg>
