<?xml version="1.0" encoding="UTF-8"?>
<!DOCTYPE svg PUBLIC "-//W3C//DTD SVG 1.1//EN" "http://www.w3.org/Graphics/SVG/1.1/DTD/svg11.dtd">
<!-- Creator: CorelDRAW -->
<svg xmlns="http://www.w3.org/2000/svg" xml:space="preserve" width="2.16188in" height="2.20173in" version="1.1" style="shape-rendering:geometricPrecision; text-rendering:geometricPrecision; image-rendering:optimizeQuality; fill-rule:evenodd; clip-rule:evenodd"
viewBox="0 0 2161.88 2201.74"
 xmlns:xlink="http://www.w3.org/1999/xlink"
 xmlns:xodm="http://www.corel.com/coreldraw/odm/2003">
 <defs>
  <style type="text/css">
   <![CDATA[
    .str0 {stroke:#856443;stroke-width:20.83;stroke-miterlimit:2.61313}
    .fil1 {fill:none}
    .fil0 {fill:#856443}
   ]]>
  </style>
 </defs>
 <g id="Layer_x0020_1">
  <metadata id="CorelCorpID_0Corel-Layer"/>
  <g id="_1338842157072">
   <path class="fil0" d="M580.21 1638.06c7.61,-31.82 48.65,-145.18 62.52,-188.28 50.26,-156.13 189.14,-269.36 350.61,-275.2 12.06,-0.43 42.9,-4.24 41.85,22.38 -0.87,22.18 -20.72,21.37 -41.83,22.19 -145.01,5.59 -253.23,107.48 -295.96,208.82 -19.75,46.84 -58.16,172.83 -79.26,232.83 -3.19,9.08 -6.81,13.93 -2.2,20.99 2.33,3.57 4.11,4.17 7.57,7.78l23 25.55c6.56,8.38 7.77,9.48 15.66,17.69 6.96,7.24 24.42,26.6 29.02,35.03 6.83,-7.17 11.8,-27.06 15.86,-38.91 54.82,-159.76 75.75,-291.1 226.37,-382.12 43.56,-26.32 105.87,-50.33 167.39,-54.37 15.7,-1.03 37.58,-4.43 47.37,5.6 12.27,12.58 4.87,31.4 -7.86,35.6 -10.13,3.34 -55.17,2.11 -96.47,13.39 -28.88,7.88 -52.82,18.53 -78.37,31.78 -13.16,6.83 -23.13,14.11 -34.34,21.96 -6.71,4.69 -9.46,7.13 -15.65,12.47 -41.9,36.26 -80.49,77.52 -104.79,145.93l-55.72 167.24c11.27,-7.13 79.19,-71.41 127.79,-102.95 36.02,-23.38 105.83,-69.12 159.87,-70.74 -2.83,-46.65 7.09,-68.13 32.82,-89.45 33.22,-27.51 56.35,-10.5 99.39,-7.83 43.15,2.68 73.98,-8.05 65.89,-55.55 -7.5,-44 -36.2,-52.78 21.65,-71.89 -5.59,-24.59 -48.51,-41.87 -2.62,-63.94 46.43,-22.32 30.44,-27.27 5.79,-52.77 -23.13,-23.94 -16.34,-53.07 6.61,-72.93 22.61,-19.57 52.15,-13.96 63.55,-46.53 18.83,-53.82 -54.85,-84.51 -72.78,-136.1 -11.04,-31.78 3.92,-91.48 -23.86,-188.31 -33.23,-115.82 -102.22,-203.59 -176.32,-256.01 -88.4,-62.53 -212.04,-100.65 -341.32,-61.95 -54.77,16.39 -106.42,42.77 -142.12,72.74 -132.66,111.32 -207.32,271.49 -153.87,460.21 26.47,93.46 81.81,141.52 98.13,170.5 44.81,79.61 15.12,295.62 1.47,383.77 -2.87,18.53 -9.26,31.29 0.5,43.79 4.27,5.47 7.52,7.99 12.62,13l36.3 40.94c4.24,3.32 -0.32,0.47 5.74,3.65z"/>
   <path class="fil0" d="M1538.46 950.97c-18.3,9.99 -18.44,27.26 2.83,40.93 40.35,25.9 80.08,61.34 106.85,102.8 108.58,168.14 72.8,373.74 -76.65,491.27 -7.54,5.93 -35.13,22.19 -40.6,28.57 -14.71,17.12 1.79,40.67 23.91,34.35 28.51,-8.15 88.19,-67.91 111.25,-96.24 108.19,-132.92 117.66,-331.04 21.31,-476.69 -29.63,-44.8 -60.72,-75.54 -101.32,-105.91 -9.84,-7.36 -32.57,-27.27 -47.59,-19.07z"/>
   <path class="fil0" d="M1477.4 1053.38c-11.89,5.82 -19.93,19.11 -10.02,32.77 4.92,6.78 128.46,67.07 123.55,223.57 -2.46,78.54 -46.54,149.72 -105.71,189.95 -8.7,5.91 -22.41,11.9 -21.86,27.22 0.5,14.09 14.17,23.5 29.45,18.92 12.22,-3.67 48.67,-34.33 55.93,-41.43 54.87,-53.57 87.59,-130.27 85.16,-215.24 -4.22,-147.81 -130.08,-248.7 -156.5,-235.75z"/>
   <path class="fil0" d="M1411.32 1159.11c-32.59,23.17 13.81,41.48 33.2,65 16.35,19.85 29.85,54.94 25.5,89.65 -4.8,38.27 -28.36,71.19 -54.56,87.99 -41.47,26.59 11,88.18 77.06,-20.02 67.56,-110.67 -42.64,-250.04 -81.2,-222.62z"/>
  </g>
  <g>
   <path class="fil1 str0" d="M332.1 10.42l1497.68 0c176.93,0 321.68,144.76 321.68,321.68l0 1537.54c0,176.93 -144.76,321.68 -321.68,321.68l-1497.68 0c-176.93,0 -321.68,-144.76 -321.68,-321.68l0 -1537.54c0,-176.93 144.76,-321.68 321.68,-321.68z"/>
  </g>
 </g>
</svg>
