<?xml version="1.0" encoding="UTF-8"?>
<!DOCTYPE svg PUBLIC "-//W3C//DTD SVG 1.1//EN" "http://www.w3.org/Graphics/SVG/1.1/DTD/svg11.dtd">
<!-- Creator: CorelDRAW -->
<svg xmlns="http://www.w3.org/2000/svg" xml:space="preserve" width="2.16188in" height="2.20173in" version="1.1" style="shape-rendering:geometricPrecision; text-rendering:geometricPrecision; image-rendering:optimizeQuality; fill-rule:evenodd; clip-rule:evenodd"
viewBox="0 0 2161.88 2201.74"
 xmlns:xlink="http://www.w3.org/1999/xlink"
 xmlns:xodm="http://www.corel.com/coreldraw/odm/2003">
 <defs>
  <style type="text/css">
   <![CDATA[
    .str0 {stroke:#856443;stroke-width:20.83;stroke-miterlimit:2.61313}
    .fil1 {fill:none}
    .fil0 {fill:#856443}
   ]]>
  </style>
 </defs>
 <g id="Layer_x0020_1">
  <metadata id="CorelCorpID_0Corel-Layer"/>
  <g id="_1338809229392">
   <path class="fil0" d="M1384.74 959.87l-48.22 61.92c-26,31.04 -48.47,25.14 -76.09,55.44 -36.72,40.28 -18.11,64.65 -33.13,103.44 -8.37,21.65 -36.14,31.66 -56.07,73.26 -39.19,81.78 -5.26,64.61 -108.48,156.64 -47.05,41.96 -63.06,101.67 -107.71,165.71 -34.76,49.85 -42,6.14 -73.65,63.04 5.35,34.84 19.73,44.28 27.8,91.96 7.72,45.67 15.08,59.07 63.16,59.31 -0.68,-49.69 -7.83,-36.02 3.01,-93.98 19.17,-102.47 81.39,-132.67 146.39,-211.87 23.12,-28.17 28.86,-35.05 56.39,-57.11 105.51,-84.57 114.13,-121.46 173.91,-182.6 28.53,1.61 43.91,14.66 72.63,25.92 37.28,14.62 50.28,12.24 72.33,26.86l-97.74 77.35c-52.7,40.46 -63.5,33.39 -117.65,56.11 -10.15,64.62 24.48,47.55 51.07,90.74 19.65,31.91 43.67,79.29 90.72,59.64 2.78,-37.96 -12.97,-22.97 -23.35,-51.57 -51.51,-141.87 99.54,-65.19 261.95,-215.74 -4.33,-58.17 -35.65,-66.48 -58.78,-92.99 -81.57,-93.46 -92.59,-58.47 -149.71,-105.68 29.2,-42.03 102.02,-80.19 158.64,-119.29 19.49,-13.46 33.71,-30.67 51.73,-45.57 36.58,27.93 80.54,88.97 129.22,95.44 51.4,-43.54 39.01,-89.67 60,-157.3 9.15,-29.49 30.15,-42.53 35.62,-79.41 0.32,-2.15 1.2,-19.31 1.12,-20.13 -1.82,-19.64 1.76,-17.62 -26.83,-33.14l-15.12 -8.64c-6.46,37.49 -25.76,46.85 -29.96,102.87 -3.57,47.61 -18.47,79.39 -40.91,108.45 -1.32,-1.46 -3,-5.96 -3.55,-4.73l-6.93 -9.42c-29,-38.25 -71.15,-43.73 -23.92,-90.98 36.84,-36.86 5.95,-10.8 34.92,-64.51 20.16,-37.37 12.03,0.45 15.15,-37.9 -45.76,-105.57 -151.62,-93.56 -181.03,23.03 -9.13,-4.79 -16.04,-6.63 -28.03,-11.55 -46.09,-18.94 -106.03,-104 -193.23,-56.85 -108.42,58.62 -144.59,137.29 -197.72,113.64 -12.39,15.46 -1.65,-7.31 -6.74,13.35l-0.85 12.52c-37.15,-1.2 -38.3,-4.64 -60.04,11.9l84.61 22.06c42.18,2.65 93.54,-85.98 233.45,-108.68 23.34,20.19 29.04,21.07 53.28,41.3 -10.37,45.09 -29.88,48.18 -55.52,73.61 -23.11,22.91 -36.02,47.07 -56.12,74.14z"/>
   <path class="fil0" d="M1336.52 1021.79l48.22 -61.92 -217.52 0.48c-19.35,36.51 -18.69,78.83 -35.26,107.53 -27.23,-50.18 -30.16,-201.21 -77.12,-227.05 -51.97,-16.39 -56.61,80.91 -67.75,122.46 -35.25,-70.03 -33.55,-258.93 -75.54,-309.18 -59.06,-4.48 -51.26,33.97 -62.22,88.89 -8.62,43.19 -17.01,88.64 -25.55,132.37 -11.81,60.43 -32.29,215.5 -55.2,256.63 -7.56,-38.17 -56.97,-301.74 -81.82,-316.29 -62.39,-36.52 -58.11,87.09 -93.61,141.95 -40.7,3.14 -178,8.93 -208.08,-4.75 -23.67,-10.76 -38.28,-38.3 -83.07,-15.49 -55.35,28.18 -29.06,123.76 38.34,114.49 45.66,-6.28 25.65,-30.15 70.41,-36.39 60.46,-8.42 149.71,5.31 216.77,-2.37 20.24,-22.11 25.69,-42.75 38.57,-76.3l70.74 315.65c13.02,48.65 53.87,53.23 69.06,8.07l93.13 -436.99c2.26,13.85 51.01,406.79 115.89,266.24 16.53,-35.82 10.28,-76.43 33.71,-112.47 10.35,54.76 40.76,196.97 67.11,228.67 66.17,5.04 55.15,-59.46 90.76,-189.7l113.8 0.21c14.25,2.5 12.98,3.29 16.23,5.25z"/>
  </g>
  <g>
   <path class="fil1 str0" d="M332.1 10.42l1497.68 0c176.93,0 321.68,144.76 321.68,321.68l0 1537.54c0,176.93 -144.76,321.68 -321.68,321.68l-1497.68 0c-176.93,0 -321.68,-144.76 -321.68,-321.68l0 -1537.54c0,-176.93 144.76,-321.68 321.68,-321.68z"/>
  </g>
 </g>
</svg>
