<?xml version="1.0" encoding="UTF-8"?>
<!DOCTYPE svg PUBLIC "-//W3C//DTD SVG 1.1//EN" "http://www.w3.org/Graphics/SVG/1.1/DTD/svg11.dtd">
<!-- Creator: CorelDRAW -->
<svg xmlns="http://www.w3.org/2000/svg" xml:space="preserve" width="2.16188in" height="2.20173in" version="1.1" style="shape-rendering:geometricPrecision; text-rendering:geometricPrecision; image-rendering:optimizeQuality; fill-rule:evenodd; clip-rule:evenodd"
viewBox="0 0 2161.88 2201.74"
 xmlns:xlink="http://www.w3.org/1999/xlink"
 xmlns:xodm="http://www.corel.com/coreldraw/odm/2003">
 <defs>
  <style type="text/css">
   <![CDATA[
    .str0 {stroke:#856443;stroke-width:20.83;stroke-miterlimit:2.61313}
    .fil1 {fill:none}
    .fil0 {fill:#856443}
   ]]>
  </style>
 </defs>
 <g id="Layer_x0020_1">
  <metadata id="CorelCorpID_0Corel-Layer"/>
  <g id="_1338813806176">
   <path class="fil0" d="M1363.58 1278.84c78.65,37.74 250.08,26.54 334.38,-4.41 67.69,-24.85 61.38,-98.01 4.41,-98.01 -39.83,0 -41.85,12.69 -78.79,15.76 27.13,-18.85 75.32,-32.54 110.3,-15.76 0,-200.25 -260,-163.88 -260,-23.63l0 47.27 94.54 7.88c-189.13,0 -165.45,-45.67 -260,-23.64 -5.4,23.18 -7.88,24.05 -7.88,55.15l-7.88 0c0,-115.05 81.2,-56.33 133.94,-55.15 -22.62,-42.75 -35.67,-60.77 -84.04,-81.41 -34,-14.51 -98.9,-28.89 -144.45,-28.89l0 -7.88c41.95,0 44.07,7.1 78.79,7.88 0,-115.04 -31.51,-25.32 -31.51,-118.19 -38,3.17 -22.81,8.35 -38.08,32.83 -20.25,32.47 -24.95,9.99 -24.95,77.48l-94.55 0c9.63,-7.29 -8.85,-5.11 23.63,-7.88l0 -260c155.43,82.24 212.73,-122.01 212.73,-173.34 0,-58.56 -31.52,20.28 -31.52,-126.06 0,-32.55 106.53,-68.72 9.94,-167.52 -17.61,-18.02 -33.13,-28.74 -65.09,-29.45 68.94,130.29 0,92.47 0,149.7 0,22.19 3.41,14.59 15.76,23.64 3.27,-6.94 -3.66,-21.08 7.91,-46.57 13.64,-30.05 43.07,-44.56 7.85,-95.25 8.75,-12.25 1.1,-17.67 32.87,22.28 30.39,38.21 29.49,82.89 5.07,102.15 -23.33,18.4 1.05,4.17 -37.95,-6.24l0 126.06c-55.58,14.84 -29.74,49.13 -78.79,141.82 -79.83,-6.64 -68.08,-86.67 -126.06,-86.67 -38.51,0 -3.35,39.39 -141.82,39.39l0 -7.88c54.7,0 83.61,-2.35 115.43,-26.39 91.85,-69.43 52.45,-233.61 -83.91,-233.61 -61.6,0 -126.06,52.27 -126.06,110.3 0,113.49 31.8,102 86.67,149.7 -67.56,-15.74 -45.15,-76.28 -178.01,26.84 -136.37,105.84 -42.95,217.41 91.34,217.41l-31.52 7.88 0 228.49 118.19 0c13.86,-59.51 83.28,-78.79 157.58,-78.79l0 7.88c-88.74,0 -126.64,20.31 -157.58,78.79l-433.78 -0.44c-86.96,3.74 -99.48,92.3 -51.59,131.26 11.83,9.63 33.19,18.89 52.03,18.89 97.83,0 851.83,12.7 880.01,-7.72 0,-0 12.66,-2.59 2.42,-15.91zm47.28 -149.7c39.93,-75.46 8.93,-41.35 17.37,-93.76 0.07,-0.44 8.97,-10.26 -1.61,-32.31 -57.04,15.23 17.61,3.59 -60.58,33.96 -18.02,7 -30.97,11.98 -41.84,52.7 38.95,9.08 55.55,31.09 86.67,39.4zm-110.31 126.06c12.45,-15.07 4.57,-9.31 15.58,0.18l22.45 16.94c1.17,0.83 3.68,2.59 4.63,3.26 0.95,0.67 3.2,2.02 4.62,3.26 -24.09,-5.61 -30.28,-12.26 -47.28,-23.64zm275.76 -63.03l39.39 0 0 7.88 -39.39 0 0 -7.88zm-638.19 -267.88c40.61,21.49 53.82,34.41 55.15,94.55 -51.63,24.77 -94.55,32.2 -94.55,-47.27 0,-27.38 13.97,-11.07 23.64,-47.28l7.88 -7.88c18.72,-27.95 23.64,-12.4 23.64,-55.15 0,-43.5 -57.97,-39.39 -102.43,-39.39l0 -7.88c179.4,0 88.76,93.96 86.67,110.3zm-165.46 -126.06c7.35,-27.53 3,-17.7 23.64,-31.52 0.99,44.28 3.47,39.4 47.27,39.4l0 7.88c-32.74,0 -49.85,-5.31 -70.91,-15.76z"/>
   <path class="fil0" d="M323.56 1349.75c0,137.28 -15.67,133.94 86.67,133.94l0 196.97 63.04 0 0 -196.97 1213.35 0 0 196.97 63.03 0 0 -196.97 78.79 -7.88c7.37,-31.63 29.12,-157.58 -23.64,-157.58l-1449.72 0c-18.44,0 -31.52,13.07 -31.52,31.52z"/>
   <path class="fil0" d="M961.75 1617.63c0,46.03 35.69,70.34 72.22,70.91l3 0c37.3,-0.74 74.48,-26.28 74.48,-78.79l0 -118.18 -149.7 0 0 126.06z"/>
   <path class="fil0" d="M796.3 1633.39c0,35.93 33.82,54.31 68.42,55.15l4.98 0c34.61,-0.84 68.42,-19.22 68.42,-55.15l0 -141.82 -141.82 0 0 141.82z"/>
   <path class="fil0" d="M670.23 1113.38l0 31.52 94.55 0c0,-108.45 -10.92,-42.13 -28.43,-89.76 -4.72,-12.83 -3.09,-14.46 -3.09,-28.43l-31.52 0c0,8.38 0.83,14.04 -1.43,22.2 -5.49,19.77 -0.94,6.49 -10.95,20.57 -11.79,16.58 -19.13,13.04 -19.13,43.9z"/>
   <path class="fil0" d="M552.05 1097.62l0 47.27 94.55 0c0,-71.65 0.08,-47.56 -21.85,-80.57 -0.94,-1.41 -2.2,-3.33 -3.1,-4.78l-11.09 -20.43c-14.85,-16.58 7.94,-9.49 -26.99,-12.4 0,7.61 0.76,14.89 -1.34,22.3 -4.94,17.46 -1.4,6.75 -7.55,16.09 -7.58,11.51 -22.62,7.57 -22.62,32.53z"/>
   <path class="fil0" d="M1190.24 246.7c0,16.62 -45.14,115.58 23.64,133.94 -45.65,-86.28 -7.88,-61.61 -7.88,-141.82 0,-24.18 -10.86,-33.88 -31.51,-39.39 5.04,21.64 15.76,32.02 15.76,47.27z"/>
   <path class="fil0" d="M1347.82 349.13c0,30.12 -2.42,2.87 7.88,23.64 44.86,-32.4 -15.95,19.85 24,-70.79 12.96,-29.41 -0.36,-54.89 -0.36,-94.67l-15.76 0c0,33.07 9.72,58.09 6.65,77.08 -3.95,24.44 -22.41,32.37 -22.41,64.74z"/>
   <path class="fil0" d="M1276.91 144.28c0,48.52 -42.83,102.54 15.76,118.18 -7.24,-27.13 -15.76,-20.85 -15.76,-31.51 0,-47.34 42.84,-99.83 -7.88,-118.19 5.06,21.13 7.88,14.85 7.88,31.52z"/>
  </g>
  <g>
   <path class="fil1 str0" d="M332.1 10.42l1497.68 0c176.93,0 321.68,144.76 321.68,321.68l0 1537.54c0,176.93 -144.76,321.68 -321.68,321.68l-1497.68 0c-176.93,0 -321.68,-144.76 -321.68,-321.68l0 -1537.54c0,-176.93 144.76,-321.68 321.68,-321.68z"/>
  </g>
 </g>
</svg>
