<?xml version="1.0" encoding="UTF-8"?>
<!DOCTYPE svg PUBLIC "-//W3C//DTD SVG 1.1//EN" "http://www.w3.org/Graphics/SVG/1.1/DTD/svg11.dtd">
<!-- Creator: CorelDRAW -->
<svg xmlns="http://www.w3.org/2000/svg" xml:space="preserve" width="2.16188in" height="2.20173in" version="1.1" style="shape-rendering:geometricPrecision; text-rendering:geometricPrecision; image-rendering:optimizeQuality; fill-rule:evenodd; clip-rule:evenodd"
viewBox="0 0 2161.88 2201.74"
 xmlns:xlink="http://www.w3.org/1999/xlink"
 xmlns:xodm="http://www.corel.com/coreldraw/odm/2003">
 <defs>
  <style type="text/css">
   <![CDATA[
    .str0 {stroke:#856443;stroke-width:20.83;stroke-miterlimit:2.61313}
    .fil1 {fill:none}
    .fil0 {fill:#856443}
   ]]>
  </style>
 </defs>
 <g id="Layer_x0020_1">
  <metadata id="CorelCorpID_0Corel-Layer"/>
  <g id="_1338885921600">
   <path class="fil0" d="M1164.25 1860.38c11.51,-23.92 8.65,-298.42 4.5,-342.61l-147.72 -0.29c0.42,51.02 22.29,128.4 -4.02,172.46 -31.32,52.44 -97.21,-0.78 -133.5,-12.17 -64.36,-20.21 -96.03,-9.15 -111.95,-77.84 -9.07,-39.1 -4.97,-143.7 -6.26,-191.04 -23.41,-10.92 -41.09,-25.83 -58.63,-34.68 -18.59,12.26 -35.25,23.61 -57.7,35.64 -1.96,93.21 22.07,238.61 -74.06,259.4 -95.04,20.56 -84.1,35.5 -125.08,41.8 -122.56,18.82 -52.74,-283.15 22.23,-358.25 27.19,-27.23 50.57,-52.46 90.65,-75.79 69.39,-40.4 73.8,50.26 84.61,69.29 72.07,-48.56 4.23,-170.98 39.68,-252.44l40.04 -2.31c33.77,80.63 -30.21,215.26 40.02,256.03 17.6,-27.26 9.65,-72.45 47.85,-79.87 27.76,-5.39 69.59,30.48 84.37,43.91 21.15,19.22 44.72,40.2 64,66.61 18.67,25.58 31.71,64.46 46.09,82.54l159.38 0.57c5.41,-58.53 1.33,-134.2 1.38,-194.47 0.06,-73.61 2.18,-113.33 -31.06,-171.16 -69.98,-121.72 -180.71,-110.17 -289.95,-110.28 -110.37,-0.11 -295.96,-11 -397.59,2.08 -102.6,13.2 -183.88,98.34 -191.07,207.89 -9.33,142.16 0.3,423.81 -0.66,593.78 -0.6,107.09 14.57,83.06 120.44,83.06l593.52 -0.02c42.81,0 163.76,12.09 190.5,-11.82z"/>
   <path class="fil0" d="M1905.57 1856.15l0 -692.4 -10.69 -22.92c-20.96,-54.21 -37.15,-82.53 -89.1,-118.44 -58.13,-40.19 -119.72,-37.05 -196.97,-37.04 -100.96,0.01 -376.15,-11.88 -455.84,9.65 8.5,18.74 16.81,20.32 29.9,38.99 94.42,134.76 39.08,265.89 57.35,427.44l136.04 -0.33c-16.17,-25.64 -71.74,-54.38 -77.64,-93.33 15.31,-27.48 27.59,-30.18 51.7,-9.02 16.04,14.07 27.66,24.97 44.28,39.27 17.44,15.01 75.44,69.79 83.26,88.46 1.85,16.31 -62.19,76.53 -76.64,89.07 -51.74,44.91 -71.07,76 -94.78,46.24 -27.78,-35.24 55.42,-80.56 69.78,-104.17l-137.24 -0.25 -3.52 353.99c132.04,7.1 365.57,0.86 515.8,0.86 74.01,0 120.56,10.75 154.31,-16.06z"/>
   <path class="fil0" d="M769.06 329.11l-111.08 0c-29.54,26.65 -82.01,20.33 -143,99.13 -93.91,121.33 -67.52,452.59 203.6,448.63 247.53,-3.61 300.13,-298.75 197.06,-448.1 -17.15,-24.84 -38.04,-42.22 -64.78,-59.91 -25.88,-17.13 -61.48,-25.29 -81.79,-39.75z"/>
   <path class="fil0" d="M1508.67 329.11l-114.78 0c-38.94,35.58 -197.59,35.32 -191.34,302.78 7.56,323.96 491.68,327.95 496.13,-5.89 3.53,-264.91 -145.19,-252.8 -190.02,-296.88z"/>
  </g>
  <g>
   <path class="fil1 str0" d="M332.1 10.42l1497.68 0c176.93,0 321.68,144.76 321.68,321.68l0 1537.54c0,176.93 -144.76,321.68 -321.68,321.68l-1497.68 0c-176.93,0 -321.68,-144.76 -321.68,-321.68l0 -1537.54c0,-176.93 144.76,-321.68 321.68,-321.68z"/>
  </g>
 </g>
</svg>
