<?xml version="1.0" encoding="UTF-8"?>
<!DOCTYPE svg PUBLIC "-//W3C//DTD SVG 1.1//EN" "http://www.w3.org/Graphics/SVG/1.1/DTD/svg11.dtd">
<!-- Creator: CorelDRAW -->
<svg xmlns="http://www.w3.org/2000/svg" xml:space="preserve" width="2.16188in" height="2.20173in" version="1.1" style="shape-rendering:geometricPrecision; text-rendering:geometricPrecision; image-rendering:optimizeQuality; fill-rule:evenodd; clip-rule:evenodd"
viewBox="0 0 2161.88 2201.74"
 xmlns:xlink="http://www.w3.org/1999/xlink"
 xmlns:xodm="http://www.corel.com/coreldraw/odm/2003">
 <defs>
  <style type="text/css">
   <![CDATA[
    .str0 {stroke:#856443;stroke-width:20.83;stroke-miterlimit:2.61313}
    .fil1 {fill:none}
    .fil0 {fill:#856443}
   ]]>
  </style>
 </defs>
 <g id="Layer_x0020_1">
  <metadata id="CorelCorpID_0Corel-Layer"/>
  <path class="fil0" d="M1009.32 356.73c-265.92,51.01 -251.44,227.09 -275.2,361.84 -11.6,65.8 -51.52,54.26 -24.83,163.55 7.98,32.67 17.89,50.92 34.63,70.06 56.97,65.15 166.06,381.6 410.92,297.85 158.5,-54.22 216.43,-232.38 246.93,-276.37 72.85,-105.05 71.47,-105.25 37.9,-230.45 -24.39,-90.98 17.37,-184.17 -110.89,-309.38 -70.25,-68.58 -195.1,-100.96 -319.46,-77.1zm107.15 267.79c15.22,29.96 19.69,25.08 38.36,46.98 -16.77,34.1 -22.78,14.8 -37.89,57.69 17,22.44 21.11,27.22 49.84,42.14l46.04 -39.59c19.32,15.36 24.44,23.89 49.12,39.61l47.63 -37.39c-14.19,-48.52 -18.37,-22.58 -38.15,-61.86 26.86,-29.91 24.69,-11.47 38.1,-51.96l-47.56 -39.54c-20.76,10.85 -34.02,24.35 -49.85,40.03 -14.43,-16.69 -23.69,-30.5 -54.25,-41.74 -16.87,16.19 -27,23.23 -41.39,45.63zm293.91 1131.11c-50.91,-115.52 -89.07,-175.41 -248.02,-178.47l91.04 -227.83c-160.78,32.2 -183.82,31.28 -343.02,-0.36l135.6 323.07c143.82,3.85 275,-16.43 266.44,161.24 -7.98,165.75 -159.38,132.85 -307.41,132.85 -83.76,0 -358.97,12.44 -415.09,-13.57 -50.39,-23.36 -70.3,-70.54 -66.62,-147.67 3.87,-81.04 34.48,-91.93 87.15,-127.97l38.83 -385.55c-178.78,33.15 -257.06,243.68 -247.35,332.35 7.06,64.5 41.96,55.94 37.57,100.36 -7.51,76.01 -54.72,219.61 97.63,310.39 89.74,53.46 422.89,29.85 553.52,29.97 174.05,0.15 319.97,-17.69 319.6,-265.69 128.48,-6.01 381.86,-53.84 347.23,-230.83 -15.19,-77.62 -57.11,-150.72 -100.22,-196.8 -57.23,-61.17 -94.13,-79.13 -203.83,-89.96l-43.06 474.46zm-328.19 -1079.76c-94.3,-0.69 -212.46,-63.02 -264.76,55.88 -37.88,86.12 4.7,34 -48.44,71.8 -13.59,152.47 21.14,81.41 76.26,199.43 120.52,258.07 345.6,255.87 471.75,10.17 8.66,-16.86 13.52,-32.87 20.42,-46.28 23.29,-45.26 90.21,-72.17 59.17,-150.31 -19.41,-48.85 -8.29,6.1 -32.34,-37.69l-18.09 -110.62c4.06,-23.79 18.43,-18.33 8.34,-59.32 -5.5,-22.35 -54.85,-68.65 -70.02,-74.35 -33.61,-12.63 -27.96,-3.98 -53.02,2.57 -50.56,13.22 -6.6,6.78 -50.15,-3.53 -45.1,-10.67 -66.1,17.26 -90.59,43.57 -37.3,40.07 -26.63,56.31 -8.52,98.67z"/>
  <g>
   <path class="fil1 str0" d="M332.1 10.42l1497.68 0c176.93,0 321.68,144.76 321.68,321.68l0 1537.54c0,176.93 -144.76,321.68 -321.68,321.68l-1497.68 0c-176.93,0 -321.68,-144.76 -321.68,-321.68l0 -1537.54c0,-176.93 144.76,-321.68 321.68,-321.68z"/>
  </g>
 </g>
</svg>
