<?xml version="1.0" encoding="UTF-8"?>
<!DOCTYPE svg PUBLIC "-//W3C//DTD SVG 1.1//EN" "http://www.w3.org/Graphics/SVG/1.1/DTD/svg11.dtd">
<!-- Creator: CorelDRAW -->
<svg xmlns="http://www.w3.org/2000/svg" xml:space="preserve" width="2.16188in" height="2.20173in" version="1.1" style="shape-rendering:geometricPrecision; text-rendering:geometricPrecision; image-rendering:optimizeQuality; fill-rule:evenodd; clip-rule:evenodd"
viewBox="0 0 2161.88 2201.74"
 xmlns:xlink="http://www.w3.org/1999/xlink"
 xmlns:xodm="http://www.corel.com/coreldraw/odm/2003">
 <defs>
  <style type="text/css">
   <![CDATA[
    .str0 {stroke:#856443;stroke-width:20.83;stroke-miterlimit:2.61313}
    .fil1 {fill:none}
    .fil0 {fill:#856443}
   ]]>
  </style>
 </defs>
 <g id="Layer_x0020_1">
  <metadata id="CorelCorpID_0Corel-Layer"/>
  <g id="_1338882365680">
   <path class="fil0" d="M953.4 1518.88c1.61,-19.37 20.9,-63.58 28.51,-82.39l157.83 -407.74c15.33,-43.23 55.31,-131.16 63.03,-164.3l132.99 0 121.13 272.53c18.93,46.55 39.48,86.98 59.35,134.71 26.12,62.75 95.69,169.99 34.72,229.65 -18.76,18.36 -35.63,17.93 -71,17.69l-526.57 -0.14zm16.63 -160.84l-116.37 0 87.54 -367.17c8.05,-31.93 28.16,-95.98 28.83,-126.43l77.58 0c5.61,24.08 15.88,30.7 21.97,55.66 4.92,20.16 7.81,52.96 10.27,72.91 9.63,78.35 7.78,68.04 -17.2,130.5l-92.61 234.52zm-33.25 -493.6c-99.5,0 -144.94,-10.21 -224.09,25.3 -56.89,25.52 -101.02,70.55 -128.85,126.15 -13.25,26.47 -29.41,66.81 -29.41,103.67l0 732.08c0,76.15 103.76,135.73 173.37,57.05 25.16,-28.44 20.7,-46.51 20.58,-95.87 -0.2,-79.48 -0.01,-159 -0.01,-238.48 -71.08,-16.57 -146.41,-160.95 0,-238.48 0,-54.82 -16.44,-160.83 27.7,-160.83 12.97,0 22.17,9.2 22.17,22.19l0 160.83c-34.74,0 -63.63,9.71 -83.48,38.46 -15.33,22.21 -23.78,52.21 -16.3,83.19 14.65,60.62 63.93,78.01 138.57,78.01l642.8 0c137.67,0 127.45,-88.96 127.45,-160.83 0,-33.63 -17.17,-12.94 -16.85,-77.42 0.64,-128.55 16.59,-238.15 -45.02,-332.08 -7.85,-11.96 -32.35,-43.35 -42.43,-51.82 -27.46,-23.07 -84.84,-61.93 -128.44,-65.57 -5.03,-60.44 -53.82,-44.37 -166.24,-44.37 -46.19,0 -27.34,38.83 -55.41,38.83l-55.42 0c-28.07,0 -9.22,-38.83 -55.41,-38.83 -68.64,0 -104.19,-10.51 -105.29,38.83z"/>
   <polygon class="fil0" points="798.24,1995.84 1346.84,1995.84 1346.84,1585.43 798.24,1585.43 "/>
   <path class="fil0" d="M853.66 581.59l0 -44.37c35.15,0 46.27,-5.55 83.12,-5.55l-39.03 27.49c-15.5,9.36 -25.43,18.07 -44.09,22.43zm5.54 -83.19c3.9,-16.75 3.2,-33.28 22.17,-33.28l216.11 0c68.37,0 120.2,11.09 182.87,11.09 3.04,13.06 5.17,16.38 5.54,33.28l-199.46 -16.67c-69.37,-3.75 -163,5.57 -227.22,5.57zm382.36 -94.28c7.17,26.87 9.46,6.41 16.62,33.28 -33.65,0 -44.4,-5.55 -72.04,-5.55 15.06,-13.11 29.31,-25.56 55.41,-27.73zm-221.65 22.19c7.17,-6.24 1.83,-2.58 12.97,-9.2l131.1 -62.9c9.17,0 31.12,12.57 38.79,16.63 -11.58,17.31 -48.56,37.1 -68.48,47.93 -26.27,14.27 -78.14,7.54 -114.38,7.54zm-132.99 5.55c59.91,-89.54 129.5,-99.83 227.19,-99.83l-49.94 27.66c-19.26,10.01 -31.42,18.74 -53.47,29.67 -52.46,26 -60.77,37.25 -123.78,42.5zm-72.04 116.47c0,21.35 1.92,36.32 5.8,55.2 2.05,9.98 0.78,11.5 7.76,19.97 5.44,6.6 4.22,3.17 9.33,7.3 23.41,18.92 11.09,18.14 30.15,47.47 122.51,188.53 400.69,130.37 440.71,-85.02 9.97,-53.66 4.06,-27.76 15.52,-51.39 25.59,-52.76 -67.78,-248.65 -248.81,-248.65 -143.59,0 -260.45,119.3 -260.45,255.12z"/>
  </g>
  <g>
   <path class="fil1 str0" d="M332.1 10.42l1497.68 0c176.93,0 321.68,144.76 321.68,321.68l0 1537.54c0,176.93 -144.76,321.68 -321.68,321.68l-1497.68 0c-176.93,0 -321.68,-144.76 -321.68,-321.68l0 -1537.54c0,-176.93 144.76,-321.68 321.68,-321.68z"/>
  </g>
 </g>
</svg>
