<?xml version="1.0" encoding="UTF-8"?>
<!DOCTYPE svg PUBLIC "-//W3C//DTD SVG 1.1//EN" "http://www.w3.org/Graphics/SVG/1.1/DTD/svg11.dtd">
<!-- Creator: CorelDRAW -->
<svg xmlns="http://www.w3.org/2000/svg" xml:space="preserve" width="2.16188in" height="2.20173in" version="1.1" style="shape-rendering:geometricPrecision; text-rendering:geometricPrecision; image-rendering:optimizeQuality; fill-rule:evenodd; clip-rule:evenodd"
viewBox="0 0 2161.88 2201.74"
 xmlns:xlink="http://www.w3.org/1999/xlink"
 xmlns:xodm="http://www.corel.com/coreldraw/odm/2003">
 <defs>
  <style type="text/css">
   <![CDATA[
    .str0 {stroke:#856443;stroke-width:6.94;stroke-miterlimit:2.61313}
    .str1 {stroke:#856443;stroke-width:20.83;stroke-miterlimit:2.61313}
    .fil1 {fill:none}
    .fil0 {fill:#856443}
   ]]>
  </style>
 </defs>
 <g id="Layer_x0020_1">
  <metadata id="CorelCorpID_0Corel-Layer"/>
  <g id="_1338937121264">
   <path class="fil0" d="M1202.17 1791.34l157.4 156.43c-48.88,-1.18 -99.93,0.31 -148.61,0.31l-596.24 0c-22.65,0 -52.14,-1.64 -73.96,0.15 -23.19,1.91 -31.77,28.69 -16.11,42.93 11.68,10.61 48.45,6.66 67.21,6.66l1118.61 0c12.62,0.01 50.83,2.01 42.27,-31.39 -5.78,-22.56 -33.75,-18.35 -58.09,-18.35 -48.7,0 -100.53,1.7 -148.83,-0.13 7.07,-16.26 13.76,-26.23 15.59,-48.56 4.93,-59.98 -36.35,-90.31 -73.8,-127.23l-132.32 -133.15c12.8,-42.22 22.4,-51.48 25.48,-106.92 15.5,-278.39 -319.13,-428.71 -516.66,-232.92 -93.91,93.09 -126.65,254.98 -36.07,386.81 32.43,47.19 80.69,90.06 149.51,114.32 80.86,28.5 149.79,19.42 224.63,-8.94zm46.42 -25.7c8.29,10.33 17.75,18.61 26.49,27.38l83.57 83.46c17.96,17.44 37.46,40.48 55.27,55.53 57.61,48.65 131.51,-23.89 82.75,-80.95 -7.67,-8.98 -18.43,-18.94 -27.15,-27.35l-133.2 -132.39c-3.38,-3.45 -3.91,-4.37 -7.51,-6.81 -18.28,7.62 -34.77,6.84 -40.1,-12.6 -4.26,-15.54 10.91,-32.31 17.22,-45.35 49.85,-103.09 24.22,-216.11 -46.02,-289.78 -95.06,-99.71 -265.71,-101.62 -362.6,-0.88 -71.19,74.01 -96.39,183.19 -49.37,286.16 58.48,128.06 216.95,182.52 342.71,119.8 8.33,-4.16 48.58,-35.59 61.05,-2.95 4.88,12.79 -0.56,18.04 -3.09,26.72zm-192.08 -452.58c-29.68,3.41 -54.82,11.54 -77.02,24.15 -25.28,14.36 -38.51,27.73 -55.77,46.13 -29.26,31.18 -53.67,91.81 -46.98,151.94 11.52,103.57 103.8,193.3 222.13,180.26 105.53,-11.63 193.58,-104.76 180.19,-224.16 -11.63,-103.8 -105.65,-191.75 -222.56,-178.32zm6.95 49.07c-80.31,8 -146.43,77.71 -137.31,167.87 8.04,79.41 78.5,145.02 167.58,136.23 79.69,-7.87 145.57,-78.09 136.34,-167.98 -8.11,-78.99 -77.6,-144.98 -166.61,-136.12z"/>
   <path class="fil0" d="M914.56 1194.03c-18.74,-103.01 -27.52,-124.17 -79.96,-212.88 -70.35,-119.01 -70.28,-160.28 -70.37,-295.43 -0.05,-80.25 13.57,-66.33 63.98,-83.84 18.1,-6.29 35.45,-14.95 49.92,-23.89 15.48,-9.57 27.37,-20.02 42.28,-29.82 88.65,-58.23 185.78,-69.88 283.79,-21.08 56.5,28.13 81.27,63.06 141.26,78.52 26.62,6.86 36.17,6.92 46.61,27.42 9.41,18.48 5.92,115.48 4.5,142.34 -8.02,151.95 -86.78,206.5 -124.93,313.96 -6.87,19.36 -11.88,36.42 -16.53,57.16 -2.24,10.01 -4.25,20.83 -5.9,31.49 -2.14,13.82 0.37,19.38 6.39,28.07 17.47,11.99 36.44,6.24 41.17,-12.39 4.41,-17.37 6.09,-36.28 10.89,-54.09 9.45,-35.06 22.32,-63.85 37.8,-92.47 15.44,-28.55 33.69,-53.9 48.15,-81.97 43.38,-84.24 53.69,-145.87 53.31,-240.72 -0.07,-15.81 -1.67,-16.06 5.82,-27.28 29.78,-44.66 82.87,-61.83 136.15,-39.29 41.07,17.38 44.63,40.33 29.25,86.24 -72.2,3.82 -143.92,48.01 -130.79,120.74 10.94,60.64 85.77,99.21 160.57,87.25 46.14,-7.38 94.88,-39.07 104.06,-85.79 2.62,-13.33 1.26,-18.41 0.36,-31.18 -0.72,-10.14 4.92,-14.75 9.33,-22.56 74.57,-131.99 24.52,-259.11 -124.02,-310.91 -73.29,-25.56 -144.91,-10.56 -204.75,22.6 -14.04,7.78 -26.03,15.65 -38.36,25.01 -18.75,14.24 -15.75,15.98 -45.66,5.59 -64.28,-22.33 -131.8,-111 -271.63,-108.28 -74.39,1.44 -138.35,30.32 -188.36,63.07 -27.67,18.12 -42.82,34.46 -80.19,46.55 -39.26,12.7 -18.52,1.69 -81.11,-32.57 -61.76,-33.81 -129.81,-46.46 -204.97,-21.39 -59.89,19.98 -116.17,64.04 -139.79,113.47 -31.13,65.17 -15.54,143.06 17.6,198.07 19.15,31.8 2.04,13.8 8.76,51.07 8.33,46.15 54.2,78.32 103.3,87.04 103.63,18.4 192.45,-62.35 154.17,-140.44 -32.66,-66.62 -118.25,-66.08 -121.15,-67.91 -8.12,-5.14 -14.46,-39.18 -7.95,-55.73 12.63,-32.11 88.24,-60.3 143.66,-19.3 45.67,33.79 31.7,52.11 33.67,101.71 2.99,75.24 24.52,148.4 61.84,210.75 39.38,65.79 69.17,109.51 84.19,190.33 3.83,20.62 1.76,42.27 18.13,50.44 19.94,9.96 37.13,-6.94 35.51,-27.7z"/>
   <path class="fil0 str0" d="M914.56 1194.03c10.98,1.34 64.63,-11.46 76.3,-15.18 -10.88,-9.47 -18.24,-6.22 -19.65,-26.96 -0.98,-14.37 -1.15,-25.62 -3.73,-39.46 -13.78,-73.93 -64.04,-99.58 -65.08,-205.1 -0.99,-99.76 79.41,-179.26 178.44,-179.37 100.01,-0.11 179.48,80.22 178.16,181.13 -0.74,56.25 -18.68,97.9 -40.97,139.02 -11.08,20.44 -19.18,39.91 -24.09,65.52 -7.59,39.54 5.25,50.7 -23.2,64.19 3.56,4.89 75.32,27.32 84.89,28.23 -6.02,-8.69 -8.53,-14.26 -6.39,-28.07 1.65,-10.67 3.66,-21.49 5.9,-31.49 4.65,-20.73 9.66,-37.8 16.53,-57.16 38.14,-107.46 116.91,-162 124.92,-313.96 1.41,-26.86 4.91,-123.86 -4.5,-142.34 -10.44,-20.5 -20,-20.56 -46.61,-27.42 -59.99,-15.46 -84.75,-50.38 -141.26,-78.52 -98.01,-48.8 -195.14,-37.15 -283.79,21.08 -14.91,9.8 -26.8,20.25 -42.28,29.82 -14.47,8.94 -31.82,17.61 -49.92,23.89 -50.41,17.51 -64.03,3.59 -63.98,83.84 0.09,135.15 0.02,176.42 70.37,295.43 52.44,88.71 61.22,109.87 79.96,212.88zm147.76 -639.7c-60.36,5.71 -112.9,29.84 -150.62,59.04 -37.29,28.86 -43.76,22.83 -71.44,34.17 -23.44,9.59 -22.05,57.05 26.65,44.06 58.6,-15.63 75.05,-49.45 136.39,-72.9 12.58,-4.81 26.79,-8.84 41.21,-11.59 11.14,-2.12 38.44,-3.41 46.06,-6.7 11.46,-4.95 20.23,-18.47 11.66,-34.62 -7.13,-13.45 -21.03,-13.24 -39.91,-11.46z"/>
  </g>
  <g>
   <path class="fil1 str1" d="M332.1 10.42l1497.68 0c176.93,0 321.68,144.76 321.68,321.68l0 1537.54c0,176.93 -144.76,321.68 -321.68,321.68l-1497.68 0c-176.93,0 -321.68,-144.76 -321.68,-321.68l0 -1537.54c0,-176.93 144.76,-321.68 321.68,-321.68z"/>
  </g>
 </g>
</svg>
