<?xml version="1.0" encoding="UTF-8"?>
<!DOCTYPE svg PUBLIC "-//W3C//DTD SVG 1.1//EN" "http://www.w3.org/Graphics/SVG/1.1/DTD/svg11.dtd">
<!-- Creator: CorelDRAW -->
<svg xmlns="http://www.w3.org/2000/svg" xml:space="preserve" width="2.16188in" height="2.20173in" version="1.1" style="shape-rendering:geometricPrecision; text-rendering:geometricPrecision; image-rendering:optimizeQuality; fill-rule:evenodd; clip-rule:evenodd"
viewBox="0 0 2161.88 2201.74"
 xmlns:xlink="http://www.w3.org/1999/xlink"
 xmlns:xodm="http://www.corel.com/coreldraw/odm/2003">
 <defs>
  <style type="text/css">
   <![CDATA[
    .str0 {stroke:#856443;stroke-width:20.83;stroke-miterlimit:2.61313}
    .fil1 {fill:none}
    .fil0 {fill:#856443}
   ]]>
  </style>
 </defs>
 <g id="Layer_x0020_1">
  <metadata id="CorelCorpID_0Corel-Layer"/>
  <g id="_1338880621808">
   <path class="fil0" d="M400.1 1011.44c-0.44,2.2 1,11.78 1.48,13.84 1,4.26 1,9.57 1.84,14.04 0.41,2.15 1.52,3.43 1.83,6.19 0.29,2.54 0.61,4.21 0.89,6.83 0.27,2.57 1.14,4.05 1.51,6.21 0.59,3.43 0.89,6.74 1.79,10 0.36,1.31 0.86,1.83 1.11,2.95 0.62,2.85 0.18,3.7 1.14,6.56 0.5,1.47 0.47,1.66 1.12,2.88 0.9,1.69 2.07,7.21 2.63,9.13 1.81,6.24 2.5,11.48 5.26,18.22 1.43,3.5 2.66,8.47 3.74,12.13 0.56,1.9 0.93,4.12 1.81,5.87l6.43 17.53c0.65,1.67 1.28,3.81 2.06,5.61 0.56,1.3 0.53,1.61 1.03,3.11l5.74 13.65c0.48,1.15 0.52,2.2 0.91,3.22l5.44 12.39c0.54,1.38 1.64,1.65 2.31,3.29 0.62,1.52 0.18,1.63 1.08,2.94 1.25,1.8 2.1,4.33 2.64,5.05l1.99 2.04c0.76,1.23 4.13,10.26 8.03,15.47l5.53 10.35c1.69,3.85 2.94,3.82 4.22,7.51 0.72,2.06 1.44,1.9 2.39,3.65 0.37,0.69 0.28,0.61 0.51,1.13 1.54,3.5 6.26,8.12 7.67,11.74 0.67,1.72 0.44,1.2 1.52,2.54 1.91,2.35 0.69,2.94 6.2,9.61 1.08,1.3 0.6,1.28 1.45,2.62 0.49,0.77 1.23,1.35 1.65,1.98 0.88,1.31 0.37,1.42 1.39,2.68 0.73,0.9 1.3,1.02 1.87,2.21 0.76,1.61 0.2,1.24 1.33,2.72 0.51,0.68 1.04,1.33 1.62,2.01 0.05,0.06 0.13,0.15 0.19,0.22l6.49 8.54c2.82,4.62 10.67,12.97 12.15,15.87 1.18,2.33 1.87,2.22 3.62,4l5.52 6.27c0.92,1.31 1.05,1.21 1.87,2.15 0.7,0.8 0.81,1.48 1.41,2.27 0.99,1.3 1.05,0.66 2.26,1.74 3.49,3.11 6.06,6.71 9.83,9.65 1.46,1.14 2.61,2.49 3.81,3.89l12.04 11.48c0.06,0.06 0.14,0.15 0.2,0.21l8.82 8.13c1.35,0.75 8.73,7.34 12.22,9.7 0.89,0.6 1.38,0.96 2.2,1.9l1.54 1.66c0.06,0.05 0.16,0.12 0.22,0.17 0.21,0.17 0.8,0.55 1.18,0.83l3.38 2.67c1.54,1.1 3.61,1.4 5.18,2.58l4.41 3.25c2.06,1.3 1.96,0.79 4.84,2.9l4.94 3.1c3.54,1.9 7.14,3.15 10.54,5.33 1.04,0.67 1.85,0.76 2.92,1.13 2.12,0.74 0.89,0.53 2.2,1.46 0.86,0.61 2,0.77 2.97,1.09 2.72,0.9 7.94,4.58 10.26,5.46 0.94,0.36 1.94,0.43 2.88,0.79l5.24 2.45c2.86,1.28 6.15,1.91 9.25,2.93 1.05,0.34 1.47,0.52 2.79,0.83 5.23,1.21 10.19,3.03 15.33,4.5l9.82 1.95c4.05,0.64 17.72,1.84 20.88,2.75 2.32,0.67 -0.14,0.73 2.97,0.84 1.42,0.05 2.27,0.06 3.5,0.22 4.22,0.55 11.04,0.22 15.57,0.23 7.39,0.02 20.85,0.47 25.76,-0.89 3.82,-1.06 8.97,-0.55 12.26,-1.54 0.09,-0.03 0.19,-0.08 0.29,-0.11 2.96,-0.85 7.67,-0.1 10.04,-2.05 1.82,-1.49 5.33,-1.31 7.94,-1.78l12.96 -2.93 25.64 -9.56c2.79,-1.45 3.89,-1.26 5.89,-2.22 0.86,-0.42 1.01,-0.69 2.37,-1.29 2.03,-0.88 3.06,-2.15 4.99,-3.07 1.1,-0.52 1.83,-0.56 2.85,-1.22 1.32,-0.85 0.61,-0.88 2.16,-1.44 2.67,-0.97 3.26,-0.6 5.42,-2.34 1.91,-1.55 3.29,-1.45 4.85,-2.85l10.34 -7.5c0.67,-0.56 0.38,-0.44 0.97,-1.07 0.92,-0.99 5.54,-3.83 7.8,-5.97 0.71,-0.67 0.4,-0.41 1.13,-0.86 1.01,-0.62 0.18,0.1 1.26,-0.79l3.01 -3.13c1,-1.39 2.07,-1.45 3.02,-2.65l2.22 -2.16c0.07,-0.06 0.17,-0.13 0.24,-0.19l0.43 -0.41c1.03,-0.99 1.28,-0.93 2.24,-1.77 1.59,-1.41 0.43,-0.78 1.36,-2.39 0.32,-0.56 0.61,-0.71 0.94,-0.94 1.93,-1.33 3.66,-2.77 5.16,-4.66 0.05,-0.06 0.13,-0.15 0.19,-0.22 0.51,-0.63 0.07,-0.04 0.55,-0.69 1.17,-1.63 2.33,-1.73 3.31,-3.17 0.61,-0.89 0.54,-1.4 1.39,-2.23 2.61,-2.56 4.66,-5.93 7.17,-8.65 1.26,-1.37 2.09,-3.2 2.93,-4.81 1.7,-3.25 3.96,-5.37 5.91,-8.91l0.17 -1.61c2.89,-2.23 1.44,-2.13 3.26,-4.79l7.24 -12.97c0.56,-1.29 0.41,-1.7 1.02,-2.72 0.74,-1.22 0.91,-0.7 1.62,-2.35l2.77 -5.31c0.39,-0.88 0.63,-1.77 0.96,-2.66 0.91,-2.49 1.64,-2.41 2.5,-5.62 0.31,-1.17 0.45,-2.06 1.07,-3.08l2.3 -5.31c0.62,-1.74 0.76,-1.61 1.31,-2.83 0.88,-1.95 0.95,-3.86 1.93,-5.74 1.06,-2.02 1.59,-3.5 2.01,-6.03 0.49,-2.96 1.5,-3.26 2,-5.71 0.49,-2.43 0.71,-4.76 1.2,-6.96 0.64,-2.88 1.45,-2.57 1.91,-5.83l1.44 -6.57c0.71,-1.88 1.2,-3.75 1.35,-6.16 0.36,-5.68 0.7,-9.96 1.12,-15.39 0.06,-0.78 0.32,-2.65 0.55,-3.5 1.19,-4.43 0.7,-14.33 0.59,-19.24 -0.06,-2.5 -0.06,-1.77 -0.7,-3.25 -0.58,-1.35 -0.4,-1.44 -0.49,-3.2 -0.39,-7.18 -1.49,-14.36 -3.09,-20.94 -1.62,-6.67 -1.94,-5.78 -3.57,-12.11 -0.57,-2.24 -1.68,-3.22 -2.24,-5.41 -1.61,-6.19 -0.85,-2.5 -2.51,-5.61 -1.21,-2.26 -0.28,-3.03 -2.17,-5.55 -1.22,-1.63 -2.67,-2.71 -3.41,-4.64 -1.87,-4.83 -0.02,-2.98 -3.07,-4.67 -0.19,-2.69 -0.73,-2.51 -1.02,-5.14 -1.06,-0.11 -1.56,-0.24 -2.13,-0.63 -0.35,-5.19 -1.04,-1.7 -2.39,-4.07 -0.63,-1.11 -0.76,-3.61 -1.51,-4.61 -0.17,-0.22 -1.18,-0.93 -1.69,-1.56 -0.75,-0.93 -0.58,-1.08 -1.17,-2.1 -1.57,-2.7 -3.54,-3.75 -4.28,-5 -0.56,-0.95 -0.56,-1.37 -1.36,-1.94 -2.44,-1.73 -1.26,-1.57 -2.79,-3.24l-2.39 -3.72c-1,-1.63 -3.43,-3.2 -4.73,-4.57l-3.68 -4.46c-0.69,-0.88 -3.09,-1.77 -4.24,-3.01 -1.95,-2.13 -4.33,-3.29 -6.15,-5.61l-0.36 -0.46c-1.6,-1.78 -3.73,-2.51 -5.48,-3.84 -1.83,-1.39 -0.85,-1.2 -3.59,-2.45 -2.48,-1.14 -0.83,-1.07 -6.07,-3.2 -2.44,-0.99 -0.95,-1.11 -4.2,-1.88 -2.06,-0.5 -2.72,-0.86 -4.28,-1.83 -3.68,-2.28 -12.76,-1.01 -16.18,-2.59 -0.06,-0.03 -0.43,-0.33 -0.92,-0.64 -3.51,-2.2 -12,1.74 -12.37,-4.61 -0.23,-4.05 -0.26,-7.38 1.56,-10.62 1,-1.78 0.56,-2.32 1.9,-4.17 0.5,-0.69 0.97,-1.21 1.34,-1.9 2.21,-4.12 0.85,-2.02 3.98,-5.33l0.89 -0.75c0.62,-0.52 0.31,-0.13 0.83,-0.8 2.02,-2.54 2.83,-1.98 5.2,-3.7 2.22,-1.61 3.53,-1.73 6,-2.92l0.55 -0.26c0.84,-0.37 1.21,-0.51 2.08,-0.72 3.93,-0.96 10.04,-0.98 13.85,0.64l6.42 2.85c1.63,0.99 2.15,1.16 4.84,1.43 2.56,0.25 1.96,1.12 3.72,2.2 1.5,0.93 3.44,0.85 4.98,1.57 1.55,0.73 1.28,1.43 3.63,2.4l2.09 1.13c0.76,0.61 0.48,0.61 1.68,1.19 2.87,1.39 2.5,2.02 5.38,3.84l12.13 9.4c1.51,1.33 2.21,0.34 3.93,2.59 1.22,1.59 1.53,1.89 3.01,3.01l9.58 9.13c2.47,3.69 5.92,6.02 8.85,9.35 3.57,4.05 4.16,2.44 5.41,7.07 0.74,2.76 3.93,4.41 5.13,7.17l5.04 7.47c1.08,1.11 0.6,0.93 1.24,2.02 1.51,2.6 2.43,0.52 2.96,5.99 1.96,1.1 1.44,0.29 2.41,2.43l2.94 5.98c0.68,1.7 1.08,1.26 1.92,2.52 0.68,1.02 0.72,2.09 1.39,3.09 0.76,1.15 1,1.11 1.78,2.65 1.36,2.72 2.68,2.2 2.72,6.54 -0.13,2.81 1.56,4.02 2.55,5.98 1.06,2.11 0.22,2.5 1.88,4.63 1.85,2.38 0.85,1.8 1.87,4.58 0.71,1.95 1.06,1.35 1.72,2.75 0.77,1.62 0.3,3.08 1.53,4.97 1.75,2.67 0.61,1.06 1.61,4.93 0.82,3.15 1.83,4.27 2.63,6.25 0.44,1.11 0.51,1.99 0.96,3.11 0.93,2.27 1.7,3.3 2.57,5.89 0.69,2.06 1.72,4.53 2.12,6.41 0.65,3 1.3,4.25 2.19,6.76l2.28 6.2c1.74,3.63 1.37,7.28 3.05,10.32 1.25,2.27 3.98,14.22 4.34,17.18 0.33,2.69 3.26,11.96 2.81,13.62 1.48,0.7 1.44,1.37 1.97,3.15 0.98,3.33 0.2,3.13 1.87,7.39 1.53,3.9 1.3,8.25 2.18,12.15 0.23,1.03 0.98,2.09 1.36,3.42 0.47,1.61 0.41,2.46 0.66,4.3l1.7 7.54c0.67,2.52 1.06,5.69 1.48,8.31 0.73,4.51 2.26,7.24 2.65,11.44 0.37,3.98 1.21,7.87 2.27,11.89 1.11,4.22 0.19,4.85 2.11,11.64 1.12,3.94 1.49,8.72 1.91,12.65 0.59,5.62 2.09,10.83 2.46,16.56 0.29,4.57 1.64,7.95 1.99,12.17l1.05 13.19c0.34,2.78 -0.15,6.14 0.55,8.85 1.23,4.76 2.39,20.81 2.5,25.74 0.07,3.06 0.35,5.66 1.22,8.55 0.6,1.98 1.68,39.8 1.71,45.78 0.02,3.09 -0.15,6.71 0.06,9.72 0.2,2.96 0.39,5.5 0.38,8.93 -0.02,3.74 0.73,5.3 0.74,8.9l-0.42 46.63c0,3.35 0.08,5.91 -0.58,9.07l-1.24 36.73c-0.04,6.04 0.06,12.5 -0.66,18.11 -0.49,3.85 -0.12,3.62 -0.96,8.37l-1.03 27.85c-0.09,1.88 -0.81,14.84 -1.35,16.46 -0.97,2.94 -0.92,12.99 -1.42,18.45 -0.27,2.97 0.07,6.24 -0.23,9.19 -0.3,2.89 -0.54,5.79 -0.72,9l-1.27 8.02c-0.31,2.82 -0.35,6.19 -0.38,9.41 -0.03,2.94 -0.25,5.77 -0.62,8.65 -0.4,3.09 -0.34,5.93 -0.78,8.98 -0.83,5.74 -1.7,10.84 -1.81,17.23 -0.11,6.31 -1.98,10.44 -2.36,16.62 -0.37,6.16 -0.29,12.23 -1.39,17.71 -1.39,6.98 -1.57,9.67 -2,17.15 -0.08,1.4 -0.34,2.44 -0.73,3.64 -0.41,1.24 -0.58,2.72 -0.87,4.01 -1.12,4.97 -0.49,11.74 -1.91,16.73 -0.82,2.87 -1.47,4.94 -1.69,8.04 -0.2,2.78 -0.74,5.37 -1.34,7.95 -0.69,2.98 -1.01,5.18 -1.41,8.37 -0.4,3.11 -0.31,7.6 -1.43,10.3 -0.19,0.44 -0.54,1.22 -0.71,1.73 -0.53,1.52 -0.73,2.18 -0.8,4.09 -0.18,4.58 -1.5,7.54 -2.33,11.41 -0.41,1.89 0,4.57 -0.56,6.35 -0.03,0.09 -0.07,0.19 -0.1,0.28l-0.21 0.59c-0.01,0.04 -0.26,0.98 -0.26,0.99 -0.39,1.92 0.03,2.47 -0.84,3.97 -3.2,5.51 -1.75,20.76 0.18,25.25 1.05,2.46 1.47,4.41 2.66,6.67 1.85,3.5 3.01,3.92 4.09,5.57 0.85,1.3 0.43,1.99 1.46,3.04 1.33,1.35 2.81,4.02 4.49,4.89 1.41,0.72 1.77,0.36 3.47,1.35 2.74,1.6 3.44,1.96 6.49,2.9 2.35,0.72 1.54,0.92 3.29,1.54 1.27,0.45 2.65,0.29 4.15,0.72l3.74 0.72c4.5,0.48 10.13,0.33 14.26,-0.23 3.26,-0.44 7.46,0.04 10.38,-1.47 1.58,-0.82 2.82,-2.18 4.63,-2.5 2.2,-0.4 2,0.26 3.65,-0.98 1.33,-1 -0.61,-0.14 1.41,-0.98 4.79,-1.98 1.81,-0.76 4.56,-2.74 0.87,-0.63 0.61,-0.14 1.56,-0.91 1.52,-1.25 2.63,-3.64 3.66,-4.84 0.06,-0.06 0.14,-0.15 0.19,-0.21l0.98 -1.9c0.93,-3.11 1.76,-3.7 3.02,-6.72l2.15 -4.79c0.5,-1.68 0.04,0.01 0.69,-1.62 1.02,-2.58 2.17,-4.54 2.32,-7.43 0.4,-7.84 2,-2.96 2.58,-16.65l1.59 -9.61c0.33,-1.28 0.32,-0.75 0.61,-1.83 1.09,-4.15 0.59,-8.71 1.55,-12.61 0.64,-2.59 1.5,-5.07 1.73,-7.94 0.28,-3.54 0.52,-5.13 0.96,-8.36 0.21,-1.54 0.46,-2.93 0.6,-4.26 0.22,-2.19 0.48,-2.64 0.74,-4.13 0.95,-5.49 0.96,-11.86 2.14,-16.93 1.65,-7.12 1.53,-18.93 3.35,-24.65 0.77,-2.42 0.9,-5.75 1.25,-8.36 0.43,-3.15 0.15,-5.59 0.79,-8.6 0.6,-2.82 1.1,-5.34 1.4,-8.26 0.49,-4.76 0.37,-9.18 0.63,-13.76l1.99 -12.07c0.71,-7.08 2.44,-30.04 3.43,-34.27 0.59,-2.54 0.42,-6.19 0.49,-9.18 0.14,-5.74 0.84,-12.46 1.56,-17.55 0.8,-5.69 0.6,-12.37 0.7,-18.51l1.24 -27.14c0.26,-3.19 1.12,-2.56 1.16,-8.53 0.04,-6.11 0.7,-12.34 0.73,-18.23 0.14,-25.09 1.29,-49.2 1.23,-74.6 -0.04,-18.72 -1.1,-37.07 -1.23,-55.53 -0.02,-3.11 -0,-6.24 -0.05,-9.35 -0.04,-2.37 -0.42,-2.28 -0.57,-4.06l-0.39 -8.95c-0.18,-2.26 -0.34,-2.41 -0.67,-4.21 -0.51,-2.74 -0.43,-5.74 -0.8,-8.52 -1.46,-10.88 -0.04,-23.73 -1.96,-36.21l-1.19 -13.02c-0.01,-0.71 0,-1.74 -0.08,-2.41 -0.24,-1.86 -0.23,-0.71 -0.47,-1.83 -0.29,-1.37 -0.04,-2.85 -0.24,-4.24 -0.24,-1.71 -0.54,-1.58 -0.77,-4.04 -0.23,-2.52 -0.72,-6.14 -1.06,-8.69 -0.53,-4.06 -0.09,-8.92 -1.24,-12.98l-0.65 -2.97c-1.65,-6.71 -0.58,-15.31 -2.31,-22.48 -0.33,-1.37 -0.41,-2.74 -0.78,-4.12 -0.5,-1.92 -0.35,-2.07 -0.63,-4.25l-1.45 -7.8c-0.92,-2.22 -1.78,-9.55 -1.94,-12.13 -0.5,-7.89 -1.2,-4.78 -1.66,-7.72 -0.45,-2.85 -0.82,-5.67 -1.15,-8.58 -0.33,-2.98 0.1,-1.55 -1.09,-3.43 -1.7,-2.68 -1.36,-9.32 -1.85,-12.65 -0.23,-1.53 -0.74,-2.15 -1.15,-3.36 -0.43,-1.25 -0.65,-2.46 -0.86,-3.97 -0.46,-3.26 -0.28,-7.29 -1.69,-10.15 -0.26,-0.52 -0.53,-0.74 -0.81,-1.58 -0.79,-2.39 -0.47,-5.88 -0.96,-8.41 -0.5,-2.61 -1.68,-1.79 -3.02,-11.08 -0.39,-2.72 -1.63,-4.95 -2.27,-7.48 -0.37,-1.46 -0.24,-2.36 -0.57,-3.86 -0.46,-2.06 -0.89,-1.13 -1.49,-3.38 -0.71,-2.68 -0.86,-5.41 -1.47,-8.29 -0.39,-1.83 -1.91,-5.1 -2.24,-7.05 -0.65,-3.75 -0.24,-5.24 -1.56,-8.37 -1.02,-2.43 -1.05,-5.04 -1.95,-7.41 -0.87,-2.29 -0.95,-0.5 -1.6,-2.78 -0.36,-1.25 -0.37,-2.87 -0.65,-4.35 -0.53,-2.78 -1.78,-4.09 -2.39,-6.94 -0.78,-3.61 -1.91,-1.82 -2.78,-6.86 -0.66,-3.85 -2.47,-6.92 -3.48,-10.74 -0.53,-2.01 -0.77,-1.31 -1.52,-3.34 -0.38,-1.02 -0.73,-2.35 -1.06,-3.42 -0.56,-1.8 -0.86,-1.7 -1.69,-3.01 -0.82,-1.29 -0.69,-2.19 -1.31,-3.59 -1.72,-3.83 -0.95,-0.3 -2.74,-6.55 -0.51,-1.78 -0.97,-1.8 -1.61,-3.25l-5.8 -13.27c-0.65,-1.25 -0.72,-2.37 -1.18,-3.77 -0.64,-1.98 -0.89,-1.65 -1.67,-3.13l-2.12 -4.85c-0.38,-0.74 -0.38,-0.87 -0.76,-1.65 -0.54,-1.15 0.56,0.91 -0.39,-0.77l-1.53 -2.07c-1.09,-1.32 -1.03,-1.57 -1.51,-3.47 -0.76,-2.97 -2.35,-3.24 -3.17,-6.15 -0.72,-2.54 -1.7,-4.19 -3.44,-6.18 -1.77,-2.03 -1.57,-3.72 -3.33,-6 -1.57,-2.02 -4.17,-7.89 -4.92,-8.87 -1.07,-1.4 -1.05,-1.24 -1.86,-3.08l-15.25 -22.76c-3.71,-3.96 -7.31,-8.52 -10.57,-12.95l-6.63 -7.56c-0.79,-0.91 -1.36,-1.87 -2.3,-2.5l-2.44 -2.48c-0.95,-1.34 -3.3,-3.27 -4.54,-4.78 -2.08,-2.51 -8.44,-9.44 -10.63,-10.79 -3.17,-1.95 -8.17,-8.32 -10.89,-10.21l-4.78 -4.61c-0.69,-0.79 -1.72,-1.22 -2.68,-2.15 -1.91,-1.86 -3.33,-2.83 -5.16,-4.6 -1.51,-1.46 -3.43,-2.74 -5.1,-4.17 -1.7,-1.46 -3.44,-3.1 -5.3,-4.41 -1.39,-0.97 -7.74,-6.7 -10.69,-8.38 -1.56,-0.89 -1.23,-0.93 -2.38,-2.11l-7.81 -6.75c-2.35,-2 -4.71,-3.11 -6.69,-5.1l-12.17 -9.3c-1.73,-1.41 -2.96,-3.17 -5.07,-4.08l-3.02 -2.02c-1.22,-1.14 -1.63,-0.83 -3.12,-1.71 -1.48,-0.88 -0.77,-1.42 -2.65,-2.27 -1.95,-0.89 -3.51,-2.66 -5.21,-4.09 -1.87,-1.57 -3.91,-2.26 -5.63,-3.71 -2.5,-2.11 -5.09,-4.48 -8.04,-6.13 -1.92,-1.07 -1.55,-0.58 -2.66,-2.26 -1.68,-2.54 -8.16,-6.04 -10.32,-8.74 -3.2,-4 -11.13,-9.49 -13.91,-17.05l-6.22 -14.78c-2.33,-5.58 -2.19,-16.7 -0.54,-22.2 1.78,-5.93 1.02,-4.63 3.48,-10.78l6.95 -9.26c1.64,-2.19 4.24,-4.29 6.72,-5.3l11.41 -3.29c5.94,-0.67 11.48,-1.13 17.37,-1.76 1.73,-0.19 2.07,-0.51 3.65,-0.76 1.59,-0.25 2.65,-0.33 4.2,-0.64l8.17 -2.23c3.99,-1.37 3.31,-0.48 10.26,-3.13 1.3,-0.5 2.36,-0.78 3.7,-1.15 1.18,-0.32 2.39,-0.81 3.19,-1.23l1.87 -0.71c2.32,-0.78 4.03,-2.37 6.48,-3.19l3.12 -1.23c0.06,-0.04 0.57,-0.44 0.67,-0.52l0.49 -0.35c2.51,-1.58 3.54,-1.23 6.02,-4.03 0.94,-1.06 1.08,-1.52 2.29,-2.62l8.6 -8.01c1.83,-1.46 0.12,-0.57 1.78,-0.61l-0.36 -1.63c1.67,-1.1 3.01,-3 4.31,-4.56 2.11,-2.54 8.54,-9.08 9.98,-12.21 1.09,-2.37 0.5,-0.77 1.81,-2.37 0.71,-0.87 0.9,-1.93 1.53,-2.92 0.72,-1.13 1.29,-1.24 2.02,-2.42 0.75,-1.22 0.8,-1.54 1.76,-2.72l3.52 -5.4c1.69,-2.87 1.22,-2.64 3.37,-5.54l3.35 -7.55c0.82,-1.9 1.64,-1.91 2.31,-4.07 0.44,-1.42 0.54,-2.18 1.09,-3.44 1.24,-2.87 2.65,-6.4 4.28,-9.11 1.13,-1.88 0.78,-3.98 1.65,-6 1.96,-4.54 1.32,-7.68 2.83,-11.81l3.07 -13.37c3.07,-16.87 1.57,-36.83 0.62,-54.49 -0.25,-4.68 -1.23,-2.28 -1.56,-7.28 -0.23,-3.56 -1.39,-7.13 -2.36,-10.42 -0.74,-2.49 -1.1,-4.22 -1.42,-7.44 -0.22,-2.22 -0.73,-1.9 -1.2,-3.35l-1.66 -7.32c-0.46,-1.89 -0.68,-1.39 -1.19,-2.8 -1,-2.73 -1,-4.06 -2.34,-6.54 -0.98,-1.8 -1.23,-4.7 -2.06,-6.5 -0.55,-1.2 -1.01,-0.78 -1.73,-2.65 -0.41,-1.05 -0.53,-2.13 -0.95,-3.56 -0.54,-1.82 -0.8,-1.3 -1.67,-2.77 -1.5,-2.5 -0.08,-2.52 -2.64,-5.87 -1.11,-1.46 -0.65,-1.54 -1.22,-3.25 -0.77,-2.29 -1.43,-0.56 -3.24,-5.61 -0.44,-1.21 -4.57,-7.02 -4.98,-8.36 -1.18,-3.85 -1.22,-2.11 -3.06,-5.53 -1.06,-1.98 -1.2,-1.19 -1.97,-2.47 -0.62,-1.04 -0.5,-1.93 -1.33,-3.17l-3.96 -4.94c-1.04,-1.06 -0.61,-1.46 -1.69,-2.77 -0.76,-0.92 -1.34,-1.36 -1.98,-2.46 -0.82,-1.42 -0.31,-1.29 -1.61,-2.45 -2.04,-1.82 -0.5,-0.63 -1.79,-2.67 -1.2,-1.89 -3.02,-2.74 -4.19,-4.75l-5.41 -5.92c-1.42,-1.31 -1.37,-2.51 -3.04,-3.46 -2.72,-1.54 -4.2,-4.28 -6.42,-6.54 -1,-1.03 -0.99,-1.15 -2.22,-2.24 -0.89,-0.8 -1.13,-1.45 -1.96,-2.07 -1.69,-1.26 -1,0.04 -2.59,-1.89 -1.04,-1.26 -0.96,-1.14 -2.37,-2.06 -1.38,-0.9 -0.35,-0.04 -1.36,-1.09 -1.57,-1.63 -3,-0.92 -3.72,-2.29l-0.86 -1.64c-0.21,-0.18 -1,-0.44 -1.38,-0.67l-10.19 -7.65c-2.23,-1.19 -2.63,-2.06 -5.42,-3.49 -1.8,-0.92 -1.01,-1 -2.24,-1.81 -0.95,-0.62 -2.11,-0.77 -3.08,-1.39 -1.23,-0.78 -1.3,-1 -2.84,-1.64 -3.4,-1.41 -3.32,-2.6 -6.87,-4.37 -0.55,-0.28 -0.41,-0.22 -0.8,-0.46l-3.72 -1.59c-2.41,-0.89 -3.33,-1.91 -5.65,-2.85 -2.4,-0.98 -0.88,-1.06 -2.57,-1.86 -0.98,-0.46 -2.67,-0.45 -3.72,-0.77 -3.21,-0.98 -2.03,-1.94 -6.46,-2.56 -1.39,-0.19 -2.24,-0.52 -3.19,-1.19 -3.54,-2.5 -1.9,-0.84 -6.78,-2.2 -1.74,-0.48 -1.21,-0.67 -2.7,-1.33 -2.82,-1.24 -7.07,-0.97 -10.59,-2.79 -4.01,-2.06 -12.26,0 -15.71,-1.78l-2.01 -2.11c-2.65,-0.11 -5.7,-0.83 -8.06,-1.6 -4.47,-1.46 -10.15,-0.98 -15.06,-1 -4.06,-0.01 -8.07,-0.39 -12.56,-0.41l-37.7 0.39c-18.98,0.16 -9.5,0.76 -23,2.5 -2.46,0.31 -5.52,0.63 -7.96,1.73 -2.53,1.14 -5.31,1.09 -7.95,1.75 -2.94,0.73 -2.61,1.43 -9.71,2.82 -2.05,0.4 -1.78,1.13 -4.87,1.61 -4.46,0.69 -6.72,2.65 -9.42,3.17 -2.96,0.57 -2.61,0.42 -4.61,1.92 -1.9,1.42 -5.1,1.08 -7.31,2.42 -3.57,2.16 -4.72,1.33 -6.67,2.68 -0.65,0.45 -1.11,0.87 -1.97,1.24 -5.34,2.35 -2.53,2.31 -6.08,3.11 -0.69,0.15 -0.65,0.04 -1.34,0.38 -0.85,0.41 -0.4,0.15 -0.97,0.76 -2.42,2.56 -3.24,1.82 -7.1,2.2 -1.13,1.87 -1.39,1.8 -3.82,2.57 -2.18,0.69 -2.49,1.35 -4.25,2.27 -2.28,1.19 -4.25,1.13 -7.93,4.66 -2.12,2.04 -1.94,0.71 -4.15,2.33 -1.37,1 -3.52,1.63 -4.77,2.96 -1.04,1.11 -1.27,1.27 -2.91,1.8 -2.97,0.96 -0.98,1.33 -3.7,2.42 -0.98,0.39 -1.53,0.47 -2.16,1.22 -2.15,2.58 -1.13,1.02 -4.15,2.22 -1.93,0.77 -0.45,-0.06 -1.56,1.36 -1.09,1.42 -5.45,3.17 -7.41,5.14 -1.96,1.98 -2.32,0.75 -3.93,2.57 -1.56,1.78 -1.5,1.21 -3.7,2.43 -0.86,0.48 -0.91,0.7 -1.95,1.29 -0.72,0.4 -1.49,0.57 -2.14,1.07 -0.56,0.43 -0.89,1.2 -1.4,1.77l-3.37 2.75c-1.2,1.13 -2.86,1.85 -3.67,2.79 -0.97,1.13 -2.5,1.75 -3.37,2.72 -1.23,1.38 -0.52,0.51 -1.91,1.38 -1.67,1.05 -0.26,0.21 -1.53,1.66 -0.74,0.85 -0.78,0.64 -1.57,1.28l-5.32 4.41c-0.89,0.83 -0.74,0.56 -1.72,1.2 -1.36,0.89 -1.85,2.16 -2.95,3.45l-5 4.34c-3.58,3.01 -7.49,8.47 -10.92,10.96 -2.95,2.15 -2.06,0.84 -5.02,4.69 -0.62,0.81 -0.58,0.86 -1.34,1.52l-17.99 20.1c-1.15,1.12 -1.22,2.41 -2.48,3.61l-3.04 3.45c-1.56,1.83 -3.29,3.23 -4.42,5.29l-2.57 3.52c-0.76,1.07 -1.03,0.71 -1.68,1.55l-2.42 3.69c-1.71,1.73 -0.85,2.55 -2.54,3.93 -1.52,1.24 -0.39,-0.15 -1.59,1.68 -0.59,0.9 -0.49,0.74 -1.25,1.57 -1.12,1.22 -1.49,2.48 -2.69,3.8 -2.86,3.17 -2.33,4.75 -5.09,7.48 -1.7,1.68 -1.41,1.37 -2.58,3.47l-2.61 3.92c-1.13,1.51 -1.69,0.85 -2.65,3.31 -1.22,3.14 -1.24,1.86 -2.62,3.93l-2.35 3.6c-1.3,3.13 0.24,1.87 -2.27,4.39 -1.29,1.3 -1.14,2.64 -2.06,4.02 -1.33,2 -4.05,5.72 -4.81,7.69 -0.66,1.72 -0,0.78 -1.17,2.14 -2.07,2.39 -3.7,6.86 -5.89,9.9 -1.08,1.5 -1.18,2.33 -1.89,4.14 -0.87,2.25 -1.57,2.08 -2.3,4.11 -0.91,2.53 -1.13,1.82 -2.2,3.93 -1.41,2.75 -2.57,3.3 -3.44,6.17 -0.65,2.17 -2.39,3.92 -3.07,6.22 -0.65,2.18 -1.21,2.43 -2.17,4.43 -0.06,0.11 -0.22,0.43 -0.28,0.54l-3.43 8.29c-1.65,4.07 -3.76,8.09 -5.24,12.24l-0.35 0.91c-0.72,1.66 -1.48,2.45 -2.07,4.27 -0.61,1.88 -0.65,3.3 -1.67,4.99 -0.73,1.21 -1.65,5.21 -3.52,9.05 -1.76,3.63 -2.8,7.71 -4.3,11.43l-2.44 6.84c-0.27,0.85 -0.31,1.8 -0.64,2.69 -0.73,2.01 -0.47,0.26 -0.92,1.9 -0.47,1.71 -0.44,3.91 -0.9,5.72 -0.66,2.6 -1.47,1.24 -2.15,3.87 -0.48,1.86 -0.78,3.41 -1.23,5.24 -0.27,1.07 -0.31,1.39 -0.88,2.39 -1.04,1.84 -1.26,5.48 -1.85,7.48 -0.59,2.02 -1.12,1.67 -1.82,4.28l-2.65 9.76c-0.45,2.56 -0.75,5.85 -1.54,8.29 -0.67,2.04 -0.27,0.39 -0.93,1.89 -0.76,1.75 -1.53,8.56 -1.96,10.66 -0.47,2.27 -1.13,2.81 -1.54,4.88 -0.77,3.95 -0.53,6.85 -2.25,10.34 -0.66,1.34 -1.93,13.67 -2.43,16.16 -1.13,5.62 -0.72,7.71 -1.33,11.28l-2.93 22.06c-0.51,5.17 -1.24,18.16 -2.01,23.18 -0.75,4.9 -1.09,66.71 0.45,73.95l0.74 5.71c0.19,1.56 0.21,3.78 0.43,5.67 0.43,3.67 0.62,7.75 0.72,11.9 0.22,8.66 3.11,14.39 2.4,23.1z"/>
   <path class="fil0" d="M1312.83 496.71c0.07,1.02 0.54,0.5 0,1.16 -2.07,0.14 -3.07,1.59 -4.69,2.34 -2.68,1.24 -0.59,2.31 -3.61,3.1 -1.64,0.43 -1.7,-0.09 -2.84,0.87 -0.66,0.56 -0.31,0.74 -1.6,1.61 -1.17,0.78 -0.96,0.36 -2,1.26 -1.64,1.43 -2.5,1.59 -4.46,2.49 -1.11,0.51 -0.91,0.69 -1.8,1.37l-2.24 1.45c-2.41,1.68 -5.64,3.28 -6.8,4.5 -0.06,0.06 -0.14,0.15 -0.2,0.2 -2.51,2.65 -5.92,4.24 -8.31,7.06 -1.62,1.9 -3.76,3.33 -5.5,4.72l-4.33 4.08c-1.06,1.5 -5.52,5.11 -7.09,6.38l-6.27 6.99c-0.06,0.08 -0.11,0.18 -0.17,0.26l-0.6 0.72c-0.64,0.65 -1.04,0.76 -1.46,1.56 -1.36,2.53 -1.17,1.85 -3.33,3.76 -1.78,1.56 -2.1,2.1 -4.25,5.76l-8.26 12.07c-0.8,1.27 -0.74,0.63 -1.56,1.7 -1.15,1.52 -0.65,2.66 -2.3,4.24 -1.6,1.53 -1.5,2.31 -2.76,4.06l-8.35 14.73c-0.05,0.07 -0.11,0.17 -0.16,0.25l-1.19 2.4c-0.66,1.45 -1.43,2.86 -1.89,4.52 -0.51,1.81 -0.38,1.27 -1.08,2.66l-1.15 2.17c-1.44,2.12 -0.86,2.13 -1.53,4.81 -0.3,1.18 -0.46,1.58 -0.97,2.72 -1.86,4.11 -5.97,18.96 -6.41,19.65 -1.74,2.78 -1.02,6.54 -1.81,9.39 -0.9,3.23 -1.75,7.45 -1.95,11.42 -0.11,2.29 -0.13,4.63 -0.16,6.92 -0.04,3.31 -0.76,3.57 -1.04,5.73 -0.81,6.2 -0.06,13.83 -0.11,20.2l0.6 5.79c0.58,2.86 0.76,9.31 0.91,12.44 0.38,8.16 0.9,4.81 1.91,8.6 0.83,3.08 0.59,5.85 1.06,9.26 0.35,2.51 1.65,1.57 2.76,10.59 0.55,4.48 1.03,1.78 2.05,4.3 0.61,1.51 0.43,4.05 1.16,5.77 0.87,2.04 1.39,1.1 2.07,4.37 0.79,3.78 1.8,4.11 3.07,7.5 0.72,1.9 0.47,0.75 1.35,1.89 1.16,1.5 0.92,3.94 2.45,5.28 0.06,0.06 0.17,0.12 0.23,0.17 1.19,1.03 1.02,2.04 1.58,3.67 0.8,2.32 0.48,0.69 1.63,2.03 0.89,1.04 0.45,1.07 1.03,2.23 0.77,1.55 1.98,1.58 2.91,3.52l1.62 2.1c2.14,1.48 4.05,2.65 4.14,5.56l2.36 0.2c0.32,0.84 0.39,1.77 0.49,3.05 2.35,0.06 2.87,-0.22 3.85,1.31 0.9,1.42 1.35,2.13 1.42,3.93 3.73,0.34 2.26,0.87 4.33,2.58 0.07,0.06 0.17,0.12 0.24,0.17l1 0.94c0.44,0.7 0.33,1.21 0.99,1.85 0.8,0.78 0.84,0.09 1.89,1.42 1.38,1.76 -0.74,0.42 1.39,1.43 3.5,1.67 2.87,2 5.46,3.45 2.4,1.33 0.78,1.64 3.75,2.35 2.46,0.59 1.96,1.76 3.59,2.51 0.72,0.33 1.63,0.33 2.44,0.5 3.07,0.65 2.39,1.65 3.48,2.24 3.89,0.4 4.04,1.64 7.7,1.74l3.25 1.15c1.72,0.23 3.52,0.11 5.26,0.11l-0.26 0.11c-0,0.02 -0.05,0.11 -0.05,0.13 -0.22,1.29 -0.38,0.06 0.45,1.58l0.67 0.98c3.26,0.93 2.73,0.13 5.31,2.11 1.61,1.23 3.78,1.07 6.45,1.09 6.94,0.07 8.47,1.57 12.97,1.68 -0.07,-0.11 -0.05,-1.06 -0.18,0.02l0.18 0.7c2.91,0.09 11.8,-0.48 14.35,0.53 1.76,0.69 2.47,2.1 3.08,2.33 1.39,0.05 3.82,-0.3 4.58,0.42 2.01,0.47 -0.15,-0.15 1.44,1.77 0.88,1.06 3.3,1.75 4.24,2.68 1.03,1.02 2.25,1.14 2.95,2.26 0.39,0.63 0.19,0.63 0.58,1.09 0.7,0.81 -0.17,-0.02 0.75,0.59 2.74,1.81 0.66,1.21 3.63,5.17 1.23,1.64 1.15,4.82 1.86,6.68 1.43,3.74 2.26,1.54 2.23,9.48 -0.05,15.04 -1.76,9.66 -2.81,15.42 -0.28,1.54 -0.06,0.96 -0.6,2.24l-1.1 1.72c-1.91,2.27 -0.2,1.84 -3.66,5.26 -2.87,2.83 -0.26,0.98 -4.74,4.19 -1.73,1.24 -0.81,1.72 -3.66,2.04 -0.42,2.09 0.07,2.94 -1.78,3.29 -1.59,0.3 -3.01,-0.29 -4.61,0.32 -4.26,1.62 1.26,2.05 -7.69,2.24 -0.67,2.59 -2.92,2.7 -6.1,2.79 -0.31,0.68 -0.25,0.61 -0.51,1.52 -2.43,0.07 -1.84,0.31 -3.12,0.7 -2.87,0.87 -2.37,0.75 -3.53,1.93 -1.08,1.1 -2.37,1.03 -3.89,1.1l-0.81 1.96c-2.89,0.07 -4.53,1.14 -8.38,1.3 -0.17,1.73 -0.6,1.76 -1.35,2.75l-4.72 0.11c-0.57,1.09 -0.49,1.02 -1.24,2l-0.94 1.96c-0.82,0.01 -2.59,-0.07 -3.3,0.02 -3.78,0.48 0.1,-0.2 -2.06,0.94 -1.01,0.54 -1.38,0.15 -2.69,0.53l-11.52 7.63c-1.33,1.27 0.68,-0.25 -1.22,0.67 -1.22,0.59 -1.08,0.99 -1.54,1.99 -0.66,1.45 0.01,0.39 -1.59,0.92 -1.57,0.52 -1.81,1.7 -3.43,2.28 -0.09,0.03 -0.2,0.07 -0.29,0.1 -3.07,0.96 -3.01,-0.68 -3.07,3.17 -2.75,-0.01 -3.1,-0.45 -3.26,2.42 -6.1,0.75 -4.02,3.2 -7.61,3.35l-0.18 2.36c-0.93,0.35 -2.32,0.44 -3.7,0.68 -0.49,0.91 -1.01,1.64 -1.64,2.39 -2.04,2.41 -2.35,1.59 -3.61,4.2 -0.78,1.61 -1.48,0.72 -2.82,2.83 -0.64,1 -2.39,1.48 -3.26,2.32 -2.35,2.25 -1.72,1.33 -3.05,4.49 -0.52,0.17 -0.7,0.06 -1.33,0.34 -1.46,0.65 -1.57,1.45 -3.11,2.24 -0.06,1.28 -0.32,2.81 0.75,3.5 -0.59,1.81 -1.43,-0.76 -0.63,1.73 -0.23,-1.21 0.18,-0.81 -0.85,-1.37 -2.28,-1.25 -2.26,1.06 -3.12,2.07 -1.57,1.84 -2.06,2.51 -4.54,2.73 -0.31,2.39 0.07,2.22 -1.17,3.72 -0.06,0.07 -0.14,0.15 -0.2,0.22l-1.83 2.6c-1.06,1.04 -1.76,0.95 -2.49,2.53 -0.59,1.29 0.35,0.33 -0.56,1.31 -0.88,0.87 -1.13,0.33 -2.04,1.18 -1.2,1.11 -0.24,0.7 -1.11,1.78 -1.48,1.83 -2.01,-0.5 -2.12,3.92l-2.61 0.22c-0.6,4.33 -3.91,5.59 -5.51,9.09 -1.62,3.55 -1.54,1.27 -3.6,6.19 -0.44,1.06 -0.2,0.54 -1,1.36 -1.08,1.12 -1.87,3.2 -2.82,4.48 -1.28,1.72 -1.89,4.54 -3.55,6.19 -2.17,2.15 -2.74,5.24 -4.3,7.84 -2.59,4.33 -0.81,1.77 -2.14,5.24 -0.58,1.52 -1.71,0.93 -3.52,6.08 -1.79,5.09 -3.92,7.33 -4.39,10.28 -0.55,3.44 -2.19,3.3 -2.88,6.89 -0.46,2.43 -1.28,3.17 -2,5.26 -0.64,1.86 -0.96,3.74 -1.99,5.27 -1.57,2.33 -1.49,4.7 -2.27,7.51 -0.66,2.39 -1.13,0.91 -2.82,6.78 -0.56,1.92 -1,1.37 -1.45,3.36 -0.66,2.88 -0.99,5.23 -1.7,8.15 -0.49,2.03 -0.97,1.94 -1.44,3.37 -0.71,2.17 0.12,3.04 -1.62,3.85 0.34,2.19 -0.9,3.36 -1.51,4.77l-5.57 26.85c-0.71,3.85 -0.69,9.65 -1.7,12.98 -0.04,0.13 -0.17,0.45 -0.22,0.57 -0.03,0.09 -0.07,0.19 -0.1,0.29 -0.03,0.1 -0.07,0.2 -0.09,0.3l-0.76 2.44c-0.51,1.51 -0.65,3.82 -0.73,5.57 -0.19,4.31 -1.14,7.64 -1.67,11.42 -1.08,7.79 -1.11,16.14 -2.13,23.79 -2.01,15.24 -1.95,33.02 -1.97,49.92 -0.01,12.6 0.22,56.61 2.19,69.44 0.7,4.59 0.39,13.65 0.76,18.87 0.81,11.69 2.73,23.67 3.47,35.31 0.3,4.75 0.89,7.32 1.38,11.69 0.42,3.75 0.84,8.08 1.14,11.81 0.61,7.51 2.47,15 3.11,22.73l4.37 28.02c1.18,5.37 0.39,12.34 2.02,17.45 1.87,5.86 1.68,17.1 2.83,19.88 0.73,1.76 0.4,-0.51 0.89,2.29 0.95,5.45 0.76,12.17 2.22,17.71 1.41,5.38 1.24,11.72 2.5,16.93 1.72,7.09 1.51,15.66 2.97,22.98 1.43,7.19 1.44,15.74 2.97,22.92 1,4.69 1.78,18.72 2,24.09 0.15,3.5 1.28,7.75 1.57,11.34 0.66,8.16 0.41,16.69 1.39,24.61 0.47,3.78 0.33,8.11 0.82,12.13 0.43,3.47 0.69,8.39 0.7,12.3l0.58 25.28c0.77,6.64 0.36,71.51 -0.72,76.78l-1.88 24c-0.16,12.39 -2.9,23.36 -3.32,35.69 -0.31,8.98 -2.07,13.15 -2.38,17.01 -0.17,2.1 -0,4.26 -0.26,6.38 -0.74,6.1 -1.53,6.59 -2.1,10.82 -0.53,3.94 -1.08,7.62 -1.36,11.59 -0.22,3.08 -0.78,2.9 -1.37,5.08 -0.49,1.8 -0.24,3.8 -0.75,5.77l-2.26 11.07c-0.65,4.37 -1.02,6.56 -2.51,10.5l-1.51 4.96c-2.13,5.23 -1.82,11.21 -3.1,16.43 -1.85,7.53 -1.62,15.26 -1.54,24.41 0.02,2.07 0.21,10.76 0.91,12.12l1.89 4.61c0.49,2.17 1.27,2.29 2.42,4.04 0.54,0.81 0.73,1.26 1.32,1.91 0.74,0.81 0.72,0.57 1.55,1.7 1.43,1.95 3.22,3.15 5,4.72 0.68,0.6 1.26,0.85 1.81,1.44l0.35 0.45c0.07,0.09 0.24,0.39 0.32,0.47 0.79,0.91 2.13,0.75 3.44,1.48 1.89,1.06 1.74,1.45 4.45,2.1 1.78,0.43 3.7,0.87 4.96,1.85l0.47 0.36c4.11,2.6 18.69,1.73 22.53,1.24 8.94,-1.14 5.36,-1.55 10.12,-2.87 0.98,-0.27 1.76,-0.3 2.74,-0.54 2.25,-0.56 0.8,0.01 2.09,-1.19 1.37,-1.28 2.99,-1.32 4.32,-2.16 1.06,-0.66 0.33,-0.75 1.55,-1.69 1.47,-1.13 0.65,0.23 1.82,-1.43 0.78,-1.1 0.13,-0.78 1.39,-1.82l3.34 -3.56c1.09,-1.12 1.38,-2.93 2.4,-4.1 1.66,-1.9 1.54,-1.89 2.04,-4.53 0.34,-1.78 0.54,-1.33 1.52,-2.43 0.96,-1.07 1.32,-2.77 1.56,-4.09 0.98,-5.42 1.45,-1.74 2.65,-10.43 0.67,-4.9 2.14,-3.06 2.5,-10.62 0.37,-7.68 1.99,-5.08 2.63,-10.29 0.29,-2.39 0.11,-3.42 0.79,-5.62l1.75 -4.74c0.31,-1.73 0.04,-4.56 0.19,-6.45 0.67,-8.39 3.22,-10.44 3.34,-15.85 0.09,-4.35 0.09,-8.42 1.13,-11.93 1.81,-6.1 1.25,-11.44 1.89,-17.6l1.37 -8.31c0.55,-3 0.37,-5.8 0.73,-9.05 0.41,-3.67 0.68,-7.96 1.06,-11.86 0.35,-3.52 1.48,-7.7 1.61,-11.37 0.3,-8.49 1.08,-16.7 1.2,-24.75 0.06,-4.22 1.24,-7.64 1.26,-12.15 0.03,-4.67 0.58,-7.52 0.61,-12.17 0.05,-8.24 0.35,-16.94 0.48,-25.54 0.32,-21.76 -0.39,-43.06 -0.54,-64.45 -0.05,-7.52 -1.45,-17.22 -1.56,-24.32l-4.26 -53.98c-0.35,-3.93 0.05,-8.23 -1,-12.01 -1.3,-4.61 -1.31,-17.65 -2.02,-23.99 -0.23,-2.05 -0.74,-3.66 -1.09,-5.36 -0.76,-3.69 -0.77,-7.98 -1.22,-11.76 -0.26,-2.22 -0.07,-3.91 -0.53,-5.93 -1.65,-7.23 -1.45,-9.62 -2.28,-17.18 -0.23,-2.06 -0.2,-4.24 -0.42,-6.06 -0.32,-2.65 -0.86,-2.62 -1.37,-5.05 -0.34,-1.65 -0.64,-4.14 -0.69,-5.8 -0.03,-1.07 0.02,-2.23 -0.04,-3.29l-1.08 -8.57c-1.47,-7.21 -1.94,-9.11 -2.14,-17.35 -0.11,-4.53 -1.09,-7.76 -1.6,-11.43 -1.02,-7.35 -0.44,-16.7 -2.5,-23.5 -1.56,-5.19 -1.24,-12.09 -1.87,-17.67 -0.19,-1.7 -0.78,-3.65 -1.04,-5.39 -0.29,-1.92 -1.08,-10.16 -1.4,-10.92 -0.83,-0.81 -0.49,-0.26 -0.87,-1.61 -0.11,-0.36 -0.1,-1.22 -0.11,-1.64 -0.03,-1.18 -0.11,-1.52 -0.32,-2.28 -0.33,-1.19 -0.33,-1.31 -0.54,-2.8 -0.14,-0.96 -0.23,-1.25 -0.31,-2.59 -0.13,-2.05 -0.5,-3.64 -0.71,-5.29 -0.24,-1.87 0.04,-3.72 -0.16,-5.54 -1.3,-12.26 -3.05,-19.27 -3.2,-32.97 -0.1,-9.45 -0.35,-4.61 -1.04,-10.53 -1.52,-13.05 -1.8,-31.95 -2.01,-45.82 -0.08,-5.36 0.33,-19.57 -0.58,-23.35 -2.11,-8.83 0.41,-13.83 0.39,-22.05 -0.02,-9.68 0.24,-38.06 1.44,-46.18 0.63,-4.22 1.32,-5.81 1.56,-10.57 0.35,-7.11 0.25,-15.13 2.34,-21.68 0.9,-2.8 0.89,-6.92 1.18,-10.46 0.53,-6.63 1.2,-5.68 2.04,-10.17 0.65,-3.45 0.43,-7.29 1.13,-10.7l1.2 -3.75c0.04,-0.07 0.11,-0.17 0.14,-0.24 0.55,-1.13 0.75,-4.49 0.94,-5.93 1.08,-7.83 1.32,-4.93 2.42,-9.32 0.63,-2.51 0.31,-5.81 1.36,-8.03 0.61,-1.28 0.81,-1.05 1.21,-1.61 0.92,-1.3 0.63,-2.83 1.03,-4.85 0.31,-1.55 0.34,-1.28 0.94,-2.11 1.95,-2.71 1.13,-3.65 1.87,-6.85 0.68,-2.98 1.48,-1.36 2.09,-3.96 0.57,-2.44 0,-3.07 1.31,-4.99 1.59,-2.33 1.49,-3.87 2.48,-6.32 0.78,-1.92 0.27,-0.65 1.16,-1.77 1.48,-1.88 0.93,-5.09 1.63,-7.51 0.59,-2.06 2.56,-2.26 2.85,-5.53 3.35,-0.64 1.43,-1.46 3.45,-3.84 1.78,-2.09 1.74,-1.72 1.76,-5.37 0.76,-0.35 0.65,-0.12 1.46,-0.65l3.07 -3.08c1.97,-1.87 0.99,-3.22 3.98,-4.56l0.03 -2.41c4.39,-1.28 1.32,-0.39 3.33,-2.34 1.54,-1.48 2.41,0.33 2.76,-2.91 1.5,-0.21 2.31,-0.49 3.47,-1.37 0.66,-0.5 0,0.13 0.67,-0.62 1.06,-1.19 1.37,-1.38 2.82,-1.86l1.07 -0.46c-0.86,-2.05 -0.83,-1.26 -2.78,-2.03 0.08,-1.67 1.49,-2.17 3,-2.19 0.36,0.69 0.63,1.34 0.95,2.17l5.1 -0.55c0.74,-1.07 0.56,-1.74 2,-2.28 1,-0.37 2.67,-0.23 4.08,-0.46 1.62,-0.26 1.11,-0.48 2.52,-1.09 5.94,-2.54 13.43,-1.54 19.81,-1.22 4.91,0.24 3.92,1.49 6.18,2.23 2.46,0.81 5.11,0.4 7.26,1.33 2.5,1.08 0.27,0.87 2.65,1.8 1.19,0.46 2.04,0.18 3.06,1 1.99,1.62 -0.48,1.22 2.67,1.9 1.1,0.24 2.32,0.44 3.44,0.48 0.24,3.72 1.81,1.23 3.78,5.06 6.07,0.38 3.62,3.08 7.57,3.45 0.33,3.74 1.76,1.5 3.04,3.37 0.62,0.91 0.44,1.29 1.65,1.79 1.63,0.67 0.85,-0.39 1.5,1.49 0.44,1.29 0.69,1.26 1.58,1.84l1.56 1.64c1.04,0.91 -0.16,-0.07 1.06,0.6 0.89,0.48 0.03,-0.64 0.92,0.65 0.22,0.32 0.43,1.67 0.65,2.21 4.76,1.9 0.39,0.94 4.17,4.33l0.43 0.37c1.17,1.1 2.56,2.06 3.37,3.52l2.12 3.16c1.19,1.31 0.4,0.78 1,1.83 1.35,2.37 3.04,0.49 2.96,4.91 -0.07,3.92 0.97,7.04 -2,8.27 -1.73,0.71 -3.15,0.17 -4.53,1.27 -0.58,0.46 -1.86,1.65 -3.15,1.94 -1.41,0.33 -3.25,0.2 -4.44,0.94 -2.02,1.25 0.28,1.27 -3.22,1.98 -3.3,0.67 -3.54,2.15 -7.94,3.02 -4.78,0.94 -1.6,3.22 -7.33,3.2 -1.04,0.39 -0.26,0.15 -0.75,0.58 -2.27,1.99 -3.1,0.81 -5.83,1.94 -0.67,3.68 0.88,1.61 1.91,3.44 -2.37,0.1 -1.69,-0.21 -3.87,-0.72 -1.07,-0.26 0.28,-0.02 -0.75,-0.12 -6.07,-0.59 -5.31,1.23 -6.31,2.85 -3.67,0.27 -3.41,0.72 -4.67,3.65l-3.39 -0.67c-1.72,2.48 -1.84,2.2 -5.52,2.91 -1.06,0.66 -0.27,1.56 -2.41,2.4 -2.67,1.05 -1.25,0.15 -2.05,2.59 -1.6,0.34 -3.19,0.13 -3.99,1.21l-1.35 3.06c-0.01,0.01 -1.12,0.78 -1.4,0.92 -2.84,1.36 -3.22,-0.76 -3.28,3.32 -2.93,0.07 -3.14,0.84 -5.06,2.61 -0.09,0.08 -0.34,0.32 -0.42,0.41 -0.08,0.09 -0.42,0.59 -0.51,0.73 -1.07,1.58 -2.63,1.73 -2.81,4.45 -3.61,0.24 -1.7,1.53 -3.9,3.39 -0.94,0.8 -0.97,1.79 -1.8,2.69 -0.66,0.72 -0.74,0.42 -1.28,1.12 -0.64,0.85 -0.71,2.05 -1.41,3.04 -0.99,1.41 -1.81,1.02 -2.28,2.39 -0.58,1.72 0.09,1.7 -1.12,3.49 -1.01,1.48 -1.08,0.63 -1.57,2.98 -0.3,1.44 -0.13,2.3 -1.02,3.43 -1.11,1.39 -1.44,0.53 -1.76,3.16 -0.19,1.53 -0.02,2.77 -0.27,4.28 -0.11,0.71 -0.52,3.04 -0.75,3.68 -0.66,1.8 -1.06,1.09 -1.64,2.82l-2.17 5.09c-0.5,1.07 -0.19,0.1 -0.55,1.53 -0.36,1.43 -0.36,4.41 -1.4,5.29l-1.43 0.87c-0.76,13.29 -2.19,9.56 -2.86,13.32 -0.83,4.67 -0.83,20.49 -0.85,25.59 -0.02,7.19 0.41,13.91 0.45,20.67 0.02,2.91 -0.47,7.32 1.14,9.58 2.41,3.4 1.18,9.72 2.28,13.96 0.65,2.47 0.09,0.58 1.01,1.84 1.26,1.72 1.06,3.96 1.72,6 0.58,1.79 1.28,1.31 1.76,3.47 0.32,1.43 0.35,2.92 0.86,4.54 0.83,2.65 1.09,1.57 1.94,3.24 0.66,1.3 0.51,3.04 1.03,4.25 0.67,1.57 1.5,0.91 2.14,3.16 0.22,0.77 0.22,1.79 0.45,2.47 0.7,2.07 1.76,1 2.93,4.67 0.82,2.56 1.13,1.04 1.98,3.25 0.54,1.37 0.43,3.02 1.29,4.01 1.04,1.21 1.39,0.77 2.19,3.13 1.39,4.13 -0.2,0.57 2.18,2.98l6.37 9.96c0.72,1.37 1.41,1.74 2.24,2.96l4.55 5.91c2.71,2.07 1.01,2.17 3.2,3.6 0.98,0.63 1.01,1.22 1.77,2.02 0.98,1.04 0.48,-0.04 1.51,1.37l2.36 2.87c0.42,0.43 0.03,-0.01 0.58,0.71 0.06,0.07 0.44,0.65 0.49,0.71 0.69,0.86 0.71,0.61 1.41,1.37 0.98,1.06 1.29,1.92 2.46,2.67l7.88 8c1.08,0.95 2,0.61 3.89,2.67 0.44,0.49 0.21,0.19 0.58,0.69 1.33,1.83 3.33,3.93 5.33,5.02 2.32,1.26 8.1,4.77 9.67,6.67 1.31,1.58 1.47,0.93 3.16,2.06l8.2 5.15c2.03,1.05 2.2,2.1 4.5,3.1 1.62,0.71 2.1,1.66 3.1,2.2 2.23,1.19 1.38,-0.63 3.59,1.83 0.8,0.89 -0.69,0.31 1.62,0.96 3.97,1.13 2.17,0.09 5.53,2.32 2.11,1.41 5.65,0.11 7.28,2.1 1.28,1.55 2.67,1.33 4.67,1.94 1.61,0.49 2.04,0.83 2.83,2.23 2.33,0.17 4.98,0.09 6.43,1.04 2.44,1.62 -1.03,1.03 5.22,2.19 2.95,0.54 2.91,1.67 4.92,2.3 1.28,0.4 4.95,0.69 6.69,0.72 1.15,1.65 0.65,1.73 3.16,2.04 2.59,0.32 6.59,0.13 8.93,1.52 1.13,0.67 0.28,0.61 1.72,1.13 3.21,1.16 8.77,0.28 12.29,0.72l6.47 1.44c1.79,0.63 -1.13,-0.15 1.08,0.59 7.24,0.51 15.03,0.43 22.3,0.31 2.32,-0.04 4.57,0.24 6.54,-1 0.07,-0.04 0.16,-0.12 0.23,-0.16l0.48 -0.31c3.07,-1.69 15.7,-0.41 21.8,-2.51 3.91,-1.35 4.85,-0.98 9.32,-1.57 4.26,-0.56 1.06,-1.23 3.57,-2.08 0.46,-0.15 3.98,-0.5 4.7,-0.59 5.23,-0.59 3.1,-1.17 6.35,-2.25l10.52 -3.24c6.67,-1 4.28,-1.26 8.65,-2.57 1.43,-0.43 0.99,-0.2 2.11,-0.67l0.56 -0.25c0.12,-0.05 0.48,-0.19 0.61,-0.23l5.95 -3.28c1.98,-1.33 3.33,-1.51 5.04,-3l7.09 -3.89c3.2,-1.51 1.08,0.26 3.42,-2.15 1.48,-1.52 2,-0.83 3.8,-1.63 1.58,-0.71 0.17,-0.17 1.42,-1.3 1.14,-1.04 0.84,-0.45 1.94,-1 1.46,-0.74 1.46,-1.51 2.87,-2.3 1.7,-0.96 0.72,-1.94 2.94,-2.61 0.65,-0.19 1.63,-0.2 2.34,-0.56 1.77,-0.9 0.87,0.77 1.07,-1.64 -0.58,-1.22 0.02,-0.36 -1.04,-0.93 -0.03,-0.02 -0.82,-0.25 -0.96,-0.3 -1.57,-0.56 -0.83,0.29 -1.22,-0.8 1.69,-0.64 1.7,0.22 3.62,-0.98 0.06,0.16 0.19,0.57 0.4,0.8l1.27 0.44c0.03,-0 0.13,-0.02 0.16,-0.02l1.61 -0.92c2.19,-1.21 3.76,-2.09 5.94,-4.76 0.93,-1.15 -0.41,-0.49 1.22,-1.08 2.22,-0.81 2.28,0.44 3.89,-1.51l0.33 -0.48c1.04,-1.37 2.12,-1.62 3.54,-2.48l1.82 -1.8c1.96,-1.27 2.26,0.59 2.48,-2.83 1.24,-0.3 2.22,-0.19 2.41,-1.41 0.35,-2.36 -0.13,-0.58 -1.57,-2 0.02,-1 -0.02,-3.01 1.22,-2.56 0.65,0.23 1.22,2.47 1.25,2.41 0.03,-0.06 0.1,0.24 0.18,0.34 3.32,0.09 2.1,-0.95 4.14,-3.36 0.06,-0.07 0.13,-0.17 0.19,-0.23 1.35,-1.65 3.09,-2.41 5.52,-2.53 -0.3,-0.93 -0.43,-0.71 -0.56,-0.92 -0.7,-1.13 -0.96,-1.88 -0.37,-3.44 3.25,0.04 0.24,0.86 3.24,1.61 1.02,-0.58 0.29,-0.19 0.85,-1.06 0.77,-1.19 1.21,-1.1 2.23,-2.17 0.59,-0.62 0.59,-1.17 1.13,-1.66 0.64,-0.57 1.5,-0.34 2.06,-1.02 1.65,-3.77 0.37,-0.9 2.46,-3.02 0.31,-0.32 0.77,-1.1 1.24,-1.63 2.31,-2.61 2.82,-2.4 4.54,-3.95 0.86,-0.78 0.14,-0.56 1.49,-1.4 2.15,-1.34 1.3,-1.31 2.78,-2.87 0.6,-0.63 0.81,-0.43 1.48,-1.29 0.59,-0.75 0.3,-0.79 1.15,-1.72l2.65 -3.05c1.28,-0.93 1.46,-0.7 2.35,-2.02 0.39,-0.58 0.26,-0.42 0.57,-0.73 0.87,-0.85 0.88,-0.38 1.49,-1.28 0.57,-0.84 0.13,-0.76 1.09,-1.85l2.63 -3c0.52,-0.56 1.13,-0.94 1.54,-1.33 1.02,-0.95 1.24,-2.42 2.15,-3.49 0.88,-1.04 0.47,-0.18 1.31,-1.5 0.89,-1.41 -0.37,-0.43 1.41,-1.52 2.66,-1.62 0.7,-1.07 2.08,-3.5 0.94,-1.67 1.67,-0.81 2.7,-3.02 1.24,-2.64 3.08,-4.6 5.82,-5.64 0.15,-1.45 1.08,-1.31 1.98,-2.34l3.58 -5.36c1.05,-1.65 2.5,-2.63 3.03,-3.85 0.36,-0.85 0.17,-0.94 0.6,-1.86l1.65 -2.86c0.84,-1.85 2.07,-2.21 3.04,-3.78l13.48 -20.11c0.48,-1.02 0.74,-2.3 1.22,-3.29 0.65,-1.35 1.2,-1.3 2.02,-2.82 0.58,-1.07 0.77,-2.16 1.33,-3.14 0.56,-0.98 1.01,-1.31 1.74,-2.7 1.48,-2.81 2.09,-2.81 3.37,-5.93 0.7,-1.71 1.02,-1.09 1.72,-2.76 1.84,-4.33 1.85,-3.18 3.07,-5.83 1.21,-2.66 2.63,-3.55 3.02,-6.34 0.41,-2.84 1.67,-3.8 2.59,-6.32 2.6,-7.05 1.59,-2.54 3.12,-5.76 0.49,-1.02 0.59,-2.18 1.3,-3.18 2.24,-3.17 1.51,-4.03 2.91,-6.37 2.37,-3.93 3.56,-10.53 5.07,-13.21 1.53,-2.72 2.52,-6.81 3.97,-9.41 0.74,-1.33 0.6,-2.67 0.93,-4.03 0.5,-2.13 0.74,-1.48 1.48,-2.91 0.86,-1.66 1.35,-4.87 2.07,-6.88 1.21,-3.4 1.28,-0.55 1.93,-7.17 0.17,-1.78 -0.01,-0.72 0.44,-1.86l0.63 -1.37c0.91,-1.65 0.93,-0.6 1.55,-2.96 0.44,-1.69 0.33,-2.65 0.61,-4.3 0.4,-2.33 0.8,-0.86 1.74,-2.61 1.54,-2.86 -0.18,-6.37 2.51,-10.02 0.35,-0.47 0.18,-0.07 0.51,-0.72 1.14,-2.26 -0.24,-5.93 2.42,-10.98 1.09,-2.07 0.88,-5.56 1.36,-8.08 0.38,-1.98 0.56,-1.58 1.36,-2.98 1.5,-2.63 0.86,-7.72 2.51,-10.87 1.16,-2.21 1.11,-4.66 1.37,-7.69 0.3,-3.54 1.07,-4.7 1.93,-7.29 0.8,-2.44 0.57,-5.13 0.9,-8.07l2.2 -11.5c0.56,-2.8 0.43,-5.78 0.6,-8.85 0.09,-1.73 0.47,-2.18 0.68,-3.69 1.16,-8.38 1.71,-0.87 1.78,-16.17 0.03,-6.5 1.17,-10.71 1.18,-17.03 0,-4.07 1.16,-4.33 1.24,-7.67 0.26,-10.35 1,-45.39 0.22,-53.91 -0.46,-4.96 0.03,-7.53 -1.31,-12.46 -0.81,-2.96 -0.65,-25.92 -2.35,-29.72 -2.05,-4.59 -0.59,-2.19 -1.32,-7.52 -0.56,-4.11 -0.01,-8.54 -1.11,-12.35 -0.43,-1.52 -0.74,-1.35 -1.21,-3.19 -0.85,-3.34 -0.39,-9.37 -1.35,-12.44 -0.6,-1.91 -1.21,-1.38 -1.65,-2.74 -0.68,-2.13 -0.36,-5.59 -1.03,-7.9 -0.74,-2.56 -2.14,-2.89 -2.47,-6.27 -0.35,-3.65 0.65,-5.91 -1.2,-8.37 -1.94,-2.58 -1.02,-7.69 -2.83,-10.5 -2.2,-3.43 -1.14,-9.98 -1.76,-11.41l-0.55 -0.46c-2.09,-2.01 -2.19,-5.36 -2.27,-8.05 -0.1,-0.09 -0.25,-0.16 -0.34,-0.21l-1.65 -1.61c-0.99,-2.48 -0.78,-5.74 -0.86,-8.72 -0.1,-0.09 -0.25,-0.17 -0.35,-0.22 -0.09,-0.05 -0.23,-0.15 -0.34,-0.21 -0.11,-0.06 -0.22,-0.12 -0.33,-0.18 -2,-1.09 0.31,0.44 -0.83,-0.39 -0.7,-0.51 -0.52,0.57 -0.54,-1.43 -0.07,-10.46 -1.78,-7.8 -2.49,-10.66 -0.57,-2.31 -0.45,-4.88 -1.63,-7 -0.68,-1.21 -0.71,-1.29 -1.12,-2.9 -0.89,-3.54 -1.04,-3.19 -2.28,-5.84 -0.81,-1.74 -0.81,-5.28 -1.74,-6.84 -0.66,-1.12 -1.01,-0.91 -1.71,-2.68 -0.53,-1.34 -0.56,-1.73 -1.23,-2.85 -2.87,-4.8 -1.15,-4.27 -2.36,-8.16l-0.81 -1.3c-1.63,-1.87 -1.46,-4.76 -2.91,-6.8l-1.01 -1.76c-0.42,-1.14 -0.56,-2.08 -1.3,-3.21 -0.84,-1.3 -0.81,-0.75 -1.56,-2.46 -0.48,-1.09 -0.42,-1.89 -0.81,-3.57 -0.42,-1.83 -0.85,-1.39 -1.53,-2.61 -0.91,-1.65 -0.69,-4.15 -2.06,-6.09 -2.14,-3.01 -2.7,-6.83 -4.39,-8.63 -0.96,-1.02 -1.37,-0.56 -2.14,-1.8 -0.61,-0.98 -0.69,-2.31 -0.9,-3.46l-0.76 -2.6c-0.88,-1.48 -1.11,-1.05 -1.76,-3.09 -1.22,-3.86 -2.22,-2.84 -2.87,-5.62 -1.01,-4.3 -1.75,-2.22 -2.81,-5.72 -0.62,-2.06 -0.55,-1.35 -1.5,-2.61 -1.04,-1.38 -0.65,-1.68 -1.34,-3.13l-2.92 -5.15c-1.73,-3.89 -0.51,1.58 -3.11,-5.38 -0.63,-1.69 -1.66,-2.48 -2.59,-3.95 -0.67,-1.07 -0.19,-0.31 -0.87,-1.16 -3.17,-3.97 -2,-3.58 -3.26,-5.25 -0.6,-0.8 -1.13,-1.41 -1.44,-2.5 -0.81,-2.85 0.17,-0.94 -1.64,-2.56l-4.21 -6.18c-1.24,-2.43 -1.74,-0.51 -2.81,-3.63 -0.42,-1.22 0.08,-0.13 -0.39,-0.94l-2.21 -3.13c-0.5,-0.5 -0.8,-0.55 -1.21,-0.85 -0.78,-0.59 -1.38,-1.46 -1.59,-2.21 -0.88,-3.17 -0.39,-1.69 -2.16,-4.07l-3.52 -4.93c-0.92,-1.76 -1.59,-1.17 -2.66,-3.41 -0.91,-1.91 -5.37,-7.76 -7,-8.98 -2.31,-1.74 -0.99,-2.52 -2.5,-3.21 -1.59,-0.73 -0.55,0.08 -1.93,-1.54l-2.61 -1.51c-0.01,-0.81 0.05,-1.26 -0.17,-2.04l-0.75 -1.49c-2.3,-2.99 -4.96,-2.94 -5.26,-7.72 -4.61,-0.19 -2.41,-2.04 -5.17,-2.98 -0.12,-3.6 0.06,-2.18 -1.63,-4 -0.17,-0.18 -0.47,-0.59 -0.71,-0.89 -0.06,-0.07 -0.13,-0.16 -0.18,-0.22l-1.47 -1.78c-2.19,-2.61 -5.56,-5.23 -7.31,-8.11 -0.9,-1.47 -2.88,-2.21 -4.3,-3.41 -0.12,-0.1 -1,-0.95 -1.24,-1.18 -0.11,-0.11 -0.44,-0.46 -0.61,-0.61l-2.02 -1.59c-1.02,-1.2 -1.06,-1.79 -2.41,-2.9l-5.34 -4.74c-0.63,-0.8 0.07,-0.41 -1.2,-1.3 -0.54,-0.37 -0.2,-0.11 -0.81,-0.44 -1.43,-0.78 -2.06,-2.14 -3.28,-3.16 -0.44,-0.37 -0.95,-0.89 -1.33,-1.14 -0.59,-0.4 -1.13,-0.54 -1.59,-0.84 -1.31,-0.83 -1.43,-1.81 -2.72,-2.56 -2.1,-1.22 -2.09,-2.48 -2.34,-2.63 -4.49,-0.6 -2.8,-0.31 -4.7,-3.08 -0.1,-0.07 -0.25,-0.13 -0.34,-0.17 -2.69,-1.16 -1.21,-0.34 -3.41,-2.31 -1,-0.89 0.29,0.22 -1,-0.67 -1.68,-1.15 -0.63,-0.95 -1.94,-2.08l-4.84 -3.03c-1.65,-0.5 -1.35,0.12 -2.91,-0.67l-0.74 -0.44c-1.94,-1.23 -1.96,-1.93 -4.48,-1.93 -1.7,-2.72 -2.08,-2.5 -2.8,-3.59 -0.98,-1.49 0.38,-0.92 -1.61,-1.84 -0.97,-0.44 -1.45,-0.31 -2.3,-0.6 -2.15,-0.74 -0.87,-1.61 -2.57,-2.32l-1.81 -0.48c-0.44,-1.7 0.34,-1.5 -1.7,-2.08 -1.06,-0.3 -1.57,-0.17 -2.73,-0.52 -1.43,-0.43 -0.94,-0.71 -1.96,-1.18 -1.21,-0.56 -1.52,-0.28 -2.87,-0.5 -0.12,-0.02 -0.77,-0.22 -0.84,-0.26l-2.54 -1.47c-1.36,-0.89 0.12,-0.19 -1.33,-1.82 -1.57,-1.78 -1.6,-0.25 -2.95,-3.12 -1.62,-0.04 -2.87,0.11 -3.71,-0.77 -1.15,-1.18 -4.98,-4.45 -6.49,-4.94 -3.94,-1.28 -1.93,-0.7 -4.28,-2.14 -1.31,-0.8 -2.17,-0.35 -3.59,-0.94 -0.92,-0.38 -1.42,-1.2 -2.2,-1.78 -1.99,-1.48 -4.25,-0.5 -6.59,-2.7 -1.05,-0.99 -1.58,-0.75 -3.18,-1.35 -3.26,-1.24 -2.3,-1.69 -6.61,-2.38l-11.4 -4.31c-1.06,-0.62 0.04,-0.22 -1.37,-0.68 -2.37,-0.77 -5,-1.01 -7.28,-1.64 -2.19,-0.61 -1.25,-1.04 -2.91,-1.5 -0.98,-0.27 -3.1,-0.28 -4.05,-0.46 -2.62,-0.5 -4.97,-1.7 -6.86,-2.07 -1.54,-0.3 -2.4,-0.23 -3.85,-0.58 -2.4,-0.57 -5.01,-0.88 -7.15,-1.75 -1.58,-0.65 -9.99,-1.25 -11.99,-1.41 -3.87,-0.31 -7.9,-1.68 -11.37,-1.93 -9.53,-0.69 -29.99,-0.81 -38.28,0.53 -1.45,0.23 -2.86,0.04 -4.19,0.3 -1.1,0.22 -1.9,0.85 -3.39,1.02 -2.54,0.3 -5.93,0.41 -8.46,0.48 -3.82,0.1 -4.55,0.63 -7.46,1.51 -2.25,0.67 -5.25,0.95 -7.6,1.28 -3.96,0.54 -3.9,1.62 -6.74,2.17 -2.64,0.51 -4.94,0.5 -7.22,1.72l-13.22 4.58c-1.56,0.39 -2.06,0.46 -3.34,1.17 -1.67,0.93 -1.05,0.72 -3.17,1.3 -1.4,0.37 -2.11,0.56 -3.3,1.17 -1.04,0.54 -0.2,0.23 -1.68,0.79l-7.47 3.44c-3.12,1.26 -3.67,2.65 -6.07,2.46z"/>
   <path class="fil0" d="M1017.05 985.36c2.28,0.09 2.23,1.07 3.2,2.56 1.15,1.78 1.92,0.74 2.35,2.98l2.65 0.54c0.26,2.19 -0.27,2.09 1.06,3 1.4,0.95 0.18,-0.62 1.18,0.75 0.66,0.9 -0.15,0.74 0.78,1.7 2.42,2.53 2.74,-2.62 3.19,5.22l2.26 0.66c0.51,6.91 2.56,-2.08 3.46,7.96 3.74,1.77 1.06,1.43 3.12,4.11 2.87,3.75 0.67,0.35 2.5,3.91 0.98,1.91 1.25,0.32 2.14,2.71 1.26,3.36 0.29,1.02 2.15,3.18 1.05,1.22 1.07,2.68 1.3,4.87l3.13 -0.07c0.6,-3.63 0.39,-8.61 2.35,-11.91 0.22,-0.36 0.11,0.55 0.56,-1.22 0.76,-3.02 -0.18,-5.39 1.3,-8.31 3.52,-6.93 -0.67,-1.97 3.72,-12.1 0.43,-0.98 0.59,-0.9 0.71,-2.67 0.13,-1.93 -0,-4.33 -0.02,-6.31l2.88 -0.13c0.37,-1.9 0.91,-4.21 1.86,-5.63 2.02,-3.02 0.72,-2.48 1.88,-5.3 0.78,-1.88 1.31,-1.3 2.02,-5.14 0.34,-1.83 0.19,-1.66 0.8,-3 0.67,-1.45 0.96,-1.24 1.39,-2.58 0.59,-1.81 0.67,-4 1.68,-5.74 0.6,-1.04 1.01,-0.77 1.44,-2.16 0.41,-1.32 0.15,-2.35 0.7,-3.47 0.82,-1.68 0.88,-0.69 1.95,-1.74 1.54,-1.52 -0.22,-1.87 2.54,-4.74 1.54,-1.6 0.45,-0.56 1.45,-2.52l5.29 -5.7c1.44,-1.63 0.73,-0.02 3.44,-2.67 1.35,-1.32 1.66,-1.09 3.1,-1.84 2.23,-1.16 1.91,-2.22 5.43,-2.3 21.54,-0.49 14.87,1.57 19.61,2.61 2.81,0.61 4.68,0.26 5.19,3.19l6.52 4.39c1.2,1.23 -0.29,0.21 1.67,1.2 3.22,1.63 2.59,3.28 4.42,3.61 2.13,-0.19 2.56,1.59 4.02,2.89l4.32 5.51c0.96,2.41 -0.37,0.88 1.59,2.35l6.6 9.68c1.43,3.85 1.96,3.08 2.85,5.38 0.67,1.72 0.15,1.37 1.38,2.52 1,0.94 1.11,0.76 1.65,2.42 0.46,1.4 0.3,1.93 0.96,3.1 1.63,2.91 1.43,3.27 2.56,5.95 1.33,-0.98 2.23,-0.81 2.97,-2.12 0.67,-1.16 -0.3,-0.61 1.09,-1.81 1.95,-1.68 0.54,0.31 2.3,-2.93 2.61,-4.81 3.64,-4.76 4.67,-6.32 0.48,-0.73 0.33,-1.03 0.89,-1.98 0.77,-1.31 1.91,-1.61 2.51,-3.18 0.58,-1.51 0.06,-1.53 1.39,-2.17l0.87 -0.36c2.01,-1.5 -0.53,-2.73 3.16,-2.87l0.26 -2.66c1.99,0.82 3.69,-6.22 4.37,-7.41 0.28,-0.48 0.35,-0.75 0.59,-1.2l3.33 -0.06 0.07 -2.81 2.71 -0.08c0.41,-4.57 3.72,-2.71 3.86,-7.54 1.42,-0.2 1.24,-0.16 2.08,-1.18 2.1,-2.56 2.29,-0.3 3.71,-3.7 0.77,-1.84 -0.16,-0.63 1.97,-1.52 0.57,-2.89 0.13,-1.8 2,-3.23 1.33,-1.02 0.25,-0.56 1.37,-1.48 0.94,-0.77 2.83,-0.75 4.02,-1.44 0.08,-0.09 0.18,-0.37 0.22,-0.3 0,0 0.76,-1.43 1.7,-1.98 1.54,-0.9 1.02,-0.98 2.07,-2.48 1.51,-0.12 1.95,0.13 2.91,-0.74 0.07,-0.06 0.14,-0.16 0.2,-0.23l1.76 -1.84c1.9,-1.17 1.88,-2.75 2.91,-4.66 1.68,-0.04 1.96,0.16 3.33,-0.45 0.68,-0.3 1.81,-0.87 2.36,-1.32 0.76,-0.63 0.88,-1.24 1.84,-1.77 0.76,-0.42 1.9,-0.59 2.56,-1.14 1.27,-1.06 0.33,-1.27 1.46,-2.17 0.76,-0.61 1.06,-0.32 1.76,-0.66 1.13,-0.54 -0.04,0.26 0.72,-0.52 1.14,-1.16 -0.49,-0.4 1.9,-1.7 0.66,-0.36 -0.13,0.22 0.56,-0.3 0.65,-0.5 0.58,-1.02 1.14,-1.72l2.16 -1.5c0.97,-1.11 -0.2,-0.98 1.79,-1.72 3.52,-1.32 1.02,-1.77 4.31,-3.06 2.67,-1.05 2.35,-1.33 4.68,-2.74 1.18,-0.72 1.15,-0.41 2.03,-1.45 0.08,-0.09 0.29,-0.4 0.37,-0.5l1.49 -1.37c-0.48,-1.34 0.55,0.37 -0.33,-0.55l-2.35 -1.57c-0.06,-0.05 -0.15,-0.13 -0.21,-0.18l-5.43 -2.29c-3.38,-2.43 -6.06,-1.46 -6.27,-4.73l-4.72 -1.67c-2.51,-1.57 -0.51,0.55 -6.2,-3.56 -2,-1.44 -4.26,-2.02 -6,-3.8 -1.96,-2.02 -1.64,-1.06 -4.06,-2.31 -1.61,-0.84 -4.44,-4.53 -7.04,-5.87 -2.8,-1.44 -1.5,-1.36 -3.46,-3.16l-4.81 -4.96c-2.91,-3 -4,-6.71 -6.13,-10.19 -0.87,-1.41 -1.39,-2.65 -2.55,-3.82 -1.33,-1.34 -2.13,-1.59 -2.57,-3.75 -0.75,-3.68 -0.71,-1.86 -2.31,-4.31 -1.35,-2.07 -0.79,-2.18 -2.98,-3.53 -0.07,-5.58 -1.03,-3.67 -2.45,-6.8 -0.41,-0.89 -0.85,-3.07 -1.23,-3.72 -1.3,-2.25 -0.5,0.78 -1.63,-3.13 -0.8,-2.8 -0.79,-4.9 -2.55,-7.28 -0.75,-1.02 -0.82,-2.25 -1.03,-3.75 -0.39,-2.74 -0.2,-2.02 -1.3,-3.64 -1.88,-2.76 -0.89,-5.11 -1.97,-7.91 -1.38,-3.56 -1.78,0.19 -2.37,-7.29 -0.1,-1.3 -0.2,-3.04 -0.79,-4.08 -0.84,-1.48 -1.02,-0.21 -1.52,-3.34 -0.43,-2.66 -0.41,-6.42 -1.04,-8.72 -0.31,-1.13 -0.32,-0.83 -0.65,-1.79l-1.29 -6.06c-0.47,-3.6 -0.65,-7.12 -1.69,-10.41l-1.14 -6.15c-0.41,-2.73 -0.45,-6.12 -0.68,-8.95 -0.53,-6.59 -2.02,-7.64 -2.42,-17 -0.21,-4.91 0.2,-18.97 -1.21,-22.82 -0.59,-1.62 -0.52,-2.11 -0.76,-4.08 -1.01,-8.35 -1.2,-19.98 -1.04,-28.22 0.26,-12.65 -0.17,-25.74 -0.33,-38.52 -0.04,-3.29 -0.98,-5.5 -1.13,-8.5 -0.48,-9.05 0.08,-19.45 -0.43,-28.78 -0.68,-12.32 0.13,-26.33 -0.04,-38.91 -0.61,-44.59 0.65,-89.95 0.44,-134.58 -0.04,-7.96 1.19,-7.05 1.11,-18.24 -0.37,-51.68 1.63,-103.29 0.44,-154.88 -2.33,-0.43 -12.9,-1.15 -15.65,-0.4 -1.79,0.49 -0.89,-0.11 -1.57,1.02 -0.25,-1.56 -2.5,-1.19 -4.21,-1.19 -13.89,0.02 -85.04,-0.59 -86.12,0.4 -0.76,0.69 -0.37,2.89 -0.38,3.86 -0.02,1.36 -0.07,2.68 -0.06,4.06 0,3 0.35,4.82 0.35,7.69 -0.02,5.54 -0,11.09 0.01,16.63 0.02,5.54 0.07,11.08 0.11,16.62 0.03,3.76 -0.5,8.39 0.26,12.07 0.92,4.47 0.54,7.63 1.3,11.22 1.54,7.27 -0.07,16.68 0.74,23.89 0.67,6.05 0.09,9.7 0.22,15.66 0.1,4.58 -0.65,13.98 1.42,17.28 1.12,1.78 0.84,2.89 0.84,5.01 0.02,9.85 0.3,59.39 0.83,61.39 0.98,3.71 1.52,-0.99 1.61,10.35 0.04,5.28 0.44,10.49 0.45,16.22 0,10.51 0.4,21.85 0.4,32.83 0.01,10.19 -0.24,22.61 0.56,32.41 0.17,1.98 0.36,5.33 0.96,7.15 1.74,5.22 1.05,50.41 1.06,56.91 0.02,10.9 -0.19,22.43 0.18,33.26 0.23,6.9 0.41,69.42 -0.61,72.98 -0.89,3.14 -1.52,1.26 -1.88,6.21 -0.54,7.46 0.69,15.54 -2.02,22.65 -2.1,5.5 0.81,17.99 -3.23,21.56 -0.57,0.5 -0.19,10.55 -2.18,13.13 -1.04,1.35 -0.69,-0.26 -1.07,2.69 -0.26,1.94 -0.08,4.83 -0.83,6.89 -0.52,1.45 -0.97,0.77 -1.81,1.82 -0.19,1.85 -0.33,3.37 -0.7,5.16 -0.19,0.95 -0.36,1.59 -0.68,2.23 -1.48,2.96 -1.46,2.82 -1.72,6.81 -0.12,1.87 -0.32,3.35 -1.45,4.64 -0.96,1.09 -0.57,-0.15 -1.09,1.76 -0.18,0.66 -0.27,1.72 -0.35,2.52l-2.15 7.59c-0.69,1.37 0.17,1.62 -1.3,3.13 -2.96,3.06 -1.69,0.27 -2.46,6.93l-2.3 0.87 -0.94 6.18c-0.34,3.71 -1.98,0.53 -2.45,4.23 -3.97,0.14 -1.81,1.53 -3.89,3.37 -1.52,1.34 -0.54,-0.7 -1.28,1.68 -0.48,1.54 -0.06,2.69 -1.16,3.56 -1.14,0.91 -1.83,0.84 -2.17,3.4 -3.04,1.22 -1.44,1.39 -3.63,3 -2.36,1.73 -0.98,1.42 -3.45,5.06 -0.93,1.37 -0.91,2.11 -2.32,2.93 -2.6,1.52 -0.93,0.72 -3.54,3.79 -2.13,2.51 -2.15,1.81 -3.15,3.81 -1.13,2.24 -1.44,1.21 -2.73,2.46l-2.31 2.13c-1.08,0.91 -0.64,1.28 -2.13,2.33 -1.46,1.02 -1.67,2.21 -3.19,2.86 -1.52,0.65 -0.39,-0.63 -1.3,1.19 -0.78,1.55 -1.25,1.21 -2.55,2.32 -2.2,1.89 -2.49,1.37 -3.6,2.91 -0.91,1.26 -0.04,0.47 -1.24,1.54l-0.67 0.57c-0.06,0.06 -0.14,0.16 -0.2,0.22l-2.99 1.78c-1.31,0.6 -0.97,0.58 -2.66,0.72l-0.48 2.33c-7.16,0.39 -0.73,3.29 -7.94,3.46 -0.84,1.57 -0.19,1.46 -1.91,2.06 -1.06,0.37 -2.47,0.64 -3.86,0.71 -0.13,1.7 -0.33,1.61 -1.06,2.57l-5.28 0.28c-1.31,0.45 -0.71,2.13 -5.27,2.85 -2.29,0.36 -1.45,0.26 -2.71,1.35 -1.52,1.3 -7.67,3.33 -10.09,5.29 -0.06,0.05 -0.15,0.13 -0.22,0.18l-0.71 0.47c-1.2,0.65 -2.34,0.75 -3.14,1.64 0.51,1.05 2.18,1.84 3.25,2.43 -0.48,0.45 -0.67,0.63 -1.33,1.19 -0.73,0.62 -1.09,0.72 -1.5,1.65 1,0.72 2.45,0.59 3.53,1.24 1.5,0.9 0.76,2.04 3.34,3.17l2.56 1.9c0.19,0.08 1.59,0.39 1.9,0.43 0.15,3.52 -0.03,1.55 2.08,2.76 0.07,2.43 -0.08,1.84 1.51,2.96l4.53 4.39c1.44,1.67 1.38,0.22 2.7,1.77 1.42,1.68 -0.35,0.67 2.17,2.21 0.9,0.55 1.78,1.24 2.49,2.07 0.87,1.03 0.87,1.76 1.82,2.6 1.33,1.17 1.71,0.19 2,2.55 3.85,1.45 1.86,-0.8 3.41,2.59 0.65,1.41 0.05,0.03 1.33,1.61l3.04 2.51c0.77,0.63 0.58,1.08 1.15,1.73 1,1.13 0.54,0.16 1.7,1.07 1.57,1.24 0.4,0.7 1.25,1.68 0.99,1.14 0.44,0.07 1.67,1.08 1.43,1.17 0.39,0.71 1.19,1.74 0.56,0.71 2.15,1.2 3.28,2.35l2.36 3.32c1.25,1.29 0.68,-0.17 2.89,2.8 0.69,0.94 1.22,0.97 1.98,2.16 0.97,1.53 1.72,1.18 2.8,2.9 0.15,0.23 0.11,0.38 0.61,0.89 0.98,1.01 0.71,0.33 1.56,1.26 0.98,1.07 0.8,1.49 1.76,2.19 0.74,0.54 0.29,0.02 0.99,0.72l1.2 1.71c0.62,0.77 0.91,0.74 1.44,1.32 1.57,1.68 0.72,1.17 2.81,2.81 2.28,1.79 3.01,5.16 6.71,7.5l-0.02 2.07z"/>
   <path class="fil0" d="M1229.47 1381.92c0.12,-2.93 0,-5.98 -0.61,-8.82 -0.91,-4.23 -0.83,-9.74 -1.39,-14.2 -0.84,-6.74 -0.9,-11.28 -1.42,-16.71l-1.46 -10.56c-0.74,-9.47 -0.73,-19.56 -1.78,-28.83 -0.42,-3.72 -0.28,-8.21 -0.84,-11.65 -0.96,-5.94 -0.67,-16.81 -0.77,-23.54 -0.12,-7.98 -0.3,-16.21 -0.45,-23.9 -0.15,-7.79 0.35,-41.33 1.06,-48.03 0.41,-3.91 0.27,-7.78 0.95,-11.22 0.57,-2.94 0.98,-7.69 1.14,-10.89 0.19,-3.87 1.35,-6.36 1.38,-10.53 0.02,-3.66 2.01,-13.27 2.04,-16.21 0.07,-8.24 0.79,-6.19 1.24,-10.98l2.27 -16.25c0.37,-1.72 1.01,-3.09 1.22,-4.82 1.17,-9.61 2.46,-10.9 3.15,-15.44 0.85,-5.63 2.4,-9.54 3.51,-14.88 0.38,-1.83 1.15,-2.56 1.74,-4.3 0.54,-1.61 0.71,-3.2 1.28,-4.83 0.54,-1.55 1.36,-3.13 1.84,-4.54 0.59,-1.71 0.57,-3.17 1.42,-4.75 0.86,-1.61 1.16,-1.78 1.92,-4.03 1.01,-3 1.6,-3.28 1.95,-4.15l3.5 -8.81c0.62,-1.44 1.54,-2.59 2.15,-3.96l9.72 -15.03c0.65,-0.94 0.61,-0.73 1.31,-1.45 2.11,-2.16 3.59,-4.41 5.84,-6.29l5.2 -4.19c1.57,-1.1 1.69,-1.61 3.54,-2.56 2.87,-1.46 4.69,-3.14 8,-4.11 5.53,-1.61 -2.03,-1.18 14.42,-3.85 4.61,-0.75 6.28,-0.78 10.69,0.15 3.39,0.72 7.64,0.85 10.39,2.23 1.72,0.86 2.72,0.96 4.52,1.6 2.41,0.86 2.23,1.08 3.87,2.15 1.26,0.81 2.92,0.96 4.17,1.91 2.48,1.89 11.57,7.3 12.49,8.49 1.42,1.83 -0.11,0.31 1.78,1.63 2.33,1.63 6.04,6.18 7.52,7.42l3 3.05c0.56,0.66 1.04,0.89 1.69,1.56l2.78 3.32c1.3,1.77 1.27,0.84 4.09,4.81 2.43,3.41 5.46,5.25 5.44,10.49 -0.02,4.86 -1.96,5.36 -5.52,6.7 -3.1,1.16 -5.62,2.16 -8.9,3.36 -2.05,0.75 -1.66,1.43 -3.8,2.12 -3.33,1.08 -5.61,2.49 -9.07,3.25l-16.76 7.58c-1.69,0.81 -2.38,1.64 -3.51,2.45 -1.58,1.13 -2.83,0.65 -4.36,1.76l-7.61 4.49c-2.28,0.99 -9.24,5.96 -11.02,7.67l-8.16 6.83c-1.5,1.31 -0.9,1.57 -2.9,3.11 -1.24,0.96 -0.56,0.6 -1.48,1.89l-5.9 6.59c-2.27,2.81 -4.05,6.27 -5.43,9.57 -1.5,3.58 -3.76,6.65 -5.06,10.36 -0.85,2.44 -0.68,2.41 -1.73,4.41 -0.92,1.74 -0.78,2.81 -1.43,4.65 -0.79,2.25 -1.38,1.99 -1.97,4.59 -0.44,1.91 -0.76,3.07 -1.33,4.67 -1.32,3.71 -1.93,5.43 -2.7,9.45 -0.51,2.68 -0.65,2.83 -1.25,4.82l-3.04 21.42c-0.3,8.93 -1.33,26.33 0.78,35.09 1.15,4.73 1.11,10.88 2.89,15.69 0.73,1.97 1.3,5.7 2.66,9.5 1.59,4.48 2.54,9.57 4.76,13.45l3.75 8.4c0.68,1.48 1.31,2.82 1.85,4.16l7.38 13.8c1.26,2.05 2.54,3.56 3.58,5.82l10.45 14.18c2.06,2.69 3.39,4.35 5.46,6.7 2.98,3.39 5.5,6.71 8.61,9.6l3.28 2.8c2.14,1.8 4.02,4.17 6.08,6.08 1.4,1.29 2.19,1.04 3.54,2.56 3.32,3.72 9.23,7.93 13.57,10.75 1.22,0.8 2.43,1.97 3.68,2.82 1.46,1 2.07,1.81 3.59,2.48 2.94,1.3 4.96,2.87 7.41,4.74l15.42 8.76c4.33,1.87 8.5,4.35 12.7,5.89 1.45,0.53 2.93,0.89 4.65,1.5 1.56,0.56 2.53,1.32 4.25,1.8 5.93,1.67 4.61,2.8 8.8,3.18 3.76,0.34 4.54,2.07 9.76,2.83 1.04,0.15 1.56,0.27 2.38,0.62 0.85,0.36 1.25,0.71 2.2,0.87l20.43 3.98 16.72 1.35c4.7,-0.01 19.19,0.09 23.7,-0.52 5.37,-0.72 10.67,-0.56 15.75,-2.3 4.28,-1.47 10.5,-1.17 18,-3.57 1.2,-0.39 0.52,-0.16 1.1,-0.43l10.66 -3.29c4.11,-0.83 1.22,-0.43 4.05,-1.86 1.88,-0.95 4.22,-0.85 6.86,-2.09l4.15 -1.55c0.1,-0.04 0.2,-0.09 0.3,-0.13 1.86,-0.73 4.35,-0.78 5.88,-2.37l0.65 -0.64c0.09,-0.06 0.18,-0.13 0.27,-0.19l27.03 -15.04c2.28,-1.7 5.22,-3 7.7,-4.51 1.25,-0.76 2.06,-1.54 3.55,-2.5 1.63,-1.06 1.77,-1.86 3.42,-2.57 2.52,-1.08 8.65,-5.47 10.82,-7.53 1.96,-1.86 4.72,-3.55 6.8,-5.37 1.18,-1.04 2.09,-1.69 3.22,-2.87 1.94,-2.04 4.57,-3.27 6.77,-5.41l25.06 -23.95c1.2,-1.29 1.66,-1.98 2.93,-3.16 2.31,-2.15 3.83,-4.46 5.76,-6.83l4.33 -4.55c0.63,-0.85 0.61,-1.2 1.28,-1.98l12.19 -14.98c1.37,-1.87 3.85,-4.03 3.98,-6.28 -2.74,1.04 -4.58,3 -5.82,5.64 -1.04,2.2 -1.76,1.35 -2.7,3.02 -1.38,2.43 0.58,1.88 -2.08,3.5 -1.79,1.09 -0.52,0.11 -1.41,1.52 -0.84,1.33 -0.43,0.47 -1.31,1.5 -0.91,1.07 -1.14,2.54 -2.15,3.49 -0.42,0.39 -1.03,0.78 -1.54,1.33l-2.63 3c-0.96,1.09 -0.52,1.01 -1.09,1.85 -0.61,0.9 -0.62,0.43 -1.49,1.28 -0.32,0.31 -0.18,0.15 -0.57,0.73 -0.88,1.31 -1.07,1.08 -2.35,2.02l-2.65 3.05c-0.85,0.94 -0.56,0.97 -1.15,1.72 -0.67,0.86 -0.88,0.66 -1.48,1.29 -1.47,1.56 -0.62,1.54 -2.78,2.87 -1.35,0.84 -0.63,0.62 -1.49,1.4 -1.71,1.55 -2.23,1.34 -4.54,3.95 -0.47,0.53 -0.92,1.31 -1.24,1.63 -2.09,2.12 -0.81,-0.75 -2.46,3.02 -0.56,0.69 -1.41,0.45 -2.06,1.02 -0.55,0.5 -0.54,1.04 -1.13,1.66 -1.02,1.07 -1.46,0.98 -2.23,2.17 -0.57,0.88 0.17,0.48 -0.85,1.06 -3,-0.75 0.01,-1.57 -3.24,-1.61 -0.59,1.56 -0.33,2.31 0.37,3.44 0.13,0.21 0.26,-0.01 0.56,0.92 -2.43,0.11 -4.17,0.88 -5.52,2.53 -0.06,0.07 -0.13,0.17 -0.19,0.23 -2.04,2.41 -0.82,3.45 -4.14,3.36 -0.08,-0.11 -0.15,-0.41 -0.18,-0.34 -0.03,0.07 -0.6,-2.18 -1.25,-2.41 -1.24,-0.45 -1.2,1.56 -1.22,2.56 1.44,1.42 1.92,-0.36 1.57,2 -0.18,1.23 -1.17,1.11 -2.41,1.41 -0.23,3.42 -0.52,1.56 -2.48,2.83l-1.82 1.8c-1.41,0.87 -2.5,1.12 -3.54,2.48l-0.33 0.48c-1.61,1.95 -1.66,0.7 -3.89,1.51 -1.62,0.59 -0.28,-0.07 -1.22,1.08 -2.17,2.67 -3.75,3.56 -5.94,4.76l-1.61 0.92c-0.03,0.01 -0.13,0.02 -0.16,0.02l-1.27 -0.44c-0.21,-0.23 -0.34,-0.65 -0.4,-0.8 -1.92,1.2 -1.93,0.34 -3.62,0.98 0.39,1.09 -0.35,0.24 1.22,0.8 0.15,0.05 0.93,0.28 0.96,0.3 1.06,0.56 0.45,-0.3 1.04,0.93 -0.2,2.41 0.7,0.74 -1.07,1.64 -0.71,0.36 -1.7,0.37 -2.34,0.56 -2.22,0.66 -1.24,1.65 -2.94,2.61 -1.41,0.79 -1.4,1.56 -2.87,2.3 -1.1,0.56 -0.8,-0.04 -1.94,1 -1.24,1.13 0.16,0.59 -1.42,1.3 -1.8,0.8 -2.32,0.1 -3.8,1.63 -2.34,2.41 -0.22,0.65 -3.42,2.15l-7.09 3.89c-1.7,1.49 -3.06,1.67 -5.04,3l-5.95 3.28c-0.12,0.05 -0.48,0.19 -0.61,0.23l-0.56 0.25c-1.12,0.47 -0.68,0.24 -2.11,0.67 -4.37,1.31 -1.98,1.57 -8.65,2.57l-10.52 3.24c-3.25,1.07 -1.12,1.66 -6.35,2.25 -0.71,0.08 -4.24,0.43 -4.7,0.59 -2.52,0.85 0.69,1.52 -3.57,2.08 -4.48,0.59 -5.42,0.22 -9.32,1.57 -6.11,2.1 -18.74,0.81 -21.8,2.51l-0.48 0.31c-0.07,0.04 -0.16,0.12 -0.23,0.16 -1.96,1.24 -4.22,0.96 -6.54,1 -7.27,0.11 -15.06,0.19 -22.3,-0.31 -2.21,-0.74 0.71,0.04 -1.08,-0.59l-6.47 -1.44c-3.52,-0.44 -9.08,0.43 -12.29,-0.72 -1.44,-0.52 -0.59,-0.45 -1.72,-1.13 -2.34,-1.39 -6.33,-1.2 -8.93,-1.52 -2.51,-0.31 -2,-0.39 -3.16,-2.04 -1.74,-0.04 -5.41,-0.33 -6.69,-0.72 -2.01,-0.62 -1.97,-1.75 -4.92,-2.3 -6.25,-1.16 -2.77,-0.57 -5.22,-2.19 -1.44,-0.95 -4.09,-0.87 -6.43,-1.04 -0.79,-1.39 -1.22,-1.74 -2.83,-2.23 -2,-0.61 -3.39,-0.39 -4.67,-1.94 -1.63,-1.98 -5.17,-0.69 -7.28,-2.1 -3.37,-2.23 -1.56,-1.19 -5.53,-2.32 -2.31,-0.66 -0.82,-0.07 -1.62,-0.96 -2.22,-2.47 -1.37,-0.65 -3.59,-1.83 -1,-0.54 -1.48,-1.48 -3.1,-2.2 -2.29,-1 -2.47,-2.06 -4.5,-3.1l-8.2 -5.15c-1.69,-1.12 -1.85,-0.48 -3.16,-2.06 -1.57,-1.9 -7.35,-5.41 -9.67,-6.67 -2.01,-1.09 -4.01,-3.18 -5.33,-5.02 -0.37,-0.5 -0.13,-0.2 -0.58,-0.69 -1.89,-2.07 -2.81,-1.72 -3.89,-2.67l-7.88 -8c-1.18,-0.75 -1.48,-1.61 -2.46,-2.67 -0.7,-0.76 -0.72,-0.51 -1.41,-1.37 -0.05,-0.06 -0.43,-0.64 -0.49,-0.71 -0.55,-0.72 -0.16,-0.28 -0.58,-0.71l-2.36 -2.87c-1.04,-1.41 -0.53,-0.33 -1.51,-1.37 -0.76,-0.8 -0.79,-1.39 -1.77,-2.02 -2.2,-1.43 -0.5,-1.53 -3.2,-3.6l-4.55 -5.91c-0.83,-1.22 -1.52,-1.59 -2.24,-2.96l-6.37 -9.96c-2.38,-2.41 -0.79,1.15 -2.18,-2.98 -0.8,-2.36 -1.15,-1.92 -2.19,-3.13 -0.85,-1 -0.75,-2.64 -1.29,-4.01 -0.85,-2.21 -1.16,-0.7 -1.98,-3.25 -1.17,-3.67 -2.23,-2.59 -2.93,-4.67 -0.23,-0.69 -0.23,-1.7 -0.45,-2.47 -0.64,-2.25 -1.47,-1.59 -2.14,-3.16 -0.52,-1.21 -0.37,-2.96 -1.03,-4.25 -0.85,-1.67 -1.11,-0.6 -1.94,-3.24 -0.51,-1.62 -0.54,-3.11 -0.86,-4.54 -0.48,-2.15 -1.18,-1.68 -1.76,-3.47 -0.66,-2.04 -0.46,-4.28 -1.72,-6 -0.92,-1.26 -0.37,0.63 -1.01,-1.84 -1.1,-4.23 0.13,-10.56 -2.28,-13.96 -1.61,-2.26 -1.12,-6.68 -1.14,-9.58 -0.04,-6.76 -0.47,-13.48 -0.45,-20.67 0.02,-5.11 0.01,-20.93 0.85,-25.59 0.67,-3.76 2.09,-0.03 2.86,-13.32l1.43 -0.87c1.04,-0.88 1.04,-3.86 1.4,-5.29 0.36,-1.43 0.05,-0.46 0.55,-1.53l2.17 -5.09c0.57,-1.73 0.98,-1.02 1.64,-2.82 0.23,-0.64 0.63,-2.96 0.75,-3.68 0.24,-1.51 0.08,-2.75 0.27,-4.28 0.32,-2.63 0.66,-1.77 1.76,-3.16 0.89,-1.12 0.72,-1.99 1.02,-3.43 0.49,-2.36 0.56,-1.51 1.57,-2.98 1.22,-1.8 0.54,-1.77 1.12,-3.49 0.46,-1.36 1.28,-0.98 2.28,-2.39 0.69,-0.99 0.76,-2.2 1.41,-3.04 0.54,-0.7 0.61,-0.39 1.28,-1.12 0.82,-0.9 0.86,-1.89 1.8,-2.69 2.2,-1.87 0.28,-3.16 3.9,-3.39 0.18,-2.72 1.74,-2.87 2.81,-4.45 0.09,-0.14 0.43,-0.64 0.51,-0.73 0.08,-0.09 0.33,-0.33 0.42,-0.41 1.93,-1.78 2.13,-2.54 5.06,-2.61 0.06,-4.08 0.44,-1.96 3.28,-3.32 0.28,-0.13 1.39,-0.91 1.4,-0.92l1.35 -3.06c0.8,-1.08 2.39,-0.87 3.99,-1.21 0.8,-2.43 -0.61,-1.54 2.05,-2.59 2.14,-0.84 1.35,-1.74 2.41,-2.4 3.68,-0.71 3.81,-0.43 5.52,-2.91l3.39 0.67c1.25,-2.93 1,-3.38 4.67,-3.65 1,-1.62 0.24,-3.44 6.31,-2.85 1.03,0.1 -0.32,-0.14 0.75,0.12 2.18,0.51 1.5,0.82 3.87,0.72 -1.03,-1.84 -2.58,0.24 -1.91,-3.44 2.73,-1.12 3.56,0.06 5.83,-1.94 0.49,-0.43 -0.3,-0.19 0.75,-0.58 5.73,0.02 2.55,-2.25 7.33,-3.2 4.41,-0.87 4.64,-2.35 7.94,-3.02 3.5,-0.71 1.2,-0.73 3.22,-1.98 1.19,-0.74 3.03,-0.61 4.44,-0.94 1.29,-0.3 2.57,-1.48 3.15,-1.94 1.38,-1.1 2.8,-0.56 4.53,-1.27 2.97,-1.22 1.93,-4.35 2,-8.27 0.08,-4.42 -1.6,-2.54 -2.96,-4.91 -0.6,-1.06 0.19,-0.52 -1,-1.83l-2.12 -3.16c-0.81,-1.47 -2.2,-2.42 -3.37,-3.52l-0.43 -0.37c-3.79,-3.39 0.59,-2.43 -4.17,-4.33 -0.23,-0.54 -0.43,-1.89 -0.65,-2.21 -0.89,-1.28 -0.03,-0.16 -0.92,-0.65 -1.22,-0.67 -0.03,0.31 -1.06,-0.6l-1.56 -1.64c-0.89,-0.58 -1.14,-0.56 -1.58,-1.84 -0.64,-1.88 0.13,-0.81 -1.5,-1.49 -1.21,-0.5 -1.03,-0.88 -1.65,-1.79 -1.28,-1.87 -2.7,0.37 -3.04,-3.37 -3.94,-0.37 -1.5,-3.07 -7.57,-3.45 -1.96,-3.83 -3.53,-1.35 -3.78,-5.06 -1.13,-0.04 -2.35,-0.24 -3.44,-0.48 -3.15,-0.68 -0.68,-0.28 -2.67,-1.9 -1.02,-0.83 -1.87,-0.54 -3.06,-1 -2.38,-0.93 -0.15,-0.72 -2.65,-1.8 -2.15,-0.93 -4.8,-0.52 -7.26,-1.33 -2.26,-0.74 -1.26,-1.99 -6.18,-2.23 -6.38,-0.31 -13.87,-1.32 -19.81,1.22 -1.42,0.61 -0.91,0.83 -2.52,1.09 -1.41,0.23 -3.08,0.1 -4.08,0.46 -1.45,0.54 -1.27,1.21 -2,2.28l-5.1 0.55c-0.32,-0.83 -0.59,-1.48 -0.95,-2.17 -1.5,0.02 -2.92,0.51 -3,2.19 1.95,0.77 1.92,-0.02 2.78,2.03l-1.07 0.46c-1.46,0.48 -1.77,0.67 -2.82,1.86 -0.66,0.75 -0.01,0.12 -0.67,0.62 -1.16,0.88 -1.97,1.17 -3.47,1.37 -0.35,3.24 -1.22,1.43 -2.76,2.91 -2.01,1.95 1.06,1.06 -3.33,2.34l-0.03 2.41c-2.99,1.34 -2.01,2.7 -3.98,4.56l-3.07 3.08c-0.81,0.52 -0.7,0.3 -1.46,0.65 -0.02,3.64 0.02,3.27 -1.76,5.37 -2.02,2.38 -0.1,3.2 -3.45,3.84 -0.29,3.26 -2.25,3.46 -2.85,5.53 -0.7,2.43 -0.15,5.63 -1.63,7.51 -0.89,1.13 -0.38,-0.15 -1.16,1.77 -0.99,2.45 -0.89,3.99 -2.48,6.32 -1.31,1.92 -0.74,2.55 -1.31,4.99 -0.61,2.59 -1.41,0.98 -2.09,3.96 -0.74,3.2 0.07,4.14 -1.87,6.85 -0.59,0.83 -0.63,0.57 -0.94,2.11 -0.4,2.02 -0.11,3.55 -1.03,4.85 -0.4,0.56 -0.6,0.33 -1.21,1.61 -1.06,2.21 -0.74,5.52 -1.36,8.03 -1.09,4.39 -1.34,1.49 -2.42,9.32 -0.2,1.44 -0.39,4.8 -0.94,5.93 -0.04,0.07 -0.11,0.16 -0.14,0.24l-1.2 3.75c-0.7,3.42 -0.48,7.26 -1.13,10.7 -0.84,4.49 -1.52,3.54 -2.04,10.17 -0.28,3.54 -0.28,7.66 -1.18,10.46 -2.09,6.54 -1.99,14.57 -2.34,21.68 -0.24,4.76 -0.93,6.35 -1.56,10.57 -1.2,8.12 -1.46,36.5 -1.44,46.18 0.02,8.22 -2.5,13.22 -0.39,22.05 0.91,3.77 0.5,17.98 0.58,23.35 0.21,13.87 0.49,32.77 2.01,45.82 0.69,5.92 0.94,1.07 1.04,10.53 0.15,13.7 1.9,20.71 3.2,32.97 0.19,1.82 -0.08,3.67 0.16,5.54 0.21,1.65 0.59,3.24 0.71,5.29 0.08,1.34 0.18,1.63 0.31,2.59 0.21,1.49 0.2,1.61 0.54,2.8 0.21,0.76 0.29,1.11 0.32,2.28 0.01,0.42 0,1.28 0.11,1.64 0.38,1.34 0.05,0.79 0.87,1.61z"/>
   <path class="fil0" d="M1017.05 985.36c0.04,1.79 1.62,2.96 2.66,4.26 0.97,1.21 2.7,2.35 2.63,4.34 0.15,0.51 0.69,1.04 1.24,1.94l9.67 12.58c0.52,0.96 1.5,2.78 2.31,3.33 1.47,0.54 1.06,0.28 2.67,2.63 0.72,1.06 0.9,1.84 1.62,2.87 3.52,5.04 5.04,9.44 6.35,11.46 1.25,1.92 1.46,4.46 2.34,6.6 2.38,-0.61 2.61,0.01 3.41,-2.2l5.72 -22.84c0.22,-1.26 0.71,-3.28 1.09,-4.53 0.58,-1.91 1.35,-1.76 1.74,-3.8 0.34,-1.75 0.37,-3.28 0.73,-5.07 0.51,-2.52 1.11,-1.82 1.71,-3.89 0.44,-1.54 0.63,-3.23 0.96,-4.71l8.74 -25.33c0.57,-1.59 1.15,-2.35 1.85,-3.78 3.19,-6.48 7.17,-15.51 13.9,-20.17 2.7,-1.86 6.87,-5.26 11.19,-5.69 7.85,-0.78 7.91,-0.7 14.53,1.63 1.45,0.51 2.93,0.8 4.45,1.23 4.68,1.32 0.84,1.09 4.19,1.84 -0.51,-2.93 -2.39,-2.58 -5.19,-3.19 -4.73,-1.04 1.93,-3.09 -19.61,-2.61 -3.52,0.08 -3.2,1.14 -5.43,2.3 -1.44,0.75 -1.74,0.52 -3.1,1.84 -2.71,2.65 -2,1.05 -3.44,2.67l-5.29 5.7c-1,1.97 0.08,0.93 -1.45,2.52 -2.76,2.87 -1,3.22 -2.54,4.74 -1.07,1.04 -1.13,0.06 -1.95,1.74 -0.55,1.12 -0.29,2.15 -0.7,3.47 -0.43,1.39 -0.84,1.12 -1.44,2.16 -1.01,1.74 -1.09,3.93 -1.68,5.74 -0.43,1.34 -0.73,1.13 -1.39,2.58 -0.62,1.34 -0.46,1.17 -0.8,3 -0.71,3.84 -1.25,3.26 -2.02,5.14 -1.17,2.81 0.14,2.27 -1.88,5.3 -0.95,1.42 -1.49,3.73 -1.86,5.63l-2.88 0.13c0.02,1.98 0.15,4.37 0.02,6.31 -0.12,1.78 -0.28,1.69 -0.71,2.67 -4.38,10.13 -0.2,5.17 -3.72,12.1 -1.48,2.92 -0.54,5.29 -1.3,8.31 -0.44,1.77 -0.34,0.85 -0.56,1.22 -1.96,3.29 -1.75,8.28 -2.35,11.91l-3.13 0.07c-0.22,-2.19 -0.24,-3.65 -1.3,-4.87 -1.86,-2.16 -0.89,0.18 -2.15,-3.18 -0.89,-2.39 -1.16,-0.8 -2.14,-2.71 -1.83,-3.56 0.37,-0.16 -2.5,-3.91 -2.06,-2.68 0.62,-2.34 -3.12,-4.11 -0.9,-10.04 -2.94,-1.05 -3.46,-7.96l-2.26 -0.66c-0.44,-7.84 -0.77,-2.69 -3.19,-5.22 -0.93,-0.96 -0.11,-0.8 -0.78,-1.7 -1,-1.37 0.22,0.2 -1.18,-0.75 -1.32,-0.9 -0.79,-0.8 -1.06,-3l-2.65 -0.54c-0.43,-2.24 -1.2,-1.21 -2.35,-2.98 -0.97,-1.49 -0.91,-2.47 -3.2,-2.56z"/>
  </g>
  <g>
   <path class="fil1 str0" d="M332.1 10.42l1497.68 0c176.93,0 321.68,144.76 321.68,321.68l0 1537.54c0,176.93 -144.76,321.68 -321.68,321.68l-1497.68 0c-176.93,0 -321.68,-144.76 -321.68,-321.68l0 -1537.54c0,-176.93 144.76,-321.68 321.68,-321.68z"/>
  </g>
 </g>
</svg>
