<?xml version="1.0" encoding="UTF-8"?>
<!DOCTYPE svg PUBLIC "-//W3C//DTD SVG 1.1//EN" "http://www.w3.org/Graphics/SVG/1.1/DTD/svg11.dtd">
<!-- Creator: CorelDRAW -->
<svg xmlns="http://www.w3.org/2000/svg" xml:space="preserve" width="2.16188in" height="2.20173in" version="1.1" style="shape-rendering:geometricPrecision; text-rendering:geometricPrecision; image-rendering:optimizeQuality; fill-rule:evenodd; clip-rule:evenodd"
viewBox="0 0 2161.88 2201.74"
 xmlns:xlink="http://www.w3.org/1999/xlink"
 xmlns:xodm="http://www.corel.com/coreldraw/odm/2003">
 <defs>
  <style type="text/css">
   <![CDATA[
    .str0 {stroke:#856443;stroke-width:20.83;stroke-miterlimit:2.61313}
    .fil1 {fill:none}
    .fil0 {fill:#856443}
   ]]>
  </style>
 </defs>
 <g id="Layer_x0020_1">
  <metadata id="CorelCorpID_0Corel-Layer"/>
  <path class="fil0" d="M623.31 589.43c0.01,12.68 2.83,19.54 -5.28,21.38 -4.13,0.94 -17.31,0.24 -22.74,0.64 -13.76,1.03 -28.33,3.97 -40.26,7.22 -25.84,7.04 -47.3,19.79 -67.89,33.47 -131.24,87.23 -143.43,314.62 -196.37,354.78 -44.08,33.43 -62.51,-21.58 -62.33,55.4l0.08 177.69c-0.13,24.19 -1.69,35.37 18.74,37.06 81.59,6.75 153.87,-41.9 204.3,-111.16 29.84,-40.99 48.88,-100.02 70.33,-160.36 9.63,-27.11 19.81,-55.59 31.48,-86.08 11.02,-28.8 27.41,-48.85 59.11,-48.85 16,0 10.39,8.92 10.58,49.08l0.19 222.69c0,61.61 -0.01,102.06 -21.64,145.94 -33.32,67.6 -73.24,61.78 -125.24,140.48 -5.1,7.72 -10.31,19.74 -16.04,22.93 -17.22,-17.75 -16.1,-28 -49.68,-53.74 -34.57,-26.5 -74.88,-29.94 -114.61,-16.29 -35.98,12.36 -20.85,30.3 -5.73,69.34 8.63,22.28 13.26,15.53 29.3,11.29 40.84,-10.8 72.5,13.3 92.09,54.23 8,16.7 11.57,21.64 0.04,37.38 -35.38,48.3 -72.15,75.12 -135.91,75.13 -44.25,0.01 -47.19,-12.35 -47.19,53.77 0,34.83 5.31,32.69 33.87,32.57 17.85,-0.06 34.56,0.49 51.46,-2.69 10.48,-1.98 39.46,-11.63 44.66,-11.28 0.89,131.5 -8.49,121.91 46.52,121.77 27,-0.07 19.81,-30.71 19.84,-70.31 0.01,-24.89 -0.94,-50.49 -0.35,-75.17 1.06,-44.3 26.95,-29.47 73.22,-135.69 17.53,-40.24 28.56,-60.74 51.96,-86.72l72.59 -61.31 0.07 338.87c0.07,106.14 -1.4,90.41 130.73,90.42 36.42,0 29.02,3.31 51.57,-20.02 29.44,-30.46 101.76,-106.27 131.96,-134.26 8.19,-7.59 13.72,-8.17 13.72,-26.21 0,-105.07 -1.41,-229.68 0.52,-335.32 14.6,-11.31 40.03,15.14 47.89,29.71 11.19,20.75 13.27,45.72 19.03,69.8 9.13,38.17 35.33,105.78 52.94,122.95 9.2,-3.75 148.18,-146.56 155.98,-157.36 -9.43,-20.46 -17.2,-24.28 -23.68,-56.19 -53.96,-265.71 -217.34,-256.18 -251.41,-292.04l-0.6 -302.57c7.87,3.13 96.8,77.63 107.46,88.84 34.8,36.59 25.93,46.99 66.59,85.12 23.37,21.91 18.57,23 18.5,81.49 -0.07,59.39 -3.87,59.88 31.76,60.03 41.36,0.17 33.84,-1.16 34.08,-82.87 15.98,1.68 58.17,27.44 68.33,12.35 2.9,-4.31 8.96,-33.94 10.47,-41.25 9.92,-48.29 -11.21,-31.11 -74.94,-63.32 -17.74,-8.97 -42.44,-26.99 -53.96,-42.57 11.54,-22.7 68.79,-55.7 93.45,-65.7 18.75,-7.6 40.48,-11.39 61.94,-13.25 37.23,-3.24 30.7,-5.33 30.8,-56.17 0.05,-32.94 -7.33,-30.21 -33.23,-30.18 -109.81,0.11 -190.08,94.91 -203.58,99.9 -22.81,-36.35 -84.6,-67.23 -108.92,-96.54 -102.38,-123.38 -0.53,-303.96 -86.91,-303.85l-249.15 -0.07c-47.39,0.11 -40.48,35.57 -40.5,90.55 -0.02,48.37 -0.04,96.75 -0,145.12zm166.04 -35.28c-67.48,0.02 -62.79,125.24 -1.76,124.82 63.06,-0.43 60.85,-124.83 1.76,-124.82zm-14.49 237.97c-62.43,29.32 -33.01,143.28 26.05,120.44 21.52,-8.32 40.83,-40.09 32.24,-78.02 -6.06,-26.73 -30.34,-55.54 -58.28,-42.42zm-2.27 237.65c-26.53,13.67 -38.51,43.36 -30.8,77.72 17.13,76.33 110.46,43.59 91.05,-37.5 -6.8,-28.4 -31.19,-55.18 -60.24,-40.22zm3.61 234.6c-61.4,17.67 -38.2,141.6 23.11,121.08 56.44,-18.89 41.43,-139.65 -23.11,-121.08zm-1.07 236.22c-16.85,7.5 -18.09,9.19 -27.19,25.13 -7.55,13.23 -11.22,31.14 -7.26,50.57 11.84,58 69.73,59.61 87.95,17.93 5.44,-12.45 8.9,-36.26 5.19,-52.2 -5.74,-24.67 -30.83,-53.82 -58.69,-41.43z"/>
  <path class="fil0" d="M1566.55 1244.6c-10.6,10.44 -43.42,45.15 -52.57,50.91 -10.86,-13.17 -24.56,-56.85 -50.34,-36.69l-591.1 600.97c-13.12,13.05 -114.4,113.2 -118.43,123.61 39.54,8.92 115.54,-0.57 153.03,-10.43 45.54,-11.98 86.68,-29.62 125.12,-53.14 39.46,-24.14 72.57,-49.37 105.56,-78.75 36.97,-32.92 82.62,-78.12 117.56,-115.61l69.78 -73.29c77.24,-77.19 97.89,-104.83 201.49,-170.24 14.25,-9 45.8,-25.83 52.24,-39.06 14,-28.76 -14.35,-54.57 -21.41,-73.37 9.7,-7.56 46.79,-51.69 55.16,-51.38 5.62,0.2 42.74,23.04 77.05,-12.11l218.73 -222.66c38.57,-39.56 94.49,-75.8 72.35,-147.13 -5.25,-16.93 -32.76,-62.03 -42.92,-71.28 -23.37,-21.27 -53.28,-15.01 -73.35,5.41l-245.63 249.89c-19.75,20.4 -37.13,33.05 -47,65.85 -6.44,21.4 -3.96,34.06 -5.33,58.49zm327.82 -220.41c55.6,0.06 54.17,-105.21 1.91,-107.15 -54.68,-2.02 -55.41,107.09 -1.91,107.15z"/>
  <g>
   <path class="fil1 str0" d="M332.1 10.42l1497.68 0c176.93,0 321.68,144.76 321.68,321.68l0 1537.54c0,176.93 -144.76,321.68 -321.68,321.68l-1497.68 0c-176.93,0 -321.68,-144.76 -321.68,-321.68l0 -1537.54c0,-176.93 144.76,-321.68 321.68,-321.68z"/>
  </g>
 </g>
</svg>
