<?xml version="1.0" encoding="UTF-8"?>
<!DOCTYPE svg PUBLIC "-//W3C//DTD SVG 1.1//EN" "http://www.w3.org/Graphics/SVG/1.1/DTD/svg11.dtd">
<!-- Creator: CorelDRAW -->
<svg xmlns="http://www.w3.org/2000/svg" xml:space="preserve" width="2.16188in" height="2.20173in" version="1.1" style="shape-rendering:geometricPrecision; text-rendering:geometricPrecision; image-rendering:optimizeQuality; fill-rule:evenodd; clip-rule:evenodd"
viewBox="0 0 2161.88 2201.74"
 xmlns:xlink="http://www.w3.org/1999/xlink"
 xmlns:xodm="http://www.corel.com/coreldraw/odm/2003">
 <defs>
  <style type="text/css">
   <![CDATA[
    .str0 {stroke:#856443;stroke-width:20.83;stroke-miterlimit:2.61313}
    .fil1 {fill:none}
    .fil0 {fill:#856443}
   ]]>
  </style>
 </defs>
 <g id="Layer_x0020_1">
  <metadata id="CorelCorpID_0Corel-Layer"/>
  <path class="fil0" d="M1578.34 1510.03c-57.23,-3.67 -150.08,9.5 -198.17,-10.81 -113.09,-47.75 -113.99,-210.21 -2.17,-260.36 44.97,-20.17 144.26,-8.8 200.52,-11.68 3.36,-38.67 5.8,-138.87 -10.03,-165.81 -28.57,-48.64 -88.95,-36.73 -143.57,-36.73l-721.19 0.02c-27.11,0.01 -63.57,4.99 -79.51,-13.03 -18.46,-20.87 -5.38,-52.6 16.29,-58.77 26.8,-7.63 63.78,6.36 81.78,-8.95 9.41,-8 39.78,-32.87 45.04,-44.19 -102.14,-1.16 -178.29,-12.19 -219.3,65.35 -23.81,45.02 -13.46,210.34 -13.46,273.64 0,46.39 -6.11,397.79 5.8,426.24 15.78,37.72 45.54,47.73 95.96,47.6 282.5,-0.73 579.2,3.57 859.55,0.04 42.86,-0.54 74.8,-23.25 81.92,-61.9 3.38,-18.36 3.02,-120.13 0.54,-140.67z"/>
  <path class="fil0" d="M735.54 984.66c18.24,3.84 73.06,5.28 85.94,-2.37l48.75 -45.53c17.17,-15.06 30.31,-29.2 47.19,-43.81 16.93,-14.65 32.72,-30.85 48.92,-45.48l96.25 -89.06c10.09,-8.66 11.48,-10.98 21.94,-21.76 7.8,-8.05 16.71,-14.51 25.25,-22.1 16.37,-14.54 33.56,-32.19 48.91,-45.29 19.34,5.4 35.85,22.76 83.06,27.82 49.68,5.33 61.87,-11.07 95.55,-14.29l145.82 158.26c-26.03,56.89 -26.18,81.42 -11.44,144.97 59.13,1.61 57.76,1.26 101.53,24.09 10.45,-5.73 22.6,-19.17 30.88,-26.99 9.4,-8.86 17.18,-19.21 20.74,-36.4 8.85,-42.69 -18.26,-60.11 -34.85,-78.59 -37.29,-41.55 -76,-80.67 -113.46,-122.44 -18.84,-21.01 -37.1,-38.98 -55.04,-59.64l-114.98 -120.87c-77.43,-77.53 -109.6,-4.97 -207.94,80.95l-242.79 225.71c-10.65,9.26 -18.39,18.95 -28.88,28.34l-61.54 56.42c-11.31,9.73 -19.27,15.56 -29.82,28.07z"/>
  <path class="fil0" d="M1418.8 1267.91c-65.65,10.15 -109.46,85.96 -71.33,152.78 37.65,65.98 114.8,49.74 202.16,49.83 40.79,0.04 73.28,-4.37 78.66,-44.7 1.9,-14.22 1.7,-109.09 -0.94,-120.12 -3.41,-14.23 -16.47,-28.02 -27.03,-33.56 -19.3,-10.12 -162.71,-7.14 -181.52,-4.23zm-1.31 53.68c-61.23,23.18 -27.82,115.61 34.05,95.39 61.64,-20.16 33.63,-121 -34.05,-95.39z"/>
  <path class="fil0" d="M1037.37 985.48c42.62,4.06 100.61,0.82 144.91,0.81 12.14,-0 62.1,2.13 69.68,-1.44 11.87,-5.6 18.16,-44.41 -17.66,-37.88 -33.96,6.19 -68.84,42.96 -110.76,16.86 -32.91,-20.48 -41.67,-61.5 -16.7,-99.19l-10.46 -16.46 24.9 -23.85 13.25 11.17c18.47,-9.32 27.33,-21.87 52.65,-26.5 7.61,12.51 28.55,31.96 32.84,42.16l-20.17 19.99c-18.01,-9.35 -22.53,-17.83 -40.93,-2.87 -12.82,10.42 -24.03,21.42 -17.07,44.04 36.11,17.45 68.23,-28.01 114.11,-20.17 18.52,3.17 34.08,16.52 42.65,31.34 13.89,24.03 9.37,35.71 4.33,62.67l70.12 -0.21c32.83,-200.73 -206.15,-300.6 -313.98,-163.59 -26.1,33.17 -50.48,112.42 -21.72,163.13z"/>
  <g>
   <path class="fil1 str0" d="M332.1 10.42l1497.68 0c176.93,0 321.68,144.76 321.68,321.68l0 1537.54c0,176.93 -144.76,321.68 -321.68,321.68l-1497.68 0c-176.93,0 -321.68,-144.76 -321.68,-321.68l0 -1537.54c0,-176.93 144.76,-321.68 321.68,-321.68z"/>
  </g>
 </g>
</svg>
